<svg xmlns="http://www.w3.org/2000/svg" width="2250" height="250" viewBox="0 0 2250 250"><path d="M89.768 81.518c-.554.013-1.143.072-1.732.131-1.179 2.122-2.358 4.243-3.418 7.19-1.061 2.946-2.004 6.718-2.122 11.963-.117 5.244.589 11.963 4.243 19.564 3.654 7.602 10.253 16.085 18.03 22.508 7.78 6.423 16.736 10.784 21.567 15.734 4.832 4.95 5.54 10.488 4.243 18.856-1.297 8.367-4.597 19.562-6.247 28.52-1.65 8.956-1.648 15.674 4.186 18.443 5.834 2.769 17.5 1.59 24.807-3.889 7.306-5.48 10.25-15.26 14.847-23.04 4.597-7.778 10.844-13.552 13.26-21.86 2.416-8.308 1.002-19.15-.412-27.46-1.414-8.308-2.828-14.083-8.484-18.857-1.809-1.526-4.055-2.947-6.555-4.166l3.017 4.225-1.06 1.767-3.182-3.535-3.888-2.474-.397-2.182c-3.982-1.273-8.244-1.988-12.273-1.826-4.817.194-9.288 1.625-13.518 2.959l-5.633 2.816 2.121 1.06-4.242 2.829-7.072-1.768-4.09-4.09c-3.694-1.477-7.2-3.933-10.521-6.988-4.36-4.01-8.392-9.05-10.842-14.027l-1.416 2.478-1.414-5.658.414-4.773c-.544-5.294.983-9.762.883-12.078-.088-2.034-1.437-2.41-3.1-2.372z" fill="#755339"/><path d="M84.671 89.351a37.044 37.044 0 00-1.76 4.088c-1.06 2.947-2.003 6.718-2.12 11.963-.118 5.245.588 11.963 4.242 19.565 3.654 7.601 10.252 16.085 18.03 22.507 7.78 6.423 16.736 10.785 21.567 15.735 4.832 4.95 5.54 10.488 4.243 18.855-1.297 8.367-4.597 19.563-6.247 28.52-1.009 5.48-1.392 10.115-.209 13.527 2.6.414 5.264.55 7.989.379 11.536-.728 24.075-6.685 32.293-15.193 1.214-2.465 2.42-4.918 3.767-7.198 1.654-2.798 3.505-5.323 5.33-7.814 2.564-7.446 3.01-14.939 2.51-20.293-.766-8.19-3.713-11.372-5.01-11.195-1.296.176-.942 3.712-2.297 4.89-1.354 1.178-4.42-.002-6.248.352-1.827.353-2.416 2.24-3.535 3.418-1.119 1.178-2.769 1.649-4.478 3.24-1.71 1.591-3.477 4.303-4.95 4.951-1.472.649-2.65-.765-3.064-4.36-.413-3.594-.06-9.37-2.828-14.32-2.769-4.95-8.661-9.074-15.732-13.14-7.072-4.066-15.32-8.073-21.979-12.787-6.659-4.714-11.726-10.135-14.791-15.674-3.065-5.54-4.126-11.195-4.303-16.734-.135-4.24.238-8.415-.42-13.282z" fill="#5a371d"/><path d="M92.842 84.69c-3.45 9.383-3.643 19.523-1.984 25.989 1.774 6.916 5.664 9.627 9.789 12.632 4.125 3.006 8.485 6.304 12.846 8.897 4.36 2.592 8.72 4.48 13.375 4.066 4.654-.413 9.605-3.124 14.142-4.715 4.538-1.59 8.663-2.062 12.375-.529 3.713 1.533 7.012 5.07 10.076 8.428 3.064 3.359 5.892 6.54 8.19 10.31 2.298 3.772 4.065 8.133 4.064 13.377 0 5.245-1.767 11.372-.47 17.854a21.059 21.059 0 001.355 4.318c2.024-3 3.792-6.102 4.832-9.68 2.416-8.307 1.002-19.15-.412-27.458-1.414-8.309-2.828-14.084-8.484-18.858-1.809-1.526-4.055-2.947-6.555-4.166l3.017 4.225-1.06 1.767-3.182-3.535-3.888-2.474-.397-2.182c-3.982-1.273-8.244-1.988-12.273-1.826-4.817.194-9.288 1.625-13.518 2.959l-5.633 2.816 2.121 1.06-4.242 2.829-7.072-1.768-4.09-4.09c-3.694-1.477-7.2-3.933-10.521-6.988-4.36-4.01-8.392-9.05-10.842-14.027l-1.416 2.478-1.414-5.658.414-4.773c-.487-4.746.68-8.815.857-11.278z" fill="#9a6741"/><path d="M339.768 81.518c-.554.013-1.143.072-1.732.131-1.178 2.122-2.357 4.243-3.418 7.19-1.06 2.946-2.003 6.718-2.121 11.963-.118 5.244.588 11.963 4.242 19.564 3.654 7.602 10.253 16.085 18.031 22.508 7.779 6.423 16.735 10.784 21.567 15.734 4.831 4.95 5.539 10.488 4.242 18.856-1.297 8.367-4.596 19.562-6.246 28.52-1.65 8.956-1.649 15.674 4.185 18.443 5.835 2.769 17.501 1.59 24.807-3.889 7.306-5.48 10.251-15.26 14.848-23.04 4.596-7.778 10.843-13.552 13.26-21.86 2.416-8.308 1.002-19.15-.413-27.46-1.414-8.308-2.827-14.083-8.484-18.857-1.808-1.526-4.054-2.947-6.555-4.166L419 129.38l-1.06 1.767-3.182-3.535-3.889-2.474-.396-2.182c-3.983-1.273-8.245-1.988-12.274-1.826-4.817.194-9.287 1.625-13.517 2.959l-5.633 2.816 2.12 1.06-4.241 2.829-7.073-1.768-4.09-4.09c-3.694-1.477-7.2-3.933-10.52-6.988-4.36-4.01-8.393-9.05-10.843-14.027l-1.416 2.478-1.414-5.658.414-4.773c-.543-5.294.983-9.762.883-12.078-.088-2.034-1.437-2.41-3.1-2.372z" fill="#755339"/><path d="M334.672 89.351a37.045 37.045 0 00-1.76 4.088c-1.06 2.947-2.003 6.718-2.121 11.963-.118 5.245.588 11.963 4.242 19.565 3.654 7.601 10.253 16.085 18.031 22.507 7.779 6.423 16.735 10.785 21.567 15.735 4.831 4.95 5.539 10.488 4.242 18.855-1.297 8.367-4.596 19.563-6.246 28.52-1.01 5.48-1.393 10.115-.21 13.527 2.6.414 5.264.55 7.99.379 11.536-.728 24.074-6.685 32.292-15.193 1.215-2.465 2.42-4.918 3.768-7.198 1.654-2.798 3.504-5.323 5.33-7.814 2.564-7.446 3.01-14.939 2.51-20.293-.766-8.19-3.713-11.372-5.01-11.195-1.297.176-.942 3.712-2.297 4.89-1.355 1.178-4.42-.002-6.248.352-1.828.353-2.416 2.24-3.535 3.418-1.12 1.178-2.77 1.649-4.479 3.24-1.709 1.591-3.476 4.303-4.949 4.951-1.473.649-2.651-.765-3.064-4.36-.413-3.594-.06-9.37-2.829-14.32-2.768-4.95-8.66-9.074-15.732-13.14-7.071-4.066-15.32-8.073-21.978-12.787-6.66-4.714-11.727-10.135-14.792-15.674-3.064-5.54-4.125-11.195-4.302-16.734-.136-4.24.238-8.415-.42-13.282z" fill="#5a371d"/><path d="M342.843 84.69c-3.45 9.383-3.643 19.523-1.985 25.989 1.774 6.916 5.665 9.627 9.79 12.632 4.124 3.006 8.484 6.304 12.845 8.897 4.36 2.592 8.72 4.48 13.375 4.066 4.655-.413 9.605-3.124 14.143-4.715 4.537-1.59 8.662-2.062 12.375-.529 3.712 1.533 7.012 5.07 10.076 8.428 3.064 3.359 5.891 6.54 8.19 10.31 2.297 3.772 4.064 8.133 4.064 13.377 0 5.245-1.768 11.372-.471 17.854a21.059 21.059 0 001.356 4.318c2.023-3 3.791-6.102 4.832-9.68 2.416-8.307 1.002-19.15-.413-27.458-1.414-8.309-2.827-14.084-8.484-18.858-1.808-1.526-4.054-2.947-6.555-4.166L419 129.38l-1.06 1.767-3.182-3.535-3.889-2.474-.396-2.182c-3.983-1.273-8.245-1.988-12.274-1.826-4.817.194-9.287 1.625-13.517 2.959l-5.633 2.816 2.12 1.06-4.241 2.829-7.073-1.768-4.09-4.09c-3.694-1.477-7.2-3.933-10.52-6.988-4.36-4.01-8.393-9.05-10.843-14.027l-1.416 2.478-1.414-5.658.414-4.773c-.487-4.746.681-8.815.858-11.278z" fill="#9a6741"/><path d="M589.768 81.518c-.554.013-1.143.072-1.732.131-1.179 2.122-2.357 4.243-3.418 7.19-1.06 2.946-2.004 6.718-2.121 11.963-.118 5.244.588 11.963 4.242 19.564 3.654 7.602 10.253 16.085 18.031 22.508 7.779 6.423 16.735 10.784 21.567 15.734 4.831 4.95 5.538 10.488 4.242 18.856-1.297 8.367-4.596 19.562-6.246 28.52-1.65 8.956-1.649 15.674 4.185 18.443 5.834 2.769 17.5 1.59 24.807-3.889 7.306-5.48 10.251-15.26 14.848-23.04 4.596-7.778 10.843-13.552 13.26-21.86 2.416-8.308 1.001-19.15-.413-27.46-1.414-8.308-2.828-14.083-8.484-18.857-1.809-1.526-4.054-2.947-6.555-4.166L669 129.38l-1.06 1.767-3.182-3.535-3.89-2.474-.396-2.182c-3.982-1.273-8.244-1.988-12.273-1.826-4.817.194-9.287 1.625-13.518 2.959l-5.632 2.816 2.12 1.06-4.242 2.829-7.072-1.768-4.09-4.09c-3.694-1.477-7.2-3.933-10.521-6.988-4.36-4.01-8.392-9.05-10.842-14.027l-1.416 2.478-1.414-5.658.414-4.773c-.543-5.294.983-9.762.883-12.078-.088-2.034-1.437-2.41-3.1-2.372z" fill="#755339"/><path d="M584.672 89.351a37.045 37.045 0 00-1.76 4.088c-1.06 2.947-2.004 6.718-2.121 11.963-.118 5.245.588 11.963 4.242 19.565 3.654 7.601 10.253 16.085 18.031 22.507 7.779 6.423 16.735 10.785 21.567 15.735 4.831 4.95 5.538 10.488 4.242 18.855-1.297 8.367-4.596 19.563-6.246 28.52-1.01 5.48-1.393 10.115-.21 13.527 2.6.414 5.264.55 7.989.379 11.537-.728 24.075-6.685 32.293-15.193 1.215-2.465 2.42-4.918 3.768-7.198 1.653-2.798 3.504-5.323 5.33-7.814 2.564-7.446 3.01-14.939 2.51-20.293-.766-8.19-3.714-11.372-5.01-11.195-1.297.176-.943 3.712-2.297 4.89-1.355 1.178-4.42-.002-6.248.352-1.828.353-2.416 2.24-3.535 3.418-1.12 1.178-2.77 1.649-4.479 3.24-1.71 1.591-3.477 4.303-4.95 4.951-1.472.649-2.65-.765-3.064-4.36-.413-3.594-.059-9.37-2.828-14.32-2.769-4.95-8.661-9.074-15.732-13.14-7.071-4.066-15.32-8.073-21.979-12.787-6.659-4.714-11.726-10.135-14.79-15.674-3.065-5.54-4.127-11.195-4.303-16.734-.136-4.24.238-8.415-.42-13.282z" fill="#5a371d"/><path d="M592.842 84.69c-3.45 9.383-3.642 19.523-1.984 25.989 1.774 6.916 5.664 9.627 9.79 12.632 4.124 3.006 8.484 6.304 12.845 8.897 4.36 2.592 8.72 4.48 13.375 4.066 4.655-.413 9.605-3.124 14.142-4.715 4.538-1.59 8.663-2.062 12.375-.529 3.713 1.533 7.012 5.07 10.077 8.428 3.064 3.359 5.891 6.54 8.19 10.31 2.297 3.772 4.064 8.133 4.064 13.377 0 5.245-1.768 11.372-.471 17.854a21.059 21.059 0 001.355 4.318c2.024-3 3.792-6.102 4.832-9.68 2.417-8.307 1.002-19.15-.412-27.458-1.414-8.309-2.828-14.084-8.484-18.858-1.809-1.526-4.054-2.947-6.555-4.166L669 129.38l-1.06 1.767-3.182-3.535-3.89-2.474-.396-2.182c-3.982-1.273-8.244-1.988-12.273-1.826-4.817.194-9.287 1.625-13.518 2.959l-5.632 2.816 2.12 1.06-4.242 2.829-7.072-1.768-4.09-4.09c-3.694-1.477-7.2-3.933-10.521-6.988-4.36-4.01-8.392-9.05-10.842-14.027l-1.416 2.478-1.414-5.658.414-4.773c-.487-4.746.68-8.815.857-11.278z" fill="#9a6741"/><path d="M839.768 81.518c-.554.013-1.143.072-1.732.131-1.179 2.122-2.357 4.243-3.418 7.19-1.06 2.946-2.004 6.718-2.121 11.963-.118 5.244.588 11.963 4.242 19.564 3.654 7.602 10.253 16.085 18.031 22.508 7.779 6.423 16.735 10.784 21.567 15.734 4.831 4.95 5.538 10.488 4.242 18.856-1.297 8.367-4.596 19.562-6.246 28.52-1.65 8.956-1.649 15.674 4.185 18.443 5.834 2.769 17.5 1.59 24.807-3.889 7.306-5.48 10.251-15.26 14.848-23.04 4.596-7.778 10.843-13.552 13.26-21.86 2.416-8.308 1.001-19.15-.413-27.46-1.414-8.308-2.828-14.083-8.484-18.857-1.809-1.526-4.054-2.947-6.555-4.166L919 129.38l-1.06 1.767-3.182-3.535-3.89-2.474-.396-2.182c-3.982-1.273-8.244-1.988-12.273-1.826-4.817.194-9.287 1.625-13.518 2.959l-5.632 2.816 2.12 1.06-4.242 2.829-7.072-1.768-4.09-4.09c-3.694-1.477-7.2-3.933-10.521-6.988-4.36-4.01-8.392-9.05-10.842-14.027l-1.416 2.478-1.414-5.658.414-4.773c-.543-5.294.983-9.762.883-12.078-.088-2.034-1.437-2.41-3.1-2.372z" fill="#755339"/><path d="M834.672 89.351a37.045 37.045 0 00-1.76 4.088c-1.06 2.947-2.004 6.718-2.121 11.963-.118 5.245.588 11.963 4.242 19.565 3.654 7.601 10.253 16.085 18.031 22.507 7.779 6.423 16.735 10.785 21.567 15.735 4.831 4.95 5.538 10.488 4.242 18.855-1.297 8.367-4.596 19.563-6.246 28.52-1.01 5.48-1.393 10.115-.21 13.527 2.6.414 5.264.55 7.989.379 11.537-.728 24.075-6.685 32.293-15.193 1.215-2.465 2.42-4.918 3.768-7.198 1.653-2.798 3.504-5.323 5.33-7.814 2.564-7.446 3.01-14.939 2.51-20.293-.766-8.19-3.714-11.372-5.01-11.195-1.297.176-.943 3.712-2.297 4.89-1.355 1.178-4.42-.002-6.248.352-1.828.353-2.416 2.24-3.535 3.418-1.12 1.178-2.77 1.649-4.479 3.24-1.71 1.591-3.477 4.303-4.95 4.951-1.472.649-2.65-.765-3.064-4.36-.413-3.594-.059-9.37-2.828-14.32-2.769-4.95-8.661-9.074-15.732-13.14-7.071-4.066-15.32-8.073-21.979-12.787-6.659-4.714-11.726-10.135-14.79-15.674-3.065-5.54-4.127-11.195-4.303-16.734-.136-4.24.238-8.415-.42-13.282z" fill="#5a371d"/><path d="M842.842 84.69c-3.45 9.383-3.642 19.523-1.984 25.989 1.774 6.916 5.664 9.627 9.79 12.632 4.124 3.006 8.484 6.304 12.845 8.897 4.36 2.592 8.72 4.48 13.375 4.066 4.655-.413 9.605-3.124 14.142-4.715 4.538-1.59 8.663-2.062 12.375-.529 3.713 1.533 7.012 5.07 10.077 8.428 3.064 3.359 5.891 6.54 8.19 10.31 2.297 3.772 4.064 8.133 4.064 13.377 0 5.245-1.768 11.372-.471 17.854a21.059 21.059 0 001.355 4.318c2.024-3 3.792-6.102 4.832-9.68 2.417-8.307 1.002-19.15-.412-27.458-1.414-8.309-2.828-14.084-8.484-18.858-1.809-1.526-4.054-2.947-6.555-4.166L919 129.38l-1.06 1.767-3.182-3.535-3.89-2.474-.396-2.182c-3.982-1.273-8.244-1.988-12.273-1.826-4.817.194-9.287 1.625-13.518 2.959l-5.632 2.816 2.12 1.06-4.242 2.829-7.072-1.768-4.09-4.09c-3.694-1.477-7.2-3.933-10.521-6.988-4.36-4.01-8.392-9.05-10.842-14.027l-1.416 2.478-1.414-5.658.414-4.773c-.487-4.746.68-8.815.857-11.278z" fill="#9a6741"/><path d="M1089.768 81.518c-.554.013-1.143.072-1.732.131-1.179 2.122-2.358 4.243-3.418 7.19-1.06 2.946-2.003 6.718-2.121 11.963-.118 5.244.588 11.963 4.242 19.564 3.654 7.602 10.253 16.085 18.031 22.508 7.779 6.423 16.735 10.784 21.567 15.734 4.831 4.95 5.538 10.488 4.242 18.856-1.297 8.367-4.597 19.562-6.246 28.52-1.65 8.956-1.649 15.674 4.185 18.443 5.834 2.769 17.5 1.59 24.807-3.889 7.306-5.48 10.251-15.26 14.848-23.04 4.596-7.778 10.843-13.552 13.26-21.86 2.415-8.308 1.001-19.15-.413-27.46-1.414-8.308-2.828-14.083-8.484-18.857-1.809-1.526-4.054-2.947-6.555-4.166l3.018 4.225-1.06 1.767-3.183-3.535-3.888-2.474-.397-2.182c-3.982-1.273-8.244-1.988-12.273-1.826-4.817.194-9.287 1.625-13.518 2.959l-5.632 2.816 2.12 1.06-4.242 2.829-7.072-1.768-4.09-4.09c-3.694-1.477-7.2-3.933-10.521-6.988-4.36-4.01-8.392-9.05-10.842-14.027l-1.416 2.478-1.414-5.658.414-4.773c-.543-5.294.983-9.762.883-12.078-.088-2.034-1.437-2.41-3.1-2.372z" fill="#755339"/><path d="M1084.672 89.351a37.045 37.045 0 00-1.76 4.088c-1.06 2.947-2.004 6.718-2.121 11.963-.118 5.245.588 11.963 4.242 19.565 3.654 7.601 10.253 16.085 18.031 22.507 7.779 6.423 16.735 10.785 21.567 15.735 4.831 4.95 5.538 10.488 4.242 18.855-1.297 8.367-4.597 19.563-6.246 28.52-1.01 5.48-1.393 10.115-.21 13.527 2.6.414 5.264.55 7.989.379 11.537-.728 24.075-6.685 32.293-15.193 1.215-2.465 2.42-4.918 3.767-7.198 1.654-2.798 3.505-5.323 5.33-7.814 2.565-7.446 3.01-14.939 2.51-20.293-.765-8.19-3.713-11.372-5.01-11.195-1.296.176-.942 3.712-2.296 4.89-1.355 1.178-4.42-.002-6.248.352-1.828.353-2.416 2.24-3.536 3.418-1.119 1.178-2.769 1.649-4.478 3.24-1.71 1.591-3.477 4.303-4.95 4.951-1.472.649-2.65-.765-3.064-4.36-.413-3.594-.059-9.37-2.828-14.32-2.769-4.95-8.661-9.074-15.732-13.14-7.071-4.066-15.32-8.073-21.979-12.787-6.659-4.714-11.726-10.135-14.79-15.674-3.065-5.54-4.127-11.195-4.304-16.734-.135-4.24.239-8.415-.42-13.282z" fill="#5a371d"/><path d="M1092.842 84.69c-3.45 9.383-3.643 19.523-1.984 25.989 1.774 6.916 5.664 9.627 9.79 12.632 4.124 3.006 8.484 6.304 12.845 8.897 4.36 2.592 8.72 4.48 13.375 4.066 4.655-.413 9.605-3.124 14.142-4.715 4.538-1.59 8.663-2.062 12.375-.529 3.713 1.533 7.012 5.07 10.077 8.428 3.064 3.359 5.891 6.54 8.19 10.31 2.297 3.772 4.064 8.133 4.063 13.377 0 5.245-1.767 11.372-.47 17.854a21.054 21.054 0 001.355 4.318c2.024-3 3.792-6.102 4.832-9.68 2.416-8.307 1.002-19.15-.412-27.458-1.414-8.309-2.828-14.084-8.484-18.858-1.809-1.526-4.054-2.947-6.555-4.166l3.018 4.225-1.06 1.767-3.183-3.535-3.888-2.474-.397-2.182c-3.982-1.273-8.244-1.988-12.273-1.826-4.817.194-9.287 1.625-13.518 2.959l-5.633 2.816 2.122 1.06-4.243 2.829-7.072-1.768-4.09-4.09c-3.694-1.477-7.2-3.933-10.521-6.988-4.36-4.01-8.392-9.05-10.842-14.027l-1.416 2.478-1.414-5.658.414-4.773c-.487-4.746.68-8.815.857-11.278z" fill="#9a6741"/><path d="M1339.768 81.518c-.554.013-1.143.072-1.732.131-1.179 2.122-2.358 4.243-3.418 7.19-1.06 2.946-2.003 6.718-2.121 11.963-.118 5.244.588 11.963 4.242 19.564 3.654 7.602 10.253 16.085 18.031 22.508 7.779 6.423 16.735 10.784 21.567 15.734 4.831 4.95 5.538 10.488 4.242 18.856-1.297 8.367-4.597 19.562-6.246 28.52-1.65 8.956-1.649 15.674 4.185 18.443 5.834 2.769 17.5 1.59 24.807-3.889 7.306-5.48 10.251-15.26 14.848-23.04 4.596-7.778 10.843-13.552 13.26-21.86 2.415-8.308 1.001-19.15-.413-27.46-1.414-8.308-2.828-14.083-8.484-18.857-1.809-1.526-4.054-2.947-6.555-4.166l3.018 4.225-1.06 1.767-3.183-3.535-3.888-2.474-.397-2.182c-3.982-1.273-8.244-1.988-12.273-1.826-4.817.194-9.287 1.625-13.518 2.959l-5.632 2.816 2.12 1.06-4.242 2.829-7.072-1.768-4.09-4.09c-3.694-1.477-7.2-3.933-10.521-6.988-4.36-4.01-8.392-9.05-10.842-14.027l-1.416 2.478-1.414-5.658.414-4.773c-.543-5.294.983-9.762.883-12.078-.088-2.034-1.437-2.41-3.1-2.372z" fill="#755339"/><path d="M1334.672 89.351a37.045 37.045 0 00-1.76 4.088c-1.06 2.947-2.004 6.718-2.121 11.963-.118 5.245.588 11.963 4.242 19.565 3.654 7.601 10.253 16.085 18.031 22.507 7.779 6.423 16.735 10.785 21.567 15.735 4.831 4.95 5.538 10.488 4.242 18.855-1.297 8.367-4.597 19.563-6.246 28.52-1.01 5.48-1.393 10.115-.21 13.527 2.6.414 5.264.55 7.989.379 11.537-.728 24.075-6.685 32.293-15.193 1.215-2.465 2.42-4.918 3.767-7.198 1.654-2.798 3.505-5.323 5.33-7.814 2.565-7.446 3.01-14.939 2.51-20.293-.765-8.19-3.713-11.372-5.01-11.195-1.296.176-.942 3.712-2.296 4.89-1.355 1.178-4.42-.002-6.248.352-1.828.353-2.416 2.24-3.536 3.418-1.119 1.178-2.769 1.649-4.478 3.24-1.71 1.591-3.477 4.303-4.95 4.951-1.472.649-2.65-.765-3.064-4.36-.413-3.594-.059-9.37-2.828-14.32-2.769-4.95-8.661-9.074-15.732-13.14-7.071-4.066-15.32-8.073-21.979-12.787-6.659-4.714-11.726-10.135-14.79-15.674-3.065-5.54-4.127-11.195-4.304-16.734-.135-4.24.239-8.415-.42-13.282z" fill="#5a371d"/><path d="M1342.842 84.69c-3.45 9.383-3.643 19.523-1.984 25.989 1.774 6.916 5.664 9.627 9.79 12.632 4.124 3.006 8.484 6.304 12.845 8.897 4.36 2.592 8.72 4.48 13.375 4.066 4.655-.413 9.605-3.124 14.142-4.715 4.538-1.59 8.663-2.062 12.375-.529 3.713 1.533 7.012 5.07 10.077 8.428 3.064 3.359 5.891 6.54 8.19 10.31 2.297 3.772 4.064 8.133 4.063 13.377 0 5.245-1.767 11.372-.47 17.854a21.054 21.054 0 001.355 4.318c2.024-3 3.792-6.102 4.832-9.68 2.416-8.307 1.002-19.15-.412-27.458-1.414-8.309-2.828-14.084-8.484-18.858-1.809-1.526-4.054-2.947-6.555-4.166l3.018 4.225-1.06 1.767-3.183-3.535-3.888-2.474-.397-2.182c-3.982-1.273-8.244-1.988-12.273-1.826-4.817.194-9.287 1.625-13.518 2.959l-5.633 2.816 2.122 1.06-4.243 2.829-7.072-1.768-4.09-4.09c-3.694-1.477-7.2-3.933-10.521-6.988-4.36-4.01-8.392-9.05-10.842-14.027l-1.416 2.478-1.414-5.658.414-4.773c-.487-4.746.68-8.815.857-11.278z" fill="#9a6741"/><g><path d="M128.715 156.008c-1.381 2.585-3.427 4.906-5.525 7.333-2.097 2.427-4.246 4.96-7.11 7.914-2.865 2.954-6.446 6.33-9.208 9.443-2.763 3.113-4.707 5.962-5.985 6.437-1.279.475-1.893-1.424-4.655-4.642-2.762-3.219-7.673-7.756-13.146-11.554-5.474-3.799-11.51-6.859-14.17-7.65-2.66-.791-1.945.686-.358 2.163 1.586 1.477 4.041 2.954 6.599 4.643 2.558 1.688 5.218 3.587 7.622 5.856 2.404 2.269 4.552 4.906 6.138 7.439 1.586 2.532 2.609 4.959 3.53 7.439.92 2.48 1.739 5.012 3.632 6.383 1.893 1.37 4.86 1.582 7.52.369 2.659-1.214 5.012-3.852 7.723-6.12 2.712-2.27 5.781-4.168 9.618-6.7 3.836-2.533 8.44-5.698 13.351-8.284 4.911-2.585 10.129-4.59 12.329-8.018 2.199-3.429 1.38-8.282-1.637-11.976-3.018-3.693-8.236-6.225-11.203-6.067-2.968.158-3.684 3.007-5.065 5.592z" fill="#5a371d"/><path d="M133.853 150.304c-.127.007-.245.025-.363.041 1.767 2.777 4.22 6.174 5.412 9.152 1.296 3.241 1.06 5.95-1.827 8.66s-8.427 5.421-13.376 8.426c-4.95 3.006-9.31 6.306-12.905 8.899-3.594 2.593-6.422 4.477-8.543 4.89-2.12.413-3.535-.647-5.892-3.298-2.357-2.652-5.657-6.894-9.428-10.43-3.771-3.536-8.014-6.365-11.785-8.899-3.167-2.127-5.995-4.036-7.416-3.376.24.307.542.637.9.97 1.586 1.477 4.042 2.955 6.6 4.643 2.558 1.688 5.219 3.587 7.623 5.855 2.404 2.269 4.55 4.907 6.137 7.44 1.585 2.532 2.608 4.96 3.529 7.44.92 2.479 1.74 5.01 3.633 6.382 1.893 1.371 4.86 1.583 7.52.37 2.659-1.214 5.012-3.853 7.724-6.122 2.711-2.269 5.78-4.167 9.617-6.7 3.837-2.532 8.44-5.697 13.352-8.282 4.91-2.586 10.128-4.591 12.328-8.02 2.2-3.429 1.38-8.281-1.637-11.975-3.018-3.693-8.236-6.224-11.203-6.066z" fill="#755339"/><path d="M91.924 185.595l-9.9-2.829h-8.131l-14.142 1.415-4.95-9.546-10.253-9.193 3.182-.353 8.485 6.717 1.768 4.95 3.182 2.121 5.657-.707h15.202l4.597.354zM81.67 115.945l-2.474-12.021-10.607-4.596-17.324-18.739-2.828-21.213-2.475-14.142-2.828-3.536h3.535l2.475 4.243 1.414 13.789 2.829 12.02 4.242 4.243.354 4.596 8.131 9.193 7.779 2.475 8.485 4.95z" fill="#5a371d"/><path d="M97.58 112.763l4.243-10.253 7.425-8.486 5.657-8.838 2.121-14.496 5.303-8.839 6.364-.707 2.122-6.364 1.414-9.546h2.828l-1.06 4.596v8.839l-.707 7.071-4.95.707-.354 4.243-4.95 4.596-1.414 4.596-1.414 7.778-7.07 8.84-7.426 8.131.354 9.546-1.06 7.071-7.425-6.364v.354z" fill="#9a6741"/><path d="M117.026 70.69l5.303-8.839-9.192 2.475-6.01-8.132-4.597-9.192-3.889-1.414-3.535 3.889 4.596.353 2.121 6.01 4.243 8.84.707 4.95zM378.715 156.008c-1.38 2.585-3.427 4.906-5.524 7.333-2.098 2.427-4.246 4.96-7.11 7.914-2.866 2.954-6.446 6.33-9.209 9.443-2.762 3.113-4.706 5.962-5.985 6.437-1.278.475-1.892-1.424-4.654-4.642-2.762-3.219-7.673-7.756-13.147-11.554-5.473-3.799-11.51-6.859-14.17-7.65-2.66-.791-1.944.686-.358 2.163 1.586 1.477 4.042 2.954 6.6 4.643 2.557 1.688 5.217 3.587 7.621 5.856 2.404 2.269 4.553 4.906 6.139 7.439 1.585 2.532 2.608 4.959 3.529 7.439.92 2.48 1.74 5.012 3.632 6.383 1.893 1.37 4.86 1.582 7.52.369 2.66-1.214 5.012-3.852 7.724-6.12 2.711-2.27 5.78-4.168 9.617-6.7 3.837-2.533 8.44-5.698 13.352-8.284 4.91-2.585 10.128-4.59 12.328-8.018 2.2-3.429 1.381-8.282-1.637-11.976-3.017-3.693-8.235-6.225-11.203-6.067-2.967.158-3.684 3.007-5.065 5.592z" fill="#5a371d"/><path d="M383.853 150.304c-.127.007-.244.025-.363.041 1.767 2.777 4.221 6.174 5.412 9.152 1.296 3.241 1.061 5.95-1.826 8.66s-8.427 5.421-13.377 8.426c-4.95 3.006-9.31 6.306-12.904 8.899-3.595 2.593-6.422 4.477-8.543 4.89-2.121.413-3.536-.647-5.893-3.298-2.357-2.652-5.656-6.894-9.428-10.43-3.77-3.536-8.013-6.365-11.785-8.899-3.166-2.127-5.995-4.036-7.416-3.376.24.307.543.637.9.97 1.587 1.477 4.043 2.955 6.6 4.643 2.558 1.688 5.22 3.587 7.623 5.855 2.405 2.269 4.551 4.907 6.137 7.44 1.586 2.532 2.609 4.96 3.53 7.44.92 2.479 1.74 5.01 3.632 6.382 1.893 1.371 4.86 1.583 7.52.37 2.66-1.214 5.013-3.853 7.724-6.122 2.712-2.269 5.78-4.167 9.617-6.7 3.837-2.532 8.441-5.697 13.352-8.282 4.911-2.586 10.129-4.591 12.328-8.02 2.2-3.429 1.381-8.281-1.637-11.975-3.017-3.693-8.235-6.224-11.203-6.066z" fill="#755339"/><path d="M341.924 185.595l-9.9-2.829h-8.13l-14.143 1.415-4.95-9.546-10.253-9.193 3.182-.353 8.485 6.717 1.768 4.95 3.182 2.121 5.657-.707h15.203l4.596.354zM331.671 115.945l-2.475-12.021-10.606-4.596-17.324-18.739-2.829-21.213-2.475-14.142-2.828-3.536h3.536l2.474 4.243 1.415 13.789 2.828 12.02 4.243 4.243.353 4.596 8.132 9.193 7.778 2.475 8.485 4.95z" fill="#5a371d"/><path d="M347.581 112.763l4.243-10.253 7.424-8.486 5.657-8.838 2.122-14.496 5.303-8.839 6.364-.707 2.121-6.364 1.414-9.546h2.829l-1.06 4.596v8.839l-.708 7.071-4.95.707-.353 4.243-4.95 4.596-1.414 4.596-1.414 7.778-7.071 8.84-7.425 8.131.354 9.546-1.061 7.071-7.425-6.364v.354z" fill="#9a6741"/><path d="M367.027 70.69l5.303-8.839-9.192 2.475-6.01-8.132-4.597-9.192-3.89-1.414-3.535 3.889 4.597.353 2.12 6.01 4.244 8.84.707 4.95zM628.715 156.008c-1.381 2.585-3.427 4.906-5.525 7.333-2.097 2.427-4.245 4.96-7.11 7.914-2.865 2.954-6.446 6.33-9.208 9.443-2.762 3.113-4.706 5.962-5.985 6.437-1.279.475-1.892-1.424-4.655-4.642-2.762-3.219-7.672-7.756-13.146-11.554-5.474-3.799-11.51-6.859-14.17-7.65-2.66-.791-1.944.686-.358 2.163 1.586 1.477 4.041 2.954 6.599 4.643 2.558 1.688 5.218 3.587 7.622 5.856 2.404 2.269 4.553 4.906 6.138 7.439 1.586 2.532 2.609 4.959 3.53 7.439.92 2.48 1.739 5.012 3.632 6.383 1.893 1.37 4.86 1.582 7.52.369 2.66-1.214 5.012-3.852 7.724-6.12 2.711-2.27 5.78-4.168 9.617-6.7 3.837-2.533 8.44-5.698 13.352-8.284 4.91-2.585 10.128-4.59 12.328-8.018 2.2-3.429 1.38-8.282-1.637-11.976-3.018-3.693-8.235-6.225-11.203-6.067-2.968.158-3.684 3.007-5.065 5.592z" fill="#5a371d"/><path d="M633.853 150.304c-.127.007-.244.025-.363.041 1.767 2.777 4.22 6.174 5.412 9.152 1.296 3.241 1.06 5.95-1.826 8.66-2.887 2.71-8.427 5.421-13.377 8.426-4.95 3.006-9.31 6.306-12.905 8.899-3.594 2.593-6.422 4.477-8.542 4.89-2.121.413-3.536-.647-5.893-3.298-2.357-2.652-5.657-6.894-9.428-10.43-3.77-3.536-8.014-6.365-11.785-8.899-3.166-2.127-5.995-4.036-7.416-3.376.24.307.543.637.9.97 1.587 1.477 4.042 2.955 6.6 4.643 2.558 1.688 5.219 3.587 7.623 5.855 2.404 2.269 4.551 4.907 6.137 7.44 1.585 2.532 2.608 4.96 3.53 7.44.92 2.479 1.739 5.01 3.632 6.382 1.893 1.371 4.86 1.583 7.52.37 2.659-1.214 5.013-3.853 7.724-6.122 2.711-2.269 5.78-4.167 9.617-6.7 3.837-2.532 8.44-5.697 13.352-8.282 4.91-2.586 10.128-4.591 12.328-8.02 2.2-3.429 1.381-8.281-1.637-11.975-3.018-3.693-8.235-6.224-11.203-6.066z" fill="#755339"/><path d="M591.924 185.595l-9.9-2.829h-8.131l-14.142 1.415-4.95-9.546-10.253-9.193 3.182-.353 8.485 6.717 1.768 4.95 3.182 2.121 5.657-.707h15.203l4.596.354zM878.715 156.008c-1.381 2.585-3.427 4.906-5.525 7.333-2.097 2.427-4.245 4.96-7.11 7.914-2.865 2.954-6.446 6.33-9.208 9.443-2.762 3.113-4.706 5.962-5.985 6.437-1.279.475-1.892-1.424-4.655-4.642-2.762-3.219-7.672-7.756-13.146-11.554-5.474-3.799-11.51-6.859-14.17-7.65-2.66-.791-1.944.686-.358 2.163 1.586 1.477 4.041 2.954 6.599 4.643 2.558 1.688 5.218 3.587 7.622 5.856 2.404 2.269 4.553 4.906 6.138 7.439 1.586 2.532 2.609 4.959 3.53 7.439.92 2.48 1.739 5.012 3.632 6.383 1.893 1.37 4.86 1.582 7.52.369 2.66-1.214 5.012-3.852 7.724-6.12 2.711-2.27 5.78-4.168 9.617-6.7 3.837-2.533 8.44-5.698 13.352-8.284 4.91-2.585 10.128-4.59 12.328-8.018 2.2-3.429 1.38-8.282-1.637-11.976-3.018-3.693-8.235-6.225-11.203-6.067-2.968.158-3.684 3.007-5.065 5.592z" fill="#5a371d"/><path d="M883.853 150.304c-.127.007-.244.025-.363.041 1.767 2.777 4.22 6.174 5.412 9.152 1.296 3.241 1.06 5.95-1.826 8.66-2.887 2.71-8.427 5.421-13.377 8.426-4.95 3.006-9.31 6.306-12.905 8.899-3.594 2.593-6.422 4.477-8.542 4.89-2.121.413-3.536-.647-5.893-3.298-2.357-2.652-5.657-6.894-9.428-10.43-3.77-3.536-8.014-6.365-11.785-8.899-3.166-2.127-5.995-4.036-7.416-3.376.24.307.543.637.9.97 1.587 1.477 4.042 2.955 6.6 4.643 2.558 1.688 5.219 3.587 7.623 5.855 2.404 2.269 4.551 4.907 6.137 7.44 1.585 2.532 2.608 4.96 3.53 7.44.92 2.479 1.739 5.01 3.632 6.382 1.893 1.371 4.86 1.583 7.52.37 2.659-1.214 5.013-3.853 7.724-6.122 2.711-2.269 5.78-4.167 9.617-6.7 3.837-2.532 8.44-5.697 13.352-8.282 4.91-2.586 10.128-4.591 12.328-8.02 2.2-3.429 1.381-8.281-1.637-11.975-3.018-3.693-8.235-6.224-11.203-6.066z" fill="#755339"/><path d="M841.924 185.595l-9.9-2.829h-8.131l-14.142 1.415-4.95-9.546-10.253-9.193 3.182-.353 8.485 6.717 1.768 4.95 3.182 2.121 5.657-.707h15.203l4.596.354zM1128.715 156.008c-1.381 2.585-3.427 4.906-5.525 7.333-2.097 2.427-4.245 4.96-7.11 7.914-2.865 2.954-6.446 6.33-9.208 9.443-2.763 3.113-4.706 5.962-5.985 6.437-1.279.475-1.892-1.424-4.655-4.642-2.762-3.219-7.672-7.756-13.146-11.554-5.474-3.799-11.51-6.859-14.17-7.65-2.66-.791-1.944.686-.358 2.163 1.586 1.477 4.041 2.954 6.6 4.643 2.557 1.688 5.217 3.587 7.621 5.856 2.404 2.269 4.553 4.906 6.138 7.439 1.586 2.532 2.609 4.959 3.53 7.439.92 2.48 1.739 5.012 3.632 6.383 1.893 1.37 4.86 1.582 7.52.369 2.66-1.214 5.012-3.852 7.724-6.12 2.711-2.27 5.78-4.168 9.617-6.7 3.837-2.533 8.44-5.698 13.352-8.284 4.91-2.585 10.128-4.59 12.328-8.018 2.2-3.429 1.38-8.282-1.637-11.976-3.018-3.693-8.235-6.225-11.203-6.067-2.967.158-3.684 3.007-5.065 5.592z" fill="#5a371d"/><path d="M1133.853 150.304c-.127.007-.244.025-.363.041 1.767 2.777 4.22 6.174 5.412 9.152 1.296 3.241 1.06 5.95-1.826 8.66-2.887 2.71-8.427 5.421-13.377 8.426-4.95 3.006-9.31 6.306-12.904 8.899-3.595 2.593-6.423 4.477-8.543 4.89-2.121.413-3.536-.647-5.893-3.298-2.357-2.652-5.657-6.894-9.428-10.43-3.77-3.536-8.014-6.365-11.785-8.899-3.166-2.127-5.995-4.036-7.416-3.376.24.307.543.637.9.97 1.587 1.477 4.042 2.955 6.6 4.643 2.558 1.688 5.219 3.587 7.623 5.855 2.404 2.269 4.551 4.907 6.137 7.44 1.586 2.532 2.608 4.96 3.53 7.44.92 2.479 1.739 5.01 3.632 6.382 1.893 1.371 4.86 1.583 7.52.37 2.659-1.214 5.013-3.853 7.724-6.122 2.712-2.269 5.78-4.167 9.617-6.7 3.837-2.532 8.44-5.697 13.352-8.282 4.91-2.586 10.128-4.591 12.328-8.02 2.2-3.429 1.381-8.281-1.637-11.975-3.017-3.693-8.235-6.224-11.203-6.066z" fill="#755339"/><path d="M1091.924 185.595l-9.9-2.829h-8.131l-14.142 1.415-4.95-9.546-10.253-9.193 3.182-.353 8.485 6.717 1.768 4.95 3.182 2.121 5.657-.707h15.203l4.596.354zM1378.715 156.008c-1.381 2.585-3.427 4.906-5.525 7.333-2.097 2.427-4.245 4.96-7.11 7.914-2.865 2.954-6.446 6.33-9.208 9.443-2.763 3.113-4.706 5.962-5.985 6.437-1.279.475-1.892-1.424-4.655-4.642-2.762-3.219-7.672-7.756-13.146-11.554-5.474-3.799-11.51-6.859-14.17-7.65-2.66-.791-1.944.686-.358 2.163 1.586 1.477 4.041 2.954 6.6 4.643 2.557 1.688 5.217 3.587 7.621 5.856 2.404 2.269 4.553 4.906 6.138 7.439 1.586 2.532 2.609 4.959 3.53 7.439.92 2.48 1.739 5.012 3.632 6.383 1.893 1.37 4.86 1.582 7.52.369 2.66-1.214 5.012-3.852 7.724-6.12 2.711-2.27 5.78-4.168 9.617-6.7 3.837-2.533 8.44-5.698 13.352-8.284 4.91-2.585 10.128-4.59 12.328-8.018 2.2-3.429 1.38-8.282-1.637-11.976-3.018-3.693-8.235-6.225-11.203-6.067-2.967.158-3.684 3.007-5.065 5.592z" fill="#5a371d"/><path d="M1383.853 150.304c-.127.007-.244.025-.363.041 1.767 2.777 4.22 6.174 5.412 9.152 1.296 3.241 1.06 5.95-1.826 8.66-2.887 2.71-8.427 5.421-13.377 8.426-4.95 3.006-9.31 6.306-12.904 8.899-3.595 2.593-6.423 4.477-8.543 4.89-2.121.413-3.536-.647-5.893-3.298-2.357-2.652-5.657-6.894-9.428-10.43-3.77-3.536-8.014-6.365-11.785-8.899-3.166-2.127-5.995-4.036-7.416-3.376.24.307.543.637.9.97 1.587 1.477 4.042 2.955 6.6 4.643 2.558 1.688 5.219 3.587 7.623 5.855 2.404 2.269 4.551 4.907 6.137 7.44 1.586 2.532 2.608 4.96 3.53 7.44.92 2.479 1.739 5.01 3.632 6.382 1.893 1.371 4.86 1.583 7.52.37 2.659-1.214 5.013-3.853 7.724-6.122 2.712-2.269 5.78-4.167 9.617-6.7 3.837-2.532 8.44-5.697 13.352-8.282 4.91-2.586 10.128-4.591 12.328-8.02 2.2-3.429 1.381-8.281-1.637-11.975-3.017-3.693-8.235-6.224-11.203-6.066z" fill="#755339"/><path d="M1341.924 185.595l-9.9-2.829h-8.131l-14.142 1.415-4.95-9.546-10.253-9.193 3.182-.353 8.485 6.717 1.768 4.95 3.182 2.121 5.657-.707h15.203l4.596.354z" fill="#5a371d"/></g><g><path d="M811.59 59.275l-22.801-.18-3.168-8.514 8.235-4.166 21.536.18 18.368 6.522 6.334-.725 9.502-3.622 17.418-2.899 26.603 3.804 4.434 6.34-11.718 2.717-36.104 2.173-14.568 1.45-11.718-1.268z" fill="#55553b"/><path d="M867.027 70.69l5.303-8.839-9.192 2.475-6.01-8.132-4.597-9.192-3.89-1.414-3.535 3.889 4.597.353 2.12 6.01 4.244 8.84.707 4.95z" fill="#5a371d"/><path d="M847.581 112.763l4.243-10.253 7.424-8.486 5.657-8.838 2.122-14.496 5.303-8.839 6.364-.707 2.121-6.364 1.414-9.546h2.829l-1.06 4.596v8.84l-.708 7.07-4.95.707-.353 4.243-4.95 4.596-1.414 4.596-1.414 7.778-7.071 8.84-7.425 8.131.354 9.546-1.061 7.071-7.425-6.364v.354z" fill="#9a6741"/><path d="M785.621 50.58l3.484-12.537 10.451-8.387 18.686-6.71 24.386 6.99 5.067-14.259 31.987-3.355 21.22 3.076 6.017 15.656 2.85 11.462-4.117 13.42-7.6.079-4.435-6.34-26.603-1.804-17.418 2.899-9.502 1.622-6.334.725-18.368-6.521-21.536-.181z" fill="#b4b43a"/><path d="M856.88 21.548l-14.252 8.388 5.067-14.259z" fill="#87872c"/><path d="M831.671 115.945l-2.475-12.021-10.606-4.596-17.324-18.739-2.829-21.213-2.475-14.142-2.828-3.536h3.536l2.474 4.243 1.415 13.789 2.828 12.02 4.243 4.243.353 4.596 8.132 9.193 7.778 2.475 8.485 4.95z" fill="#5a371d"/><path d="M818.242 22.946l-12.487 10.62 10.96-1.06-5.656 4.243 22.701 18.368-18.368-6.521-15.294 2.527-3.182-.707-11.295.165 3.484-12.538 10.451-8.387z" fill="#6e6e4d"/><path d="M818.242 22.946l24.386 6.99-10.356 3.63 13.081 7.072 13.082-2.475-8.84 12.607-9.5 3.622-6.335.725-22.701-18.368 5.656-4.243-10.96 1.06z" fill="#87872c"/><path d="M1061.713 59.275l-22.802-.18-3.168-8.514 8.235-4.166 21.536.18 18.368 6.522 6.335-.725 9.5-3.622 17.42-2.899 26.602 3.804 4.434 6.34-11.718 2.717-36.104 2.173-14.568 1.45-11.718-1.268z" fill="#750606"/><path d="M1117.027 70.69l5.303-8.839-9.192 2.475-6.01-8.132-4.597-9.192-3.89-1.414-3.535 3.889 4.597.353 2.12 6.01 4.244 8.84.707 4.95z" fill="#5a371d"/><path d="M1097.581 112.763l4.243-10.253 7.425-8.486 5.656-8.838 2.122-14.496 5.303-8.839 6.364-.707 2.121-6.364 1.415-9.546h2.828l-1.06 4.596v8.84l-.708 7.07-4.95.707-.353 4.243-4.95 4.596-1.414 4.596-1.414 7.778-7.071 8.84-7.425 8.131.354 9.546-1.061 7.071-7.425-6.364v.354z" fill="#9a6741"/><path d="M1035.744 50.58l3.483-12.537 10.451-8.387 18.686-6.71 24.386 6.99 5.067-14.259 31.987-3.355 21.22 3.076 6.017 15.656 2.85 11.462-4.117 13.42-7.6.079-4.435-4.34-26.603-3.804-17.418 2.899-9.501 1.622-6.335.725-18.368-6.521-21.536-.181z" fill="#e54242"/><path d="M1107.002 21.548l-14.252 8.388 5.067-14.259z" fill="#c72424"/><path d="M1081.671 115.945l-2.475-12.021-10.606-4.596-17.324-18.739-2.829-21.213-2.475-14.142-2.828-3.536h3.535l2.475 4.243 1.415 13.789 2.828 12.02 4.243 4.243.353 4.596 8.132 9.193 7.778 2.475 8.485 4.95z" fill="#5a371d"/><path d="M1068.364 22.946l-12.487 10.62 10.96-1.06-5.656 4.243 22.701 18.368-18.368-6.521-15.294 2.527-3.182-.707-11.294.165 3.483-12.538 10.452-8.387z" fill="#a81515"/><path d="M1068.364 22.946l24.386 6.99-10.356 3.63 13.081 7.072 13.082-2.475-8.84 12.607-9.5 3.622-6.335.725-22.701-18.368 5.656-4.243-10.96 1.06z" fill="#d51616"/><path d="M1370.691 45.121l-17.418 2.899-9.502 3.623-4.533.52-8.496 8.51 8.596.93 12.7-6.314 1.946 4.861 36.026-2.168 7.285-9.056zm-73.158.543l-8.234 4.166 3.166 8.514 9.724-4.469 9.662 3.436c6.03-2.25 13.286-5.354 18.262-7.543l-11.045-3.922z" fill="#750606"/><path d="M1347.581 112.763l4.243-10.253 7.425-8.486 5.656-8.838 2.122-14.496 5.303-8.839 6.364-.707 2.121-6.364 1.415-9.546h2.828l-1.06 4.596v8.84l-.708 7.07-4.95.707-.353 4.243-4.95 4.596-1.414 4.596-1.414 7.778-7.071 8.84-7.425 8.131.354 9.546-1.061 7.071-7.425-6.364v.354z" fill="#9a6741"/><path d="M1395.102 40.328l-14.251 8.387 5.067-14.258z" fill="#d51616"/><path d="M1331.671 115.945l-2.475-12.021-10.606-4.596-17.324-18.739-2.829-21.213-2.475-14.142-2.828-3.536h3.535l2.475 4.243 1.415 13.789 2.828 12.02 4.243 4.243.353 4.596 8.132 9.193 7.778 2.475 8.485 4.95z" fill="#5a371d"/><path d="M1287.5 21.851l12.488 10.62-10.96-1.06 5.656 4.243-22.702 16.368 18.37-6.521 15.293 2.527 3.182-.707 11.294 2.165-3.483-12.538-10.452-8.387z" fill="#d51616"/><path d="M527.487 167.564l-4.242 2.12-2.828 3.89 20.152 3.181 15.202 1.414 6.365-6.01 10.607 2.121 7.778 1.414.752 1.504 11.62-.443h9.901l-1.06-3.889-3.89-3.888-6.011 1.767-23.133-2.842-20 .721-3.181.354zM591.785 45.043c-7.97-.07-13.25 1.795-19.643 5.905l47.128 7.439 16.669-2.819-6.308-6.577z" fill="#48553b"/><path d="M627.403 18.776c-29.077 7.276-28.422 11.346-48.368 29.89l12.75-1.548 37.846 1.873 6.308 6.577 10.814-.081 5.857-13.923-.82-2.403-10.167-12.49z" fill="#9cb43a"/><path d="M617.027 70.69l5.303-8.839-9.192 2.475-6.01-8.132-4.597-9.192-3.89-1.414-3.535 3.889 4.597.353 2.12 6.01 4.244 8.84.707 4.95z" fill="#5a371d"/><path d="M608.368 24.648l4.012 4.738 2.653 2.49c-2.523 15.547 10.763 15.808 24.248 23.458L613.15 48.57l-21.756 2.622-4.527-.734-16.068.171 4.956-13.007c12.363-9.33 17.945-9.132 32.613-12.973z" fill="#5e6e4d"/><path d="M597.581 112.763l4.243-10.253 7.424-8.486 5.657-8.838 2.122-14.496 5.303-8.839 6.364-.707 2.121-6.364 1.414-9.546h2.829l-1.06 4.596v8.84l-.708 7.07-4.95.707-.353 4.243-4.95 4.596-1.414 4.596-1.414 7.778-7.071 8.84-7.425 8.131.354 9.546-1.061 7.071-7.425-6.364v.354z" fill="#9a6741"/><path d="M608.91 24.072l-.901 13.729-14.89 8.153 19.546-2.32 18.32 13.813 9.01-.752 3.637-1.01c.293-1.691 4.972-11.107 3.041-12.465-9.605-6.759-16.734-2.622-16.734-2.622l-1.247-12.392z" fill="#75872c"/><path d="M531.289 46.862l-8.234 3.038 3.168 6.208 22.802.132 12.352 1.322 11.717.924 1.549-.112 5.228-7.806-2.344.653-6.334.528-18.367-4.756z" fill="#48553b"/><path d="M555.676 29.747l-18.686 4.892-10.451 6.117-3.484 9.144 8.234-3.038 21.537.131 18.367 4.756 6.334-.528 2.082-.26 4.08-6.09-7.761-10.892z" fill="#9cb43a"/><path d="M581.671 115.945l-2.475-12.021-10.606-4.596-17.324-18.739-2.829-21.213-2.475-14.142-2.828-3.536h3.536l2.474 4.243 1.415 13.789 2.828 12.02 4.243 4.243.353 4.596 8.132 9.193 7.778 2.475 8.485 4.95z" fill="#5a371d"/><path d="M555.676 29.746l-12.487 7.746 10.96-.774-5.657 3.094 22.702 13.396-18.369-4.756-15.293 1.843-3.182-.516-11.295.12 3.484-9.143 10.451-6.116z" fill="#5e6e4d"/><path d="M555.676 29.747l-12.487 7.744 10.96-.773-5.657 3.095 22.701 13.395 6.334-.529 2.557-.71c.206-1.19-.196-2.316-1.553-3.271a282.262 282.262 0 01-12.672-9.505l3.723-6.54z" fill="#75872c"/><path d="M1040.521 247.59l8.682-4.712 6.514 4.681 5.353-1.818s3.258.094 8.422 2.262c5.165 2.168 13.762.498 13.762.498z" fill="#d51616"/><path d="M1073.751 247.927s7.367 1.53 12.69 1.53c5.325 0 10.386-4.277 10.386-4.277s-8.64-4.613-12.97-1.683c-4.33 2.93-10.106 4.43-10.106 4.43z" fill="#d51616"/><path d="M1367.027 70.69l5.303-8.839-9.192 2.475-6.01-8.132-4.597-9.192-3.89-1.414-3.535 3.889 4.597.353 2.12 6.01 4.244 8.84.707 4.95z" fill="#5a371d"/></g><g><path d="M293.94 42.052c.404-1.045 2.393-1.886 4.692-1.7 2.3.187 4.909 1.4 6.318 2.9 1.41 1.498 1.618 3.28 2.239 4.786.62 1.505 1.653 2.736 2.46 3.424.806.69 1.386.837.995.677-.39-.16-1.752-.628-3.379-1.35-1.626-.721-3.519-1.696-5.457-2.604-1.94-.908-3.925-1.75-5.508-2.794-1.582-1.045-2.763-2.294-2.36-3.339zM308.79 80.943c.895-1.494.465-3.798-1.335-5.102-1.8-1.304-4.97-1.607-7.63-.781-2.658.826-4.806 2.78-6.928 4.138-2.122 1.357-4.22 2.117-5.551 2.392-1.332.275-1.9.064-1.45.135.45.071 1.918.423 3.855.653 1.936.23 4.341.338 6.703.556 2.362.218 4.681.545 6.95.367 2.27-.18 4.49-.864 5.386-2.358zM293.02 59.077c1.224-.55 3.67-1.65 6.18-1.972 2.51-.321 5.083.138 6.24 1.078 1.157.941.898 2.362 1.174 3.471.276 1.11 1.087 1.907 1.795 2.307.708.4 1.313.402.922.351-.391-.05-1.779-.154-3.392-.412-1.613-.257-3.452-.668-5.362-1.014-1.91-.347-3.89-.628-5.364-1.16-1.475-.532-2.445-1.315-2.93-1.707-.486-.391-.485-.391.738-.942zM298.537 165.442c-.513-1.026-3.042-1.852-5.966-1.669-2.925.183-6.244 1.375-8.036 2.847-1.793 1.472-2.058 3.222-2.848 4.701-.79 1.48-2.103 2.687-3.128 3.364-1.026.677-1.763.822-1.266.665.497-.157 2.228-.617 4.297-1.326 2.069-.709 4.476-1.666 6.942-2.558 2.466-.892 4.99-1.718 7.004-2.744 2.013-1.027 3.514-2.254 3.001-3.28zM318.537 164.722c.48-1.2 2.842-2.166 5.574-1.952 2.732.214 5.833 1.608 7.507 3.33 1.675 1.721 1.923 3.769 2.66 5.499.738 1.73 1.965 3.143 2.923 3.935.958.791 1.647.961 1.183.777-.465-.184-2.082-.721-4.015-1.55-1.933-.83-4.18-1.95-6.485-2.993-2.304-1.043-4.663-2.01-6.543-3.21-1.88-1.2-3.283-2.636-2.804-3.836z" fill="#9cb43a"/><path d="M318.537 164.722c-.443-.898-2.628-1.62-5.153-1.46-2.526.16-5.393 1.203-6.941 2.49-1.548 1.288-1.777 2.82-2.46 4.114-.68 1.294-1.816 2.351-2.701 2.943-.886.592-1.523.72-1.094.582.43-.138 1.925-.54 3.712-1.16 1.787-.62 3.865-1.458 5.995-2.238s4.311-1.503 6.05-2.402c1.739-.898 3.036-1.971 2.592-2.869zM383.036 45.588c.64-1.699 3.793-3.065 7.438-2.762 3.645.302 7.783 2.275 10.018 4.71 2.234 2.436 2.565 5.333 3.549 7.78.984 2.448 2.622 4.448 3.9 5.568 1.278 1.12 2.197 1.36 1.578 1.1-.62-.26-2.777-1.021-5.357-2.194-2.579-1.173-5.579-2.758-8.653-4.234-3.074-1.476-6.222-2.843-8.732-4.541-2.509-1.699-4.38-3.73-3.74-5.427z" fill="#9cb43a"/><path d="M383.036 45.588c-.218-.64-1.295-1.156-2.54-1.042-1.246.114-2.66.858-3.422 1.776-.764.919-.877 2.01-1.213 2.934-.336.923-.896 1.676-1.332 2.099-.437.422-.75.512-.54.414.212-.098.95-.385 1.83-.827.882-.442 1.906-1.04 2.957-1.596 1.05-.557 2.125-1.072 2.982-1.712.858-.64 1.497-1.406 1.278-2.046zM296.77 45.588c-.372-.64-2.203-1.156-4.32-1.042-2.118.114-4.521.858-5.819 1.777-1.298.918-1.49 2.01-2.061 2.933-.572.922-1.523 1.676-2.266 2.099-.742.422-1.276.512-.916.414.36-.098 1.613-.385 3.111-.827 1.498-.442 3.24-1.04 5.026-1.596 1.786-.557 3.614-1.072 5.072-1.712 1.457-.64 2.544-1.406 2.172-2.046zM349.449 45.941c-.487-1.325-2.882-2.39-5.653-2.155-2.77.237-5.915 1.776-7.613 3.676-1.698 1.9-1.95 4.16-2.697 6.069-.748 1.91-1.993 3.47-2.965 4.343-.97.874-1.67 1.061-1.199.858.471-.203 2.111-.796 4.071-1.711 1.96-.915 4.24-2.152 6.577-3.303 2.336-1.152 4.728-2.218 6.636-3.543 1.907-1.325 3.329-2.91 2.843-4.234z" fill="#9cb43a"/><path d="M529.608 151.654l-13.436 7.778 11.312 10.133 18.032 1.414 23.181-1.075 23.135 2.842-11.312-11.9-12.375-1.414-3.116-1.114-4.664 6.063-14.14-6.363-6.366-4.95z" fill="#75872c"/><path d="M810.704 170.038l-15.202-1.414-20.153-3.182 2.829-3.889 4.242-2.121 18.031 1.414 3.182-.354 20-.72 23.134 2.842 6.01-1.768 3.89 3.89 1.06 3.888h-9.9z" fill="#55553b"/><path d="M775.35 165.442l-4.243-14.142 13.435-7.778 10.253 1.414 12.02-1.06 5.304-7.072 8.132-7.424 19.445 1.767 11.668 4.95 9.9 12.375 1.413 9.192-4.95 10.96-1.06-3.889-3.89-3.889-6.01 1.768-23.134-2.842-23.182 1.074-18.03-1.414-4.243 2.121z" fill="#b4b43a"/><path d="M782.42 161.432l-4.242 2.121-2.829 1.89-4.242-14.143 13.435-7.778 10.253 1.414 6.364 4.95h9.546l15.203-7.425-7.778 7.071 4.95 1.768 12.374 1.414 11.313 11.9-23.134-2.842-23.182 3.074z" fill="#6d6e4d"/><path d="M794.795 144.936l12.02-1.06 5.304-7.072-1.414 13.082 15.203-7.425 9.546 10.253 7.424-8.131-.707-5.657 4.596 11.313 6.01 10.607 8.486-12.374 1.414 9.192-4.95 10.96-1.06-1.889-3.89-3.889-6.01 1.768-11.313-11.9-12.375-1.414-4.95-1.768 7.779-7.07-15.203 7.424h-9.546z" fill="#87872c"/><path d="M1060.826 170.038l-15.202-1.414-20.153-3.182 2.829-3.889 4.242-2.121 18.031 1.414 3.182-.354 20-.72 23.134 2.842 6.01-1.768 3.89 3.89 1.06 3.888h-9.9z" fill="#750606"/><path d="M1025.471 165.442l-4.242-14.142 13.435-7.778 10.253 1.414 12.02-1.06 5.304-7.072 8.132-7.424 19.445 1.767 11.668 4.95 9.9 12.375 1.413 9.192-4.95 10.96-1.06-3.889-3.89-3.889-6.01 1.768-23.134-2.842-23.182 1.074-18.03-1.414-4.243 2.121z" fill="#e54242"/><path d="M1032.542 161.432l-4.242 2.121-2.829 1.89-4.242-14.143 13.435-7.778 10.253 1.414 6.364 4.95h9.546l15.203-7.425-7.778 7.071 4.95 1.768 12.374 1.414 11.313 11.9-23.134-2.842-23.182 1.074z" fill="#a81515"/><path d="M1044.917 144.936l12.02-1.06 5.304-7.072-1.414 13.082 15.203-7.425 9.546 10.253 7.424-8.131-.707-5.657 4.597 11.313 6.01 10.607 8.485-12.374 1.414 9.192-4.95 10.96-1.06-1.889-3.89-3.889-6.01 1.768-11.313-11.9-12.375-1.414-4.95-1.768 7.779-7.07-15.203 7.424h-9.546z" fill="#d51616"/><path d="M1276.643 167.209l-4.242 2.12-2.828 3.89 20.152 3.181 15.202 1.414 6.365-6.01 10.607 2.121 7.778 1.415.752 1.503 11.62-.443h9.901l-1.06-3.889-3.89-3.888-6.011 1.767-23.133-2.841-20 .72-3.181.354z" fill="#750606"/><path d="M1285.704 183.392l6.217-9.045 12.021-1.343-5.654 9.981z" fill="#d51616"/><path d="M1278.987 249.941l-5.94-2.121-3.96-3.889 28.218-3.181 21.286-1.414 8.913 6.01 14.853-2.122 10.89-1.414 1.054-1.504 16.272.444h13.864l-1.485 3.888-5.446 3.889-8.418-1.768-32.392 2.842-28.006-.72-4.455-.354z" fill="#750606"/><path d="M1322.393 244.766l7.557 2.93 13.462-4.109-14.31-5.222zM1284.723 243.168l14.592 1.91 5.42-6.781-13.849-.31z" fill="#d51616"/></g><g><path d="M181.02 145.643l.707 9.546-3.536 9.192-7.779 1.06 3.182 11.668-8.838 8.131-2.475-10.605-4.242 1.414-1.414 7.424-4.244 3.183-12.02-3.183-3.89 7.779-2.121 7.424 2.828 10.254-2.828 7.424-4.243 1.414-2.474-7.07-4.95-2.475-1.774 11.912-3.884 13.19-3.197 2.107 3.287 1.369 14.078-16.7 53.729 5.528 5.004-4.22-.776-.106-3.535-10.252-2.474-6.717-9.192-.355 12.02-7.424-.707-18.385 4.595-14.496z" fill="#6f8a91"/><path d="M143.896 197.262l5.657 5.303 7.778-1.767 6.01-7.779 1.415-7.778 8.839-8.132 11.667 1.061-6.718 9.9-4.596 15.91-7.778 4.95 13.435 2.474 9.546 9.9 10.227 13.72-12.702 9.614-5.657-12.374-11.667 2.828-12.02 12.375-16.264-12.021-8.839-.707-11.667 5.656-3.536-7.07 13.082-15.557 15.91-1.06z" fill="#53676c"/><path d="M181.02 145.644l.706 9.545 8.133 8.486z" fill="#b7c4c8"/><path d="M178.898 229.789l11.667 11.314.354-8.132-7.778-28.638z" fill="#93a7ac"/><path d="M178.19 164.382l-7.776 1.06 8.837 6.717zM162.281 174.634l-4.242 1.416 6.717 9.191zM173.95 203.98l5.655 7.423 3.536-7.07z" fill="#b7c4c8"/><path d="M185.35 180.524l-12.109 5.07-6.719 9.901 7.426 8.484 11.83-12.392z" fill="#93a7ac"/><path d="M189.152 221.303l10.96 7.07 2.827 5.659 3.891 2.475 8.815 13.443 7.387-.058-6.657-9.497-9.191-16.617z" fill="#b7c4c8"/><path d="M137.886 247.467l-17.324-7.072 11.667-5.656 8.839.707 16.263 12.02-3.889.708-1.415 1.314-13.604.222z" fill="#374548"/><path d="M117.026 233.324l-15.556 10.253-6.718 2.475-7.116 3.726L95 248.665l.553 1.162 11.574-.593 11.908.62 7.537-.973 11.314-1.414-16.813-7.245z" fill="#1c2224"/><path d="M157.331 247.467l12.021-12.375 11.441-5.946 11.369 18.02-30.291 2.689z" fill="#374548"/><path d="M189.151 221.304l10.96 7.07 2.828 5.658 3.891 2.475 9.045 13.404-8.693-2.444-2.47 2.577-10.239-1.493-7.797-3.913 3.89-3.535 2.12-7.425zM179.605 211.404l-5.656-7.424-7.779 4.95z" fill="#374548"/><path d="M143.896 197.262l2.122 19.445h7.778l3.889 8.132-5.303 9.193 16.97 1.06 11.667-2.828-2.121-2.475-12.728-20.86.352-13.434-9.19 5.303-7.779 1.767z" fill="#374548"/><path d="M130.108 217.768l-13.082 15.556 3.55 7.767 11.863-5.774 7.959.422 16.933 11.728 12.878-12.375-17.827-1.06 5.303-9.193-3.89-8.132z" fill="#1c2224"/><g><path d="M431.02 145.643l.707 9.546-3.535 9.192-7.78 1.06 3.182 11.668-8.838 8.131-2.474-10.605-4.243 1.414-1.414 7.424-4.244 3.183-12.02-3.183-3.89 7.779-2.121 7.424 2.828 10.254-2.828 7.424-4.242 1.414-2.475-7.07-4.949-2.475-1.774 11.912-3.884 13.19-3.197 2.107 3.287 1.369 14.078-16.7 53.728 5.528 5.004-4.22-.775-.106-3.535-10.252-2.475-6.717-9.191-.355 12.02-7.424-.708-18.385 4.596-14.496z" fill="#6f8a91"/><path d="M393.897 197.262l5.656 5.303 7.779-1.767 6.01-7.779 1.414-7.778 8.84-8.132 11.666 1.061-6.717 9.9-4.596 15.91-7.779 4.95 13.436 2.474 9.545 9.9 10.227 13.72-12.701 9.614-5.657-12.374-11.668 2.828-12.02 12.375-16.264-12.021-8.839-.707-11.667 5.656-3.535-7.07 13.081-15.557 15.91-1.06z" fill="#53676c"/><path d="M431.02 145.644l.707 9.545 8.133 8.486z" fill="#b7c4c8"/><path d="M428.898 229.789l11.668 11.314.353-8.132-7.778-28.638z" fill="#93a7ac"/><path d="M428.191 164.382l-7.777 1.06 8.838 6.717zM412.282 174.634l-4.243 1.416 6.717 9.191zM423.95 203.98l5.656 7.423 3.535-7.07z" fill="#b7c4c8"/><path d="M435.351 180.524l-12.11 5.07-6.718 9.901 7.426 8.484 11.83-12.392z" fill="#93a7ac"/><path d="M439.153 221.303l10.959 7.07 2.828 5.659 3.89 2.475 8.815 13.443 7.387-.058-6.657-9.497-9.191-16.617z" fill="#b7c4c8"/><path d="M387.886 247.467l-17.324-7.072 11.667-5.656 8.84.707 16.263 12.02-3.89.708-1.415 1.314-13.604.222z" fill="#374548"/><path d="M367.027 233.324l-15.557 10.253-6.717 2.475-7.117 3.726 7.364-1.113.554 1.162 11.573-.593 11.908.62 7.537-.973 11.314-1.414-16.813-7.245z" fill="#1c2224"/><path d="M407.332 247.467l12.02-12.375 11.442-5.946 11.368 18.02-30.29 2.689z" fill="#374548"/><path d="M439.151 221.304l10.96 7.07 2.829 5.658 3.89 2.475 9.045 13.404-8.692-2.444-2.471 2.577-10.239-1.493-7.796-3.913 3.889-3.535 2.121-7.425zM429.606 211.404l-5.656-7.424-7.78 4.95z" fill="#374548"/><path d="M393.897 197.262l2.12 19.445h7.78l3.888 8.132-5.303 9.193 16.97 1.06 11.668-2.828-2.122-2.475-12.728-20.86.353-13.434-9.191 5.303-7.779 1.767z" fill="#374548"/><path d="M380.108 217.768l-13.081 15.556 3.55 7.767 11.862-5.774 7.96.422 16.933 11.728 12.877-12.375-17.827-1.06 5.303-9.193-3.889-8.132z" fill="#1c2224"/></g><g><path d="M681.02 145.643l.707 9.546-3.535 9.192-7.78 1.06 3.182 11.668-8.838 8.131-2.474-10.605-4.243 1.414-1.414 7.424-4.244 3.183-12.02-3.183-3.89 7.779-2.121 7.424 2.828 10.254-2.828 7.424-4.242 1.414-2.475-7.07-4.949-2.475-1.774 11.912-3.884 13.19-3.197 2.107 3.287 1.369 14.078-16.7 53.728 5.528 5.004-4.22-.775-.106-3.535-10.252-2.475-6.717-9.191-.355 12.02-7.424-.708-18.385 4.596-14.496z" fill="#6f8a91"/><path d="M643.897 197.262l5.656 5.303 7.779-1.767 6.01-7.779 1.414-7.778 8.84-8.132 11.666 1.061-6.717 9.9-4.596 15.91-7.779 4.95 13.436 2.474 9.545 9.9 10.227 13.72-12.701 9.614-5.657-12.374-11.668 2.828-12.02 12.375-16.264-12.021-8.839-.707-11.667 5.656-3.535-7.07 13.081-15.557 15.91-1.06z" fill="#53676c"/><path d="M681.02 145.644l.707 9.545 8.133 8.486z" fill="#b7c4c8"/><path d="M678.898 229.789l11.668 11.314.353-8.132-7.778-28.638z" fill="#93a7ac"/><path d="M678.191 164.382l-7.777 1.06 8.838 6.717zM662.282 174.634l-4.243 1.416 6.717 9.191zM673.95 203.98l5.656 7.423 3.535-7.07z" fill="#b7c4c8"/><path d="M685.351 180.524l-12.11 5.07-6.718 9.901 7.426 8.484 11.83-12.392z" fill="#93a7ac"/><path d="M689.153 221.303l10.959 7.07 2.828 5.659 3.89 2.475 8.815 13.443 7.387-.058-6.657-9.497-9.191-16.617z" fill="#b7c4c8"/><path d="M637.886 247.467l-17.324-7.072 11.667-5.656 8.84.707 16.263 12.02-3.89.708-1.415 1.314-13.604.222z" fill="#374548"/><path d="M617.027 233.324l-15.557 10.253-6.717 2.475-7.117 3.726 7.364-1.113.553 1.162 11.574-.593 11.908.62 7.537-.973 11.314-1.414-16.813-7.245z" fill="#1c2224"/><path d="M657.332 247.467l12.02-12.375 11.442-5.946 11.368 18.02-30.29 2.689z" fill="#374548"/><path d="M689.151 221.304l10.96 7.07 2.829 5.658 3.89 2.475 9.045 13.404-8.692-2.444-2.471 2.577-10.239-1.493-7.796-3.913 3.889-3.535 2.121-7.425zM679.606 211.404l-5.656-7.424-7.78 4.95z" fill="#374548"/><path d="M643.897 197.262l2.12 19.445h7.78l3.888 8.132-5.303 9.193 16.97 1.06 11.668-2.828-2.122-2.475-12.728-20.86.353-13.434-9.191 5.303-7.779 1.767z" fill="#374548"/><path d="M630.108 217.768l-13.081 15.556 3.55 7.767 11.862-5.774 7.96.422 16.933 11.728 12.877-12.375-17.827-1.06 5.303-9.193-3.889-8.132z" fill="#1c2224"/></g><g><path d="M931.02 145.643l.707 9.546-3.535 9.192-7.78 1.06 3.182 11.668-8.838 8.131-2.474-10.605-4.243 1.414-1.414 7.424-4.244 3.183-12.02-3.183-3.89 7.779-2.121 7.424 2.828 10.254-2.828 7.424-4.242 1.414-2.475-7.07-4.949-2.475-1.774 11.912-3.884 13.19-3.197 2.107 3.287 1.369 14.078-16.7 53.728 5.528 5.004-4.22-.775-.106-3.535-10.252-2.475-6.717-9.191-.355 12.02-7.424-.708-18.385 4.596-14.496z" fill="#6f8a91"/><path d="M893.897 197.262l5.656 5.303 7.779-1.767 6.01-7.779 1.414-7.778 8.84-8.132 11.666 1.061-6.717 9.9-4.596 15.91-7.779 4.95 13.436 2.474 9.545 9.9 10.227 13.72-12.701 9.614-5.657-12.374-11.668 2.828-12.02 12.375-16.264-12.021-8.839-.707-11.667 5.656-3.535-7.07 13.081-15.557 15.91-1.06z" fill="#53676c"/><path d="M931.02 145.644l.707 9.545 8.133 8.486z" fill="#b7c4c8"/><path d="M928.898 229.789l11.668 11.314.353-8.132-7.778-28.638z" fill="#93a7ac"/><path d="M928.191 164.382l-7.777 1.06 8.838 6.717zM912.282 174.634l-4.243 1.416 6.717 9.191zM923.95 203.98l5.656 7.423 3.535-7.07z" fill="#b7c4c8"/><path d="M935.351 180.524l-12.11 5.07-6.718 9.901 7.426 8.484 11.83-12.392z" fill="#93a7ac"/><path d="M939.153 221.303l10.959 7.07 2.828 5.659 3.89 2.475 8.815 13.443 7.387-.058-6.657-9.497-9.191-16.617z" fill="#b7c4c8"/><path d="M887.886 247.467l-17.324-7.072 11.667-5.656 8.84.707 16.263 12.02-3.89.708-1.415 1.314-13.604.222z" fill="#374548"/><path d="M867.027 233.324l-15.557 10.253-6.717 2.475-7.117 3.726 7.364-1.113.554 1.162 11.573-.593 11.908.62 7.538-.973 11.313-1.414-16.813-7.245z" fill="#1c2224"/><path d="M907.332 247.467l12.02-12.375 11.442-5.946 11.368 18.02-30.29 2.689z" fill="#374548"/><path d="M939.151 221.304l10.96 7.07 2.829 5.658 3.89 2.475 9.045 13.404-8.692-2.444-2.471 2.577-10.239-1.493-7.796-3.913 3.889-3.535 2.121-7.425zM929.606 211.404l-5.656-7.424-7.78 4.95z" fill="#374548"/><path d="M893.897 197.262l2.12 19.445h7.78l3.888 8.132-5.303 9.193 16.97 1.06 11.668-2.828-2.122-2.475-12.728-20.86.353-13.434-9.191 5.303-7.779 1.767z" fill="#374548"/><path d="M880.108 217.768l-13.081 15.556 3.55 7.767 11.862-5.774 7.96.422 16.933 11.728 12.877-12.375-17.827-1.06 5.303-9.193-3.889-8.132z" fill="#1c2224"/></g><g><path d="M1181.02 145.643l.707 9.546-3.535 9.192-7.78 1.06 3.182 11.668-8.838 8.131-2.474-10.605-4.243 1.414-1.414 7.424-4.244 3.183-12.02-3.183-3.89 7.779-2.121 7.424 2.828 10.254-2.828 7.424-4.242 1.414-2.475-7.07-4.949-2.475-1.774 11.912-3.884 13.19-3.197 2.107 3.287 1.369 14.078-16.7 53.728 5.528 5.004-4.22-.775-.106-3.535-10.252-2.475-6.717-9.191-.355 12.02-7.424-.708-18.385 4.596-14.496z" fill="#6f8a91"/><path d="M1143.897 197.262l5.656 5.303 7.779-1.767 6.01-7.779 1.414-7.778 8.84-8.132 11.666 1.061-6.717 9.9-4.596 15.91-7.779 4.95 13.436 2.474 9.545 9.9 10.227 13.72-12.701 9.614-5.657-12.374-11.668 2.828-12.02 12.375-16.264-12.021-8.839-.707-11.667 5.656-3.535-7.07 13.081-15.557 15.91-1.06z" fill="#53676c"/><path d="M1181.02 145.644l.707 9.545 8.133 8.486z" fill="#b7c4c8"/><path d="M1178.898 229.789l11.668 11.314.353-8.132-7.778-28.638z" fill="#93a7ac"/><path d="M1178.191 164.382l-7.777 1.06 8.838 6.717zM1162.282 174.634l-4.243 1.416 6.717 9.191zM1173.95 203.98l5.656 7.423 3.535-7.07z" fill="#b7c4c8"/><path d="M1185.351 180.524l-12.11 5.07-6.718 9.901 7.426 8.484 11.83-12.392z" fill="#93a7ac"/><path d="M1189.153 221.303l10.959 7.07 2.828 5.659 3.89 2.475 8.815 13.443 7.387-.058-6.657-9.497-9.191-16.617z" fill="#b7c4c8"/><path d="M1137.886 247.467l-17.324-7.072 11.667-5.656 8.84.707 16.263 12.02-3.89.708-1.415 1.314-13.604.222z" fill="#374548"/><path d="M1117.027 233.324l-15.557 10.253-6.717 2.475-7.117 3.726 7.365-1.113.553 1.162 11.573-.593 11.908.62 7.538-.973 11.313-1.414-16.813-7.245z" fill="#1c2224"/><path d="M1157.332 247.467l12.02-12.375 11.442-5.946 11.368 18.02-30.29 2.689z" fill="#374548"/><path d="M1189.151 221.304l10.96 7.07 2.829 5.658 3.89 2.475 9.045 13.404-8.692-2.444-2.471 2.577-10.239-1.493-7.796-3.913 3.889-3.535 2.121-7.425zM1179.606 211.404l-5.656-7.424-7.78 4.95z" fill="#374548"/><path d="M1143.897 197.262l2.121 19.445h7.778l3.89 8.132-5.304 9.193 16.97 1.06 11.668-2.828-2.122-2.475-12.728-20.86.353-13.434-9.191 5.303-7.779 1.767z" fill="#374548"/><path d="M1130.108 217.768l-13.081 15.556 3.55 7.767 11.862-5.774 7.96.422 16.933 11.728 12.877-12.375-17.827-1.06 5.303-9.193-3.889-8.132z" fill="#1c2224"/></g><g><path d="M1431.02 145.643l.707 9.546-3.535 9.192-7.78 1.06 3.182 11.668-8.838 8.131-2.474-10.605-4.243 1.414-1.414 7.424-4.244 3.183-12.02-3.183-3.89 7.779-2.121 7.424 2.828 10.254-2.828 7.424-4.242 1.414-2.475-7.07-4.949-2.475-1.774 11.912-3.884 13.19-3.197 2.107 3.287 1.369 14.078-16.7 53.728 5.528 5.004-4.22-.775-.106-3.535-10.252-2.475-6.717-9.191-.355 12.02-7.424-.708-18.385 4.596-14.496z" fill="#6f8a91"/><path d="M1393.897 197.262l5.656 5.303 7.779-1.767 6.01-7.779 1.414-7.778 8.84-8.132 11.666 1.061-6.717 9.9-4.596 15.91-7.779 4.95 13.436 2.474 9.545 9.9 10.227 13.72-12.701 9.614-5.657-12.374-11.668 2.828-12.02 12.375-16.264-12.021-8.839-.707-11.667 5.656-3.535-7.07 13.081-15.557 15.91-1.06z" fill="#53676c"/><path d="M1431.02 145.644l.707 9.545 8.133 8.486z" fill="#b7c4c8"/><path d="M1428.898 229.789l11.668 11.314.353-8.132-7.778-28.638z" fill="#93a7ac"/><path d="M1428.191 164.382l-7.777 1.06 8.838 6.717zM1412.282 174.634l-4.243 1.416 6.717 9.191zM1423.95 203.98l5.656 7.423 3.535-7.07z" fill="#b7c4c8"/><path d="M1435.351 180.524l-12.11 5.07-6.718 9.901 7.426 8.484 11.83-12.392z" fill="#93a7ac"/><path d="M1439.153 221.303l10.959 7.07 2.828 5.659 3.89 2.475 8.815 13.443 7.387-.058-6.657-9.497-9.191-16.617z" fill="#b7c4c8"/><path d="M1387.886 247.467l-17.324-7.072 11.667-5.656 8.84.707 16.263 12.02-3.89.708-1.415 1.314-13.604.222z" fill="#374548"/><path d="M1367.027 233.324l-15.557 10.253-6.717 2.475-7.117 3.726 7.365-1.113.553 1.162 11.573-.593 11.908.62 7.538-.973 11.313-1.414-16.813-7.245z" fill="#1c2224"/><path d="M1407.332 247.467l12.02-12.375 11.442-5.946 11.368 18.02-30.29 2.689z" fill="#374548"/><path d="M1439.151 221.304l10.96 7.07 2.829 5.658 3.89 2.475 9.045 13.404-8.692-2.444-2.471 2.577-10.239-1.493-7.796-3.913 3.889-3.535 2.121-7.425zM1429.606 211.404l-5.656-7.424-7.78 4.95z" fill="#374548"/><path d="M1393.897 197.262l2.121 19.445h7.778l3.89 8.132-5.304 9.193 16.97 1.06 11.668-2.828-2.122-2.475-12.728-20.86.353-13.434-9.191 5.303-7.779 1.767z" fill="#374548"/><path d="M1380.108 217.768l-13.081 15.556 3.55 7.767 11.862-5.774 7.96.422 16.933 11.728 12.877-12.375-17.827-1.06 5.303-9.193-3.889-8.132z" fill="#1c2224"/></g></g></svg>