<svg xmlns="http://www.w3.org/2000/svg" xmlns:xlink="http://www.w3.org/1999/xlink" viewBox="0 0 595.312 66.146" height="250" width="2250"><defs><linearGradient id="a"><stop offset="0" stop-color="#4e6826"/><stop offset="1" stop-color="#e8c32d"/></linearGradient><linearGradient gradientTransform="translate(98.417 -115.762) scale(1.61806)" gradientUnits="userSpaceOnUse" y2="98.1" x2="44.953" y1="100.327" x1="44.948" id="b" xlink:href="#a"/><linearGradient gradientTransform="translate(98.363 -115.627) scale(1.61806)" gradientUnits="userSpaceOnUse" y2="99.449" x2="47.995" y1="99.449" x1="45.77" id="c" xlink:href="#a"/></defs><path d="M216.349 63.256s1.07.466.917 1.305c-.153.84-5.046 1.12-7.798 1.026-2.752-.093-7.033-.746-8.715-1.212-1.682-.467-2.14-2.331-2.14-2.331s3.516-.653 6.574-1.12c3.058-.466 9.48-1.398 14.831-1.398 5.351 0 10.703.28 10.703 1.212 0 .933-6.116 2.052-7.186 2.052-1.07 0-3.517-.094-3.517-.094.63.514 1.503 1.047-3.67.56z" fill="#658831"/><path d="M230.676 60.772c-.233.25-.532.322-1.401.655-1.032.397-3.746.886-4.74.98-.994.093-5.428.07-5.428.07s.191.093 0 .186-.84 0-1.376 0c-.535 0-4.816-.42-5.848-.513-1.033-.093-1.415-.093-2.409-.117-.993-.023-10.358.07-10.358.07s6.078.047 9.633.07c3.554.024 7.262.933 7.262.933l.34.12c.05.004 1.831.184 3.942.276 2.14.093 3.21.466 4.586 1.12 1.376.652-.153 1.118-.153 1.118h1.682l.153-.187s0-.839-1.07-1.585c-1.07-.745-5.504-1.305-5.504-1.305s2.446.093 3.516.093c1.045 0 6.895-1.066 7.173-1.984zm-32.077 1.235l-.018.003s.459 1.865 2.14 2.331c1.682.467 5.964 1.12 8.716 1.212 2.752.094 7.644-.186 7.797-1.025.062-.343-.08-.62-.27-.831.075.146.13.314.08.458-.115.326-.268.373-.918.606-.65.233-2.256.396-4.358.49-2.102.093-4.51-.164-5.695-.303-1.185-.14-4.97-.793-5.734-1.096-.764-.303-1.223-1.05-1.567-1.539a2.193 2.193 0 01-.174-.306z" fill="#4e6826"/><path d="M235.46 65.948s1.224-.765 2.294-.918c1.07-.153.918-.458 3.211-.458 2.293 0 2.752.611 5.657.764 2.905.153 12.996.612 16.819-.764 3.822-1.376-4.893-3.976-8.868-4.74-3.975-.765-6.575-.459-7.798-.918-1.223-.458-1.376-.458-1.376-.458s-3.975.611-7.645.458c-3.67-.153-10.828.571-13.149.765-3.67.306-7.186 2.6-4.434 3.364 2.752.764 13.76.764 14.372 1.07.612.306-2.14 1.682-2.14 1.682z" fill="#79a33b"/><path d="M229.039 65.795s2.752-2.905 5.046-6.88c2.293-3.976 4.434-14.22 4.434-14.22l2.752-.153s-1.53 8.104-2.752 11.467c-1.224 3.364-5.352 9.939-5.352 9.939z" opacity=".999" fill="#658831"/><path d="M244.8 43.625s1.73-.658 2.81-2.117c1.079-1.46 2.098-3.73 1.559-4.27-.54-.541-4.978-.596-6.057-.974-1.08-.378-1.26-.649-1.86-.595-.599.055-1.139.703-1.199 1.676-.06.973-.12 2.865.3 3.676.42.811.78 1.568 1.62 2 .839.433 2.828.604 2.828.604z" fill="#b49414"/><path d="M234.24 43.434c-.166-.077-2.032-1.224-3.443-2.83-1.41-1.604-1.66-1.987-1.327-2.713.332-.726.746-1.185 2.364-1.453 1.618-.267 3.111-.19 4.522-.573 1.41-.382 1.7-.688 2.323-.153.622.535 1.078 2.103 1.203 2.752.124.65.166 3.593.166 3.593s-1.535 1.224-1.867 1.224c-.332 0-3.94.153-3.94.153z" fill="#b49414"/><path d="M237.197 37.617s-.038-.191.42-.306c.46-.115.497-.076.765-.267.268-.192.306-.23.306-.23s.879-.114 1.644-.153c.764-.038 2.981.23 3.172.344.191.115.038.191.191.344.153.153.382.344.382.344s.497.459.46.956c-.039.497-.574 1.223-.574 1.223l-2.103.535s-2.905-.42-3.172-.497c-.268-.076-1.414-.764-1.49-.993-.077-.23 0-1.3 0-1.3z" fill="#626c12"/><path d="M239.98 37.372s-.203.108-.324.554c-.122.446-.149.703-.054.973.094.27.432 1.014.432 1.014l-.432-.284s-.244-.703-.257-1.04c-.013-.338.04-.69.176-.892a7.73 7.73 0 01.27-.379l-.487-.121s-.621.121-.905.446c-.284.324-.446.567-.473.851-.027.284.19.919.19.919l-.258-.135s-.189-.69-.08-.973a2.41 2.41 0 01.553-.798c.203-.189.635-.378.635-.378l-.243-.068s-.23.136-.446.257c-.216.122-.527.135-.621.325-.095.189-.19.513-.163.743.027.23.108.635.108.635s-.23-.527-.23-.581c0-.054.014-.46.136-.703.122-.243.257-.297.46-.365.202-.067.5-.216.58-.297.082-.081.23-.19.23-.19s3.081.393 3.352.38c.27-.014.662-.041.662-.041s.162.54.27.675c.108.135.487.23.608.622.122.392.095.757-.04 1s-.622.595-.622.595l-.432-.014s.567-.122.783-.419c.217-.297.257-.622.217-.878-.041-.257-.27-.514-.46-.662-.19-.15-.351-.257-.405-.42a2.325 2.325 0 00-.162-.35l-1.055.013s-.013.365.054.594c.068.23.352.663.379 1.014.027.351.068.392-.027.649-.095.256-.27.432-.27.432l-.325-.067s.487-.392.46-.744c-.027-.351-.352-.986-.379-1.189-.027-.203-.08-.73-.08-.73l-.96-.013z" fill="#3b400c"/><path d="M241.73 45c1.376 0 1.834 0 3.822-.305 1.988-.306 3.517-1.07 4.281-2.446.765-1.376.917-4.587.153-3.976-.765.612-.306 2.447-1.529 3.058-1.223.612-4.893 1.376-5.81 1.835-.917.459-.917 1.835-.917 1.835z" fill="#e8c32d"/><path d="M238.994 41.478c-.383-.23-1.644-1.3-2.026-2.217-.382-.918-.344-1.53.038-1.797.382-.268.822-.189.822-.189s-.16-.072-.478.457c-.34.565 1.147 2.255 1.147 2.255s-.612-.88-.497-1.338c.115-.459.764-.803.764-.803s.268.268.344.918c.077.65.459 1.834.459 1.834s.65-.726.573-1.07c-.076-.344-.267-.611-.076-.88.191-.267.573-.458.573-.458s.574.459.535.994c-.038.535-.305 1.376-.305 1.376l1.49-.038s.192-.459.23-.994c.038-.535-.497-1.185-.497-1.185s.535 0 .803.42c.267.421.229.842 0 1.147l-.23.306s.918-.191 1.262-.497.611-.688.19-1.185c-.42-.497-.764-.573-.764-.573s.88-.23 1.147.115c.268.344.459.764.153 1.223-.306.458-1.72 1.605-1.72 1.605l-3.096.535z" fill="#d9b318"/><path d="M219.899 61.242l-.12.078c-.84.67-.94 1.366.352 1.725 2.753.765 13.76.765 14.372 1.07.065.033.24.07.004.349.424-.239.562-.39.907-.466.743-.162 1.52-.364 1.52-.364s-6.169-.501-7.466-.501c-1.298 0-9.136-.432-9.568-.703-.433-.27-.433-.378-.325-.648.108-.27.325-.54.325-.54z" fill="#658831"/><path d="M241.298 44.578l-2.752.152s-2.14 10.244-4.434 14.22c-2.293 3.975-5.045 6.88-5.045 6.88l1.851.069c.67-1.003 4.23-6.331 4.724-7.22.54-.972 1.838-4.865 2.27-6.433.433-1.567 1.244-5.621 1.244-5.621s.54.053 1.298-.055c.177-.025.329-.057.464-.09.221-1.089.38-1.902.38-1.902z" opacity=".999" fill="#4e6826"/><path d="M232.709 39.038c.152.611-.918 1.529 1.987 3.516 2.905 1.988 3.058 2.294 5.046 2.6 1.988.305 3.822-.612 5.351-1.988 1.53-1.376 3.976-4.434 2.14-4.434-1.834 0-4.28 1.376-7.185.917-2.905-.458-4.893-1.07-5.963-1.07-1.07 0-1.376.459-1.376.459z" fill="#e8c32d"/><path d="M237.754 44.39s-1.376.764-3.364.764c-1.987 0-3.21-.612-5.504-2.6-2.293-1.987-1.529-2.905-.153-2.905s7.033 2.14 7.95 2.752c.918.612 1.071 1.988 1.071 1.988z" fill="#e8c32d"/><path d="M238.263 36.527s.071.166.106.354l.027.146s.457.309 1.668.36c.667.029 2.744.086 3.164-.029.42-.114.409-.15.409-.15l.02-.356z" fill="#937c33"/><path d="M238.611 36.317s-.65.038-.19.42c.458.383 2.063.574 2.943.574.879 0 1.758.077 2.064-.153.305-.23.458-.382-.268-.535-.726-.153-4.549-.306-4.549-.306z" fill="#c8af60"/><path d="M250.094 38.267a.35.35 0 00-.133.071c-.607.485-.447 1.737-.963 2.54.14-.123.282-.262.408-.437.402-.554.841-1.395.841-1.701 0-.168-.07-.338-.137-.471-.006 0-.011-.003-.017-.002z" fill="#b49414"/><path d="M234.02 38.974a.642.642 0 00-.148.011c-.554.134-.726.039-1.032.325a1.213 1.213 0 00-.182.234c-.103.61-.196 1.5 2.017 3.015 2.85 1.95 3.061 2.281 4.947 2.582a2.592 2.592 0 01-.57-.977c-.267-.822.458-1.987.84-2.408.383-.42.364-1.09-.343-1.452-.663-.34-4.585-1.319-5.53-1.33z" fill="#d9b318"/><path d="M235.615 65.996s1.351-.649 2.757-.973c1.405-.325 2.595-.27 4.757.108 2.162.378 7.298.757 11.19.757 3.892 0 7.027-.487 8.162-.811 1.136-.325 1.838-.757 1.838-1.027 0-.27-.108-.703-.108-.703s.217.486-.216.703c-.432.216-3.73.864-5.027.973-1.298.108-7.568.216-10-.054-2.433-.27-7.245-.92-8.38-1.028-1.135-.108-1.622-.216-1.622-.216s-.756.54-1.35.811c-.596.27-1.569.324-2.38.811-.81.486-.81.54-.81.54z" fill="#658831"/><path d="M238.561 64.05s.919-.703 1.46-1.082c.54-.378 2.46-1.243 3.243-1.486.784-.243 1.297-.92 1.676-1.379.378-.46.594-1.405.594-1.405s.082.703-.351 1.297c-.432.595-.919 1.135-1.054 1.244-.135.108-2.92 1.216-3.838 1.892-.92.675-.73.648-.595.81.135.163-1.135.109-1.135.109zm-82.594.095s.816.355.7.995c-.117.64-3.848.853-5.946.782-2.098-.07-5.363-.569-6.645-.924-1.282-.356-1.632-1.778-1.632-1.778s2.681-.497 5.013-.853c2.331-.355 7.228-1.066 11.308-1.066s8.16.213 8.16.924c0 .711-4.662 1.564-5.478 1.564-.817 0-2.682-.07-2.682-.07.48.391 1.146.798-2.798.426z" fill="#658831"/><path d="M166.892 62.25c-.178.192-.406.246-1.069.5-.787.303-2.856.676-3.614.747-.757.071-4.139.053-4.139.053s.146.072 0 .143c-.145.07-.64 0-1.048 0-.408 0-3.673-.32-4.46-.392-.787-.07-1.078-.07-1.836-.089-.758-.017-7.898.054-7.898.054s4.634.036 7.344.053c2.71.018 5.538.711 5.538.711l.258.091c.04.003 1.397.141 3.006.211 1.633.071 2.448.356 3.497.854 1.05.497-.116.853-.116.853h1.282l.117-.143s0-.64-.816-1.208c-.816-.569-4.197-.995-4.197-.995s1.866.07 2.682.07c.796 0 5.257-.812 5.469-1.512zm-24.459.943l-.013.003s.35 1.422 1.632 1.777c1.282.356 4.547.853 6.645.924 2.099.071 5.829-.142 5.945-.782.048-.26-.061-.472-.206-.633.058.11.1.24.06.349-.087.249-.203.284-.699.462-.495.178-1.72.302-3.322.373-1.603.071-3.44-.124-4.343-.23-.903-.107-3.789-.605-4.372-.836-.582-.231-.933-.8-1.195-1.173a1.664 1.664 0 01-.132-.234z" fill="#4e6826"/><path d="M170.54 66.197s.932-.583 1.749-.7c.816-.116.699-.349 2.448-.349 1.748 0 2.098.466 4.313.583 2.215.117 9.91.466 12.824-.583 2.915-1.05-3.73-3.031-6.762-3.614-3.03-.583-5.013-.35-5.945-.7-.933-.35-1.05-.35-1.05-.35s-3.03.467-5.828.35c-2.798-.116-8.257.436-10.026.583-2.798.234-5.48 1.982-3.381 2.565 2.098.583 10.492.583 10.958.816.467.233-1.632 1.283-1.632 1.283z" fill="#79a33b"/><path d="M164.169 66.35s1.914-2.745 3.51-6.502c1.595-3.757 3.083-13.437 3.083-13.437l1.915-.145s-1.064 7.658-1.915 10.837c-.85 3.178-3.722 9.391-3.722 9.391z" opacity=".999" fill="#658831"/><path d="M158.674 62.609l-.091.06c-.64.51-.717 1.041.269 1.315 2.098.583 10.492.583 10.958.816.05.025.183.053.004.266.323-.182.428-.298.691-.355.567-.124 1.16-.278 1.16-.278s-4.704-.382-5.694-.382c-.989 0-6.965-.33-7.295-.536-.33-.206-.33-.288-.248-.494.083-.206.248-.412.248-.412z" fill="#658831"/><path d="M172.696 46.3l-1.914.144s-1.49 9.68-3.085 13.437c-1.595 3.757-3.509 6.502-3.509 6.502l1.288.065c.466-.947 2.942-5.982 3.286-6.822.376-.92 1.278-4.598 1.579-6.08.3-1.48.984-5.823.984-5.823s.319.056.845-.047c.128-.047.186-.077.328-.157.154-1.028.198-1.219.198-1.219z" opacity=".999" fill="#4e6826"/><path d="M170.657 66.234s1.03-.495 2.102-.742c1.072-.247 1.979-.206 3.628.082 1.648.289 5.564.577 8.532.577 2.967 0 5.358-.37 6.224-.618.865-.247 1.401-.577 1.401-.783a2.89 2.89 0 00-.082-.536s.165.371-.165.536c-.33.165-2.844.66-3.833.742-.99.082-5.77.165-7.626-.041-1.854-.206-5.523-.701-6.388-.784-.866-.082-1.237-.164-1.237-.164s-.577.412-1.03.618c-.454.206-1.196.247-1.814.618-.618.371-.618.412-.618.412z" fill="#658831"/><path d="M172.904 64.75s.7-.536 1.113-.824c.412-.289 1.875-.948 2.473-1.134.597-.185.989-.7 1.277-1.05.289-.351.454-1.073.454-1.073s.062.536-.268.99c-.33.453-.7.865-.804.948-.103.082-2.226.927-2.926 1.442-.701.516-.557.495-.454.619.103.123-.865.082-.865.082zm-.574-18.054c-.324 0-.54.162-1.46-.162-.918-.324-1.856-1.479-1.965-2.56-.108-1.08.873-2.328 1.413-2.977.54-.648.908-.944 1.186-1.494.168-.334-.136-.364-.093-.7.038-.296 1.622-.27 2.108-.107.487.162.487.378.325.486-.162.108-.382.166-.22.544.162.379 1.3 2.754 1.409 3.727.108.973-.378 2.378-1.027 2.757-.649.378-1.676.486-1.676.486z" fill="#658831"/><path d="M171.418 38.829c-.039.33.26.361.093.693-.277.55-.645.846-1.186 1.495-.54.649-1.52 1.896-1.412 2.977.108 1.08 1.046 2.236 1.965 2.56.919.324 1.136.161 1.46.161 0 0 .07-.008.181-.024-.222-.103-1.127-.611-1.545-1.395-.459-.86-.402-2.006-.096-2.618.306-.611 1.013-1.185 1.53-1.51.515-.325.726-1.185.802-1.51.077-.325.039-.401.039-.401s-.67.039-1.033-.057c-.363-.096-.63-.115-.764-.306-.012-.015-.023-.045-.034-.065z" fill="#4e6826"/><path d="M171.158 46.73c-.191.003-.727.19-2.026-.688-1.3-.88-2.064-2.14-1.835-2.485.23-.344 1.185.497 2.332.65 1.146.153 2.599-.153 3.134-.038.535.114.65.42.268.955-.383.535-.411 1.577-.411 1.577z" fill="url(#b)"/><path d="M172.421 46.789s.027-.27.352-.46c.324-.19 1.189-.297 1.703-.568.513-.27.891-.756 1.027-1.108.135-.351-.135-.838.162-.865.297-.027.378.622.351 1-.027.379-.054 1.082-1.243 1.379-1.19.297-2.352.622-2.352.622z" fill="url(#c)"/><path d="M98.896 66.036h2.39s.1-.398.896-.796c.796-.399 5.974 0 7.268-.299 1.294-.299 1.294-.697.597-.996-.696-.298-5.874-.498-6.67-.796-.797-.299-.897-.299-.897-.299s-.528.14-1.512.231c-.603.056-8.345.068-9.241.167-.896.1-1.493.498-1.493.996s9.658.896 9.658.896z" fill="#79a33b"/><path d="M95.456 66.22s.752-1.061 2.103-4.967c1.351-3.905 1.888-9.737 1.888-9.737s.33 4.062-.08 7.888c-.41 3.825-1.728 6.83-1.728 6.83zm187.107-2.807s1.07.466.918 1.305c-.153.84-5.046 1.12-7.798 1.026-2.752-.093-7.033-.746-8.715-1.212-1.682-.466-2.14-2.331-2.14-2.331s3.516-.653 6.574-1.119c3.058-.466 9.48-1.399 14.83-1.399 5.352 0 10.704.28 10.704 1.212 0 .933-6.116 2.052-7.187 2.052-1.07 0-3.516-.093-3.516-.093.63.514 1.503 1.047-3.67.56z" fill="#658831"/><path d="M296.89 60.929c-.232.25-.531.322-1.4.656-1.033.396-3.746.886-4.74.979-.994.093-5.428.07-5.428.07s.19.093 0 .186c-.191.094-.84 0-1.376 0-.535 0-4.817-.42-5.849-.513-1.032-.093-1.414-.093-2.408-.117-.994-.023-10.358.07-10.358.07s6.078.047 9.632.07c3.555.024 7.263.933 7.263.933l.339.12c.05.005 1.832.184 3.942.276 2.14.093 3.21.467 4.587 1.12 1.376.652-.153 1.118-.153 1.118h1.682l.153-.186s0-.84-1.07-1.585c-1.07-.746-5.505-1.306-5.505-1.306s2.447.094 3.517.094c1.045 0 6.895-1.067 7.173-1.985zm-32.077 1.236l-.017.003s.458 1.864 2.14 2.33c1.682.467 5.963 1.12 8.715 1.213 2.753.093 7.645-.187 7.798-1.026.062-.342-.081-.619-.27-.831.075.146.13.315.08.458-.116.326-.268.373-.918.606-.65.233-2.256.397-4.358.49-2.103.093-4.51-.163-5.695-.303-1.185-.14-4.97-.793-5.734-1.096-.764-.303-1.224-1.049-1.568-1.538a2.193 2.193 0 01-.173-.306z" fill="#685c26"/><path d="M301.675 66.105s1.224-.765 2.294-.917c1.07-.153.917-.46 3.21-.46 2.294 0 2.753.612 5.658.765 2.905.153 12.996.612 16.819-.764 3.822-1.376-4.893-3.975-8.868-4.74-3.976-.764-6.575-.459-7.798-.917-1.223-.459-1.376-.459-1.376-.459s-3.976.612-7.645.459c-3.67-.153-10.828.57-13.15.764-3.669.306-7.185 2.6-4.433 3.364 2.752.764 13.76.764 14.372 1.07.612.306-2.14 1.682-2.14 1.682z" fill="#79a33b"/><path d="M295.254 65.952s2.752-2.905 5.045-6.88c2.294-3.976 4.434-14.22 4.434-14.22l2.753-.153s-1.53 8.104-2.753 11.468c-1.223 3.363-5.351 9.938-5.351 9.938z" opacity=".999" fill="#73812e"/><path d="M286.114 61.399l-.12.078c-.84.67-.94 1.366.352 1.725 2.752.765 13.76.765 14.372 1.07.065.033.24.07.004.349.424-.238.561-.39.906-.465.744-.163 1.521-.365 1.521-.365s-6.17-.5-7.467-.5c-1.297 0-9.135-.433-9.568-.703-.432-.27-.432-.379-.324-.65.108-.27.324-.54.324-.54z" fill="#73812e"/><path d="M307.513 44.735l-2.752.152s-2.14 10.245-4.434 14.22c-2.294 3.975-5.045 6.88-5.045 6.88l1.85.07c.671-1.003 4.232-6.332 4.725-7.22.54-.973 1.838-4.866 2.27-6.434.433-1.567 1.244-5.621 1.244-5.621s.54.054 1.297-.054c.177-.026.33-.058.465-.09.22-1.09.38-1.903.38-1.903z" opacity=".999" fill="#685c26"/><path d="M301.83 66.153s1.351-.649 2.757-.973c1.405-.324 2.594-.27 4.757.108 2.162.378 7.297.757 11.19.757 3.892 0 7.027-.487 8.162-.811 1.135-.324 1.838-.757 1.838-1.027 0-.27-.108-.703-.108-.703s.216.487-.216.703c-.433.216-3.73.865-5.028.973-1.297.108-7.568.216-10-.054-2.433-.27-7.244-.92-8.379-1.027-1.135-.108-1.622-.216-1.622-.216s-.757.54-1.351.81c-.595.27-1.568.325-2.379.811-.81.487-.81.54-.81.54z" fill="#73812e"/><path d="M304.776 64.207s.919-.703 1.46-1.081c.54-.379 2.459-1.244 3.243-1.487.784-.243 1.297-.919 1.676-1.378.378-.46.594-1.406.594-1.406s.081.703-.351 1.298c-.433.594-.92 1.135-1.054 1.243-.135.108-2.92 1.216-3.838 1.892-.92.676-.73.649-.595.81.135.163-1.135.109-1.135.109z" fill="#73812e"/><path d="M305.88 45.158s-.917-.076-2.14-.612c-1.224-.535-2.523-1.452-4.129-2.981-1.605-1.529-2.752-3.975-2.752-3.975s2.676 1.376 6.269 1.758c3.593.382 5.58.459 7.874.153 2.294-.306 5.581-1.376 5.581-1.376s-1.911 3.21-4.281 4.816c-2.37 1.605-4.74 2.064-5.275 2.217-.535.153-1.147 0-1.147 0z" fill="#685c26"/><path d="M316.583 38.125c-2.943 1.414-3.78 1.745-6.422 2.255-3.518.68-5.39.573-8.753-.268-2.43-.607-4.396-2.217-4.587-2.56-.191-.345.191-.612 1.223-.918 1.032-.306 3.135-.84 6.766-.84 3.631 0 7.721.152 9.632.687 1.912.535 1.95.918 2.103 1.07.218.273.054.47.038.574z" fill="#79a33b"/><path d="M305.466 40.002s0-.172.287-.44c.287-.267.325-.267.65-.324.325-.057.803-.038.994.076.19.115.363.287.401.516.038.23.057.21.057.21s-.821.115-1.165.134c-.344.02-1.224-.172-1.224-.172zm.136-1.766s0-.155.257-.395c.258-.24.292-.24.584-.292.293-.052.722-.035.894.069.172.103.326.257.36.463.035.207.052.19.052.19s-.739.102-1.048.12c-.31.017-1.1-.155-1.1-.155zm-.109-1.524s0-.139.231-.354c.23-.215.262-.215.523-.262.262-.046.646-.03.8.062.154.092.292.23.323.415.03.185.046.17.046.17s-.661.092-.938.107c-.277.016-.985-.138-.985-.138zm-3.044 1.31s.011-.155.286-.376c.274-.22.308-.218.604-.248.295-.03.722.018.886.134.163.115.306.28.326.489.019.208.037.192.037.192s-.744.049-1.054.043c-.31-.005-1.085-.234-1.085-.234zm-.636 1.323s.024-.17.345-.395c.322-.225.36-.22.69-.23.33-.012.8.075.973.215.173.14.319.335.325.567.005.233.027.216.027.216s-.83-.001-1.173-.03c-.344-.03-1.187-.343-1.187-.343zm-2.648-2.125s.025-.152.319-.347c.293-.195.327-.19.624-.193.296-.003.717.085.87.215.152.13.28.307.28.516 0 .21.02.195.02.195s-.746-.02-1.054-.053c-.308-.034-1.06-.332-1.06-.332zm2.869-.454s0-.139.23-.354c.231-.215.262-.215.523-.261.262-.047.646-.031.8.061.154.092.293.23.323.415.031.185.046.17.046.17s-.661.092-.938.107c-.277.016-.984-.138-.984-.138zm-3.117 1.551s.055-.163.412-.325.393-.15.72-.101c.326.049.773.219.917.388.145.17.253.388.217.617-.038.23-.013.218-.013.218s-.816-.153-1.148-.244c-.332-.092-1.105-.553-1.105-.553zm11.735-.214s-.012-.154-.286-.376c-.275-.22-.31-.218-.604-.248-.295-.03-.723.018-.886.134-.164.115-.307.28-.326.489-.02.208-.038.192-.038.192s.744.049 1.054.043c.31-.005 1.086-.234 1.086-.234zm.635 1.323s-.024-.17-.345-.395c-.322-.224-.36-.22-.69-.23-.329-.011-.8.075-.972.215-.173.14-.32.335-.325.567-.005.233-.027.216-.027.216s.83-.001 1.173-.03c.343-.03 1.187-.343 1.187-.343zm2.649-2.124s-.026-.153-.32-.348c-.293-.195-.327-.19-.623-.193-.297-.003-.718.085-.87.215-.153.13-.28.307-.28.516 0 .21-.02.195-.02.195s.745-.02 1.053-.053c.308-.034 1.06-.332 1.06-.332zm-2.87-.455s0-.139-.23-.354c-.231-.215-.262-.215-.523-.261-.262-.047-.646-.031-.8.061-.154.092-.292.23-.323.415-.03.185-.046.17-.046.17s.661.092.938.107c.277.016.984-.138.984-.138zm3.117 1.552s-.055-.164-.412-.326-.393-.15-.72-.101c-.326.049-.772.219-.917.388-.145.17-.253.388-.216.617.037.23.013.218.013.218s.815-.153 1.147-.244c.333-.092 1.105-.552 1.105-.552z" fill="#1f180b"/><path d="M352.268 59.708c-.407 0-.828.015-1.245.025-.075.096-.15.165-.219.179-.158.032-.34-.066-.568-.163-.46.017-.927.046-1.392.073-.15.084-.31.174-.526.252-.454.165-.532.016-.854-.16a104.36 104.36 0 00-4.041.385c-.128.108-.187.207-.187.207l-.37-.142c-.152.018-.31.036-.46.055-.112.16-.27.357-.413.357-.137 0-.364-.143-.619-.227l-.711.094c-.228.199-.339.524-.67.566-.433.054-.703-.108-1.676-.216-.02-.002-.051-.001-.073-.003-.248.037-.591.084-.807.117-3.058.466-6.575 1.119-6.575 1.119s.459 1.865 2.14 2.33c.24.067.542.138.875.21.283.009.529.007.658-.02.478-.095.44-.172.65-.076.186.084.492.377.89.497l.401.061c.331.021.543-.033.62-.08.096-.057.21-.153.21-.153s.038.233.203.381c.208.028.414.057.623.083.076-.046.154-.101.207-.101.029 0 .141.072.262.155 1.107.128 2.198.224 3.117.255 2.752.094 7.645-.186 7.798-1.025.153-.839-.917-1.305-.917-1.305 5.172.488 4.298-.045 3.669-.56 0 0 2.446.093 3.517.093 1.07 0 7.185-1.118 7.185-2.05 0-.933-5.351-1.213-10.702-1.213z" fill="#81722e"/><path d="M362.926 60.954c-.233.25-.532.321-1.401.655-1.032.397-3.746.886-4.74.98-.993.093-5.428.07-5.428.07s.191.093 0 .186-.84 0-1.375 0c-.536 0-4.817-.42-5.85-.513-1.031-.093-1.414-.094-2.407-.117-.994-.024-10.359.07-10.359.07s6.078.047 9.633.07c3.555.023 7.263.932 7.263.932l.338.12c.051.005 1.832.185 3.943.277 2.14.093 3.21.467 4.586 1.12 1.376.652-.153 1.118-.153 1.118h1.682l.153-.187s0-.839-1.07-1.585-5.504-1.305-5.504-1.305 2.446.093 3.517.093c1.044 0 6.894-1.066 7.172-1.984zm-32.077 1.235l-.019.003s.459 1.865 2.14 2.331c.288.08.673.166 1.092.253.198.002.371-.003.47-.023.478-.095.44-.171.65-.076.158.072.404.295.72.434.265.043.538.085.815.126.189-.012.32-.049.376-.082.096-.058.21-.153.21-.153s.029.192.155.338c.242.033.483.066.728.096.056-.036.11-.07.149-.07.024 0 .104.048.197.109 1.12.13 2.225.23 3.154.26 2.752.094 7.644-.186 7.797-1.025.063-.343-.08-.62-.27-.831.075.146.13.315.08.458-.115.326-.268.373-.918.606a2.416 2.416 0 01-.952.062c-.275-.052-.36.2-.73.24a43.82 43.82 0 01-2.675.187c-1.72.076-3.644-.08-4.936-.217-.156-.017-.26-.07-.384-.13-.196-.094-.277.056-.376.045a9.481 9.481 0 01-.637-.11c-.128-.026-.187-.5-.273-.384-.134.18-.462.223-.625.182a9.347 9.347 0 01-.884-.262c-.4-.147-.15-.493-.576-.293-.43.203-2.388-.09-2.738-.23-.765-.303-1.224-1.048-1.568-1.537a2.194 2.194 0 01-.173-.306z" fill="#553f1f"/><path d="M378.752 63.021c.162 0 2.027-.405 2.811-.703.784-.297 1.811-.864 1.811-.864s.054.108.406.135c.35.027.35.135.567.027.216-.108.19-.46.487-.568.297-.108.351-.162.648-.081.298.081.595.054.595.054s1.216-.513 1.378-.54c.163-.028.217-.028.19-.163-.027-.135-.135-.162-.135-.162h-2.352l-2.784.649s-3.784 1-4.081 1.216c-.298.216-1.92.892-1.649 1.081.27.19 2.108-.08 2.108-.08zm-15.513-1.806c.04-.013.493-.203.52-.27.027-.068-.006-.095-.203-.142-.195-.047-.736-.135-.736-.135l-.034-.108s.662-.129.635-.203c-.027-.074-1.601-.264-1.743-.27a3.623 3.623 0 00-.831.108c-.21.067-.23.094-.264.155s-.013.25-.013.25l-.175-.317.378-.548 2.034-.033.763.256.93.772-.63.784z" fill="#81722e"/><path d="M377.65 58.585s-3.976.612-7.646.459c-3.67-.153-10.828.57-13.15.764-3.669.306-7.185 2.6-4.433 3.364 2.752.764 13.76.764 14.372 1.07.612.306-2.14 1.682-2.14 1.682l3.058.153s1.223-.765 2.293-.917c1.07-.153.918-.46 3.211-.46 2.294 0 2.752.613 5.657.766 2.905.152 12.997.61 16.819-.766 2.117-.762.384-1.899-2.256-2.892-1.243.123-3.324.318-4.358.484-1.351.216-6.108.756-7.46.756-1.35 0-3.297-.27-3.297-.27s2.432-.324 3.459-.81a92.442 92.442 0 001.568-.758s.108.27.703.27.649-.27.919-.432c.27-.162.973-.162.973-.162l1.63-.761c-.248-.054-.527-.121-.75-.164-3.975-.764-6.574-.458-7.797-.917-1.224-.459-1.376-.46-1.376-.46zm-16.08 1.409c.078-.002.127 0 .127 0s1.811.135 1.784.243c-.027.108-.703.325-.703.325s1.108.135 1.108.297c0 .162-.351.216-.757.27-.405.054-1.27-.135-1.162-.243.108-.108.568-.27.568-.27s-.81.08-1.216.053c-.405-.027-1-.215-.703-.459.223-.182.72-.212.954-.216z" fill="#afa82f"/><path d="M352.149 61.37l-.12.08c-.84.669-.94 1.365.352 1.724 2.752.765 13.76.765 14.372 1.07.065.033.24.07.004.349.424-.238.561-.39.906-.466.744-.162 1.521-.364 1.521-.364s-6.17-.501-7.466-.501c-1.298 0-9.136-.432-9.569-.702-.432-.27-.432-.379-.324-.65.108-.27.324-.54.324-.54zm15.716 4.755s1.351-.649 2.757-.973c1.405-.325 2.594-.27 4.757.108 2.162.378 7.297.757 11.19.757 3.892 0 7.027-.487 8.162-.811 1.135-.325 1.838-.757 1.838-1.027 0-.27-.108-.703-.108-.703s.216.486-.216.703c-.433.216-3.73.865-5.028.973-1.297.108-7.568.216-10-.054-2.433-.27-7.244-.92-8.379-1.027-1.135-.109-1.622-.217-1.622-.217s-.757.54-1.351.811c-.595.27-1.568.325-2.379.811-.81.487-.81.54-.81.54z" fill="#81722e"/><path d="M370.81 64.179s.92-.703 1.46-1.081c.541-.379 2.46-1.244 3.244-1.487.784-.243 1.297-.919 1.676-1.378.378-.46.594-1.406.594-1.406s.081.703-.351 1.297c-.433.595-.92 1.136-1.054 1.244-.135.108-2.92 1.216-3.838 1.892-.92.675-.73.648-.595.81.135.163-1.135.109-1.135.109z" fill="#81722e"/><path d="M378.439 53.089s-.127-.8.075-1.959c.201-1.158.714-2.461 1.685-4.154.972-1.693 2.824-3.186 2.824-3.186s-.617 2.577-.192 5.73c.426 3.152.776 4.867 1.518 6.765.741 1.897 2.345 4.484 2.345 4.484s-3.146-.962-5.015-2.653c-1.869-1.69-2.757-3.62-3-4.047-.243-.425-.24-.98-.24-.98z" fill="#553f1f"/><path d="M386.694 60.769c-1.826-2.221-2.283-2.867-3.273-5.02-1.318-2.866-1.619-4.488-1.604-7.54.012-2.207.976-4.224 1.23-4.46.254-.235.563.036 1.04.855.478.818 1.376 2.504 2.136 5.61.76 3.104 1.486 6.634 1.428 8.38-.057 1.747-.376 1.86-.475 2.022-.187.244-.39.145-.482.153z" fill="#afa82f"/><path d="M384.619 51.207c-.192.219-.187.34-.096.808.09.468.198.809.387.983.19.174.346.013.32-.397-.027-.41-.198-.907-.272-1.11-.074-.201-.34-.284-.34-.284zm1.047-.329c-.157.199-.15.312-.064.75.087.439.186.759.35.926.164.166.293.02.261-.363-.032-.383-.187-.85-.255-1.04-.067-.19-.293-.273-.293-.273zm-2.492.634c-.224.246-.22.38-.12.901.099.52.22.9.437 1.092.218.192.4.011.374-.446-.026-.457-.218-1.009-.302-1.234-.083-.224-.389-.313-.389-.313zm1.843-3.685c-.157.2-.15.313-.063.75.086.44.185.76.35.926.164.167.292.02.26-.362-.031-.383-.187-.85-.254-1.04-.067-.191-.293-.274-.293-.274zm1.355 6.136c-.157.2-.15.312-.063.75.086.439.185.76.35.926.164.166.292.02.26-.363-.031-.382-.187-.85-.254-1.04-.067-.19-.293-.273-.293-.273zm-2.183-5.462c-.215.196-.223.317-.186.792.037.475.106.826.276 1.02.169.194.342.052.361-.358.02-.41-.095-.924-.146-1.133-.051-.21-.305-.32-.305-.32zm-.231-2.862c-.206.205-.208.326-.15.799.059.473.144.82.322 1.007.177.186.344.036.345-.375 0-.41-.137-.918-.198-1.125-.06-.207-.319-.306-.319-.306zm1.312 8.031c-.191.218-.186.339-.096.807s.198.809.388.983c.19.174.346.013.32-.397-.028-.41-.198-.907-.272-1.11-.074-.202-.34-.284-.34-.284zm1.272 2.8c-.18.229-.169.35-.054.812.114.463.24.798.438.962.199.164.347-.005.298-.413-.048-.408-.244-.896-.329-1.094-.084-.198-.353-.266-.353-.266zm-2.438-1.932c-.175.283-.145.415.048.908.194.493.383.843.633.991.25.148.396-.064.285-.507-.11-.444-.402-.951-.526-1.156-.123-.206-.44-.236-.44-.236zm1.242 2.403c-.16.292-.123.422.096.904.22.482.428.822.685.956.257.135.392-.084.257-.521-.134-.438-.451-.928-.586-1.127-.134-.198-.452-.212-.452-.212zm-2.422-8.493c-.257.211-.272.346-.248.875.023.53.089.922.276 1.143.188.22.395.068.435-.388.039-.455-.072-1.03-.122-1.264-.05-.234-.34-.366-.34-.366zm.004-2.683c-.27.194-.295.327-.307.856-.013.53.027.926.2 1.16.172.233.389.094.459-.358.07-.452-.001-1.032-.037-1.27-.035-.237-.315-.388-.315-.388z" fill="#81722e"/><path d="M332.945 63.906s.764.172 1.204.21c.44.038.802.114 1.05.038.25-.076.479-.21.479-.21s0 .172.133.267c.134.096.708.287.708.287s-.268-.076-.46-.325a2.899 2.899 0 00-.343-.382s-.608-.016-.799.003c-.056.005-.247.166-.49.031-.517-.285-1.482.08-1.482.08z" fill="#afa82f"/><path d="M363.43 65.924s.152-1.758 1.91-4.434c1.759-2.676 4.588-4.51 6.728-5.275 2.14-.765 7.569-1.605 7.569-1.605l-1.07-1.682s-5.2.688-8.18 1.758c-2.982 1.07-5.352 3.364-7.034 5.198-1.682 1.835-3.058 6.04-3.058 6.04z" fill="#553f1f"/><path d="M364.635 60.974s1.278-1.58 2.332-2.503c1.054-.924 2.616-2.052 4.033-2.58 1.418-.53 4.367-1.375 5.388-1.595 1.021-.22 2.691-.431 2.118-.603-.573-.173-2.192-.07-4.207.368-2.015.439-4.903 1.525-6.416 2.49-1.512.964-3.039 2.362-3.475 3.159-.436.797-.873 1.567-.598 1.721.275.154.825-.457.825-.457z" fill="#81722e"/></svg>