<svg xmlns="http://www.w3.org/2000/svg" width="1000" height="250" viewBox="0 0 1000 250"><path d="M132.107 205.648c-7.189.015-12.462 1.074-19.453 1.61l-2.481 2.086-10.029-.824v.001c-4.516.57-9.336.626-13.472 1.408-4.761.899-8.768 2.557-12.904 3.712l-.576 3.033H64.66l-.64.166c-3.537 1.366-8.513 2.828-11.098 4.362-2.536 1.505-2.7 3.08-4.249 4.705l.54 5.265c2.511 2.194 5.729 4.558 10.674 6.432 10.573 4.005 28.972 5.716 46.883 7.633 17.91 1.917 35.332 4.04 46.6 3.082 11.268-.958 16.382-4.997 21.307-8.674 4.925-3.676 9.658-6.99 13.936-10.827 4.279-3.838 8.102-8.2 3.22-12.8-1.155-1.09-2.837-2.192-4.801-3.291l-6.384-3.085c-5.501-.825-12.71-1.94-18.685-2.398l-8.645 1.32-2.562-1.686c-5.514-.31-13.02-1.241-18.648-1.23z" fill="#decd87"/><path d="M64.66 216.674l-.641.166 63.697 23.543-54.524-23.709zM100.144 208.52v.001l40.847 27.807-30.818-26.984zM150.755 206.878l8.25 27.578.726-26.871-6.414.979z" fill="#e9ddaf"/><path d="M73.768 213.641l-.576 3.033 54.524 23.709zM112.654 207.259l-2.481 2.085 30.818 26.984zM161.961 207.244l-8.644 1.32 3.319 8.266 2.37 17.626 3.793-14.662z" fill="#c8ab37"/><path d="M52.538 221.46c-2.15 1.427-2.404 2.915-3.866 4.447l.54 5.265c2.511 2.194 5.729 4.558 10.674 6.432 10.573 4.005 28.972 5.716 46.883 7.633 15.41 1.649 30.447 3.446 41.526 3.307l-2.09-.362-43.144-8.11L79 233.325l-17.66-6.824z" fill="#a0892c"/><path d="M57.243 222.963c-4.77.483-7.531 1.491-11.802 2.286l-.18 1.465-7.251.146c-2.601.654-5.768 1.006-7.968 1.766-2.532.875-4.028 2.173-5.964 3.166l1.756 1.931-5.675.562-.31.146c-1.388 1.085-3.667 2.325-4.304 3.452-.625 1.107.377 2.1.493 3.216l4.072 3.25c3.218 1.204 7.026 2.468 11.636 3.311 9.858 1.804 23.302 1.66 36.567 1.677 13.266.017 26.351.195 33.17-1.144 6.82-1.34 7.372-4.198 8.054-6.816.683-2.619 1.494-4.998 1.633-7.675.139-2.676-.395-5.65-6.887-8.2-1.537-.603-3.432-1.18-5.515-1.737l-6.422-1.505c-4.24-.153-9.821-.374-14.119-.266l-4.82 1.393-2.893-.884c-3.886.17-9.535.083-13.27.46z" fill="#d38d5f"/><path d="M25.834 233.723l-5.677.563-.308.145 48.932 8.519zM45.261 226.714l-7.252.146 39.864 14.415zM78.226 221.994l-4.818 1.393-2.894-.883 5.514 6.76 13.283 10.147z" fill="#e9c6af"/><path d="M16.036 241.1l4.074 3.25c3.218 1.203 7.026 2.467 11.637 3.311 9.858 1.803 23.302 1.66 36.567 1.677 13.265.017 26.351.194 33.17-1.145 1.39-.273 2.506-.611 3.43-.996l-32.026-.15-36.952-2.234z" fill="#a05a2c"/><path d="M24.077 231.793l1.757 1.93 42.947 9.227zM45.78 225.18c-.115.023-.221.047-.34.069l-.179 1.465 32.612 14.56zM78.226 221.994l-4.818 1.393L89.31 239.41z" fill="#c87137"/><path d="M224.952 208.354c-2.753-1.957-6.02-2.545-9.32-4.027l-3.427 1.005-2.835-3.412c-2.398-.776-4.298-2.051-6.802-2.553-2.883-.577-6.383-.336-9.333-.535l-3.833 2.293-3.246-2.337-.44-.042c-2.974.136-6.608-.047-9.42.485-2.758.522-4.697 1.75-7.223 2.638l-6.068 4.402c-1.659 2.46-3.251 5.252-3.602 8.12-.75 6.133 4.21 12.555 8.74 19.01 4.53 6.456 8.626 12.944 14.054 15.256 5.428 2.313 12.187.45 18.441-1.172 6.254-1.622 12.002-3.002 18.203-4.931 6.2-1.929 12.852-4.406 16.476-9.46.858-1.197 1.531-2.548 2.095-3.975l1.247-4.241c-1.11-2.174-2.524-5.049-4.252-7.056l-4.86-1.302 1.034-2.064c-1.728-1.761-3.475-4.57-5.63-6.102z" fill="#aca793"/><path d="M193.235 208.83l16.134 3.09c-2.397-.776-4.297-2.053-6.8-2.554-2.883-.578-6.384-.336-9.334-.535zM218.115 205.313l12.466 9.143c-1.728-1.761-3.474-4.57-5.629-6.102-2.058-1.463-4.405-2.162-6.837-3.04z" fill="#c8c4b7"/><path d="M209.37 201.922l-18.4 35.975 21.234-32.565zM185.715 198.744l1.945 38.24 1.742-35.859-3.246-2.338z" fill="#c8c4b7"/><path d="M165.845 230.398c.759 1.086 1.52 2.172 2.284 3.262 4.53 6.455 8.625 12.943 14.053 15.256 5.428 2.312 12.186.45 18.44-1.172 6.254-1.622 12.003-3.003 18.204-4.932 3.601-1.12 7.338-2.444 10.563-4.332-2.033.11-4.776.456-7.924.787-6.796.715-15.329 1.309-22.282 1.19-6.954-.12-12.327-.953-17.937-3.393-5.607-2.439-11.45-6.482-15.401-6.666z" fill="#6c6753"/><path d="M193.234 198.83l-3.832 2.295-1.742 35.86zM230.58 214.456l-29.645 22.53 33.473-19.165-4.862-1.3zM215.632 204.328l-3.428 1.004-21.234 32.565 24.071-29.153 3.072-3.431c-.819-.296-1.65-.612-2.48-.985z" fill="#6c6753"/></svg>