<svg xmlns="http://www.w3.org/2000/svg" width="2250" height="250" viewBox="0 0 2250 250"><path d="M107.045 239.056c.942-9.12 1.667-28.502.942-45.888-.724-17.387-2.898-32.777-8.986-44.392-6.088-11.616-16.088-19.453-21.379-22.802-5.29-3.348-5.87-2.208-4.928-.926.942 1.282 3.406 2.707 6.45 5.272 3.044 2.565 6.668 6.27 9.929 10.475 3.261 4.204 6.16 8.907 8.406 13.966 2.247 5.06 3.841 10.475 5 16.175 1.16 5.7 1.885 11.686 2.32 19.026.434 7.339.58 16.032.58 24.084s-.146 15.462-.435 20.664c-.29 5.201-.725 8.194-.363 10.26.363 2.066 1.522 3.206 2.464-5.914zM128.834 237.75c-1.083-10.665-1.917-33.332-1.083-53.666.833-20.333 3.333-38.333 10.333-51.917 7-13.584 18.5-22.75 24.584-26.666 6.083-3.916 6.75-2.583 5.666-1.084-1.083 1.5-3.916 3.166-7.417 6.166-3.5 3-7.666 7.334-11.417 12.25-3.75 4.918-7.083 10.417-9.666 16.334-2.584 5.917-4.417 12.25-5.75 18.917-1.334 6.667-2.167 13.667-2.667 22.25-.5 8.584-.666 18.75-.666 28.167 0 9.417.166 18.083.5 24.167.333 6.083.833 9.583.416 12-.416 2.416-1.75 3.749-2.833-6.917z" fill="#e9ddaf"/><path d="M910.993 115.782c1.531-3.045 4.483-10.084 6.77-15.894 2.288-5.81 3.913-10.392 4.495-12.529.582-2.136.123-1.828-1.088.853-1.212 2.68-3.177 7.731-5.29 12.913-2.114 5.182-4.377 10.494-5.453 13.624-1.076 3.13-.965 4.079.566 1.033zM815.86 110.97c-2.59-2.82-7.679-9.43-11.653-14.911-3.975-5.48-6.835-9.83-7.901-11.887-1.067-2.056-.34-1.818 1.732.685 2.072 2.504 5.49 7.272 9.147 12.148 3.657 4.876 7.552 9.86 9.454 12.837 1.902 2.977 1.812 3.948-.778 1.128z" fill="#fea"/><path d="M909.096 118.718c-2.952 4.96-8.612 16.621-14.086 33.852-5.474 17.231-10.764 40.031-13.41 54.651-2.644 14.62-2.644 21.06-2.214 22.887.43 1.828 1.292-.957 2.4-7.397 1.107-6.44 2.46-16.534 4.428-26.368s4.552-19.406 7.689-29.936c3.137-10.53 6.828-22.017 10.026-30.372 3.199-8.354 5.905-13.575 7.136-17.056 1.23-3.481.984-5.222-1.969-.261z" fill="#2c3b20"/><path d="M576.09 152.409c-.826-1.216-2.956-6.054-5.492-10.317-2.535-4.262-5.476-7.949-6.203-9.268-.728-1.318.758-.269 2.34 1.31 1.583 1.577 3.264 3.684 4.816 6.218 1.553 2.534 2.978 5.495 3.93 8.18.953 2.684 1.433 5.092.608 3.877zM653.097 137.336c.485-1.138 1.178-5.438 2.494-9.36 1.317-3.92 3.258-7.461 3.604-8.663.346-1.201-.901-.063-2.08 1.518-1.177 1.581-2.286 3.605-3.118 5.944-.831 2.34-1.386 4.996-1.524 7.336-.138 2.34.139 4.363.624 3.225z" fill="#fea"/><path d="M648.739 140.074c-2.522 6.276-7.358 20.569-11.217 35.298-3.859 14.73-6.74 29.894-7.923 41.398-1.184 11.504-.67 19.348-.104 22.921.566 3.574 1.183 2.877 1.39.088.206-2.79 0-7.67.206-13.684.205-6.013.823-13.16 1.749-19.26.926-6.101 2.16-11.156 3.241-16.386 1.08-5.229 2.007-10.632 4.168-17.779 2.16-7.147 5.557-16.036 7.666-22.224 2.11-6.188 2.933-9.674 3.242-12.29.309-2.614.103-4.357-2.418 1.918z" fill="#8bae00" fill-opacity=".906"/><path d="M582.769 161.805c3.25 5.077 9.484 16.639 14.459 28.554 4.974 11.915 8.688 24.182 10.214 33.488 1.525 9.307.862 15.652.133 18.542-.73 2.89-1.525 2.327-1.791.07-.266-2.255 0-6.203-.266-11.068-.265-4.865-1.061-10.646-2.255-15.58-1.194-4.936-2.785-9.025-4.178-13.255-1.393-4.23-2.587-8.602-5.373-14.383-2.785-5.781-7.162-12.972-9.882-17.978-2.72-5.005-3.78-7.825-4.179-9.94-.398-2.116-.133-3.526 3.118 1.55z" fill="#8bae00"/><path d="M375.95 242.799c6.533-4.874 21.073-14.37 34.822-21.96 13.748-7.592 26.704-13.278 38.761-14.572 12.057-1.293 23.214 1.808 28.503 3.819 5.288 2.011 4.708 2.932 3.239 2.892-1.47-.04-3.83-1.038-7.363-1.899-3.534-.86-8.243-1.581-13.15-1.826-4.906-.245-10.01-.014-15.054.822-5.044.836-10.028 2.278-15.008 4.145-4.98 1.868-9.957 4.16-15.827 7.278-5.87 3.118-12.632 7.06-18.827 10.802-6.195 3.742-11.822 7.283-15.676 9.896-3.853 2.613-5.933 4.297-7.708 5.013-1.775.715-3.247.463 3.287-4.41z" fill="#dbd5bd"/><path d="M367.092 247.113c-6.885-2.26-20.076-7.566-30.477-11.395-10.4-3.829-18.01-6.18-25.94-5.836-7.928.345-16.175 3.387-20.431 5.893s-4.519 4.475-4.514 3.086c.005-1.389.277-6.135 5.25-9.306 4.973-3.17 14.645-4.766 24.342-4.09 9.696.675 19.417 3.621 29.39 7.723 9.973 4.102 20.197 9.359 25.02 12.38 4.823 3.02 4.244 3.805-2.64 1.545z" fill="#b8ab7a"/><path d="M349.394 246.767s-8.19-5.575-17.817-5.575-41.523 5.512-46.937 5.512c-5.413 0-26.502 1.986-21.662 0s26.136-3.419 43.573-6.991c17.438-3.573 30.58-6.558 36.324-2.306s15.13 10.44 15.13 10.44z" fill="#6f643c"/><path d="M360.835 238.924c-.93-2.544-2.637-12.481-4.963-22.661-2.326-10.18-5.273-20.601-8.297-27.145-3.023-6.545-6.125-9.21-6.048-10.06.078-.848 3.335.122 6.281 4.485 2.946 4.363 5.583 12.119 7.909 20.723 2.326 8.604 4.342 18.056 5.273 25.206.93 7.15.775 11.997-.155 9.452z" fill="#e5ff80"/><path d="M1339.936 131.653c.243-.833-.243-8.167-1.944-16.834-1.701-8.666-4.617-18.666-6.075-22.166-1.459-3.5-1.459-.5-.81 2.917.648 3.416 1.944 7.25 3.159 11.583 1.215 4.333 2.349 9.167 3.402 14.417s2.025 10.916 2.268 10.083z" fill="#fea"/><path d="M1353.993 232.224c-3.333-18.584-9.833-60.584-12.667-82.417-2.833-21.834-2-23.5-1.25-20.834.75 2.667 1.417 9.667 3.417 23.25 2 13.584 5.333 33.75 7.917 49.667 2.583 15.917 4.416 27.584 5.25 35.834.833 8.25.666 13.083-2.667-5.5z" fill="#e9ddaf"/><path d="M1392.853 145.367c-.244-.719.244-7.049 1.95-14.53 1.706-7.481 4.63-16.113 6.093-19.134 1.463-3.021 1.463-.431.813 2.518-.65 2.949-1.95 6.257-3.169 9.998-1.219 3.74-2.356 7.913-3.412 12.444-1.056 4.532-2.031 9.424-2.275 8.704z" fill="#fea"/><path d="M1378.716 232.308c3.343-16.04 9.862-52.294 12.704-71.141 2.842-18.847 2.006-20.285 1.254-17.983-.753 2.302-1.421 8.344-3.427 20.07-2.006 11.725-5.35 29.132-7.94 42.871-2.591 13.74-4.43 23.81-5.266 30.93-.835 7.122-.668 11.294 2.675-4.747z" fill="#e9ddaf"/><path d="M1353.586 245.045c-2.074-5.577-4.387-15.9-8.378-25.846-3.99-9.947-9.657-19.517-15.991-23.637-6.334-4.12-13.334-2.786-18.427.494-5.094 3.28-8.28 8.507-9.455 9.12-1.176.614-.343-3.386 2.324-7.803s7.167-9.25 13.167-11.75 13.5-2.667 19.5 1.5 10.5 12.667 14.083 24.25c3.583 11.584 6.25 26.25 6.667 33.167.417 6.916-1.416 6.083-3.49.505zM1379.33 244.03c1.156-4.5 2.49-12.666 4.8-22.083 2.312-9.417 5.602-20.083 9.114-24.75 3.512-4.668 7.246-3.334 9.78-.584 2.534 2.75 3.868 6.917 4.312 7 .445.084 0-3.916-1.422-8.333-1.423-4.417-3.823-9.25-7.024-11.75s-7.202-2.667-10.403 1.5c-3.2 4.167-5.6 12.667-7.512 24.25-1.912 11.584-3.334 26.25-3.557 33.167-.222 6.916.755 6.083 1.912 1.583z" fill="#a0892c"/><path d="M1369.263 246.748c-1.71 2.584-3.704-1.964-5.2-8.785-1.497-6.822-2.494-15.917-3.35-25.84-.854-9.922-1.567-20.67-4.345-32.66-2.778-11.99-7.623-25.22-11.47-30.077-3.848-4.859-6.697-1.345-6.555-1.138.143.207 3.278-2.894 8.194.104s11.613 12.093 16.457 25.84c4.844 13.747 7.836 32.144 8.62 46.2.783 14.057-.642 23.772-2.351 26.356z" fill="#c8ab37"/><path d="M356.072 248.998c-1.416-1.583-1.416-9.583-4.166-16.833-2.75-7.25-8.25-13.75-14.416-15.083-6.167-1.334-13 2.499-14.167 2.582-1.167.084 3.333-3.583 8.25-5.583s10.25-2.333 14.917 0c4.667 2.335 8.667 7.334 11.333 12.251 2.667 4.917 4 9.75 3.25 14.583s-3.584 9.666-5 8.083zM377.874 248.84c.869-1.583.869-9.583 2.555-16.833 1.686-7.25 5.058-13.75 8.84-15.084 3.78-1.333 7.97 2.5 8.686 2.583.715.084-2.044-3.583-5.059-5.583s-6.285-2.334-9.146 0c-2.862 2.334-5.314 7.334-6.95 12.25-1.634 4.918-2.452 9.75-1.992 14.584.46 4.833 2.198 9.666 3.066 8.083z" fill="#aad400"/><path d="M366.572 247.498c-.995-.609-.995-8.123-1.659-14.825s-1.992-12.591-4.398-18.176c-2.406-5.585-5.892-10.865-9.211-12.795-3.32-1.93-6.473-.509-5.477-.306.996.203 6.14-.812 10.373 1.727 4.232 2.54 7.552 8.632 9.958 14.624 2.407 5.99 3.9 11.88 3.651 17.972-.25 6.093-2.24 12.388-3.237 11.78z" fill="#cf0"/><path d="M375.23 238.097c.689-2 1.95-9.814 3.672-17.818 1.72-8.004 3.9-16.199 6.136-21.345 2.237-5.145 4.531-7.241 4.474-7.909-.058-.667-2.467.095-4.646 3.526-2.18 3.431-4.13 9.53-5.85 16.295-1.72 6.765-3.212 14.197-3.9 19.819-.688 5.622-.573 9.433.115 7.432z" fill="#e5ff80"/><path d="M603.372 246.78c-1.084-3.5-1.25-10.332-3.584-18.832-2.333-8.5-6.833-18.667-10.416-25.5-3.583-6.834-6.25-10.334-4.75-10 1.5.333 7.167 4.5 12.5 11.166 5.334 6.667 10.333 15.834 12.166 24.084 1.833 8.25.5 15.583-1.166 19.166s-3.666 3.416-4.75-.084zM627.371 248.197c-.916-2.75-.916-11.416-.25-20 .667-8.583 2-17.083 4.5-23.917 2.5-6.833 6.167-12 12.584-15.167s15.584-4.333 21.5-1.75c5.917 2.585 8.584 8.918 8.532 10.552-.051 1.635-2.82-1.43-7.008-3.167-4.187-1.738-9.791-2.149-15.407 1.55-5.616 3.7-11.241 11.507-14.554 20.245-3.313 8.738-4.313 18.404-5.73 24.82-1.417 6.417-3.25 9.584-4.167 6.834z" fill="#5a762a"/><path d="M615.288 248.098c-1-2.013.333-9.816.25-18.5-.083-8.683-1.583-18.247-4.916-27.812-3.333-9.565-8.5-19.13-9-22.276-.5-3.146 3.667.126 7.584 6.796 3.916 6.67 7.583 16.739 9.832 26.68 2.25 9.943 3.084 19.759 1.833 26.554-1.25 6.796-4.583 10.571-5.583 8.558z" fill="#495744"/><ellipse cx="459.312" cy="349.073" rx="4.148" ry="13.335" transform="matrix(.93555 -.35318 .42262 .9063 0 0)" fill="#a9c53a"/><ellipse cx="-659.54" cy="-107.863" rx="3.589" ry="12.933" transform="matrix(-.93035 -.36667 -.3425 .93952 0 0)" fill="#a9c53a"/><path d="M852.35 246.922c-1.916-4.333-3.083-16.833-6.333-31.666-3.25-14.834-8.583-32-17.262-37.233-8.68-5.234-20.704 1.467-26.955 9.051-6.25 7.584-6.725 16.05-7.546 17.532-.82 1.483-1.987-4.017-1.237-11.434.75-7.417 3.416-16.75 11.584-22 8.167-5.25 21.833-6.417 31.167-.583 9.333 5.834 14.332 18.667 17.582 32 3.25 13.334 4.75 27.167 4.167 36-.584 8.833-3.25 12.666-5.167 8.333zM879.1 243.172c-.833-8.916-.667-26.75 1.333-40.75s5.834-24.167 13.751-28.5c7.917-4.334 19.917-2.834 26.917 2.75s9 15.25 9.5 22.084c.499 6.833-.501 10.833-1.124 10.406-.623-.426-.87-5.279-3.369-10.862-2.5-5.584-7.253-11.897-11.964-14.638-4.71-2.74-9.376-1.908-13.544.926-4.167 2.834-7.833 7.667-10.583 19.25-2.75 11.585-4.584 29.917-6.416 39.084-1.833 9.166-3.667 9.166-4.5.25z" fill="#5a6b53"/><path d="M869.433 247.393c-1-4.664-1.666-18.841-3.75-31.9-2.083-13.057-5.583-24.996-8.832-34.323-3.25-9.327-6.25-16.042-13.417-19.68-7.166-3.639-18.5-4.199-21.916-5.504-3.417-1.306 1.083-3.358 7.75-3.918s15.5.373 23.166 5.504c7.667 5.13 14.167 14.458 17.333 24.717 3.166 10.26 3 21.453 3 31.62 0 10.166.166 19.306-.417 26.302-.583 6.995-1.917 11.845-2.917 7.182z" fill="#2c3b20"/><path d="M824.267 122.92c4 5.42 11.667 18.158 19.084 36.98 7.416 18.824 14.583 43.73 18.166 59.7 3.583 15.972 3.583 23.006 3 25.003-.583 1.996-1.75-1.046-3.25-8.08-1.5-7.036-3.333-18.063-6-28.805-2.667-10.743-6.166-21.2-10.416-32.702-4.25-11.503-9.25-24.051-13.584-33.178-4.333-9.126-8-14.83-9.667-18.632-1.667-3.803-1.333-5.704 2.667-.285z" fill="#435a31"/><ellipse cx="635.233" cy="591.001" rx="4.969" ry="16.44" transform="matrix(.79185 -.61072 .53076 .84752 0 0)" fill="#6c340a"/><ellipse cx="925.313" cy="-491.43" rx="4.393" ry="15.598" transform="matrix(.7845 .62014 -.37454 .9272 0 0)" fill="#6c340a"/><path d="M1160.8 121.013c1.488-3.063 4.237-10.05 6.331-15.793 2.094-5.744 3.534-10.244 4-12.315.465-2.072-.044-1.713-1.194.962-1.15 2.674-2.941 7.663-4.895 12.797-1.954 5.134-4.07 10.413-5.014 13.482-.944 3.07-.716 3.93.772.867zM1074.192 119.962c-2.046-3.144-5.826-10.314-8.705-16.21-2.88-5.894-4.86-10.514-5.5-12.64-.64-2.125.06-1.757 1.64.988 1.582 2.745 4.046 7.866 6.733 13.135 2.687 5.27 5.596 10.687 6.894 13.837 1.298 3.15.985 4.033-1.062.89z" fill="#fea"/><path d="M1158.531 119.398c-2.953 4.96-8.612 16.621-14.086 33.852-5.475 17.231-10.765 40.031-13.41 54.651-2.644 14.62-2.644 21.06-2.214 22.887.43 1.828 1.292-.957 2.399-7.397s2.46-16.534 4.429-26.368c1.968-9.834 4.552-19.406 7.689-29.936 3.137-10.53 6.828-22.017 10.026-30.372 3.199-8.354 5.905-13.575 7.136-17.056 1.23-3.481.984-5.222-1.969-.261z" fill="#fea"/><path d="M1073.702 123.58c4 5.386 11.667 18.047 19.084 36.755 7.416 18.709 14.583 43.463 18.166 59.337 3.583 15.873 3.583 22.865 3 24.85-.583 1.983-1.75-1.04-3.25-8.032s-3.334-17.952-6-28.63c-2.667-10.676-6.167-21.07-10.417-32.502-4.25-11.433-9.25-23.905-13.583-32.975s-8-14.74-9.667-18.52c-1.667-3.779-1.334-5.669 2.667-.283z" fill="#ffe680"/><path d="M1102.451 247.602c-1.25-4.333-1.083-16.833-4.333-31.666-3.25-14.834-9.916-32-19.154-36.944-9.238-4.943-21.046 2.337-27.296 9.921s-6.942 15.47-7.87 16.663c-.93 1.193-2.096-4.307-1.346-11.724s3.416-16.75 11.583-22c8.168-5.25 21.834-6.417 31.167-.583 9.333 5.834 14.333 18.667 17.583 32 3.25 13.334 4.75 27.167 4.166 36-.583 8.833-3.25 12.666-4.5 8.333z" fill="#c8ab37"/><path d="M1128.535 239.852c-.833-8.916-.667-26.75 1.333-40.75s5.833-24.167 13.75-28.5c7.918-4.334 19.918-2.834 26.918 2.75s9 15.25 9.499 22.084c.5 6.833-.5 10.833-1.2 10.952-.7.12-1.1-3.642-2.6-7.892s-4.1-8.988-8.733-12.608c-4.633-3.62-11.3-6.12-16.8-1.62s-9.834 16-12.417 24.584c-2.584 8.584-3.417 14.25-4 20.417-.584 6.167-.917 12.833-2 16.166s-2.916 3.333-3.75-5.583z" fill="#d3bc5f"/><path d="M1118.868 248.073c-1-4.664-1.666-18.841-3.75-31.9-2.083-13.057-5.583-24.996-9.177-35.2-3.594-10.206-7.282-18.677-14.449-22.315-7.166-3.638-17.811-2.442-20.884-2.87-3.073-.428 1.427-2.48 8.094-3.04s15.5.373 23.167 5.504c7.667 5.13 14.167 14.458 17.333 24.717 3.166 10.26 3 21.453 3 31.62 0 10.166.166 19.306-.417 26.302-.584 6.995-1.917 11.845-2.917 7.182z" fill="#decd87"/><path d="M107.045 243.056c.934-7.988 1.365-27.16-1.795-41.538-3.16-14.378-9.911-23.963-15.37-24.283-5.46-.32-9.626 8.627-12.355 18.425-2.73 9.8-4.022 20.45-3.878 27.48.144 7.029 1.724 10.437 2.873 8.733 1.149-1.705 1.867-8.52 2.852-14.393.986-5.871 2.238-10.798 4.824-15.623 2.586-4.825 6.504-9.547 9.993-5.485 3.488 4.062 6.545 16.904 7.981 26.416 1.436 9.51 1.252 15.688 1.879 20.374.626 4.687 2.063 7.882 2.996-.106z" fill="#6f643c"/><path d="M128.834 237.75c-.667-10.582.5-30.916 2.916-44.416 2.417-13.5 6.083-20.167 13.5-24.167 7.418-4 18.584-5.334 24.25-.25 5.667 5.084 5.833 16.584 4.917 24.5-.917 7.917-2.917 12.25-3.917 12.75s-1-2.833-1.833-8.916-2.5-14.916-6.833-18.5c-4.333-3.584-11.333-1.918-16.5 3.75-5.168 5.666-8.5 15.333-10.334 24.833-1.833 9.5-2.167 18.833-2 25.917.167 7.084.833 11.917-.083 13.916-.916 2-3.416 1.167-4.083-9.416z" fill="#a69659"/><path d="M117.334 243.5c-1.167-7.999-2-24.499-3.167-37.082-1.167-12.584-2.667-21.25-8.25-26.917-5.583-5.667-15.25-8.334-21.583-8.584-6.334-.25-9.334 1.916-7.334.25C79 169.5 86 164 93.75 164c7.751 0 16.251 5.5 21.5 13.751 5.25 8.25 7.25 19.25 7.75 31.834.5 12.583-.5 26.75-1.75 34.082-1.25 7.333-2.75 7.833-3.916-.167z" fill="#b8ab7a"/><path d="M1065.273 102.083s.082 7.016-1.16 12.88c-1.243 5.864-1.044 9.909-1.044 9.909s4.4-11.627 3.362-5.873c-1.039 5.753 2.684 14.773 2.684 14.773s-1.13-13.308 1.168-8.213c2.296 5.094 1.754 9.64 4.991 13.144l3.238 3.503s-4.906-8.894-3.59-9.337c1.315-.443 7.192 8.792 7.192 8.792s1.619-9.914 1.14-12.033c-.48-2.12-2.933-7.273-2.933-7.273s3.313 3.534 3.817 6.228l.504 2.694s.35-6.933-4.196-13.117c-4.545-6.185-12.731-13.895-12.731-13.895l8.291 5.393s-4.206-4.664-7.017-6.283c-2.812-1.618-3.716-1.292-3.716-1.292zM1166.023 105.124s-.456 6.195.247 11.359c.702 5.164.315 8.737.315 8.737s-2.991-10.22-2.451-5.151c.541 5.068-3.031 13.068-3.031 13.068s1.666-11.76-.511-7.239c-2.178 4.52-1.98 8.528-4.847 11.653l-2.866 3.125s4.54-7.9 3.48-8.278c-1.062-.378-6.424 7.833-6.424 7.833s-.79-8.736-.277-10.611c.513-1.876 2.822-6.45 2.822-6.45s-2.93 3.153-3.494 5.536l-.565 2.383s.094-6.116 4.188-11.621c4.094-5.505 11.277-12.393 11.277-12.393l-7.143 4.843s3.73-4.16 6.14-5.616c2.411-1.457 3.14-1.178 3.14-1.178zM1332.317 99.992c-1.097 1.326-6.459 10.725-6.209 16.137.25 5.412.25 5.623.25 5.623s1.701-10.924 3.486-13.877c1.785-2.954 3.65-4.133 3.65-4.133s-.627 4.673-.6 8.03c.026 3.355 2.283 10.675 2.283 10.675s-1.184-8.35-1.184-12.317c0-3.966.994-6.324.994-6.324l-1.585-4.364zM1397.694 123.546l1.98 9.038.07-14.868 1.705 6.66-.348-11.493z" fill="#d3bc5f"/></svg>