<svg xmlns="http://www.w3.org/2000/svg" width="2250" height="250" viewBox="0 0 2250 250"><path d="M1087.088 140.206c-.442-.045-.828.84-.983 2.773-.31 3.869.307 11.942 1.979 25.733 1.671 13.79 4.397 33.298 6.826 48.853 2.428 15.556 4.559 27.159 6.02 32.139.024.084.045.13.07.21a.702.702 0 01.234-.048c.23.041.045-.004.24.078.018.008-.035-.023-.053-.031-.01-.004-.027.002-.025-.006 0-.018.04-.004.059-.006.152-.01.183-.002.35.106.026.017.041.047.062.072h.442c.038 0 .08.017.115 0 .083-.042-.105-.014-.05-.059.06-.05.13-.09.194-.137.15-.012.292-.057.434-.101-.01-.182 0-.343-.012-.537-.19-3.798-1.362-9.754-2.648-17.139-1.287-7.385-2.69-16.198-4.278-26.346-1.588-10.147-3.36-21.63-4.455-29.466-1.095-7.837-1.511-12.029-1.851-17.506-.34-5.478-.605-12.24-1.356-15.791-.375-1.775-.872-2.747-1.314-2.791zm15.72 110.129c0 .007-.018.02-.023.03l.022-.003c.021-.067.021-.061 0-.027zm-1.592.058v.002c.02.007.032.018.037.006v-.004c-.01-.003-.02 0-.03-.004zm.463.22c0 .005.013.007.018.013 0 .005-.01-.011-.014-.014zm-.162.708c.01.01 0 .012 0 .02.045.018.104.03.137.056h.025c.033-.025.059-.045.09-.066-.034 0-.068 0-.102.002-.044 0-.094-.01-.148-.012zm1.213.633v.006l.01-.006h-.01zM1154.984 139.48c-.597.044-1.269 1.017-1.775 2.792-1.014 3.55-1.371 10.312-1.83 15.79-.46 5.477-1.022 9.668-2.5 17.505-1.48 7.837-3.874 19.32-6.018 29.467-2.144 10.148-4.038 18.96-5.775 26.346-1.738 7.385-3.321 13.34-3.579 17.138v.03c.114-.03.228-.062.329-.055a.464.464 0 01.218.076c.169-.013.23-.031.45.09.017.01.049.044.078.074l.07.002H1135.782c.206-.01.368.008.567.078 1.97-5.056 4.824-16.564 8.072-31.972 3.28-15.556 6.96-35.065 9.217-48.856 2.258-13.79 3.092-21.864 2.674-25.732-.21-1.934-.732-2.818-1.328-2.774zm-21.473 109.14c0 .001 0 .008-.01.01 0 .098 0 .192-.01.293.04-.015.08-.03.12-.047-.014-.081-.025-.163-.056-.24-.01-.024-.028-.028-.049-.016zm.713 0c-.043-.006-.07 0-.09.014.023.022.041.063.063.092.116.006.23.008.346.008l-.143-.06a.756.756 0 00-.175-.054zm1.996.236c-.01.002-.042.01-.03.01.08.005.097.004.138.006v-.006c-.027-.002-.052-.016-.11-.01zm-2.601.032c-.03.012-.043.01-.051.027-.026.055-.051.113-.076.172v.008c.048.068.102.132.16.195 0-.136-.013-.27-.033-.402zm.098.724l-.035.01c.026.003.049 0 .076.006-.014-.005-.033-.003-.045-.012 0-.002.01-.002.01-.004-.001 0 0 0 0 0zm1.982.574c-.017.008-.025.01-.04.018l.022-.004c.01-.002.025-.017.018-.014zm-.129.055c0 .002-.01.004-.014.006l.047.04.037-.03c-.024-.004-.046-.01-.07-.016zm-.566.568c-.1.074-.195.145-.354.221-.01.002-.01.002-.012.004-.01.07-.012.139-.022.207.034-.05.097-.127.221-.246.055-.062.112-.122.166-.185zm-.957.674c-.037.028-.081.044-.12.07 0 .01-.01.01-.01.02a.525.525 0 00.104-.043c.01-.016.015-.031.021-.047zM1123.2 244.602c.32-3.79-.043-9.848-.327-17.34-.285-7.49-.492-16.412-.704-26.681-.212-10.27-.43-21.885-.464-29.798-.034-7.913.116-12.123.513-17.596.398-5.474 1.042-12.21.775-15.83-.267-3.618-1.448-4.118-2.274-.327-.826 3.792-1.297 11.875-1.49 25.766-.193 13.89-.109 33.588.211 49.329.32 15.74.876 27.523 1.656 32.654.78 5.132 1.783 3.612 2.103-.177z" fill="#e9ddaf"/><path d="M116.708 245.253c-.793-5.083-1.904-18.95-3.198-33.146-1.294-14.196-2.772-28.718-3.609-39.54-.837-10.82-1.033-17.94-.726-19.588.306-1.65 1.116 2.171 1.718 7.558.603 5.388 1 12.341 1.558 18.575.558 6.233 1.277 11.746 1.978 19.222.701 7.477 1.385 16.916 2.053 24.676.668 7.76 1.322 13.842 1.41 18.733.088 4.892-.39 8.594-1.184 3.51zM103.665 243.17c-.476-3.83-.595-14.183-.893-24.795-.297-10.611-.774-21.48-.833-29.556-.06-8.075.297-13.355.774-14.545.476-1.19 1.071 1.708 1.31 5.746.237 4.037.118 9.213.237 13.872.12 4.659.477 8.8.655 14.39.179 5.59.179 12.63.298 18.427.119 5.798.357 10.353.06 13.976-.299 3.623-1.132 6.315-1.608 2.484zM126.482 233.883c-.476-4.404-.595-16.31-.892-28.512-.298-12.202-.774-24.702-.834-33.988-.06-9.286.298-15.357.774-16.726.476-1.369 1.072 1.965 1.31 6.607.238 4.643.119 10.595.238 15.953.119 5.357.476 10.119.654 16.547.179 6.429.179 14.524.298 21.19.12 6.668.357 11.906.06 16.072-.298 4.167-1.132 7.262-1.608 2.857z" fill="#dbd5bd"/><path d="M135.411 245.668c-1.785.179-5.873-4.762-6.25-14.614-.377-9.851 2.956-24.613 7.778-32.054 4.822-7.44 11.131-7.56 14.762-6.547 3.63 1.012 4.583 3.155 4.226 3.87-.356.713-2.023-.001-4.285.058-2.263.06-5.12.893-7.858 5.12-2.739 4.226-5.358 11.845-6.608 17.976-1.25 6.131-1.13 10.774-.813 15.744.317 4.97.833 10.268-.952 10.447z" fill="#857847"/><path d="M94.935 249.42c-1.071-1.965-2.976-9.108-6.25-15.894-3.273-6.786-7.916-13.214-14.166-17.203-6.25-3.988-14.107-5.536-18.988-4.226-4.882 1.31-6.787 5.476-8.037 6.131-1.25.655-1.845-2.202-.059-5.119s5.952-5.893 13.453-4.405c7.5 1.489 18.334 7.44 24.821 14.227 6.488 6.786 8.63 14.405 9.583 19.821.952 5.417.714 8.631-.357 6.667zM135.411 245.668c-.476-3.035-.119-10.892 4.226-18.036 4.346-7.143 12.679-13.572 17.62-12.976 4.94.596 6.488 8.215 6.428 12.857-.06 4.643-1.726 6.31-2.56 6.072-.833-.238-.833-2.38-1.844-4.464-1.012-2.083-3.036-4.107-5.774-3.513-2.739.595-6.191 3.81-8.81 7.5-2.62 3.691-4.405 7.858-5.953 10.834-1.547 2.976-2.857 4.761-3.333 1.726z" fill="#a69659"/><path d="M96.522 242.812c-.357-2.619.873-11.845-1.25-22.41-2.122-10.566-7.599-22.47-12.956-28.245-5.357-5.775-10.595-5.418-11.25-5.775-.654-.357 3.274-1.428 7.917.953 4.643 2.382 10 8.215 14.048 15.06 4.047 6.846 6.785 14.703 7.856 20.715 1.072 6.011.476 10.178-.794 14.255-1.27 4.078-3.214 8.066-3.57 5.447z" fill="#857847"/><path d="M94.935 249.42c2.42-8.632 4.84-17.263 6.408-25.269 1.568-8.006 2.282-15.387 3.056-16.16.774-.774 1.607 5.06 1.786 10.416.178 5.357-.298 10.238.119 15.238s1.726 10.12 2.56 11.25c.833 1.131 1.19-1.726 1.785-4.881.595-3.155 1.428-6.607 1.726-11.488.298-4.88.06-11.19-.535-17.38-.596-6.191-1.548-12.263-.834-17.62.714-5.358 3.095-10 3.75-10.06.655-.06-.417 4.465-.416 9.584 0 5.12 1.071 10.833 2.083 16.25 1.012 5.417 1.964 10.536 2.44 15.357.477 4.822.477 9.345.655 13.214.179 3.87.536 7.084 1.19 7.084.655 0 1.608-3.215 2.56-7.62.952-4.404 1.905-10 2.857-15.595.953-5.595 1.905-11.19 3.631-15.952 1.726-4.763 4.226-8.691 5-8.989.774-.297-.179 3.036-1.19 7.203-1.012 4.167-2.084 9.167-2.084 14.167s1.072 10 1.905 15.25c.834 5.25 1.429 10.75 2.024 16.249" fill="#b8ab7a"/><g><path d="M1341.96 160.145c-.424-.035-.793.665-.942 2.198-.297 3.064.294 9.46 1.896 20.387 1.601 10.926 4.212 26.381 6.538 38.705 2.326 12.324 4.367 21.517 5.767 25.463.024.067.044.103.067.167a.792.792 0 01.224-.039c.22.033.043-.003.23.062.017.006-.034-.018-.05-.024-.01-.003-.027.002-.025-.005 0-.015.038-.003.056-.005.146-.008.176-.002.335.083.026.014.04.038.06.057h.423c.036 0 .078.014.11 0 .08-.033-.1-.01-.049-.046.058-.04.125-.072.187-.108.144-.01.28-.046.416-.08-.01-.145 0-.273-.011-.426-.183-3.01-1.305-7.728-2.537-13.579-1.233-5.85-2.577-12.833-4.098-20.873-1.52-8.04-3.218-17.137-4.267-23.346-1.049-6.209-1.448-9.53-1.774-13.87-.326-4.339-.58-9.697-1.298-12.51-.36-1.407-.836-2.176-1.26-2.211zm15.059 87.253c0 .006-.017.015-.022.023l.02-.002c.02-.053.02-.049 0-.022zm-1.525.046v.002c.019.006.03.014.035.005v-.003c-.01-.002-.02 0-.03-.003zm.443.173c0 .005.012.006.017.011 0 .004-.01-.009-.013-.01zm-.155.562c.01.008 0 .01 0 .016.043.014.099.024.13.044h.025l.086-.052c-.033 0-.065 0-.097.002-.042 0-.09-.007-.142-.01zm1.162.502v.005l.01-.005h-.01zM1378.793 151.51c-.572.149-1.01 1.075-1.108 2.628-.197 3.107.962 8.73 1.736 13.315.773 4.586 1.16 8.136 1.466 14.852.305 6.716.531 16.598.703 25.338.172 8.74.292 16.335.244 22.729-.048 6.393-.263 11.584.333 14.752 0 .009 0 .016.01.024.104-.046.209-.093.308-.106.078-.011.155-.001.23.021.161-.043.218-.069.458-.01.018.003.057.026.092.046a2.48 2.48 0 01.07-.012l.519-.1.27-.052.312-.06a1.62 1.62 0 01.57-.043c.794-4.524 1.01-14.514.74-27.783-.27-13.395-1.033-30.114-1.907-41.868-.874-11.753-1.86-18.542-3.13-21.642-.636-1.55-1.342-2.177-1.914-2.029zm3.4 93.697s0 .007-.01.01c.023.08.044.158.057.242l.105-.06c-.03-.065-.06-.13-.107-.188-.015-.018-.033-.017-.051-.003zm.696-.134c-.043.003-.07.013-.085.028.028.014.054.044.082.063.113-.016.226-.036.338-.058-.05-.008-.1-.014-.152-.021a.892.892 0 00-.183-.012zm1.998-.181c-.01.003-.039.015-.028.014.08-.011.097-.015.137-.021v-.005c-.027.003-.054-.003-.11.012zm-2.529.514c-.025.016-.04.017-.044.032-.013.05-.024.103-.036.156v.007c.062.047.13.09.2.13a1.981 1.981 0 00-.122-.324zm.257.577a.446.446 0 00-.032.015c.026-.003.048-.01.075-.01-.015-.001-.033.004-.047 0 0-.002.01-.003.01-.005zm2.06.1c-.014.01-.021.012-.035.022a.177.177 0 00.022-.008c.01-.003.02-.019.014-.015zm-.113.069c0 .002-.01.005-.012.008l.054.023.03-.031h-.072zm-.425.573c-.08.079-.158.155-.296.248-.01.003-.01.003-.01.006.01.059.018.116.024.174.022-.048.066-.123.16-.244.04-.061.083-.121.121-.183zm-.783.733c-.03.03-.069.052-.1.08 0 .008-.01.01-.01.018.01 0 .054-.03.09-.054.01-.015.01-.029.01-.043zM1368.94 239.397c-.226-3.592-1.49-9.218-2.885-16.195-1.395-6.978-2.92-15.306-4.648-24.895-1.728-9.589-3.66-20.438-4.86-27.844-1.198-7.407-1.662-11.369-2.057-16.548-.396-5.18-.723-11.575-1.53-14.929-.807-3.353-2.097-3.663-2.39-.002-.293 3.662.41 11.295 2.254 24.33 1.844 13.035 4.827 31.47 7.47 46.17 2.645 14.698 4.95 25.659 6.507 30.36 1.557 4.701 2.367 3.144 2.14-.447z" fill="#e9ddaf"/><path d="M1378.854 183.113c-1.348.152-3.458 9.263-4.684 17.87-1.508 10.592-1.68 20.417-2.464 28.601-.785 8.185-2.183 14.727-.977 15.338.021.01.048.005.07.012.055-.016.115-.042.165-.037.035.003.065.028.096.046 1.462-.3 4.858-5.806 6.894-18.593 2.208-13.864 2.813-36.27 1.692-41.793-.21-1.036-.48-1.479-.792-1.444z" fill="#a0892c"/><path d="M1315.014 167.616c-.028.09.135 1.956.51 6.217.666 7.576 1.997 22.725 9.037 37.078 7.04 14.353 19.785 27.907 27.014 33.986 2.326 1.957 4.074 3.133 5.379 3.784.047-.013.094-.028.156-.028h.092c.02-.017 0 .017.265-.047.014-.004-.03-.018-.029-.033.001-.016.02-.028.033-.035.189-.096.164-.08.342-.098.23.041.045-.004.24.078.018.008-.035-.023-.053-.03-.01-.005-.027.001-.025-.007 0-.018.04-.004.06-.006.151-.01.183-.002.35.106.026.017.041.047.062.072h.441c.038 0 .081.017.116 0 .083-.042-.105-.014-.051-.059.06-.05.13-.09.195-.136.225-.019.432-.122.652-.164.064-.013.13-.018.194-.026a.646.646 0 01.24.041c0-.003.059-.007.103-.01.01-.102 0-.206-.01-.312-.19-1.595-2.282-3.387-4.755-6.676-2.474-3.29-5.326-8.073-9.362-12.147-4.035-4.073-9.254-7.436-14.113-13.724-4.86-6.288-9.358-15.502-12.172-24.188-2.814-8.685-3.94-16.84-4.504-20.918-.246-1.784-.384-2.788-.406-2.718zm45.04 81.184c-.042.003-.08.02-.12.027.024 0 .047.008.072.006.056.015.104.033.154.05.01-.015.022-.028.031-.044v-.002c-.01 0-.026.003-.035.002-.036-.004-.07-.017-.105-.027 0-.001-.011-.005-.01-.006.02-.005.052.007.01-.006zm-.667.109c0 .007-.018.02-.023.03l.022-.003c.021-.067.021-.06 0-.027zm-1.592.059v.002c.02.007.032.017.037.006v-.004c-.01-.003-.02 0-.03-.004zm.463.218c0 .006.013.008.018.014 0 .005-.01-.01-.014-.014zM1415.148 167.299c-.125.156-.364 1.513-.787 3.923-.966 5.51-2.897 16.525-5.004 25.295-2.106 8.77-4.385 15.29-7.656 20.147-3.27 4.858-7.53 8.051-10.775 12.04-3.245 3.99-5.476 8.774-7.408 12.063-1.933 3.29-3.567 5.082-3.715 6.676v.027h.019c.502.014 1.005.019 1.508.028.389.004.78-.011 1.167.011.432.025.428.028.747.047.993-.746 2.243-1.876 3.816-3.539 6.069-6.416 16.869-20.644 22.37-34.998 5.5-14.353 5.699-28.83 5.798-36.068.056-4.072.081-5.854-.08-5.652z" fill="#d3bc5f"/><path d="M1395.75 199.172c-.08.034-.287.542-.672 1.638-1.542 4.386-5.935 18.208-8.817 28.774-2.881 10.565-4.25 17.873-3.017 17.973 1.233.1 5.07-7.01 7.296-15.051 2.228-8.04 2.844-17.01 3.807-24.022.722-5.258 1.64-9.414 1.402-9.312z" fill="#e9ddaf"/><path d="M1360.337 248.3c-5.02-2.614-6.218-8.245-6.877-13.204-.658-4.96-.777-9.245-.956-15.376-.179-6.13-.417-14.107-1.071-20.119-.655-6.012-1.726-10.06-1.25-8.511.476 1.547 2.5 8.69 3.928 15.773 1.429 7.084 2.262 14.107 4.027 19.925 1.766 5.819 4.462 10.43 5.593 8.704 1.13-1.726.696-9.79-.057-18.049s-1.825-16.71-2.36-22.485c-.536-5.774-.536-8.869.297-7.023.834 1.845 2.5 8.63 3.929 14.405 1.429 5.773 2.619 10.535 3.452 16.07.833 5.537 1.31 11.846 2.839 16.833 1.53 4.987 4.11 8.651 5.777 6.984 1.666-1.667 2.418-8.664 3.508-15.973 1.09-7.308 2.519-14.927 4.007-21.772 1.488-6.845 3.035-12.917 4.762-16.608 1.726-3.69 3.631-5 3.512-3.393-.12 1.608-2.262 6.132-3.929 14.049-1.667 7.917-2.857 19.226-3.85 28.387-.991 9.161-1.785 16.174-6.602 19.882-4.817 3.708-13.658 4.113-18.679 1.5z" fill="#c8ab37"/></g><g transform="translate(-11.978 280.496)"><path d="M634.726-38.975c1.355-3.587 3.756-11.196 5.747-21.64 1.99-10.444 3.57-23.722 4.423-32.993.852-9.271.978-14.535.706-14.66-.272-.124-.94 4.89-1.768 11.22-.828 6.329-1.815 13.974-2.697 20.38-.883 6.407-1.66 11.575-2.482 15.861-.821 4.286-1.686 7.69-2.678 11.634-.991 3.944-2.108 8.43-2.512 10.89-.403 2.46-.094 2.895 1.261-.692zM626.27-46.64c-1.354-3.422-3.756-10.737-5.746-20.938-1.99-10.2-3.57-23.285-4.423-32.452-.853-9.167-.978-14.415-.706-14.573.271-.158.94 4.774 1.767 11.003.828 6.228 1.815 13.752 2.698 20.05.882 6.3 1.66 11.373 2.481 15.558.822 4.185 1.687 7.483 2.678 11.306.991 3.823 2.109 8.173 2.512 10.583.404 2.41.095 2.883-1.26-.538z" fill="#8bae00" fill-opacity=".906"/><path d="M626.806-37.555c-.435 1.907-.9-2.456-1.793-8.95-.893-6.494-2.213-15.119-2.119-25.326.095-10.208 1.605-21.998 2.608-23.235 1.003-1.238 1.499 8.077 1.84 16.377.34 8.3.525 15.585.415 23.317-.11 7.731-.515 15.91-.95 17.817z" fill="#495744"/><path d="M618.665-34.963c-2.945-1.393-10.715-7.982-15.227-18.75-4.512-10.77-5.765-25.72-6.141-36.235-.376-10.516.125-16.597.752-15.077.626 1.52 1.378 10.642 3.196 20.081 1.817 9.44 4.7 19.195 7.645 26.543 2.945 7.348 5.953 12.29 8.396 16.66 2.444 4.371 4.324 8.172 1.379 6.778z" fill="#5a762a"/><path d="M634.726-38.975c.751-2.407 5.012-7.348 8.02-14 3.008-6.65 4.762-15.012 5.953-23.944 1.19-8.932 1.817-18.434 2.945-20.145 1.128-1.71 2.757 4.371 2.57 12.86-.189 8.488-2.194 19.384-4.951 27.682-2.757 8.299-6.266 14-9.399 16.914-3.132 2.913-5.89 3.04-5.138.633zM618.163-37.37c-.501-1.963-.272-9.861-1.097-17.547-.825-7.687-2.705-15.161-2.078-16.175.627-1.013 3.76 4.434 5.2 10.135 1.442 5.702 1.191 11.656.45 16.619-.742 4.962-1.974 8.932-2.475 6.968z" fill="#495744"/><path d="M633.16-38.975c-.884-2.217-2.231-9.946-2.82-17.674-.59-7.729-.422-15.457-.043-20.715.379-5.258.968-8.045 1.179-6.524.21 1.52.042 7.348.547 14.823.505 7.475 1.684 16.597 2.062 22.805.38 6.208-.042 9.502-.926 7.285z" fill="#8bae00" fill-opacity=".906"/><path d="M618.226-34.963c-2.957-4.243-4.75-12.014-5.943-17.294-1.193-5.279-1.784-8.066-1.133-7.686.65.38 2.542 3.928 4.79 7.032 2.246 3.104 4.847 5.764 6.207 5.13 1.36-.633 1.477-4.56 3.724-8.679 2.247-4.118 6.622-8.425 10.17-13.746 3.547-5.321 6.266-11.656 6.74-11.719.472-.063-1.301 6.145-2.957 11.72-1.655 5.574-3.193 10.515-3.961 14.38-.769 3.864-.769 6.651.65 6.017 1.42-.634 4.257-4.688 5.854-8.869 1.596-4.18 1.95-8.488 2.069-7.474.118 1.014 0 7.348-.217 13.26-.216 5.913-.532 11.403-3.015 15.267-2.483 3.863-7.134 6.102-11.518 6.862-4.385.76-8.504.043-11.46-4.2z" fill="#5a762a"/><path d="M614.826-123.204l-.93-12.435 1.703 12.543z" fill="#fea"/><ellipse cx="621.574" cy="-78.241" rx="2.42" ry="8.47" transform="rotate(-3.463)" fill="#a9c53a"/><path d="M645.772-116.622l1.174-9.514-.608 9.712z" fill="#fea"/><ellipse cx="635.958" cy="-157.274" rx="1.86" ry="6.512" transform="rotate(4.149)" fill="#a9c53a"/></g><g transform="translate(-1.497 281.232)"><path d="M837.938-138.986c-.442-.044-.827.84-.982 2.773-.31 3.869.306 11.942 1.978 25.733 1.672 13.79 4.398 33.298 6.826 48.853 2.429 15.556 4.56 27.159 6.02 32.14.024.083.046.13.07.21a.705.705 0 01.234-.049c.23.041.045-.004.24.078.02.008-.034-.023-.052-.03-.008-.005-.027.001-.025-.007.004-.018.04-.004.058-.006.152-.01.184-.002.35.106.027.017.041.047.062.072h.442c.038 0 .08.017.115 0 .083-.042-.105-.014-.05-.059.06-.05.13-.09.194-.136.15-.013.292-.058.434-.102-.005-.182-.002-.343-.012-.537-.19-3.798-1.361-9.754-2.648-17.139-1.287-7.385-2.69-16.198-4.277-26.345-1.588-10.148-3.36-21.63-4.456-29.467-1.094-7.837-1.51-12.029-1.851-17.506-.34-5.477-.605-12.24-1.356-15.791-.375-1.775-.872-2.747-1.314-2.791zm15.72 110.129c-.003.007-.017.02-.023.03l.022-.003c.02-.067.02-.061.002-.027zm-1.591.059c-.001 0-.003 0-.004.002.02.007.032.017.037.006.001-.004-.003-.001-.002-.004-.01-.003-.02 0-.031-.004zm.463.218c.005.006.013.008.017.014l-.013-.014zm-.162.71c.006.01-.003.011-.002.019.045.018.103.03.136.056h.026c.032-.025.06-.044.09-.066-.034 0-.068 0-.102.002-.044 0-.094-.01-.148-.012zm1.213.632l-.004.006.01-.006h-.006zM907.834-139.713c-.596.045-1.268 1.018-1.775 2.793-1.013 3.55-1.37 10.312-1.83 15.79-.46 5.477-1.021 9.668-2.5 17.505s-3.873 19.32-6.018 29.467c-2.144 10.148-4.037 18.96-5.775 26.346-1.738 7.385-3.32 13.34-3.578 17.139v.029c.114-.03.228-.062.328-.055.08.005.151.034.219.076.168-.013.23-.031.449.09.017.01.049.044.078.074l.07.002h1.131c.206-.01.367.008.567.078 1.97-5.056 4.824-16.563 8.072-31.972 3.28-15.556 6.959-35.065 9.217-48.856 2.257-13.79 3.092-21.864 2.674-25.732-.21-1.934-.732-2.818-1.329-2.774zM886.362-30.572c-.003.001-.005.008-.008.01-.003.098-.004.192-.008.293.04-.015.08-.03.119-.047-.013-.081-.024-.163-.055-.24-.01-.024-.027-.028-.049-.016zm.713 0c-.043-.006-.071 0-.09.014.023.022.041.063.062.092.116.006.23.008.346.008l-.143-.059a.756.756 0 00-.175-.055zm1.996.236c-.01.002-.042.01-.031.01.08.005.098.004.138.006l.002-.006c-.026-.002-.052-.016-.11-.01zm-2.602.032c-.029.013-.042.01-.05.027-.027.055-.052.113-.077.172v.008c.048.068.103.132.16.195a3.092 3.092 0 00-.033-.402zm.098.724l-.035.01c.026.003.048 0 .076.006-.014-.005-.033-.003-.045-.011-.002-.002.008-.002.008-.004h-.004zm1.982.574l-.04.018.023-.004c.007-.002.024-.017.017-.014zm-.129.055l-.013.006.047.04.037-.03c-.024-.004-.046-.01-.07-.016zm-.566.569c-.099.073-.194.144-.354.22l-.011.004c-.006.07-.012.139-.022.207.034-.05.097-.127.221-.246.055-.062.112-.122.166-.185zm-.957.673c-.037.028-.08.045-.12.07 0 .01-.004.01-.005.02a.543.543 0 00.103-.043l.022-.047zM874.05-34.59c.32-3.79-.042-9.848-.327-17.34-.285-7.49-.491-16.412-.704-26.681-.212-10.27-.43-21.885-.464-29.798-.034-7.913.116-12.123.514-17.596.397-5.474 1.042-12.21.774-15.83-.267-3.618-1.448-4.118-2.274-.326-.826 3.791-1.296 11.875-1.49 25.765-.192 13.89-.108 33.588.212 49.329.32 15.74.876 27.523 1.655 32.654.78 5.132 1.783 3.612 2.104-.177z" fill="#2c3b20"/><path d="M895.715-92.482s-1.976 18.906-3.69 27.512c-2.108 10.592-5.205 10.774-6.302 18.959-1.097 8.184-3.051 14.727-1.365 15.338.029.01.067.005.098.011.077-.015.16-.042.23-.037.049.003.09.028.135.047 2.044-.3 6.79-5.806 9.637-18.594 3.085-13.864 6.074-57.34 4.508-62.864-.294-1.036-3.25 19.628-3.25 19.628zM853.84-29.947c-2.72-1.745-10.325-11.78-11.614-31.201-1.29-19.422 3.738-48.226 6.252-50.635 2.514-2.41 2.514 21.577 2.72 37.726.206 16.15.619 24.459 1.908 31.886 1.29 7.427 3.455 13.97.735 12.224z" fill="#2c3b20"/><path d="M809.286-110.15c-.029.09.135 1.955.51 6.217.665 7.575 1.997 22.725 9.036 37.078 7.04 14.353 19.785 27.907 27.014 33.986 2.326 1.956 4.075 3.133 5.38 3.783.047-.013.093-.027.155-.027h.092c.02-.017.002.017.266-.047.014-.004-.03-.018-.03-.033.001-.016.02-.028.034-.035.188-.096.163-.08.341-.098.23.041.045-.004.24.078.02.008-.034-.023-.052-.031-.008-.004-.027.002-.025-.006.004-.018.04-.004.058-.006.152-.01.184-.002.35.105.027.018.041.048.062.073h.442c.038 0 .08.017.115 0 .083-.042-.105-.014-.05-.059.06-.05.13-.09.194-.137.226-.018.432-.12.653-.164.064-.012.129-.017.193-.025a.645.645 0 01.24.041c.001-.003.059-.007.104-.01a1.827 1.827 0 00-.01-.313c-.19-1.594-2.283-3.386-4.756-6.675-2.473-3.29-1.397-8.788-5.433-12.861-4.035-4.073-7.433-10.555-12.327-18.01-4.306-6.558-4.716-7.645-10.386-15.974-5.139-7.546-11.441-20.053-12.004-24.132-.247-1.784-.384-2.788-.407-2.719zm45.039 81.184c-.042.003-.08.02-.12.027.025 0 .048.008.073.006.055.014.104.033.154.05.01-.015.023-.028.031-.044v-.002c-.01 0-.026.003-.035.002-.036-.004-.07-.018-.105-.028-.004 0-.011-.005-.008-.006.02-.005.051.007.01-.006zm-.666.109c-.004.007-.018.02-.024.03l.022-.003c.02-.067.02-.061.002-.027zm-1.592.059c-.001 0-.003 0-.004.002.02.007.032.017.037.006.001-.004-.003-.001-.002-.004-.01-.003-.02 0-.031-.004zm.463.218c.005.006.013.008.017.014l-.013-.014zM931.31-110.648c-.126.156-.365 1.513-.788 3.924-.966 5.51-4.628 13.613-8.575 21.723-4.964 10.199-9.074 18.237-10.87 20.147-4.013 4.265-5.031 11.623-8.276 15.612-3.245 3.99-1.19 8.774-3.123 12.063-1.932 3.289-3.567 5.081-3.715 6.675v.028h.02c.502.014 1.005.018 1.508.027.389.004.78-.01 1.168.012.432.025.427.027.746.047.994-.746 2.243-1.876 3.816-3.54 6.069-6.416 16.869-20.644 22.37-34.997 5.5-14.354 5.699-28.83 5.798-36.069.056-4.072.081-5.853-.08-5.652z" fill="#435a31"/><path d="M854.598-29.778c-1.14.1-4.692-7.01-7.17-15.051-2.479-8.04-3.883-17.01-5.74-29.056-1.856-12.045-4.166-27.163-2.322-22.777 1.843 4.386 7.84 28.275 11.472 43.875 3.633 15.6 4.902 22.91 3.76 23.009zM908.47-78.888c-.08.033 1.856-35.53 1.47-34.433-1.542 4.386-8.078 54.28-10.96 64.845-2.88 10.565-4.25 17.873-3.017 17.972 1.233.1 5.07-7.01 7.297-15.05 2.227-8.04 2.844-17.01 3.807-24.022.722-5.258 1.64-9.414 1.402-9.312z" fill="#5a6b53"/><g fill="#5a6b53"><path d="M879.694-90.443c-1.264.3-5.308 8.809-7.809 16.727-2.858 9.049-3.7 17.323-4.12 23.953-.422 6.63-.421 11.613-1.372 11.812-.95.2-2.853-4.385-3.533-12.873-.297-3.703-2.317-13.656-1.738-23.775.75-13.074 4.166-26.425 3.79-26.93-.666-.898-6.111 26.843-7.556 35.896-1.444 9.053-1.744 28.346-2.758 35.854l28.85-.506c.093-.073.204-.139.355-.187.32-.103.628-.245.883-.227.08.005.151.034.219.076.168-.013.23-.031.449.09.017.01.049.044.078.074l.07.002h1.131c.215-.01.38.005.592.084.013.005.025.015.037.022l6.74-.117c.106-.02.212-.044.319-.047.609-.022.87-.001 1.242.02l.4-.009c-3.831-7.266-10.164-15.247-12.175-21.073-2.012-5.827 3.511-38.07 2.94-38.568-.57-.5-6.879 30.748-7.26 34.835-.38 4.087 1.954 9.585 1.954 13.87 0 4.287-.19 8.075-1.236 7.676-1.046-.398-2.948-4.985-4.375-9.67-1.427-4.684-4.522-9.825-2.996-19.671 1.525-9.846 16.467-45.381 14.738-47.297 0 0 .536-.441.355-.398zm4.668 59.871c-.064.036-.156.199-.13.272v.002l.198-.004c.012-.005.024-.008.035-.014-.013-.081-.024-.163-.054-.24-.01-.025-.028-.028-.05-.016zm.713 0c-.043-.006-.071 0-.09.014.023.022.041.063.062.092.116.006.23.008.346.008l-.142-.059a.756.756 0 00-.176-.055zm-.606.268l-.004.002h.004z"/><path d="M884.43-30.302l-.197.004s.002 0 .002.002l.193-.004.002-.002zm-.982.017l-28.85.506 6.895-.12 21.953-.384.002-.002z"/></g><path d="M871.7-167.479l.97-22.22.061 22.592z" fill="#fea"/><ellipse cx="870.315" cy="-169.951" rx="3.794" ry="15.033" transform="matrix(.99982 .01895 -.0117 .99993 0 0)" fill="#6c340a"/><path d="M838.071-158.131l-.49-20.223 1.482 20.453z" fill="#fea"/><ellipse cx="838.145" cy="-148.316" rx="3.573" ry="13.667" transform="rotate(.204) skewX(.045)" fill="#6c340a"/><path d="M907.159-162.241l1.417-22.427-.399 22.838z" fill="#fea"/><ellipse cx="904.69" cy="-176.567" rx="3.776" ry="15.2" transform="matrix(.99952 .03106 -.01828 .99983 0 0)" fill="#6c340a"/></g><g><path d="M1144.865 186.71c-1.885.151-4.833 9.263-6.547 17.869-2.109 10.592-2.348 20.417-3.445 28.602-1.098 8.184-3.052 14.727-1.366 15.337.03.01.067.005.098.012.077-.015.16-.042.23-.037.05.003.092.028.136.047 2.043-.3 6.79-5.806 9.636-18.594 3.086-13.864 3.932-36.269 2.366-41.793-.294-1.036-.673-1.478-1.108-1.443zM1102.99 249.245c-2.72-1.745-10.325-11.78-12.627-27.749-2.301-15.969.703-37.869 3.217-40.278 2.514-2.409 4.537 14.673 5.756 27.37 1.218 12.696 1.63 21.006 2.92 28.433 1.289 7.427 3.454 13.97.734 12.224z" fill="#a0892c"/><path d="M1058.435 169.042c-.028.09.135 1.955.51 6.217.666 7.575 1.997 22.725 9.037 37.078 7.04 14.353 19.785 27.907 27.014 33.986 2.326 1.956 4.074 3.133 5.379 3.783.047-.013.094-.027.156-.027h.092c.02-.017 0 .017.265-.047.014-.004-.03-.018-.029-.033.001-.016.02-.028.033-.035.189-.096.164-.08.342-.098.23.04.045-.004.24.078.018.008-.035-.023-.053-.031-.01-.004-.027.002-.025-.006 0-.018.04-.004.06-.006.151-.01.183-.002.35.105.026.018.041.048.062.073h.441c.038 0 .081.017.116 0 .083-.042-.105-.014-.051-.059.06-.05.13-.09.195-.137.225-.018.432-.12.652-.164.064-.012.13-.017.194-.025a.646.646 0 01.24.04c0-.002.059-.006.103-.01.01-.101 0-.206-.01-.312-.19-1.594-2.282-3.386-4.755-6.675-2.474-3.29-5.326-8.073-9.362-12.147-4.035-4.073-9.254-7.436-14.113-13.724-4.86-6.289-9.358-15.503-12.172-24.188-2.814-8.685-3.94-16.84-4.504-20.918-.246-1.784-.384-2.788-.406-2.719zm45.04 81.183c-.042.003-.08.02-.12.028.024 0 .047.008.072.006.056.014.104.033.154.05.01-.015.022-.028.031-.044v-.002c-.01 0-.026.003-.035.002-.036-.004-.07-.018-.105-.028 0 0-.011-.005-.01-.006.02-.005.052.007.01-.006zm-.667.11c0 .007-.018.02-.023.03l.022-.003c.021-.067.021-.061 0-.027zm-1.592.058v.002c.02.007.032.018.037.006v-.004c-.01-.003-.02 0-.03-.004zm.463.22c0 .005.013.007.018.013 0 .005-.01-.011-.014-.014zM1180.459 168.544c-.126.156-.365 1.513-.788 3.924-.966 5.51-2.897 16.525-5.004 25.295-2.106 8.77-4.385 15.288-7.656 20.146-3.27 4.858-7.53 8.052-10.775 12.041-3.245 3.99-5.476 8.774-7.408 12.063-1.933 3.289-3.567 5.081-3.715 6.675v.028h.019c.502.014 1.005.018 1.508.027.389.004.78-.01 1.168.012.432.025.427.027.746.047.994-.746 2.243-1.876 3.816-3.54 6.069-6.416 16.869-20.644 22.37-34.998 5.5-14.353 5.699-28.829 5.798-36.068.056-4.072.081-5.853-.08-5.652z" fill="#d3bc5f"/><path d="M1103.748 249.414c-1.141.1-4.693-7.01-6.754-15.051-2.062-8.04-2.632-17.01-2.822-21.497-.19-4.486 0-4.486 1.427-.1 1.426 4.387 4.09 13.158 6.056 21.198 1.966 8.04 3.234 15.35 2.093 15.45zM1157.619 200.304c-.08.033-.287.542-.672 1.638-1.542 4.386-5.935 18.208-8.817 28.774-2.881 10.565-4.25 17.873-3.017 17.972 1.233.1 5.07-7.01 7.297-15.05 2.227-8.04 2.843-17.01 3.806-24.022.723-5.258 1.64-9.414 1.403-9.312z" fill="#e9ddaf"/><g fill="#c8ab37"><path d="M1128.843 188.749c-1.263.3-5.308 8.809-7.808 16.726-2.858 9.05-3.7 17.324-4.121 23.954-.421 6.63-.42 11.613-1.371 11.812-.951.2-2.853-4.385-3.534-12.873-.68-8.488-.138-20.88-.804-21.777-.666-.897-2.54 9.7-3.985 18.754-1.444 9.053-2.458 16.56-3.472 24.068l28.85-.506c.092-.073.204-.14.355-.187.32-.103.627-.245.883-.227.079.005.15.034.218.076.169-.013.23-.031.45.09.016.01.048.044.078.074l.07.002H1135.782c.216-.01.38.005.593.084.013.005.024.015.037.022l6.74-.117c.105-.02.211-.044.318-.047.61-.022.871-.001 1.242.02l.4-.009c-3.83-7.266-7.663-14.533-9.675-20.36-2.011-5.826-2.202-10.211-2.773-10.71-.571-.499-1.522 2.892-1.903 6.978-.38 4.087-.19 8.87-.19 13.157 0 4.286-.19 8.074-1.235 7.675-1.047-.398-2.948-4.985-4.375-9.67-1.428-4.684-2.38-9.468-.854-19.314 1.526-9.846 5.53-24.754 5.096-27.297-.055-.318-.18-.441-.36-.398zm4.668 59.871c-.063.036-.156.198-.129.272v.002l.198-.004c.011-.005.023-.008.035-.014-.013-.081-.024-.163-.055-.24-.01-.025-.028-.028-.049-.016zm.713 0c-.043-.006-.07 0-.09.014.023.022.042.063.063.092.115.006.23.008.346.008l-.143-.06a.756.756 0 00-.176-.054zm-.605.268l-.004.002h.004z"/><path d="M1133.58 248.89l-.198.004s.002 0 .002.002l.194-.004.002-.002zm-.983.017l-28.85.506 6.895-.12 21.953-.384.002-.002z"/></g><path d="M368.707 246.463l-94.838 1.868s28.583-5.488 38.089-6.085c9.506-.597.424-8.194-4.317-5.097-4.741 3.097-15.25 8.038-15.25 8.038s16.801-11.832 22.403-12.296c5.602-.464 4.427 4.068 8.065 5.558 3.638 1.49 84.05 2.147 84.05 2.147s-36.682 3.48-18.707 4.26c17.975.78 73.038 2.424 73.038 2.424l-113.607 1.413z" fill="#857847"/><path d="M369.782 247.65s-.797-58.51-19.053-37.133c-18.256 21.377-27.864 34.465-27.864 34.465s28.786-46.401 36.186-41.62c7.399 4.783 9.925 8.778 11.071 31.207 1.147 22.428-.34 13.08-.34 13.08z" fill="#b8ab7a"/><path d="M373.298 245.8s70.218-40.673 18.383-24.703c-51.836 15.97-57.688 21.325-57.688 21.325s99.126-35.47 65.11-18.19c-34.015 17.278-25.805 21.569-25.805 21.569z" fill="#b8ab7a"/><path d="M369.903 249.637c-.779 1.337-4.746-3.999-7.364-12.146-2.618-8.148-3.886-19.107-3.077-27.409.81-8.301 3.698-13.943 4.8-12.856 1.103 1.087.42 8.902.39 15.866-.03 6.964.593 13.078 2.108 20.139 1.515 7.061 3.923 15.07 3.143 16.406z" fill="#cf0"/><path d="M369.819 249.6c.344.956 2.094-2.055 3.249-7.048 1.155-4.993 1.714-11.965 1.357-17.449-.357-5.483-1.631-9.477-2.118-8.897-.486.58-.185 5.733-.171 10.259.013 4.526-.262 8.426-.93 12.838-.669 4.413-1.73 9.34-1.387 10.296z" fill="#e5ff80"/><path d="M369.903 249.637c-4.39-2.124-8.783-4.25-12.597-8.142-3.815-3.893-7.052-9.554-8.67-13.88-1.62-4.324-1.62-7.312-.477-6.369 1.143.944 3.428 5.82 5.903 9.436 2.476 3.617 5.141 5.976 7.813 8.926 2.672 2.95 5.35 6.49 8.028 10.029" fill="#aad400"/><path d="M363.572 237.714c-1.597-2.003-4.792-6.012-6.485-9.588-1.693-3.577-1.884-6.722-2.36-10.26-.475-3.54-1.237-7.47-1.047-7.313.19.157 1.333 4.403 3.407 9.946 2.073 5.542 5.078 12.38 8.082 19.218l-1.597-2.003z" fill="#e5ff80"/><path d="M369.903 249.637c-2.284-1.257-4.95-5.975-6.187-10.38-1.238-4.403-1.048-8.492-.477-8.491.572 0 1.524 4.089 3.143 7.47 1.618 3.381 3.903 6.055 5.14 6.212 1.237.157 1.427-2.202 3.14-5.663 1.714-3.46 4.95-8.02 6.189-13.21 1.237-5.189.476-11.008.476-9.199 0 1.809.761 11.244 0 17.534-.762 6.29-3.047 9.435-5.141 12.109-2.094 2.673-3.998 4.875-6.283 3.618z" fill="#aad400"/></g><g fill="#d3bc5f"><path d="M1085.334 107.946s.876 7.497.495 13.164-5.104 10.064-5.853 14.117c-.75 4.054.01 9.451.01 9.451s-.784-6.41 1.351-9.356c2.136-2.945-1.824 1.197-.681 7.7 1.142 6.503 3.826 11.742 3.826 11.742l-1.572-10.916 4.827 16.282 4.415-13.945s5.711 2.19 5.263 3.72c-.447 1.53-.228 1.749-.228 1.749s3.84-3.248-4.107-5.847c-7.946-2.6 5.054-2.561 5.054-2.561s-3.626-1.77-5.1-1c-1.475.77.057-.974-1.276-6.533-1.333-5.558-2.51-8.598-2.51-8.598l2.658 4.01s-.472-3.202-2.229-4.83c-1.757-1.629-2.646-4.02-2.646-4.02s.185-13.224-.73-14.332c-.697-.738-.28-.642-.964.003zM1119.546 149.583s-1.6.86-3.142 5.155l-1.543 4.294s-.783-4.878 1.095-8.711l1.877-3.833s-4.237.913-4.887 2.881l-.65 1.968s-.226-4.44 2.092-7.11c2.32-2.67 4.067-7.258 4.067-7.258l-4.854 6.297s2.783-7.514 5.217-10.019c2.434-2.505 3.246-5.004 2.705-9.577-.541-4.573-.343-14.076.428-12.06.771 2.017.504 18.308.504 18.308s2.956 3.518 3.494 7.594c.538 4.076.809 7.033.809 7.033l-2.7-5.922s.61 1.643 1.125 7.825c.513 6.183-4.652 15.014-4.652 15.014zM1156.286 123.377s-1.774 11.226-.44 14.027c1.336 2.802 4.12 7.732 4.727 12.785.608 5.052 1.006 9.712 1.006 9.712l-2.302-7.245s.646 2.02.209 6.615c-.437 4.595-2.438 11.317-2.438 11.317l-.842-4.51-1.842 4.27-2.376-13.607s-5.357 5.02-6.927 7.924c-1.57 2.903-6.271 2.696-6.271 2.696s4.273-.949 6.686-4.875c2.413-3.926 4.125-6.698 4.125-6.698l-6.584 2.665 6.305-3.8 1.172-9.338s-3.108.187-5.415 2.102c-2.308 1.915-1.821 3.302-1.821 3.302s-2.543-1.526 5.12-7.28c7.662-5.753 5.908-9.703 5.908-9.703l.664-10.947.727-.194z"/></g></svg>