<svg xmlns="http://www.w3.org/2000/svg" width="1000" height="250" viewBox="0 0 1000 250"><path d="M179.807 160.916l-53.537 4.041-4.69 8.836 2.164 1.771 12.121 3.536-7.07 2.02 5.555 1.515 6.062 1.01h4.545l-8.082 2.02-5.05-1.01-5.555-1.516-1.516-3.535 2.02-.504-7.47-1.02-6.167 11.625-13.746 2.443-1.407 3.618-17.677 3.537-15.045-.803-12.791 3.771-8.024 7.133-5.16-3.244-11.002 3.244-18.69 20.707 3.032 17.174 57.074 9.09 92.428-8.08 63.64-3.031 13.807-26.278-2.89.131-4.041-21.215-2.834 2.41v4.545l-6.567 3.032 6.567 3.029-3.032 2.525-5.05 7.073-3.032 2.525-2.525-6.566 6.566-6.567-6.566-2.02 7.576-4.04 5.05-13.637-13.636 5.05 11.986-10.896-4.914-17.388z" fill="#6f6f91"/><path d="M216.172 207.889l-15.656 7.07-16.668 8.586L144.957 219l-20.203-4.545-18.307 12.828-16.543-4.748-6.566 9.598-4.309 9.535-14.69 5.055 1.321-10.551-7.072-1.01 7.576-5.05 6.566-6.567-2.525-6.565-12.627 7.577H43.941l-7.576 2.525-7.576-7.576-.504-10.102-18.69 20.707 3.032 17.174 57.074 9.09 92.428-8.08 63.64-3.031 4.749-9.035-8.79-15.713-3.03 2.525-2.526-6.566 2.623-2.623z" fill="#53536c"/><path d="M226.139 214.34l-4.41 6.176-1.077.896-8.449 12.092-47.98 9.332-30.846-.777-23.502-5.055-3.428-9.72-3.427 2.72-2.938 8.166-21.053 3.498-14.69 5.055-7.833 4.666-11.26-1.166 6.365-3.5-23.502 1.556-16.793-8.424 1.311 7.43 57.074 9.09 92.428-8.08 63.64-3.031 11.02-20.973-.103-5.174z" fill="#373748"/><path d="M97.984 195.766l-17.677 3.537-15.045-.803 37.27 12.924 19.19 2.525 8.589-5.05 6.06-2.526 1.516 4.041 13.636 1.01 14.647-3.535-21.719-3.535-4.039-5.051-7.576-1.012-9.598 4.041-15.152 1.01z" fill="#53536c"/><path d="M80.307 199.303l-2.106 3.683 24.33 8.438 19.192 2.525-29.8-9.092zm82.547 8.047l-25.659 1.22.692 1.844 13.636 1.01 14.647-3.535z" fill="#373748"/><path d="M179.807 160.916l-53.537 4.041 37.88 22.223 24.243 2.021 35.2-17.414-1.359-4.81z" fill="#9393ac"/><path d="M209.139 165.105l1.982 7.934-11.111 7.07-11.617 9.092-12.122-.506-12.12-1.515 7.576 4.547 15.152 3.535 6.564-2.022 8.082-3.535 5.557-2.525 8.08 8.082 11.986-10.897-4.914-17.388zm6.023 30.157l-10.101 8.586 23.738-13.637z" fill="#b7b7c8"/><path d="M179.807 160.916l-34.723 2.621 3.914 2.936 13.637 3.535 7.576 3.535-.506-5.555 14.649 3.535 11.11-2.021 15.657 3.537 5.557 8.586-9.596 5.555 20.066-2.815-4.914-17.388z" fill="#dbdbe3"/></svg>