<svg xmlns="http://www.w3.org/2000/svg" width="1000" height="250" viewBox="0 0 1000 250"><path d="M13.789 216.728l2.828-4.242 10.253.707 5.657 6.364-10.96 1.414z" fill="#6f918a"/><path d="M50.912 207.536l-8.84-8.839 10.607-3.536 14.85.354 12.728 7.778-6.364 6.01-10.253 1.768zM103.591 224.86l-3.889-5.657 5.657-3.535 15.91 1.414 1.414 6.01z" fill="#374845"/><path d="M97.227 178.544l5.657 9.9h14.85l24.394-2.475-2.828-9.9-10.253.708-14.85-4.243z" fill="#6f918a"/><path d="M154.503 210.01l-4.596-7.424 4.95-1.06 12.727.353-3.889 5.657z" fill="#93aca7"/><path d="M197.99 228.042l-18.385-10.96 8.839-13.435 26.516 3.889 8.486 6.01-11.668 15.91z" fill="#536c67"/><path d="M181.373 183.848l-3.182-3.89 7.071-2.474 7.071 3.182z" fill="#6f918a"/><path d="M64.7 180.666l-9.546-2.475 8.84-3.182L74.6 178.19l-.707 2.475zM30.052 187.737l-4.95-4.95 8.84.707 2.474 1.414z" fill="#536c67"/><path d="M175.362 241.83l-6.01-2.828 6.01-2.828 7.425 1.414-3.182 3.535z" fill="#6f918a"/><path d="M97.227 178.544l27.224 5.304 14.849-7.778 2.828 9.9-24.395 2.474h-14.849z" fill="#536c67"/><path d="M42.073 198.697l14.85 3.182L61.517 204l18.739-.707-6.364 6.01-10.253 1.768-12.728-3.535zM99.702 219.203l12.02 2.121 10.961 1.768-19.092 1.768z" fill="#1c2422"/><path d="M184.555 209.657l9.546 8.485 15.91 2.829 13.435-7.425-11.668 15.91-13.788-1.414-18.385-10.96z" fill="#374845"/><path d="M16.617 212.486l15.91 7.07-10.96 1.415-7.778-4.243z" fill="#536c67"/><path d="M25.102 182.787l11.314 2.121-6.364 2.829zM55.154 178.19l8.84-3.181 9.899 5.657H64.7z" fill="#374845"/><path d="M149.907 202.586l13.788 4.95-9.192 2.475zM178.19 179.959l14.143.707-10.96 3.182zM169.352 239.002l13.435-1.414-3.182 3.535-4.243.708z" fill="#536c67"/><path d="M42.073 198.697l10.606-3.536 14.85.354 12.728 7.778z" fill="#6f918a"/><path d="M105.359 215.668l15.91 1.414 1.414 6.01z" fill="#93aca7"/><path d="M154.856 201.525l12.728.354-3.889 5.657z" fill="#b7c8c4"/><path d="M188.444 203.647l26.516 3.889 8.486 6.01-20.153-2.475-7.424-1.767zM114.198 172.534l14.849 4.243 10.253-.707-14.85 7.778z" fill="#93aca7"/><path d="M45.962 231.931l8.132-4.95 12.728.707 11.667 6.01-8.839 2.83-15.203 1.06z" fill="#536c5d"/><path d="M105.005 203.293l5.657-9.9 14.85 3.536 4.596 7.071-7.425 1.415z" fill="#6f917c"/><path d="M137.532 231.931l-4.95-5.657 6.364-2.475h9.546l14.496 3.89.354 4.95-9.546 2.828z" fill="#93ac9d"/><path d="M156.27 186.323l-2.474-6.364 4.95-1.415 8.838 4.597 2.829 8.838z" fill="#536c5d"/><path d="M210.718 190.565l-5.657-7.07 10.96-4.597 22.981 3.89-5.657 6.717-10.253.353z" fill="#b7c8be"/><path d="M16.617 176.423l-7.071-6.01 9.192-2.475 19.8 1.768 2.828 5.656-5.657.354z" fill="#6f917c"/><path d="M9.546 170.413l31.82 4.95-24.749 1.06zM110.662 193.394l12.021 12.02-17.678-2.12zM45.962 231.931l23.688 4.596-15.203 1.06z" fill="#37483e"/><path d="M138.946 223.8l24.396 8.838-9.546 2.829-16.264-3.536-4.95-5.657z" fill="#536c5d"/><path d="M205.061 183.494l28.284 6.01-22.627 1.061z" fill="#6f917c"/><path d="M18.738 167.938l22.628 7.424-2.829-5.656zM158.745 178.544l8.84 4.597 2.828 8.838z" fill="#93ac9d"/><path d="M216.021 178.898l22.981 3.89-5.657 6.717z" fill="#dbe3de"/><path d="M110.662 193.394l14.85 3.535 4.596 7.071z" fill="#93aca7"/><path d="M54.094 226.981l12.728.707 11.667 6.01z" fill="#b7c8be"/><path d="M138.946 223.8l14.85 11.667-16.264-3.536-4.95-5.657zM153.796 179.959l16.617 12.02-14.142-5.656z" fill="#37483e"/></svg>