<svg xmlns="http://www.w3.org/2000/svg" width="1000" height="250" viewBox="0 0 1000 250"><path d="M3.735 246.51c22.202-38.438 52.996-115.7 52.996-128.048 0-12.348 47.623-21.165 59.088-22.048 11.462-.886 61.733 10.58 66.144 14.107 4.407 3.527-2.648 29.103 0 32.633 2.641 3.525 39.685 20.283 44.975 24.69 5.293 4.413 21.117 72.583 21.117 72.583s-143.701 7.67-148.111 9.436c-4.407 1.762-96.21-3.352-96.21-3.352z" fill="#ac9d93"/><path d="M181.048 110.108c-1.176.432-2.065.725-3.454 1.257-6.027 2.326-13.804 5.499-21.597 8.672-7.792 3.173-15.601 6.346-21.683 8.672-3.045 1.16-5.657 2.11-7.622 2.742-1.965.631-3.283.94-3.737.828-1.81-.451-15.866-1.585-30.147-3.344a373.541 373.541 0 01-10.566-1.434 187.37 187.37 0 01-9.526-1.662c-2.877-.593-5.39-1.221-7.355-1.885a18.93 18.93 0 01-2.513-1.024 5.58 5.58 0 01-1.55-1.08c-1.359-1.471-2.325-2.576-2.995-3.546a7.293 7.293 0 01-.992-2.175c-.37.764-.58 1.537-.58 2.33 0 12.347-30.794 89.606-52.996 128.052 0 0 91.802 5.114 96.209 3.352 2.654-1.063 52.58-.316 94.447-2.697 27.711-1.575 53.664-6.739 53.664-6.739s-15.563-67.023-20.976-72.387c-5.003 2.307-6.7 3.174-13.842 6.289-6.888 3.005-13.985 5.979-19.787 8.15-2.899 1.082-5.476 1.965-7.541 2.545-2.065.583-3.615.87-4.465.754-1.701-.226-5.754-.934-10.84-1.92a544.234 544.234 0 01-17.042-3.576c-5.84-1.334-11.394-2.738-15.347-4.004-1.975-.635-3.553-1.234-4.565-1.772a3.817 3.817 0 01-1.07-.767c-.202-.238-.244-.457-.103-.657.36-.462.796-.858 1.289-1.173.567-.386 1.263-.773 2.055-1.16 1.589-.77 3.57-1.546 5.725-2.37 2.152-.822 4.478-1.685 6.742-2.63 2.268-.94 4.478-1.961 6.405-3.092 1.926-1.137 4.79-3.118 8.07-5.508a594.443 594.443 0 0010.576-7.925c3.769-2.877 5.557-4.227 8.514-6.498-2.149-4.43 4.414-28.758.11-32.205-.139-.11-.687-.29-.912-.413z" fill="#6c5d53"/><path d="M60.964 130.554c-2.11.193-7.654 8.398-14.98 18.962-11.385 26.039-28.094 72.482-42.25 96.995 0 0 7.162 3.717 92.054 3.489 1.965-10.119 5.016-24.931 6.765-28.726 2.69-5.824 26.255-41.612 29.889-47.681 3.937-5.38 3.138-28.443 2.754-37.099 0 0-41.924 5.08-46.91 3.721-4.988-1.36-23.814-8.256-26.987-9.616a.677.677 0 00-.335-.045zm72.873 48.557s-18.134 29.467-21.761 34.457c-3.115 4.285-7.687 28.81-8.972 35.958 11.797-1.307 56.302-.347 92.563-2.416-.065-8.868-1.833-25.688-2.436-28.1-.908-3.628-10.428-23.579-10.428-23.579s-18.588 1.814-23.12.455c-4.536-1.36-25.846-16.775-25.846-16.775z" fill="#483e37"/></svg>