<svg xmlns="http://www.w3.org/2000/svg" width="1000" height="250" viewBox="0 0 1000 250"><path d="M106.718 228.823s-1.18 17.866-.793 19.55c.388 1.685 40.69 2.26 42.46 1.241 1.77-1.02.175-34.656.175-34.656z" fill="#1c241c"/><path d="M122.576 10.795c-4.406 19.34-5.201 23.067-10.286 39.528-5.645 8.87-16.302 24.15-32.969 26.351 6.79 2.461 14.837 4.811 21.546 3.588l-18.31 5.076a26.044 26.044 0 005.216 1.372c3.621 1.007 6.231 2.505 9.376 2.986-16.71 12.396-33.556 23.116-45.297 18.815 5.264 2.273 11.206 3.4 17.433 3.853-8.534 5.625-17.486 9.824-26.342 11.461.323.29.65.544.977.829 9.112-1.021 17.39-2.914 22.798-5.62l4.445-3.015c-1.088 1.103-2.615 2.1-4.445 3.015l-16.137 10.931a90.989 90.989 0 0022.123 11.876c-14.866 15.93-31.37 27.026-48.528 36.171 12.752-1.806 26.597-5.273 37.683-7.56-4.734 3.495-16.176 9.115-28.475 14.605.13.068.264.12.4.188l22.272-6.053-13.21 9.126c3.728.741 7.59.977 11.558.866-11.365 15.642-36.696 22.687-51.87 33.45 9.058 6.906 37.23 14.482 55.145 13.075l-29.617 6.343c31.476.587 54.365-1.85 70.84-6.02-2.904 5.22-7.128 10.335-7.744 15.314 16.937-7.373 26.593-14.784 34.495-22.2 16.157 18.632 59.426 18.285 76.811 11.365-15.145-4.074-12.448-5.375-24.391-7.975 36.907 3.438 68.267.057 69.341-6.251-18.049-10.941-33.29-23.024-46.356-36.84 6.708-1.3 13.942-3.612 21.897-7.364l-16.99-12.265c8.226 4.459 17.067 6.982 26.424 7.324a156.707 156.707 0 004.402-2.615c-20.323-7.734-37.418-17.023-52.973-29.852a153.718 153.718 0 008.162-4.224l-13.185-9.39 24.801 2.475c.496-.313 1.026-.67 1.527-.992l-24.792-5.794 28.755 3.217a345.16 345.16 0 007.113-4.835c-19.942-4.575-33.956-10.16-44.339-16.392 6.43-3.473 12.853-7.012 19.408-9.666-19.788-.674-31.515-4.247-40.568-8.86l-.048-.068c4.647-1.353 9.487-3.491 14.336-6.39l-7.667-4.055c4.624 1.232 10.07-.222 15.618-2.89-29.728-13.754-41.05-41.849-50.363-66.014z" fill="#426a67"/><path d="M114.895 41.322c-5.49 15.025-18.367 28.909-37.072 35.482 15.762 3.723 28.028 1.16 34.876-4.44-1.686 0-3.506-.082-5.538-.289 5.177-1.782 8.427-3.66 10.85-6.246l.202-.433a23.915 23.915 0 01-7.503 2.095c4.99-2.408 7.931-14.414 4.19-26.169zm33.094 39.576c.924 3.38 1.868 7.271 4.483 8.649 3.795-1.252 7.7-3.034 11.616-5.288-5.991.072-7.826-.689-16.1-3.361zm-35.199 2.066c-9.072 1.887-21.382 2.672-30.146 2.6a26.573 26.573 0 005.047 1.315c3.616 1.002 6.226 2.504 9.376 2.986a309.99 309.99 0 01-7.83 5.63c3.424-.28 7.03-.896 9.063-1.224.096 5.134.231 5.75-2.071 9.237 11.274-5.466 11.163-11.727 16.566-20.544zm24.267 24.141c4.03 6.79 2.76 8.972 20.303 24.07a53.84 53.84 0 01-.65-5.346c2.6 3.37 6.323 7.03 11.774 10.898-2.937-6.126-3.621-6.473-2.364-14.8 3.9 3.844 12.713 5.37 20.847 5.809l2.88.317c8.765-.028 13.393 1.802 26.352-2.923-23.116-5.494-33.166-9.737-43.197-15.723-8.544.217-15.555.212-22.572-1.686.27 2.428.25 5.972 1.869 10.33-3.872-1.58-9.333-5.451-15.242-10.946zm-84.863 1.575c5.162 2.152 10.95 3.246 17.014 3.689-8.534 5.62-17.481 9.824-26.342 11.451.327.29.655.55.977.834 9.117-1.021 17.395-2.914 22.798-5.62l2.461-1.671-.751-.073c1.916-1.218 6.125-3.525 10.334-5.788-8.018-.472-15.434-.983-22.239-2.057a16.393 16.393 0 01-3.997-.717zm14.447 10.354l-16.133 10.931a90.902 90.902 0 0020.949 11.418 73.777 73.777 0 007.86-3.924c-.93 5.769-2.669 11.923-5.472 15.497 13.244-5.139 29.57-15.95 37.544-35.126-5.6 3-12.362 6.53-16.566 6.862a60.63 60.63 0 005.663-7.734c-11.63 1.96-22.335 1.348-31.071.438a21.623 21.623 0 01-2.774 1.638zm7.946 24.974c-10.383 5.51-21.598 11.529-32.208 10.927 3.901 3.299 5.818 5.605 7.417 7.146-8.307 6.025-17.332 10.301-25.62 15.93 11.933-.736 26.597-5.272 37.683-7.56-4.734 3.496-16.176 9.116-28.475 14.606.13.068.264.12.4.188l22.272-6.053-13.21 9.126c3.728.741 7.59.977 11.558.866-11.365 15.642-36.696 22.687-51.87 33.45 9.058 6.906 37.23 14.482 55.145 13.075l-29.617 6.343c29 .544 50.696-1.488 66.814-5.066l.058-.015a151.76 151.76 0 003.963-.934c-2.9 5.215-7.118 10.33-7.739 15.31 1.228-.54 2.408-1.075 3.569-1.61l.577-.274a148.219 148.219 0 005.986-2.976l.578-.299c.935-.5 1.85-1.006 2.736-1.507l.11-.058a105.542 105.542 0 0020.94-15.473c16.108 18.57 59.156 18.281 76.642 11.423-38.926-5.76-71.403-26.597-67.864-58.357-8.543 4.474-5.586 3.964-19.648 7.132 1.81-3.583 5.504-9.944 6.02-16.566-6.67 5.885-14.838 13.903-24.705 15.372l13.065-32.434c-27.084 5.866-42.812 7.773-51.73 7.286 7.098-5.586 10.859-6.78 17.153-18.998zm72.12 1.425c6.709 6.69 39.095 16.986 56.812 16.986-.8-2.042-2.042-3.916-3.169-5.77a162.81 162.81 0 01-15.56-11.187c-2.634.328-5.735.593-12.963.39l5.76 3.54c-14.915.424-16.201-1.425-30.88-3.959z" fill="#265151"/></svg>