<svg xmlns="http://www.w3.org/2000/svg" width="1000" height="250" viewBox="0 0 1000 250"><path d="M116.154 2.591l-7.655 19.062-7.267 3.32 6.963 8.703.365.15-2.256 7.155-20.49 4.88-6.467-6.467.997 11.44 3.007 9.851 6.504 3.421.358 1.858 14.346 5.872-.962 1.632 11.598 2.722-13.963 2.5-22.381-4.974-10.94-8.46v10.449l-7.595 12.418 19.031 17.922 16.26 4.79-2.582 5.421L67.41 114.5l-19.892 16.911-8.459-3.481-.496 5.966-14.918.997c10.26 9.542 17.377 20.967 24.715 32.708l28.837-.703 13.369 9.148 15.772-9.016-4.52 8.136 7.385-2.463 9.323 11.783 2.106-6.861 9.636-1.301.037.774 30.247 8.091 18.99-14.775 13.012 5.632-2.813-4.926 9.144-14.068-21.806-6.331 3.519-7.738-22.509 11.96-5.895-4.99 4.662-1.165-2.286-3.868 4.357-1.572.997-13.43-23.378 5.967-6.624-.913 2.643-6.298-4.79.61-8.264-8.817-.703.195 4.7-4.496 7.068 10.768.624-6.091 5.546.944.793 3.158 6.466-1.918 2.49.425 1.052-1.477 19.34-5.734-4.726-1.74 7.707-7.587 6.09-20.64-16.286 9.823 2.737-5.718-16.663 4.722-6.542-1.09 4.305-5.377-5.44-4.019.59-.274.384-4.9 16.053-.992 11.084-14.068-13.016 2.109-6.173-8.196 3.977-9.448-10.444-3.978 3.481-5.97-13.429 1.993-4.974 5.47-5.869-1.7-.511-7.519 6.632-8.684 4.474-1.497-5.967-3.977zM97.856 111.496l1.383.41 5.238 10.824-1.606-1.2z" fill="#293629"/><path d="M113.714 28.33c-2.162 35.769-.425 75-.413 113.289-7.219-2.907-14.234-3.925-25.904-6.37 8.515 3.948 18.057 5.584 25.591 11.742-.052 18.873-.5 37.22-1.962 54.263-2.177-.267-5.752-1.301-9.967-2.218l-.177 1.041c2.189.726 5.008 2.117 9.618 5.655-.587 5.628-.779 10.361-.399 13.873 1.12 10.361-.398 20.99 1.35 30.295l12.324-.064-.17-31.295a2494.758 2494.758 0 00-.808-37.382c7.595-3.008 17.832-7.26 26.679-13.441-7.193 3.338-17.235 8.827-26.867 6.575-1.458-48.21-4.015-97.697-6.019-145.96z" fill="#1c241c"/><path d="M116.154 2.591l2.545 16.073-5.977 5.098.876 7.748c-1.47-2.24-2.914-4.425-2.914-4.425l-9.948 1.369-3.73-6.215-1.992 8.456 5.101 4.225-5.97.376 2.643 3.38-4.643-.32-4.395-4.398 2.463 13.895 17.734 12.31-.053 2.203-8.899 2.022-8.256-6.511.88 4.662-12.621 1.033-7.606-6.519 3.481 27.355 7.956 10.94-3.73 2.986 15.836 4.677-13.099 8.256-10.087-7.143 4.361 8.113-10.188-2.71-10.448 1.74-5.47-6.963-.764 8.403-16.708-6.65 7.741 12.662-8.09-4.222 18.287 24.621 15.098 4.076-5.12 4.132 35.686 9.042-4.162 7.015 24.926-9.343 2.613-16.786-11.18-6.565 9.981-7.778 7.508 21.042 9.643 5.316-10.11 7.257-5.47 12.436 27.107 6.215h20.64l-8.95-4.226 17.493-6.075 10.482 1.35 13.636-30.98-34.991 7.56-5.628 5.633 2.109-8.97 10.376-1.76-4.925-5.098 16.001-2.11 10.554-23.565-17.235 3.692-2.462-3.692-.944 5.128-13.222 4.673L140 118.121l4.9-7.493-16.705 5.628-4.166-.865 6.189-5.639 2.725-1.936 5.952-3.843 13.317-1.41-5.516-3.627 8.58-5.538 13.008-18.64-20.396-3.166.226-3.978 9.323-7.824 14.795-.996s-11.069-10.196-11.565-10.196c-.496 0-7.087-1.993-7.087-1.993l10.32-8.327-12.564.36 2.12-3.345-13.072 2.161 1.507-4.647 6.091-7.21-6.692-.873 2.73-10.459-9.67 2.29-1.234-4.749-5.451 6.328-4.399-1.58zm-1.887 34.814l.564 4.997 4.872 3.662 1.64 4.44-5.723-.541-5.395-10.11zm1.887 20.02l8.704 4.974 11.831-4.06 9.286 9.85-3.714 4.813-2.643 1.188.71-6.467-9.523 10.44-6.481 2.926-8.268-3.298-1.395-11.038-3.985-4.094zm-.267 41.6l4.764 2.456-10.655 7.745 7.03.263 2.482 4.963-3.354-.7-.32 4.955-5.504-2.09-8.376-11.534 3.26.962z" fill="#50624a"/><path d="M141.892 32.807l-6.342 1.865 2.117 3.73-8.332-3.61-7.214-1.24 11.44 9.08 6.82-5.178zm-54.138 1.155l2.459 13.891 17.734 12.31-.053 2.203 2.782.293 5.478-5.233 8.704 4.973 11.831-4.06 9.286 9.85 2.384-3.677-.248 3.102 9.324-7.824 8.824-.594-16.434-2.73-2.835 1.832 1.955-2.707-17.933-3.429 2.632-2.2-13.94-3.898 1.638 4.44-5.722-.541-1.564-2.933-3.835-7.177-10.106-4.933-5.97.376 2.643 3.38-4.643-.32zM71.486 57.798l3.384 26.61 7.959 10.94-3.73 2.986 15.836 4.677-6.625 4.173-6.474 4.083 11.78 1.023 10.864 10.44-26.93 14.625 2.463-6.327-21.453.35-26.009-25.292 7.722 12.633-8.09-4.222 18.287 24.621 15.098 4.076-5.12 4.132 35.686 9.042-4.162 7.015 24.926-9.343 2.613-16.786-11.18-6.565 9.981-7.778 7.508 21.042 9.644 5.316-10.11 7.257-5.47 12.436 27.107 6.215h20.64l-8.952-4.226 17.494-6.075 10.482 1.35 3.398-7.72-20.678 3.742-11.286-7.305 4.038-8.963-2.455 2.455 2.109-8.967 10.376-1.76-4.925-5.097 16.001-2.11-11.252-4.571 2.109-4.925-32.179 13.188-18.463-13.891 6.778-4.73-2.03.684-4.166-.865 6.189-5.639 2.726-1.936 1.29-.835-7.14.057-1.617-11.19-4.474.25 1.368-2.986-10.94-8.455-16.415-.745 6.215-5.226-19.896 4.726zm96.803 16.956c-3.929 2.443-7.072 7.053-11.847 7.17l-.128 3.853-5.966-1.74-13.181 5.097 8.58 5.967-3.855.872 4.805 2.963 8.576-5.538z" fill="#374837"/></svg>