<svg xmlns="http://www.w3.org/2000/svg" width="1000" height="250" viewBox="0 0 1000 250"><path d="M113.714 28.33c-2.162 35.769-.425 75-.413 113.289-7.219-2.907-14.234-3.925-25.904-6.37 8.515 3.948 18.057 5.584 25.591 11.742-.052 18.873-.5 37.22-1.962 54.263-2.177-.267-5.752-1.301-9.967-2.218l-.177 1.041c2.189.726 5.008 2.117 9.618 5.655-.587 5.628-.779 10.361-.399 13.873 1.12 10.361-.398 20.99 1.35 30.295l12.324-.064-.17-31.295a2494.758 2494.758 0 00-.808-37.382c7.595-3.008 17.832-7.26 26.679-13.441-7.193 3.338-17.235 8.827-26.867 6.575-1.458-48.21-4.015-97.697-6.019-145.96z" fill="#1c241c"/></svg>