<svg xmlns="http://www.w3.org/2000/svg" width="1000" height="250" viewBox="0 0 1000 250"><path d="M127.503-.6c-1.641 24.058-4.8 53.056-8.06 81.831-1.059 1.333-1.265.88-1.265.88-3.047 2.258-8.349-12.21-13.48-28.84 1.02-5.497.636-12.109-.96-18.841l-.596.867c.394 4.322 1.04 10.837-.132 12.407-3.423-11.448-6.646-23.15-8.917-30.609-1.9 1.252-11.593-6.943-18.104-12.808h-1.041c4.928 5.276 10.807 11.091 17.586 14.178L96.328 32c-.027 1.068-.059 1.597-.433 2.107-4.573 6.232-17.631.796-26.122-3.83-2.116-1.154-2.68-1.662-5.073-3.11l-.567.655c2.937 2.318 15.443 12.094 31.817 11.464 1.159-.045 2.062.662 2.885 1.66l13.851 49.406 4.73 8.742c-3.177 27.886-6.178 54.602-7.658 75.135-2.39-.528-6.722-2.98-11.683-4.547l.586 1.607c2.307.906 4.854 1.925 10.64 9.913-.508 8.756-.67 16.128-.343 21.587.967 16.135.11 31.644 1.625 46.13l16.27.73-5.928-48.408c-1.543-11.804-1.65-27.537-.957-45.577 1.258-2.027 2.594-3.882 4.205-5.507 12.255-12.365 38.445-27.518 46.648-26.753l-2.53-1.266c-7.847.386-14.44 5.573-46.435 21.244-.64.312-.951-.03-1.258-.826.069-1.273.124-2.506.2-3.796l15.361-14.847.72-1.552-15.86 12.77c.405-6.618.87-13.428 1.38-20.382 13.86-25.138 18.362-29.846 29.515-38.649 3.595-.924 7.968-1.395 9.741-2.266 5.383-2.646 10.23-6.617 14.274-10.726 2.034.275 3.899.632 5.456.753l.063-.435c-1.97-.227-3.604-.45-5.202-.647a83.973 83.973 0 007.357-8.706l-.56-.246-.095.115c-2.343 2.786-5.022 5.859-7.85 8.695-5.291-.597-9.094-.47-14.733 2.84 4.255-8.393 8.536-19.886 7.67-32.615l-.71.114c.881 11.124-6.124 29.622-12.437 37.85-12.672 8.927-24.629 22.39-31.498 30.81 1.68-21.643 3.573-44.14 5.024-65.829l5.027-5.445.428-1.743-5.124 2.197c.64-10.043 1.18-19.888 1.525-29.316zm44.03 63.362c1.108.003 2.192.082 3.24.199-5.986 5.94-12.618 10.718-18.222 9.396.697-1.17 1.449-2.467 2.226-3.881 3.933-4.594 8.498-5.726 12.757-5.715z" fill="#1c241c"/></svg>