<svg xmlns="http://www.w3.org/2000/svg" width="1000" height="250" viewBox="0 0 1000 250"><path d="M122.376 4.195l-.337.26c-.101 3.85-.179 8.002-.265 12.036h-.01l.01.046a3833.569 3833.569 0 00-.56 32.382c-2.143 2.573-7.28-8.134-11.785-22.792-1.944-6.327-3.636-14.924-4.729-20.925l-.42.417c1.007 8.17 2.291 15.162 3.716 21.114-.806 1.872-6.154-1.826-11.961-7.672-.807-.811-1.66-1.782-2.512-2.79l-.586.58c7.157 9.467 13.075 12.682 16.03 13.708 4.33 16.098 9.555 23.609 12.15 26.48a16191.422 16191.422 0 00-.38 37.21c-2.028-1.12-3.893-4.05-4.797-10.277l-1.203-.291c1.134 8.76 3.587 13.383 5.938 17.134-.006.487-.011.973-.015 1.46-7.044-8.772-13.969-16.388-20.714-22.165l-3.245-.783c.429.348.85.68 1.292 1.058 9.418 8.03 18.172 17.595 22.55 33.847-.05 5.09-.11 10.085-.167 15.102-8.671-16.061-24.401-27.837-31.46-32.196-2.693-6.738-5.238-13.645-8.103-20.104.497-1.561 3.705-12.36-.85-18.569-1.752-2.388-3.041-4.157-4.707-5.977-1.325-2.068-3.267-4.661-3.334-8.285l-.518-.194c-.048 2.903.185 3.415.93 5.618-1.58-1.41-3.518-2.983-6.2-4.984.064.547-1.141-.1-1.141-.1 3.93 3.197 20.913 16.09 13.308 27.146-2.315-4.615-4.884-8.88-7.913-12.523-8.06.266-12.168-4.502-12.462-5.666 0 0 .08.713.177 2.56 3.728 3.087 7.629 4.708 11.673 5.717 8.004 8.06 13.375 24.497 16.051 37.023 3.44 3.158 10.217 6.997 17.078 14.092-13.428-6.074-24.868-11.909-30.183-19.65a413.64 413.64 0 01-6.864-10.312c-.12-3.209.123-5.572.4-7.974l-.309-.961c-.703 2.155-1.353 4.151-1.214 7.164-5.22-8.23-7.598-12.79-7.183-12.458l-2.458-2.164c7.866 12.729 16.91 29.968 14.857 29.99 11.418 7.432 23.03 15.385 39.342 24.102 4.345 6.196 8.284 14.153 10.881 24.63-.179 12.99-.391 25.56-.68 37.178-3.79-8.038-8.669-14.488-13.428-19.286a323.41 323.41 0 01-8.24-6.388c2.778-9.35.257-16.862-6.903-30.884-.01-2.495.19-4.513.424-6.537l-.31-.96c-.554 1.698-1.075 3.296-1.206 5.369a1046.553 1046.553 0 00-4.113-7.82l-.727.243c4.703 12.972 15.893 30.659 8.648 37.153-15.507-12.988-26.417-25.462-35.085-41.118-1.201.515-1.201.858-1.201.858 5.481 10.913 12.424 20.148 19.263 27.684-4.02-.76-8.204-1.767-11.918-3.887-6.076-3.466-10.734-11.754-14.27-20.625.045-1.893.902-5.531.867-8.767l-.472.128c-.105 1.429.022 3.533-1.317 6.254a149.452 149.452 0 01-2.465-7.177c-.687 0-.419.07-.563-.05 4.058 16.236 12.303 30.843 18.937 32.854 7.2 2.183 13.8 5.502 16.803 7.112 7.162 7.08 13.709 12.18 17.674 15.185a49.132 49.132 0 011.934 1.964c-6.021-.227-11.3.135-15.584.912-3.299-4.307-14.033-8.426-23.324-12.58l1.16 1.012c7.172 4.072 18.09 7.393 19.009 12.259-2.98.78-5.29 1.794-6.78 2.953-4.211.721-17.852-1.638-27.186-2.745l1.758.9c7.46 1.05 14.013 3.666 25.343 3.902 3.567-1.066 7.828-5.741 28.872-2.703 7.672 10.21 10.377 22.457 13.676 37.837-.832 20.972-2.057 37.09-3.956 44.837l16.98-.041c-1.638-7.571-2.853-23.37-3.825-43.918 3.03-6.491 7.803-12.502 14.16-20.096 7.894-4.357 14.68-8.522 20.923-12.526l.007.052.129-.139c5.021-3.223 9.71-6.344 14.373-9.38-2.054-.021 6.993-17.26 14.859-29.987l-2.458 2.163c.587-.47-4.305 8.715-15.17 24.54-1.862 2.711-4.488 5.187-7.675 7.523-8.038-15.19 13.622-27.43 18.594-30.478 0 0-1.443.518-1.285-.12-3.291 1.822-5.69 3.288-7.668 4.637 1.178-2.466 1.518-3.026 1.926-6.493l-.607.123c-.65 4.298-3.214 6.979-5.013 9.163-2.137 1.818-3.846 3.658-6.168 6.133-4.95 5.278-4.592 15.384-4.134 19.95-4.25 2.604-9.193 5.07-14.517 7.541a517.56 517.56 0 007.905-9.648c2.424-17.65 5.516-33.878 8.943-48.133 2.98-6.83 6.436-9.581 9.803-13.087l-.33-1.343c-2.676 2.008-5.314 4.006-7.306 5.85 1.734-6.542 3.53-12.6 5.356-18.07l-2.057 2.06c-1.43 2.565-3.281 7.706-6.347 19.742-.026.059-.06.12-.08.177l.012.093c-1.31 5.16-2.84 11.558-4.675 19.682-.965-2.414-2.73-4.057-4.619-5.81l-.242 1c1.56 2.55 3.028 5.06 3.976 8.793a2214.508 2214.508 0 00-5.606 25.874c-10.77 16.151-18.098 19.16-25.696 23.89-.43-11.416-.8-23.993-1.148-37.015 4.563-8.985 12.076-29.653 17.5-49.57 2.35-1.31 6.804-3.515 13.195-5.452 6.634-2.01 15.121-17.103 19.179-33.338-.144.12.123.05-.563.05a150.066 150.066 0 01-2.465 7.177c-1.34-2.72-1.213-4.825-1.317-6.254l-.473-.128c-.034 3.236.823 6.874.869 8.767-3.537 8.87-8.195 17.158-14.271 20.625-4.04 2.305-8.634 3.294-12.967 4.079 1.698-6.599 3.13-13.015 4.083-18.77 22.975-15.795 24.368-22.85 28.736-30.473-.364-.484.122-2.54.122-2.54-6.088 9.85-7.159 13.626-19.75 22.817-.585-8.197 2.416-17.16 5.008-25.483l-.77.565c-3.246 9.195-5.8 18.2-6.888 26.808a315.176 315.176 0 01-9.16 6.167c-5.168 28.085-13.086 47.457-20.466 59.975-.567-23.198-1.082-47.43-1.627-71.074 3.306-4.876 6.61-7.012 9.915-9.74l-.17-1.373c-3.826 2.232-7.63 4.46-9.85 6.503-.122-5.247-.237-10.68-.365-15.806 6.973-5.57 11.726-9.12 17.88-36.434l-.544.606c-1.473 4.696-2.629 9.067-3.745 12.383a62.98 62.98 0 01-.853 2.364c-.968.917-2.129-2.153-2.822-6.525l-.493.546c.42 4.215 1.399 6.846 1.818 8.33.08.284.027.803-.075 1.392-3.474 7.555-8.028 13.211-11.307 11.864-.194-7.464-.403-14.642-.621-21.646.796-1.377 1.492-3.088 2.211-5.307-1.019 1.376-1.424 2.045-2.31 2.27-.132-4.118-.261-8.272-.402-12.209z" fill="#1c241c" fill-opacity=".992"/><path d="M122.376 4.195l-.337.26c-.101 3.85-.179 8.002-.265 12.036h-.01l.01.046c-.112 5.247-.216 10.595-.312 16.055a52.425 52.425 0 001.831 1.379c-.137-4.893-.27-9.828-.416-14.53.796-1.377 1.492-3.089 2.211-5.308-1.019 1.377-1.424 2.046-2.31 2.27-.132-4.117-.261-8.271-.402-12.208zM104.7 5.202l-.42.417a215.604 215.604 0 001.68 11.256c.5.596 1.003 1.175 1.505 1.76-1.101-4.698-2.065-9.587-2.765-13.433zm36.82 4.925l-.545.605c-1.473 4.696-2.629 9.067-3.745 12.384a62.958 62.958 0 01-.853 2.364c-.968.917-2.129-2.154-2.822-6.525l-.493.546c.42 4.215 1.399 6.845 1.818 8.33.08.284.027.803-.075 1.391-1.549 3.37-3.313 6.357-5.082 8.517a25.929 25.929 0 001.923.759c3.284-4.898 6.349-12.733 9.873-28.371zm21.5 34.41l-.77.564c-3.246 9.194-5.8 18.2-6.888 26.807a315.176 315.176 0 01-9.16 6.168 276.042 276.042 0 01-1.11 5.675 87.814 87.814 0 012.522 3.25c.484-2.332.931-4.618 1.291-6.786 22.974-15.795 24.367-22.85 28.735-30.473-.364-.485.122-2.54.122-2.54-6.088 9.85-7.159 13.626-19.75 22.816-.585-8.196 2.416-17.16 5.008-25.482zm-39.195 10.062a136.392 136.392 0 01-3.122 1.946c.134.158.29.358.414.495-.033 2.856-.059 5.826-.09 8.71a46.506 46.506 0 013.086 1.224c3.304-4.875 6.607-7.01 9.911-9.737l-.17-1.373c-3.826 2.231-7.63 4.46-9.85 6.502l-.18-7.767zm52.183 10.07c-.144.12.123.05-.563.05a150.067 150.067 0 01-2.465 7.177c-1.34-2.721-1.213-4.826-1.317-6.255l-.473-.127c-.034 3.235.823 6.874.869 8.767-3.537 8.87-8.195 17.158-14.271 20.625-1.227.7-2.51 1.267-3.816 1.756.372.63.74 1.265 1.105 1.906.573-.188 1.145-.377 1.752-.562 6.634-2.01 15.121-17.102 19.179-33.338zm-3.392 29.873l-2.058 2.06c-1.428 2.565-3.28 7.707-6.346 19.743-.026.058-.06.119-.08.177l.012.093v.002a380.46 380.46 0 011.506 3.358c2.85-5.953 6.086-8.58 9.245-11.87l-.33-1.343c-2.675 2.008-5.314 4.006-7.305 5.852 1.734-6.543 3.53-12.6 5.356-18.072zm19.803 39.75l-2.457 2.162c.485-.389-2.837 5.899-10.116 16.999.272.62.537 1.244.811 1.86 3.002-6.077 7.526-14.166 11.762-21.022zm-13.736 1.772l-.606.122c-.409 2.706-1.577 4.768-2.835 6.472.271.646.538 1.297.81 1.941 3.939-3.173 7.874-5.466 9.659-6.56 0 0-1.443.518-1.286-.12-3.29 1.822-5.688 3.289-7.667 4.638 1.178-2.466 1.518-3.027 1.925-6.493zm-50.668 71.217c-5.41 8.476-3.563 18.524 1.936 29.366-.744-7.843-1.38-17.81-1.936-29.366z" fill="#434235" fill-opacity=".984"/></svg>