<svg xmlns="http://www.w3.org/2000/svg" width="1000" height="250" viewBox="0 0 1000 250"><path d="M155.26 185.452l-53.401 3.67c-12.625 1.632-1.105 7.371-23.93-.754 1.197 5.538 3.406 10.745 6.23 15.317-2.11-.97-4.32-2.38-6.67-4.414 7.869 13.401 22.608 22.052 30.886 22.686-.056 2.787-1.6 4.012-3.316 5.652 11.98-.439 16.74-7.583 19.183-18.094.307 7.186 1.302 18.87 20.891 14.487-2.118-.98-5.031-2.3-6.979-4.613 20.462 6.304 21.962-7.07 39.16-18-16.507 4.376-18.106-11.978-22.054-15.939z" fill="#293629"/><path d="M117.586 194.959a255.362 255.362 0 00-.901 6.217c-2.177-.266-5.753-1.3-9.97-2.219L106.54 200c2.188.725 5.006 2.12 9.618 5.658-.588 5.626-.777 10.361-.398 13.869 1.118 10.366-.401 20.993 1.348 30.3l12.325-.062-.17-31.3c-.75-4.744-.34-9.591.25-15.364-4.242-1.756-8.398-4.349-11.927-8.141z" fill="#1c241c"/><path d="M127.534 4.389l-1.931 28.05c-4.192 1.093-9.895-4.87-15.545-10.575 1.441 6.468 1.814 15.371 4.848 19.333L109 39.34c1.114 5.778 3.79 7.65 6.884 8.473-6.528 3.218-13.241 4.02-20.123 2.648 4.59 3.546 7.414 8.474 13.77 7.944-2.119 1.53-4.238.608-6.357.53 5.63 3.852 8.518 3.133 12.181 3.706-7.164 3.19-14.742-.669-22.241-3.177 2.149 4.966 2.902 7.644 7.38 11.677 0 0-3.923.54-6.882-2.647 3.091 9.78 7.166 16.19 12.741 20.097-4.488 9.977-14.676 2.772-24.89.53l11.121 14.827-7.415 2.118c10.467 4.653 12.504 5.948 19.065 14.299-7.608.572-16.356-.68-27.538-5.825 2.611 7.047 5.193 10.866 9.533 14.827-1.172 1.46-3.07 4.373-5.296 7.944 3.32-.283 6.284-1.623 10.59 1.06-.29 1.536-1.393 4.079-1.058 7.414 2.896-2.419 3.898-3.891 9.666-2.517-9.641 3.876-10.227 5.968-23.965 4.634 9.98 13.441 13.292 14.859 17.874 14.828-5.675 2.689-6.578 2.376-13.638 2.914 4.168 3.624 6.125 4.13 9.575 8.266-4.892 5.397-8.052 8.52-18.93 6.773 3.204 5.221 10.495 14.56 18.223 21.912-7.995.175-11.78-3.324-11.78-3.324 15.541 14.269 24.69 15.353 31.152 14.248-1.602 2.137-2.88 3.085-6.791 4.816 7.754 2.346 8.787 2.123 16.681-2.648 12.83 4.887 16.49 3.686 21.694.329-2.786-.307-3.487-.402-5.144-1.784 12.797-.598 28.827-5.973 42.234-12.843-7.26.917-21.389-12.303-27.65-17.876 4.72-9.114 15.03-12.685 16.139-22.172.54-4.61 5.194-9.906 10.946-13.064-7.424.33-21.53 2.403-26.279 5.697 12.62-16.665 5.885-16.04 15.722-28.312-1.528-.407.255-1.808 3.707-3.709-5.145-2.442-9.663-.824-14.828 1.06 1.067-1.317 2.449-7.7 14.828-16.947-16.3 1.909-18.277 2.66-26.578-6.818 6.295-3.782 12.408-4.771 17.079-14.27-2.03 1.285-3.474 1.992-4.615 2.397 2.667-4.455 4.781-10.463 5.674-18.88-5.838 11.265-14.15-3.414-20.687-.558-1.059-5.296-5.62-25.094-8.474-25.419z" fill="#374837"/><path d="M127.534 4.389l-3.487 27.9c-3.343-.37-5.765-2.741-10.098-6.531 2.023 7.707 6.05 14.473 8.85 16.51l-.03.25c-.453 7.95-1.737 12.317 8.276 16.67-9.224 1.608-11.237 3.741-16.154 8.209 3.27 4.418 7.804 6.836 13.173 5.968.101.962-6.156 4.744-10.195 5.134 1.8 2.17 4.73 3.395 9.931 2.81-7.899 9.11-13.264 14.71-29.213 15.296 6.61 12.265 16.796 13.741 28.746 14.8-5.351 3.171-8.316 4.85-14.453 5.306 2.877.616 4.014.574 6.138 1.049-5.755 6.333-7.035 7.451-13.943 11.08 14.442 9.002 18.009 8.361 27.703 6.786-3.063 3.82-4.996 5.44-8.019 5.741 7.233 11.558 11.601 19.618 25.19 22.96-8.38 8.612-20.184 8.49-29.34 8.814 7.154 5.84 9.997 4.994 17.596 5.197-4.277 2.712-5.273 3.54-10.42 3.69.58 1.056 1.16 1.952 2.43 2.958-8.177 2.037-14.77 2.18-21.613-1.96 13.286 24.641 36.022 28.75 47.834 23.565-3.59-1.185-4.51-2.16-9.332-6.277 10.92 4.385 15.133 4.872 30.211 1.076-4.637-1.39-8.78-3.43-13.036-5.829 1.91-1.422 3.796-2.963 5.621-4.764-5.21.5-8.041-.3-10.691-1.385 3.656-1.978 7.875-5.671 11.83-10.957-2.727-.235-4.542-.725-5.813-1.354 6.509-4.54 14.168-9.054 19.565-15.44-6.436 1.244-10.078 1.322-21.908-3.013 5.105-6.858 9.197-9.2 16.021-10.747-6.456-1.247-6.074-2.629-20.48 1.042.529-2.3.704-3.459 6.182-3.16.335-3.334-.77-5.876-1.061-7.412 4.307-2.684 7.275-1.343 10.593-1.061-2.226-3.57-4.125-6.483-5.296-7.943 4.338-3.962 6.921-7.78 9.532-14.827-11.183 5.146-19.93 6.396-27.538 5.823 6.561-8.35 8.598-9.646 19.065-14.298l-7.415-2.118 11.12-14.827c-10.214 2.242-20.4 9.447-24.888-.53 5.576-3.906 9.65-10.317 12.742-20.096-2.96 3.187-6.886 2.648-6.886 2.648 4.48-4.033 5.235-6.712 7.383-11.677-7.499 2.508-15.078 6.365-22.243 3.176 5.273-.77 17.134-2.974 5.825-4.235 6.356.53 9.18-4.399 13.77-7.945-6.88 1.371-13.595.57-20.123-2.648 3.094-.825 5.77-2.696 6.884-8.474l-5.907 1.858c3.035-3.962 3.407-12.866 4.848-19.333-4.339 7.296-9.574 12.51-13.766 11.419z" fill="#50624a"/></svg>