<svg xmlns="http://www.w3.org/2000/svg" width="1000" height="250" viewBox="0 0 1000 250"><path d="M29.572 247.172s7.612-3.709 11.712-6.246c4.098-2.538 9.367-7.418 12.49-10.345 3.123-2.928 7.613-7.028 11.127-9.955 3.514-2.927.976-4.683.976-4.683s5.465-2.733 13.858-4.1c8.392-1.366 90.368-2.537 95.443-3.708 5.075-1.171 20.494-5.66 30.448-6.832 9.955-1.17 20.325 4.552 20.325 4.552 3.658 10.37 3.878 40.34 3.878 40.34z" fill="#ad7a2b"/><path d="M83.052 226.287s1.756-.585 2.927-1.757c1.171-1.17.78-2.928-2.536-4.099-3.319-1.17-7.808-1.755-6.637-2.928 1.171-1.17 64.41-.585 69.485-.585 5.074 0 25.958-5.465 27.91-3.122 1.952 2.342-.195 13.27 1.562 16.785 1.755 3.513 5.075 9.173 6.831 11.125 1.756 1.952 3.122 4.88 3.122 4.88l-105.396.586s4.684-8.589 4.88-12.297c.195-3.708-4.49.585-5.856 2.537-1.367 1.952-7.223 7.417-10.54 8.393-3.318.976-5.856 1.562-5.856 1.562l-8.979-.39s17.372-10.346 22.447-14.249c5.075-3.903 6.636-6.44 6.636-6.44z" fill="#956925"/><path d="M175.372 229.605l5.66 8.783 2.734 4.88 2.34-3.514 1.758.781s-2.148-2.147-2.148-3.904v-1.755l7.223 6.635-3.904 7.612s-19.665.463-20.641.658c-.976.197-11.174-1.438-11.174-1.438s-8.002.585-6.635-.78c1.365-1.367 11.319-3.514 15.81-6.052 4.488-2.537 8.977-11.906 8.977-11.906z" fill="#bb842e"/><path d="M145.315 220.236c.976 0 5.66 0 9.173-1.366 3.513-1.367 9.563-3.317 10.15-2.537.585.78-3.514 7.026-4.295 8.197-.78 1.172-1.366 8.393-2.927 8.198-1.562-.196.78-7.417-.586-6.636-1.366.78-4.49 6.246-4.49 5.075 0-1.171-5.855-7.808-7.61-8.003-1.758-.195-5.66 4.1-6.052 2.928-.39-1.171 6.637-5.856 6.637-5.856z" fill="#7f5920"/><path d="M47.334 237.413s-4.1 3.317-9.37 3.317c-5.268 0-11.124.196-12.49 1.562-1.367 1.366-3.708 2.342-3.708 2.342l18.541-.585 5.856-2.149z" fill="#bb842e"/><path d="M66.657 217.308s3.904-.195 5.856-.975 9.563-2.148 13.661-2.732c4.1-.586 20.3-.781 22.642-1.367 2.342-.585 5.465-1.952 1.952-1.952-3.514 0-27.52.39-30.253.976-2.733.586-14.053 3.708-14.834 4.1-.78.39 2.538.585.78 3.121-1.756 2.538-19.713 17.957-23.616 19.909-3.904 1.952-11.32 5.66-14.444 6.832-3.123 1.17-13.467 2.342-13.467 2.342s21.079.976 25.179-1.366c4.098-2.343 4.293-1.171 5.464 0 1.171 1.17 1.756 1.952 3.319 1.17 1.561-.78.39-4.879 2.927-9.173 2.537-4.294 16.2-19.127 16.2-19.127z" fill="#be9049"/><path d="M91.25 247.367s2.537-2.928 4.489-4.294c1.952-1.367 3.707-3.904 5.465-4.295 1.756-.39.78 1.952 2.341 3.708 1.562 1.758 15.42 4.88 15.42 4.88l-24.983.196z" fill="#ad7a2b"/><path d="M72.317 247.367s.39-1.171 2.342-1.757c1.952-.585 13.467 1.562 16.785 1.171 3.319-.39 4.685-1.756 7.808-.976 3.122.781 19.323 2.147 19.323 2.147z" fill="#be9049"/><path d="M198.99 218.284s1.952 12.297 3.512 14.834c1.562 2.537 4.685 6.052 4.685 6.052l-.976-6.442s2.928 6.05 5.075 8.198c2.147 2.147 5.27 6.44 5.27 6.44l-8.198.586s-10.735-4.88-13.272-6.636c-2.538-1.756.78-21.665 2.147-23.617 1.366-1.952 1.756.585 1.756.585z" fill="#bb842e"/><path d="M214.604 246.196s-1.952 1.366-9.37-1.757c-7.416-3.123-21.468-11.712-21.468-11.712s-.197 1.367 1.365 2.928c1.561 1.562 3.904 4.295 3.904 4.295l-3.514-.976s.976 3.707 0 5.27c-.976 1.561-1.365-2.343-2.927-1.952-1.561.39-11.515 4.88-11.515 4.88l34.937.195 9.369-1.171z" fill="#be9049"/></svg>