<svg xmlns="http://www.w3.org/2000/svg" width="1000" height="250" viewBox="0 0 1000 250"><path d="M11.144 193.076s239.446-2.157 233.514 3.235c-1.65 1.5-17.21 3.39-18.832 6.955-.934 2.052 13.87 5.66 10.12 7.506-4.939 2.432-25.237-1.938-31.71.277-3.28 1.122 22.356-.26 21.751 2.068-.607 2.333-27.451 8.374-27.709 8.542-4.512 2.955 51.893 3.503 48.537 4.314-5.932 1.434-103.977 12.224-40.894 16.279 37.35 2.4-105.47 6.645-116.04 5.832-21.032-1.619-88.443-2.158-81.973-6.472 6.472-4.315 11.866-8.09 9.708-14.561-2.157-6.472-7.55-17.796-7.01-22.111.538-4.314 3.236-7.55 3.236-7.55z" fill="#b78941"/><path d="M26.783 205.48s2.158-7.01 8.63-7.01c6.471 0 16.179 1.077 16.179 1.077l-32.358-7.01 162.958.847s-79.907 9.399-80.987 11.557c-1.079 2.158 1.617 10.247-3.236 12.405-4.853 2.156-68.49 2.156-68.49 2.156s11.325-6.471 10.246-8.09c-1.077-1.617-12.943-5.932-12.943-5.932zm90.602 21.032s3.775-3.235 8.628-3.775c4.855-.54 24.268 1.617 24.268 1.617s-26.424 1.619-23.189 3.236l3.236 1.619-19.414.538z" fill="#cc9d55"/></svg>