<svg xmlns="http://www.w3.org/2000/svg" xmlns:xlink="http://www.w3.org/1999/xlink" width="2250" height="250" viewBox="0 0 2250 250"><defs><linearGradient id="a"><stop offset="0" stop-color="#ab9e0e"/><stop offset="1" stop-color="#7c916f"/></linearGradient><linearGradient xlink:href="#a" id="b" x1="1078.038" y1="205.341" x2="1155.416" y2="20.772" gradientUnits="userSpaceOnUse"/></defs><path d="M302.898 25.23c-2.965-1.629-5.907-2.539-11.539-1.41a34.994 34.994 0 00-5.553 1.592c.347.161.57.294.877.449 1.327.612 4.222 2.248 9.194 2.112 4.599-.123 7.02-2.743 7.02-2.743z" fill="#afdf4a"/><path d="M319.765 15.072c-6.853 1.149-8.04 4.989-11.612 6.976-.326.18-2.316 1.034-2.642 1.217 1.555-1.952 2.75-4.134 3.078-6.608-3.962.383-10.084 5.59-13.641 8.546 0 .115 3.557.429 6.907.256-8.691 2.022-21.854 9.32-26.709 15.009-10.196 13.465-11.915 25.69-11.98 31.2-.498 16.011 8.875 31.93 13.554 41.41 1.332-3.61 2.576-6.126 3.775-8.105 15.257 22.631 25.858 62.905 25.858 62.905 11.708-12.26 22.21-45.117 14.507-54.084 7.658 5.87 5.812 8.645 8.243 13.087a70.455 70.455 0 019.404-6.28l1.026-15.015 30.062 1.964c6.97-42.779 7.048-95.68-54.183-85.686 2.73-3.545 3.476-4.66 4.353-6.792z" fill="#afdf4a"/><path d="M308.076 41.815c.854 19.297 7.16 43.586 13.795 64.896-4.621 6.406-12.88-.038-47.49-30.216l1.186 4.756c37.483 36.066 41.568 41.388 53.824 48.31l.424 1.256c5.303 15.38.43 19.254 11.364 32.084 8.32 19.706 31.384 45.56 11.647 56.73-24.695-4.73-29.129 18.813-42.544 30.391h117.51c-42.74-15.61 2.369-29.22-24.822-61.795l-22.792-42.038c2.592-8.462 5.758-13.799 13.618-14.067 7.62.088 19.06 7.083 24.856 11.207 31.468 22.37 39.512 18.343 48.52 13.297l.031-1.823c-12.366 4.116-25.996.525-29.683-13.201 16.13-4.633 37.846-21.9 46.108-32.26l3.929-9.243c-17.995 16.456-37.418 26.161-50.822 29.427-17.072 4.158-28.271-3.84-45.439-20.38-9.985 3.79-20.744 15.124-32.275 17.237-27.471-19.2-36.055-53.586-43.904-81.554z" fill="#483737"/><path d="M308.076 41.815c.854 19.297 7.16 43.586 13.795 64.896-4.621 6.406-12.88-.038-47.49-30.216l1.186 4.756c37.483 36.066 41.568 41.388 53.824 48.31l.424 1.256c5.303 15.38.43 19.254 11.364 32.084.054.134.115.268.172.398.498-10.284 5.82-25.507 15.782-34.037-14.32 22.685-7.474 37.272 1.428 51.075a189.305 189.305 0 00-12.137-6.957c.414.75.823 1.5 1.248 2.259 56.458 30.009 37.242 52.61-1.21 43.558-.23-.06-.436-.099-.662-.153a24.266 24.266 0 00-3.737.402c1.187.173 2.455.43 3.84.797 37.253 8.767 57.584-10.322 15.832-37.889-7.768-11.658-18.17-22.953-7.194-46.824 1.914-4.166 5.188-7.723 8.91-10.395l-4.427 1.248c-27.474-19.2-36.058-53.586-43.907-81.554zm83.22 67.331c7.589 15.87 22.605 22.72 36.22 31.28 11.746 15.518 25.54 20.687 39.664 14.385-12.366 4.116-25.996.524-29.683-13.201l.023-.008-.196-.046a91.367 91.367 0 01-38.374-22.13c-2.814-2.73-5.085-6.597-7.654-10.28zm-4.445 19.331c-27.65 5.724-17.983 16.287-7.734 35.473 1.93 1.952 4.128 5.38 7.217 8.73 16.215 32.482 20.319 39.565 16.07 59.267-1.655 7.665 4.364 9.105 11.925 11.398a20.904 20.904 0 01-2.044-1.723c-5.092-1.899-9.2-4.525-8.595-9.258 4.092-32.107-8.17-36.893-16.031-58.28.559.59 1.16 1.195 1.742 1.792 9.323 19.565 19.519 31.51 16.907 43.073-2.473 10.961-.562 17.29 3.657 19.844a11.624 11.624 0 01-.414-.736c-2.91-3.338-3.216-10.33-2.052-16.991 2.83-16.18-4.912-23.317-16.923-43.984 4.304 4.357 8.99 8.672 12.949 11.83-.184-.229-.36-.451-.555-.685l-22.792-42.038c2.592-8.462 5.758-13.799 13.618-14.067 7.62.088 19.06 7.083 24.856 11.207a198.54 198.54 0 0012.68 8.377c-20.43-17.585-35.296-23.485-44.48-23.229zm-38.608 48.173l1.164 2.075c45.151 24.756 33.834 43.654 4.678 40.132-.402.268-.815.524-1.26.773a34.84 34.84 0 00-3.805-.51c34.929 6.716 50.96-14.445-.777-42.47zm38.267 36.142c-9.981 14.564-28.868 15.257-45.09 24.144-5.632 3.086-9.426 9.625-15.257 13.086h6.624c3.242-4.204 5.7-8.404 9.219-10.728 13.879-9.17 35.836-11.716 44.504-26.498z" fill="#352b2b"/><path d="M437.97 72.106c-.531 3.977 1.257 6.696 2.275 7.651 0 0-3.648-.812-7.72-.266-16.343 1.044-25.17 5.719-29.01 13.682 2.829-1.385 4.71-1.56 6.353-1.43-3.746 4.842-5.555 8.597-6.226 11.712l5.483-3.57c-9.312 12.124-6.792 24.728-2.958 34.57 1.252-2.4 4.244-6.075 6.014-7.11-6.459 23.541 17.863 49.96 28.702 57.23 11.993 9.224 22.109 20.45 22.379 20.878 1.902 3.021 1.83 8.482 1.507 15.262 3.006-3.246 5.359-6.485 6.653-9.715 0 0-.895 6.763-.475 16.406.364 8.363 7.69 17.91 18.184 18.826 2.243-.01 8.5 2.96 8.5 2.96s-10.772-6.316-13.575-13.564c-2.803-7.248-1.784-40.912-1.784-40.912l3.467-35.938v-.002c.01-.035.016-.07.024-.105.202-.846.388-1.695.562-2.543.07-.343.133-.686.199-1.028.188-.98.357-1.963.508-2.949.056-.37.106-.742.157-1.114.073-.535.149-1.072.21-1.609l.003-.007c.1-.863.191-1.727.26-2.593 2.043-20.63-1.578-39.41-12.834-53.895-3.618-4.654-9.025-9.091-16.338-7.906 2.45-1.413 3.388-3.734 4.487-5.958-4.422-.58-8.369.464-11.79 3.305-1.801-2.589-6.36-9.348-13.216-10.268zm4.552 54.29c11.54-.079 15.049 12.592 14.272 19.613-1.742 7.522-5.964 12.316-5.964 12.316l-1.851-3.165c-2.067 4.301-2.245 8.11-7.595 13.267 0 0-4.128-3.369-7.503-11.857-3.376-8.487.875-13.543.875-13.543l-4.41 3.453c-.442-.531.37-18.286 12.176-20.083zM335.723 100.164c1.838 5.437 2.634 11.188 6.662 15.966.241-1.413.65-2.336 1.57-3.748-.207 8.537 4.219 13.683 8.166 18.603 2.156-8.056 7.348-13.305 17.474-23.435z" fill="#afdf4a"/><path d="M586.124 37.621c-2.682.142-7.812 1.822-9.961 4.969.13-1.011.145-2.258-.06-3.443-3.553.378-9.002 5.11-12.167 7.797-4.8-2.629-12.046-3.91-18.902-2.762 3.174 2.383 4.214 3.666 4.824 4.726 0 0-9.278 3.826-17.15 12.91-7.09 11.608-11.236 22.487-12.006 34.842-1.98 31.757 12.868 66.112 16.727 94.625 2.178 16.879 2.808 33.343-6.163 42.876-3.288 3.176-9.542 3.797-16.123 2.772-2.424-.451-4.96-1.797-9.472-9.878.747 5.763-.77 12.92 2.039 15.393 5.95 5.24 29.512 5.369 49.862 5.561 9.757-7.351 11.685-11.491 11.685-11.491l-1.519 10.168c17.705-10.529 24.434-33.396 24.434-33.396l-.213 10.613s6.06-4.886 9.505-13.925c3.444-9.04 2.88-28.502 2.88-28.502s3.945 7.69 3.978 10.874l.053 5.229 3.364-4.582s3.476 6.33 2.416 13.846c-1.06 7.514-6.145 21.664-6.145 21.664l-5.724 18.669c24.13-1.792 59.847-5.21 66.5-10.187 10.178-7.618 13.704-18.568 13.704-18.568 1.686 8.275 4.703 12.611 7.503 16.466.185-2.813.306-5.625 1.514-8.447-1.465 4.162 2.281 21.278 8.06 22.462 5.791 1.186 48.063.29 48.063.29s-10.77-6.316-13.574-13.564c-2.803-7.248-1.784-40.912-1.784-40.912l3.467-35.938v-.002a76.978 76.978 0 001.922-11.948c2.045-20.63-1.577-39.41-12.833-53.894-3.618-4.657-9.025-9.092-16.338-7.907 2.45-1.412 3.388-3.734 4.487-5.958-4.422-.58-8.369.463-11.79 3.304-1.801-2.588-6.36-9.347-13.216-10.268-.532 3.978 1.256 6.696 2.274 7.652 0 0-6.198-5.735-20.28-4.226-8.417.901-15.375 3.522-19.66 5.495.07-.82.45-1.908 1.044-3.187 0 0-2.735-.133-4.325 1.652-1.589 1.785-1.399 3.699-1.399 3.699l.12.19-.03.017-.09-.207c-.455-1.083-7.645-16.874-19.976-26.847-17.745-14.352-37.603-13.84-43.374-12.584 2.42-3.207 3.078-4.215 3.848-6.138z" fill="#768f42"/><path d="M552.898 25.23c-2.965-1.629-5.907-2.539-11.538-1.41a34.994 34.994 0 00-5.554 1.592c.348.161.571.294.878.449 1.326.612 4.222 2.248 9.194 2.112 4.598-.123 7.02-2.743 7.02-2.743z" fill="#afdf4a"/><path d="M569.766 15.072c-6.854 1.149-8.04 4.989-11.613 6.976-.325.18-2.316 1.034-2.642 1.217 1.555-1.952 2.75-4.134 3.079-6.608-3.963.383-10.085 5.59-13.642 8.546 0 .115 3.557.429 6.907.256-8.691 2.022-21.854 9.32-26.709 15.009-10.195 13.465-11.915 25.69-11.98 31.2-.497 16.011 8.875 31.93 13.554 41.41 1.332-3.61 2.577-6.126 3.775-8.105 15.257 22.631 25.859 62.905 25.859 62.905 11.708-12.26 22.21-45.117 14.507-54.084 7.657 5.87 5.811 8.645 8.243 13.087a70.455 70.455 0 019.403-6.28l1.026-15.015 30.063 1.964c-.058-10.962-.544-19.68 4.533-27.938 4.724-7.684 11.386-13.11 11.386-13.11-.494-1.21-6.493-15.429-20.112-26.678-19.599-16.187-43.55-19.296-49.99-17.96 2.73-3.545 3.476-4.66 4.353-6.792z" fill="#a8cb5e"/><path d="M558.077 41.815c.853 19.297 7.16 43.586 13.794 64.896-4.62 6.406-12.88-.038-47.49-30.216l1.186 4.756c37.483 36.066 41.568 41.388 53.824 48.31l.425 1.256c5.303 15.38.429 19.254 11.363 32.084 8.32 19.706 31.384 45.56 11.647 56.73-24.695-4.73-29.128 18.813-42.544 30.391h117.51c-42.74-15.61 2.37-29.22-24.822-61.795l-22.792-42.038c2.592-8.462 5.758-13.799 13.619-14.067 7.619.088 19.059 7.083 24.855 11.207 31.468 22.37 39.512 18.343 48.521 13.297l.03-1.823c-12.366 4.116-25.996.525-29.683-13.201 16.13-4.633 37.846-21.9 46.109-32.26l3.928-9.243c-17.995 16.456-37.418 26.161-50.822 29.427-17.072 4.158-28.27-3.84-45.438-20.38-9.986 3.79-20.744 15.124-32.276 17.237-27.47-19.2-36.055-53.586-43.903-81.554z" fill="#483737"/><path d="M558.077 41.815c.853 19.297 7.16 43.586 13.794 64.896-4.62 6.406-12.88-.038-47.49-30.216l1.186 4.756c37.483 36.066 41.568 41.388 53.824 48.31l.425 1.256c5.303 15.38.429 19.254 11.363 32.084.054.134.115.268.173.398.497-10.284 5.82-25.507 15.781-34.037-14.319 22.685-7.473 37.272 1.428 51.075a189.305 189.305 0 00-12.136-6.957c.413.75.823 1.5 1.248 2.259 56.457 30.009 37.241 52.61-1.21 43.558-.23-.06-.437-.099-.663-.153a24.266 24.266 0 00-3.736.402c1.187.173 2.454.43 3.84.797 37.253 8.767 57.583-10.322 15.831-37.889-7.768-11.658-18.17-22.953-7.194-46.824 1.915-4.166 5.188-7.723 8.91-10.395l-4.426 1.248c-27.475-19.2-36.059-53.586-43.907-81.554zm83.22 67.331c7.588 15.87 22.604 22.72 36.219 31.28 11.746 15.518 25.54 20.687 39.665 14.385-12.367 4.116-25.997.524-29.684-13.201l.023-.008-.195-.046a91.367 91.367 0 01-38.375-22.13c-2.814-2.73-5.084-6.597-7.653-10.28zm-4.446 19.331c-27.65 5.724-17.983 16.287-7.733 35.473 1.93 1.952 4.127 5.38 7.217 8.73 16.214 32.482 20.318 39.565 16.069 59.267-1.654 7.665 4.364 9.105 11.926 11.398a20.904 20.904 0 01-2.045-1.723c-5.092-1.899-9.2-4.525-8.595-9.258 4.093-32.107-8.17-36.893-16.03-58.28.558.59 1.16 1.195 1.741 1.792 9.323 19.565 19.519 31.51 16.908 43.073-2.474 10.961-.563 17.29 3.656 19.844a11.624 11.624 0 01-.413-.736c-2.91-3.338-3.216-10.33-2.053-16.991 2.83-16.18-4.912-23.317-16.922-43.984 4.303 4.357 8.99 8.672 12.948 11.83-.183-.229-.36-.451-.555-.685l-22.792-42.038c2.592-8.462 5.758-13.799 13.619-14.067 7.619.088 19.059 7.083 24.855 11.207a198.54 198.54 0 0012.68 8.377c-20.429-17.585-35.296-23.485-44.48-23.229zm-38.608 48.173l1.164 2.075c45.152 24.756 33.834 43.654 4.679 40.132-.402.268-.816.524-1.26.773a34.84 34.84 0 00-3.806-.51c34.93 6.716 50.96-14.445-.777-42.47zm38.268 36.142c-9.982 14.564-28.868 15.257-45.09 24.144-5.632 3.086-9.427 9.625-15.258 13.086h6.624c3.243-4.204 5.7-8.404 9.22-10.728 13.878-9.17 35.836-11.716 44.504-26.498z" fill="#352b2b"/><path d="M687.971 72.106c-.532 3.977 1.257 6.696 2.274 7.651 0 0-3.648-.812-7.72-.266-16.343 1.044-25.17 5.719-29.009 13.682 2.828-1.385 4.71-1.56 6.352-1.43-3.746 4.842-5.554 8.597-6.226 11.712l5.483-3.57c-9.311 12.124-6.792 24.728-2.958 34.57 1.252-2.4 4.244-6.075 6.015-7.11-6.46 23.541 17.863 49.96 28.7 57.23 11.994 9.224 22.11 20.45 22.38 20.878 1.903 3.021 1.83 8.482 1.507 15.262 3.007-3.246 5.36-6.485 6.653-9.715 0 0-.895 6.763-.475 16.406.364 8.363 7.69 17.91 18.184 18.826 2.243-.01 8.5 2.96 8.5 2.96s-10.772-6.316-13.575-13.564c-2.803-7.248-1.784-40.912-1.784-40.912l3.467-35.938v-.002c.01-.035.016-.07.024-.105.202-.846.388-1.695.562-2.543.07-.343.133-.686.199-1.028.188-.98.358-1.963.508-2.949.056-.37.106-.742.157-1.114.074-.535.15-1.072.21-1.609l.003-.007c.1-.863.191-1.727.26-2.593 2.044-20.63-1.578-39.41-12.834-53.895-3.618-4.654-9.025-9.091-16.337-7.906 2.45-1.413 3.388-3.734 4.486-5.958-4.422-.58-8.368.464-11.79 3.305-1.801-2.589-6.359-9.348-13.216-10.268zm4.552 54.29c11.54-.079 15.048 12.592 14.272 19.613-1.742 7.522-5.964 12.316-5.964 12.316l-1.852-3.165c-2.067 4.301-2.245 8.11-7.595 13.267 0 0-4.128-3.369-7.503-11.857-3.376-8.487.876-13.543.876-13.543l-4.41 3.453c-.443-.531.37-18.286 12.176-20.083z" fill="#a8cb5e"/><path d="M585.723 100.164c1.838 5.437 2.635 11.188 6.662 15.966.242-1.413.651-2.336 1.57-3.748-.207 8.537 4.22 13.683 8.167 18.603 2.155-8.056 7.347-13.305 17.474-23.435z" fill="#abd356"/><path d="M836.124 37.621c-2.682.142-7.812 1.822-9.961 4.969.13-1.011.145-2.258-.06-3.443-3.553.378-9.002 5.11-12.167 7.797-4.8-2.629-12.046-3.91-18.902-2.762 3.174 2.383 4.214 3.666 4.824 4.726 0 0-9.278 3.826-17.15 12.91-7.09 11.608-11.236 22.487-12.006 34.842-1.98 31.757 12.868 66.112 16.727 94.625 2.178 16.879 2.808 33.343-6.163 42.876-3.288 3.176-9.542 3.797-16.123 2.772-2.424-.451-4.96-1.797-9.472-9.878.747 5.763-.77 12.92 2.039 15.393 5.95 5.24 29.512 5.369 49.862 5.561 9.757-7.351 11.685-11.491 11.685-11.491l-1.519 10.168c17.705-10.529 24.434-33.396 24.434-33.396l-.213 10.613s6.06-4.886 9.505-13.925c3.444-9.04 2.88-28.502 2.88-28.502s3.945 7.69 3.978 10.874l.053 5.229 3.364-4.582s3.476 6.33 2.416 13.846c-1.06 7.514-6.145 21.664-6.145 21.664l-5.724 18.669c24.13-1.792 59.847-5.21 66.5-10.187 10.178-7.618 13.704-18.568 13.704-18.568 1.686 8.275 4.703 12.611 7.503 16.466.185-2.813.306-5.625 1.514-8.447-1.465 4.162 2.281 21.278 8.06 22.462 5.791 1.186 48.063.29 48.063.29s-10.77-6.316-13.574-13.564c-2.803-7.248-1.784-40.912-1.784-40.912l3.467-35.938v-.002a76.978 76.978 0 001.922-11.948c2.045-20.63-1.577-39.41-12.833-53.894-3.618-4.657-9.025-9.092-16.338-7.907 2.45-1.412 3.388-3.734 4.487-5.958-4.422-.58-8.369.463-11.79 3.304-1.801-2.588-6.36-9.347-13.216-10.268-.532 3.978 1.256 6.696 2.274 7.652 0 0-6.198-5.735-20.28-4.226-8.417.901-15.375 3.522-19.66 5.495.07-.82.45-1.908 1.044-3.187 0 0-2.735-.133-4.325 1.652-1.589 1.785-1.399 3.699-1.399 3.699l.12.19-.03.017-.09-.207c-.455-1.083-7.645-16.874-19.976-26.847-17.745-14.352-37.603-13.84-43.374-12.584 2.42-3.207 3.078-4.215 3.848-6.138z" fill="#7c916f"/><path d="M802.898 25.23c-2.965-1.629-5.907-2.539-11.538-1.41a34.994 34.994 0 00-5.554 1.592c.348.161.571.294.878.449 1.326.612 4.222 2.248 9.194 2.112 4.598-.123 7.02-2.743 7.02-2.743z" fill="#9cb079"/><path d="M819.766 15.072c-6.854 1.149-8.04 4.989-11.613 6.976-.325.18-2.316 1.034-2.642 1.217 1.555-1.952 2.75-4.134 3.079-6.608-3.963.383-10.085 5.59-13.642 8.546 0 .115 3.557.429 6.907.256-8.691 2.022-21.854 9.32-26.709 15.009-10.195 13.465-11.915 25.69-11.98 31.2-.497 16.011 8.875 31.93 13.554 41.41 1.332-3.61 2.577-6.126 3.775-8.105 15.257 22.631 25.859 62.905 25.859 62.905 11.708-12.26 22.21-45.117 14.507-54.084 7.657 5.87 5.811 8.645 8.243 13.087a70.455 70.455 0 019.403-6.28l1.026-15.015 30.063 1.964c-.058-10.962-.544-19.68 4.533-27.938 4.724-7.684 11.386-13.11 11.386-13.11-.494-1.21-6.493-15.429-20.112-26.678-19.599-16.187-43.55-19.296-49.99-17.96 2.73-3.545 3.476-4.66 4.353-6.792z" fill="#9cb079"/><path d="M851.049 117.431s-4.162 33.166-7.912 43.816c-3.75 10.651-15.468 26.93-15.468 26.93l-3.75-10.875s-2.54 25.973-7.225 39.527c-4.685 13.555-19.989 22.557-29.33 24.74-4.126.965-19.92 6.812-25.693-14.513-.588 4.748-2.537 7.572.987 13.816-.45 1.239-7.165 4.205-7.82 4.246 16.364 1.353 42.412 7.435 58.702 3.573 4.065-.964 8.022-6.27 11.717-12.172l-1.52 10.171c17.707-10.527 23.679-28.729 23.679-28.729l.543 5.943s5.83-4.716 9.304-13.437c-2.745 27.297-7.232 38.03-7.232 38.03l8.177-1.181-.226.73c25.683-.147 65.332-.534 72.165-5.646 10.18-7.617 8.343-23.98 8.343-23.98s-2.808-23.725-6.75-31.189c-3.942-7.463-12.613-16.59-12.613-16.59l1.698 6.694s-6.885-3.076-9.754-9.169c-.408-.869-3.462-5.617-4.84-13.31l-9.453 15.88z" fill="#5a6c56"/><path d="M808.077 41.815c.853 19.297 7.16 43.586 13.794 64.896-4.62 6.406-12.88-.038-47.49-30.216l1.186 4.756c37.483 36.066 41.568 41.388 53.824 48.31l.425 1.256c5.303 15.38.429 19.254 11.363 32.084 8.32 19.706 31.384 45.56 11.647 56.73-24.695-4.73-29.128 18.813-42.544 30.391h117.51c-42.74-15.61 2.37-29.22-24.822-61.795l-22.792-42.038c2.592-8.462 5.758-13.799 13.619-14.067 7.619.088 19.059 7.083 24.855 11.207 31.468 22.37 39.512 18.343 48.521 13.297l.03-1.823c-12.366 4.116-25.996.525-29.683-13.201 16.13-4.633 37.846-21.9 46.109-32.26l3.928-9.243c-17.995 16.456-37.418 26.161-50.822 29.427-17.072 4.158-28.27-3.84-45.438-20.38-9.986 3.79-20.744 15.124-32.276 17.237-27.47-19.2-36.055-53.586-43.903-81.554z" fill="#483737"/><path d="M808.077 41.815c.853 19.297 7.16 43.586 13.794 64.896-4.62 6.406-12.88-.038-47.49-30.216l1.186 4.756c37.483 36.066 41.568 41.388 53.824 48.31l.425 1.256c5.303 15.38.429 19.254 11.363 32.084.054.134.115.268.173.398.497-10.284 5.82-25.507 15.781-34.037-14.319 22.685-7.473 37.272 1.428 51.075a189.305 189.305 0 00-12.136-6.957c.413.75.823 1.5 1.248 2.259 56.457 30.009 37.241 52.61-1.21 43.558-.23-.06-.437-.099-.663-.153a24.266 24.266 0 00-3.736.402c1.187.173 2.454.43 3.84.797 37.253 8.767 57.583-10.322 15.831-37.889-7.768-11.658-18.17-22.953-7.194-46.824 1.915-4.166 5.188-7.723 8.91-10.395l-4.426 1.248c-27.475-19.2-36.059-53.586-43.907-81.554zm83.22 67.331c7.588 15.87 22.604 22.72 36.219 31.28 11.746 15.518 25.54 20.687 39.665 14.385-12.367 4.116-25.997.524-29.684-13.201l.023-.008-.195-.046a91.367 91.367 0 01-38.375-22.13c-2.814-2.73-5.084-6.597-7.653-10.28zm-4.446 19.331c-27.65 5.724-17.983 16.287-7.733 35.473 1.93 1.952 4.127 5.38 7.217 8.73 16.214 32.482 20.318 39.565 16.069 59.267-1.654 7.665 4.364 9.105 11.926 11.398a20.904 20.904 0 01-2.045-1.723c-5.092-1.899-9.2-4.525-8.595-9.258 4.093-32.107-8.17-36.893-16.03-58.28.558.59 1.16 1.195 1.741 1.792 9.323 19.565 19.519 31.51 16.908 43.073-2.474 10.961-.563 17.29 3.656 19.844a11.624 11.624 0 01-.413-.736c-2.91-3.338-3.216-10.33-2.053-16.991 2.83-16.18-4.912-23.317-16.922-43.984 4.303 4.357 8.99 8.672 12.948 11.83-.183-.229-.36-.451-.555-.685l-22.792-42.038c2.592-8.462 5.758-13.799 13.619-14.067 7.619.088 19.059 7.083 24.855 11.207a198.54 198.54 0 0012.68 8.377c-20.429-17.585-35.296-23.485-44.48-23.229zm-38.608 48.173l1.164 2.075c45.152 24.756 33.834 43.654 4.679 40.132-.402.268-.816.524-1.26.773a34.84 34.84 0 00-3.806-.51c34.93 6.716 50.96-14.445-.777-42.47zm38.268 36.142c-9.982 14.564-28.868 15.257-45.09 24.144-5.632 3.086-9.427 9.625-15.258 13.086h6.624c3.243-4.204 5.7-8.404 9.22-10.728 13.878-9.17 35.836-11.716 44.504-26.498z" fill="#352b2b"/><path d="M937.971 72.106c-.532 3.977 1.257 6.696 2.274 7.651 0 0-3.648-.812-7.72-.266-16.343 1.044-25.17 5.719-29.009 13.682 2.828-1.385 4.71-1.56 6.352-1.43-3.746 4.842-5.554 8.597-6.226 11.712l5.483-3.57c-9.311 12.124-6.792 24.728-2.958 34.57 1.252-2.4 4.244-6.075 6.015-7.11-6.46 23.541 17.863 49.96 28.7 57.23 11.994 9.224 22.11 20.45 22.38 20.878 1.903 3.021 1.83 8.482 1.507 15.262 3.007-3.246 5.36-6.485 6.653-9.715 0 0-.895 6.763-.475 16.406.364 8.363 7.69 17.91 18.184 18.826 2.243-.01 8.5 2.96 8.5 2.96s-10.772-6.316-13.575-13.564c-2.803-7.248-1.784-40.912-1.784-40.912l3.467-35.938v-.002c.01-.035.016-.07.024-.105.202-.846.388-1.695.562-2.543.07-.343.133-.686.199-1.028.188-.98.358-1.963.508-2.949.056-.37.106-.742.157-1.114.074-.535.15-1.072.21-1.609l.003-.007c.1-.863.191-1.727.26-2.593 2.044-20.63-1.578-39.41-12.834-53.895-3.618-4.654-9.025-9.091-16.337-7.906 2.45-1.413 3.388-3.734 4.486-5.958-4.422-.58-8.368.464-11.79 3.305-1.801-2.589-6.359-9.348-13.216-10.268zm4.552 54.29c11.54-.079 15.048 12.592 14.272 19.613-1.742 7.522-5.964 12.316-5.964 12.316l-1.852-3.165c-2.067 4.301-2.245 8.11-7.595 13.267 0 0-4.128-3.369-7.503-11.857-3.376-8.487.876-13.543.876-13.543l-4.41 3.453c-.443-.531.37-18.286 12.176-20.083zM835.723 100.164c1.838 5.437 2.635 11.188 6.662 15.966.242-1.413.651-2.336 1.57-3.748-.207 8.537 4.22 13.683 8.167 18.603 2.155-8.056 7.347-13.305 17.474-23.435z" fill="#9cb079"/><path d="M58.076 41.815c.854 19.297 7.16 43.586 13.795 64.896-4.621 6.406-12.88-.038-47.49-30.216l1.186 4.756c37.483 36.066 41.568 41.388 53.824 48.31l.424 1.256c5.303 15.38.43 19.254 11.364 32.084 8.32 19.706 31.384 45.56 11.647 56.73-24.695-4.73-29.129 18.813-42.544 30.391h117.51c-42.74-15.61 2.369-29.22-24.822-61.795l-22.792-42.038c2.592-8.462 5.758-13.799 13.618-14.067 7.62.088 19.06 7.083 24.856 11.207 31.468 22.37 39.512 18.343 48.52 13.297l.031-1.823c-12.366 4.116-25.996.525-29.683-13.201 16.13-4.633 37.846-21.9 46.108-32.26l3.929-9.243c-17.995 16.456-37.418 26.161-50.822 29.427-17.072 4.158-28.271-3.84-45.439-20.38-9.985 3.79-20.744 15.124-32.275 17.237-27.471-19.2-36.055-53.586-43.904-81.554z" fill="#483737"/><path d="M58.076 41.815c.854 19.297 7.16 43.586 13.795 64.896-4.621 6.406-12.88-.038-47.49-30.216l1.186 4.756c37.483 36.066 41.568 41.388 53.824 48.31l.424 1.256c5.303 15.38.43 19.254 11.364 32.084.054.134.115.268.172.398.498-10.284 5.82-25.507 15.782-34.037-14.32 22.685-7.474 37.272 1.428 51.075a189.305 189.305 0 00-12.137-6.957c.414.75.823 1.5 1.248 2.259 56.458 30.009 37.242 52.61-1.21 43.558-.23-.06-.436-.099-.662-.153a24.266 24.266 0 00-3.737.402c1.187.173 2.455.43 3.84.797 37.253 8.767 57.584-10.322 15.832-37.889-7.768-11.658-18.17-22.953-7.194-46.824 1.914-4.166 5.188-7.723 8.91-10.395l-4.427 1.248c-27.474-19.2-36.058-53.586-43.907-81.554zm83.22 67.331c7.589 15.87 22.605 22.72 36.22 31.28 11.746 15.518 25.54 20.687 39.664 14.385-12.366 4.116-25.996.524-29.683-13.201l.023-.008-.196-.046a91.367 91.367 0 01-38.374-22.13c-2.814-2.73-5.085-6.597-7.654-10.28zm-4.445 19.331c-27.65 5.724-17.983 16.287-7.734 35.473 1.93 1.952 4.128 5.38 7.217 8.73 16.215 32.482 20.319 39.565 16.07 59.267-1.655 7.665 4.364 9.105 11.925 11.398a20.904 20.904 0 01-2.044-1.723c-5.092-1.899-9.2-4.525-8.595-9.258 4.092-32.107-8.17-36.893-16.031-58.28.559.59 1.16 1.195 1.742 1.792 9.323 19.565 19.519 31.51 16.907 43.073-2.473 10.961-.562 17.29 3.657 19.844a11.624 11.624 0 01-.414-.736c-2.91-3.338-3.216-10.33-2.052-16.991 2.83-16.18-4.912-23.317-16.923-43.984 4.304 4.357 8.99 8.672 12.949 11.83-.184-.229-.36-.451-.555-.685l-22.792-42.038c2.592-8.462 5.758-13.799 13.618-14.067 7.62.088 19.06 7.083 24.856 11.207a198.54 198.54 0 0012.68 8.377c-20.43-17.585-35.296-23.485-44.48-23.229zM98.243 176.65l1.164 2.075c45.151 24.756 33.834 43.654 4.678 40.132-.402.268-.815.524-1.26.773a34.84 34.84 0 00-3.805-.51c34.929 6.716 50.96-14.445-.777-42.47zm38.267 36.142c-9.98 14.564-28.868 15.257-45.09 24.144-5.632 3.086-9.426 9.625-15.257 13.086h6.624c3.242-4.204 5.7-8.404 9.219-10.728 13.879-9.17 35.836-11.716 44.504-26.498z" fill="#352b2b"/><path d="M1086.124 37.621c-2.681.142-7.812 1.822-9.961 4.969a11.96 11.96 0 00-.06-3.443c-3.553.378-9.002 5.11-12.167 7.797-4.8-2.629-12.046-3.91-18.902-2.762 3.174 2.383 4.214 3.666 4.824 4.726 0 0-9.278 3.826-17.15 12.91-7.09 11.608-11.236 22.487-12.006 34.842-1.98 31.757 12.868 66.112 16.727 94.625 2.178 16.879 2.808 33.343-6.163 42.876-3.288 3.176-9.542 3.797-16.123 2.772-2.424-.451-4.96-1.797-9.472-9.878.747 5.763-.77 12.92 2.039 15.393 5.95 5.24 29.512 5.369 49.862 5.561 9.757-7.351 11.685-11.491 11.685-11.491l-1.519 10.168c17.705-10.529 24.434-33.396 24.434-33.396l-.213 10.613s6.06-4.886 9.505-13.925c3.444-9.04 2.88-28.502 2.88-28.502s3.945 7.69 3.978 10.874l.054 5.229 3.364-4.582s3.475 6.33 2.416 13.846c-1.06 7.514-6.145 21.664-6.145 21.664l-5.724 18.669c24.13-1.792 59.847-5.21 66.499-10.187 10.179-7.618 13.705-18.568 13.705-18.568 1.685 8.275 4.702 12.611 7.502 16.466.185-2.813.306-5.625 1.514-8.447-1.465 4.162 2.282 21.278 8.06 22.462 5.792 1.186 48.064.29 48.064.29s-10.771-6.316-13.574-13.564c-2.803-7.248-1.784-40.912-1.784-40.912l3.467-35.938v-.002a76.974 76.974 0 001.922-11.948c2.044-20.63-1.578-39.41-12.834-53.894-3.617-4.657-9.025-9.092-16.337-7.907 2.45-1.412 3.388-3.734 4.487-5.958-4.422-.58-8.37.463-11.79 3.304-1.802-2.588-6.36-9.347-13.216-10.268-.533 3.978 1.255 6.696 2.274 7.652 0 0-6.198-5.735-20.281-4.226-8.416.901-15.374 3.522-19.66 5.495.07-.82.45-1.908 1.045-3.187 0 0-2.735-.133-4.325 1.652-1.59 1.785-1.4 3.699-1.4 3.699l.12.19-.03.017-.09-.207c-.454-1.083-7.644-16.874-19.975-26.847-17.745-14.352-37.603-13.84-43.374-12.584 2.42-3.207 3.078-4.215 3.848-6.138z" fill="url(#b)"/><path d="M1052.898 25.23c-2.964-1.629-5.907-2.539-11.538-1.41a34.994 34.994 0 00-5.553 1.592c.347.161.57.294.877.449 1.326.612 4.222 2.248 9.194 2.112 4.599-.123 7.02-2.743 7.02-2.743z" fill="#e3d746"/><path d="M1069.766 15.072c-6.854 1.149-8.04 4.989-11.613 6.976-.325.18-2.316 1.034-2.641 1.217 1.554-1.952 2.749-4.134 3.078-6.608-3.963.383-10.085 5.59-13.642 8.546 0 .115 3.557.429 6.907.256-8.69 2.022-21.854 9.32-26.709 15.009-10.195 13.465-11.914 25.69-11.98 31.2-.497 16.011 8.875 31.93 13.554 41.41 1.332-3.61 2.577-6.126 3.775-8.105 15.257 22.631 25.859 62.905 25.859 62.905 11.708-12.26 22.21-45.117 14.507-54.084 7.657 5.87 5.812 8.645 8.243 13.087a70.455 70.455 0 019.403-6.28l1.026-15.015 30.063 1.964c-.057-10.962-.544-19.68 4.533-27.938 4.725-7.684 11.386-13.11 11.386-13.11-.493-1.21-6.493-15.429-20.112-26.678-19.598-16.187-43.55-19.296-49.99-17.96 2.73-3.545 3.476-4.66 4.353-6.792z" fill="#e3d746"/><path d="M1058.077 41.815c.854 19.297 7.16 43.586 13.795 64.896-4.622 6.406-12.88-.038-47.491-30.216l1.187 4.756c37.482 36.066 41.567 41.388 53.823 48.31l.425 1.256c5.303 15.38.429 19.254 11.363 32.084 8.32 19.706 31.384 45.56 11.647 56.73-24.695-4.73-29.128 18.813-42.544 30.391h117.51c-42.74-15.61 2.37-29.22-24.822-61.795l-22.792-42.038c2.592-8.462 5.759-13.799 13.619-14.067 7.619.088 19.059 7.083 24.856 11.207 31.467 22.37 39.511 18.343 48.52 13.297l.031-1.823c-12.366 4.116-25.996.525-29.683-13.201 16.13-4.633 37.846-21.9 46.108-32.26l3.928-9.243c-17.994 16.456-37.417 26.161-50.821 29.427-17.072 4.158-28.271-3.84-45.439-20.38-9.985 3.79-20.744 15.124-32.276 17.237-27.47-19.2-36.054-53.586-43.903-81.554z" fill="#483737"/><path d="M1058.077 41.815c.854 19.297 7.16 43.586 13.795 64.896-4.622 6.406-12.88-.038-47.491-30.216l1.187 4.756c37.482 36.066 41.567 41.388 53.823 48.31l.425 1.256c5.303 15.38.429 19.254 11.363 32.084.054.134.115.268.173.398.497-10.284 5.82-25.507 15.782-34.037-14.32 22.685-7.474 37.272 1.428 51.075a189.305 189.305 0 00-12.137-6.957c.413.75.823 1.5 1.248 2.259 56.457 30.009 37.241 52.61-1.21 43.558-.23-.06-.436-.099-.662-.153a24.266 24.266 0 00-3.737.402c1.187.173 2.454.43 3.84.797 37.253 8.767 57.583-10.322 15.832-37.889-7.769-11.658-18.171-22.953-7.194-46.824 1.914-4.166 5.187-7.723 8.909-10.395l-4.426 1.248c-27.475-19.2-36.058-53.586-43.907-81.554zm83.22 67.331c7.588 15.87 22.604 22.72 36.219 31.28 11.746 15.518 25.541 20.687 39.665 14.385-12.367 4.116-25.997.524-29.684-13.201l.023-.008-.195-.046a91.367 91.367 0 01-38.375-22.13c-2.814-2.73-5.084-6.597-7.653-10.28zm-4.445 19.331c-27.65 5.724-17.984 16.287-7.734 35.473 1.93 1.952 4.127 5.38 7.217 8.73 16.214 32.482 20.319 39.565 16.069 59.267-1.654 7.665 4.364 9.105 11.926 11.398a20.915 20.915 0 01-2.044-1.723c-5.093-1.899-9.2-4.525-8.596-9.258 4.093-32.107-8.17-36.893-16.03-58.28.559.59 1.16 1.195 1.742 1.792 9.322 19.565 19.518 31.51 16.907 43.073-2.473 10.961-.563 17.29 3.656 19.844a11.624 11.624 0 01-.413-.736c-2.91-3.338-3.216-10.33-2.052-16.991 2.83-16.18-4.912-23.317-16.923-43.984 4.303 4.357 8.99 8.672 12.949 11.83-.184-.229-.36-.451-.556-.685l-22.792-42.038c2.592-8.462 5.759-13.799 13.619-14.067 7.619.088 19.059 7.083 24.856 11.207a198.54 198.54 0 0012.68 8.377c-20.43-17.585-35.296-23.485-44.481-23.229zm-38.609 48.173l1.164 2.075c45.152 24.756 33.834 43.654 4.679 40.132-.402.268-.816.524-1.26.773a34.84 34.84 0 00-3.805-.51c34.929 6.716 50.96-14.445-.778-42.47zm38.268 36.142c-9.981 14.564-28.868 15.257-45.09 24.144-5.632 3.086-9.427 9.625-15.258 13.086h6.624c3.243-4.204 5.701-8.404 9.22-10.728 13.878-9.17 35.836-11.716 44.504-26.498z" fill="#352b2b"/><path d="M1187.971 72.106c-.532 3.977 1.257 6.696 2.274 7.651 0 0-3.648-.812-7.72-.266-16.343 1.044-25.17 5.719-29.009 13.682 2.828-1.385 4.71-1.56 6.352-1.43-3.745 4.842-5.554 8.597-6.225 11.712l5.482-3.57c-9.311 12.124-6.792 24.728-2.958 34.57 1.253-2.4 4.245-6.075 6.015-7.11-6.46 23.541 17.863 49.96 28.701 57.23 11.993 9.224 22.11 20.45 22.38 20.878 1.902 3.021 1.83 8.482 1.506 15.262 3.007-3.246 5.36-6.485 6.653-9.715 0 0-.894 6.763-.474 16.406.364 8.363 7.689 17.91 18.184 18.826 2.243-.01 8.499 2.96 8.499 2.96s-10.771-6.316-13.574-13.564c-2.803-7.248-1.784-40.912-1.784-40.912l3.467-35.938v-.002c.01-.035.016-.07.023-.105.202-.846.388-1.695.562-2.543.069-.343.133-.686.199-1.028.188-.98.357-1.963.508-2.949.056-.37.106-.742.157-1.114.074-.535.149-1.072.21-1.609v-.007c.1-.863.192-1.727.26-2.593 2.044-20.63-1.577-39.41-12.833-53.895-3.618-4.654-9.025-9.091-16.338-7.906 2.45-1.413 3.388-3.734 4.487-5.958-4.422-.58-8.369.464-11.79 3.305-1.801-2.589-6.36-9.348-13.216-10.268zm4.552 54.29c11.54-.079 15.049 12.592 14.272 19.613-1.742 7.522-5.964 12.316-5.964 12.316l-1.852-3.165c-2.067 4.301-2.245 8.11-7.595 13.267 0 0-4.127-3.369-7.502-11.857-3.376-8.487.875-13.543.875-13.543l-4.41 3.453c-.443-.531.37-18.286 12.176-20.083zM1085.724 100.164c1.837 5.437 2.634 11.188 6.662 15.966.24-1.413.65-2.336 1.57-3.748-.207 8.537 4.219 13.683 8.166 18.603 2.155-8.056 7.347-13.305 17.474-23.435z" fill="#e3d746"/><path d="M1302.898 25.23c-2.965-1.629-5.907-2.539-11.539-1.41a34.994 34.994 0 00-5.553 1.592c.347.161.57.294.877.449 1.327.612 4.222 2.248 9.194 2.112 4.599-.123 7.02-2.743 7.02-2.743z" fill="#dfc12a"/><path d="M1319.765 15.072c-6.853 1.149-8.04 4.989-11.612 6.976-.325.18-2.316 1.034-2.642 1.217 1.555-1.952 2.75-4.134 3.078-6.608-3.962.383-10.084 5.59-13.641 8.546 0 .115 3.557.429 6.907.256-8.691 2.022-21.854 9.32-26.709 15.009-10.196 13.465-11.915 25.69-11.98 31.2-.498 16.011 8.875 31.93 13.553 41.41 1.333-3.61 2.577-6.126 3.776-8.105 15.257 22.631 25.858 62.905 25.858 62.905 11.708-12.26 22.21-45.117 14.507-54.084 7.658 5.87 5.812 8.645 8.243 13.087a70.451 70.451 0 019.404-6.28l1.026-15.015 30.062 1.964c6.97-42.779 7.048-95.68-54.183-85.686 2.73-3.545 3.476-4.66 4.353-6.792zM1419.722 249.037l69.582-.638s-11.445-2.807-25.743-5.345c-14.297-2.538-65.066.642-65.066.642l14.605 2.33 21.136-1.275 11.514.58-36.017 3.029-132.804.218s21.252-5.106 30.482-5.53c9.23-.423 72.064-.494 72.064-.494z" fill="#dfc12a"/><path d="M1308.076 41.815c.854 19.297 7.16 43.586 13.795 64.896-4.621 6.406-12.88-.038-47.49-30.216l1.186 4.756c37.483 36.066 41.568 41.388 53.823 48.31l.425 1.256c5.303 15.38.43 19.254 11.364 32.084 8.32 19.706 31.384 45.56 11.647 56.73-24.695-4.73-29.129 18.813-42.544 30.391h117.51c-42.74-15.61 2.369-29.22-24.822-61.795l-22.792-42.038c2.592-8.462 5.758-13.799 13.618-14.067 7.62.088 19.06 7.083 24.856 11.207 31.468 22.37 39.512 18.343 48.52 13.297l.032-1.823c-12.367 4.116-25.997.525-29.684-13.201 16.13-4.633 37.846-21.9 46.109-32.26l3.928-9.243c-17.995 16.456-37.418 26.161-50.822 29.427-17.072 4.158-28.27-3.84-45.438-20.38-9.986 3.79-20.744 15.124-32.276 17.237-27.47-19.2-36.055-53.586-43.903-81.554z" fill="#483737"/><path d="M1308.076 41.815c.854 19.297 7.16 43.586 13.795 64.896-4.621 6.406-12.88-.038-47.49-30.216l1.186 4.756c37.483 36.066 41.568 41.388 53.823 48.31l.425 1.256c5.303 15.38.43 19.254 11.364 32.084.054.134.115.268.172.398.498-10.284 5.82-25.507 15.782-34.037-14.32 22.685-7.474 37.272 1.428 51.075a189.305 189.305 0 00-12.137-6.957c.414.75.823 1.5 1.248 2.259 56.458 30.009 37.242 52.61-1.21 43.558-.23-.06-.436-.099-.662-.153a24.266 24.266 0 00-3.737.402c1.187.173 2.455.43 3.84.797 37.253 8.767 57.584-10.322 15.832-37.889-7.768-11.658-18.17-22.953-7.194-46.824 1.914-4.166 5.188-7.723 8.91-10.395l-4.427 1.248c-27.474-19.2-36.058-53.586-43.907-81.554zm83.22 67.331c7.589 15.87 22.605 22.72 36.22 31.28 11.746 15.518 25.54 20.687 39.664 14.385-12.366 4.116-25.996.524-29.683-13.201l.023-.008-.196-.046a91.367 91.367 0 01-38.374-22.13c-2.814-2.73-5.085-6.597-7.654-10.28zm-4.445 19.331c-27.65 5.724-17.983 16.287-7.734 35.473 1.93 1.952 4.128 5.38 7.217 8.73 16.215 32.482 20.319 39.565 16.07 59.267-1.655 7.665 4.364 9.105 11.926 11.398a20.891 20.891 0 01-2.045-1.723c-5.092-1.899-9.2-4.525-8.595-9.258 4.093-32.107-8.17-36.893-16.031-58.28.559.59 1.16 1.195 1.742 1.792 9.323 19.565 19.519 31.51 16.907 43.073-2.473 10.961-.562 17.29 3.657 19.844a11.624 11.624 0 01-.414-.736c-2.91-3.338-3.216-10.33-2.052-16.991 2.83-16.18-4.912-23.317-16.923-43.984 4.304 4.357 8.99 8.672 12.949 11.83-.184-.229-.36-.451-.555-.685l-22.792-42.038c2.592-8.462 5.758-13.799 13.618-14.067 7.62.088 19.06 7.083 24.856 11.207a198.54 198.54 0 0012.68 8.377c-20.43-17.585-35.296-23.485-44.48-23.229zm-38.608 48.173l1.164 2.075c45.151 24.756 33.834 43.654 4.678 40.132-.402.268-.815.524-1.26.773a34.84 34.84 0 00-3.805-.51c34.929 6.716 50.96-14.445-.777-42.47zm38.267 36.142c-9.98 14.564-28.868 15.257-45.09 24.144-5.632 3.086-9.426 9.625-15.257 13.086h6.624c3.242-4.204 5.7-8.404 9.219-10.728 13.879-9.17 35.836-11.716 44.504-26.498z" fill="#352b2b"/><path d="M1437.97 72.106c-.531 3.977 1.257 6.696 2.275 7.651 0 0-3.648-.812-7.72-.266-16.343 1.044-25.17 5.719-29.01 13.682 2.829-1.385 4.71-1.56 6.353-1.43-3.746 4.842-5.555 8.597-6.226 11.712l5.483-3.57c-9.312 12.124-6.792 24.728-2.958 34.57 1.252-2.4 4.244-6.075 6.014-7.11-6.459 23.541 17.863 49.96 28.702 57.23 11.993 9.224 22.109 20.45 22.379 20.878 1.903 3.021 1.83 8.482 1.507 15.262 3.006-3.246 5.359-6.485 6.653-9.715 0 0-.895 6.763-.475 16.406.364 8.363 7.69 17.91 18.184 18.826 2.243-.01 8.5 2.96 8.5 2.96s-10.772-6.316-13.575-13.564c-2.803-7.248-1.784-40.912-1.784-40.912l3.467-35.938v-.002c.01-.035.016-.07.024-.105.202-.846.388-1.695.562-2.543.07-.343.133-.686.2-1.028.187-.98.357-1.963.507-2.949.056-.37.106-.742.157-1.114.074-.535.15-1.072.211-1.609v-.007c.1-.863.191-1.727.26-2.593 2.044-20.63-1.578-39.41-12.834-53.895-3.617-4.654-9.025-9.091-16.337-7.906 2.45-1.413 3.388-3.734 4.486-5.958-4.421-.58-8.368.464-11.79 3.305-1.8-2.589-6.359-9.348-13.215-10.268zm4.553 54.29c11.54-.079 15.048 12.592 14.271 19.613-1.742 7.522-5.964 12.316-5.964 12.316l-1.851-3.165c-2.067 4.301-2.245 8.11-7.595 13.267 0 0-4.128-3.369-7.503-11.857-3.376-8.487.875-13.543.875-13.543l-4.41 3.453c-.442-.531.37-18.286 12.177-20.083zM1335.723 100.164c1.838 5.437 2.634 11.188 6.662 15.966.241-1.413.65-2.336 1.57-3.748-.207 8.537 4.219 13.683 8.166 18.603 2.156-8.056 7.347-13.305 17.474-23.435z" fill="#dfc12a"/></svg>