<svg xmlns="http://www.w3.org/2000/svg" width="1000" height="250" viewBox="0 0 1000 250"><path d="M141.605 175.389c-2.475-1.768-.472-4.125 4.479-6.188 4.95-2.062 12.846-3.83 20.919-3.3 8.073.531 16.322 3.36 19.563 5.893 3.24 2.534 1.472 4.773-4.125 6.01-5.598 1.238-15.026 1.473-23.216 1.002-8.191-.471-15.144-1.65-17.62-3.417z" fill="#6f917c"/><path d="M145.682 169.632c-.025.01-.056.02-.082.031-4.95 2.063-6.954 4.42-4.478 6.188 2.475 1.768 9.428 2.947 17.619 3.418 8.19.471 17.62.235 23.217-1.002 3.208-.71 5.151-1.75 5.62-2.984-2.13-.486-6.02-.292-9.362-.14-3.86.178-6.982.295-12.315-.323-5.333-.619-12.875-1.973-17.295-3.74a20.362 20.362 0 01-2.924-1.448z" fill="#526b5c"/><path d="M164.134 165.7a50.362 50.362 0 00-8.3.725c1.622.843 4.26 1.08 7.25 1.373 3.004.295 6.363.648 9.368 1.031 3.006.383 5.656.796 8.22 1.032 1.116.102 2.194.153 3.155.12-4.053-1.971-10.404-3.774-16.68-4.187a44.955 44.955 0 00-3.013-.094z" fill="#8ea998"/><path d="M59.529 179.87c-3.097-1.208-3.248-2.719-2.72-4.72.529-2.003 1.737-4.495 4.797-6.12 3.06-1.624 7.969-2.379 14.843-2.454 6.873-.076 15.71.528 20.167 2.682 4.456 2.153 4.531 5.854.15 8.384-4.38 2.53-13.217 3.89-20.657 4.116-7.44.227-13.483-.68-16.58-1.888z" fill="#536c67"/><path d="M58.308 171.78c-1.162 1.31-1.764 2.761-2.096 4.02-.529 2.003-.379 3.514 2.719 4.723 3.097 1.208 9.14 2.114 16.58 1.887 7.44-.226 16.276-1.587 20.657-4.117 1.3-.75 2.198-1.605 2.715-2.49-1.759-.066-4.76.634-8.851 1.13-4.664.567-10.744.87-16.107.398-5.363-.472-10.009-1.72-12.766-3.324-1.27-.739-2.131-1.548-2.85-2.227z" fill="#3c4e4a"/><path d="M76.362 166.552c-3.396.037-6.309.243-8.76.635.045.048.094.095.149.14.945.774 3.4 1.076 7.724 1.605 4.324.528 10.517 1.284 15.37 2.096 3.817.64 6.8 1.31 8.876 1.237-.41-1.136-1.47-2.199-3.191-3.03-4.456-2.153-13.294-2.758-20.168-2.683z" fill="#71928b"/><path d="M122.538 209.393c-5.328-1.502-6.974-4.214-6.19-7.034.785-2.82 4.001-5.745 10.347-7.1 6.346-1.356 15.82-1.142 23.318.476 7.498 1.619 13.02 4.642 12.002 7.499-1.018 2.857-8.574 5.55-16.857 6.75-8.282 1.201-17.291.91-22.62-.591z" fill="#6f8a91"/><path d="M120.202 197.874c-2.134 1.361-3.362 2.992-3.807 4.59-.785 2.82.863 5.532 6.191 7.033 5.329 1.502 14.337 1.793 22.62.592 3.552-.515 6.933-1.314 9.76-2.273a117.09 117.09 0 00-5.335-.647c-5.45-.53-11.401-.825-16.351-1.797-4.95-.972-8.898-2.622-10.961-4.595-1.05-1.006-1.613-2.091-2.117-2.903z" fill="#506469"/><path d="M137.929 194.536a58.14 58.14 0 00-7.68.332c3.076 1.461 7.92 1.934 12.801 2.685 4.98.767 9.988 1.827 13.465 3.036 2.524.877 4.235 1.826 5.617 2.283.234-2.7-5.063-5.461-12.111-6.983-3.75-.809-7.993-1.267-12.092-1.353z" fill="#91a6ab"/><path d="M89.434 191.991c-1.275-1.6-1.427-4.14.344-6.042 1.77-1.903 5.463-3.169 10.402-3.018 4.94.15 11.126 1.717 15.763 3.25 4.636 1.534 7.723 3.034 6.614 4.574s-6.412 3.12-11.62 3.82c-5.209.7-10.322.518-14.077.097-3.755-.42-6.152-1.081-7.426-2.68z" fill="#545873"/><path d="M90.474 185.181c-.692.39-1.274.834-1.726 1.32-1.77 1.903-1.619 4.442-.344 6.041 1.275 1.6 3.67 2.261 7.426 2.682 3.755.42 8.868.602 14.076-.098 3.993-.536 8.026-1.591 10.197-2.748-2.4-.235-6.394-.186-10.705-.494-4.95-.353-10.313-1.18-13.613-2.27-3.3-1.09-4.537-2.444-5.156-3.976-.062-.153-.103-.303-.155-.457z" fill="#353748"/><path d="M100.397 183.094a22.236 22.236 0 00-4.263.27c.153.151.31.302.486.44 1.768 1.385 4.656 2.032 8.162 2.68 3.506.648 7.631 1.297 11.078 1.975 2.94.578 5.377 1.17 6.856 1.098-.806-1.072-3.292-2.134-6.555-3.213-4.636-1.534-10.824-3.1-15.764-3.25z" fill="#767a9b"/><g><path d="M164.05 189.962c-.237-1.312.942-3.04 3.24-4.128 2.299-1.087 5.716-1.535 11.786-1.28 6.07.257 14.79 1.217 17.324 2.688 2.533 1.472-1.12 3.456-6.954 4.512-5.833 1.056-13.847 1.184-18.679.8-4.832-.383-6.482-1.28-6.718-2.592z" fill="#535d6c"/><path d="M168.27 185.458c-.435.141-.846.295-1.217.47-2.298 1.088-3.478 2.815-3.242 4.127.236 1.312 1.887 2.208 6.719 2.592 4.832.384 12.846.255 18.68-.8a32.976 32.976 0 003.037-.704c-1.61-.273-3.47-.544-5.336-.809-4.36-.618-8.426-1.207-11.52-1.884-3.093-.678-5.215-1.445-6.453-2.387a6.381 6.381 0 01-.668-.605z" fill="#3e4651"/><path d="M176.746 184.463a49.13 49.13 0 00-3.246.053c.543.295 1.302.57 2.19.807 2.327.618 5.51.972 8.691 1.384 3.182.413 6.363.883 8.809 1.207 1.756.233 3.121.386 3.834.172v-.002c-.067-.302-.325-.595-.8-.87-2.533-1.473-11.254-2.432-17.323-2.688a79.04 79.04 0 00-2.155-.063z" fill="#6d7a8d"/></g><g><path d="M155.787 215.122c-.53-1.002.648-2.18 2.71-3.005 2.064-.825 5.01-1.297 7.131-1.12 2.122.178 3.418 1.003 3.948 2.063.53 1.061.294 2.358-1.297 3.182-1.59.825-4.536 1.178-7.13.943-2.592-.236-4.83-1.06-5.362-2.063z" fill="#7d81a0"/><path d="M158.792 212.117l-.12.045c-2.063.825-3.242 2.002-2.712 3.004.531 1.002 2.771 1.827 5.364 2.062 1.937.176 4.07.023 5.69-.41-.552-.267-1.301-.528-1.98-.797-1.414-.56-2.473-1.15-3.298-1.62-.825-.472-1.415-.826-1.975-1.415-.275-.289-.544-.633-.969-.869z" fill="#545873"/><path d="M164.97 210.938c-.32-.003-.656.011-.996.032.14.314.55.682 1.09 1.037 1.13.743 2.77 1.407 4.927 1.996a2.31 2.31 0 00-.242-.965c-.53-1.06-1.828-1.885-3.95-2.062a11.18 11.18 0 00-.83-.038z" fill="#a1a4ba"/></g><g><path d="M181.281 203.884c-1.986-.96-2.105-1.777-.774-2.865 1.33-1.087 4.11-2.445 7.625-3.254 3.515-.809 7.764-1.07 11.29-.988 3.525.083 6.326.509 7.237 1.865.911 1.356-.066 3.642-2.995 5.2-2.928 1.557-7.81 2.386-12.176 2.248-4.367-.138-8.22-1.245-10.207-2.206z" fill="#688e78"/><path d="M185.225 198.705c-2.011.73-3.59 1.587-4.493 2.324-1.33 1.087-1.21 1.904.776 2.865 1.986.961 5.838 2.067 10.205 2.205 4.14.131 8.723-.615 11.685-2.02-.816-.064-1.744-.123-2.794-.216-2.976-.265-6.394-.854-9.045-1.56-2.652-.708-4.537-1.532-5.51-2.534-.35-.36-.586-.727-.824-1.064z" fill="#52705e"/><path d="M199.262 196.706c-3.277-.074-7.199.157-10.51.855.463.235.989.425 1.54.583 2.21.633 4.817.745 7.027.882 2.21.138 4.024.303 6.32.413.921.044 1.92.073 2.883-.029a1.795 1.795 0 00-.299-.96c-.876-1.268-3.57-1.667-6.961-1.744z" fill="#8cab99"/></g><g><path d="M140.962 189.798c-2.887-.412-6.069-2.18-6.6-4.125-.53-1.945 1.59-4.066 5.009-4.596 3.418-.53 8.132.53 9.958 2.004 1.826 1.473.765 3.358-1.06 4.772-1.827 1.414-4.42 2.357-7.307 1.945z" fill="#6f6f91"/><path d="M136.594 182.1c-1.294.91-1.942 2.123-1.621 3.28.539 1.945 3.767 3.713 6.697 4.125a9.836 9.836 0 002.969-.04c.362-.105.8-.199 1.25-.286a10.065 10.065 0 002.246-.989c-.423-.228-1.254-.477-2.129-.748-1.525-.471-3.138-1.001-4.663-1.738-1.525-.736-2.96-1.68-4.067-2.828a14.56 14.56 0 01-.682-.775z" fill="#575772"/><path d="M141.41 181.108c.536.7 1.37 1.412 2.123 1.95 1.238.883 2.24 1.296 4.067 1.738.811.196 1.776.385 2.668.492.111-.714-.12-1.423-.903-2.055-1.49-1.201-4.893-2.111-7.955-2.125z" fill="#9595ae"/></g><g><path d="M110.132 219.026c-3.241-2.003-6.48-4.006-6.452-5.774.03-1.768 3.33-3.3 7.926-3.595 4.596-.294 10.489.649 13.14 2.358 2.65 1.709 2.062 4.184-.177 5.627-2.239 1.443-6.129 1.856-10.018 2.268l-4.42-.884z" fill="#885f44"/><path d="M107.573 210.325c-2.364.672-3.875 1.74-3.894 2.926-.03 1.768 3.212 3.772 6.453 5.775l4.418.885c3.426-.363 6.85-.729 9.148-1.797-1.598-.6-4.101-1.083-6.14-1.562-3.006-.707-4.95-1.415-6.424-2.8-1.238-1.162-2.15-2.792-3.56-3.427z" fill="#6d4c36"/><path d="M113.378 209.604c-.606 0-1.2.016-1.775.053a19.339 19.339 0 00-4.03.668c1.737.603 3.474 1.205 5.815 1.594 2.341.39 5.286.566 7.85 1.303 2.35.675 4.365 1.806 5.253 1.605.053-.98-.466-1.986-1.748-2.812-2.32-1.496-7.122-2.404-11.365-2.41z" fill="#b28364"/></g><g><path d="M50.441 208.302c-5.067-1.12-9.545-3.24-9.31-6.658.235-3.419 5.185-8.132 14.142-10.254 8.957-2.121 21.92-1.65 28.697 1.062 6.776 2.71 7.365 7.66 3.476 10.9-3.889 3.24-12.256 4.773-19.268 5.48-7.012.707-12.67.59-17.737-.53z" fill="#517b74"/><path d="M48.52 193.7c-4.693 2.302-7.263 5.333-7.43 7.724-.236 3.357 4.242 5.44 9.31 6.54 5.067 1.1 10.724 1.215 17.736.52 6.732-.667 14.701-2.083 18.77-5.011-3.207-.087-9.683.492-15.617.353-6.158-.145-11.696-1.071-15.496-2.402-3.801-1.331-5.864-3.067-6.72-5.296-.3-.784-.44-1.616-.554-2.429z" fill="#3e5f59"/><path d="M68.574 189.916c-4.599-.035-9.285.396-13.203 1.324-2.642.626-4.925 1.482-6.852 2.46.251.098.592.103 1.174.101 1.43-.005 4.29-.016 8.195-.05 3.905-.036 8.855-.094 12.774.054 3.918.147 6.806.5 8.957.912 2.15.413 3.564.884 5.597 1.385 1.401.345 3.083.69 4.194.447-.804-1.612-2.533-3.122-5.342-4.246-3.812-1.525-9.581-2.342-15.494-2.387z" fill="#70a198"/></g><g><path d="M71.89 216.493c.589-1.297 2.71-3.183 5.244-4.538 2.534-1.355 5.48-2.18 8.545-2.121 3.064.06 6.246 1.002 7.719 2.358 1.472 1.355 1.236 3.123-.413 4.537-1.65 1.413-4.714 2.474-8.25 2.828-3.535.353-7.541 0-10.016-.53-2.475-.53-3.418-1.237-2.83-2.534z" fill="#658d99"/><path d="M75.883 212.682c-1.977 1.253-3.542 2.744-4.034 3.826-.588 1.297.354 2.004 2.829 2.534 2.474.53 6.482.883 10.017.529 2.764-.277 5.23-.99 6.967-1.961-1.067-.435-2.946-.607-4.727-.896-2.357-.383-4.538-.972-6.394-1.561-1.856-.59-3.387-1.179-4.36-2.121-.112-.11-.199-.233-.298-.35z" fill="#4b6871"/><path d="M85.664 209.823c-2.225-.043-4.386.387-6.373 1.14.478.196 1.041.36 1.689.51 2.033.472 4.801.825 7.807 1.356 1.95.344 3.948.737 5.517.908-.107-.547-.402-1.078-.922-1.557-1.472-1.355-4.654-2.298-7.718-2.357z" fill="#93afb8"/></g><g><path d="M21.568 194.69c-1.827-1.236-3.477-3.475-3.536-5.833-.06-2.357 1.472-4.832 4.301-6.306 2.83-1.473 6.954-1.944 10.784-1.001 3.83.943 7.366 3.3 8.19 5.834.825 2.533-1.061 5.244-3.83 6.776s-6.422 1.885-9.25 1.944c-2.829.06-4.832-.176-6.66-1.413z" fill="#916f6f"/><path d="M21.076 183.433c-2.436 1.496-3.758 3.768-3.703 5.95.06 2.357 1.71 4.596 3.537 5.833s3.83 1.471 6.658 1.412c2.829-.059 6.481-.411 9.25-1.943a9.439 9.439 0 002.38-1.869c-1.427-.413-3.748-.439-5.913-.606-3.064-.235-5.775-.767-7.838-1.591-2.062-.825-3.477-1.944-4.037-4.301-.202-.851-.281-1.865-.334-2.885z" fill="#6a5151"/><path d="M28.827 181.15c-1.055.017-2.08.138-3.055.337.145.308.35.618.598.916.737.883 1.798 1.65 3.978 2.445 2.18.795 5.48 1.62 8.073 2.209 1.197.272 2.214.478 2.982.55-.013-.045-.022-.092-.037-.138-.824-2.534-4.36-4.889-8.19-5.832a17.157 17.157 0 00-4.35-.486z" fill="#b09898"/></g></svg>