<svg xmlns="http://www.w3.org/2000/svg" width="2250" height="250" viewBox="0 0 2250 250"><path d="M117.026 249.92s-9.546-2.474-10.96-3.535c-1.414-1.06-21.567-10.607-21.567-10.607l-18.385-21.92-4.242-28.638-13.789-15.556 9.546 5.303 5.657 6.364 3.89 8.84v18.03l3.181 5.304 4.243 6.01 8.131 11.667h3.89l6.717 3.182 6.364 6.01 10.253 4.243z" fill="#803300"/><path d="M117.026 249.92l20.86-3.888 30.052-18.739 3.535-25.102 4.95-22.274-7.07 18.385-.708 5.303-.707 16.264-6.01 5.656-3.536 3.182-7.425 7.071-11.313 4.95-8.84 4.243-11.313-.707z" fill="#c87137"/><path d="M109.955 244.617l2.121-12.728-7.07-14.142-10.254-13.435-11.667-15.91-7.425-19.799-10.253-9.546-10.606 2.122 8.839-3.536 9.546 4.596 6.364 6.01 2.474 9.547 3.89 11.667 6.717 5.303 6.01 3.89 4.95 8.131 1.414 6.01 8.84 14.85 3.535 4.95.707 8.131-1.06 9.193z" fill="#520"/><path d="M130.815 244.97l8.839-12.727 8.838-11.667 2.475-11.668s.707-21.566-.707-22.627c-1.414-1.06-12.728-10.253-12.728-10.253l10.253 4.95 4.95 4.95 1.414 6.717-.707 9.9-.707 8.838.707 3.89.354 3.535-3.89 7.071-7.778 9.9zM67.175 190.17l3.182-6.364.354-6.364-2.829-7.778-6.01 15.556z" fill="#784421"/><path d="M66.114 213.858l-7.778-7.424-7.424-10.96-9.193-9.193-5.303 3.89 4.95-5.658 6.717 2.829 5.657 7.778L67.175 208.2z" fill="#502d16"/><path d="M98.641 198.655l-1.414-11.313s-3.889-7.071-5.657-13.789c-1.767-6.717-3.535-11.667-3.535-11.667l7.07-8.839 6.718-3.536-2.474 2.829-4.243 5.303-2.121 4.243.353 6.717 4.596 9.9 4.243 9.9 1.414 18.384z" fill="#28170b"/><path d="M153.796 218.808l8.839-22.981-.354-12.374 12.02-16.971 7.779-15.91-6.364 7.071-8.839 12.021-8.132 9.9-7.778 29.344z" fill="#d38d5f"/><path d="M119.501 244.264l9.9-15.557-.354-9.192-3.182-13.789-11.314-16.263 6.364-24.042 14.142-18.384-4.242 10.606-3.182 6.364-2.122 7.778s-2.12 1.061-2.474 2.475c-.354 1.414-3.182 7.071-3.182 7.071v4.95l5.303 8.485 6.364 11.668 3.182 10.96-3.89 27.577z" fill="#520"/><path d="M113.844 227.647l2.475-11.668-1.768-14.142-2.828-14.142v-10.96l2.121 8.839 2.122 7.071 3.181 15.556-.353 6.364 1.768 7.778-3.182 10.253z" fill="#784421"/><path d="M158.745 179.563l-3.182-8.838-6.717-6.364-1.768-14.142 2.829 9.192 6.364 8.132z" fill="#a05a2c"/><path d="M171.473 202.19l6.01-5.302 3.183-9.546 1.768-13.789 1.414 13.435-3.536 12.374-10.606 12.728z" fill="#deaa87"/><path d="M117.026 249.92l-17.324.354-27.93-9.546-13.082-8.485-27.577-5.657-4.596-10.253 4.95 4.596 3.535 3.89 20.152 2.12h8.132l1.414 3.536 6.718 7.778 22.274 7.425 16.263-1.06z" fill="#2b1100"/><path d="M367.026 249.92s-9.546-2.474-10.96-3.535c-1.415-1.06-21.567-10.607-21.567-10.607l-18.385-21.92-4.243-28.638-13.788-15.556 9.546 5.303 5.657 6.364 3.889 8.84v18.03l3.182 5.304 4.242 6.01 8.132 11.667h3.89l6.717 3.182 6.364 6.01 10.253 4.243z" fill="#803300"/><path d="M367.026 249.92l20.86-3.888 30.051-18.739 3.536-25.102 4.95-22.274-7.071 18.385-.708 5.303-.707 16.264-6.01 5.656-3.536 3.182-7.424 7.071-11.314 4.95-8.839 4.243-11.313-.707z" fill="#c87137"/><path d="M359.955 244.617l2.12-12.728-7.07-14.142-10.253-13.435-11.667-15.91-7.425-19.799-10.253-9.546-10.607 2.122 8.84-3.536 9.545 4.596 6.364 6.01 2.475 9.547 3.889 11.667 6.717 5.303 6.01 3.89 4.95 8.131 1.415 6.01 8.839 14.85 3.535 4.95.707 8.131-1.06 9.193z" fill="#520"/><path d="M380.814 244.97l8.84-12.727 8.838-11.667 2.475-11.668s.707-21.566-.707-22.627c-1.415-1.06-12.728-10.253-12.728-10.253l10.253 4.95 4.95 4.95 1.414 6.717-.707 9.9-.707 8.838.707 3.89.353 3.535-3.889 7.071-7.778 9.9z" fill="#784421"/><path d="M316.114 213.858l-7.778-7.424-7.425-10.96-9.192-9.193-5.303 3.89 4.95-5.658 6.717 2.829 5.657 7.778 13.435 13.081z" fill="#502d16"/><path d="M348.64 198.655l-1.413-11.313s-3.89-7.071-5.657-13.789c-1.768-6.717-3.536-11.667-3.536-11.667l7.071-8.839 6.718-3.536-2.475 2.829-4.243 5.303-2.121 4.243.354 6.717 4.596 9.9 4.242 9.9 1.415 18.384z" fill="#28170b"/><path d="M403.795 218.808l8.84-22.981-.354-12.374 12.02-16.971 7.778-15.91-6.363 7.071-8.84 12.021-8.131 9.9-7.778 29.344z" fill="#d38d5f"/><path d="M369.5 244.264l9.9-15.557-.354-9.192-3.181-13.789-11.314-16.263 6.364-24.042 14.142-18.384-4.243 10.606-3.182 6.364-2.121 7.778s-2.121 1.061-2.475 2.475c-.353 1.414-3.182 7.071-3.182 7.071v4.95l5.303 8.485 6.364 11.668 3.182 10.96-3.889 27.577z" fill="#520"/><path d="M363.844 227.647l2.475-11.668-1.768-14.142-2.829-14.142v-10.96l2.122 8.839 2.121 7.071 3.182 15.556-.354 6.364 1.768 7.778-3.182 10.253z" fill="#784421"/><path d="M408.745 179.563l-3.182-8.838-6.718-6.364-1.767-14.142 2.828 9.192 6.364 8.132z" fill="#a05a2c"/><path d="M421.473 202.19l6.01-5.302 3.182-9.546 1.768-13.789 1.414 13.435-3.535 12.374-10.607 12.728z" fill="#deaa87"/><path d="M367.026 249.92l-17.324.354-27.931-9.546-13.082-8.485-27.577-5.657-4.596-10.253 4.95 4.596 3.535 3.89 20.153 2.12h8.132l1.414 3.536 6.717 7.778 22.274 7.425 16.264-1.06z" fill="#2b1100"/><path d="M617.025 249.92s-9.546-2.474-10.96-3.535c-1.414-1.06-21.567-10.607-21.567-10.607l-18.384-21.92-4.243-28.638-13.789-15.556 9.546 5.303 5.657 6.364 3.89 8.84v18.03l3.181 5.304 4.243 6.01 8.132 11.667h3.889l6.717 3.182 6.364 6.01 10.253 4.243z" fill="#803300"/><path d="M617.025 249.92l20.86-3.888 30.052-18.739 3.536-25.102 4.95-22.274-7.072 18.385-.707 5.303-.707 16.264-6.01 5.656-3.536 3.182-7.425 7.071-11.313 4.95-8.84 4.243-11.313-.707z" fill="#c87137"/><path d="M609.954 244.617l2.122-12.728-7.072-14.142-10.253-13.435-11.667-15.91-7.424-19.799-10.254-9.546-10.606 2.122 8.839-3.536 9.546 4.596 6.364 6.01 2.475 9.547 3.889 11.667 6.717 5.303 6.01 3.89 4.95 8.131 1.414 6.01 8.84 14.85 3.535 4.95.707 8.131-1.06 9.193z" fill="#520"/><path d="M630.814 244.97l8.839-12.727 8.839-11.667 2.474-11.668s.708-21.566-.707-22.627c-1.414-1.06-12.728-10.253-12.728-10.253l10.253 4.95 4.95 4.95 1.414 6.717-.707 9.9-.707 8.838.707 3.89.354 3.535-3.89 7.071-7.777 9.9zM567.174 190.17l3.182-6.364.354-6.364-2.829-7.778-6.01 15.556z" fill="#784421"/><path d="M566.114 213.858l-7.779-7.424-7.424-10.96-9.193-9.193-5.303 3.89 4.95-5.658 6.717 2.829 5.657 7.778 13.435 13.081z" fill="#502d16"/><path d="M598.64 198.655l-1.414-11.313s-3.889-7.071-5.657-13.789c-1.767-6.717-3.535-11.667-3.535-11.667l7.071-8.839 6.717-3.536-2.474 2.829-4.243 5.303-2.121 4.243.353 6.717 4.596 9.9 4.243 9.9 1.414 18.384z" fill="#28170b"/><path d="M653.795 218.808l8.839-22.981-.354-12.374 12.02-16.971 7.78-15.91-6.365 7.071-8.839 12.021-8.131 9.9-7.779 29.344z" fill="#d38d5f"/><path d="M619.5 244.264l9.9-15.557-.354-9.192-3.182-13.789-11.314-16.263 6.364-24.042 14.143-18.384-4.243 10.606-3.182 6.364-2.121 7.778s-2.122 1.061-2.475 2.475c-.354 1.414-3.182 7.071-3.182 7.071v4.95l5.303 8.485 6.364 11.668 3.182 10.96-3.89 27.577z" fill="#520"/><path d="M613.843 227.647l2.475-11.668-1.768-14.142-2.828-14.142v-10.96l2.121 8.839 2.122 7.071 3.182 15.556-.354 6.364 1.768 7.778-3.182 10.253z" fill="#784421"/><path d="M658.745 179.563l-3.182-8.838-6.718-6.364-1.768-14.142 2.829 9.192 6.364 8.132z" fill="#a05a2c"/><path d="M671.473 202.19l6.01-5.302 3.182-9.546 1.768-13.789 1.414 13.435-3.536 12.374-10.606 12.728z" fill="#deaa87"/><path d="M617.025 249.92l-17.324.354-27.93-9.546-13.082-8.485-27.577-5.657-4.596-10.253 4.95 4.596 3.535 3.89 20.152 2.12h8.132l1.414 3.536 6.718 7.778 22.274 7.425 16.263-1.06z" fill="#2b1100"/><path d="M867.025 249.92s-9.546-2.474-10.96-3.535c-1.414-1.06-21.567-10.607-21.567-10.607l-18.384-21.92-4.243-28.638-13.789-15.556 9.546 5.303 5.657 6.364 3.89 8.84v18.03l3.181 5.304 4.243 6.01 8.132 11.667h3.889l6.717 3.182 6.364 6.01 10.253 4.243z" fill="#803300"/><path d="M867.025 249.92l20.86-3.888 30.052-18.739 3.536-25.102 4.95-22.274-7.072 18.385-.707 5.303-.707 16.264-6.01 5.656-3.536 3.182-7.425 7.071-11.313 4.95-8.84 4.243-11.313-.707z" fill="#c87137"/><path d="M859.954 244.617l2.122-12.728-7.072-14.142-10.253-13.435-11.667-15.91-7.424-19.799-10.254-9.546-10.606 2.122 8.839-3.536 9.546 4.596 6.364 6.01 2.474 9.547 3.89 11.667 6.717 5.303 6.01 3.89 4.95 8.131 1.414 6.01 8.84 14.85 3.535 4.95.707 8.131-1.06 9.193z" fill="#520"/><path d="M880.814 244.97l8.839-12.727 8.839-11.667 2.474-11.668s.708-21.566-.707-22.627c-1.414-1.06-12.728-10.253-12.728-10.253l10.253 4.95 4.95 4.95 1.414 6.717-.707 9.9-.707 8.838.707 3.89.354 3.535-3.89 7.071-7.777 9.9zM817.174 190.17l3.182-6.364.354-6.364-2.829-7.778-6.01 15.556z" fill="#784421"/><path d="M816.114 213.858l-7.779-7.424-7.424-10.96-9.193-9.193-5.303 3.89 4.95-5.658 6.717 2.829 5.657 7.778 13.435 13.081z" fill="#502d16"/><path d="M848.64 198.655l-1.414-11.313s-3.889-7.071-5.657-13.789c-1.767-6.717-3.535-11.667-3.535-11.667l7.071-8.839 6.717-3.536-2.474 2.829-4.243 5.303-2.121 4.243.353 6.717 4.596 9.9 4.243 9.9 1.414 18.384z" fill="#28170b"/><path d="M903.795 218.808l8.839-22.981-.354-12.374 12.02-16.971 7.78-15.91-6.365 7.071-8.839 12.021-8.131 9.9-7.779 29.344z" fill="#d38d5f"/><path d="M869.5 244.264l9.9-15.557-.354-9.192-3.182-13.789-11.314-16.263 6.364-24.042 14.143-18.384-4.243 10.606-3.182 6.364-2.121 7.778s-2.122 1.061-2.475 2.475c-.354 1.414-3.182 7.071-3.182 7.071v4.95l5.303 8.485 6.364 11.668 3.182 10.96-3.89 27.577z" fill="#520"/><path d="M863.843 227.647l2.475-11.668-1.768-14.142-2.828-14.142v-10.96l2.121 8.839 2.122 7.071 3.182 15.556-.354 6.364 1.768 7.778-3.182 10.253z" fill="#784421"/><path d="M908.745 179.563l-3.182-8.838-6.718-6.364-1.768-14.142 2.829 9.192 6.364 8.132z" fill="#a05a2c"/><path d="M921.473 202.19l6.01-5.302 3.182-9.546 1.768-13.789 1.414 13.435-3.536 12.374-10.606 12.728z" fill="#deaa87"/><path d="M867.025 249.92l-17.324.354-27.93-9.546-13.082-8.485-27.577-5.657-4.596-10.253 4.95 4.596 3.535 3.89 20.152 2.12h8.132l1.414 3.536 6.718 7.778 22.274 7.425 16.263-1.06z" fill="#2b1100"/><path d="M1117.025 249.92s-9.546-2.474-10.96-3.535c-1.414-1.06-21.567-10.607-21.567-10.607l-18.384-21.92-4.243-28.638-13.789-15.556 9.546 5.303 5.657 6.364 3.89 8.84v18.03l3.181 5.304 4.243 6.01 8.132 11.667h3.889l6.717 3.182 6.364 6.01 10.253 4.243z" fill="#803300"/><path d="M1117.025 249.92l20.86-3.888 30.052-18.739 3.536-25.102 4.95-22.274-7.072 18.385-.707 5.303-.707 16.264-6.01 5.656-3.536 3.182-7.425 7.071-11.313 4.95-8.84 4.243-11.313-.707z" fill="#c87137"/><path d="M1109.954 244.617l2.121-12.728-7.07-14.142-10.254-13.435-11.667-15.91-7.425-19.799-10.253-9.546-10.606 2.122 8.839-3.536 9.546 4.596 6.364 6.01 2.475 9.547 3.889 11.667 6.717 5.303 6.01 3.89 4.95 8.131 1.414 6.01 8.84 14.85 3.535 4.95.707 8.131-1.06 9.193z" fill="#520"/><path d="M1130.814 244.97l8.839-12.727 8.839-11.667 2.474-11.668s.708-21.566-.707-22.627c-1.414-1.06-12.728-10.253-12.728-10.253l10.253 4.95 4.95 4.95 1.414 6.717-.707 9.9-.707 8.838.707 3.89.354 3.535-3.89 7.071-7.777 9.9zM1067.174 190.17l3.182-6.364.354-6.364-2.829-7.778-6.01 15.556z" fill="#784421"/><path d="M1066.114 213.858l-7.779-7.424-7.424-10.96-9.193-9.193-5.303 3.89 4.95-5.658 6.717 2.829 5.657 7.778 13.435 13.081z" fill="#502d16"/><path d="M1098.64 198.655l-1.414-11.313s-3.889-7.071-5.657-13.789c-1.767-6.717-3.535-11.667-3.535-11.667l7.071-8.839 6.718-3.536-2.475 2.829-4.243 5.303-2.121 4.243.353 6.717 4.596 9.9 4.243 9.9 1.414 18.384z" fill="#28170b"/><path d="M1153.795 218.808l8.839-22.981-.354-12.374 12.02-16.971 7.78-15.91-6.365 7.071-8.839 12.021-8.131 9.9-7.779 29.344z" fill="#d38d5f"/><path d="M1119.5 244.264l9.9-15.557-.354-9.192-3.182-13.789-11.314-16.263 6.364-24.042 14.143-18.384-4.243 10.606-3.182 6.364-2.121 7.778s-2.122 1.061-2.475 2.475c-.354 1.414-3.182 7.071-3.182 7.071v4.95l5.303 8.485 6.364 11.668 3.182 10.96-3.89 27.577z" fill="#520"/><path d="M1113.843 227.647l2.475-11.668-1.768-14.142-2.828-14.142v-10.96l2.121 8.839 2.122 7.071 3.182 15.556-.354 6.364 1.768 7.778-3.182 10.253z" fill="#784421"/><path d="M1158.745 179.563l-3.182-8.838-6.718-6.364-1.768-14.142 2.829 9.192 6.364 8.132z" fill="#a05a2c"/><path d="M1171.473 202.19l6.01-5.302 3.182-9.546 1.768-13.789 1.414 13.435-3.536 12.374-10.606 12.728z" fill="#deaa87"/><path d="M1117.025 249.92l-17.324.354-27.93-9.546-13.082-8.485-27.577-5.657-4.596-10.253 4.95 4.596 3.535 3.89 20.152 2.12h8.132l1.414 3.536 6.718 7.778 22.274 7.425 16.263-1.06z" fill="#2b1100"/><path d="M1367.026 249.92s-9.546-2.474-10.96-3.535c-1.415-1.06-21.567-10.607-21.567-10.607l-18.385-21.92-4.243-28.638-13.788-15.556 9.546 5.303 5.657 6.364 3.889 8.84v18.03l3.182 5.304 4.242 6.01 8.132 11.667h3.89l6.717 3.182 6.364 6.01 10.253 4.243z" fill="#803300"/><path d="M1367.026 249.92l20.86-3.888 30.051-18.739 3.536-25.102 4.95-22.274-7.071 18.385-.707 5.303-.708 16.264-6.01 5.656-3.536 3.182-7.424 7.071-11.314 4.95-8.839 4.243-11.313-.707z" fill="#c87137"/><path d="M1359.955 244.617l2.12-12.728-7.07-14.142-10.253-13.435-11.667-15.91-7.425-19.799-10.253-9.546-10.607 2.122 8.84-3.536 9.545 4.596 6.364 6.01 2.475 9.547 3.889 11.667 6.718 5.303 6.01 3.89 4.95 8.131 1.414 6.01 8.839 14.85 3.535 4.95.707 8.131-1.06 9.193z" fill="#520"/><path d="M1380.814 244.97l8.84-12.727 8.838-11.667 2.475-11.668s.707-21.566-.707-22.627c-1.415-1.06-12.728-10.253-12.728-10.253l10.253 4.95 4.95 4.95 1.414 6.717-.707 9.9-.707 8.838.707 3.89.353 3.535-3.889 7.071-7.778 9.9zM1317.175 190.17l3.182-6.364.353-6.364-2.828-7.778-6.01 15.556z" fill="#784421"/><path d="M1316.114 213.858l-7.778-7.424-7.425-10.96-9.192-9.193-5.303 3.89 4.95-5.658 6.717 2.829 5.657 7.778 13.435 13.081z" fill="#502d16"/><path d="M1348.64 198.655l-1.413-11.313s-3.89-7.071-5.657-13.789c-1.768-6.717-3.536-11.667-3.536-11.667l7.071-8.839 6.718-3.536-2.475 2.829-4.243 5.303-2.121 4.243.354 6.717 4.596 9.9 4.242 9.9 1.415 18.384z" fill="#28170b"/><path d="M1403.795 218.808l8.84-22.981-.355-12.374 12.021-16.971 7.779-15.91-6.364 7.071-8.84 12.021-8.131 9.9-7.778 29.344z" fill="#d38d5f"/><path d="M1369.5 244.264l9.9-15.557-.354-9.192-3.181-13.789-11.314-16.263 6.364-24.042 14.142-18.384-4.243 10.606-3.182 6.364-2.121 7.778s-2.121 1.061-2.475 2.475c-.353 1.414-3.182 7.071-3.182 7.071v4.95l5.303 8.485 6.364 11.668 3.182 10.96-3.889 27.577z" fill="#520"/><path d="M1363.844 227.647l2.475-11.668-1.768-14.142-2.829-14.142v-10.96l2.122 8.839 2.121 7.071 3.182 15.556-.354 6.364 1.768 7.778-3.182 10.253z" fill="#784421"/><path d="M1408.745 179.563l-3.182-8.838-6.718-6.364-1.767-14.142 2.828 9.192 6.364 8.132z" fill="#a05a2c"/><path d="M1421.473 202.19l6.01-5.302 3.182-9.546 1.768-13.789 1.414 13.435-3.535 12.374-10.607 12.728z" fill="#deaa87"/><path d="M1367.026 249.92l-17.324.354-27.931-9.546-13.082-8.485-27.577-5.657-4.596-10.253 4.95 4.596 3.535 3.89 20.153 2.12h8.132l1.414 3.536 6.717 7.778 22.274 7.425 16.264-1.06z" fill="#2b1100"/><g><path d="M845.506 211.281c-.158.793-3.012-1.533-5.074-5.866-2.061-4.334-3.33-10.676-3.17-12.737.158-2.061 1.744.158 3.118 2.22 1.374 2.06 2.536 3.963 3.54 4.016 1.004.052 1.85-1.744 2.114-4.228.264-2.484-.053-5.655.423-5.18.476.477 1.744 4.599 3.964 5.972 2.22 1.374 5.39 0 9.143-1.797 3.752-1.797 8.086-4.017 9.301-3.752 1.216.264-.687 3.012-3.17 5.126-2.484 2.114-5.55 3.594-6.025 4.704-.475 1.11 1.639 1.85 4.863 1.955 3.223.106 7.557-.423 7.028.581-.528 1.005-5.92 3.541-7.24 5.709-1.32 2.167 1.427 3.964 4.968 5.444s7.875 2.642 7.77 3.434c-.107.793-4.652 1.216-8.668.635-4.017-.581-7.505-2.167-9.038-1.427-1.533.74-1.11 3.806-2.062 6.237-.951 2.43-3.277 4.227-4.545 3.382-1.268-.845-1.48-4.333-2.378-6.342-.898-2.009-2.483-2.537-3.699-3.382-1.216-.846-2.061-2.008-3.753-1.005-1.692 1.004-4.228 4.175-5.497 4.228-1.268.054-1.268-3.012-.476-5.76.793-2.749 2.379-5.18 1.692-6.924-.686-1.744-3.646-2.801-3.699-3.33-.053-.528 2.801-.528 5.497 1.428 2.695 1.956 5.232 5.867 5.073 6.66z" fill="#2f4620"/><path d="M837.778 191.863c-.279-.056-.468.17-.518.815-.146 1.896.925 7.399 2.701 11.644-2.546-1.633-5.075-1.627-5.025-1.129.053.53 3.013 1.586 3.7 3.33.686 1.744-.9 4.176-1.692 6.924-.793 2.749-.794 5.815.474 5.762 1.269-.053 3.807-3.225 5.498-4.229 1.692-1.003 2.537.16 3.752 1.004 1.216.846 2.802 1.375 3.7 3.383.898 2.009 1.108 5.497 2.377 6.342 1.268.845 3.595-.952 4.546-3.383.77-1.965.64-4.343 1.373-5.574l-.634-3.305-12.524-2.166 8.084-4.494 5.074-1.267-5.074-1.586-6.658.634-3.172-3.488-.469-2.426c-.854-.582-1.814-2.11-2.912-3.756-.944-1.417-1.989-2.91-2.601-3.035z" fill="#102310"/><path d="M430.312 199.362c-1.644-1.355-4.672-1.709-7.182-.59-2.51 1.12-4.5 3.713-7.744 5.01-3.245 1.296-7.744 1.296-6.749 2.298.995 1.001 7.485 3.005 12.373 3.064 4.889.058 8.177-1.827 9.69-3.948 1.515-2.12 1.255-4.478-.388-5.834z" fill="#aad400"/><path d="M430.312 199.362c-1.544 2.686-4.026 4.522-8.213 5.788-3.154.953-7.262 1.59-9.668 2.85 2.58.887 6.482 1.775 9.715 1.814 4.888.058 8.177-1.827 9.691-3.948 1.514-2.12 1.255-4.478-.389-5.834-.325-.268-.717-.483-1.136-.67z" fill="#8a0"/><path d="M351.665 222.14c1.12-.865 3.182-1.09 4.892-.377 1.709.714 3.064 2.368 5.274 3.194 2.21.827 5.274.827 4.597 1.466-.678.639-5.098 1.916-8.428 1.953-3.33.038-5.569-1.164-6.6-2.517-1.031-1.352-.854-2.855.265-3.72z" fill="#aad400"/><path d="M351.665 222.14c1.052 1.712 2.742 2.883 5.594 3.69 2.148.608 4.946 1.014 6.585 1.817-1.758.566-4.415 1.132-6.617 1.157-3.33.037-5.57-1.165-6.6-2.517-1.032-1.353-.856-2.856.264-3.72.222-.172.488-.309.774-.428z" fill="#8a0"/><path d="M308.69 232.243c1.065 1.494 3.307 2.114 5.349 1.224 2.042-.89 3.883-3.291 6.503-4.291 2.62-1 6.02-.601 5.398-1.686-.621-1.084-5.264-3.653-8.95-4.145-3.685-.493-6.415 1.09-7.835 3.064s-1.531 4.34-.466 5.834z" fill="#aad400"/><path d="M308.69 232.243c1.516-2.533 3.63-4.138 6.958-5.024 2.507-.668 5.694-.937 7.676-1.974-1.835-1.112-4.667-2.341-7.104-2.667-3.686-.493-6.416 1.09-7.836 3.063-1.42 1.974-1.532 4.341-.466 5.835.21.296.479.545.771.767z" fill="#8a0"/><path d="M377.632 164.007c-.9-.864-2.556-1.09-3.93-.376-1.373.714-2.462 2.367-4.237 3.194-1.775.826-4.237.826-3.692 1.465.544.64 4.095 1.917 6.77 1.954 2.674.038 4.473-1.165 5.302-2.517.829-1.352.687-2.855-.213-3.72z" fill="#aad400"/><path d="M377.632 164.007c-.845 1.712-2.203 2.883-4.494 3.69-1.725.608-3.973 1.015-5.29 1.817 1.413.566 3.547 1.133 5.316 1.157 2.675.038 4.474-1.164 5.303-2.517.828-1.352.687-2.855-.213-3.72a2.637 2.637 0 00-.622-.427z" fill="#8a0"/><path d="M377.632 164.007c1.05-.987 2.984-1.245 4.587-.43 1.602.816 2.873 2.704 4.945 3.648s4.945.944 4.31 1.674c-.636.73-4.78 2.188-7.902 2.231-3.121.043-5.221-1.33-6.188-2.875-.967-1.544-.801-3.26.248-4.248z" fill="#aad400"/><path d="M377.632 164.007c.986 1.956 2.571 3.293 5.245 4.215 2.014.694 4.637 1.158 6.174 2.075-1.649.646-4.14 1.293-6.204 1.321-3.122.043-5.222-1.33-6.189-2.874-.967-1.545-.801-3.262.248-4.249a3.08 3.08 0 01.726-.488z" fill="#8a0"/><path d="M400.967 235.778c-.202-1.662-1.835-3.514-4.019-4.253-2.184-.738-4.918-.361-7.652-1.401s-5.469-3.496-5.453-2.387c.015 1.108 2.782 5.781 5.718 8.483 2.937 2.701 6.044 3.432 8.212 3.062 2.167-.37 3.396-1.841 3.194-3.504z" fill="#aad400"/><path d="M400.967 235.778c-2.518.673-5.106.354-8.395-1.218-2.478-1.183-5.35-3.066-7.552-3.67 1.047 1.91 2.896 4.541 4.838 6.328 2.936 2.701 6.044 3.433 8.211 3.063 2.168-.37 3.397-1.842 3.195-3.504a3.646 3.646 0 00-.297-.999z" fill="#8a0"/><path d="M400.967 235.778c-.09-1.92 1.333-4.023 3.56-4.817 2.229-.795 5.26-.281 8.028-1.41 2.767-1.128 5.272-3.899 5.461-2.614.19 1.285-1.938 6.624-4.615 9.674-2.678 3.05-5.907 3.81-8.324 3.32-2.416-.49-4.02-2.231-4.11-4.153z" fill="#aad400"/><path d="M400.967 235.778c2.851.85 5.595.554 8.865-1.176 2.463-1.302 5.223-3.404 7.496-4.042-.778 2.185-2.292 5.183-4.063 7.2-2.678 3.049-5.907 3.81-8.323 3.32-2.416-.49-4.02-2.23-4.111-4.152-.018-.38.04-.766.136-1.15z" fill="#8a0"/><path d="M347.227 187.342c.16-1.391-.779-2.795-2.367-3.194-1.59-.4-3.828.204-5.795-.394-1.966-.599-3.661-2.4-3.862-1.46-.2.94 1.094 4.62 2.902 6.61 1.807 1.988 4.129 2.286 5.918 1.746 1.788-.54 3.044-1.918 3.204-3.308z" fill="#aad400"/><path d="M347.227 187.342c-2.124.833-4.114.831-6.418-.161-1.736-.748-3.65-2.048-5.28-2.33.463 1.512 1.423 3.554 2.619 4.87 1.808 1.988 4.13 2.286 5.918 1.746 1.788-.54 3.045-1.917 3.204-3.308a2.694 2.694 0 00-.043-.817z" fill="#8a0"/><path d="M347.227 187.342c-1.085-1.389-.988-3.49.472-4.931 1.46-1.44 4.284-2.22 6.024-4.113 1.74-1.895 2.397-4.905 3.23-4.025.834.88 1.844 5.648 1.188 8.93-.656 3.284-2.978 5.081-5.272 5.642-2.293.561-4.558-.115-5.642-1.503z" fill="#aad400"/><path d="M347.227 187.342c2.849-.461 5.005-1.73 6.853-4.261 1.392-1.907 2.614-4.52 4.195-5.861.49 1.916.789 4.715.355 6.886-.657 3.283-2.979 5.082-5.272 5.643-2.293.56-4.558-.115-5.643-1.504a3.39 3.39 0 01-.488-.903z" fill="#8a0"/><path d="M417.541 175.13c1.025-1.312.856-3.115-.637-4.206-1.494-1.092-4.312-1.47-6.097-2.924-1.785-1.454-2.539-3.983-3.332-3.138-.794.846-1.627 5.066-.865 7.83.762 2.765 3.12 4.075 5.405 4.321 2.287.246 4.502-.573 5.526-1.884z" fill="#aad400"/><path d="M417.541 175.13c-2.832-.102-5.007-.973-6.921-2.966-1.442-1.5-2.74-3.628-4.35-4.621-.418 1.704-.616 4.15-.112 5.979.762 2.765 3.12 4.075 5.405 4.321 2.287.246 4.502-.572 5.527-1.883.202-.26.343-.542.451-.83z" fill="#8a0"/><path d="M317.175 190.17c-.658 1.606-2.474 2.507-4.376 1.897-1.903-.609-3.89-2.728-6.307-3.37-2.416-.642-5.261.192-4.914-.954.348-1.146 3.888-4.272 6.963-5.234 3.074-.963 5.684.237 7.238 1.991 1.555 1.754 2.054 4.064 1.396 5.67z" fill="#aad400"/><path d="M317.175 190.17c-1.732-2.29-3.818-3.592-6.822-4.03-2.263-.33-5.04-.18-6.916-.942 1.383-1.33 3.6-2.906 5.633-3.543 3.075-.963 5.685.237 7.24 1.991 1.554 1.754 2.053 4.065 1.395 5.67-.13.318-.318.598-.53.854z" fill="#8a0"/><path d="M628.161 219.514c1.002-1.12-.648-5.833-1.473-8.898-.825-3.064-.825-4.478 0-3.889.825.59 2.475 3.182 4.066 6.01 1.59 2.83 3.123 5.893 4.478 6.423 1.355.53 2.533-1.473 4.419-3.89 1.886-2.416 4.478-5.244 6.01-5.479 1.533-.235 2.004 2.122 1.002 4.301-1.001 2.18-3.476 4.184-3.299 5.775.177 1.591 3.006 2.77 5.893 2.887 2.887.118 5.833-.825 7.719-.589 1.886.237 2.71 1.65 1.473 3.359-1.238 1.708-4.538 3.712-7.484 4.478-2.945.766-5.538.295-5.243 1.179.294.884 3.476 3.123 5.539 4.478 2.062 1.356 3.005 1.827 1.65 2.652-1.356.824-5.01 2.003-8.722 1.532-3.712-.471-7.483-2.593-9.251-2.003-1.769.59-1.533 3.89-2.711 5.597-1.178 1.709-3.77 1.826-4.36.118-.59-1.709.824-5.244-2.652-7.307-3.476-2.062-11.844-2.652-13.847-3.771-2.004-1.12 2.356-2.77 5.774-3.536s5.893-.648 6.01-2.18c.119-1.531-2.12-4.713-3.064-6.835-.943-2.121-.59-3.182 1.415-2.475 2.004.708 5.657 3.182 6.658 2.063z" fill="#3d5d24"/><path d="M585.913 189.463c-1.296.118-2.593-2.12-3.3-4.537-.708-2.416-.825-5.009-.53-6.836.294-1.827 1-2.888 1.472-2.71.472.177.708 1.591 1.71 3.3 1.002 1.709 2.77 3.712 3.005 5.951.235 2.239-1.061 4.714-2.357 4.832z" fill="#183f18"/><path d="M585.913 189.463c1.083 1.049 3.668.281 5.84-1.058 2.172-1.34 3.93-3.25 4.83-4.876.901-1.626.945-2.966.41-3.178-.534-.212-1.646.704-3.63 1.28-1.985.577-4.842.814-6.478 2.366-1.637 1.552-2.055 4.417-.972 5.466zM535 224.818c-1.437 1.806-5.1 1.59-8.227.447-3.127-1.143-5.715-3.213-7.087-5.17-1.372-1.955-1.528-3.795-.797-4.263.732-.467 2.348.436 5.16.585 2.81.148 6.816-.457 9.21 1.155 2.394 1.611 3.18 5.44 1.742 7.246z" fill="#183f18"/><path d="M581.847 239.911c-.21-.979-.628-2.938-.551-5.982.076-3.043.647-7.17 1.525-9.8.877-2.63 2.06-3.762 2.513-3.631.453.13.176 1.522.49 3.635.313 2.113 1.216 4.947 1.683 6.736.468 1.79.5 2.534.92 2.348.421-.186 1.232-1.302 1.994-2.677.763-1.375 1.477-3.009 2.482-3.947 1.005-.938 2.3-1.18 3.16-2.036.858-.856 1.28-2.329 1.798-1.996.518.333 1.131 2.47 1.161 4.072.03 1.603-.522 2.67-1.251 3.932-.73 1.262-1.639 2.718-1.542 3.236.097.517 1.198.098 2.761-.434 1.563-.533 3.587-1.178 5.393-2.56 1.807-1.381 3.396-3.5 4.165-3.402.769.099.717 2.414.019 4.42-.699 2.006-2.045 3.704-4.417 4.923-2.373 1.22-5.773 1.96-6.89 2.436-1.118.477.047.688 2.03 1.257 1.982.57 4.782 1.495 7.193 1.636 2.412.14 4.436-.505 4.75-.108.316.397-1.078 1.836-3.321 3.031-2.244 1.195-5.337 2.147-8.202 2.305-2.865.16-5.503-.475-7.444-1.4-1.942-.925-3.187-2.14-4.264-2.02-1.077.12-1.986 1.575-3.54 2.723-1.556 1.147-3.758 1.986-6.291 1.627-2.533-.359-5.396-1.916-5.614-2.653-.218-.737 2.21-.654 4.234-1.299 2.024-.645 3.644-2.019 4.455-2.706.81-.687.81-.687.601-1.666z" fill="#3d5d24"/><path d="M658.745 179.563c-1.296.648-4.243-.766-6.836-4.596s-4.832-10.076-4.89-11.608c-.06-1.532 2.062 1.65 4.478 4.125s5.127 4.242 6.658 6.482c1.532 2.239 1.885 4.95.59 5.597zM661.003 176.656c-1.237.178-.216-2.553 1.001-4.92 1.218-2.367 2.632-4.37 3.988-6.197 1.355-1.827 2.651-3.477 3.358-5.068.708-1.59.825-3.122 1.18-2.65.353.47.942 2.946.765 5.361-.177 2.416-1.12 4.773-3.339 7.493-2.22 2.72-5.715 5.804-6.953 5.981z" fill="#558232"/><path d="M661.003 176.656c3.097-.936 6.194-1.873 8.803-3.284 2.609-1.41 4.73-3.296 7.205-4.357 2.476-1.06 5.304-1.296 5.834-.825.53.471-1.238 1.65-2.593 3.3-1.356 1.65-2.299 3.772-5.437 4.711-3.14.94-8.475.697-13.812.455M648.655 183.92c.06-.825-3.516-.373-6.54-1.03-3.026-.659-5.5-2.426-7.917-2.898-2.416-.472-4.773.353-5.42.883-.649.53.412.767 1.944 1.65 1.532.885 3.535 2.417 5.362 3.595 1.827 1.179 3.477 2.004 6.148 1.365 2.67-.639 6.364-2.74 6.423-3.565z" fill="#558232"/><path d="M625.51 171.785c-.47.825-2.592-.354-4.3-2.18-1.71-1.826-3.006-4.301-2.535-5.127.472-.825 2.711 0 4.42 1.827 1.708 1.827 2.887 4.656 2.416 5.48z" fill="#3d5d24"/><path d="M625.51 171.785c-1.12-1.001-.216-3.633 1.002-5.303s2.75-2.378 4.517-4.204c1.768-1.827 3.771-4.773 4.655-4.596.884.177.648 3.477 0 6.305-.648 2.829-1.709 5.186-3.81 6.678-2.101 1.493-5.243 2.122-6.363 1.12z" fill="#3d5d24"/><path d="M618.145 178.031c-.648 1.296-3.948 1.532-6.07 1.06-2.12-.47-3.064-1.649-3.948-3.416-.884-1.768-1.709-4.125-.589-4.833 1.12-.707 4.184.236 6.718 1.886s4.537 4.007 3.889 5.303z" fill="#183f18"/><path d="M669.705 212.09c-.93-1.343-.074-3.54.933-4.528 1.008-.988 2.164-.768 3.435-.628s2.657.2 5.436-1.55c2.779-1.748 6.952-5.305 7.794-5.03.84.276-1.65 4.383-4.079 7.365-2.428 2.982-4.793 4.839-7.333 5.522-2.54.683-5.256.193-6.186-1.15z" fill="#558232"/><path d="M563.226 221.02c-1.827-.53-3.359-1.591-5.009-3.712-1.65-2.121-3.418-5.303-6.01-8.78-2.593-3.477-6.01-7.248-6.305-8.368-.295-1.12 2.534.413 4.95 2.298 2.416 1.886 4.419 4.125 5.597 4.714 1.178.59 1.531-.471 1.767-2.003s.354-3.535.943-6.07c.59-2.533 1.65-5.598 2.77-5.42 1.12.177 2.298 3.594 3.24 6.658.944 3.065 1.65 5.775 2.888 6.246 1.237.47 3.005-1.297 5.775-2.77 2.77-1.474 6.541-2.652 8.662-4.42 2.12-1.767 2.592-4.124 2.651-3.299.06.826-.294 4.832-1.708 7.601-1.415 2.77-3.89 4.301-4.478 5.362-.589 1.061.707 1.65 2.475 1.591 1.767-.059 4.007-.766 6.717-2.062 2.71-1.297 5.892-3.182 6.187-2.357.294.825-2.299 4.36-6.246 6.246-3.948 1.885-9.25 2.121-11.313 3.182-2.063 1.062-.884 2.947.53 4.302 1.415 1.355 3.065 2.18 1.768 2.357-1.296.176-5.539-.295-8.721-.53-3.182-.237-5.303-.237-7.13-.767z" fill="#183f18"/><path d="M546.576 199.902c-.262-.015-.385.1-.31.38.294 1.119 3.711 4.89 6.304 8.366 2.592 3.477 4.361 6.66 6.012 8.782 1.538 1.977 2.976 3.026 4.644 3.59.303.057.588.122.895.18.758.141 1.524.273 2.289.407 1.214.11 2.603.173 4.31.3.909.067 1.905.154 2.893.24.533-.132.902-.356 1.027-.712.56-1.59-3.566-5.714-4.215-8.72-.648-3.006 2.18-4.891 2.77-5.54.59-.647-1.061-.058-3.065.708-2.003.766-4.359 1.709-5.773 1.238-1.414-.47-1.886-2.357-2.358-2.299-.471.059-.944 2.064-2.24 1.18-.396-.27-.889-.862-1.424-1.568-.257.845-.675 1.283-1.523.859-1.178-.59-3.182-2.827-5.598-4.713-1.812-1.414-3.854-2.63-4.638-2.678z" fill="#0f260f"/><path d="M583.083 230.01l-1.236 9.901c.21.98.209.979-.602 1.666-.81.687-2.43 2.06-4.455 2.705-2.023.645-4.452.562-4.234 1.3.218.736 3.08 2.295 5.613 2.653 2.533.36 4.736-.481 6.291-1.629 1.555-1.147 2.464-2.602 3.541-2.722 1.078-.12 2.322 1.097 4.264 2.021 1.941.925 4.58 1.56 7.445 1.4 2.865-.158 5.958-1.109 8.201-2.304 2.244-1.195 3.638-2.636 3.323-3.033-.083-.105-.3-.132-.596-.125l-8.816 2.664-7.424-5.656-1.06-8.487-3.891 8.133zM640.712 216.686l-6.01 10.96-6.54-8.132 1.238 9.193-9.715-9.95c.08.343.207.727.404 1.17.943 2.12 3.182 5.304 3.065 6.835-.118 1.532-2.594 1.414-6.012 2.18-3.418.766-7.777 2.415-5.774 3.535 2.004 1.12 10.37 1.709 13.846 3.771 3.476 2.063 2.063 5.598 2.652 7.307.59 1.709 3.184 1.591 4.362-.117s.942-5.008 2.71-5.598c1.769-.59 5.539 1.531 9.25 2.002 3.713.471 7.366-.707 8.721-1.531.323-.196.508-.372.586-.545l-13.49-6.938 12.022-6.718-13.79 3.537z" fill="#183f18"/><path d="M519.436 215.71c-.214.003-.403.03-.546.122-.732.468-.576 2.308.796 4.264 1.373 1.955 3.96 4.027 7.086 5.17 3.127 1.143 6.791 1.358 8.229-.448l-11.844-4.949z" fill="#0f260f"/><path d="M878.161 219.514c1.002-1.12-.648-5.833-1.473-8.898-.825-3.064-.825-4.478 0-3.889.825.59 2.475 3.182 4.066 6.01 1.59 2.83 3.123 5.893 4.478 6.423 1.355.53 2.533-1.473 4.419-3.89 1.886-2.416 4.478-5.244 6.01-5.479 1.533-.235 2.004 2.122 1.002 4.301-1.001 2.18-3.476 4.184-3.299 5.775.177 1.591 3.006 2.77 5.893 2.887 2.887.118 5.833-.825 7.719-.589 1.886.237 2.71 1.65 1.473 3.359-1.238 1.708-4.538 3.712-7.484 4.478-2.945.766-5.538.295-5.243 1.179.294.884 3.476 3.123 5.539 4.478 2.062 1.356 3.005 1.827 1.65 2.652-1.356.824-5.01 2.003-8.722 1.532-3.712-.471-7.483-2.593-9.251-2.003-1.769.59-1.533 3.89-2.711 5.597-1.178 1.709-3.77 1.826-4.36.118-.59-1.709.824-5.244-2.652-7.307-3.476-2.062-11.844-2.652-13.847-3.771-2.004-1.12 2.356-2.77 5.774-3.536s5.893-.648 6.01-2.18c.119-1.531-2.12-4.713-3.064-6.835-.943-2.121-.59-3.182 1.415-2.475 2.004.708 5.657 3.182 6.658 2.063zM835.913 189.463c-1.296.118-2.593-2.12-3.3-4.537-.708-2.416-.825-5.009-.53-6.836.294-1.827 1-2.888 1.472-2.71.472.177.708 1.591 1.71 3.3 1.002 1.709 2.77 3.712 3.005 5.951.235 2.239-1.061 4.714-2.357 4.832z" fill="#2f4620"/><path d="M835.913 189.463c1.083 1.049 3.668.281 5.84-1.058 2.172-1.34 3.93-3.25 4.83-4.876.901-1.626.945-2.966.41-3.178-.534-.212-1.646.704-3.63 1.28-1.985.577-4.842.814-6.478 2.366-1.637 1.552-2.055 4.417-.972 5.466z" fill="#2f4620"/><path d="M785 224.818c-1.437 1.806-5.1 1.59-8.227.447-3.127-1.143-5.715-3.213-7.087-5.17-1.372-1.955-1.528-3.795-.797-4.263.732-.467 2.348.436 5.16.585 2.81.148 6.816-.457 9.21 1.155 2.394 1.611 3.18 5.44 1.742 7.246z" fill="#102310"/><path d="M831.847 239.911c-.21-.979-.628-2.938-.551-5.982.076-3.043.647-7.17 1.525-9.8.877-2.63 2.06-3.762 2.513-3.631.453.13.176 1.522.49 3.635.313 2.113 1.216 4.947 1.683 6.736.468 1.79.5 2.534.92 2.348.421-.186 1.232-1.302 1.994-2.677.763-1.375 1.477-3.009 2.482-3.947 1.005-.938 2.3-1.18 3.16-2.036.858-.856 1.28-2.329 1.798-1.996.518.333 1.131 2.47 1.161 4.072.03 1.603-.522 2.67-1.251 3.932-.73 1.262-1.639 2.718-1.542 3.236.097.517 1.198.098 2.761-.434 1.563-.533 3.587-1.178 5.393-2.56 1.807-1.381 3.396-3.5 4.165-3.402.769.099.717 2.414.019 4.42-.699 2.006-2.045 3.704-4.417 4.923-2.373 1.22-5.773 1.96-6.89 2.436-1.118.477.047.688 2.03 1.257 1.982.57 4.782 1.495 7.193 1.636 2.412.14 4.436-.505 4.75-.108.316.397-1.078 1.836-3.321 3.031-2.244 1.195-5.337 2.147-8.202 2.305-2.865.16-5.503-.475-7.444-1.4-1.942-.925-3.187-2.14-4.264-2.02-1.077.12-1.986 1.575-3.54 2.723-1.556 1.147-3.758 1.986-6.291 1.627-2.533-.359-5.396-1.916-5.614-2.653-.218-.737 2.21-.654 4.234-1.299 2.024-.645 3.644-2.019 4.455-2.706.81-.687.81-.687.601-1.666z" fill="#2f4620"/><path d="M908.745 179.563c-1.296.648-4.243-.766-6.836-4.596s-4.832-10.076-4.89-11.608c-.06-1.532 2.062 1.65 4.478 4.125s5.127 4.242 6.658 6.482c1.532 2.239 1.885 4.95.59 5.597zM911.003 176.656c-1.237.178-.216-2.553 1.001-4.92 1.218-2.367 2.632-4.37 3.988-6.197 1.355-1.827 2.651-3.477 3.358-5.068.708-1.59.825-3.122 1.18-2.65.353.47.942 2.946.765 5.361-.177 2.416-1.12 4.773-3.339 7.493-2.22 2.72-5.715 5.804-6.953 5.981z" fill="#44662f"/><path d="M911.003 176.656c3.097-.936 6.194-1.873 8.803-3.284 2.609-1.41 4.73-3.296 7.205-4.357 2.476-1.06 5.304-1.296 5.834-.825.53.471-1.238 1.65-2.593 3.3-1.356 1.65-2.299 3.772-5.437 4.711-3.14.94-8.475.697-13.812.455M900.908 184.98c.059-.825-3.516-.374-6.54-1.032-3.026-.657-5.5-2.425-7.917-2.897-2.416-.472-4.773.353-5.42.884-.649.53.412.766 1.944 1.65 1.532.884 3.535 2.416 5.362 3.595 1.827 1.178 3.477 2.003 6.148 1.364 2.67-.638 6.364-2.74 6.423-3.564z" fill="#44662f"/><path d="M875.51 171.785c-.47.825-2.592-.354-4.3-2.18-1.71-1.826-3.006-4.301-2.535-5.127.472-.825 2.711 0 4.42 1.827 1.708 1.827 2.887 4.656 2.416 5.48z" fill="#2f4620"/><path d="M875.51 171.785c-1.12-1.001-.216-3.633 1.002-5.303s2.75-2.378 4.517-4.204c1.768-1.827 3.771-4.773 4.655-4.596.884.177.648 3.477 0 6.305-.648 2.829-1.709 5.186-3.81 6.678-2.101 1.493-5.243 2.122-6.363 1.12zM868.145 178.031c-.648 1.296-3.948 1.532-6.07 1.06-2.12-.47-3.064-1.649-3.948-3.416-.884-1.768-1.709-4.125-.589-4.833 1.12-.707 4.184.236 6.718 1.886s4.537 4.007 3.889 5.303z" fill="#2f4620"/><path d="M919.705 212.09c-.93-1.343-.074-3.54.933-4.528 1.008-.988 2.164-.768 3.435-.628s2.657.2 5.436-1.55c2.779-1.748 6.952-5.305 7.794-5.03.84.276-1.65 4.383-4.079 7.365-2.428 2.982-4.793 4.839-7.333 5.522-2.54.683-5.256.193-6.186-1.15z" fill="#44662f"/><path d="M813.226 221.02c-1.827-.53-3.359-1.591-5.009-3.712-1.65-2.121-3.418-5.303-6.01-8.78-2.593-3.477-6.01-7.248-6.305-8.368-.295-1.12 2.534.413 4.95 2.298 2.416 1.886 4.419 4.125 5.597 4.714 1.178.59 1.531-.471 1.767-2.003s.354-3.535.943-6.07c.59-2.533 1.65-5.598 2.77-5.42 1.12.177 2.298 3.594 3.24 6.658.944 3.065 1.65 5.775 2.888 6.246 1.237.47 3.005-1.297 5.775-2.77 2.77-1.474 6.541-2.652 8.662-4.42 2.12-1.767 2.592-4.124 2.651-3.299.06.826-.294 4.832-1.708 7.601-1.415 2.77-3.89 4.301-4.478 5.362-.589 1.061.707 1.65 2.475 1.591 1.767-.059 4.007-.766 6.717-2.062 2.71-1.297 5.892-3.182 6.187-2.357.294.825-2.299 4.36-6.246 6.246-3.948 1.885-9.25 2.121-11.313 3.182-2.063 1.062-.884 2.947.53 4.302 1.415 1.355 3.065 2.18 1.768 2.357-1.296.176-5.539-.295-8.721-.53-3.182-.237-5.303-.237-7.13-.767z" fill="#102310"/><path d="M796.576 199.902c-.262-.015-.385.1-.31.38.294 1.119 3.711 4.89 6.304 8.366 2.592 3.477 4.361 6.66 6.012 8.782 1.538 1.977 2.976 3.026 4.644 3.59.303.057.588.122.895.18.758.141 1.524.273 2.289.407 1.214.11 2.603.173 4.31.3.909.067 1.905.154 2.893.24.533-.132.902-.356 1.027-.712.56-1.59-3.566-5.714-4.215-8.72-.648-3.006 2.18-4.891 2.77-5.54.59-.647-1.061-.058-3.065.708-2.003.766-4.359 1.709-5.773 1.238-1.414-.47-1.886-2.357-2.358-2.299-.471.059-.944 2.064-2.24 1.18-.396-.27-.889-.862-1.424-1.568-.257.845-.675 1.283-1.523.859-1.178-.59-3.182-2.827-5.598-4.713-1.812-1.414-3.854-2.63-4.638-2.678z" fill="#0a150a"/><path d="M833.083 230.01l-1.236 9.901c.21.98.209.979-.602 1.666-.81.687-2.43 2.06-4.455 2.705-2.023.645-4.452.562-4.234 1.3.218.736 3.08 2.295 5.613 2.653 2.533.36 4.736-.481 6.291-1.629 1.555-1.147 2.464-2.602 3.541-2.722 1.078-.12 2.322 1.097 4.264 2.021 1.941.925 4.58 1.56 7.445 1.4 2.865-.158 5.958-1.109 8.201-2.304 2.244-1.195 3.638-2.636 3.323-3.033-.083-.105-.3-.132-.596-.125l-8.816 2.664-7.424-5.656-1.06-8.487-3.891 8.133zM890.712 216.686l-6.01 10.96-6.54-8.132 1.238 9.193-9.715-9.95c.08.343.207.727.404 1.17.943 2.12 3.182 5.304 3.065 6.835-.118 1.532-2.594 1.414-6.012 2.18-3.418.766-7.777 2.415-5.774 3.535 2.004 1.12 10.37 1.709 13.846 3.771 3.476 2.063 2.063 5.598 2.652 7.307.59 1.709 3.184 1.591 4.362-.117s.942-5.008 2.71-5.598c1.769-.59 5.539 1.531 9.25 2.002 3.713.471 7.366-.707 8.721-1.531.323-.196.508-.372.586-.545l-13.49-6.938 12.022-6.718-13.79 3.537z" fill="#102310"/><path d="M769.436 215.71c-.214.003-.403.03-.546.122-.732.468-.576 2.308.796 4.264 1.373 1.955 3.96 4.027 7.086 5.17 3.127 1.143 6.791 1.358 8.229-.448l-11.844-4.949z" fill="#0a150a"/><path d="M1128.161 219.514c1.002-1.12-.648-5.833-1.473-8.898-.826-3.064-.826-4.478 0-3.889.825.59 2.475 3.182 4.066 6.01 1.591 2.83 3.123 5.893 4.478 6.423 1.355.53 2.533-1.473 4.419-3.89 1.886-2.416 4.478-5.244 6.01-5.479 1.533-.235 2.004 2.122 1.002 4.301-1.001 2.18-3.476 4.184-3.299 5.775.177 1.591 3.006 2.77 5.893 2.887 2.887.118 5.833-.825 7.719-.589 1.886.237 2.71 1.65 1.473 3.359-1.238 1.708-4.538 3.712-7.483 4.478-2.946.766-5.54.295-5.244 1.179.294.884 3.476 3.123 5.539 4.478 2.062 1.356 3.005 1.827 1.65 2.652-1.356.824-5.01 2.003-8.722 1.532-3.712-.471-7.483-2.593-9.251-2.003-1.769.59-1.533 3.89-2.711 5.597-1.178 1.709-3.77 1.826-4.36.118-.59-1.709.824-5.244-2.652-7.307-3.476-2.062-11.844-2.652-13.847-3.771-2.004-1.12 2.356-2.77 5.774-3.536s5.893-.648 6.01-2.18c.119-1.531-2.12-4.713-3.064-6.835-.943-2.121-.59-3.182 1.415-2.475 2.004.708 5.657 3.182 6.658 2.063zM1085.913 189.463c-1.296.118-2.593-2.121-3.3-4.537-.707-2.416-.825-5.009-.53-6.836.294-1.827 1-2.888 1.472-2.71.472.177.708 1.591 1.71 3.3 1.002 1.709 2.77 3.712 3.005 5.951.235 2.239-1.061 4.714-2.357 4.832z" fill="#f95"/><path d="M1085.913 189.463c1.083 1.049 3.668.281 5.84-1.058 2.172-1.34 3.93-3.25 4.83-4.876.901-1.626.945-2.966.41-3.178-.534-.212-1.646.704-3.63 1.28-1.985.577-4.842.814-6.478 2.366-1.637 1.552-2.055 4.417-.972 5.466z" fill="#f95"/><path d="M1035.001 224.818c-1.438 1.806-5.102 1.59-8.228.447-3.127-1.143-5.715-3.213-7.087-5.17-1.372-1.955-1.528-3.795-.797-4.263.732-.467 2.348.436 5.16.585 2.81.148 6.816-.457 9.21 1.155 2.394 1.611 3.18 5.44 1.742 7.246z" fill="#da6d25"/><path d="M1081.847 239.911c-.21-.979-.628-2.938-.551-5.982.076-3.043.647-7.17 1.524-9.8.878-2.63 2.06-3.762 2.514-3.631.453.13.176 1.522.49 3.635.313 2.113 1.216 4.947 1.683 6.736.467 1.79.499 2.534.92 2.348.42-.186 1.231-1.302 1.994-2.677.762-1.375 1.476-3.009 2.482-3.947 1.005-.938 2.3-1.18 3.159-2.036.858-.856 1.281-2.329 1.799-1.996.518.333 1.13 2.47 1.16 4.072.03 1.603-.521 2.67-1.251 3.932-.73 1.262-1.638 2.718-1.541 3.236.097.517 1.198.098 2.76-.434 1.563-.533 3.588-1.178 5.394-2.56 1.806-1.381 3.395-3.5 4.164-3.402.77.099.718 2.414.02 4.42-.7 2.006-2.045 3.704-4.418 4.923-2.372 1.22-5.773 1.96-6.89 2.436-1.117.477.048.688 2.03 1.257 1.983.57 4.782 1.495 7.194 1.636 2.411.14 4.436-.505 4.75-.108.315.397-1.079 1.836-3.322 3.031-2.243 1.195-5.336 2.147-8.201 2.305-2.865.16-5.503-.475-7.445-1.4-1.941-.925-3.186-2.14-4.263-2.02-1.078.12-1.986 1.575-3.541 2.723-1.555 1.147-3.758 1.986-6.29 1.627-2.533-.359-5.397-1.916-5.614-2.653-.218-.737 2.21-.654 4.234-1.299 2.024-.645 3.644-2.019 4.454-2.706.81-.687.811-.687.602-1.666z" fill="#f95"/><path d="M1158.745 179.563c-1.296.648-4.242-.766-6.836-4.596-2.593-3.83-4.832-10.076-4.89-11.608-.06-1.532 2.062 1.65 4.478 4.125s5.127 4.242 6.658 6.482c1.532 2.239 1.885 4.95.59 5.597zM1161.003 176.656c-1.237.178-.216-2.553 1.001-4.92 1.218-2.367 2.632-4.37 3.988-6.197 1.355-1.827 2.651-3.477 3.359-5.068.707-1.59.824-3.122 1.178-2.65.354.47.943 2.946.766 5.361-.177 2.416-1.12 4.773-3.339 7.493-2.22 2.72-5.715 5.804-6.953 5.981z" fill="#ffb380"/><path d="M1161.003 176.656c3.097-.936 6.194-1.873 8.803-3.284 2.609-1.41 4.73-3.296 7.205-4.357 2.476-1.06 5.304-1.296 5.834-.825.53.471-1.238 1.65-2.593 3.3-1.356 1.65-2.299 3.772-5.437 4.711-3.14.94-8.475.697-13.812.455M1155.111 180.84c.06-.825-3.516-.374-6.54-1.031-3.025-.658-5.5-2.426-7.916-2.898-2.417-.472-4.774.353-5.421.884-.648.53.412.766 1.944 1.65 1.532.885 3.536 2.417 5.363 3.595 1.826 1.178 3.476 2.003 6.147 1.365 2.671-.639 6.364-2.74 6.423-3.565z" fill="#ffb380"/><path d="M1125.51 171.785c-.47.825-2.592-.354-4.3-2.18-1.71-1.826-3.006-4.301-2.535-5.127.472-.825 2.711 0 4.42 1.827 1.708 1.827 2.887 4.656 2.416 5.48z" fill="#f95"/><path d="M1125.51 171.785c-1.12-1.001-.216-3.633 1.002-5.303s2.75-2.378 4.517-4.204c1.768-1.827 3.771-4.773 4.655-4.596.884.177.648 3.477 0 6.305-.648 2.829-1.709 5.186-3.81 6.678-2.1 1.493-5.243 2.122-6.363 1.12zM1118.145 178.031c-.648 1.296-3.948 1.531-6.07 1.06-2.12-.47-3.064-1.649-3.948-3.416-.884-1.768-1.709-4.125-.589-4.833 1.12-.707 4.184.236 6.718 1.886s4.537 4.007 3.889 5.303z" fill="#f95"/><path d="M1169.705 212.09c-.93-1.343-.073-3.54.934-4.528 1.007-.988 2.163-.768 3.434-.628 1.271.14 2.657.2 5.436-1.55 2.779-1.748 6.953-5.304 7.794-5.03.84.276-1.65 4.383-4.079 7.365-2.428 2.982-4.793 4.839-7.333 5.522-2.54.683-5.256.193-6.186-1.15z" fill="#ffb380"/><path d="M1063.226 221.02c-1.827-.53-3.359-1.591-5.009-3.712-1.65-2.121-3.418-5.303-6.01-8.78-2.593-3.477-6.01-7.248-6.305-8.368-.294-1.12 2.534.413 4.95 2.298 2.415 1.886 4.419 4.125 5.597 4.714 1.178.59 1.531-.471 1.767-2.003s.354-3.535.943-6.07c.59-2.533 1.65-5.598 2.77-5.42 1.12.177 2.298 3.594 3.241 6.658.943 3.065 1.65 5.775 2.887 6.246 1.237.47 3.005-1.297 5.775-2.77 2.77-1.474 6.541-2.652 8.662-4.42 2.12-1.767 2.592-4.124 2.651-3.299.06.826-.294 4.832-1.708 7.601-1.415 2.77-3.89 4.301-4.478 5.362-.589 1.061.707 1.65 2.475 1.591 1.767-.059 4.007-.766 6.717-2.062 2.71-1.297 5.892-3.182 6.187-2.357.294.825-2.299 4.36-6.246 6.246-3.948 1.885-9.25 2.121-11.313 3.182-2.063 1.062-.884 2.947.53 4.302 1.415 1.355 3.065 2.18 1.768 2.357-1.296.176-5.539-.295-8.721-.53-3.182-.237-5.303-.237-7.13-.767z" fill="#f95"/><path d="M1046.576 199.902c-.262-.015-.384.1-.31.38.294 1.119 3.711 4.89 6.304 8.366 2.593 3.477 4.361 6.66 6.012 8.782 1.538 1.977 2.976 3.026 4.644 3.59.303.057.588.122.895.18.759.141 1.524.273 2.289.407 1.215.11 2.603.173 4.31.3.909.067 1.905.154 2.893.24.534-.132.902-.356 1.027-.712.56-1.59-3.566-5.714-4.215-8.72-.648-3.006 2.18-4.891 2.77-5.54.59-.647-1.061-.058-3.065.708-2.003.766-4.359 1.709-5.773 1.238-1.414-.47-1.886-2.357-2.357-2.299-.472.059-.945 2.064-2.24 1.18-.397-.27-.89-.862-1.424-1.568-.258.845-.676 1.283-1.524.859-1.178-.59-3.182-2.827-5.598-4.713-1.811-1.414-3.854-2.63-4.638-2.678zM1083.083 230.01l-1.236 9.901c.21.98.209.979-.602 1.666-.81.687-2.43 2.06-4.455 2.705-2.023.645-4.452.562-4.234 1.3.218.736 3.08 2.295 5.613 2.653 2.533.36 4.736-.481 6.291-1.629 1.555-1.147 2.464-2.602 3.541-2.722 1.078-.12 2.322 1.097 4.264 2.021 1.941.925 4.58 1.56 7.445 1.4 2.865-.158 5.958-1.109 8.201-2.304 2.244-1.195 3.638-2.636 3.323-3.033-.083-.105-.299-.132-.596-.125l-8.816 2.664-7.424-5.656-1.06-8.487-3.891 8.133zM1140.712 216.686l-6.01 10.96-6.54-8.132 1.238 9.193-9.715-9.95c.08.343.207.727.404 1.17.943 2.12 3.182 5.304 3.065 6.835-.118 1.532-2.594 1.414-6.012 2.18-3.418.766-7.777 2.415-5.774 3.535 2.004 1.12 10.37 1.709 13.846 3.771 3.476 2.063 2.063 5.598 2.652 7.307.59 1.709 3.184 1.591 4.362-.117s.942-5.008 2.71-5.598c1.77-.59 5.539 1.531 9.25 2.002 3.713.471 7.366-.707 8.721-1.531.323-.196.508-.372.586-.545l-13.49-6.938 12.022-6.718-13.79 3.537z" fill="#da6d25"/><path d="M1019.437 215.71c-.215.003-.404.03-.547.122-.732.468-.576 2.308.796 4.264 1.373 1.955 3.96 4.027 7.086 5.17 3.127 1.143 6.791 1.358 8.229-.448l-11.844-4.949z" fill="#aa551d"/><path d="M1430.311 199.362c-1.643-1.355-4.672-1.709-7.182-.59-2.51 1.12-4.5 3.713-7.744 5.01-3.244 1.296-7.743 1.296-6.748 2.298.995 1.001 7.484 3.005 12.373 3.064 4.888.058 8.176-1.827 9.69-3.948 1.514-2.12 1.255-4.478-.389-5.834z" fill="#ffb380"/><path d="M1430.311 199.362c-1.544 2.686-4.026 4.522-8.213 5.788-3.153.953-7.261 1.59-9.667 2.85 2.58.887 6.482 1.775 9.714 1.814 4.889.058 8.178-1.827 9.692-3.948 1.514-2.12 1.255-4.478-.389-5.834-.326-.268-.717-.483-1.137-.67zM1351.665 222.14c1.12-.865 3.182-1.09 4.891-.377 1.71.714 3.065 2.368 5.275 3.194 2.21.827 5.274.827 4.596 1.466-.678.639-5.098 1.916-8.427 1.954-3.33.037-5.569-1.165-6.6-2.518-1.032-1.352-.855-2.855.265-3.72z" fill="#f95"/><path d="M1351.665 222.14c1.051 1.712 2.742 2.883 5.593 3.69 2.149.608 4.947 1.014 6.585 1.817-1.758.566-4.415 1.132-6.616 1.157-3.33.037-5.57-1.165-6.601-2.517-1.032-1.353-.855-2.856.264-3.72.222-.172.489-.309.775-.428z" fill="#aa551d"/><path d="M1308.689 232.243c1.065 1.494 3.308 2.114 5.35 1.224 2.042-.89 3.883-3.291 6.503-4.292 2.62-1 6.02-.6 5.398-1.685-.622-1.084-5.264-3.653-8.95-4.145-3.685-.493-6.415 1.09-7.835 3.064s-1.531 4.34-.466 5.834z" fill="#da6d25"/><path d="M1308.689 232.243c1.516-2.533 3.63-4.138 6.959-5.024 2.507-.668 5.694-.937 7.676-1.974-1.835-1.112-4.667-2.341-7.104-2.667-3.686-.493-6.417 1.09-7.837 3.063-1.42 1.974-1.531 4.341-.466 5.835.211.296.48.545.772.767z" fill="#aa551d"/><path d="M1377.632 164.007c-.9-.864-2.556-1.09-3.93-.376-1.373.714-2.462 2.367-4.237 3.194-1.775.826-4.237.826-3.693 1.465.545.64 4.096 1.917 6.77 1.954 2.675.038 4.474-1.165 5.303-2.517.828-1.352.686-2.855-.213-3.72z" fill="#f95"/><path d="M1377.632 164.007c-.845 1.712-2.203 2.883-4.494 3.69-1.726.608-3.973 1.015-5.29 1.817 1.412.566 3.547 1.133 5.316 1.157 2.674.038 4.474-1.164 5.303-2.517.828-1.352.686-2.855-.213-3.72a2.638 2.638 0 00-.622-.427z" fill="#da6d25"/><path d="M1377.632 164.007c1.05-.987 2.983-1.245 4.586-.43 1.603.816 2.874 2.704 4.945 3.648 2.072.944 4.945.944 4.31 1.674-.636.73-4.78 2.188-7.901 2.231-3.122.043-5.221-1.33-6.188-2.875-.968-1.544-.802-3.26.248-4.248z" fill="#f95"/><path d="M1377.632 164.007c.986 1.956 2.57 3.293 5.245 4.215 2.013.694 4.637 1.158 6.173 2.075-1.648.646-4.14 1.293-6.203 1.321-3.122.043-5.222-1.33-6.19-2.874-.966-1.545-.8-3.262.249-4.249.208-.196.458-.352.726-.488z" fill="#da6d25"/><path d="M1400.966 235.778c-.201-1.662-1.834-3.514-4.018-4.253-2.184-.738-4.918-.361-7.652-1.401-2.735-1.04-5.47-3.496-5.454-2.387.016 1.108 2.782 5.781 5.719 8.483 2.937 2.701 6.044 3.432 8.211 3.062 2.168-.37 3.396-1.841 3.194-3.504z" fill="#ffb380"/><path d="M1400.966 235.778c-2.517.673-5.105.354-8.395-1.218-2.477-1.183-5.35-3.066-7.552-3.67 1.047 1.91 2.896 4.541 4.838 6.328 2.937 2.701 6.044 3.433 8.212 3.063 2.167-.37 3.396-1.842 3.194-3.504a3.646 3.646 0 00-.297-.999z" fill="#f95"/><path d="M1400.966 235.779c-.09-1.922 1.334-4.024 3.562-4.818 2.227-.795 5.259-.281 8.026-1.41 2.768-1.128 5.273-3.899 5.462-2.614.189 1.285-1.938 6.624-4.616 9.674s-5.907 3.81-8.323 3.32c-2.416-.49-4.02-2.231-4.11-4.152z" fill="#ffb380"/><path d="M1400.966 235.778c2.852.85 5.596.554 8.865-1.176 2.463-1.302 5.224-3.404 7.497-4.042-.779 2.185-2.292 5.183-4.063 7.2-2.678 3.049-5.907 3.81-8.323 3.32-2.417-.49-4.02-2.23-4.111-4.152-.018-.38.04-.766.135-1.15zM1347.226 187.342c.16-1.391-.778-2.795-2.367-3.194-1.589-.4-3.827.204-5.794-.394-1.967-.599-3.662-2.4-3.862-1.46-.2.94 1.093 4.62 2.901 6.61 1.808 1.988 4.13 2.286 5.918 1.746 1.789-.54 3.045-1.918 3.204-3.308z" fill="#f95"/><path d="M1347.226 187.342c-2.124.833-4.113.831-6.418-.161-1.735-.748-3.65-2.048-5.279-2.33.463 1.512 1.423 3.554 2.618 4.87 1.808 1.988 4.13 2.286 5.918 1.746 1.789-.54 3.045-1.917 3.205-3.308.032-.276.01-.549-.043-.817z" fill="#da6d25"/><path d="M1347.226 187.342c-1.084-1.389-.988-3.49.473-4.931 1.46-1.44 4.284-2.22 6.024-4.113 1.74-1.895 2.397-4.905 3.23-4.025.834.88 1.844 5.648 1.188 8.93-.657 3.284-2.979 5.081-5.272 5.642-2.293.561-4.558-.115-5.643-1.503z" fill="#f95"/><path d="M1347.226 187.342c2.85-.461 5.005-1.73 6.853-4.261 1.392-1.907 2.615-4.52 4.196-5.861.49 1.916.788 4.715.354 6.886-.656 3.283-2.978 5.082-5.271 5.643-2.293.56-4.559-.115-5.643-1.504a3.39 3.39 0 01-.489-.903z" fill="#aa551d"/><path d="M1417.541 175.13c1.024-1.312.856-3.115-.638-4.206-1.493-1.092-4.311-1.47-6.097-2.924-1.785-1.454-2.538-3.983-3.332-3.138-.793.846-1.627 5.066-.865 7.83.762 2.765 3.12 4.075 5.406 4.321 2.286.246 4.502-.573 5.526-1.884z" fill="#ffb380"/><path d="M1417.541 175.13c-2.832-.102-5.008-.973-6.921-2.966-1.442-1.5-2.741-3.628-4.35-4.621-.419 1.704-.617 4.15-.113 5.979.763 2.765 3.12 4.075 5.406 4.321 2.286.246 4.502-.572 5.526-1.883.203-.26.344-.542.452-.83z" fill="#f95"/><path d="M1317.174 190.17c-.658 1.606-2.473 2.507-4.376 1.897-1.902-.609-3.89-2.728-6.306-3.37-2.416-.642-5.261.192-4.914-.954.348-1.146 3.888-4.272 6.962-5.234 3.075-.963 5.684.237 7.239 1.991 1.554 1.754 2.053 4.064 1.395 5.67z" fill="#da6d25"/><path d="M1317.174 190.17c-1.732-2.29-3.818-3.592-6.822-4.03-2.262-.33-5.04-.18-6.915-.942 1.382-1.33 3.6-2.906 5.633-3.543 3.075-.963 5.685.237 7.239 1.991 1.554 1.754 2.054 4.065 1.396 5.67-.13.318-.318.598-.53.854z" fill="#aa551d"/><path d="M912.634 195.827c-.599-1.593.523-3.187 2.206-3.774 1.682-.586 3.926-.167 5.683.084 1.757.252 3.028.336 4.187-.251 1.158-.587 2.205-1.845 2.317-1.426.112.42-.71 2.516-2.393 4.486-1.682 1.97-4.224 3.815-6.654 3.941-2.43.126-4.748-1.467-5.346-3.06zM933.847 186.988c1.019-1.566 3.056-4.698 4.888-6.76 1.832-2.064 3.459-3.056 4.696-4.463 1.236-1.407 2.083-3.229 2.61-2.984.527.245.736 2.556.852 4.941.116 2.385.14 4.843-.579 7.016-.718 2.173-2.177 4.059-4.549 4.647-2.371.588-5.654-.122-7.296-.476-1.64-.355-1.64-.355-.622-1.92z" fill="#44662f"/><path d="M843.337 168.603c-2.166-.21-5.76-2.008-7.874-4.122-2.115-2.113-2.749-4.544-3.33-6.553-.582-2.008-1.11-3.594-.634-3.33.476.265 1.955 2.379 3.488 3.7 1.533 1.32 3.119 1.85 5.127 3.012 2.008 1.163 4.44 2.96 5.284 4.545.845 1.586.105 2.96-2.06 2.748z" fill="#102310"/><path d="M843.337 168.603c-1.268-.792-1.163-3.54-.423-5.338.74-1.797 2.114-2.643 3.911-4.65 1.797-2.009 4.017-5.18 4.862-5.18.846 0 .317 3.172-.211 5.973-.529 2.8-1.057 5.232-2.642 7.028-1.586 1.797-4.228 2.96-5.497 2.167zM817.174 190.17c-1.215.053-1.744-2.272-1.744-3.7 0-1.427.529-1.956 2.061-4.492 1.533-2.537 4.07-7.082 5.285-8.086 1.216-1.004 1.11 1.533.793 4.017-.317 2.484-.846 4.915-2.061 7.346-1.216 2.43-3.118 4.862-4.334 4.915z" fill="#2f4620"/><path d="M817.174 190.17c-1.955 1.638-7.134 1.744-11.204.476s-7.029-3.91-8.668-6.342c-1.639-2.431-1.956-4.65-1.427-4.915.53-.264 1.903 1.427 4.176 2.22 2.273.791 5.444.686 8.35.633 2.907-.053 5.55-.053 7.505 1.533 1.955 1.586 3.223 4.757 1.268 6.395z" fill="#102310"/><path d="M874.103 196.183c-.423-1.533 1.162-2.485 3.277-2.273 2.114.212 4.757 1.586 7.24 2.061 2.484.476 4.81.053 5.232.529.423.475-1.057 1.85-3.118 2.906-2.061 1.057-4.703 1.797-7.24 1.11-2.537-.686-4.968-2.8-5.391-4.333z" fill="#2f4620"/><path d="M808.689 232.243c-2.166-.211-5.76-2.008-7.875-4.122-2.114-2.114-2.748-4.545-3.33-6.553-.58-2.009-1.11-3.594-.633-3.33.475.265 1.955 2.378 3.488 3.7 1.533 1.32 3.118 1.849 5.127 3.012 2.008 1.163 4.44 2.96 5.284 4.545.845 1.585.105 2.96-2.061 2.748z" fill="#102310"/><path d="M808.689 232.243c-1.269-.792-1.163-3.54-.423-5.338.74-1.797 2.114-2.643 3.911-4.651 1.797-2.008 4.016-5.18 4.862-5.179.846 0 .317 3.171-.211 5.972-.529 2.801-1.057 5.233-2.643 7.029-1.585 1.796-4.227 2.96-5.496 2.167z" fill="#2f4620"/></g></svg>