<svg xmlns="http://www.w3.org/2000/svg" width="2250" height="250" viewBox="0 0 2250 250"><path d="M117.026 249.92s-9.546-2.474-10.96-3.535c-1.414-1.06-21.567-10.607-21.567-10.607l-18.385-21.92-4.242-28.638-13.789-15.556 9.546 5.303 5.657 6.364 3.89 8.84v18.03l3.181 5.304 4.243 6.01 8.131 11.667h3.89l6.717 3.182 6.364 6.01 10.253 4.243z" fill="#803300"/><path d="M117.026 249.92l20.86-3.888 30.052-18.739 3.535-25.102 4.95-22.274-7.07 18.385-.708 5.303-.707 16.264-6.01 5.656-3.536 3.182-7.425 7.071-11.313 4.95-8.84 4.243-11.313-.707z" fill="#c87137"/><path d="M109.955 244.617l2.121-12.728-7.07-14.142-10.254-13.435-11.667-15.91-7.425-19.799-10.253-9.546-10.606 2.122 8.839-3.536 9.546 4.596 6.364 6.01 2.474 9.547 3.89 11.667 6.717 5.303 6.01 3.89 4.95 8.131 1.414 6.01 8.84 14.85 3.535 4.95.707 8.131-1.06 9.193z" fill="#520"/><path d="M130.815 244.97l8.839-12.727 8.838-11.667 2.475-11.668s.707-21.566-.707-22.627c-1.414-1.06-12.728-10.253-12.728-10.253l10.253 4.95 4.95 4.95 1.414 6.717-.707 9.9-.707 8.838.707 3.89.354 3.535-3.89 7.071-7.778 9.9zM67.175 190.17l3.182-6.364.354-6.364-2.829-7.778-6.01 15.556z" fill="#784421"/><path d="M66.114 213.858l-7.778-7.424-7.424-10.96-9.193-9.193-5.303 3.89 4.95-5.658 6.717 2.829 5.657 7.778L67.175 208.2z" fill="#502d16"/><path d="M98.641 198.655l-1.414-11.313s-3.889-7.071-5.657-13.789c-1.767-6.717-3.535-11.667-3.535-11.667l7.07-8.839 6.718-3.536-2.474 2.829-4.243 5.303-2.121 4.243.353 6.717 4.596 9.9 4.243 9.9 1.414 18.384z" fill="#28170b"/><path d="M153.796 218.808l8.839-22.981-.354-12.374 12.02-16.971 7.779-15.91-6.364 7.071-8.839 12.021-8.132 9.9-7.778 29.344z" fill="#d38d5f"/><path d="M119.501 244.264l9.9-15.557-.354-9.192-3.182-13.789-11.314-16.263 6.364-24.042 14.142-18.384-4.242 10.606-3.182 6.364-2.122 7.778s-2.12 1.061-2.474 2.475c-.354 1.414-3.182 7.071-3.182 7.071v4.95l5.303 8.485 6.364 11.668 3.182 10.96-3.89 27.577z" fill="#520"/><path d="M113.844 227.647l2.475-11.668-1.768-14.142-2.828-14.142v-10.96l2.121 8.839 2.122 7.071 3.181 15.556-.353 6.364 1.768 7.778-3.182 10.253z" fill="#784421"/><path d="M158.745 179.563l-3.182-8.838-6.717-6.364-1.768-14.142 2.829 9.192 6.364 8.132z" fill="#a05a2c"/><path d="M171.473 202.19l6.01-5.302 3.183-9.546 1.768-13.789 1.414 13.435-3.536 12.374-10.606 12.728z" fill="#deaa87"/><path d="M117.026 249.92l-17.324.354-27.93-9.546-13.082-8.485-27.577-5.657-4.596-10.253 4.95 4.596 3.535 3.89 20.152 2.12h8.132l1.414 3.536 6.718 7.778 22.274 7.425 16.263-1.06z" fill="#2b1100"/><path d="M367.026 249.92s-9.546-2.474-10.96-3.535c-1.415-1.06-21.567-10.607-21.567-10.607l-18.385-21.92-4.243-28.638-13.788-15.556 9.546 5.303 5.657 6.364 3.889 8.84v18.03l3.182 5.304 4.242 6.01 8.132 11.667h3.89l6.717 3.182 6.364 6.01 10.253 4.243z" fill="#803300"/><path d="M367.026 249.92l20.86-3.888 30.051-18.739 3.536-25.102 4.95-22.274-7.071 18.385-.708 5.303-.707 16.264-6.01 5.656-3.536 3.182-7.424 7.071-11.314 4.95-8.839 4.243-11.313-.707z" fill="#c87137"/><path d="M359.955 244.617l2.12-12.728-7.07-14.142-10.253-13.435-11.667-15.91-7.425-19.799-10.253-9.546-10.607 2.122 8.84-3.536 9.545 4.596 6.364 6.01 2.475 9.547 3.889 11.667 6.717 5.303 6.01 3.89 4.95 8.131 1.415 6.01 8.839 14.85 3.535 4.95.707 8.131-1.06 9.193z" fill="#520"/><path d="M380.814 244.97l8.84-12.727 8.838-11.667 2.475-11.668s.707-21.566-.707-22.627c-1.415-1.06-12.728-10.253-12.728-10.253l10.253 4.95 4.95 4.95 1.414 6.717-.707 9.9-.707 8.838.707 3.89.353 3.535-3.889 7.071-7.778 9.9z" fill="#784421"/><path d="M316.114 213.858l-7.778-7.424-7.425-10.96-9.192-9.193-5.303 3.89 4.95-5.658 6.717 2.829 5.657 7.778 13.435 13.081z" fill="#502d16"/><path d="M348.64 198.655l-1.413-11.313s-3.89-7.071-5.657-13.789c-1.768-6.717-3.536-11.667-3.536-11.667l7.071-8.839 6.718-3.536-2.475 2.829-4.243 5.303-2.121 4.243.354 6.717 4.596 9.9 4.242 9.9 1.415 18.384z" fill="#28170b"/><path d="M403.795 218.808l8.84-22.981-.354-12.374 12.02-16.971 7.778-15.91-6.363 7.071-8.84 12.021-8.131 9.9-7.778 29.344z" fill="#d38d5f"/><path d="M369.5 244.264l9.9-15.557-.354-9.192-3.181-13.789-11.314-16.263 6.364-24.042 14.142-18.384-4.243 10.606-3.182 6.364-2.121 7.778s-2.121 1.061-2.475 2.475c-.353 1.414-3.182 7.071-3.182 7.071v4.95l5.303 8.485 6.364 11.668 3.182 10.96-3.889 27.577z" fill="#520"/><path d="M363.844 227.647l2.475-11.668-1.768-14.142-2.829-14.142v-10.96l2.122 8.839 2.121 7.071 3.182 15.556-.354 6.364 1.768 7.778-3.182 10.253z" fill="#784421"/><path d="M408.745 179.563l-3.182-8.838-6.718-6.364-1.767-14.142 2.828 9.192 6.364 8.132z" fill="#a05a2c"/><path d="M421.473 202.19l6.01-5.302 3.182-9.546 1.768-13.789 1.414 13.435-3.535 12.374-10.607 12.728z" fill="#deaa87"/><path d="M367.026 249.92l-17.324.354-27.931-9.546-13.082-8.485-27.577-5.657-4.596-10.253 4.95 4.596 3.535 3.89 20.153 2.12h8.132l1.414 3.536 6.717 7.778 22.274 7.425 16.264-1.06z" fill="#2b1100"/><path d="M616.04 249.983s-9.546-2.475-10.96-3.536c-1.414-1.06-21.567-10.606-21.567-10.606l-18.384-21.92-4.243-28.638-13.789-15.557 9.546 5.304 5.657 6.363 3.89 8.84v18.03l3.181 5.304 4.243 6.01 8.132 11.668h3.889l6.717 3.181 6.364 6.01 10.253 4.244z" fill="#803300"/><path d="M616.04 249.983l20.86-3.89 30.052-18.738 3.536-25.102 4.95-22.274-7.072 18.385-.707 5.303-.707 16.264-6.01 5.657-3.536 3.182-7.425 7.07-11.313 4.95-8.84 4.243-11.313-.707z" fill="#c87137"/><path d="M608.97 244.68l2.12-12.728-7.07-14.143-10.254-13.435-11.667-15.91-7.424-19.798-10.254-9.546-10.606 2.12 8.839-3.535 9.546 4.597 6.364 6.01 2.475 9.546 3.889 11.667 6.717 5.304 6.01 3.889 4.95 8.131 1.414 6.01 8.84 14.85 3.535 4.95.707 8.131-1.06 9.193z" fill="#520"/><path d="M629.829 245.033l8.839-12.728 8.839-11.667 2.474-11.667s.708-21.567-.707-22.628c-1.414-1.06-12.728-10.253-12.728-10.253l10.253 4.95 4.95 4.95 1.414 6.717-.707 9.9-.707 8.839.707 3.889.354 3.535-3.89 7.071-7.777 9.9zM566.19 190.232l3.181-6.364.354-6.364-2.829-7.778-6.01 15.557z" fill="#784421"/><path d="M565.129 213.92l-7.779-7.424-7.424-10.96-9.193-9.193-5.303 3.89 4.95-5.658 6.717 2.829 5.657 7.778 13.435 13.082z" fill="#502d16"/><path d="M597.656 198.718l-1.415-11.314s-3.889-7.071-5.657-13.789c-1.767-6.717-3.535-11.667-3.535-11.667l7.071-8.839 6.717-3.535-2.474 2.828-4.243 5.303-2.121 4.243.353 6.718 4.596 9.9 4.243 9.899 1.414 18.384z" fill="#28170b"/><path d="M652.81 218.87l8.839-22.98-.354-12.375 12.02-16.97 7.78-15.91-6.365 7.07-8.839 12.021-8.131 9.9-7.779 29.345z" fill="#d38d5f"/><path d="M618.515 244.326l9.9-15.556-.354-9.193-3.182-13.788-11.314-16.264 6.364-24.041 14.143-18.385-4.243 10.606-3.182 6.364-2.121 7.779s-2.122 1.06-2.475 2.474c-.354 1.415-3.182 7.071-3.182 7.071v4.95l5.303 8.486 6.364 11.667 3.182 10.96-3.89 27.577z" fill="#520"/><path d="M612.858 227.709l2.475-11.667-1.768-14.142-2.828-14.143v-10.96l2.121 8.84 2.122 7.07 3.182 15.557-.354 6.363 1.768 7.779-3.182 10.253z" fill="#784421"/><path d="M657.76 179.626l-3.182-8.84-6.718-6.363-1.768-14.142 2.829 9.192 6.364 8.132z" fill="#a05a2c"/><path d="M670.488 202.253l6.01-5.303 3.182-9.546 1.768-13.789 1.414 13.435-3.536 12.375-10.606 12.728z" fill="#deaa87"/><path d="M616.04 249.983l-17.324.353-27.93-9.546-13.082-8.485-27.577-5.657-4.596-10.253 4.95 4.596 3.535 3.89 20.152 2.12h8.132l1.414 3.536 6.718 7.779 22.274 7.424 16.263-1.06z" fill="#2b1100"/><path d="M865.748 250.07s-9.546-2.475-10.96-3.536c-1.414-1.06-21.567-10.606-21.567-10.606l-18.384-21.92-4.243-28.638-13.789-15.557 9.546 5.304 5.657 6.364 3.89 8.838v18.032l3.181 5.303 4.243 6.01 8.132 11.668h3.889l6.717 3.182 6.364 6.01 10.253 4.243z" fill="#803300"/><path d="M865.748 250.07l20.86-3.89 30.052-18.738 3.536-25.102 4.95-22.274-7.072 18.385-.707 5.303-.707 16.264-6.01 5.657-3.536 3.182-7.425 7.07-11.313 4.95-8.84 4.243-11.313-.707z" fill="#c87137"/><path d="M858.677 244.767l2.122-12.728-7.072-14.142-10.253-13.436-11.667-15.91-7.424-19.798-10.254-9.546-10.606 2.121 8.839-3.536 9.546 4.597 6.364 6.01 2.474 9.546 3.89 11.667 6.717 5.304 6.01 3.889 4.95 8.131 1.414 6.01 8.84 14.85 3.535 4.95.707 8.131-1.06 9.193z" fill="#520"/><path d="M879.537 245.12l8.839-12.728 8.839-11.667 2.474-11.667s.708-21.567-.707-22.628c-1.414-1.06-12.728-10.253-12.728-10.253l10.253 4.95 4.95 4.95 1.414 6.717-.707 9.9-.707 8.839.707 3.889.354 3.535-3.89 7.071-7.777 9.9zM815.897 190.32l3.182-6.365.354-6.364-2.829-7.778-6.01 15.557z" fill="#784421"/><path d="M814.837 214.007l-7.779-7.424-7.424-10.96-9.193-9.193-5.303 3.89 4.95-5.658 6.717 2.829 5.657 7.778 13.435 13.082z" fill="#502d16"/><path d="M847.364 198.805l-1.415-11.314s-3.889-7.071-5.657-13.789c-1.767-6.717-3.535-11.667-3.535-11.667l7.071-8.839 6.717-3.535-2.474 2.828-4.243 5.303-2.121 4.243.353 6.718 4.596 9.9 4.243 9.899 1.414 18.384z" fill="#28170b"/><path d="M902.518 218.957l8.839-22.98-.354-12.375 12.02-16.97 7.78-15.91-6.365 7.07-8.839 12.021-8.131 9.9-7.779 29.345z" fill="#d38d5f"/><path d="M868.223 244.413l9.9-15.556-.354-9.193-3.182-13.788-11.314-16.264 6.364-24.041 14.143-18.385-4.243 10.606-3.182 6.364-2.121 7.779s-2.122 1.06-2.475 2.474c-.354 1.415-3.182 7.072-3.182 7.072v4.95l5.303 8.485 6.364 11.667 3.182 10.96-3.89 27.577z" fill="#520"/><path d="M862.566 227.796l2.475-11.667-1.768-14.142-2.828-14.143v-10.96l2.121 8.84 2.122 7.07 3.182 15.557-.354 6.364 1.768 7.778-3.182 10.253z" fill="#784421"/><path d="M907.468 179.713l-3.182-8.84-6.718-6.363-1.768-14.142 2.829 9.192 6.364 8.132z" fill="#a05a2c"/><path d="M920.196 202.34l6.01-5.303 3.182-9.546 1.768-13.789 1.414 13.435-3.536 12.375-10.606 12.728z" fill="#deaa87"/><path d="M865.748 250.07l-17.324.353-27.93-9.546-13.082-8.485-27.577-5.657-4.596-10.253 4.95 4.596 3.535 3.89 20.152 2.12h8.132l1.414 3.536 6.718 7.779 22.274 7.424 16.263-1.06z" fill="#2b1100"/><path d="M1115.748 250.07s-9.546-2.475-10.96-3.536c-1.414-1.06-21.567-10.606-21.567-10.606l-18.384-21.92-4.243-28.638-13.789-15.557 9.546 5.304 5.657 6.364 3.89 8.838v18.032l3.181 5.303 4.243 6.01 8.132 11.668h3.889l6.717 3.182 6.364 6.01 10.253 4.243z" fill="#803300"/><path d="M1115.748 250.07l20.86-3.89 30.052-18.738 3.535-25.102 4.95-22.274-7.07 18.385-.708 5.303-.707 16.264-6.01 5.657-3.536 3.182-7.425 7.07-11.313 4.95-8.84 4.243-11.313-.707z" fill="#c87137"/><path d="M1108.677 244.767l2.122-12.728-7.071-14.142-10.254-13.436-11.667-15.91-7.424-19.798-10.253-9.546-10.607 2.121 8.839-3.536 9.546 4.597 6.364 6.01 2.475 9.546 3.889 11.667 6.717 5.304 6.01 3.889 4.95 8.131 1.414 6.01 8.84 14.85 3.535 4.95.707 8.131-1.06 9.193z" fill="#520"/><path d="M1129.537 245.12l8.839-12.728 8.839-11.667 2.474-11.667s.707-21.567-.707-22.628c-1.414-1.06-12.728-10.253-12.728-10.253l10.253 4.95 4.95 4.95 1.414 6.717-.707 9.9-.707 8.839.707 3.889.354 3.535-3.89 7.071-7.777 9.9zM1065.897 190.32l3.182-6.365.354-6.364-2.829-7.778-6.01 15.557z" fill="#784421"/><path d="M1064.837 214.007l-7.779-7.424-7.424-10.96-9.193-9.193-5.303 3.89 4.95-5.658 6.717 2.829 5.657 7.778 13.435 13.082z" fill="#502d16"/><path d="M1097.363 198.805l-1.414-11.314s-3.889-7.071-5.657-13.789c-1.767-6.717-3.535-11.667-3.535-11.667l7.071-8.839 6.718-3.535-2.475 2.828-4.243 5.303-2.121 4.243.353 6.718 4.596 9.9 4.243 9.899 1.414 18.384z" fill="#28170b"/><path d="M1152.518 218.957l8.839-22.98-.354-12.375 12.02-16.97 7.78-15.91-6.365 7.07-8.839 12.021-8.131 9.9-7.779 29.345z" fill="#d38d5f"/><path d="M1118.223 244.413l9.9-15.556-.354-9.193-3.182-13.788-11.314-16.264 6.364-24.041 14.143-18.385-4.243 10.606-3.182 6.364-2.121 7.779s-2.122 1.06-2.475 2.474c-.354 1.415-3.182 7.072-3.182 7.072v4.95l5.303 8.485 6.364 11.667 3.182 10.96-3.89 27.577z" fill="#520"/><path d="M1112.566 227.796l2.475-11.667-1.768-14.142-2.828-14.143v-10.96l2.121 8.84 2.122 7.07 3.182 15.557-.354 6.364 1.768 7.778-3.182 10.253z" fill="#784421"/><path d="M1157.468 179.713l-3.182-8.84-6.718-6.363-1.768-14.142 2.829 9.192 6.364 8.132z" fill="#a05a2c"/><path d="M1170.196 202.34l6.01-5.303 3.182-9.546 1.768-13.789 1.414 13.435-3.536 12.375-10.606 12.728z" fill="#deaa87"/><path d="M1115.748 250.07l-17.324.353-27.93-9.546-13.082-8.485-27.577-5.657-4.596-10.253 4.95 4.596 3.535 3.89 20.152 2.12h8.132l1.414 3.536 6.718 7.779 22.274 7.424 16.263-1.06z" fill="#2b1100"/><path d="M1365.749 250.07s-9.546-2.475-10.96-3.536c-1.415-1.06-21.567-10.606-21.567-10.606l-18.385-21.92-4.243-28.638-13.788-15.557 9.546 5.304 5.657 6.364 3.889 8.838v18.032l3.182 5.303 4.242 6.01 8.132 11.668h3.89l6.717 3.182 6.364 6.01 10.253 4.243z" fill="#803300"/><path d="M1365.749 250.07l20.86-3.89 30.051-18.738 3.536-25.102 4.95-22.274-7.071 18.385-.707 5.303-.708 16.264-6.01 5.657-3.536 3.182-7.424 7.07-11.314 4.95-8.839 4.243-11.313-.707z" fill="#c87137"/><path d="M1358.678 244.767l2.12-12.728-7.07-14.142-10.253-13.436-11.667-15.91-7.425-19.798-10.253-9.546-10.607 2.121 8.84-3.536 9.545 4.597 6.364 6.01 2.475 9.546 3.889 11.667 6.718 5.304 6.01 3.889 4.95 8.131 1.414 6.01 8.839 14.85 3.535 4.95.707 8.131-1.06 9.193z" fill="#520"/><path d="M1379.537 245.12l8.84-12.728 8.838-11.667 2.475-11.667s.707-21.567-.707-22.628c-1.415-1.06-12.728-10.253-12.728-10.253l10.253 4.95 4.95 4.95 1.414 6.717-.707 9.9-.707 8.839.707 3.889.353 3.535-3.889 7.071-7.778 9.9zM1315.898 190.32l3.182-6.365.353-6.364-2.828-7.778-6.01 15.557z" fill="#784421"/><path d="M1314.837 214.007l-7.778-7.424-7.425-10.96-9.192-9.193-5.303 3.89 4.95-5.658 6.717 2.829 5.657 7.778 13.435 13.082z" fill="#502d16"/><path d="M1347.364 198.805l-1.414-11.314s-3.89-7.071-5.657-13.789c-1.768-6.717-3.536-11.667-3.536-11.667l7.071-8.839 6.718-3.535-2.475 2.828-4.243 5.303-2.121 4.243.354 6.718 4.596 9.9 4.242 9.899 1.415 18.384z" fill="#28170b"/><path d="M1402.518 218.957l8.84-22.98-.355-12.375 12.021-16.97 7.779-15.91-6.364 7.07-8.84 12.021-8.131 9.9-7.778 29.345z" fill="#d38d5f"/><path d="M1368.224 244.413l9.9-15.556-.355-9.193-3.181-13.788-11.314-16.264 6.364-24.041 14.142-18.385-4.243 10.606-3.182 6.364-2.121 7.779s-2.121 1.06-2.475 2.474c-.353 1.415-3.182 7.072-3.182 7.072v4.95l5.303 8.485 6.364 11.667 3.182 10.96-3.889 27.577z" fill="#520"/><path d="M1362.567 227.796l2.475-11.667-1.768-14.142-2.829-14.143v-10.96l2.122 8.84 2.121 7.07 3.182 15.557-.354 6.364 1.768 7.778-3.182 10.253z" fill="#784421"/><path d="M1407.468 179.713l-3.182-8.84-6.718-6.363-1.767-14.142 2.828 9.192 6.364 8.132z" fill="#a05a2c"/><path d="M1420.196 202.34l6.01-5.303 3.182-9.546 1.768-13.789 1.414 13.435-3.535 12.375-10.607 12.728z" fill="#deaa87"/><path d="M1365.749 250.07l-17.324.353-27.931-9.546-13.082-8.485-27.577-5.657-4.596-10.253 4.95 4.596 3.535 3.89 20.153 2.12h8.132l1.414 3.536 6.717 7.779 22.274 7.424 16.264-1.06z" fill="#2b1100"/><g><path d="M844.23 211.43c-.16.793-3.013-1.532-5.075-5.866-2.061-4.334-3.33-10.676-3.17-12.737.158-2.06 1.744.159 3.118 2.22 1.374 2.061 2.536 3.964 3.54 4.016 1.004.053 1.85-1.744 2.114-4.228.264-2.484-.053-5.655.423-5.179s1.744 4.598 3.964 5.972c2.22 1.373 5.39-.001 9.143-1.798 3.752-1.797 8.086-4.017 9.301-3.752 1.216.264-.687 3.013-3.17 5.126-2.484 2.114-5.55 3.594-6.025 4.704-.475 1.11 1.639 1.85 4.863 1.956 3.223.105 7.557-.423 7.028.58-.528 1.005-5.92 3.542-7.24 5.709-1.32 2.167 1.427 3.964 4.968 5.444s7.875 2.642 7.77 3.435c-.107.792-4.652 1.215-8.668.634-4.017-.581-7.505-2.166-9.038-1.426-1.533.74-1.11 3.805-2.062 6.236-.951 2.43-3.277 4.227-4.545 3.382-1.268-.845-1.48-4.333-2.378-6.342-.898-2.008-2.483-2.537-3.699-3.382-1.216-.845-2.061-2.008-3.753-1.004-1.692 1.003-4.228 4.174-5.497 4.228-1.268.053-1.268-3.012-.476-5.761.793-2.749 2.379-5.18 1.692-6.924-.686-1.744-3.646-2.8-3.699-3.33-.053-.528 2.801-.528 5.497 1.428 2.695 1.956 5.232 5.867 5.073 6.66z" fill="#2f4620"/><path d="M836.5 192.013c-.278-.057-.467.17-.517.814-.146 1.896.925 7.399 2.701 11.645-2.546-1.633-5.075-1.627-5.025-1.13.053.53 3.013 1.587 3.7 3.33.686 1.745-.9 4.176-1.692 6.925-.793 2.748-.794 5.814.474 5.761 1.269-.053 3.807-3.225 5.498-4.228 1.692-1.004 2.537.158 3.752 1.004 1.216.845 2.802 1.374 3.7 3.382.898 2.01 1.108 5.497 2.377 6.342 1.268.845 3.595-.952 4.546-3.383.77-1.965.64-4.343 1.373-5.574l-.634-3.304-12.524-2.167 8.084-4.494 5.074-1.267-5.074-1.586-6.658.635-3.172-3.489-.469-2.425c-.854-.583-1.814-2.11-2.912-3.756-.944-1.417-1.989-2.911-2.601-3.035z" fill="#102310"/><path d="M430.312 199.362c-1.644-1.355-4.672-1.709-7.182-.59-2.51 1.12-4.5 3.713-7.744 5.01-3.245 1.296-7.744 1.296-6.749 2.298.995 1.001 7.485 3.005 12.373 3.064 4.889.058 8.177-1.827 9.69-3.948 1.515-2.12 1.255-4.478-.388-5.834z" fill="#aad400"/><path d="M430.312 199.362c-1.544 2.686-4.026 4.522-8.213 5.788-3.154.953-7.262 1.59-9.668 2.85 2.58.887 6.482 1.775 9.715 1.814 4.888.058 8.177-1.827 9.691-3.948 1.514-2.12 1.255-4.478-.389-5.834-.325-.268-.717-.483-1.136-.67z" fill="#8a0"/><path d="M351.665 222.14c1.12-.865 3.182-1.09 4.892-.377 1.709.714 3.064 2.368 5.274 3.194 2.21.827 5.274.827 4.597 1.466-.678.639-5.098 1.916-8.428 1.953-3.33.038-5.569-1.164-6.6-2.517-1.031-1.352-.854-2.855.265-3.72z" fill="#aad400"/><path d="M351.665 222.14c1.052 1.712 2.742 2.883 5.594 3.69 2.148.608 4.946 1.014 6.585 1.817-1.758.566-4.415 1.132-6.617 1.157-3.33.037-5.57-1.165-6.6-2.517-1.032-1.353-.856-2.856.264-3.72.222-.172.488-.309.774-.428z" fill="#8a0"/><path d="M308.69 232.243c1.065 1.494 3.307 2.114 5.349 1.224 2.042-.89 3.883-3.291 6.503-4.291 2.62-1 6.02-.601 5.398-1.686-.621-1.084-5.264-3.653-8.95-4.145-3.685-.493-6.415 1.09-7.835 3.064s-1.531 4.34-.466 5.834z" fill="#aad400"/><path d="M308.69 232.243c1.516-2.533 3.63-4.138 6.958-5.024 2.507-.668 5.694-.937 7.676-1.974-1.835-1.112-4.667-2.341-7.104-2.667-3.686-.493-6.416 1.09-7.836 3.063-1.42 1.974-1.532 4.341-.466 5.835.21.296.479.545.771.767z" fill="#8a0"/><path d="M377.632 164.007c-.9-.864-2.556-1.09-3.93-.376-1.373.714-2.462 2.367-4.237 3.194-1.775.826-4.237.826-3.692 1.465.544.64 4.095 1.917 6.77 1.954 2.674.038 4.473-1.165 5.302-2.517.829-1.352.687-2.855-.213-3.72z" fill="#aad400"/><path d="M377.632 164.007c-.845 1.712-2.203 2.883-4.494 3.69-1.725.608-3.973 1.015-5.29 1.817 1.413.566 3.547 1.133 5.316 1.157 2.675.038 4.474-1.164 5.303-2.517.828-1.352.687-2.855-.213-3.72a2.637 2.637 0 00-.622-.427z" fill="#8a0"/><path d="M377.632 164.007c1.05-.987 2.984-1.245 4.587-.43 1.602.816 2.873 2.704 4.945 3.648s4.945.944 4.31 1.674c-.636.73-4.78 2.188-7.902 2.231-3.121.043-5.221-1.33-6.188-2.875-.967-1.544-.801-3.26.248-4.248z" fill="#aad400"/><path d="M377.632 164.007c.986 1.956 2.571 3.293 5.245 4.215 2.014.694 4.637 1.158 6.174 2.075-1.649.646-4.14 1.293-6.204 1.321-3.122.043-5.222-1.33-6.189-2.874-.967-1.545-.801-3.262.248-4.249a3.08 3.08 0 01.726-.488z" fill="#8a0"/><path d="M400.967 235.778c-.202-1.662-1.835-3.514-4.019-4.253-2.184-.738-4.918-.361-7.652-1.401s-5.469-3.496-5.453-2.387c.015 1.108 2.782 5.781 5.718 8.483 2.937 2.701 6.044 3.432 8.212 3.062 2.167-.37 3.396-1.841 3.194-3.504z" fill="#aad400"/><path d="M400.967 235.778c-2.518.673-5.106.354-8.395-1.218-2.478-1.183-5.35-3.066-7.552-3.67 1.047 1.91 2.896 4.541 4.838 6.328 2.936 2.701 6.044 3.433 8.211 3.063 2.168-.37 3.397-1.842 3.195-3.504a3.646 3.646 0 00-.297-.999z" fill="#8a0"/><path d="M400.967 235.778c-.09-1.92 1.333-4.023 3.56-4.817 2.229-.795 5.26-.281 8.028-1.41 2.767-1.128 5.272-3.899 5.461-2.614.19 1.285-1.938 6.624-4.615 9.674-2.678 3.05-5.907 3.81-8.324 3.32-2.416-.49-4.02-2.231-4.11-4.153z" fill="#aad400"/><path d="M400.967 235.778c2.851.85 5.595.554 8.865-1.176 2.463-1.302 5.223-3.404 7.496-4.042-.778 2.185-2.292 5.183-4.063 7.2-2.678 3.049-5.907 3.81-8.323 3.32-2.416-.49-4.02-2.23-4.111-4.152-.018-.38.04-.766.136-1.15z" fill="#8a0"/><path d="M347.227 187.342c.16-1.391-.779-2.795-2.367-3.194-1.59-.4-3.828.204-5.795-.394-1.966-.599-3.661-2.4-3.862-1.46-.2.94 1.094 4.62 2.902 6.61 1.807 1.988 4.129 2.286 5.918 1.746 1.788-.54 3.044-1.918 3.204-3.308z" fill="#aad400"/><path d="M347.227 187.342c-2.124.833-4.114.831-6.418-.161-1.736-.748-3.65-2.048-5.28-2.33.463 1.512 1.423 3.554 2.619 4.87 1.808 1.988 4.13 2.286 5.918 1.746 1.788-.54 3.045-1.917 3.204-3.308a2.694 2.694 0 00-.043-.817z" fill="#8a0"/><path d="M347.227 187.342c-1.085-1.389-.988-3.49.472-4.931 1.46-1.44 4.284-2.22 6.024-4.113 1.74-1.895 2.397-4.905 3.23-4.025.834.88 1.844 5.648 1.188 8.93-.656 3.284-2.978 5.081-5.272 5.642-2.293.561-4.558-.115-5.642-1.503z" fill="#aad400"/><path d="M347.227 187.342c2.849-.461 5.005-1.73 6.853-4.261 1.392-1.907 2.614-4.52 4.195-5.861.49 1.916.789 4.715.355 6.886-.657 3.283-2.979 5.082-5.272 5.643-2.293.56-4.558-.115-5.643-1.504a3.39 3.39 0 01-.488-.903z" fill="#8a0"/><path d="M417.541 175.13c1.025-1.312.856-3.115-.637-4.206-1.494-1.092-4.312-1.47-6.097-2.924-1.785-1.454-2.539-3.983-3.332-3.138-.794.846-1.627 5.066-.865 7.83.762 2.765 3.12 4.075 5.405 4.321 2.287.246 4.502-.573 5.526-1.884z" fill="#aad400"/><path d="M417.541 175.13c-2.832-.102-5.007-.973-6.921-2.966-1.442-1.5-2.74-3.628-4.35-4.621-.418 1.704-.616 4.15-.112 5.979.762 2.765 3.12 4.075 5.405 4.321 2.287.246 4.502-.572 5.527-1.883.202-.26.343-.542.451-.83z" fill="#8a0"/><path d="M317.175 190.17c-.658 1.606-2.474 2.507-4.376 1.897-1.903-.609-3.89-2.728-6.307-3.37-2.416-.642-5.261.192-4.914-.954.348-1.146 3.888-4.272 6.963-5.234 3.074-.963 5.684.237 7.238 1.991 1.555 1.754 2.054 4.064 1.396 5.67z" fill="#aad400"/><path d="M317.175 190.17c-1.732-2.29-3.818-3.592-6.822-4.03-2.263-.33-5.04-.18-6.916-.942 1.383-1.33 3.6-2.906 5.633-3.543 3.075-.963 5.685.237 7.24 1.991 1.554 1.754 2.053 4.065 1.395 5.67-.13.318-.318.598-.53.854z" fill="#8a0"/><path d="M627.176 219.576c1.002-1.12-.648-5.833-1.473-8.897-.825-3.065-.825-4.479 0-3.89.825.59 2.475 3.183 4.066 6.011 1.59 2.829 3.123 5.893 4.478 6.422 1.355.53 2.533-1.473 4.419-3.89 1.886-2.415 4.478-5.244 6.01-5.479 1.533-.235 2.004 2.122 1.002 4.302-1.001 2.18-3.476 4.183-3.299 5.774.177 1.591 3.006 2.77 5.893 2.887 2.887.118 5.833-.825 7.719-.589 1.886.237 2.71 1.651 1.473 3.36-1.238 1.707-4.538 3.71-7.484 4.477-2.945.766-5.538.295-5.243 1.18.294.883 3.476 3.122 5.539 4.478 2.062 1.355 3.005 1.826 1.65 2.65-1.356.825-5.01 2.004-8.722 1.533-3.712-.471-7.483-2.592-9.251-2.003-1.769.59-1.533 3.89-2.711 5.598-1.178 1.708-3.77 1.826-4.36.117-.59-1.708.824-5.244-2.652-7.307-3.476-2.062-11.844-2.651-13.847-3.771-2.004-1.12 2.356-2.77 5.774-3.536s5.893-.648 6.01-2.18c.119-1.53-2.12-4.713-3.064-6.834-.943-2.122-.59-3.183 1.415-2.475 2.004.707 5.657 3.182 6.658 2.062z" fill="#3d5d24"/><path d="M584.928 189.525c-1.296.118-2.593-2.12-3.3-4.537-.708-2.416-.825-5.008-.53-6.836.294-1.827 1-2.887 1.472-2.71.472.177.708 1.591 1.71 3.3 1.002 1.709 2.77 3.712 3.005 5.951.235 2.24-1.061 4.714-2.357 4.832z" fill="#183f18"/><path d="M584.928 189.525c1.083 1.05 3.668.281 5.84-1.058 2.172-1.34 3.93-3.25 4.83-4.876.901-1.626.945-2.966.41-3.178-.534-.212-1.646.704-3.63 1.28-1.985.577-4.842.815-6.478 2.366-1.637 1.552-2.055 4.417-.972 5.466zM534.016 224.88c-1.438 1.807-5.102 1.59-8.228.447-3.127-1.143-5.715-3.213-7.087-5.169-1.372-1.956-1.528-3.796-.797-4.264.732-.467 2.348.436 5.16.585 2.81.148 6.816-.457 9.21 1.155 2.394 1.612 3.18 5.44 1.742 7.247z" fill="#183f18"/><path d="M580.862 239.973c-.21-.979-.628-2.938-.551-5.981.076-3.044.647-7.17 1.525-9.8.877-2.63 2.06-3.763 2.513-3.632.453.13.176 1.522.49 3.635.313 2.113 1.216 4.947 1.683 6.737.468 1.789.5 2.534.92 2.348.421-.187 1.232-1.303 1.994-2.677.763-1.375 1.477-3.01 2.482-3.948 1.005-.938 2.3-1.18 3.16-2.036.858-.856 1.28-2.329 1.798-1.996.518.333 1.131 2.47 1.161 4.073.03 1.602-.522 2.67-1.251 3.931-.73 1.262-1.639 2.718-1.542 3.236.097.518 1.198.098 2.761-.434 1.563-.533 3.587-1.178 5.393-2.56 1.807-1.381 3.396-3.5 4.165-3.401.769.098.717 2.413.019 4.419-.699 2.006-2.045 3.704-4.417 4.923-2.373 1.22-5.773 1.96-6.89 2.436-1.118.477.047.689 2.03 1.258 1.982.569 4.782 1.495 7.193 1.635 2.412.14 4.436-.505 4.75-.108.316.397-1.078 1.837-3.321 3.032-2.244 1.195-5.337 2.146-8.202 2.305-2.865.158-5.503-.476-7.444-1.4-1.942-.926-3.187-2.141-4.264-2.021-1.077.12-1.986 1.576-3.54 2.723-1.556 1.147-3.758 1.986-6.291 1.627-2.533-.359-5.396-1.916-5.614-2.653-.218-.737 2.21-.653 4.234-1.298s3.644-2.02 4.455-2.707c.81-.687.81-.687.601-1.666z" fill="#3d5d24"/><path d="M657.76 179.626c-1.296.648-4.243-.767-6.836-4.597-2.593-3.83-4.832-10.075-4.89-11.607-.06-1.533 2.062 1.65 4.478 4.124 2.416 2.475 5.127 4.243 6.658 6.482 1.532 2.24 1.885 4.95.59 5.598zM660.018 176.719c-1.237.177-.216-2.554 1.001-4.92 1.218-2.368 2.632-4.372 3.988-6.198 1.355-1.827 2.651-3.477 3.358-5.068.708-1.59.825-3.122 1.18-2.65.353.471.942 2.946.765 5.361-.177 2.416-1.12 4.773-3.339 7.493-2.22 2.72-5.715 5.805-6.953 5.982z" fill="#558232"/><path d="M660.018 176.719c3.097-.937 6.194-1.874 8.803-3.285 2.609-1.41 4.73-3.296 7.205-4.357 2.476-1.06 5.304-1.296 5.834-.825.53.472-1.238 1.65-2.593 3.3-1.356 1.65-2.299 3.772-5.437 4.711-3.14.94-8.475.698-13.812.456M647.67 183.982c.06-.825-3.516-.373-6.54-1.03-3.026-.658-5.5-2.426-7.917-2.898-2.416-.472-4.773.353-5.42.884-.649.53.412.766 1.944 1.65 1.532.884 3.535 2.416 5.362 3.595 1.827 1.178 3.477 2.003 6.148 1.364 2.67-.638 6.364-2.74 6.423-3.565z" fill="#558232"/><path d="M624.526 171.848c-.471.824-2.593-.354-4.302-2.18-1.71-1.827-3.005-4.302-2.534-5.127.472-.826 2.711 0 4.42 1.826 1.708 1.827 2.887 4.656 2.416 5.48z" fill="#3d5d24"/><path d="M624.526 171.848c-1.12-1.002-.217-3.634 1-5.304 1.219-1.67 2.75-2.377 4.518-4.204 1.768-1.826 3.771-4.773 4.655-4.596.884.178.648 3.477 0 6.306-.648 2.828-1.709 5.185-3.81 6.677-2.101 1.493-5.243 2.122-6.363 1.12z" fill="#3d5d24"/><path d="M617.16 178.093c-.648 1.296-3.948 1.532-6.07 1.06-2.12-.47-3.064-1.648-3.948-3.416-.884-1.768-1.709-4.125-.589-4.832 1.12-.708 4.184.235 6.718 1.885s4.537 4.007 3.889 5.303z" fill="#183f18"/><path d="M668.72 212.153c-.93-1.344-.074-3.54.933-4.529 1.008-.988 2.164-.768 3.435-.628s2.657.2 5.436-1.549c2.779-1.748 6.952-5.305 7.794-5.03.84.275-1.65 4.382-4.079 7.364-2.428 2.982-4.793 4.839-7.333 5.522-2.54.683-5.256.193-6.186-1.15z" fill="#558232"/><path d="M562.241 221.082c-1.827-.53-3.359-1.59-5.009-3.712-1.65-2.121-3.418-5.303-6.01-8.78-2.593-3.477-6.01-7.248-6.305-8.367-.295-1.12 2.534.412 4.95 2.298 2.416 1.885 4.419 4.125 5.597 4.714 1.178.589 1.531-.472 1.767-2.004s.354-3.535.943-6.07c.59-2.533 1.65-5.597 2.77-5.42 1.12.177 2.298 3.595 3.24 6.659.944 3.064 1.65 5.774 2.888 6.245 1.237.47 3.005-1.297 5.775-2.77 2.77-1.473 6.541-2.652 8.662-4.42 2.12-1.766 2.592-4.123 2.651-3.298.06.825-.294 4.832-1.708 7.6-1.415 2.77-3.89 4.302-4.478 5.363-.589 1.06.707 1.65 2.475 1.59 1.767-.059 4.007-.766 6.717-2.062 2.71-1.297 5.892-3.182 6.187-2.357.294.825-2.299 4.36-6.246 6.246-3.948 1.886-9.25 2.121-11.313 3.183-2.063 1.061-.884 2.947.53 4.302 1.415 1.355 3.065 2.18 1.768 2.356-1.296.177-5.539-.295-8.721-.53-3.182-.236-5.303-.236-7.13-.766z" fill="#183f18"/><path d="M545.59 199.965c-.26-.016-.383.099-.31.378.295 1.12 3.712 4.89 6.305 8.368 2.592 3.476 4.361 6.66 6.012 8.78 1.538 1.979 2.976 3.027 4.644 3.59.303.059.588.123.895.18.758.143 1.524.274 2.289.409 1.214.109 2.603.172 4.31.298.909.068 1.905.156 2.893.24.533-.13.902-.355 1.027-.71.56-1.59-3.566-5.715-4.215-8.721-.648-3.006 2.18-4.89 2.77-5.539.59-.648-1.061-.059-3.065.707-2.003.766-4.359 1.709-5.773 1.238-1.414-.47-1.886-2.357-2.357-2.299-.472.06-.945 2.064-2.24 1.18-.397-.27-.89-.862-1.425-1.568-.257.846-.675 1.283-1.523.86-1.178-.59-3.182-2.828-5.598-4.714-1.812-1.414-3.854-2.63-4.638-2.677z" fill="#0f260f"/><path d="M582.098 230.073l-1.236 9.9c.21.98.209.98-.602 1.666-.81.687-2.43 2.06-4.455 2.705-2.023.646-4.452.562-4.234 1.3.218.736 3.08 2.295 5.613 2.654 2.533.358 4.736-.482 6.291-1.63 1.555-1.146 2.464-2.602 3.541-2.722 1.078-.12 2.322 1.097 4.264 2.022 1.941.924 4.58 1.559 7.445 1.4 2.865-.159 5.958-1.11 8.201-2.305 2.244-1.195 3.638-2.636 3.323-3.033-.083-.105-.3-.132-.596-.125l-8.816 2.664-7.424-5.656-1.06-8.487-3.891 8.133zM639.727 216.748l-6.01 10.961-6.54-8.133 1.238 9.194-9.715-9.952c.08.344.207.728.404 1.17.943 2.122 3.182 5.305 3.065 6.836-.118 1.532-2.594 1.414-6.012 2.18-3.418.766-7.777 2.415-5.774 3.535 2.004 1.12 10.37 1.709 13.846 3.772 3.476 2.062 2.063 5.598 2.652 7.306.59 1.709 3.184 1.591 4.362-.117s.942-5.008 2.71-5.598c1.769-.59 5.539 1.531 9.25 2.002 3.713.471 7.366-.706 8.721-1.53.323-.197.508-.373.586-.546l-13.49-6.937 12.022-6.719-13.79 3.537z" fill="#183f18"/><path d="M518.451 215.773c-.214.002-.403.03-.546.121-.732.468-.576 2.308.796 4.264 1.373 1.956 3.96 4.027 7.086 5.17 3.127 1.143 6.791 1.359 8.229-.447l-11.844-4.95z" fill="#0f260f"/><path d="M876.884 219.663c1.002-1.12-.648-5.833-1.473-8.897-.825-3.065-.825-4.479 0-3.89.825.59 2.475 3.183 4.066 6.011 1.59 2.829 3.123 5.893 4.478 6.422 1.355.53 2.533-1.473 4.419-3.89 1.886-2.415 4.478-5.244 6.01-5.479 1.533-.235 2.004 2.122 1.002 4.302-1.001 2.18-3.476 4.183-3.299 5.774.177 1.591 3.006 2.77 5.893 2.887 2.887.118 5.833-.825 7.719-.589 1.886.237 2.71 1.651 1.473 3.36-1.238 1.707-4.538 3.71-7.484 4.477-2.945.766-5.538.295-5.243 1.18.294.883 3.476 3.122 5.539 4.478 2.062 1.355 3.005 1.826 1.65 2.65-1.356.825-5.01 2.004-8.722 1.533-3.712-.471-7.483-2.592-9.251-2.003-1.769.59-1.533 3.89-2.711 5.598-1.178 1.708-3.77 1.826-4.36.117-.59-1.708.824-5.244-2.652-7.307-3.476-2.062-11.844-2.651-13.847-3.771-2.004-1.12 2.356-2.77 5.774-3.536s5.893-.648 6.01-2.18c.119-1.53-2.12-4.713-3.064-6.834-.943-2.122-.59-3.183 1.415-2.475 2.004.707 5.657 3.182 6.658 2.062zM834.636 189.612c-1.296.118-2.593-2.12-3.3-4.537-.708-2.416-.825-5.008-.53-6.836.294-1.827 1-2.887 1.472-2.71.472.177.708 1.591 1.71 3.3 1.002 1.709 2.77 3.712 3.005 5.951.235 2.24-1.061 4.714-2.357 4.832z" fill="#2f4620"/><path d="M834.636 189.612c1.083 1.05 3.668.281 5.84-1.058 2.172-1.339 3.93-3.25 4.83-4.876.901-1.626.945-2.966.41-3.178-.534-.212-1.646.704-3.63 1.28-1.985.577-4.842.815-6.478 2.366-1.637 1.552-2.055 4.417-.972 5.466z" fill="#2f4620"/><path d="M783.724 224.968c-1.438 1.806-5.102 1.589-8.228.446-3.127-1.143-5.715-3.213-7.087-5.169-1.372-1.956-1.528-3.796-.797-4.264.732-.467 2.348.436 5.16.585 2.81.148 6.816-.457 9.21 1.155 2.394 1.612 3.18 5.44 1.742 7.247z" fill="#102310"/><path d="M830.57 240.06c-.21-.979-.628-2.938-.551-5.981.076-3.044.647-7.17 1.525-9.8.877-2.63 2.06-3.763 2.513-3.632.453.13.176 1.522.49 3.635.313 2.113 1.216 4.947 1.683 6.737.468 1.789.5 2.534.92 2.348.421-.187 1.232-1.303 1.994-2.677.763-1.375 1.477-3.01 2.482-3.948 1.005-.938 2.3-1.18 3.16-2.036.858-.856 1.28-2.329 1.798-1.996.518.333 1.131 2.47 1.161 4.073.03 1.602-.522 2.67-1.251 3.932-.73 1.261-1.639 2.717-1.542 3.235.097.518 1.198.098 2.761-.434 1.563-.533 3.587-1.178 5.393-2.56 1.807-1.381 3.396-3.5 4.165-3.401.769.098.717 2.413.019 4.419-.699 2.006-2.045 3.704-4.417 4.923-2.373 1.22-5.773 1.96-6.89 2.436-1.118.477.047.689 2.03 1.258 1.982.569 4.782 1.495 7.193 1.635 2.412.14 4.436-.505 4.75-.108.316.398-1.078 1.837-3.321 3.032-2.244 1.195-5.337 2.146-8.202 2.305-2.865.158-5.503-.476-7.444-1.4-1.942-.925-3.187-2.141-4.264-2.021-1.077.12-1.986 1.576-3.54 2.723-1.556 1.147-3.758 1.986-6.291 1.627-2.533-.358-5.396-1.916-5.614-2.653-.218-.737 2.21-.653 4.234-1.298s3.644-2.02 4.455-2.707c.81-.687.81-.687.6-1.666z" fill="#2f4620"/><path d="M907.468 179.713c-1.296.648-4.243-.767-6.836-4.596-2.593-3.83-4.832-10.076-4.89-11.608-.06-1.532 2.062 1.65 4.478 4.124 2.416 2.475 5.127 4.243 6.658 6.482 1.532 2.24 1.885 4.95.59 5.598zM909.726 176.806c-1.237.177-.216-2.554 1.001-4.92 1.218-2.368 2.632-4.372 3.988-6.198 1.355-1.827 2.651-3.477 3.358-5.067.708-1.591.825-3.123 1.18-2.652.353.472.942 2.947.765 5.362-.177 2.416-1.12 4.773-3.339 7.493-2.22 2.72-5.715 5.805-6.953 5.982z" fill="#44662f"/><path d="M909.726 176.806c3.097-.937 6.194-1.874 8.803-3.285 2.609-1.41 4.73-3.296 7.205-4.357 2.476-1.06 5.304-1.296 5.834-.825.53.472-1.238 1.65-2.593 3.3-1.356 1.65-2.299 3.772-5.437 4.711-3.14.94-8.475.698-13.812.456M899.63 185.129c.06-.825-3.515-.374-6.54-1.031-3.025-.658-5.5-2.426-7.916-2.898-2.416-.472-4.773.353-5.42.884-.649.53.412.766 1.944 1.65 1.532.885 3.535 2.417 5.362 3.595 1.827 1.178 3.477 2.003 6.148 1.365 2.67-.639 6.364-2.74 6.423-3.565z" fill="#44662f"/><path d="M874.234 171.935c-.471.824-2.593-.354-4.302-2.18-1.71-1.827-3.005-4.302-2.534-5.127.472-.826 2.711 0 4.42 1.826 1.708 1.828 2.887 4.656 2.416 5.48z" fill="#2f4620"/><path d="M874.234 171.935c-1.12-1.002-.217-3.634 1-5.304 1.219-1.67 2.75-2.377 4.518-4.204 1.768-1.826 3.771-4.773 4.655-4.596.884.178.648 3.477 0 6.306-.648 2.828-1.709 5.185-3.81 6.677-2.101 1.493-5.243 2.122-6.363 1.12zM866.868 178.18c-.648 1.296-3.948 1.532-6.07 1.06-2.12-.47-3.064-1.648-3.948-3.416-.884-1.768-1.709-4.125-.589-4.832 1.12-.708 4.184.235 6.718 1.885s4.537 4.007 3.889 5.303z" fill="#2f4620"/><path d="M918.428 212.24c-.93-1.343-.074-3.54.933-4.529 1.008-.988 2.164-.768 3.435-.628s2.657.2 5.436-1.549c2.779-1.748 6.952-5.305 7.794-5.03.84.275-1.65 4.382-4.079 7.364-2.428 2.982-4.793 4.839-7.333 5.522-2.54.683-5.256.193-6.186-1.15z" fill="#44662f"/><path d="M811.95 221.169c-1.828-.53-3.36-1.59-5.01-3.712-1.65-2.121-3.418-5.303-6.01-8.78-2.593-3.477-6.01-7.248-6.305-8.367-.295-1.12 2.534.412 4.95 2.298 2.416 1.886 4.419 4.125 5.597 4.714 1.178.589 1.531-.472 1.767-2.004s.354-3.535.943-6.07c.59-2.533 1.65-5.597 2.77-5.42 1.12.177 2.298 3.595 3.24 6.659.944 3.064 1.65 5.774 2.888 6.245 1.237.471 3.005-1.297 5.775-2.77 2.77-1.473 6.541-2.652 8.662-4.42 2.12-1.766 2.592-4.123 2.651-3.298.06.825-.294 4.832-1.708 7.6-1.415 2.77-3.89 4.302-4.478 5.363-.589 1.06.707 1.65 2.475 1.59 1.767-.059 4.007-.766 6.717-2.062 2.71-1.297 5.892-3.182 6.187-2.357.294.825-2.299 4.36-6.246 6.246-3.948 1.886-9.25 2.121-11.313 3.183-2.063 1.061-.884 2.947.53 4.302 1.415 1.355 3.065 2.18 1.768 2.356-1.296.177-5.539-.295-8.721-.53-3.182-.236-5.303-.236-7.13-.766z" fill="#102310"/><path d="M795.299 200.052c-.262-.016-.384.099-.31.378.294 1.12 3.711 4.89 6.304 8.368 2.592 3.476 4.361 6.66 6.012 8.78 1.538 1.979 2.976 3.027 4.644 3.59.303.059.588.123.895.18.758.143 1.524.274 2.289.409 1.214.109 2.603.172 4.31.298.909.068 1.905.156 2.893.24.533-.13.902-.355 1.027-.71.56-1.59-3.566-5.715-4.215-8.721-.648-3.006 2.18-4.89 2.77-5.539.59-.648-1.061-.059-3.065.707-2.003.766-4.359 1.709-5.773 1.238-1.414-.47-1.886-2.357-2.358-2.299-.471.06-.944 2.064-2.24 1.18-.396-.27-.889-.862-1.424-1.568-.257.846-.675 1.283-1.523.86-1.178-.59-3.182-2.828-5.598-4.714-1.812-1.414-3.854-2.63-4.638-2.677z" fill="#0a150a"/><path d="M831.806 230.16l-1.236 9.9c.21.98.209.98-.602 1.666-.81.688-2.43 2.06-4.455 2.705-2.023.646-4.452.562-4.234 1.3.218.736 3.08 2.295 5.613 2.654 2.533.358 4.736-.482 6.291-1.63 1.555-1.146 2.464-2.602 3.541-2.722 1.078-.12 2.322 1.097 4.264 2.022 1.941.924 4.58 1.559 7.445 1.4 2.865-.159 5.958-1.11 8.201-2.305 2.244-1.195 3.638-2.636 3.323-3.033-.083-.105-.3-.132-.596-.125l-8.816 2.664L843.12 239l-1.06-8.486-3.891 8.132zM889.435 216.835l-6.01 10.961-6.54-8.133 1.238 9.194-9.715-9.952c.08.344.207.728.404 1.17.943 2.122 3.182 5.305 3.065 6.836-.118 1.532-2.594 1.414-6.012 2.18-3.418.766-7.777 2.415-5.774 3.535 2.004 1.12 10.37 1.709 13.846 3.772 3.476 2.062 2.063 5.598 2.652 7.306.59 1.709 3.184 1.591 4.362-.117s.942-5.008 2.71-5.598c1.769-.589 5.539 1.531 9.25 2.002 3.713.471 7.366-.706 8.721-1.53.323-.197.508-.373.586-.546l-13.49-6.937 12.022-6.719-13.79 3.537z" fill="#102310"/><path d="M768.16 215.86c-.215.002-.404.03-.547.121-.732.468-.576 2.308.796 4.264 1.373 1.956 3.96 4.027 7.086 5.17 3.127 1.143 6.791 1.359 8.229-.447l-11.844-4.95z" fill="#0a150a"/><path d="M1126.884 219.663c1.002-1.12-.648-5.833-1.473-8.897-.826-3.065-.826-4.479 0-3.89.825.59 2.475 3.183 4.066 6.011 1.591 2.829 3.123 5.893 4.478 6.422 1.355.53 2.533-1.473 4.419-3.89 1.886-2.415 4.478-5.244 6.01-5.479 1.533-.235 2.004 2.122 1.002 4.302-1.001 2.18-3.476 4.183-3.299 5.774.177 1.591 3.006 2.77 5.893 2.887 2.887.118 5.833-.825 7.719-.589 1.886.237 2.71 1.651 1.473 3.36-1.238 1.707-4.538 3.71-7.483 4.477-2.946.766-5.54.295-5.244 1.18.294.883 3.476 3.122 5.539 4.478 2.062 1.355 3.005 1.826 1.65 2.65-1.356.825-5.01 2.004-8.722 1.533-3.712-.471-7.483-2.592-9.251-2.003-1.769.59-1.533 3.89-2.711 5.598-1.178 1.708-3.77 1.826-4.36.117-.59-1.708.824-5.244-2.652-7.307-3.476-2.062-11.844-2.651-13.847-3.771-2.004-1.12 2.356-2.77 5.774-3.536s5.893-.648 6.01-2.18c.119-1.53-2.12-4.713-3.064-6.834-.943-2.122-.59-3.183 1.415-2.475 2.004.707 5.657 3.182 6.658 2.062zM1084.636 189.612c-1.296.118-2.593-2.12-3.3-4.537-.707-2.416-.825-5.008-.53-6.836.294-1.827 1-2.887 1.472-2.71.472.177.708 1.591 1.71 3.3 1.002 1.709 2.77 3.712 3.005 5.951.235 2.24-1.061 4.714-2.357 4.832z" fill="#f95"/><path d="M1084.636 189.612c1.083 1.05 3.668.281 5.84-1.058 2.172-1.339 3.93-3.25 4.83-4.876.901-1.626.945-2.966.41-3.178-.534-.212-1.646.704-3.63 1.28-1.985.577-4.842.815-6.478 2.366-1.637 1.552-2.055 4.417-.972 5.466z" fill="#f95"/><path d="M1033.724 224.968c-1.438 1.806-5.102 1.589-8.228.446-3.127-1.143-5.715-3.213-7.087-5.169-1.372-1.956-1.528-3.796-.797-4.264.732-.467 2.348.436 5.16.585 2.81.148 6.816-.457 9.21 1.155 2.394 1.612 3.18 5.44 1.742 7.247z" fill="#da6d25"/><path d="M1080.57 240.06c-.21-.979-.628-2.938-.551-5.981.076-3.044.647-7.17 1.524-9.8.878-2.63 2.06-3.763 2.514-3.632.453.13.176 1.522.49 3.635.313 2.113 1.216 4.947 1.683 6.737.467 1.789.499 2.534.92 2.348.42-.187 1.231-1.302 1.994-2.677.762-1.375 1.476-3.01 2.482-3.948 1.005-.938 2.3-1.18 3.159-2.036.858-.856 1.281-2.329 1.799-1.996.518.333 1.13 2.47 1.16 4.073.03 1.602-.521 2.67-1.251 3.932-.73 1.261-1.638 2.717-1.541 3.235.097.518 1.198.098 2.76-.434 1.563-.533 3.588-1.178 5.394-2.56 1.806-1.381 3.395-3.5 4.164-3.401.77.098.718 2.413.02 4.419-.7 2.006-2.045 3.704-4.418 4.923-2.372 1.22-5.773 1.96-6.89 2.436-1.117.477.048.689 2.03 1.258 1.983.569 4.782 1.495 7.194 1.635 2.411.14 4.436-.505 4.75-.108.315.398-1.079 1.837-3.322 3.032-2.243 1.195-5.336 2.146-8.201 2.305-2.865.158-5.503-.476-7.445-1.4-1.941-.925-3.186-2.141-4.263-2.021-1.078.12-1.986 1.576-3.541 2.723-1.555 1.147-3.758 1.986-6.29 1.627-2.533-.358-5.397-1.916-5.614-2.653-.218-.737 2.21-.653 4.234-1.298s3.644-2.02 4.454-2.707c.81-.687.811-.687.602-1.666z" fill="#f95"/><path d="M1157.468 179.713c-1.296.648-4.243-.767-6.836-4.596-2.593-3.83-4.832-10.076-4.89-11.608-.06-1.532 2.062 1.65 4.478 4.124 2.416 2.475 5.127 4.243 6.658 6.482 1.532 2.24 1.885 4.95.59 5.598zM1159.726 176.806c-1.237.177-.216-2.554 1.001-4.92 1.218-2.368 2.632-4.371 3.988-6.198 1.355-1.827 2.651-3.477 3.359-5.067.707-1.591.825-3.123 1.178-2.652.354.472.943 2.947.766 5.362-.177 2.416-1.12 4.773-3.339 7.493-2.22 2.72-5.715 5.805-6.953 5.982z" fill="#ffb380"/><path d="M1159.726 176.806c3.097-.937 6.194-1.874 8.803-3.285 2.609-1.41 4.73-3.296 7.205-4.357 2.476-1.06 5.304-1.296 5.834-.825.53.472-1.238 1.65-2.593 3.3-1.356 1.65-2.298 3.772-5.437 4.711-3.14.94-8.475.698-13.812.456M1153.834 180.989c.06-.825-3.516-.373-6.54-1.031-3.025-.658-5.5-2.426-7.916-2.897-2.417-.472-4.774.353-5.421.883-.648.53.412.766 1.944 1.65 1.532.885 3.536 2.417 5.363 3.595 1.826 1.179 3.476 2.004 6.147 1.365 2.671-.639 6.364-2.74 6.423-3.565z" fill="#ffb380"/><path d="M1124.234 171.935c-.471.824-2.593-.354-4.302-2.18-1.71-1.827-3.005-4.302-2.534-5.127.472-.826 2.711 0 4.42 1.826 1.708 1.828 2.887 4.656 2.416 5.48z" fill="#f95"/><path d="M1124.234 171.935c-1.12-1.002-.217-3.634 1-5.304 1.219-1.67 2.75-2.377 4.518-4.204 1.768-1.826 3.771-4.773 4.655-4.596.884.178.648 3.477 0 6.306-.648 2.828-1.709 5.185-3.81 6.677-2.1 1.493-5.243 2.122-6.363 1.12zM1116.868 178.18c-.648 1.296-3.948 1.532-6.07 1.06-2.12-.47-3.064-1.648-3.948-3.416-.884-1.768-1.709-4.125-.589-4.832 1.12-.708 4.184.235 6.718 1.885s4.537 4.007 3.889 5.303z" fill="#f95"/><path d="M1168.428 212.24c-.93-1.344-.073-3.54.933-4.529 1.008-.988 2.164-.768 3.435-.628s2.657.2 5.436-1.549c2.779-1.748 6.953-5.305 7.794-5.03.84.275-1.65 4.382-4.079 7.364-2.428 2.982-4.793 4.839-7.333 5.522-2.54.683-5.256.193-6.186-1.15z" fill="#ffb380"/><path d="M1061.95 221.169c-1.828-.53-3.36-1.59-5.01-3.712-1.65-2.121-3.418-5.303-6.01-8.78-2.593-3.477-6.01-7.248-6.305-8.367-.294-1.12 2.534.412 4.95 2.298 2.415 1.886 4.419 4.125 5.597 4.714 1.178.589 1.531-.472 1.767-2.004s.354-3.535.943-6.07c.59-2.533 1.65-5.597 2.77-5.42 1.12.177 2.298 3.595 3.241 6.659.943 3.064 1.65 5.774 2.887 6.245 1.237.471 3.005-1.297 5.775-2.77 2.77-1.473 6.541-2.652 8.662-4.42 2.12-1.766 2.592-4.123 2.651-3.298.06.825-.294 4.832-1.708 7.6-1.415 2.77-3.89 4.302-4.478 5.363-.589 1.06.707 1.65 2.475 1.59 1.767-.059 4.007-.766 6.717-2.062 2.71-1.297 5.892-3.182 6.187-2.357.294.825-2.299 4.36-6.246 6.246-3.948 1.886-9.25 2.121-11.313 3.183-2.063 1.061-.884 2.947.53 4.302 1.415 1.355 3.065 2.18 1.768 2.356-1.296.177-5.539-.295-8.721-.53-3.182-.236-5.303-.236-7.13-.766z" fill="#f95"/><path d="M1045.299 200.052c-.262-.016-.384.099-.31.378.294 1.12 3.711 4.89 6.304 8.368 2.593 3.476 4.361 6.66 6.012 8.78 1.538 1.979 2.976 3.027 4.644 3.59.303.059.588.123.895.18.759.143 1.524.274 2.289.409 1.215.109 2.603.172 4.31.298.909.068 1.905.156 2.893.24.534-.13.902-.355 1.027-.71.56-1.59-3.566-5.715-4.215-8.721-.648-3.006 2.18-4.89 2.77-5.539.59-.648-1.061-.059-3.065.707-2.003.766-4.359 1.709-5.773 1.238-1.414-.47-1.886-2.357-2.357-2.299-.472.06-.945 2.064-2.24 1.18-.397-.27-.89-.862-1.424-1.568-.258.846-.676 1.283-1.524.86-1.178-.59-3.182-2.828-5.598-4.714-1.811-1.414-3.854-2.63-4.638-2.677zM1081.806 230.16l-1.236 9.9c.21.98.209.98-.602 1.666-.81.688-2.43 2.06-4.455 2.705-2.023.646-4.452.562-4.234 1.3.218.736 3.08 2.295 5.613 2.654 2.533.358 4.736-.482 6.291-1.63 1.555-1.146 2.464-2.602 3.541-2.722 1.078-.12 2.322 1.097 4.264 2.022 1.941.924 4.58 1.559 7.445 1.4 2.865-.159 5.958-1.11 8.201-2.305 2.244-1.195 3.638-2.636 3.323-3.033-.083-.105-.299-.132-.596-.125l-8.816 2.664-7.424-5.656-1.06-8.486-3.891 8.132zM1139.435 216.835l-6.01 10.961-6.54-8.133 1.238 9.194-9.715-9.952c.08.344.207.728.404 1.17.943 2.122 3.182 5.305 3.065 6.836-.118 1.532-2.594 1.414-6.012 2.18-3.418.766-7.777 2.415-5.774 3.535 2.004 1.12 10.37 1.709 13.846 3.772 3.476 2.062 2.063 5.598 2.652 7.306.59 1.709 3.184 1.591 4.362-.117s.942-5.008 2.71-5.598c1.77-.589 5.539 1.531 9.25 2.002 3.713.471 7.366-.706 8.721-1.53.323-.197.508-.373.586-.546l-13.49-6.937 12.022-6.719-13.79 3.537z" fill="#da6d25"/><path d="M1018.16 215.86c-.215.002-.404.03-.547.121-.732.468-.576 2.308.796 4.264 1.373 1.956 3.96 4.027 7.086 5.17 3.127 1.143 6.791 1.359 8.229-.447l-11.844-4.95z" fill="#aa551d"/><path d="M1429.034 199.512c-1.643-1.356-4.672-1.71-7.182-.59-2.51 1.12-4.5 3.712-7.744 5.009-3.244 1.296-7.743 1.296-6.748 2.298.995 1.002 7.484 3.005 12.373 3.064 4.888.059 8.176-1.827 9.69-3.948 1.514-2.12 1.255-4.477-.389-5.833z" fill="#ffb380"/><path d="M1429.034 199.512c-1.544 2.685-4.026 4.521-8.213 5.787-3.153.953-7.261 1.59-9.667 2.85 2.58.887 6.482 1.775 9.714 1.814 4.889.059 8.178-1.827 9.692-3.947 1.514-2.121 1.255-4.479-.389-5.834-.326-.269-.717-.484-1.137-.67zM1350.388 222.289c1.12-.865 3.182-1.09 4.891-.376 1.71.714 3.065 2.367 5.275 3.194 2.21.826 5.274.826 4.596 1.465-.678.639-5.098 1.916-8.427 1.954-3.33.037-5.569-1.165-6.6-2.517-1.032-1.353-.855-2.856.265-3.72z" fill="#f95"/><path d="M1350.388 222.289c1.051 1.712 2.742 2.883 5.593 3.69 2.149.608 4.947 1.014 6.585 1.817-1.758.566-4.415 1.132-6.616 1.157-3.33.037-5.57-1.165-6.601-2.517-1.032-1.352-.855-2.856.264-3.72.222-.171.489-.309.775-.427z" fill="#aa551d"/><path d="M1307.412 232.392c1.065 1.494 3.308 2.115 5.35 1.224 2.042-.89 3.883-3.29 6.503-4.291 2.62-1 6.02-.6 5.398-1.685-.622-1.085-5.264-3.653-8.95-4.146-3.685-.493-6.415 1.09-7.835 3.064s-1.531 4.34-.466 5.834z" fill="#da6d25"/><path d="M1307.412 232.392c1.516-2.532 3.63-4.137 6.959-5.024 2.507-.667 5.694-.936 7.676-1.974-1.835-1.112-4.667-2.341-7.104-2.667-3.686-.493-6.417 1.09-7.837 3.064-1.42 1.973-1.531 4.34-.466 5.834.211.296.48.545.772.767z" fill="#aa551d"/><path d="M1376.355 164.156c-.9-.864-2.556-1.09-3.93-.376-1.373.715-2.462 2.368-4.237 3.194-1.775.827-4.237.827-3.693 1.466.545.638 4.096 1.916 6.77 1.953 2.675.038 4.474-1.164 5.303-2.517.828-1.352.686-2.855-.213-3.72z" fill="#f95"/><path d="M1376.355 164.156c-.845 1.713-2.203 2.884-4.494 3.69-1.726.608-3.974 1.015-5.29 1.818 1.412.566 3.547 1.132 5.316 1.157 2.674.037 4.474-1.165 5.303-2.517.828-1.353.686-2.856-.213-3.72a2.638 2.638 0 00-.622-.428z" fill="#da6d25"/><path d="M1376.355 164.156c1.05-.987 2.983-1.244 4.586-.429 1.603.815 2.874 2.704 4.945 3.648 2.072.943 4.945.943 4.31 1.673-.636.73-4.78 2.189-7.901 2.231-3.122.043-5.222-1.33-6.189-2.874-.967-1.545-.8-3.261.249-4.249z" fill="#f95"/><path d="M1376.355 164.156c.986 1.956 2.57 3.293 5.245 4.215 2.013.694 4.637 1.158 6.173 2.075-1.648.646-4.14 1.293-6.203 1.321-3.122.043-5.222-1.33-6.19-2.874-.966-1.545-.8-3.261.249-4.249.208-.195.458-.352.726-.488z" fill="#da6d25"/><path d="M1399.69 235.928c-.202-1.663-1.835-3.515-4.02-4.253-2.183-.739-4.917-.362-7.651-1.402-2.735-1.04-5.47-3.496-5.454-2.387.016 1.108 2.782 5.781 5.719 8.483 2.937 2.702 6.044 3.433 8.211 3.063 2.168-.37 3.396-1.842 3.194-3.504z" fill="#ffb380"/><path d="M1399.69 235.928c-2.518.672-5.107.353-8.396-1.218-2.477-1.184-5.35-3.067-7.552-3.67 1.047 1.91 2.896 4.54 4.838 6.327 2.937 2.702 6.044 3.433 8.212 3.063 2.167-.37 3.396-1.842 3.194-3.504a3.646 3.646 0 00-.297-.998z" fill="#f95"/><path d="M1399.69 235.928c-.092-1.922 1.332-4.024 3.56-4.818 2.228-.795 5.26-.281 8.027-1.41 2.768-1.128 5.273-3.898 5.462-2.614.189 1.285-1.938 6.625-4.616 9.674-2.678 3.05-5.907 3.81-8.323 3.32-2.416-.49-4.02-2.23-4.11-4.152z" fill="#ffb380"/><path d="M1399.69 235.928c2.85.85 5.595.553 8.864-1.176 2.463-1.303 5.223-3.405 7.497-4.042-.779 2.184-2.292 5.182-4.063 7.199-2.678 3.05-5.907 3.81-8.323 3.32-2.417-.49-4.02-2.23-4.111-4.152-.019-.38.04-.766.135-1.15zM1345.95 187.49c.159-1.39-.78-2.793-2.368-3.193-1.589-.4-3.828.204-5.794-.394-1.967-.598-3.662-2.4-3.862-1.46-.2.94 1.093 4.621 2.901 6.61 1.808 1.989 4.13 2.286 5.918 1.746 1.789-.54 3.045-1.917 3.204-3.308z" fill="#f95"/><path d="M1345.95 187.49c-2.125.834-4.114.833-6.419-.16-1.735-.747-3.65-2.047-5.279-2.33.463 1.513 1.423 3.554 2.618 4.87 1.808 1.989 4.13 2.286 5.918 1.747 1.789-.54 3.045-1.918 3.205-3.309.032-.275.01-.549-.043-.817z" fill="#da6d25"/><path d="M1345.95 187.49c-1.085-1.388-.989-3.49.472-4.93 1.46-1.44 4.284-2.219 6.024-4.113 1.74-1.894 2.397-4.904 3.23-4.025.834.88 1.844 5.648 1.188 8.931-.657 3.283-2.979 5.08-5.272 5.642-2.293.56-4.558-.115-5.643-1.504z" fill="#f95"/><path d="M1345.95 187.49c2.848-.46 5.004-1.729 6.852-4.26 1.392-1.907 2.615-4.52 4.196-5.86.49 1.915.788 4.715.354 6.886-.656 3.283-2.978 5.081-5.271 5.642-2.293.56-4.559-.115-5.643-1.504a3.39 3.39 0 01-.489-.903z" fill="#aa551d"/><path d="M1416.264 175.279c1.024-1.311.856-3.115-.638-4.206-1.493-1.092-4.311-1.47-6.097-2.924-1.785-1.454-2.538-3.983-3.332-3.138-.793.846-1.627 5.066-.865 7.83.762 2.765 3.12 4.075 5.406 4.321 2.286.246 4.502-.572 5.526-1.883z" fill="#ffb380"/><path d="M1416.264 175.279c-2.832-.102-5.008-.973-6.921-2.966-1.442-1.5-2.741-3.628-4.35-4.621-.419 1.704-.617 4.15-.113 5.98.762 2.764 3.12 4.075 5.406 4.32 2.286.246 4.502-.572 5.526-1.883.203-.26.344-.542.452-.83z" fill="#f95"/><path d="M1315.897 190.32c-.658 1.605-2.473 2.506-4.376 1.897-1.902-.61-3.89-2.729-6.306-3.37-2.416-.643-5.261.191-4.914-.955.348-1.146 3.888-4.271 6.962-5.234 3.075-.963 5.684.237 7.239 1.991 1.554 1.755 2.053 4.065 1.395 5.67z" fill="#da6d25"/><path d="M1315.897 190.32c-1.732-2.291-3.818-3.593-6.822-4.031-2.262-.33-5.04-.18-6.915-.942 1.382-1.33 3.6-2.906 5.633-3.543 3.075-.962 5.685.237 7.239 1.991 1.554 1.755 2.054 4.065 1.396 5.67-.13.319-.318.598-.53.854z" fill="#aa551d"/><path d="M911.357 195.976c-.599-1.593.523-3.186 2.206-3.773 1.682-.587 3.926-.168 5.683.084 1.757.251 3.028.335 4.187-.252 1.158-.587 2.205-1.845 2.317-1.425.112.42-.71 2.515-2.393 4.486-1.682 1.97-4.224 3.815-6.654 3.94-2.43.127-4.748-1.466-5.346-3.06zM932.57 187.137c1.019-1.565 3.056-4.698 4.888-6.76 1.832-2.063 3.459-3.056 4.696-4.463 1.236-1.407 2.083-3.228 2.61-2.984.527.245.736 2.556.852 4.941.116 2.385.14 4.844-.579 7.016-.718 2.173-2.177 4.06-4.549 4.647-2.371.588-5.654-.122-7.296-.476-1.64-.355-1.64-.355-.622-1.92z" fill="#44662f"/><path d="M842.06 168.753c-2.166-.212-5.76-2.009-7.874-4.122-2.115-2.114-2.749-4.545-3.33-6.554-.582-2.008-1.11-3.593-.634-3.33.476.265 1.955 2.38 3.488 3.7 1.533 1.32 3.119 1.85 5.127 3.012 2.008 1.163 4.44 2.96 5.284 4.545.845 1.586.105 2.96-2.06 2.749z" fill="#102310"/><path d="M842.06 168.753c-1.268-.793-1.163-3.54-.423-5.338s2.114-2.643 3.911-4.652c1.797-2.008 4.017-5.179 4.862-5.178.846 0 .317 3.17-.211 5.972-.529 2.801-1.057 5.232-2.642 7.029-1.586 1.796-4.228 2.959-5.497 2.167zM815.897 190.32c-1.215.053-1.744-2.273-1.744-3.7 0-1.428.529-1.956 2.061-4.493 1.533-2.537 4.07-7.082 5.285-8.086 1.216-1.003 1.11 1.533.793 4.017-.317 2.484-.846 4.915-2.061 7.346-1.216 2.43-3.118 4.862-4.334 4.915z" fill="#2f4620"/><path d="M815.897 190.32c-1.955 1.637-7.134 1.743-11.204.475-4.07-1.268-7.029-3.91-8.668-6.342-1.639-2.43-1.956-4.65-1.427-4.915.53-.264 1.903 1.427 4.176 2.22 2.273.792 5.444.686 8.35.633 2.907-.053 5.55-.053 7.505 1.533 1.955 1.587 3.223 4.758 1.268 6.395z" fill="#102310"/><path d="M872.826 196.332c-.423-1.533 1.162-2.484 3.277-2.272 2.114.211 4.757 1.585 7.24 2.06 2.484.476 4.81.053 5.232.529.423.476-1.057 1.85-3.118 2.907s-4.703 1.796-7.24 1.11c-2.537-.687-4.968-2.8-5.391-4.334z" fill="#2f4620"/><path d="M807.412 232.392c-2.166-.211-5.76-2.008-7.875-4.122-2.114-2.114-2.748-4.545-3.33-6.553-.58-2.008-1.11-3.594-.633-3.33.475.265 1.955 2.379 3.488 3.7 1.533 1.32 3.118 1.849 5.127 3.012 2.008 1.163 4.44 2.96 5.284 4.545.845 1.585.105 2.96-2.061 2.748z" fill="#102310"/><path d="M807.412 232.392c-1.269-.792-1.163-3.54-.423-5.338.74-1.797 2.114-2.643 3.911-4.651 1.797-2.008 4.016-5.18 4.862-5.179.846 0 .317 3.172-.211 5.973-.529 2.8-1.057 5.232-2.643 7.028-1.585 1.797-4.227 2.96-5.496 2.167z" fill="#2f4620"/><ellipse cx="867.151" cy="186.902" rx="3.437" ry="3.823" fill="#5f5fd3"/><ellipse cx="871.369" cy="187.471" rx="3.437" ry="3.904" fill="#3737c8"/><ellipse cx="863.636" cy="189.749" rx="2.89" ry="3.416" fill="#2a2aff"/><ellipse cx="868.713" cy="190.074" rx="3.281" ry="3.742" fill="#afafe9"/><ellipse cx="874.103" cy="190.481" rx="3.047" ry="3.172" fill="#55f"/><ellipse cx="865.901" cy="193.572" rx="2.968" ry="3.335" fill="#95f"/><ellipse cx="870.666" cy="193.003" rx="3.203" ry="3.416" fill="#60f"/><ellipse cx="784.985" cy="220.047" rx="3.437" ry="3.823" fill="#5f5fd3"/><ellipse cx="789.204" cy="220.617" rx="3.437" ry="3.904" fill="#3737c8"/><ellipse cx="781.47" cy="222.894" rx="2.89" ry="3.416" fill="#2a2aff"/><ellipse cx="786.548" cy="223.219" rx="3.281" ry="3.742" fill="#afafe9"/><ellipse cx="791.938" cy="223.626" rx="3.047" ry="3.172" fill="#55f"/><ellipse cx="783.735" cy="226.717" rx="2.968" ry="3.335" fill="#95f"/><ellipse cx="788.501" cy="226.148" rx="3.203" ry="3.416" fill="#60f"/><ellipse cx="901.362" cy="210.534" rx="3.437" ry="3.823" fill="#5f5fd3"/><ellipse cx="905.581" cy="211.103" rx="3.437" ry="3.904" fill="#3737c8"/><ellipse cx="897.847" cy="213.381" rx="2.89" ry="3.416" fill="#2a2aff"/><ellipse cx="902.925" cy="213.706" rx="3.281" ry="3.742" fill="#afafe9"/><ellipse cx="908.315" cy="214.113" rx="3.047" ry="3.172" fill="#55f"/><ellipse cx="900.112" cy="217.204" rx="2.968" ry="3.335" fill="#95f"/><ellipse cx="904.878" cy="216.635" rx="3.203" ry="3.416" fill="#60f"/><ellipse cx="702.047" cy="454.03" rx="3.437" ry="3.823" transform="rotate(-19.194)" fill="#5f5fd3"/><ellipse cx="706.265" cy="454.599" rx="3.437" ry="3.904" transform="rotate(-19.194)" fill="#3737c8"/><ellipse cx="698.531" cy="456.877" rx="2.89" ry="3.416" transform="rotate(-19.194)" fill="#2a2aff"/><ellipse cx="703.609" cy="457.202" rx="3.281" ry="3.742" transform="rotate(-19.194)" fill="#afafe9"/><ellipse cx="708.999" cy="457.609" rx="3.047" ry="3.172" transform="rotate(-19.194)" fill="#55f"/><ellipse cx="700.797" cy="460.7" rx="2.968" ry="3.335" transform="rotate(-19.194)" fill="#95f"/><ellipse cx="705.562" cy="460.131" rx="3.203" ry="3.416" transform="rotate(-19.194)" fill="#60f"/><ellipse cx="884.973" cy="-298.445" rx="2.706" ry="3.034" transform="rotate(29.384)" fill="#5f5fd3"/><ellipse cx="888.295" cy="-297.993" rx="2.706" ry="3.099" transform="rotate(29.384)" fill="#3737c8"/><ellipse cx="882.206" cy="-296.186" rx="2.276" ry="2.711" transform="rotate(29.384)" fill="#2a2aff"/><ellipse cx="886.204" cy="-295.928" rx="2.583" ry="2.97" transform="rotate(29.384)" fill="#afafe9"/><ellipse cx="890.448" cy="-295.605" rx="2.399" ry="2.518" transform="rotate(29.384)" fill="#55f"/><ellipse cx="883.989" cy="-293.152" rx="2.337" ry="2.647" transform="rotate(29.384)" fill="#95f"/><ellipse cx="887.741" cy="-293.604" rx="2.522" ry="2.711" transform="rotate(29.384)" fill="#60f"/><ellipse cx="921.841" cy="202.91" rx="2.175" ry="2.859" fill="#5f5fd3"/><ellipse cx="924.51" cy="203.336" rx="2.175" ry="2.92" fill="#3737c8"/><ellipse cx="919.617" cy="205.039" rx="1.829" ry="2.555" fill="#2a2aff"/><ellipse cx="922.83" cy="205.283" rx="2.076" ry="2.798" fill="#afafe9"/><ellipse cx="926.24" cy="205.587" rx="1.928" ry="2.372" fill="#55f"/><ellipse cx="921.05" cy="207.898" rx="1.878" ry="2.494" fill="#95f"/><ellipse cx="924.065" cy="207.472" rx="2.026" ry="2.555" fill="#60f"/><ellipse cx="890.572" cy="230.235" rx="2.241" ry="2.596" fill="#5f5fd3"/><ellipse cx="893.322" cy="230.622" rx="2.241" ry="2.651" fill="#3737c8"/><ellipse cx="888.28" cy="232.168" rx="1.885" ry="2.32" fill="#2a2aff"/><ellipse cx="891.591" cy="232.389" rx="2.139" ry="2.541" fill="#afafe9"/><ellipse cx="895.105" cy="232.666" rx="1.987" ry="2.154" fill="#55f"/><ellipse cx="889.757" cy="234.764" rx="1.936" ry="2.264" fill="#95f"/><ellipse cx="892.864" cy="234.378" rx="2.088" ry="2.32" fill="#60f"/><ellipse cx="839.657" cy="235.89" rx="1.975" ry="2.42" fill="#5f5fd3"/><ellipse cx="842.081" cy="236.251" rx="1.975" ry="2.472" fill="#3737c8"/><ellipse cx="837.637" cy="237.693" rx="1.661" ry="2.163" fill="#2a2aff"/><ellipse cx="840.555" cy="237.899" rx="1.886" ry="2.369" fill="#afafe9"/><ellipse cx="843.653" cy="238.156" rx="1.751" ry="2.008" fill="#55f"/><ellipse cx="838.939" cy="240.113" rx="1.706" ry="2.111" fill="#95f"/><ellipse cx="841.677" cy="239.753" rx="1.841" ry="2.163" fill="#60f"/><ellipse cx="825.774" cy="167.24" rx="1.843" ry="2.07" fill="#5f5fd3"/><ellipse cx="828.035" cy="167.548" rx="1.843" ry="2.114" fill="#3737c8"/><ellipse cx="823.889" cy="168.781" rx="1.549" ry="1.85" fill="#2a2aff"/><ellipse cx="826.611" cy="168.957" rx="1.759" ry="2.026" fill="#afafe9"/><ellipse cx="829.501" cy="169.178" rx="1.633" ry="1.717" fill="#55f"/><ellipse cx="825.104" cy="170.851" rx="1.591" ry="1.805" fill="#95f"/><ellipse cx="827.658" cy="170.543" rx="1.717" ry="1.85" fill="#60f"/><path d="M619.321 187.28c.059-3.7 1.48-4.369 3.438-3.453 1.95.917 3.368 3.49 1.705 4.025-1.672.537-4.012.647-4.012.647s6.603.844 4.552 2.951c-2.047 2.11-2.854 3.664-4.172 1.853-1.317-1.81-1.241-4.256-1.241-4.256s-1.09 5.833-3.572 3.966c-2.195-1.64-2.792-3.002-2.249-3.732.532-.731 4.761-1.202 4.761-1.202s-4.991-.545-4.722-2.014c.266-1.484 3.434-3.83 4.369-2.287.94 1.545 1.151 3.5 1.151 3.5zM575.372 164.884c-1.205-2.147-.616-2.986.805-3.08 1.422-.095 3.092.933 2.321 1.776-.775.84-2.071 1.648-2.071 1.648s4.048-1.618 3.583.25c-.461 1.866-.4 3.015-1.761 2.396-1.361-.624-2.132-2.056-2.132-2.056s1.327 3.703-.71 3.424c-1.803-.246-2.597-.84-2.537-1.433.06-.59 2.317-2.207 2.317-2.207s-3.027 1.274-3.367.34c-.34-.937.68-3.3 1.73-2.706 1.051.59 1.822 1.648 1.822 1.648zM533.985 223.289c-1.715-3.075-.879-4.288 1.144-4.418 2.022-.13 4.395 1.343 3.29 2.542-1.095 1.209-2.944 2.365-2.944 2.365s5.76-2.317 5.102.36c-.659 2.676-.572 4.33-2.504 3.434-1.935-.892-3.031-2.945-3.031-2.945s1.888 5.31-1.014 4.911c-2.563-.355-3.694-1.204-3.607-2.053.086-.849 3.3-3.17 3.3-3.17s-4.31 1.832-4.794.49c-.485-1.343.97-4.73 2.464-3.881 1.494.849 2.594 2.365 2.594 2.365zM565.989 198.805c-1.715-3.075-.88-4.287 1.143-4.417 2.022-.13 4.396 1.342 3.291 2.542-1.095 1.208-2.945 2.365-2.945 2.365s5.76-2.317 5.102.36c-.658 2.676-.572 4.33-2.503 3.433-1.936-.892-3.032-2.944-3.032-2.944s1.889 5.31-1.013 4.91c-2.564-.354-3.694-1.203-3.608-2.052.087-.849 3.3-3.17 3.3-3.17s-4.309 1.832-4.794.49c-.485-1.343.97-4.73 2.464-3.881 1.495.849 2.595 2.364 2.595 2.364zM592.965 237.014c-1.343-2.408-.689-3.358.896-3.46 1.584-.102 3.443 1.052 2.578 1.991-.858.947-2.307 1.853-2.307 1.853s4.512-1.815 3.997.281c-.516 2.097-.448 3.393-1.961 2.69-1.517-.698-2.375-2.306-2.375-2.306s1.48 4.159-.794 3.847c-2.008-.278-2.894-.943-2.826-1.608.068-.665 2.585-2.484 2.585-2.484s-3.375 1.435-3.755.384c-.38-1.052.76-3.705 1.93-3.04s2.032 1.852 2.032 1.852zM642.405 229.38c-.344-3.349.788-4.171 2.53-3.622 1.741.549 3.207 2.664 1.855 3.385-1.349.733-3.31 1.17-3.31 1.17s5.652-.199 4.148 2.007c-1.504 2.205-2.02 3.73-3.32 2.283-1.305-1.446-1.494-3.665-1.494-3.665s-.306 5.428-2.596 4.111c-2.023-1.166-2.669-2.307-2.294-3.047.374-.74 3.894-1.781 3.894-1.781s-4.264.238-4.193-1.137c.07-1.375 2.496-3.96 3.446-2.7.95 1.26 1.334 2.995 1.334 2.995zM665.957 175.907c1.675-2.75 3.143-2.684 4.357-1.215 1.207 1.467 1.246 3.962-.363 3.698-1.616-.265-3.597-1.117-3.597-1.117s5.08 3.27 2.46 4.031c-2.618.765-3.968 1.607-4.26-.277-.29-1.884.848-3.687.848-3.687s-3.467 3.938-4.693 1.547c-1.091-2.107-.985-3.366-.215-3.697.76-.335 4.459 1.001 4.459 1.001s-3.881-2.402-3.013-3.396c.872-1.007 4.52-1.5 4.613.03.096 1.534-.589 3.084-.589 3.084zM657.593 209.955c4.303-.186 5.324 1.494 4.596 3.937-.732 2.434-3.476 4.336-4.382 2.351-.909-1.993-1.437-4.83-1.437-4.83s.15 8.083-2.648 5.737c-2.8-2.341-4.74-3.214-2.864-4.941 1.877-1.727 4.728-1.804 4.728-1.804s-6.958-.92-5.215-4.065c1.53-2.781 3.008-3.602 3.95-2.992.938.595 2.208 5.702 2.208 5.702s-.221-6.103 1.531-5.878c1.768.22 5.033 3.907 3.402 5.15-1.633 1.25-3.866 1.642-3.866 1.642zM671.756 204.461c-.266-2.59.61-3.226 1.957-2.801 1.348.424 2.482 2.06 1.435 2.62-1.043.566-2.56.904-2.56.904s4.373-.154 3.21 1.552c-1.164 1.707-1.564 2.887-2.57 1.767-1.01-1.118-1.155-2.835-1.155-2.835s-.237 4.2-2.01 3.18c-1.565-.902-2.064-1.785-1.774-2.357.29-.572 3.013-1.378 3.013-1.378s-3.3.184-3.244-.88c.055-1.064 1.93-3.064 2.666-2.089.735.976 1.032 2.317 1.032 2.317z" fill="#dee3db"/></g></svg>