<svg xmlns="http://www.w3.org/2000/svg" width="2250" height="250"><path d="M588.926 197.452s1.507-.605 4.019-1.971c2.512-1.366 17.134-3.756 18.595-3.756 1.46 0 1.67 2.204 8.058 1.47 6.39-.734 14.644-.844 16.375-2.943 1.73-2.1-1.184-9.05.472-10.758 1.657-1.707 4.861-.96 3.42-3.664-1.44-2.703 1.528-12.706 3.75-13.92 2.223-1.212 5.289-11.22 3.436-15.318-1.853-4.098-2.318-2.552-3.59-5.541-1.272-2.99 1.657-8.159-.637-11.921-2.293-3.762-10.1-11.34-10.1-14.057 0-2.717-.424-8.015-4.185-8.646-3.762-.63-14.133-23.474-24.124-20.506-9.992 2.968-19.723 19.302-23.05 20.465-3.326 1.164-8.155 5.614-6.924 7.508 1.23 1.894 2.208 7.366-.188 8.439-2.397 1.073-8.051 6.47-8.051 10.638s1.475 4.119 1.363 6.092c-.112 1.974-.826 7.844-2.523 9.167-1.698 1.322-3.871 4.556-3.554 10.105.317 5.549 4.106 4.247 3.131 6.394-.974 2.148-.442 7.202.201 8.962.643 1.76-.59 2.853-.317 4.796.273 1.943 12.589 14.947 15.363 16.54 2.774 1.595 9.06 2.425 9.06 2.425z" fill="#d9b581"/><path d="M581.156 132.678s-6.985 10.45-10.272 10.45c-1.496 0-2.635-1.187-3.45-2.474-.273 2.537-.98 6.648-2.387 7.744-1.698 1.323-3.87 4.555-3.553 10.104.317 5.549 4.105 4.247 3.13 6.394-.974 2.148-.441 7.203.202 8.963.643 1.76-.59 2.852-.317 4.795.274 1.943 12.59 14.947 15.364 16.541 2.774 1.595 9.058 2.424 9.058 2.424s1.508-.605 4.02-1.97c2.512-1.366 17.135-3.756 18.596-3.756 1.46 0 1.67 2.204 8.058 1.47 6.39-.733 14.643-.844 16.373-2.943 1.434-1.74-.314-6.805-.014-9.463-1.985-.95-3.508-1.57-4.037-1.537-2.122.136-1.327 2.072-2.75 3.166-1.422 1.093-4.298-3.083-4.298-5.43 0-2.347-3.43-11.054-5.094-12.197-1.665-1.143-3.96 4.051-6.567 3.715-2.606-.336-2.76-2.859-1.353-7.133 1.407-4.274.322-2.575-.883-4.375-1.205-1.8-3.579-.86-4.555-1.635-.976-.775.917-6.069-.668-9.967-1.584-3.897-3.006-4.823-2.914-6.968.093-2.146-.908-1.753-3.437-1.631-2.53.122-.6 11.012-1.945 9.303-1.346-1.71.353-4.457-.772-6.53-1.125-2.072-7.716-1.32-11.62-1.218-3.902.1-3.915-5.842-3.915-5.842zm3.592 9.05s1.597 1.607 1.988 4.864c.39 3.257 4.278 3.768 5.877 6.406 1.6 2.638 3.133 12.298 5.422 14.744 2.288 2.446 7.12-1.94 6.05-.053-1.069 1.888-2.52 5.89-2.732 8.258-.212 2.37-2.467.323-2.16-1.595.307-1.919 2.481-2.17.559-3.461-1.923-1.291-6.744-7.816-6.842-10.42-.099-2.604-.74-4.623-3.201-7.45-2.462-2.826-4.934-2.814-6.774-1.11-1.84 1.702-5.42 3.69-7.937 3.69-2.518 0-5.858-.796-2.235-1.857 3.623-1.06 10.328-2.475 11.442-4.125 1.114-1.65-3.274-6.903-1.594-6.336 1.68.567 2.137-1.554 2.137-1.554z" fill="#c38142"/><path d="M604.37 249.707l17.806-.273-10.793-12.388-8.684 5.044z" fill="#995f26"/><path d="M605.837 250s.749-9.853 4.178-6.807c3.428 3.046 3.505 4.95 6.973 5.95 3.469 1.001 7.538.994 8.596-.54 1.057-1.535-10.875-32.955-11.324-38.068-.448-5.113 1.506-21.223-2.067-20.485-3.574.738-13.753 1.122-15.62 3.284-1.865 2.162-1.203 16.555-2.534 17.537-1.33.982-2.028 4.457-1.17 6.069.859 1.612.042 30.587 1.639 31.683 1.597 1.095 11.33 1.377 11.33 1.377z" fill="#c8b292"/><path d="M612.312 190.37a1.072 1.072 0 00-.318.02c-3.574.737-13.753 1.123-15.62 3.285-1.803 2.089-1.246 15.598-2.408 17.39 1.202-1.2 2.832-2.257 3.86-2.613 1.617-.56.645-5.531 2.916-6.274 2.14-.7 8.162-1.643 13.421-1.066.112-5.33-.027-10.58-1.851-10.742zm-18.582 20.953a2.613 2.613 0 00-.44.502 8.36 8.36 0 01.44-.502zm-1.246 2.492c-.279 1.249-.268 2.614.185 3.465.859 1.612.042 30.588 1.639 31.684.988.677 4.95 1.022 7.936 1.203-.833-3.08-1.74-6.631-1.74-8.498 0-3.448-.128-8.162-.128-8.162s-3.558-3.85-3.779-5.887c-.203-1.869-3.938-10.89-4.113-13.805z" fill="#b28153"/><path d="M602.212 101.381s4.925.122 4.925 6.93c0 6.807-1.522 11.413-5.311 12.862-3.79 1.45-4.215 4.1-6.07-.31-1.855-4.41-3.17-13.609-.315-15.466 2.856-1.858 6.77-4.016 6.77-4.016z" fill="#c38142"/><path d="M608.549 110.145s-1.833 11.966-4.82 15.477c-2.988 3.512-4.868 8.57-2.098 9.997 2.77 1.426 1.474 3.53 3.836 5.742 2.363 2.212 1.996-6.067 4.398-8.882 2.403-2.815 9.677-19.66 5.45-18.257-4.23 1.404-6.766-4.077-6.766-4.077zm.612 34.722s7.422.33 8.342-2.44c.92-2.77 6.474-18.084.92-14.798-5.556 3.287-6.778 2.427-7.81 7.26-1.03 4.833-1.452 9.978-1.452 9.978zm-37.326-19.499s6.278-3.598 7.222-.004c.944 3.595-4.359 12.427-6.953 13.531-2.594 1.104-3.37-2.611-4.275-4.492-.905-1.881 4.006-9.035 4.006-9.035z" fill="#c38142"/><path d="M586.61 185.751c.722.106.963.388 1.43 1.238.378.688.94 1.293 1.25 1.344.332.056.468.353.33.727-.398 1.072-1.65.727-4.071-1.117-2.009-1.531-1.955-2.317.153-2.254.373.011.668.027.908.062zm23.35-.907c.2.032.398.42.413 1.066.014.558-.276 1.422-.644 1.919-.367.496-.84 1.351-1.05 1.9-.505 1.319-1.806 1.146-2.093-.277-.317-1.578-.132-1.92.567-1.038.62.782.642.78.8-.097.089-.495.464-1.186.834-1.536.37-.35.723-.944.785-1.317.076-.453.233-.645.389-.62zm18.076 2.663c.165.024.293.08.348.157.365.51-.6.89-1.116.438-.418-.365-.385-.452.213-.574.193-.04.391-.046.555-.02zm-10.438-2.107c.162.015.336.116.511.318.288.333.934.47 1.964.41 2.297-.13 2.706 1.991.515 2.674-.56.174-1.644.214-2.409.09-1.3-.211-1.393-.316-1.42-1.608-.023-1.188.354-1.93.84-1.884zM568.3 173.091a11.72 11.72 0 00-1.111-.143c.853 2.67 2.039 5.14 3.677 7.16-.014-.428-.044-.93-.09-1.562-.068-.906.104-1.226.874-1.628.886-.463.935-.59.622-1.675-.275-.953-1.967-1.795-3.972-2.152z" fill="#995f26"/><path d="M631.983 186.063c-1.634-.223-2.734-.176-3.224.139-1.157.742-1.514.485-2.099-1.504-1.008-3.431-2.062-3.777-5.181-1.7-1.404.935-4.575.984-5.737.089-.6-.462-1.172-.522-2.793-.294-3.036.086-4.156-.874-5.859-3.266-.952-1.543-2.328.267-3.794.226-1.932-.714-3.044.52-1.187 1.317 1.98 1.833 1.191 3.697 4.204 4.871.657.12.994.394.934.754-.07.417-.437.473-1.423.22-1.46-.374-7.912 1.428-9.093 2.54-1.902.073-2.267-2.117-4.095-3.612-.944-.589-1.102-.907-.937-1.904.422-2.531-1.98-4.27-2.81-2.036-.22.59-.511.662-1.553.381-1.59-.429-2.002-.894-2.648-2.983-1.176-3.801-2.925-4.932-3.468-2.242-.748 3.706-.175 5.986 1.592 6.328.44.085 1.225 1.758.79 1.685-.118-.02-.62-.455-1.117-.968-1.032-1.065-3.58-2.069-3.683-1.45-.108.65 1.965 3.489 2.628 3.6-1.42.294-3.22-3.631-4.612-5.005-.866-.85-2.022-2.127-2.569-2.84-2.233-1.442-1.877.925-2.505 2.704 7.183 7.814 17.97 14.639 17.97 14.639l1.707-.243c.02-1.592.422-2.894 1.012-2.795 3.248-1.57-3.502 4.905 9.663-.685 2.557-1.27 8.178.637 9.573-2.042.21-.472.522-.583 1.015-.362 1.276.261 4.26-1.172 3.107.363-.757.983-.209 1.255 1.708.848 1.388-.295 1.87-.358 1.944.672l8.02.228c3.101-2.986 5.15-2.107 7.43-2.432 1.23-5.118.805-10.422-2.91-3.241zm-65.716-16.609c.074.345.151.688.233 1.029.768.22 1.231.166 1.36-.178.075-.2-.41-.51-1.08-.688a4.952 4.952 0 01-.513-.163z" fill="#995f26"/><path d="M633.197 178.902c-.856-.22-2.197.638-2.385 1.763-.196 1.182-.198 1.182.807.51.552-.369 1.29-.622 1.638-.565.726.121.964-.634.435-1.375a.853.853 0 00-.495-.333zm-67.304-11.456c.042.256.085.512.131.768.063-.333.01-.614-.131-.768zm30.567 2.992c-.855-.183-1.858-.087-2.646.405-1.453.905.09 6.626 1.88 6.973 1.316.256 1.114 3.167-.335 4.825-1.216 1.39-1.237 2.33-.063 2.875 1.438.667 1.59.521 2.815-2.686 1.652-4.322 1.765-5.34.866-7.89-.43-1.22-.748-2.418-.708-2.663.152-.91-.707-1.604-1.808-1.84z" fill="#995f26"/><path d="M633.023 176.116s.229 2.247 2.573 1.926c2.343-.32 3.851-.43 3.315-2.124-.536-1.694 1.192-4.412-1.321-3.652-2.514.76-4.567 3.85-4.567 3.85z" fill="#c38142"/><path d="M635.028 158.767c.318 1.074 3.827 3.517 4.019 5.92.192 2.403 1.9 3.991-.435 5.444-2.336 1.452-5.76 1.74-6.57 3.684-.81 1.943-.99 3.968-2.38 5.356s-4.53.133-4.055-1.99c.476-2.124.376-4.484 2.506-5.8 2.13-1.316 5.165-3.012 5.783-5.971.617-2.96 1.132-6.643 1.132-6.643z" fill="#c38142"/><path d="M636.908 175.96c-.62-.08-1.304.071-1.476.526-.173.458.079.643 1.118.815 1.063.177 1.365.077 1.459-.484.077-.466-.48-.778-1.101-.858zm-5.83-5.106c-.36-.032-.898.301-2.042 1.155-2.18 1.63-2.358 1.947-1.492 2.665 1.028.852 2.294.69 2.461-.313.06-.36.498-.902.973-1.207 1.034-.663 1.19-1.271.523-2.043-.131-.151-.26-.242-.423-.257zm-41.469-3.894c-.343-.085-.84.135-2.005.709-2.57 1.267-3.302 2.646-1.83 3.452.683.373.98.817.895 1.332-.07.426.263 1.558.74 2.515.477.958.828 1.97.782 2.25-.153.918.968.702 1.505-.29.38-.703.436-1.405.199-2.524-.255-1.198-.205-1.691.216-2.168.75-.85.787-3.89.06-4.807-.206-.26-.356-.42-.562-.47zm-20.807-3.826l-.474 1.044c-.262.575-.405 1.218-.32 1.428.317.772.978-.229.887-1.34zm52.105 5.394c-.327-.053-1.437.281-2.468.744-1.032.463-2.383.762-3.003.663-2.728-.436-2.76.336-.093 2.27 1.545 1.118 1.847 1.556 2.052 2.98.272 1.883.378 1.95 2.088 1.314 1.076-.4 1.341-.373 2.115.223 1.228.945 3.19.404 2.503-.69-.235-.375-.493-1.335-.573-2.135-.186-1.849-1.843-5.241-2.621-5.369z" fill="#995f26"/><path d="M607.88 165.202c-.585-.097-1.965 2.545-1.945 3.726.036 2.098-1.33 5.395-2.643 6.377-1.549 1.157-1.154 1.987.784 1.653.704-.121 1.805-.14 2.446-.04.641.1 1.626.01 2.191-.2 2.09-.773 4.218.152 3.957 1.722-.064.383.07.622.298.528.228-.093.562-1.058.743-2.143.69-4.142-2.812-11.12-5.831-11.623zm-16.307-4.109c-.283-.023-.597.257-1.012.813-.89 1.19-.92 2.774-.069 3.482 1.593 1.323 3.014-.41 2.17-2.645-.411-1.092-.725-1.621-1.089-1.65zm-5.877-1.125c-2.57-.428-3.245 1.228-1.011 2.483 1.429.803 1.453 1.801.065 2.793-.778.556-.816.651-.244.634.718-.02.926-.246 2.322-2.496 1.236-1.99.873-3.08-1.132-3.414zm-7.178-1.983c-.505-.05-1.109.865-2.131 2.94-.348.707-.817 1.062-1.383 1.05-.76-.017-.82.081-.535.875.542 1.514-.192 5.579-1.13 6.249-.438.314-.721.676-.63.804.31.435 2.15-.641 2.264-1.324.062-.375.567-.93 1.122-1.233 1.158-.636 1.937-2.285 2.262-4.794.148-1.135.446-1.876.85-2.111.545-.317.568-.49.183-1.366-.301-.682-.57-1.06-.873-1.09zm56.665 9.276c-.769-.194-1.568 1.714-1.1 3.098.299.88 1.322 1.236 1.447.504.043-.258.65-.677 1.346-.932 1.487-.548 1.528-1.34.088-1.694-.562-.139-1.217-.479-1.457-.756a.648.648 0 00-.324-.22zm.025-3.302c-.251-.025-.507.29-.604.87-.086.515-.005.963.18.993.437.073 1.035-.954.837-1.438-.112-.274-.262-.41-.413-.425z" fill="#995f26"/><path d="M621.607 164.954s.89 5.408 3.507 6.24c2.617.83 9.076-5.02 8.022-8.934-1.053-3.913-.464-9.124-7.856-3.402-7.392 5.721-3.673 6.096-3.673 6.096z" fill="#c38142"/><path d="M625.426 159.78a1.406 1.406 0 00-.705.071c-1.215.498-2.2 4.86-1.417 6.279.74 1.341 3.727.255 3.241-1.18-.214-.632-.117-.968.412-1.438.492-.438.723-.47.806-.111.065.276.299.53.52.567.22.037.173-.288-.106-.722-.279-.434-.462-1.051-.41-1.37.145-.865-1.23-1.958-2.341-2.095zm-39.448-6.707c-2.128-.354-2.523.276-1.228 1.95.45.581.725 1.442.634 1.989-.11.664.107 1.146.704 1.548.477.321.842.737.81.925-.052.314 4.095.7 4.53.421.706-.451-.155-3.116-1.254-3.875-.666-.46-1.473-1.246-1.794-1.746-.44-.688-1.03-.983-2.402-1.212zm22.896 3.477c-.475-.079-.802.148-1.577.742-.706.542-1.686 1.03-2.176 1.084-1.986.216-2.864.763-4.246 2.649-1.793 2.446-2.03 3.61-.939 4.616.453.417.873 1.098.932 1.513.14.973.269.977 1.991.066 1.576-.834 2.335-1.843 3.062-4.074.58-1.78 1.693-2.007 2.478-.505.518.993.518.994 1.829.099 2.855-1.95 2.768-4.266-.213-5.728-.52-.255-.856-.414-1.141-.461zm-11.266-2.153c-.135-.007-.252.18-.325.605-.085.49-.352 1.478-.597 2.196-.327.96-.304 1.503.092 2.056 1.16 1.623 2.032.369 1.689-2.427-.18-1.458-.562-2.415-.86-2.43zm-31.947-6.202c-.018-.004-.039-.003-.059-.004-.2.921-.328 1.67-.348 2.166-.079 1.943-.21 4.896-.132 8.274.204.376.206.615.027.802.043 1.284.114 2.613.236 3.974.634-.571 1.15-1.128 1.284-1.438.23-.526.649-.818 1.075-.747.98.163.914-2-.11-3.55-.654-.992-.694-1.434-.286-3.135.41-1.708.374-2.094-.264-2.806-.406-.455-.69-1.12-.63-1.478.059-.358-.091-1.02-.334-1.473-.188-.35-.3-.548-.459-.585zm16.031-2.435c-.904-.112-1.456.768-.962 2.226.295.871 1.176.782 2.354-.237.538-.465.539-.625-.004-1.18-.491-.501-.977-.757-1.388-.808z" fill="#995f26"/><path d="M623.978 145.484s.11 9.078 1.683 10.051c1.572.973 11.886-2.566 12.11-6.342.225-3.777-1.684-9.85-4.729-9.283-3.045.566-3.697.138-5.611.225-1.168.01-5.347 1.853-3.453 5.349z" fill="#c38142"/><path d="M625.989 145.557c-.074-.033-.133.242-.25.863-.132.697.027 1.468.4 1.938.34.43.645 1.283.676 1.894.05.981.151 1.074.848.785.6-.249 1.047-.179 1.856.291.93.54 1.13.534 1.57-.038.278-.36.377-.701.22-.759-.67-.245-1.46-.46-2.551-.696-.919-.198-1.223-.505-1.443-1.454-.154-.662-.403-1.223-.553-1.248-.15-.025-.39-.455-.538-.957-.11-.38-.178-.593-.235-.619z" fill="#995f26"/><path d="M608.096 154.236s1.404-.798 4.136 2.068c2.733 2.867.117 6.968 3.357 7.736 3.24.768 6.389-1.638 7.03-5.723.64-4.084-.455-8.869-.894-12.77-.438-3.901.136-3.251-1.541-3.26-1.677-.008-5.902 4.509-7.107 4.509-1.206 0-4.5-1.49-5.079.21-.577 1.7.098 7.23.098 7.23z" fill="#c38142"/><path d="M619.332 144.392c-.943-.1-2.345.472-3.627 1.509-1.078.872-2.203 1.269-5.606 1.981-1.112.233-1.156 1.3-.154 3.673.616 1.46.646 1.477 3.411 1.998 4.085.768 4.778 1.321 4.413 3.516-.185 1.113-.107 2.053.213 2.552.278.434.904.855 1.388.936 1.713.285 1.64-4.203-.118-7.26-1.05-1.828-1.053-1.875-.267-2.811 1.16-1.382 1.673-5.657.721-6.01a1.55 1.55 0 00-.374-.084zm-23.549-4.826c-.269-.027-.559 0-.855.095-1.28.414-2.682 3.711-2.004 4.714.677 1.002.11 1.473-1.276 1.06-2.72-.808-5.103 1.063-2.951 2.32.502.292.944.881.983 1.31.084.916.63 1.108 1.063.372.168-.286.939-.778 1.713-1.095.774-.317 1.45-.823 1.5-1.123.05-.3.386-.88.748-1.289.363-.41.884-1.38 1.157-2.155.274-.776.748-1.694 1.052-2.039.807-.915.036-2.05-1.13-2.17z" fill="#995f26"/><path d="M642.857 143.193s3.53 2.493 3.53 5.447c0 2.955.21 5.623-1.026 8.858-1.238 3.236-2.642 5.714-4.535 5.218-1.892-.496-6.363-6.04-4.194-7.93 2.168-1.89 2.59-3.81 3.74-6.407 1.153-2.597-.444-3.772.497-5.417.94-1.644 1.988.231 1.988.231z" fill="#c38142"/><path d="M644.134 146.696c-.295.047-.615.151-1.006.323-1 .441-1.051.573-1.218 3.072-.102 1.527-.358 2.784-.616 3.024-1.048.975-.981 3.133.152 4.926.606.96 1.233 1.767 1.39 1.794.28.046.781-.463 1.254-1.146l1.079-3.59c-.417.46-1.783 1.98-1.783 1.98s.94-5.396.748-10.383zm-42.465-9.467c-1.02-.128-1.747 1.252-1.574 3.092.074.788.152 1.911.174 2.498.022.587.264 1.105.537 1.15.465.078.988 2.49.794 3.655-.048.29.154 1.233.448 2.1.4 1.18.413 1.927.056 2.964-.39 1.127-.352 1.565.194 2.329 1.256 1.757 3.466-.056 4.015-3.294.642-3.781-.48-6.909-3.534-9.864-.77-.746-.831-1.069-.48-2.589.36-1.555.316-1.761-.422-1.994a1.19 1.19 0 00-.208-.047zm25.285 3.802c-.31-.032-.443.442-.393 1.412.033.657.217 1.222.407 1.253.482.08.791-2.08.352-2.463-.141-.124-.263-.191-.366-.202zm-12.576-10.664c-1.183-.167-2.11 1.178-2.307 3.843-.136 1.846-.353 2.602-.924 3.222-.805.873-.865 4.143-.088 4.823.196.172.981.166 1.742-.013.915-.215 1.924-.151 2.974.19 1.59.516 1.59.516 1.92-.722.25-.932.12-1.595-.521-2.683-.76-1.285-.8-1.684-.37-3.59.393-1.732.369-2.326-.126-3.096-.79-1.23-1.591-1.874-2.3-1.974zm-37.071-5.207a285.089 285.089 0 00-5.41 12.236c1.324-1.4 2.654-2.988 3.494-4.274 3.043-4.654 3.066-4.736 2.116-7.365-.072-.202-.135-.399-.2-.597z" fill="#995f26"/><path d="M595.367 136.348s-5.905 1.386-9.115-1.721-1.628-16.539 1.705-17.62c3.332-1.083 3.721-5.88 3.934-2.194.214 3.686 5.076 10.321 5.558 12.83.483 2.51-2.082 8.705-2.082 8.705z" fill="#c38142"/><path d="M596.455 126.665c-.136-.005-.254.102-.296.353-.036.217.111.94.326 1.607.513 1.586-.324 2.515-2.72 3.02-3.146.663-3.11 2.017.114 4.444 1.986 1.495 2.216 1.437 2.878-.73a43.88 43.88 0 011.198-3.357c.584-1.403.575-1.657-.086-2.66-.402-.61-.779-1.446-.838-1.856-.07-.493-.349-.812-.576-.82z" fill="#995f26"/><path d="M640.138 140.496s.785-.034 1.644-2.474c.858-2.44 2.067-4.333-.26-7.488-2.328-3.154-3.546-8.258-6.55-5.596-3.005 2.662-.499 12.884.832 14.436 1.33 1.551 3.73 1.94 4.334 1.122z" fill="#c38142"/><path d="M639.63 133.662c-.21-.015-.354.189-.562.665-.36.825-.501 3.4-.224 4.075.32.782 1.476.267 2.417-.795-.52-1.113-1.068-2.46-1.63-3.945z" fill="#995f26"/><path d="M620.586 138.354s-2.052 2.24-.475 2.431c1.578.192 9.379-1.49 10.375-2.728.997-1.239 2.006-2.755 1.558-4.826-.449-2.07-.57-3.681.087-6.684.658-3.003-2.31-9.117-5.92-5.684-3.61 3.433-4.52 6.633-4.494 9.15.027 2.516-1.131 8.341-1.131 8.341z" fill="#c38142"/><path d="M622.715 128.107a.061.061 0 00-.047.01c-.138.099-.086.412.118.697.203.285.262 1.174.128 1.977-.192 1.153-.041 1.709.718 2.636 1.047 1.28 1.062 3.09.028 3.302-.329.067-.628.304-.665.527-.044.262.442.395 1.384.38 3.234-.05 3.644-.377 3.207-2.547-.232-1.157-4.25-6.878-4.869-6.982zm-13.702-7.646c-1.137-.19-1.769.887-1.117 1.903.454.706.458 1.221.025 2.638-.461 1.507-.44 1.877.142 2.571.8.955.316 2.817-.928 3.566-2.427 1.463-2.874 2.278-1.976 3.594 1.596 2.338 2.673 1.824 3.122-1.486.253-1.861.467-2.318 1.512-3.21 1.218-1.039 1.218-1.038.973-3.253-.55-4.981-.882-6.178-1.753-6.323z" fill="#995f26"/><path d="M575.249 112.832s1.903 6.956 2.532 8.641c.63 1.686 2.472-.78 4.231 1.498 1.76 2.278 2.893-4.655 4.458-7.983 1.565-3.329 1.105-7.668-2.175-7.215-3.28.453-9.046 5.06-9.046 5.06z" fill="#c38142"/><path d="M585.328 109.26c-2.191 3.037-4.452 6.42-6.73 10.036.427.008 1.21-.385 2.746-1.172 2.224-1.14 2.69-1.906 3.514-5.793.278-1.313.462-2.314.47-3.071z" fill="#995f26"/><path d="M596.933 92.119s-7.363 5.94-8.474 10.172c-1.111 4.233 1.157 13.637 2.005 9.788.848-3.849 1.461-8.346 4.904-10.215 3.442-1.87 8.664-.792 11.19-2.104 2.527-1.313 5.113-10.147.542-10.759-4.572-.612-10.167 3.118-10.167 3.118z" fill="#c38142"/><path d="M601.028 111.61c-.614-.102-1.178.022-1.252.275-.074.253-.267.959-.43 1.568-.161.61-.498 1.64-.75 2.29-.275.708-.343 1.687-.169 2.438.291 1.254-.442 2.136-1.978 2.38-.557.087.074 2.189.753 2.508.998.47 2.817.237 4.242-.543 1.36-.743 1.428-.863 1.596-2.867.411-4.89-.308-7.765-2.012-8.049zm27.991.106c-.03-.006-.055-.002-.073.012-.147.105-.046.759.223 1.455.437 1.132 1.75 1.957 1.878 1.182.075-.452-1.578-2.561-2.028-2.649z" fill="#995f26"/><path d="M611.746 90.536s-2.747 7.967-2.43 13.035c.317 5.067.14 9.789 8.047 8.088 7.908-1.701 8.705-2.704 6.22-6.032-2.487-3.328-3.267-8.055-6.014-10.238-2.746-2.182-5.823-4.853-5.823-4.853z" fill="#c38142"/><path d="M612.404 103.159c-1.665-.517-2.62.932-2.119 3.217.502 2.285 2.279 4.583 3.945 5.1 1.665.517 2.62-.932 2.119-3.217-.501-2.285-2.279-4.583-3.945-5.1zm-7.747-9.824c-.35-.081-1.155.214-2.759.803-1.349.497-2.39.71-3.218.607-1.15 1.09-2.43 2.262-3.83 3.49 1.296.168 2.691-.101 3.939-.847 1.113-.665 2.809-1.113 3.767-.992 1.242.155 1.862-.306 2.15-1.609.201-.914.301-1.37-.049-1.452z" fill="#995f26"/><path d="M595.107 212.083s-.048-3.524 2.162-2.032-.318 4.235.304 8.168c.623 3.933 3.701 13.594 3.701 13.594s-5.22-9.512-5.838-13.412c-.62-3.9-.33-6.318-.33-6.318zm10.861 35.307s-1.467-9.172 1.6-9.585c3.069-.412 2.048 4.66 4.59 6.065 2.541 1.405 9.047-1.483 6.81.733-2.235 2.215 5.247 5.04 5.247 5.04s-5.555.444-9.471-1.012c-3.916-1.456-5.892-7.222-7.326-3.67-1.434 3.552-1.45 2.429-1.45 2.429z" fill="#b28153"/><path d="M627.636 107.597s3.367-.193 3.6 3.225c.232 3.418 1.644 6.827-.216 7.228-1.86.4-7.086 3.024-8.7 1.087-1.613-1.938-1.683-3.113 1.149-5.586 2.832-2.473 4.167-5.954 4.167-5.954z" fill="#c38142"/></svg>