<svg xmlns="http://www.w3.org/2000/svg" width="2250" height="250"><path d="M1077.9 185.425c-15.933 54.897-1.994 63.945 17.712 63.743 19.952-.201 2.947-65.516 2.947-65.516l-20.66 1.766z" fill="#f6ffd5"/><path d="M1098.565 183.652l-20.665 1.766c-4.86 16.74-6.929 29.197-6.916 38.447 9.162-7.307 20.47-13.289 32.118-18.154-1.969-12.115-4.543-22.06-4.543-22.06z" fill="#e6efc8"/><path d="M1048.192 188.397c4.266-24.496 15.996-47.313 37.33-48.007 30.465-.984 33.33 26.66 41.949 46.688 3.067 16.936-79.847 13.15-79.279 1.325z" fill="#ffa85e"/><path d="M1079.976 141.11c-17.845 4.114-27.903 25-31.784 47.287-.379 7.748 35.071 12.046 58.708 9.326-3.136-10.639-8.348-22.905-16.134-25.24-16.198-4.878-24.117-4.423-10.79-31.38z" fill="#c97245"/><g><path d="M1319.473 138.698c-27.516 94.806-3.444 110.433 30.589 110.085 34.457-.35 5.089-113.148 5.089-113.148l-35.678 3.052z" fill="#f6ffd5"/><path d="M1355.162 135.635l-35.69 3.052c-8.39 28.91-11.964 50.422-11.943 66.397 15.823-12.619 35.351-22.95 55.468-31.352-3.4-20.922-7.846-38.097-7.846-38.097z" fill="#e6efc8"/><path d="M1268.168 143.83c7.367-42.303 27.625-81.708 64.469-82.907 52.612-1.7 57.56 46.041 72.446 80.63 5.296 29.248-137.896 22.71-136.915 2.288z" fill="#ffa85e"/><path d="M1323.058 62.165c-30.818 7.105-48.188 43.176-54.89 81.665-.654 13.382 60.568 20.803 101.39 16.106-5.417-18.372-14.418-39.557-27.865-43.589-27.974-8.424-41.65-7.639-18.635-54.192z" fill="#c97245"/></g></svg>