<svg xmlns="http://www.w3.org/2000/svg" width="2250" height="250"><path d="M1065.016 171.61c-14.846 7.014 46.777 26.778 36.76 9.15zm35.885 26.965c-11.77 9.238 28.101 13.848 21.998 5.515z" fill="#a02c2c"/><path d="M1101.405 200.51c-11.181 5.216 28.092 12.14 19.83 3.71z" fill="#782121"/><path d="M1082.787 161.927a93.872 93.872 0 012.211 9.675c-6.384-.42-13.388.74-19.59.165 8.177 3.852 14.936 3.82 21.053 15.274a107.544 107.544 0 01-1.106 17.37c-1.86-.045-3.495.045-4.436.352 1.57.446 2.942.803 4.222 1.08-2.122 13.472-6.866 27.463-14.873 41.221l8.765 1.881c21.6-9.71 30.892-21.052 34.517-32.144a28.69 28.69 0 003.807-.464c-.624-.553-1.85-.954-3.295-1.23a42.8 42.8 0 001.41-8.24c1.787-2.737 3.41-3.513 6.9-3.95-2.697-.597-4.854-1.85-6.838-3.062a74.454 74.454 0 00-.192-2.872l-6.26-7.512c.335 2.408.714 4.993 1.003 7.655-2.474-.615-5.131-.013-8.68 3.384 2.3.116 6.264 2.283 9.095 5.912a32.252 32.252 0 01-1.382 8.301c-1.632.045-3.139.245-4.102.651 1.298.446 2.444.776 3.514 1.012-3.054 7.749-10.215 14.383-25.61 17.521 4.624-8.716 7.393-17.713 8.744-27.209 1.564.045 3.13-.022 4.895-.187-1.026-.57-2.746-1.043-4.668-1.405.753-6.023.95-12.251.695-18.747 3.603-3.223 6.305-3.01 9.564-2.64-2.448-6.29-6.224-9.424-10.665-10.927a246.27 246.27 0 00-1.498-10.553z" fill="#f6ffd5"/><path d="M1109.742 194.344c.12.923.24 1.841.343 2.782-2.474-.615-5.131-.013-8.68 3.384 2.3.116 6.264 2.283 9.095 5.912a42.608 42.608 0 01-.24 2.808 44.182 44.182 0 015.135-1.591l.076-.771c1.792-2.738 3.41-3.51 6.902-3.95-2.698-.598-4.851-1.85-6.84-3.063a74.454 74.454 0 00-.191-2.872l-.192-.231z" fill="#e6efc8"/><path d="M1064.436 171.259c-9.202 8.453 45.895 26 36.76 9.148z" fill="#782121"/><path d="M1082.787 161.927a93.872 93.872 0 012.211 9.675c-6.384-.42-13.388.74-19.59.165 8.177 3.852 14.936 3.82 21.053 15.274.044 2.252-.01 4.539-.116 6.84 1.926-1.655 4.066-3.166 6.308-4.512-.017-1-.022-1.993-.067-3.01 3.603-3.223 6.305-3.01 9.564-2.64-2.448-6.29-6.22-9.424-10.665-10.927a246.979 246.979 0 00-1.498-10.553zm1.146 43.153a8.136 8.136 0 00-1.043.022l-.415.08c.423.183 1.828.473 2.666.66a113.636 113.636 0 01-2.109 10.245 51.596 51.596 0 017.669-3.923c.37-1.806.704-3.63.963-5.47.842.022 1.988 0 2.63-.036l.134-.004c-.798-.504-7.481-1.494-10.495-1.574zm23.165 10.633a6.286 6.286 0 00-.856.067l-.343.084c.446.21 1.525.335 2.23.464-.821 3.183-2.136 4.209-3.367 6.264.736-.267 4.365.013 6.821-.851.794-1.534 1.806-3.193 1.953-4.793.874-.17 2.042-.268 2.274-.357-.673-.401-6.22-.936-8.712-.878z" fill="#e6efc8"/><path d="M1063.014 173.176c28.953-68.15 42.8.37 39.871 11.427-3.74-6.229-37.477-12.836-39.87-11.427zm60.357 31.623c-5.038-32.738-17.044-22.871-24.373-3.981 4.445-1.41 20.606.994 24.373 3.98z" fill="#a02c2c"/><g><path d="M1311.555 97.308c-29.166 13.777 91.894 52.603 72.214 17.972zm70.497 52.971c-23.122 18.148 55.205 27.204 43.215 10.834z" fill="#a02c2c"/><path d="M1383.042 154.08c-21.967 10.248 55.187 23.85 38.958 7.287z" fill="#782121"/><path d="M1346.466 78.284a184.414 184.414 0 014.344 19.006c-12.542-.823-26.301 1.454-38.485.324 16.064 7.568 29.341 7.506 41.358 30.007a211.273 211.273 0 01-2.172 34.123c-3.652-.088-6.867.088-8.715.692 3.083.876 5.78 1.576 8.295 2.12-4.17 26.468-13.488 53.952-29.219 80.98l17.22 3.697c42.434-19.076 60.687-41.358 67.808-63.149 2.32-.114 4.843-.42 7.48-.91-1.227-1.087-3.635-1.875-6.473-2.418a84.082 84.082 0 002.768-16.186c3.512-5.378 6.7-6.902 13.558-7.76-5.299-1.174-9.538-3.635-13.436-6.017a146.267 146.267 0 00-.376-5.64l-12.297-14.759c.657 4.73 1.401 9.81 1.97 15.039-4.86-1.21-10.08-.027-17.052 6.647 4.52.228 12.305 4.485 17.867 11.614a63.36 63.36 0 01-2.715 16.308c-3.206.088-6.166.482-8.058 1.28 2.549.875 4.8 1.523 6.902 1.987-6 15.223-20.066 28.255-50.31 34.421 9.083-17.123 14.523-34.797 17.176-53.453 3.075.088 6.149-.044 9.617-.368-2.014-1.12-5.395-2.05-9.17-2.759 1.48-11.832 1.866-24.068 1.366-36.83 7.077-6.332 12.385-5.911 18.787-5.184-4.808-12.359-12.227-18.516-20.95-21.467a483.803 483.803 0 00-2.943-20.732z" fill="#f6ffd5"/><path d="M1399.42 141.967c.237 1.813.473 3.618.675 5.466-4.861-1.21-10.082-.027-17.053 6.647 4.52.228 12.305 4.485 17.867 11.614-.087 1.84-.263 3.679-.473 5.518a86.797 86.797 0 0110.09-3.127l.149-1.515c3.52-5.378 6.7-6.893 13.558-7.76-5.299-1.174-9.53-3.635-13.436-6.017a146.267 146.267 0 00-.376-5.64l-.377-.456z" fill="#e6efc8"/><path d="M1310.416 96.616c-18.078 16.606 90.16 51.08 72.214 17.972z" fill="#782121"/><path d="M1346.466 78.284a184.414 184.414 0 014.344 19.006c-12.542-.823-26.301 1.454-38.485.324 16.064 7.568 29.341 7.506 41.358 30.007.088 4.423-.017 8.916-.228 13.435 3.784-3.249 7.988-6.218 12.394-8.863-.035-1.962-.044-3.915-.132-5.912 7.077-6.333 12.385-5.912 18.787-5.185-4.808-12.359-12.218-18.516-20.95-21.467a485.196 485.196 0 00-2.943-20.732zm2.251 84.774a15.984 15.984 0 00-2.05.044l-.814.157c.832.36 3.591.929 5.238 1.297a223.24 223.24 0 01-4.143 20.127 101.362 101.362 0 0115.065-7.708c.726-3.547 1.383-7.13 1.891-10.747 1.656.044 3.907 0 5.168-.07l.263-.008c-1.568-.99-14.697-2.935-20.618-3.092zm45.51 20.889a12.35 12.35 0 00-1.682.131l-.675.167c.876.411 2.996.657 4.38.91-1.612 6.254-4.196 8.269-6.613 12.306 1.445-.525 8.574.027 13.4-1.673 1.56-3.013 3.548-6.27 3.837-9.415 1.716-.333 4.011-.526 4.466-.7-1.322-.789-12.218-1.84-17.114-1.726z" fill="#e6efc8"/><path d="M1307.622 100.382c56.878-133.883 84.082.727 78.328 22.448-7.349-12.236-73.625-25.216-78.328-22.448zm118.573 62.124c-9.897-64.314-33.484-44.931-47.883-7.821 8.732-2.768 40.482 1.953 47.883 7.821z" fill="#a02c2c"/></g></svg>