<svg xmlns="http://www.w3.org/2000/svg" width="2250" height="250"><path d="M1089.331 199.873s-1.502 7.045-1.678 24.678c-.155 15.496 5.202 21.602 8.464 22.924 3.263 1.323 13.755 2.469 19.133.353 5.378-2.116 13.402-2.645 10.404-26.098-2.998-23.453-5.385-24.501-5.385-24.501s3.445-12.001-5.46-13.147c-8.905-1.146-15.958.352-17.634.97-1.675.617-8.376 4.76-10.315 6.877-1.94 2.116 2.471 7.944 2.471 7.944zM1151.344 224.438s-2.678 4.081-3.736 8.578c-1.058 4.496-.468 8.157-.088 9.61 1.499 5.731 10.404 5.82 13.578 4.585 2.3-.895 4.673-3.88 5.467-6.701.793-2.821 2.909-10.757 2.997-12.96.088-2.205-2.204-11.022-6.348-11.904-4.144-.881-11.87 8.792-11.87 8.792z" fill="#ecebe9"/><path d="M1097.77 184.865a9.116 9.116 0 00-.595.187c-1.675.617-11.16 4.133-10.316 6.877 0 0 4.051 5.647 2.418 7.924-2.394 3.337-1.265 6.543-2.79 13.575 2.34-4.39 4.006-7.118 5.152-6.515 2.812 1.478 3.664 5.038 5.649 5.038 1.984 0 6.412-3.817 9.007-5.191 2.596-1.374 6.898 4.653 9.466 4.275 4.892-.72 9.02 1.688 10.453 2.91-2.55-5.294-4.166-14.142-5.945-16.716-1.209-1.75.897-3.134.588-6.352a5.268 5.268 0 00-.363-.147c-4.733-1.68-8.245-5.192-16.947-5.192-2.454 0-4.277-.34-5.777-.673z" fill="#dfd9d3"/><path d="M1089.331 199.96c-3.333-.164-9.751-.481-16.78-9.162-4.407-5.442-6.877-16.74-.377-25.388 12.366-17.089 31.381-21.414 49.053-12.11 17.77 9.355 18.416 21.568 15.043 30.128-4.737 12.024-12.893 13.836-16 13.8 0 0-6.113-5.73-18.32-3.829-12.206 1.901-12.619 6.562-12.619 6.562z" fill="#ecebe9"/><path d="M1162.001 216.054c-4.715 1.815-10.657 8.384-10.657 8.384s-2.38.846-2.373 3.904c2.49-.874 2.388-1.337 4.435.555 1.81 2.886 6.884 1.683 8.908 4.249 1.08 2.175.577 1.778 4.052 2.01 1.543.104.61 1.83 1.604 1.799 2.188-3.532-.39-8.844-.33-10.162.068-1.5 3.213-5.3.976-8.34-2.135-1.068-4.404-1.918-6.615-2.4z" fill="#dfd9d3"/><path d="M1151.344 224.438s-1.574.858-3.148-2.29c-1.574-3.147-2.836-8.754-.43-12.447 3.193-4.899 10.581-10.162 21.187-6.232 10.71 3.97 13.257 10.153 13.294 19.395.086 6.192-8.749 10.956-13.02 9.157-1.645-.694.287-6.152-8.298-9.3-4.76-1.746-9.585 1.717-9.585 1.717z" fill="#ecebe9"/><g style="mix-blend-mode:multiply" opacity=".4" fill="#46798e"><path d="M1098.082 148.823c-9.799 1.345-18.916 6.925-25.908 16.587-6.5 8.648-4.03 19.946.376 25.388 7.03 8.68 13.448 8.998 16.78 9.163 0 0 .212-2.315 4.608-4.347l.04-.22s-12.19-2.958-16.215-18.269c-4.935-18.774 12.724-24.406 20.319-28.302z"/><path d="M1087.084 191.792c-.076.075-.16.154-.224.225-1.94 2.117 2.47 7.944 2.47 7.944s-1.5 7.045-1.677 24.68c-.155 15.495 5.202 21.6 8.464 22.923 3.262 1.323 13.754 2.469 19.133.353.27-.107.55-.207.832-.308-6.131-1.626-18.884-2.099-22.32-19.264-2.111-10.544-2.486-27.18.216-32.862 0 0-3.094-1.002-6.894-3.691z"/><path d="M1086.81 191.596a1.2 1.2 0 00.05.421s4.05 5.648 2.417 7.924c-2.394 3.337-1.265 6.544-2.79 13.576 2.34-4.39 4.006-7.118 5.152-6.516.196.103.381.217.559.338.788-6.703 1.78-11.856 1.78-11.856s-3.243-1.05-7.168-3.887z"/></g><g style="mix-blend-mode:multiply" opacity=".4" fill="#46798e"><path d="M1157.92 217.82c-3.382 2.622-6.576 6.618-6.576 6.618s-2.678 4.081-3.736 8.578c-1.058 4.496-.468 8.157-.088 9.61 1.499 5.73 10.404 5.82 13.578 4.585a6.097 6.097 0 001.276-.7c-.172-.07-8.769 2.426-8.833-7.553-.028-4.355 2.81-8.215 2.81-8.215s0-1.73 1.73-4.54c1.643-2.67 4.756-2.703 4.756-2.703s-2.517-2.416-4.917-5.68z"/><path d="M1158.218 218.225c-3.61 2.607-6.874 6.213-6.874 6.213s-2.379.845-2.373 3.904c2.491-.874 2.388-1.338 4.435.555.632 1.009 1.667 1.514 2.827 1.86.074-.014.118-.014.118-.014s-.648-3.351 1.514-5.621c2.162-2.27 4.972-1.622 4.972-1.622s-2.313-2.218-4.619-5.275z"/><path d="M1161.285 202.106c-6.525.176-11.164 3.982-13.518 7.595-2.406 3.693-1.145 9.3.429 12.448 1.574 3.147 3.148 2.289 3.148 2.289s4.825-3.463 9.586-1.717c.65.239 1.234.492 1.77.754.087.014.137.025.137.025s-7.567-7.243-8.972-13.62c-1.196-5.426 5.414-7.326 7.42-7.774z"/></g><path d="M1094.957 171.011s4.357-2.599 7.567-2.599 7.186 1.758 7.186 1.758-6.022-.384-8.561-.229c-2.888.176-6.326.892-6.192 1.07zM1114.262 170.405s3.279-1.785 6.558-1.52c3.279.264 5.92 2.644 5.92 2.644s-3.734-1.058-5.738-1.19c-2.004-.132-6.74.066-6.74.066zM1130.839 172.18s3.59-.85 5.313.035c1.722.883 1.566 4.047 1.566 4.047s.193-2.346-2.614-3.22c-2.36-.733-4.265-.862-4.265-.862zM1090.629 172.097s-3.707-1.261-6.292-.13c-2.586 1.131-3.827 4.242-3.827 4.242s2.591-1.932 4.181-2.59c1.59-.66 5.938-1.522 5.938-1.522zM1094.226 163.049s4.353-2.6 7.56-2.6 7.178 1.759 7.178 1.759-6.015-.384-8.552-.23c-2.885.176-6.32.892-6.186 1.07zM1113.512 162.443s3.275-1.785 6.55-1.52c3.276.264 5.915 2.643 5.915 2.643s-3.73-1.057-5.732-1.19c-2.002-.132-6.733.067-6.733.067zM1129.855 164.217s3.133-.688 4.854.196c1.72.883 1.818 3.934 1.818 3.934s-1.069-2.776-2.611-3.219c-2.374-.682-4.06-.911-4.06-.911zM1089.903 164.134s-3.704-1.26-6.286-.13c-2.583 1.132-3.822 4.242-3.822 4.242s2.587-1.931 4.176-2.59c1.588-.66 5.932-1.522 5.932-1.522zM1093.173 157.086s4.065-2.598 7.06-2.598c2.994 0 6.702 1.758 6.702 1.758s-5.617-.384-7.986-.23c-2.694.176-5.9.892-5.776 1.07zM1111.182 156.48s3.059-1.784 6.118-1.52c3.059.265 5.523 2.644 5.523 2.644s-3.484-1.057-5.353-1.19c-1.87-.132-6.288.067-6.288.067zM1126.444 158.255s2.67-.325 4.276.558c1.607.884 2.276 3.543 2.276 3.543s-2.496-2.737-2.936-2.932c-2.122-.94-3.616-1.17-3.616-1.17zM1089.136 158.172s-3.459-1.261-5.87-.13c-2.412 1.132-3.57 4.242-3.57 4.242s2.417-1.932 3.9-2.59c1.483-.66 5.54-1.522 5.54-1.522zM1092.306 152.882s3.54-2.598 6.15-2.598c2.608 0 5.838 1.758 5.838 1.758s-4.893-.384-6.956-.23c-2.347.176-5.14.892-5.032 1.07zM1107.994 152.276s2.664-1.784 5.329-1.52c2.664.265 4.81 2.644 4.81 2.644s-3.034-1.057-4.663-1.19c-1.628-.132-5.476.066-5.476.066zM1121.126 154.159s2.372-.223 3.772.66c1.4.884 2.965 2.684 2.965 2.684s-1.959-1.563-4.21-2.51a17.992 17.992 0 00-2.527-.834z" fill="#d7d5d1"/><path d="M1072.283 182.524s-.011-2.735 2.432-3.563c2.443-.827 3.404-.739 3.404-.739-2.316.8-4.418 1.968-5.836 4.302zM1070.752 183.28s-.512.981-1.16 1.451c-.838.61-.412-.45-.412-.45s.178-.411.617-.59c.511-.207.955-.41.955-.41zM1071.575 174.562s-.2-1.704 1.093-2.722c2.026-1.594 4.738-1.58 4.738-1.58-2.315.8-4.414 1.967-5.83 4.302zM1070.046 175.318s-1.356-.132-1.888.759c-.532.89.035 1.342.035 1.342s-.01-.626.537-1.231c.694-.772 1.317-.87 1.317-.87zM1072.02 168.6s.208-2.469 1.57-3.296c2.072-1.259 3.876-1.006 3.876-1.006-2.162.8-4.122 1.967-5.445 4.302zM1070.593 169.356s-1.326.76-1.823 1.65c-.496.891-.16 2.464-.16 2.464s.484-2.337 1.294-3.217c.68-.74.689-.897.689-.897zM1073.881 164.396s.088-2.573 2.073-3.4c1.986-.827 2.67-.902 2.67-.902-1.883.8-3.59 1.967-4.743 4.302zM1088.79 153.968s-3.067-.504-5.168.627c-2.1 1.131-3.055 3.485-3.055 3.485s2.105-1.932 3.397-2.59c1.292-.66 4.825-1.522 4.825-1.522zM1072.637 165.152s-1.226.3-1.659 1.19c-.432.892-.258 1.303-.258 1.303s.222-.473.927-1.353c.593-.74.99-1.14.99-1.14z" fill="#99a8ac"/><path d="M1095.848 179.9s4.357-1.933 7.567-1.933 7.185 1.308 7.185 1.308-6.021-.286-8.56-.17c-2.888.13-6.326.662-6.192.795zM1115.153 179.45s3.279-1.328 6.558-1.131c3.279.196 5.92 1.966 5.92 1.966s-3.734-.787-5.738-.885c-2.004-.098-6.74.05-6.74.05zM1131.513 180.769s3.266-.221 4.989.436c1.722.657-.217 1.951-.217 1.951s.841-1.204-1.966-1.853c-2.36-.546-2.806-.534-2.806-.534zM1091.52 180.707s-3.708-.938-6.293-.096c-2.585.841-3.826 3.154-3.826 3.154s2.59-1.436 4.18-1.926c1.59-.49 5.939-1.132 5.939-1.132z" fill="#d7d5d1"/><path d="M1073.174 188.462s-.011-2.035 2.432-2.65c2.443-.615 3.404-.55 3.404-.55-2.317.596-4.419 1.464-5.836 3.2z" fill="#99a8ac"/><path d="M1303.49 151.216s-2.97 13.939-3.32 48.826c-.306 30.656 10.293 42.736 16.747 45.353 6.454 2.616 27.212 4.884 37.852.698 10.64-4.187 26.514-5.233 20.583-51.633-5.93-46.4-10.653-48.474-10.653-48.474s6.816-23.743-10.802-26.01c-17.618-2.268-31.573.697-34.887 1.918-3.314 1.222-16.572 9.42-20.409 13.606-3.838 4.187 4.89 15.716 4.89 15.716zM1426.178 199.817s-5.298 8.074-7.39 16.97c-2.094 8.897-.927 16.14-.175 19.014 2.965 11.338 20.583 11.513 26.863 9.07 4.552-1.77 9.245-7.675 10.815-13.256 1.57-5.582 5.756-21.282 5.93-25.643.175-4.36-4.36-21.804-12.558-23.548-8.199-1.745-23.485 17.393-23.485 17.393z" fill="#ecebe9"/><path d="M1320.187 121.525c-.466.133-.88.26-1.178.37-3.314 1.22-22.079 8.177-20.409 13.605 0 0 8.014 11.174 4.784 15.677-4.737 6.602-2.503 12.945-5.52 26.859 4.63-8.687 7.925-14.083 10.192-12.891 5.564 2.924 7.25 9.967 11.176 9.967 3.927 0 12.686-7.551 17.821-10.27 5.135-2.718 13.647 9.205 18.727 8.458 9.679-1.425 17.844 3.34 20.682 5.757-5.045-10.473-8.243-27.978-11.762-33.071-2.392-3.46 1.773-6.2 1.163-12.566a10.448 10.448 0 00-.72-.292c-9.363-3.323-16.31-10.27-33.527-10.27-4.855 0-8.462-.672-11.429-1.333z" fill="#dfd9d3"/><path d="M1303.49 151.39c-6.594-.325-19.292-.953-33.199-18.127-8.718-10.766-13.605-33.12-.744-50.228 24.465-33.809 62.085-42.366 97.048-23.96 35.156 18.509 36.435 42.672 29.761 59.608-9.372 23.787-25.508 27.373-31.656 27.303 0 0-12.092-11.338-36.243-7.577-24.15 3.762-24.966 12.982-24.966 12.982z" fill="#ecebe9"/><path d="M1447.263 183.23c-9.329 3.59-21.085 16.587-21.085 16.587s-4.706 1.673-4.694 7.725c4.927-1.73 4.725-2.647 8.774 1.098 3.58 5.708 13.619 3.33 17.623 8.405 2.139 4.303 1.141 3.519 8.018 3.979 3.053.204 1.205 3.618 3.172 3.557 4.33-6.987-.77-17.496-.651-20.105.134-2.966 6.355-10.484 1.93-16.499-4.225-2.113-8.713-3.794-13.087-4.747z" fill="#dfd9d3"/><path d="M1426.178 199.817s-3.114 1.698-6.228-4.529c-3.113-6.227-5.61-17.32-.849-24.626 6.316-9.693 20.933-20.106 41.916-12.33 21.19 7.854 26.228 20.086 26.301 38.371.17 12.251-17.31 21.677-25.758 18.116-3.255-1.372.566-12.171-16.418-18.399-9.418-3.453-18.964 3.397-18.964 3.397z" fill="#ecebe9"/><g style="mix-blend-mode:multiply" opacity=".4" fill="#46798e"><path d="M1320.803 50.219c-19.386 2.661-37.424 13.701-51.257 32.816-12.86 17.109-7.974 39.462.745 50.228 13.906 17.174 26.605 17.803 33.2 18.129 0 0 .417-4.58 9.113-8.602l.08-.434s-24.118-5.853-32.08-36.143c-9.764-37.144 25.173-48.287 40.199-55.994z"/><path d="M1299.045 135.23c-.15.15-.315.305-.444.446-3.838 4.186 4.89 15.716 4.89 15.716s-2.971 13.938-3.32 48.825c-.307 30.657 10.291 42.737 16.745 45.354 6.454 2.616 27.212 4.883 37.853.697.534-.21 1.089-.41 1.646-.61-12.13-3.215-37.36-4.15-44.159-38.111-4.176-20.861-4.918-53.773.428-65.016 0 0-6.12-1.982-13.64-7.301z"/><path d="M1298.502 134.843c-.015.28.014.559.099.833 0 0 8.013 11.173 4.782 15.676-4.736 6.603-2.502 12.946-5.519 26.86 4.63-8.687 7.925-14.083 10.192-12.891.387.203.754.428 1.106.667 1.559-13.26 3.522-23.457 3.522-23.457s-6.417-2.076-14.182-7.688z"/></g><g style="mix-blend-mode:multiply" opacity=".4" fill="#46798e"><path d="M1439.188 186.725c-6.692 5.186-13.01 13.092-13.01 13.092s-5.297 8.075-7.39 16.971-.927 16.139-.175 19.013c2.965 11.338 20.584 11.513 26.863 9.07.844-.328 1.692-.799 2.524-1.383-.34-.14-17.348 4.8-17.475-14.943-.056-8.617 5.56-16.255 5.56-16.255s0-3.42 3.422-8.981c3.25-5.283 9.41-5.347 9.41-5.347s-4.98-4.78-9.73-11.237z"/><path d="M1439.779 187.525c-7.141 5.158-13.602 12.292-13.602 12.292s-4.705 1.673-4.693 7.725c4.928-1.73 4.725-2.647 8.774 1.098 1.251 1.995 3.297 2.995 5.592 3.678.148-.026.235-.028.235-.028s-1.283-6.629 2.994-11.12 9.838-3.208 9.838-3.208-4.576-4.389-9.138-10.437z"/><path d="M1445.846 155.636c-12.91.348-22.087 7.878-26.745 15.026-4.76 7.305-2.264 18.399.85 24.626 3.113 6.227 6.226 4.529 6.226 4.529s9.547-6.85 18.966-3.397c1.288.473 2.442.973 3.503 1.492.171.028.271.05.271.05s-14.971-14.33-17.751-26.948c-2.365-10.734 10.711-14.492 14.68-15.378z"/></g><path d="M1314.621 94.116s8.62-5.141 14.972-5.141c6.351 0 14.215 3.478 14.215 3.478s-11.913-.76-16.937-.454c-5.713.348-12.515 1.764-12.25 2.117zM1352.815 92.918s6.487-3.531 12.974-3.008c6.487.523 11.713 5.23 11.713 5.23s-7.389-2.092-11.353-2.353c-3.964-.262-13.334.13-13.334.13zM1385.61 96.428s7.103-1.679 10.512.07c3.407 1.747 3.1 8.007 3.1 8.007s.38-4.641-5.173-6.37c-4.67-1.452-8.44-1.707-8.44-1.707zM1306.058 96.264s-7.334-2.495-12.449-.257c-5.115 2.239-7.57 8.393-7.57 8.393s5.126-3.822 8.272-5.126c3.145-1.303 11.747-3.01 11.747-3.01zM1313.176 78.363s8.61-5.142 14.956-5.142c6.345 0 14.2 3.479 14.2 3.479s-11.9-.76-16.92-.454c-5.706.348-12.501 1.764-12.236 2.117zM1351.33 77.164s6.48-3.53 12.96-3.008c6.481.524 11.702 5.231 11.702 5.231s-7.38-2.092-11.341-2.353c-3.96-.262-13.321.13-13.321.13zM1383.664 80.675s6.199-1.362 9.603.387c3.404 1.748 3.598 7.784 3.598 7.784s-2.115-5.492-5.167-6.369c-4.696-1.35-8.034-1.802-8.034-1.802zM1304.621 80.51s-7.326-2.494-12.436-.256c-5.11 2.238-7.562 8.393-7.562 8.393s5.12-3.822 8.263-5.126c3.142-1.304 11.736-3.01 11.736-3.01zM1311.092 66.568s8.041-5.142 13.966-5.142c5.925 0 13.261 3.478 13.261 3.478s-11.113-.76-15.8-.454c-5.33.348-11.674 1.764-11.427 2.118zM1346.721 65.369s6.052-3.531 12.104-3.008c6.051.523 10.926 5.23 10.926 5.23s-6.892-2.092-10.59-2.353c-3.698-.262-12.44.13-12.44.13zM1376.916 68.88s5.28-.644 8.46 1.104c3.179 1.748 4.503 7.01 4.503 7.01s-4.938-5.417-5.809-5.802c-4.198-1.86-7.154-2.313-7.154-2.313zM1303.104 68.715s-6.843-2.495-11.614-.257c-4.771 2.239-7.061 8.393-7.061 8.393s4.78-3.822 7.715-5.126c2.935-1.303 10.96-3.01 10.96-3.01zM1309.377 58.25s7.005-5.142 12.166-5.142c5.161 0 11.551 3.479 11.551 3.479s-9.68-.76-13.763-.454c-4.642.348-10.17 1.764-9.954 2.117zM1340.413 57.051s5.271-3.53 10.543-3.008c5.271.523 9.518 5.231 9.518 5.231s-6.004-2.092-9.225-2.354c-3.222-.261-10.836.131-10.836.131zM1366.394 60.775s4.694-.44 7.463 1.308 5.866 5.308 5.866 5.308-3.875-3.09-8.33-4.964c-2.564-1.078-4.999-1.652-4.999-1.652z" fill="#d7d5d1"/><path d="M1269.762 116.894s-.021-5.412 4.812-7.049c4.834-1.637 6.735-1.462 6.735-1.462-4.583 1.584-8.742 3.893-11.547 8.511zM1266.733 118.39s-1.013 1.94-2.293 2.87c-1.66 1.208-.816-.892-.816-.892s.352-.812 1.22-1.164c1.012-.41 1.89-.814 1.89-.814zM1268.362 101.141s-.398-3.371 2.163-5.386c4.007-3.153 9.373-3.125 9.373-3.125-4.58 1.583-8.733 3.893-11.536 8.511zM1265.336 102.637s-2.683-.26-3.735 1.501c-1.052 1.762.07 2.656.07 2.656s-.02-1.239 1.061-2.436c1.374-1.527 2.605-1.721 2.605-1.721zM1269.244 89.345s.409-4.883 3.103-6.52c4.1-2.49 7.669-1.99 7.669-1.99-4.276 1.583-8.155 3.892-10.772 8.51zM1266.418 90.841s-2.623 1.504-3.605 3.266c-.983 1.762-.318 4.874-.318 4.874s.959-4.624 2.56-6.365c1.346-1.464 1.363-1.775 1.363-1.775zM1272.924 81.028s.174-5.089 4.102-6.725c3.928-1.637 5.282-1.786 5.282-1.786-3.725 1.583-7.104 3.892-9.384 8.511zM1302.419 60.397s-6.067-.997-10.223 1.241c-4.157 2.238-6.044 6.895-6.044 6.895s4.164-3.822 6.72-5.125c2.557-1.304 9.547-3.01 9.547-3.01zM1270.463 82.524s-2.426.595-3.282 2.357c-.856 1.762-.51 2.575-.51 2.575s.439-.935 1.833-2.676c1.173-1.464 1.959-2.256 1.959-2.256z" fill="#99a8ac"/><path d="M1316.384 111.702s8.62-3.823 14.97-3.823c6.352 0 14.216 2.586 14.216 2.586s-11.913-.565-16.937-.337c-5.712.259-12.514 1.311-12.25 1.574zM1354.577 110.81s6.487-2.625 12.974-2.236c6.487.389 11.713 3.89 11.713 3.89s-7.388-1.556-11.352-1.75c-3.965-.195-13.335.097-13.335.097zM1386.944 113.421s6.462-.437 9.87.863c3.408 1.3-.429 3.86-.429 3.86s1.665-2.382-3.889-3.666c-4.67-1.08-5.552-1.057-5.552-1.057zM1307.82 113.3s-7.334-1.856-12.449-.192c-5.115 1.665-7.57 6.242-7.57 6.242s5.126-2.843 8.272-3.812c3.146-.97 11.748-2.239 11.748-2.239z" fill="#d7d5d1"/><path d="M1271.524 128.641s-.02-4.025 4.812-5.242c4.834-1.217 6.736-1.087 6.736-1.087-4.584 1.177-8.743 2.895-11.548 6.33z" fill="#99a8ac"/></svg>