<svg xmlns="http://www.w3.org/2000/svg" width="2250" height="250"><path d="M173.52 122.937s6.383-3.53 11.364 1.056c4.085 3.76 5.447 9.687 5.447 9.687s-.804-5.49-4.866-9.643c-4.063-4.151-8.99-2.776-8.99-2.776zm-15.555-8.855c-.046-.006 4.217 2.49 6.25 5.179 1.758 2.325 4.196 8.75 4.196 8.75 0 .035 1.255-.223 2.26.418 2.9 1.853 5.474 9.79 5.474 9.79s-.628-2.351-1.65-4.821c-1.023-2.47-2.521-4.846-4.02-5.537-.798-.368-1.609-.282-1.796-.386 0 0-2.857-6.518-3.795-8.08-.937-1.563-5.625-5.358-5.625-5.358zm-20.224 7.143s6.742-2.322 10.804.893c4.063 3.214 6.83 8.259 6.83 8.259s1.83-.76 3.527.357c1.697 1.116 3.929 3.571 3.929 3.571s-2.59-3.616-4.33-4.24c-1.742-.626-2.768-.313-2.768-.313s-5.062-7.468-7.724-8.929c-3.308-1.816-9.422-.986-9.42-.982z" fill="#1b1714"/><path d="M139.616 120.555s3.215.536 6.25 5.848c3.036 5.313 4.867 13.661 4.867 13.661s-1.945-9.33-4.108-13.482c-2.3-4.416-5.312-6.25-5.312-6.25zM45.61 142.64s4.157-7.523 8.578-11.143c5.077-4.158 9.422-.274 9.422-.274s5.39-3.671 8.913-4.31c4.513-.82 8.688-.492 9.19-.362.501.13 9.37 8.564 11.623 10.714 2.253 2.149 13.734 13.905 14.891 15.579 1.158 1.673 5.436 10.805 5.436 10.805.27-1.825.665-4.661-.05-6.1 0 0-3.294-5.429-4.217-6.448-.922-1.018-15.205-15.807-18.836-18.75-3.544-2.873-7.088-6.598-8.295-6.735-3.758-.427-4.978-.3-9.455.354-3.128.456-7.557 3.342-9.33 4.16-1.32-.28-3.345-2.74-8.727.058-4.124 2.144-9.143 12.452-9.143 12.452z" fill="#1b1714"/><path d="M63.61 131.224s-2.082 1.343-3.99 6.671c-1.872 5.23-2.143 6.374-2.747 8.349 0 0 .843-4.904 2.283-8.875 1.589-4.378 4.323-7.24 4.323-7.24zm48.072-50.267s.358-23.393 3.036-30.09c2.679-6.696 4.107-11.696 5.982-11.16 1.875.536 6.697 24.91 6.697 24.91s2.321.18 3.125 2.054c.803 1.875 4.464 9.822 3.571 12.59-.893 2.767-1.25 4.107-1.25 4.107s.468-1.939.678-3.622c.595-4.782-1.81-8.73-2.992-12.132-.84-2.417-3.705-2.345-3.705-2.345s-4.821-24.197-6.16-24.464c-1.34-.268-2.642 3.723-3.357 5.866-.714 2.143-3.75 10-3.66 18.482l.29 27.3c-1.652-1-2.5-4.33-2.255-11.496z" fill="#1b1714"/><path d="M122.803 249.304s-1.936-4.896-2.441-9.947c-.505-5.05 0-67.68-1.01-79.044-1.01-11.365-6.061-75.51-6.314-83.843-.246-20.515-1.977 15.328-2.02 18.435 0 3.283 2.273 72.226 2.273 77.53 0 5.303-3.536 65.407-4.041 68.942-.505 3.536-3.536 8.082-3.536 8.082l3.996.317 3.075-.317 1.886.541z" fill="#bcafa5"/><path d="M192.209 126.978s-3.662-5.177-8.208-6.188c-4.545-1.01-10.48 2.147-10.48 2.147s-5.303-6.692-13.006-8.334c-7.702-1.641-14.37-.906-14.836-.757-.468.148-8.192 8.317-10.212 10.464-2.02 2.146-12.327 13.653-13.338 15.294-1.01 1.642-4.777 10.014-4.777 10.014-.345-1.715-.877-3.691-.273-5.09 0 0 2.84-5.302 3.661-6.313.821-1.01 13.574-15.72 16.857-18.687 3.205-2.896 7.138-6.74 7.5-6.788 4.873-.65 13.928.391 17.817 1.737 3.275 1.133 7.166 3.883 8.555 5.398 1.389 1.515 2.17 2.15 2.17 2.15 1.232-.33 6.711-3.307 11.931-.925 4 1.825 6.639 5.878 6.639 5.878zM95.018 137.57c.074-.01-6.124 2.79-9.484 6.236-2.906 2.981-6.937 11.218-6.937 11.218 0 .045-2.074-.286-3.735.537-4.795 2.375-9.05 12.549-9.05 12.549s1.038-3.014 2.729-6.18c1.69-3.167 4.167-6.213 6.644-7.098 1.32-.471 2.66-.362 2.97-.495 0 0 4.722-8.356 6.272-10.359 1.55-2.003 9.299-6.868 9.299-6.868z" fill="#1b1714"/><path d="M78.597 155.024s-2.081 1.343-3.99 6.671c-1.872 5.23-2.142 6.374-2.746 8.349 0 0 .842-4.904 2.283-8.875 1.588-4.377 4.323-7.24 4.323-7.24zm33.494-44.335c-2.967-5.05-4.104-7.45-7.197-11.112-3.094-3.662-14.065-15.636-18.372-17.551-4.09-1.819-6.549-2.761-12.122-1.515-5.029 1.124-13.637 11.806-13.637 11.806 1.207-.873 8.373-10.085 13.89-11.46 5.102-1.27 9.705.733 12.563 2.305 2.533 1.393 14.268 12.943 17.236 17.173 2.967 4.23 7.702 13.321 7.702 13.321.082-.886.607-1.329-.063-2.967z" fill="#1b1714"/><path d="M96.816 91.259c.044.03-4.292-2.127-7.607-.848-2.867 1.106-7.343 4.102-7.343 4.102-.02.04-1.862-.52-3.122-.643-3.637-.353-9.7 8.674-9.7 8.674S71.16 99.027 73.221 97c2.104-2.07 3.965-3.941 5.697-3.466.923.254 2.554.32 2.78.36 0 0 5.537-2.942 7.244-3.887 1.706-.944 6.73.138 6.73.138z" fill="#1b1714"/><path d="M89.716 90.034s-2.545 1.424-4.729 6.7c-2.184 5.277-4.214 13.524-4.214 13.524s2.221-9.216 3.828-13.336c1.71-4.383 3.4-6.234 3.4-6.234zm24.826 25.579c3.006-5.051 4.157-7.45 7.291-11.112 3.134-3.662 14.248-15.636 18.612-17.551 4.144-1.819 6.634-2.762 12.28-1.516 5.094 1.124 13.815 11.807 13.815 11.807-1.223-.873-8.482-10.085-14.07-11.46-5.17-1.27-9.833.733-12.728 2.305-2.567 1.393-14.455 12.943-17.461 17.173-3.006 4.23-7.803 13.321-7.803 13.321-.083-.886-.616-1.329.064-2.967z" fill="#1b1714"/><path d="M129.845 96.334s6.741-1.212 10.803.465c4.063 1.678 6.83 4.31 6.83 4.31s1.831-.396 3.528.187c1.696.582 3.928 1.863 3.928 1.863s-2.59-1.887-4.33-2.213c-1.741-.326-2.768-.163-2.768-.163s-5.062-3.897-7.723-4.66c-3.308-.947-9.422-.514-9.42-.512zm12.125-9.54s2.717-.943 7.935 2.253 10.84 9.812 10.84 9.812-6.196-7.244-10.089-9.842c-4.142-2.764-7.307-2.878-7.307-2.878zm-28.01-31.895c1.423-.095 5.257 6.335 6.866 12.54 1.619 6.237 2.068 10.761 2.068 10.761s1.417 1.658 2.223 4.128c.807 2.47 1.594 6.226 1.594 6.226s-.7-4.752-1.672-7.02c-.973-2.267-1.736-3.255-1.736-3.255s-1.31-9.475-2.604-13.22c-1.577-4.57-3.588-9.515-5.93-11.038zm3.75 164.853s-.18.937-.447.312c-.268-.625-.357-4.553 0-4.107.357.446.67 2.188.67 2.188s.446-5.536.982-4.599c.535.938.803 7.59-.179 8.572-.982.982-1.027-2.366-1.027-2.366zm-2.478-111.872s-.315-.632-.915-2.147c-.6-1.515-.537-2.904-.158-2.084.379.821 1.073 4.23 1.073 4.23zm.127 51.517s.063-1.42.947-1.452c.884-.032 1.957 1.515 1.957 1.736 0 .221-.631 1.358-1.768.916-1.136-.442-1.136-1.2-1.136-1.2zm.349 63.375c-.636.135-.99 6.176-.99 6.176s-.134.804-1.206-2.812c-1.071-3.616-1.472 8.437-1.472 8.437s-.447-1.741-.715-3.125c-.145-.746-.885 1.17-1.549 3.115-.237 3.461-.44 6.199-.527 6.815-.505 3.535-3.536 8.08-3.536 8.08l3.997.318 3.075-.317 1.886.541 9.395-.191s-3.199-5.4-3.704-10.45c-.082-.818-.132-3.514-.172-6.886-.016-.078-.063-.262-.07-.31-.223-1.518-.448 2.008-.448 2.008s-.668-5.892-1.115-7.008c-.446-1.116-.982 5.223-.982 5.223s-.447-4.642-1.385-8.616c-.176-.745-.336-1.029-.482-.998zm-3.689-24.836l-.03.01c-.349 6.165-.67 11.655-1.039 17.754.432-.143.908-.312 1.746-.707.651-1.645.274-4.3.274-4.3s.223.357.223 1.294c0 .759.3 1.545 1.027 2.22.091-.05.155-.077.25-.13.465-.261.884-.47 1.32-.701.196-1.056.215-2.326.215-2.326s.175 1.031.47 1.96c.278-.141.563-.283.835-.415a33.32 33.32 0 00-.239-1.506c-.197-.533-.392-1.067-.584-1.602-.36-1.005-.72-2.01-1.066-3.02-.131-.383-.251-.77-.373-1.158-.483-1.28-.992-2.657-1.562-4.238-.05-.137-.092-.277-.141-.414a51.614 51.614 0 00-.631-1.355c-.224-.46-.461-.912-.695-1.366zm7.933-11.99c-.462.652-1.325 1.987-1.53 3.156-.285 1.61-1.074 4.735-1.769 4.893-.694.158-1.232-1.357-1.61-.063-.38 1.295.473 5.303 1.167 6.03.695.726.885.82.885.82s-.63 1.168.127 1.515c.757.348 1.2-.947 1.2-.947s-.19 1.641.347 2.588c.303.535.849.39 1.283.168-.02-6.192-.053-12.231-.1-18.16zm-6.896-7.525c-.11 2.332-.26 5.203-.433 8.454.113.244.25.434.432.49.82.252 1.043-1.64 1.043-1.64s.25 1.324.693 1.64c.442.316 1.01-2.809 1.01-2.809s1.231.787 2.084.188c.852-.6-.758-1.262-.758-1.262s.38.032.537-.852c.158-.883-2.873-2.115-2.873-2.115s-.22-.41-.473-1.168c-.252-.757-.6 1.42-.6 1.42s-.158-1.42-.537-2.209c-.042-.088-.083-.123-.125-.137zm-.086-18.601c.128 4.389.212 7.54.262 9.768.34.508.708 1.06.896 1.298.474.6 1.546 1.2 2.21.758.662-.442.569-1.577.095-2.619-.473-1.042-.285-2.525-.285-2.525s.38-.443.695-1.106c.316-.663-1.389-1.578-1.767-2.746-.37-1.142-2.03-2.755-2.106-2.828zm3.699-11.943c-.083.022-.158.115-.237.313-.315.789-.758-.38-.853.789-.095 1.168-.094 5.557.475 5.463.568-.095 1.01-.916 1.01-.916s-.444 2.872.283 2.904c.726.032.822-.6.822-.6s.063 1.041.789.473c.022-.017.036-.06.055-.09-.158-1.862-.362-4.365-.588-7.148-.09 0-1.222 1.263-1.142.988.174-.6-.366-2.241-.614-2.176zm-3.395-10.325c-.402-.125-.716 2.704-.855 4.07l.203 6.67c.525-1.898 1.316-6.478 1.316-6.478s-.063 1.263.631 2.147c.695.884.852.093.852.093s-.6-5.46-.82-6.312c-.222-.852-.57 1.482-.57 1.482s-.252-1.514-.757-1.672zm2.558-18.592a.413.413 0 00-.252.158c-.632.758-.569 4.766-.569 4.766s-.347-3.756-.6-2.557c-.252 1.2.191 7.513.665 7.418.473-.094.473-2.24.473-2.24s.253 2.81.884 2.904c.138.021.248-.44.344-1.097-.25-3.192-.477-6.038-.728-9.309a.425.425 0 00-.217-.043zm-4.745-25c-.008 0-.014.007-.022.008-.01.286-.037.78-.037.941 0 .034.015.48.016.527.394.115.91.191 1.328-.052.758-.442-.191-.947-1.012-1.358a.541.541 0 00-.273-.066zm3.28 2.993c-.167.031-.342.125-.508.322-.663.79-1.262 1.36-.22 1.391.326.01.608-.124.847-.303l-.103-1.41h-.016zm-1.591-28.2c-.28-.046-1.027 6.155-1.094 12.204.107-.26.201-.455.258-.475.277-.092.456.682.535.805.17.262.727.783.805 1.25.085.507-.293 1.47-.09 1.875.014.027.067-.018.09 0 .081.063.157.133.233.203.152-3.74.002-6.484-.038-7.816-.054-4.488-.537-8.02-.7-8.046z" fill="#1b1714"/><path d="M122.932 170.243l-1.964.893c-.06.119-.061.293-.178.357-.612.333-1.367.356-1.965.714-.655.393-1.157 1.052-1.785 1.429-.365.219-.327-.24-.536.178-.147.294.275.193.357.357.462.924.937 2.23 1.429 3.215.053.106-.085.273 0 .357.077.077 1.147.034 1.25 0 .581-.194 3.345-2.488 3.571-3.393.185-.74-.258-1.528.357-2.143m-13.928-42.679c-.203.597-.179.84-.179 1.429 0 .924-.066-.377.357.893.094.282-.133.627 0 .893.076.15.282.206.357.357.054.106-.053.25 0 .357.006.013 1.198.066 1.429 0 .162-.046.206-.282.357-.357.22-.11.518-.031.714-.179.642-.48 1.69-2.924 2.679-1.607.071.095 0 .238 0 .357 0 1.056-.43 3.068-1.607 3.572-.576.246-4.007.602-4.643.178-.11-.073-.105-.246-.179-.357-.165-.247-.402-.448-.535-.714-.132-.263-.179-3.371-.179-4.107" fill="none"/><path d="M122.932 170.243c.083.97.377 1.901.536 2.857.01.059 0 .238 0 .178v-1.071m-13.928-42.679c-1.003.356-3.51 3.627-1.429.715m7.143-41.965c0 1.012.842 2.475 0 3.036-1.62 1.08-3.205-2.13-3.75-2.857-.036-.048.019.122 0 .179-.042.126-.16.225-.179.357-.086.606 0 1.343 0 1.964 0 .497-.126 1.521.536 1.786.166.066.36-.035.536 0 .498.1.932.425 1.428.535.254.057 1.606.108 1.786 0 .303-.182.85-3.256.357-3.75-.839-.839-1.396 1.922-2.031 2.925m-4.576 97.254c2.024-.06 4.135-.77 6.071-.179.693.212.138 1.453.358 2.143.201.634.617 1.18.892 1.786.128.281.069 4.328 0 4.464-.07.142-.54.478-.714.536-1.199.4-3.865-2.158-4.286-2.5-.163-.691-.875-.414-1.25-.714-.253-.203-1.961-2.136-1.964-2.143-.14-.421 0-1.184 0-1.607 0-1.464-.35-1.164.893-1.786z" fill="none"/><path style="mix-blend-mode:multiply" d="M112.442 131.575l-.297 1.107c.57 18.39 1.145 37.089 1.145 39.752 0 5.304-3.536 65.408-4.041 68.944-.505 3.535-3.536 8.08-3.536 8.08l2.716-1.199 4.356 1.2 1.886.541 9.395-.191-3.536-3.915c-2.997-2.608-4.395-1.373-6.445-6.61-.287-.731.025-86.762-.276-90.687a3444.19 3444.19 0 00-1.367-17.022zm5.473 11.41c-.339.591-1.352 2.106-1.768 2.748-.491.759-.85 3.93.088 4.6.937.67 1.117-.715 1.117-.715s.893-1.83.893-2.143c0-.015 2.546-5.273 2.552-5.294 0 0-2.638 3.71-2.736 2.488-.028-.033-.06-.06-.084-.096-.255-.37-.173-.927-.035-1.383-.006-.074.073-.38.036-.315zm-5.824-32.296c.021.744-.242 1.477-.563 1.76.058 1.878.063 3.1.127 5.169.525-1.466 1.025-3.356 1.252-3.809.378-.757-.816-3.12-.816-3.12z" opacity=".5" fill="#437e95"/><path d="M423.521 122.937s6.382-3.53 11.363 1.056c4.085 3.76 5.447 9.687 5.447 9.687s-.804-5.49-4.866-9.643c-4.063-4.151-8.99-2.776-8.99-2.776zm-15.556-8.855c-.045-.006 4.217 2.49 6.25 5.179 1.758 2.325 4.196 8.75 4.196 8.75 0 .035 1.255-.223 2.26.418 2.9 1.853 5.474 9.79 5.474 9.79s-.628-2.351-1.65-4.821c-1.023-2.47-2.521-4.846-4.02-5.537-.798-.368-1.608-.282-1.796-.386 0 0-2.857-6.518-3.795-8.08-.937-1.563-5.625-5.358-5.625-5.358zm-20.223 7.143s6.74-2.322 10.803.893c4.063 3.214 6.83 8.259 6.83 8.259s1.83-.76 3.527.357c1.697 1.116 3.929 3.571 3.929 3.571s-2.59-3.616-4.33-4.24c-1.742-.626-2.768-.313-2.768-.313s-5.062-7.468-7.724-8.929c-3.308-1.816-9.421-.986-9.42-.982z" fill="#1b1714"/><path d="M389.617 120.555s3.214.536 6.25 5.848c3.035 5.313 4.866 13.661 4.866 13.661s-1.945-9.33-4.107-13.482c-2.301-4.416-5.313-6.25-5.313-6.25zM295.61 142.64s4.158-7.523 8.578-11.143c5.078-4.158 9.422-.274 9.422-.274s5.39-3.671 8.913-4.31c4.514-.82 8.688-.492 9.19-.362.501.13 9.371 8.564 11.623 10.714 2.253 2.149 13.734 13.905 14.892 15.579 1.157 1.673 5.435 10.805 5.435 10.805.27-1.825.665-4.661-.05-6.1 0 0-3.294-5.429-4.217-6.448-.922-1.018-15.204-15.807-18.836-18.75-3.544-2.873-7.088-6.598-8.295-6.735-3.758-.427-4.977-.3-9.454.354-3.129.456-7.557 3.342-9.332 4.16-1.32-.28-3.344-2.74-8.726.058-4.124 2.144-9.143 12.452-9.143 12.452z" fill="#1b1714"/><path d="M313.61 131.224s-2.082 1.343-3.99 6.671c-1.872 5.23-2.143 6.374-2.746 8.349 0 0 .842-4.904 2.283-8.875 1.588-4.378 4.322-7.24 4.322-7.24zm48.073-50.267s.357-23.393 3.035-30.09c2.679-6.696 4.107-11.696 5.982-11.16 1.875.536 6.697 24.91 6.697 24.91s2.321.18 3.125 2.054c.803 1.875 4.464 9.822 3.571 12.59-.893 2.767-1.25 4.107-1.25 4.107s.468-1.939.678-3.622c.595-4.782-1.81-8.73-2.992-12.132-.84-2.417-3.705-2.345-3.705-2.345s-4.821-24.197-6.16-24.464c-1.34-.268-2.642 3.723-3.356 5.866-.715 2.143-3.75 10-3.661 18.482l.29 27.3c-1.652-1-2.5-4.33-2.254-11.496z" fill="#1b1714"/><path d="M372.803 249.304s-1.936-4.896-2.441-9.947c-.505-5.05 0-67.68-1.01-79.044-1.01-11.365-6.061-75.51-6.314-83.843-.246-20.515-1.976 15.328-2.02 18.435 0 3.283 2.273 72.226 2.273 77.53 0 5.303-3.536 65.407-4.04 68.942-.506 3.536-3.536 8.082-3.536 8.082l3.995.317 3.076-.317 1.885.541z" fill="#bcafa5"/><path d="M442.209 126.978s-3.662-5.177-8.208-6.188c-4.545-1.01-10.48 2.147-10.48 2.147s-5.303-6.692-13.006-8.334c-7.702-1.641-14.369-.906-14.836-.757-.468.148-8.192 8.317-10.212 10.464-2.02 2.146-12.327 13.653-13.337 15.294-1.01 1.642-4.778 10.014-4.778 10.014-.345-1.715-.877-3.691-.273-5.09 0 0 2.84-5.302 3.662-6.313.82-1.01 13.573-15.72 16.856-18.687 3.205-2.896 7.138-6.74 7.5-6.788 4.873-.65 13.928.391 17.817 1.737 3.276 1.133 7.166 3.883 8.555 5.398 1.39 1.515 2.17 2.15 2.17 2.15 1.232-.33 6.711-3.307 11.931-.925 4 1.825 6.639 5.878 6.639 5.878zm-97.191 10.592c.075-.01-6.124 2.79-9.484 6.236-2.906 2.981-6.937 11.218-6.937 11.218 0 .045-2.074-.286-3.735.537-4.795 2.375-9.05 12.549-9.05 12.549s1.039-3.014 2.73-6.18c1.69-3.167 4.166-6.213 6.643-7.098 1.32-.471 2.66-.362 2.97-.495 0 0 4.723-8.356 6.272-10.359 1.55-2.003 9.299-6.868 9.299-6.868z" fill="#1b1714"/><path d="M328.597 155.024s-2.081 1.343-3.989 6.671c-1.873 5.23-2.143 6.374-2.747 8.349 0 0 .842-4.904 2.283-8.875 1.589-4.377 4.323-7.24 4.323-7.24zm33.494-44.335c-2.967-5.05-4.104-7.45-7.197-11.112-3.094-3.662-14.065-15.636-18.372-17.551-4.09-1.819-6.549-2.761-12.122-1.515-5.028 1.124-13.637 11.806-13.637 11.806 1.207-.873 8.373-10.085 13.89-11.46 5.102-1.27 9.705.733 12.563 2.305 2.533 1.393 14.269 12.943 17.236 17.173 2.967 4.23 7.702 13.321 7.702 13.321.082-.886.608-1.329-.063-2.967z" fill="#1b1714"/><path d="M346.816 91.259c.045.03-4.292-2.127-7.607-.848-2.867 1.106-7.343 4.102-7.343 4.102-.02.04-1.862-.52-3.121-.643-3.638-.353-9.7 8.674-9.7 8.674s2.114-3.517 4.176-5.545c2.104-2.07 3.965-3.941 5.697-3.466.923.254 2.554.32 2.78.36 0 0 5.537-2.942 7.244-3.887 1.706-.944 6.73.138 6.73.138z" fill="#1b1714"/><path d="M339.716 90.034s-2.544 1.424-4.729 6.7c-2.184 5.277-4.214 13.524-4.214 13.524s2.221-9.216 3.828-13.336c1.71-4.383 3.4-6.234 3.4-6.234zm24.826 25.579c3.006-5.051 4.157-7.45 7.291-11.112 3.134-3.662 14.248-15.636 18.612-17.551 4.144-1.819 6.634-2.762 12.28-1.516 5.094 1.124 13.816 11.807 13.816 11.807-1.224-.873-8.483-10.085-14.071-11.46-5.17-1.27-9.833.733-12.728 2.305-2.567 1.393-14.455 12.943-17.461 17.173-3.006 4.23-7.803 13.321-7.803 13.321-.083-.886-.615-1.329.064-2.967z" fill="#1b1714"/><path d="M379.845 96.334s6.741-1.212 10.804.465c4.062 1.678 6.83 4.31 6.83 4.31s1.83-.396 3.527.187c1.696.582 3.928 1.863 3.928 1.863s-2.589-1.887-4.33-2.213c-1.741-.326-2.768-.163-2.768-.163s-5.062-3.897-7.723-4.66c-3.308-.947-9.422-.514-9.42-.512zm12.125-9.54s2.718-.943 7.935 2.253c5.218 3.196 10.84 9.812 10.84 9.812s-6.195-7.244-10.089-9.842c-4.142-2.764-7.307-2.878-7.307-2.878zm-28.01-31.895c1.423-.095 5.257 6.335 6.867 12.54 1.618 6.237 2.067 10.761 2.067 10.761s1.417 1.658 2.224 4.128c.806 2.47 1.594 6.226 1.594 6.226s-.7-4.752-1.673-7.02c-.973-2.267-1.736-3.255-1.736-3.255s-1.31-9.475-2.603-13.22c-1.578-4.57-3.589-9.515-5.931-11.038zm3.75 164.853s-.18.937-.447.312c-.268-.625-.357-4.553 0-4.107.357.446.67 2.188.67 2.188s.446-5.536.982-4.599c.535.938.803 7.59-.179 8.572-.982.982-1.027-2.366-1.027-2.366zm-2.477-111.872s-.316-.632-.916-2.147c-.6-1.515-.537-2.904-.158-2.084.38.821 1.074 4.23 1.074 4.23zm.126 51.517s.063-1.42.947-1.452c.884-.032 1.957 1.515 1.957 1.736 0 .221-.631 1.358-1.768.916-1.136-.442-1.136-1.2-1.136-1.2zm.349 63.375c-.636.135-.99 6.176-.99 6.176s-.134.804-1.206-2.812c-1.071-3.616-1.472 8.437-1.472 8.437s-.447-1.741-.715-3.125c-.144-.746-.885 1.17-1.549 3.115-.237 3.461-.44 6.199-.527 6.815-.505 3.535-3.535 8.08-3.535 8.08l3.996.318 3.076-.317 1.885.541 9.395-.191s-3.199-5.4-3.704-10.45c-.082-.818-.132-3.514-.172-6.886-.016-.078-.063-.262-.07-.31-.223-1.518-.447 2.008-.447 2.008s-.67-5.892-1.116-7.008c-.446-1.116-.982 5.223-.982 5.223s-.447-4.642-1.385-8.616c-.176-.745-.336-1.029-.482-.998zm-3.689-24.836l-.03.01c-.349 6.165-.67 11.655-1.039 17.754a14.07 14.07 0 001.747-.707c.65-1.645.273-4.3.273-4.3s.223.357.223 1.294c0 .759.3 1.545 1.027 2.22.092-.05.155-.077.25-.13.465-.261.884-.47 1.32-.701.196-1.056.215-2.326.215-2.326s.175 1.031.47 1.96c.279-.141.563-.283.835-.415a33.32 33.32 0 00-.238-1.506c-.198-.533-.393-1.067-.584-1.602-.36-1.005-.72-2.01-1.067-3.02-.131-.383-.25-.77-.373-1.158-.483-1.28-.992-2.657-1.562-4.238-.05-.137-.092-.277-.141-.414a51.614 51.614 0 00-.63-1.355c-.225-.46-.462-.912-.696-1.366zm7.933-11.99c-.462.652-1.324 1.987-1.53 3.156-.285 1.61-1.074 4.735-1.768 4.893-.695.158-1.233-1.357-1.612-.063-.379 1.295.474 5.303 1.168 6.03.695.726.885.82.885.82s-.63 1.168.127 1.515c.758.348 1.2-.947 1.2-.947s-.19 1.641.347 2.588c.303.535.849.39 1.283.168-.02-6.192-.053-12.231-.1-18.16zm-6.895-7.525c-.111 2.332-.26 5.203-.434 8.454.113.244.25.434.432.49.82.252 1.043-1.64 1.043-1.64s.251 1.324.693 1.64c.442.316 1.01-2.809 1.01-2.809s1.231.787 2.084.188c.852-.6-.758-1.262-.758-1.262s.38.032.537-.852c.158-.883-2.873-2.115-2.873-2.115s-.22-.41-.473-1.168c-.252-.757-.6 1.42-.6 1.42s-.158-1.42-.536-2.209c-.043-.088-.084-.123-.125-.137zm-.087-18.601c.128 4.389.212 7.54.262 9.768.34.508.708 1.06.896 1.298.474.6 1.547 1.2 2.21.758.662-.442.569-1.577.095-2.619-.473-1.042-.285-2.525-.285-2.525s.38-.443.695-1.106c.316-.663-1.388-1.578-1.767-2.746-.37-1.142-2.03-2.755-2.106-2.828zm3.699-11.943c-.083.022-.157.115-.236.313-.316.789-.76-.38-.854.789-.095 1.168-.094 5.557.475 5.463.568-.095 1.01-.916 1.01-.916s-.443 2.872.283 2.904c.726.032.822-.6.822-.6s.063 1.041.789.473c.022-.017.036-.06.055-.09-.158-1.862-.362-4.365-.588-7.148-.09 0-1.221 1.263-1.142.988.175-.6-.365-2.241-.614-2.176zm-3.395-10.325c-.402-.125-.716 2.704-.855 4.07l.203 6.67c.525-1.898 1.316-6.478 1.316-6.478s-.063 1.263.631 2.147c.695.884.852.093.852.093s-.6-5.46-.82-6.312c-.222-.852-.569 1.482-.569 1.482s-.253-1.514-.758-1.672zm2.558-18.592a.413.413 0 00-.252.158c-.631.758-.568 4.766-.568 4.766s-.348-3.756-.6-2.557c-.253 1.2.19 7.513.664 7.418.474-.094.473-2.24.473-2.24s.253 2.81.884 2.904c.138.021.248-.44.344-1.097-.25-3.192-.476-6.038-.728-9.309a.425.425 0 00-.217-.043zm-4.745-25c-.008 0-.014.007-.021.008-.01.286-.038.78-.038.941 0 .034.016.48.016.527.394.115.91.191 1.328-.052.758-.442-.19-.947-1.012-1.358a.541.541 0 00-.273-.066zm3.28 2.993c-.167.031-.342.125-.508.322-.662.79-1.262 1.36-.22 1.391.327.01.608-.124.847-.303l-.103-1.41h-.016zm-1.591-28.2c-.28-.046-1.026 6.155-1.093 12.204.106-.26.2-.455.257-.475.277-.092.456.682.536.805.17.262.726.783.804 1.25.085.507-.293 1.47-.09 1.875.014.027.067-.018.09 0 .082.063.157.133.233.203.152-3.74.002-6.484-.038-7.816-.054-4.488-.537-8.02-.7-8.046z" fill="#1b1714"/><path d="M372.933 170.243l-1.965.893c-.06.119-.061.293-.178.357-.612.333-1.367.356-1.965.714-.654.393-1.157 1.052-1.785 1.429-.365.219-.327-.24-.536.178-.147.294.275.193.357.357.462.924.937 2.23 1.429 3.215.053.106-.084.273 0 .357.077.077 1.148.034 1.25 0 .582-.194 3.345-2.488 3.571-3.393.185-.74-.258-1.528.357-2.143m-13.928-42.679c-.203.597-.179.84-.179 1.429 0 .924-.066-.377.357.893.094.282-.133.627 0 .893.076.15.282.206.357.357.054.106-.053.25 0 .357.006.013 1.198.066 1.43 0 .16-.046.206-.282.356-.357.22-.11.518-.031.714-.179.642-.48 1.691-2.924 2.68-1.607.07.095 0 .238 0 .357 0 1.056-.432 3.068-1.608 3.572-.576.246-4.007.602-4.643.178-.11-.073-.105-.246-.179-.357-.165-.247-.402-.448-.535-.714-.132-.263-.179-3.371-.179-4.107" fill="none"/><path d="M372.933 170.243c.083.97.376 1.901.535 2.857.01.059 0 .238 0 .178v-1.071m-13.928-42.679c-1.003.356-3.51 3.627-1.429.715m7.143-41.965c0 1.012.842 2.475 0 3.036-1.62 1.08-3.205-2.13-3.75-2.857-.036-.048.019.122 0 .179-.042.126-.16.225-.179.357-.086.606 0 1.343 0 1.964 0 .497-.126 1.521.536 1.786.166.066.36-.035.536 0 .499.1.932.425 1.428.535.254.057 1.607.108 1.786 0 .304-.182.85-3.256.357-3.75-.839-.839-1.396 1.922-2.03 2.925m-4.577 97.254c2.024-.06 4.135-.77 6.072-.179.692.212.137 1.453.357 2.143.202.634.617 1.18.893 1.786.127.281.068 4.328 0 4.464-.071.142-.54.478-.715.536-1.199.4-3.865-2.158-4.285-2.5-.164-.691-.876-.414-1.25-.714-.254-.203-1.962-2.136-1.965-2.143-.14-.421 0-1.184 0-1.607 0-1.464-.35-1.164.893-1.786z" fill="none"/><path style="mix-blend-mode:multiply" d="M362.442 131.575l-.297 1.107c.571 18.39 1.145 37.089 1.145 39.752 0 5.304-3.536 65.408-4.041 68.944-.505 3.535-3.535 8.08-3.535 8.08l2.715-1.199 4.357 1.2 1.885.541 9.395-.191-3.535-3.915c-2.998-2.608-4.396-1.373-6.446-6.61-.286-.731.025-86.762-.276-90.687a3444.19 3444.19 0 00-1.367-17.022zm5.473 11.41c-.338.591-1.352 2.106-1.768 2.748-.49.759-.85 3.93.088 4.6.938.67 1.117-.715 1.117-.715s.893-1.83.893-2.143c0-.015 2.546-5.273 2.552-5.294 0 0-2.638 3.71-2.736 2.488-.028-.033-.06-.06-.084-.096-.255-.37-.173-.927-.035-1.383-.006-.074.073-.38.036-.315zm-5.824-32.296c.021.744-.242 1.477-.563 1.76.058 1.878.063 3.1.127 5.169.525-1.466 1.025-3.356 1.252-3.809.379-.757-.816-3.12-.816-3.12z" opacity=".5" fill="#437e95"/><g fill="#89a02c"><path d="M323.824 155.99s.752 1.06.465 1.918c-.286.857-.496 1.261-.496 1.261s-.794-.865-.828-1.75c-.034-.886.859-1.429.859-1.429zm-.04 7.37s.825 1.604.6 3.002c-.225 1.398-.405 2.066-.405 2.066s-.853-1.288-.95-2.695c-.097-1.406.755-2.373.755-2.373zm-6.391 1.508s.956.88.854 1.78c-.102.897-.223 1.336-.223 1.336s-.956-.68-1.174-1.54c-.217-.859.543-1.576.543-1.576z"/><path d="M322.78 157.059s.906 1.494.754 2.922c-.152 1.427-.298 2.118-.298 2.118s-.917-1.175-1.086-2.568c-.169-1.394.63-2.472.63-2.472zm-11.904-21.989s.799 1.026.55 1.895c-.249.87-.44 1.282-.44 1.282s-.831-.83-.905-1.712c-.072-.884.795-1.465.795-1.465zm-3.824 10.638s.798 1.72.55 3.176c-.249 1.456-.44 2.148-.44 2.148s-.832-1.39-.905-2.87c-.073-1.48.795-2.454.795-2.454z"/><path d="M310.177 135.886s.798 1.434.55 2.649c-.249 1.214-.44 1.792-.44 1.792s-.832-1.16-.905-2.393c-.073-1.235.795-2.048.795-2.048zm-1.205-6.326s-1.738.564-2.922.137c-1.183-.426-1.722-.7-1.722-.7s1.464-.638 2.768-.523c1.304.115 1.876 1.086 1.876 1.086zm-7.277 3.559s.798 1.719.55 3.175c-.249 1.457-.44 2.149-.44 2.149s-.832-1.39-.905-2.87c-.073-1.48.795-2.454.795-2.454zm29.518-6.618s.244 2.34-.372 3.553c-.617 1.211-.975 1.726-.975 1.726s-.364-2.047-.027-3.55c.336-1.502 1.374-1.729 1.374-1.729zm.207 4.079s.757 1.058.474 1.916c-.282.859-.49 1.264-.49 1.264s-.798-.861-.836-1.746c-.039-.886.851-1.433.851-1.433zm.275-23.444s.798 1.516.55 2.8c-.249 1.283-.44 1.893-.44 1.893s-.832-1.225-.905-2.529c-.073-1.304.795-2.164.795-2.164zm7.054-16.428s.798 1.718.55 3.173c-.25 1.456-.44 2.147-.44 2.147s-.832-1.389-.905-2.867c-.073-1.479.795-2.453.795-2.453z"/><path d="M338.823 90.959s.19 1.286-.453 1.92c-.644.635-1.014.9-1.014.9s-.316-1.13.054-1.935c.371-.805 1.413-.885 1.413-.885zm-7.128 3.945s.798 1.026.55 1.896c-.249.869-.44 1.282-.44 1.282s-.832-.83-.905-1.713c-.073-.883.795-1.465.795-1.465zm-20.446-2.768s.798 1.027.55 1.896c-.25.869-.44 1.282-.44 1.282s-.832-.83-.905-1.713c-.073-.883.795-1.465.795-1.465zm3.073-3.374s1.295 1.298 1.272 2.837c-.022 1.54-.122 2.306-.122 2.306s-1.271-.96-1.642-2.37c-.371-1.408.492-2.773.492-2.773z"/><path d="M313.749 89.547s.798 1.026.55 1.895c-.25.87-.44 1.283-.44 1.283s-.832-.83-.905-1.713c-.073-.883.795-1.465.795-1.465zm23.214-6.339s.798 1.718.55 3.173c-.25 1.456-.44 2.147-.44 2.147s-.832-1.389-.905-2.867c-.073-1.479.795-2.453.795-2.453zm36.803-3.98s.5 1.504-.161 2.365c-.662.861-1.062 1.238-1.062 1.238s-.623-1.299-.333-2.32c.29-1.02 1.556-1.283 1.556-1.283zm3.064-13.43s1.002 1.921.69 3.548c-.312 1.627-.553 2.4-.553 2.4s-1.044-1.552-1.136-3.205c-.09-1.654.999-2.743.999-2.743zm6.44 14.647s1.002 1.534.69 2.834c-.313 1.3-.553 1.917-.553 1.917s-1.044-1.24-1.136-2.56c-.091-1.321.998-2.191.998-2.191zm-3.271 16.022s.798 1.718.55 3.173c-.25 1.456-.44 2.147-.44 2.147s-.832-1.389-.905-2.867c-.073-1.479.795-2.453.795-2.453zm17.503-7.677s1.002 1.229.69 2.269c-.312 1.04-.553 1.534-.553 1.534s-1.044-.992-1.136-2.049c-.091-1.057.999-1.753.999-1.753zm-8.817.266s1.002 1.228.69 2.268c-.312 1.04-.552 1.535-.552 1.535s-1.044-.993-1.136-2.05c-.092-1.057.998-1.753.998-1.753zm-9.643-22.768s1.002 1.228.69 2.268c-.312 1.04-.552 1.535-.552 1.535s-1.044-.993-1.136-2.05c-.091-1.057.998-1.753.998-1.753zm37.054 31.072s1.002 1.228.69 2.268c-.312 1.04-.553 1.534-.553 1.534s-1.044-.992-1.135-2.05c-.092-1.056.998-1.752.998-1.752zM370.76 66.956s.709 1.417.177 2.364c-.531.947-.874 1.377-.874 1.377s-.802-1.197-.66-2.248c.14-1.052 1.356-1.493 1.356-1.493zm25.425 60.404s1.002 1.228.69 2.268c-.312 1.04-.552 1.534-.552 1.534s-1.044-.992-1.136-2.05c-.092-1.056.998-1.752.998-1.752zm8.393 1.875s1.002 1.228.69 2.268c-.312 1.04-.553 1.534-.553 1.534s-1.044-.992-1.135-2.05c-.092-1.056.998-1.752.998-1.752zm4.464 1.607s1.002 1.228.69 2.268c-.312 1.04-.552 1.534-.552 1.534s-1.044-.992-1.136-2.05c-.091-1.056.998-1.752.998-1.752zm-.982-16.429s1.002 1.228.69 2.268c-.312 1.04-.552 1.535-.552 1.535s-1.044-.993-1.136-2.05c-.092-1.057.998-1.753.998-1.753zm10.179 13.393s1.002 1.228.69 2.268c-.312 1.04-.553 1.535-.553 1.535s-1.044-.993-1.136-2.05c-.091-1.057.999-1.753.999-1.753zm1.589 2.5s1.037 2.064.754 3.813c-.283 1.748-.51 2.579-.51 2.579s-1.071-1.669-1.193-3.445c-.12-1.776.95-2.947.95-2.947zm18.3-1.761s.656 1.443.09 2.369c-.568.926-.926 1.342-.926 1.342s-.757-1.226-.576-2.27c.181-1.046 1.412-1.441 1.412-1.441zm-13.461-5.918s1.002 1.229.69 2.269c-.312 1.04-.552 1.534-.552 1.534s-1.044-.993-1.136-2.05c-.091-1.056.998-1.753.998-1.753z"/></g><path d="M581.578 108.034s2.385 7.225 1.642 13.343c-.743 6.12-1.315 9.027-1.315 9.027s-2.485-5.839-2.703-12.056c-.218-6.218 2.376-10.314 2.376-10.314z" fill="#567823"/><path d="M673.52 122.937s6.383-3.53 11.364 1.056c4.085 3.76 5.447 9.687 5.447 9.687s-.804-5.49-4.866-9.643c-4.063-4.151-8.99-2.776-8.99-2.776zm-15.555-8.855c-.046-.006 4.217 2.49 6.25 5.179 1.758 2.325 4.196 8.75 4.196 8.75 0 .035 1.255-.223 2.26.418 2.9 1.853 5.474 9.79 5.474 9.79s-.628-2.351-1.65-4.821c-1.023-2.47-2.521-4.846-4.02-5.537-.798-.368-1.609-.282-1.796-.386 0 0-2.857-6.518-3.795-8.08-.937-1.563-5.625-5.358-5.625-5.358zm-20.224 7.143s6.742-2.322 10.804.893c4.063 3.214 6.83 8.259 6.83 8.259s1.83-.76 3.527.357c1.697 1.116 3.929 3.571 3.929 3.571s-2.59-3.616-4.33-4.24c-1.742-.626-2.768-.313-2.768-.313s-5.062-7.468-7.724-8.929c-3.308-1.816-9.422-.986-9.42-.982z" fill="#1b1714"/><path d="M639.616 120.555s3.215.536 6.25 5.848c3.036 5.313 4.867 13.661 4.867 13.661s-1.945-9.33-4.108-13.482c-2.3-4.416-5.312-6.25-5.312-6.25zM545.61 142.64s4.157-7.523 8.578-11.143c5.077-4.158 9.422-.274 9.422-.274s5.39-3.671 8.912-4.31c4.514-.82 8.689-.492 9.19-.362.502.13 9.372 8.564 11.624 10.714 2.253 2.149 13.734 13.905 14.891 15.579 1.158 1.673 5.436 10.805 5.436 10.805.27-1.825.665-4.661-.05-6.1 0 0-3.294-5.429-4.217-6.448-.922-1.018-15.205-15.807-18.836-18.75-3.544-2.873-7.089-6.598-8.295-6.735-3.758-.427-4.978-.3-9.455.354-3.128.456-7.557 3.342-9.33 4.16-1.32-.28-3.345-2.74-8.727.058-4.124 2.144-9.143 12.452-9.143 12.452z" fill="#1b1714"/><path d="M563.61 131.224s-2.082 1.343-3.99 6.671c-1.872 5.23-2.143 6.374-2.747 8.349 0 0 .843-4.904 2.283-8.875 1.589-4.378 4.323-7.24 4.323-7.24zm48.072-50.267s.358-23.393 3.036-30.09c2.679-6.696 4.107-11.696 5.982-11.16 1.875.536 6.697 24.91 6.697 24.91s2.321.18 3.125 2.054c.803 1.875 4.464 9.822 3.571 12.59-.893 2.767-1.25 4.107-1.25 4.107s.468-1.939.677-3.622c.596-4.782-1.81-8.73-2.991-12.132-.84-2.417-3.705-2.345-3.705-2.345s-4.821-24.197-6.16-24.464c-1.34-.268-2.642 3.723-3.357 5.866-.714 2.143-3.75 10-3.66 18.482l.29 27.3c-1.652-1-2.5-4.33-2.255-11.496z" fill="#1b1714"/><path d="M622.803 249.304s-1.936-4.896-2.441-9.947c-.505-5.05 0-67.68-1.01-79.044-1.01-11.365-6.061-75.51-6.314-83.843-.246-20.515-1.977 15.328-2.02 18.435 0 3.283 2.273 72.226 2.273 77.53 0 5.303-3.536 65.407-4.041 68.942-.505 3.536-3.536 8.082-3.536 8.082l3.996.317 3.075-.317 1.886.541z" fill="#bcafa5"/><path d="M692.209 126.978s-3.662-5.177-8.208-6.188c-4.545-1.01-10.48 2.147-10.48 2.147s-5.303-6.692-13.006-8.334c-7.702-1.641-14.37-.906-14.836-.757-.468.148-8.192 8.317-10.212 10.464-2.02 2.146-12.327 13.653-13.338 15.294-1.01 1.642-4.777 10.014-4.777 10.014-.345-1.715-.877-3.691-.273-5.09 0 0 2.84-5.302 3.661-6.313.821-1.01 13.574-15.72 16.857-18.687 3.205-2.896 7.138-6.74 7.5-6.788 4.873-.65 13.928.391 17.817 1.737 3.275 1.133 7.166 3.883 8.555 5.398 1.389 1.515 2.17 2.15 2.17 2.15 1.232-.33 6.711-3.307 11.931-.925 4 1.825 6.639 5.878 6.639 5.878zm-97.191 10.592c.074-.01-6.124 2.79-9.484 6.236-2.906 2.981-6.937 11.218-6.937 11.218 0 .045-2.074-.286-3.735.537-4.795 2.375-9.05 12.549-9.05 12.549s1.038-3.014 2.729-6.18c1.69-3.167 4.167-6.213 6.644-7.098 1.32-.471 2.66-.362 2.97-.495 0 0 4.722-8.356 6.272-10.359 1.55-2.003 9.299-6.868 9.299-6.868z" fill="#1b1714"/><path d="M578.597 155.024s-2.081 1.343-3.99 6.671c-1.872 5.23-2.142 6.374-2.746 8.349 0 0 .842-4.904 2.283-8.875 1.588-4.377 4.323-7.24 4.323-7.24zm33.494-44.335c-2.967-5.05-4.104-7.45-7.197-11.112-3.094-3.662-14.065-15.636-18.373-17.551-4.09-1.819-6.548-2.761-12.121-1.515-5.029 1.124-13.637 11.806-13.637 11.806 1.207-.873 8.373-10.085 13.89-11.46 5.102-1.27 9.705.733 12.563 2.305 2.533 1.393 14.268 12.943 17.236 17.173 2.967 4.23 7.702 13.321 7.702 13.321.082-.886.607-1.329-.063-2.967z" fill="#1b1714"/><path d="M596.816 91.259c.044.03-4.292-2.127-7.607-.848-2.867 1.106-7.343 4.102-7.343 4.102-.02.04-1.862-.52-3.122-.643-3.637-.353-9.7 8.674-9.7 8.674s2.115-3.517 4.177-5.545c2.104-2.07 3.965-3.941 5.697-3.466.923.254 2.554.32 2.78.36 0 0 5.537-2.942 7.244-3.887 1.706-.944 6.73.138 6.73.138z" fill="#1b1714"/><path d="M589.716 90.034s-2.545 1.424-4.729 6.7c-2.184 5.277-4.214 13.524-4.214 13.524s2.221-9.216 3.828-13.336c1.71-4.383 3.4-6.234 3.4-6.234zm24.826 25.579c3.006-5.051 4.157-7.45 7.291-11.112 3.134-3.662 14.248-15.636 18.612-17.551 4.144-1.819 6.634-2.762 12.28-1.516 5.094 1.124 13.815 11.807 13.815 11.807-1.223-.873-8.482-10.085-14.07-11.46-5.17-1.27-9.833.733-12.728 2.305-2.567 1.393-14.455 12.943-17.461 17.173-3.006 4.23-7.803 13.321-7.803 13.321-.083-.886-.616-1.329.064-2.967z" fill="#1b1714"/><path d="M629.845 96.334s6.741-1.212 10.803.465c4.063 1.678 6.83 4.31 6.83 4.31s1.831-.396 3.528.187c1.696.582 3.928 1.863 3.928 1.863s-2.59-1.887-4.33-2.213c-1.741-.326-2.768-.163-2.768-.163s-5.062-3.897-7.723-4.66c-3.308-.947-9.422-.514-9.42-.512zm12.125-9.54s2.717-.943 7.935 2.253c5.217 3.196 10.84 9.812 10.84 9.812s-6.196-7.244-10.089-9.842c-4.142-2.764-7.307-2.878-7.307-2.878zm-28.01-31.895c1.423-.095 5.257 6.335 6.866 12.54 1.619 6.237 2.068 10.761 2.068 10.761s1.417 1.658 2.223 4.128c.807 2.47 1.594 6.226 1.594 6.226s-.7-4.752-1.672-7.02c-.973-2.267-1.736-3.255-1.736-3.255s-1.31-9.475-2.604-13.22c-1.577-4.57-3.588-9.515-5.93-11.038zm3.75 164.853s-.18.937-.447.312c-.268-.625-.357-4.553 0-4.107.357.446.67 2.188.67 2.188s.446-5.536.982-4.599c.535.938.803 7.59-.179 8.572-.982.982-1.027-2.366-1.027-2.366zm-2.478-111.872s-.315-.632-.915-2.147c-.6-1.515-.537-2.904-.158-2.084.379.821 1.073 4.23 1.073 4.23zm.127 51.517s.063-1.42.947-1.452c.884-.032 1.957 1.515 1.957 1.736 0 .221-.631 1.358-1.768.916-1.136-.442-1.136-1.2-1.136-1.2zm.349 63.375c-.636.135-.99 6.176-.99 6.176s-.134.804-1.206-2.812c-1.071-3.616-1.472 8.437-1.472 8.437s-.447-1.741-.715-3.125c-.145-.746-.885 1.17-1.55 3.115-.236 3.461-.438 6.199-.526 6.815-.505 3.535-3.536 8.08-3.536 8.08l3.997.318 3.075-.317 1.886.541 9.395-.191s-3.199-5.4-3.704-10.45c-.082-.818-.132-3.514-.172-6.886-.016-.078-.063-.262-.07-.31-.224-1.518-.448 2.008-.448 2.008s-.668-5.892-1.115-7.008c-.446-1.116-.982 5.223-.982 5.223s-.447-4.642-1.385-8.616c-.176-.745-.336-1.029-.482-.998zm-3.689-24.836l-.03.01c-.349 6.165-.67 11.655-1.039 17.754.432-.143.908-.312 1.746-.707.651-1.645.274-4.3.274-4.3s.223.357.223 1.294c0 .759.3 1.545 1.027 2.22.091-.05.155-.077.25-.13.465-.261.884-.47 1.32-.701.196-1.056.215-2.326.215-2.326s.175 1.031.47 1.96c.278-.141.563-.283.835-.415a33.32 33.32 0 00-.239-1.506c-.197-.533-.392-1.067-.584-1.602-.36-1.005-.72-2.01-1.066-3.02-.131-.383-.251-.77-.373-1.158-.483-1.28-.992-2.657-1.563-4.238-.049-.137-.092-.277-.14-.414a51.614 51.614 0 00-.631-1.355c-.224-.46-.461-.912-.695-1.366zm7.933-11.99c-.462.652-1.325 1.987-1.531 3.156-.284 1.61-1.073 4.735-1.768 4.893-.694.158-1.232-1.357-1.61-.063-.38 1.295.473 5.303 1.167 6.03.695.726.885.82.885.82s-.63 1.168.127 1.515c.757.348 1.199-.947 1.199-.947s-.189 1.641.348 2.588c.303.535.849.39 1.283.168-.02-6.192-.053-12.231-.1-18.16zm-6.896-7.525c-.11 2.332-.26 5.203-.433 8.454.113.244.25.434.432.49.82.252 1.042-1.64 1.042-1.64s.252 1.324.694 1.64c.442.316 1.01-2.809 1.01-2.809s1.231.787 2.084.188c.852-.6-.758-1.262-.758-1.262s.38.032.537-.852c.158-.883-2.873-2.115-2.873-2.115s-.22-.41-.473-1.168c-.252-.757-.6 1.42-.6 1.42s-.158-1.42-.537-2.209c-.042-.088-.083-.123-.125-.137zm-.086-18.601c.128 4.389.212 7.54.262 9.768.34.508.708 1.06.896 1.298.474.6 1.546 1.2 2.21.758.662-.442.569-1.577.095-2.619-.474-1.042-.285-2.525-.285-2.525s.38-.443.695-1.106c.316-.663-1.389-1.578-1.767-2.746-.37-1.142-2.03-2.755-2.106-2.828zm3.699-11.943c-.083.022-.158.115-.237.313-.315.789-.758-.38-.853.789-.095 1.168-.094 5.557.475 5.463.568-.095 1.01-.916 1.01-.916s-.444 2.872.283 2.904c.726.032.822-.6.822-.6s.063 1.041.789.473c.022-.017.036-.06.055-.09-.158-1.862-.362-4.365-.588-7.148-.09 0-1.222 1.263-1.142.988.174-.6-.366-2.241-.614-2.176zm-3.395-10.325c-.402-.125-.716 2.704-.855 4.07l.203 6.67c.525-1.898 1.316-6.478 1.316-6.478s-.063 1.263.631 2.147c.694.884.852.093.852.093s-.6-5.46-.82-6.312c-.222-.852-.57 1.482-.57 1.482s-.252-1.514-.757-1.672zm2.558-18.592a.413.413 0 00-.252.158c-.632.758-.569 4.766-.569 4.766s-.347-3.756-.6-2.557c-.252 1.2.191 7.513.665 7.418.473-.094.473-2.24.473-2.24s.253 2.81.884 2.904c.138.021.248-.44.344-1.097-.25-3.192-.477-6.038-.728-9.309a.425.425 0 00-.217-.043zm-4.745-25c-.008 0-.014.007-.022.008-.01.286-.037.78-.037.941 0 .034.015.48.016.527.394.115.91.191 1.328-.052.758-.442-.191-.947-1.012-1.358a.541.541 0 00-.273-.066zm3.28 2.993c-.167.031-.342.125-.508.322-.663.79-1.262 1.36-.22 1.391.326.01.608-.124.847-.303l-.103-1.41h-.016zm-1.591-28.2c-.28-.046-1.027 6.155-1.094 12.204.107-.26.2-.455.258-.475.277-.092.456.682.535.805.17.262.727.783.805 1.25.085.507-.293 1.47-.09 1.875.014.027.067-.018.09 0 .081.063.157.133.233.203.152-3.74.002-6.484-.038-7.816-.054-4.488-.537-8.02-.7-8.046z" fill="#1b1714"/><path d="M622.932 170.243l-1.964.893c-.06.119-.062.293-.178.357-.612.333-1.367.356-1.965.714-.655.393-1.157 1.052-1.785 1.429-.365.219-.327-.24-.536.178-.147.294.275.193.357.357.462.924.937 2.23 1.429 3.215.053.106-.085.273 0 .357.077.077 1.147.034 1.25 0 .581-.194 3.345-2.488 3.571-3.393.185-.74-.258-1.528.357-2.143m-13.928-42.679c-.203.597-.179.84-.179 1.429 0 .924-.066-.377.357.893.094.282-.133.627 0 .893.075.15.282.206.357.357.054.106-.053.25 0 .357.006.013 1.198.066 1.429 0 .162-.046.206-.282.357-.357.22-.11.518-.031.714-.179.642-.48 1.69-2.924 2.679-1.607.071.095 0 .238 0 .357 0 1.056-.43 3.068-1.607 3.572-.576.246-4.007.602-4.643.178-.11-.073-.105-.246-.179-.357-.165-.247-.402-.448-.535-.714-.132-.263-.179-3.371-.179-4.107" fill="none"/><path d="M622.932 170.243c.083.97.377 1.901.536 2.857.01.059 0 .238 0 .178v-1.071m-13.928-42.679c-1.003.356-3.51 3.627-1.429.715m7.143-41.965c0 1.012.842 2.475 0 3.036-1.62 1.08-3.205-2.13-3.75-2.857-.036-.048.019.122 0 .179-.042.126-.16.225-.179.357-.086.606 0 1.343 0 1.964 0 .497-.126 1.521.536 1.786.166.066.36-.035.536 0 .498.1.932.425 1.428.535.254.057 1.606.108 1.786 0 .303-.182.85-3.256.357-3.75-.839-.839-1.396 1.922-2.031 2.925m-4.576 97.254c2.024-.06 4.135-.77 6.071-.179.693.212.138 1.453.358 2.143.201.634.617 1.18.892 1.786.128.281.069 4.328 0 4.464-.07.142-.54.478-.714.536-1.199.4-3.865-2.158-4.286-2.5-.163-.691-.875-.414-1.25-.714-.253-.203-1.961-2.136-1.964-2.143-.14-.421 0-1.184 0-1.607 0-1.464-.35-1.164.893-1.786z" fill="none"/><path style="mix-blend-mode:multiply" d="M612.442 131.575l-.297 1.107c.57 18.39 1.145 37.089 1.145 39.752 0 5.304-3.536 65.408-4.041 68.944-.505 3.535-3.536 8.08-3.536 8.08l2.716-1.199 4.356 1.2 1.886.541 9.395-.191-3.536-3.915c-2.997-2.608-4.395-1.373-6.445-6.61-.287-.731.025-86.762-.276-90.687a3444.19 3444.19 0 00-1.367-17.022zm5.473 11.41c-.339.591-1.352 2.106-1.768 2.748-.491.759-.85 3.93.088 4.6.937.67 1.117-.715 1.117-.715s.893-1.83.893-2.143c0-.015 2.546-5.273 2.552-5.294 0 0-2.638 3.71-2.736 2.488-.028-.033-.06-.06-.084-.096-.255-.37-.173-.927-.035-1.383-.006-.074.073-.38.036-.315zm-5.824-32.296c.021.744-.242 1.477-.563 1.76.058 1.878.063 3.1.127 5.169.525-1.466 1.025-3.356 1.252-3.809.378-.757-.816-3.12-.816-3.12z" opacity=".5" fill="#437e95"/><path d="M675.613 123.525s2.013 7.549 1.386 13.942-1.11 9.432-1.11 9.432-2.096-6.101-2.28-12.598c-.183-6.496 2.004-10.776 2.004-10.776zM633.258 80.27s2.838 6.899 1.954 12.74c-.884 5.843-1.565 8.62-1.565 8.62s-2.957-5.576-3.217-11.512c-.259-5.936 2.828-9.847 2.828-9.847z" fill="#89a02c"/><path d="M561.134 93.034s1.818 6.87 1.252 12.69c-.567 5.818-1.003 8.583-1.003 8.583s-1.894-5.553-2.06-11.465c-.167-5.913 1.81-9.808 1.81-9.808z" fill="#567823"/><path d="M585.871 84.105s2.169 7.428 1.494 13.718c-.676 6.29-1.196 9.28-1.196 9.28s-2.26-6.003-2.458-12.395c-.198-6.392 2.16-10.603 2.16-10.603z" fill="#89a02c"/><path d="M565.372 89.64s2.556 5.205 1.93 11.02c-.626 5.814-1.145 8.689-1.145 8.689s-2.628-3.923-2.975-9.336c-.347-5.414 2.19-10.373 2.19-10.373z" fill="#567823"/><path d="M581.56 95.801s2.24 6.573 1.543 12.14c-.698 5.565-1.236 8.21-1.236 8.21s-2.335-5.311-2.54-10.967c-.204-5.656 2.233-9.383 2.233-9.383zm68.18-9.844s2.524 8.822 2.184 16.126c-.341 7.304-.7 10.763-.7 10.763s-2.54-7.164-3.067-14.644c-.526-7.481 1.583-12.245 1.583-12.245zm-4.128 2.523s2.27 6.872 1.423 12.458c-.846 5.585-1.468 8.22-1.468 8.22s-2.393-5.602-2.508-11.36c-.114-5.758 2.553-9.319 2.553-9.319zM589.1 91.353s2.097 8.854 1.444 16.354c-.653 7.499-1.156 11.063-1.156 11.063s-2.185-7.156-2.377-14.777c-.19-7.62 2.089-12.64 2.089-12.64z" fill="#89a02c"/><path d="M563.683 90.444s.798 6.94.55 12.817c-.249 5.877-.44 8.67-.44 8.67s-.832-5.608-.905-11.58c-.073-5.972.795-9.907.795-9.907zm59.13-10.794s1.855 5.512 1.452 10.417-.751 7.255-.751 7.255-1.898-4.406-2.184-9.307c-.285-4.9 1.483-8.364 1.483-8.364z" fill="#567823"/><path d="M627.565 66.696s2.23 7.567 1.8 14.255c-.431 6.689-.82 9.89-.82 9.89s-2.27-6.06-2.649-12.757c-.378-6.698 1.67-11.388 1.67-11.388z" fill="#89a02c"/><path d="M647.412 86.117s1.87 6.678 1.287 12.334c-.582 5.655-1.03 8.343-1.03 8.343s-1.948-5.397-2.12-11.144c-.17-5.747 1.863-9.533 1.863-9.533zm-8.932 3.836s2.023 6.13 1.393 11.322c-.63 5.192-1.115 7.66-1.115 7.66s-2.107-4.955-2.292-10.23c-.184-5.276 2.015-8.752 2.015-8.752z" fill="#567823"/><path d="M630.151 68.971s1.819 5.208 1.253 9.618c-.567 4.41-1.003 6.506-1.003 6.506s-1.894-4.209-2.06-8.69c-.167-4.481 1.81-7.434 1.81-7.434zm36.097 29.286s1.665 5.207 1.147 9.618c-.519 4.41-.918 6.506-.918 6.506s-1.735-4.209-1.888-8.69c-.152-4.482 1.66-7.434 1.66-7.434z" fill="#89a02c"/><path d="M620.694 67.853s.71 6.593.178 10.997c-.532 4.405-.874 6.404-.874 6.404s-.802-5.566-.661-10.456c.141-4.89 1.357-6.945 1.357-6.945z" fill="#567823"/><path d="M646.374 128.636s2.012 7.916 1.385 14.62c-.626 6.704-1.11 9.89-1.11 9.89s-2.095-6.397-2.28-13.21c-.183-6.812 2.005-11.3 2.005-11.3z" fill="#89a02c"/><path d="M655.018 130.89s1.507 6.855 1.038 12.662c-.47 5.806-.83 8.565-.83 8.565s-1.57-5.54-1.709-11.44c-.137-5.9 1.501-9.788 1.501-9.788z" fill="#567823"/><path d="M658.977 131.739s1.002 5.143.69 9.499c-.312 4.355-.553 6.425-.553 6.425s-1.044-4.156-1.135-8.582c-.092-4.426.998-7.342.998-7.342zm-2.892-16.555s2.372 7.182 1.633 13.265c-.738 6.082-1.308 8.973-1.308 8.973s-2.472-5.805-2.69-11.985c-.216-6.18 2.365-10.253 2.365-10.253zm12.088 13.519s1.002 4.858.69 8.972c-.312 4.114-.552 6.069-.552 6.069s-1.044-3.926-1.136-8.106c-.091-4.18.998-6.935.998-6.935z" fill="#89a02c"/><path d="M670.358 130.446s2.225 8.1 1.618 14.96c-.608 6.86-1.094 10.12-1.094 10.12s-2.301-6.547-2.562-13.517c-.26-6.97 2.038-11.563 2.038-11.563z" fill="#567823"/><path d="M687.976 129.315s1.948 6.892 1.391 11.315c-.556 4.423-.996 6.413-.996 6.413s-2.02-5.855-2.231-10.847c-.211-4.992 1.836-6.88 1.836-6.88zm-2.661-3.593s1.032 4.624.647 8.381c-.385 3.758-.668 5.53-.668 5.53s-1.088-3.768-1.14-7.642c-.052-3.874 1.161-6.27 1.161-6.27zm-31.763-10.86s1.308 3.995.82 7.24c-.487 3.247-.846 4.779-.846 4.779s-1.378-3.256-1.444-6.603c-.066-3.346 1.47-5.416 1.47-5.416z" fill="#89a02c"/><path d="M642.597 99.015s1.486 5.983.932 10.845c-.554 4.861-.962 7.156-.962 7.156s-1.567-4.877-1.642-9.89c-.075-5.012 1.672-8.111 1.672-8.111z" fill="#567823"/><path d="M656.865 89.64s.757 5.181.475 9.392c-.283 4.21-.49 6.198-.49 6.198s-.799-4.224-.837-8.565c-.038-4.34.852-7.025.852-7.025z" fill="#89a02c"/><path d="M634.944 92.854s1.827 7.2 1.146 13.05c-.681 5.85-1.182 8.612-1.182 8.612s-1.926-5.869-2.018-11.9c-.092-6.032 2.054-9.762 2.054-9.762z" fill="#567823"/><path d="M662.765 94.818s2.507 6.19 1.572 11.222c-.935 5.03-1.622 7.404-1.622 7.404s-2.643-5.046-2.77-10.232c-.127-5.187 2.82-8.394 2.82-8.394z" fill="#89a02c"/><path d="M581.907 106.287s2.375 5.493 2.492 10.606c.117 5.113.022 7.58.022 7.58s-2.302-4.346-3.088-9.38c-.785-5.033.574-8.806.574-8.806z" fill="#567823"/><path d="M593.604 91.23s1.75 7.323 1.098 13.275c-.653 5.95-1.133 8.76-1.133 8.76s-1.846-5.97-1.935-12.106c-.088-6.136 1.97-9.93 1.97-9.93zm-18.215-9.723s2.507 6.19 1.572 11.22c-.935 5.031-1.622 7.405-1.622 7.405s-2.643-5.045-2.77-10.232c-.126-5.186 2.82-8.393 2.82-8.393z" fill="#89a02c"/><path d="M554.036 140.812s2.025 8.734 1.394 16.13c-.63 7.397-1.116 10.912-1.116 10.912s-2.109-7.058-2.294-14.574c-.185-7.516 2.016-12.468 2.016-12.468zm-9.722 4.04s2.024 8.734 1.394 16.13c-.63 7.397-1.116 10.913-1.116 10.913s-2.11-7.059-2.295-14.575c-.185-7.516 2.017-12.468 2.017-12.468zm29.042 12.122s2.024 8.734 1.394 16.13c-.63 7.397-1.117 10.913-1.117 10.913s-2.109-7.059-2.294-14.575c-.185-7.516 2.017-12.468 2.017-12.468zm7.954-6.44s2.025 8.734 1.395 16.13c-.63 7.398-1.117 10.913-1.117 10.913s-2.109-7.059-2.294-14.575c-.185-7.516 2.017-12.468 2.017-12.468z" fill="#567823"/><path d="M556.688 138.286s2.025 8.734 1.394 16.13c-.63 7.397-1.116 10.913-1.116 10.913s-2.11-7.059-2.295-14.575c-.184-7.516 2.017-12.468 2.017-12.468zm44.573 12.627s2.025 8.734 1.394 16.13c-.63 7.397-1.116 10.913-1.116 10.913s-2.11-7.059-2.295-14.575c-.184-7.516 2.017-12.468 2.017-12.468z" fill="#89a02c"/><path d="M923.47 122.931s6.383-3.529 11.364 1.056c4.084 3.76 5.446 9.687 5.446 9.687s-.803-5.49-4.866-9.643c-4.062-4.151-8.99-2.776-8.99-2.776zm-15.556-8.855c-.045-.006 4.217 2.49 6.25 5.179 1.758 2.325 4.196 8.75 4.196 8.75 0 .035 1.255-.223 2.26.419 2.9 1.852 5.475 9.789 5.475 9.789s-.628-2.351-1.651-4.821c-1.023-2.47-2.521-4.846-4.02-5.537-.798-.368-1.608-.282-1.796-.386 0 0-2.857-6.518-3.794-8.08-.938-1.563-5.625-5.358-5.625-5.358zm-20.224 7.143s6.742-2.321 10.804.893c4.063 3.214 6.83 8.259 6.83 8.259s1.831-.76 3.528.357c1.696 1.116 3.928 3.571 3.928 3.571s-2.59-3.616-4.33-4.24c-1.741-.626-2.768-.313-2.768-.313s-5.062-7.468-7.723-8.929c-3.308-1.816-9.422-.986-9.42-.982z" fill="#1b1714"/><path d="M889.566 120.55s3.214.535 6.25 5.848c3.036 5.312 4.866 13.66 4.866 13.66s-1.945-9.33-4.107-13.482c-2.301-4.416-5.313-6.25-5.313-6.25zm-94.006 22.084s4.157-7.523 8.578-11.143c5.077-4.157 9.421-.273 9.421-.273s5.39-3.672 8.913-4.311c4.514-.82 8.688-.492 9.19-.361.502.13 9.371 8.564 11.624 10.713 2.252 2.149 13.733 13.906 14.89 15.579 1.158 1.673 5.436 10.806 5.436 10.806.27-1.826.665-4.662-.05-6.101 0 0-3.294-5.429-4.216-6.447-.923-1.019-15.205-15.807-18.837-18.751-3.544-2.873-7.088-6.598-8.295-6.735-3.758-.427-4.977-.3-9.454.354-3.128.456-7.557 3.342-9.331 4.16-1.32-.28-3.345-2.74-8.727.058-4.124 2.144-9.143 12.452-9.143 12.452z" fill="#1b1714"/><path d="M813.56 131.218s-2.082 1.343-3.99 6.671c-1.873 5.23-2.143 6.374-2.747 8.349 0 0 .842-4.904 2.283-8.875 1.588-4.378 4.323-7.24 4.323-7.24zm48.072-50.267s.357-23.393 3.036-30.09c2.678-6.696 4.107-11.696 5.982-11.16 1.875.536 6.696 24.91 6.696 24.91s2.322.18 3.125 2.054c.804 1.875 4.464 9.822 3.572 12.59-.893 2.768-1.25 4.107-1.25 4.107s.467-1.939.677-3.622c.595-4.782-1.81-8.73-2.992-12.132-.839-2.417-3.705-2.345-3.705-2.345s-4.821-24.196-6.16-24.464c-1.34-.268-2.642 3.724-3.356 5.866-.714 2.143-3.75 10-3.66 18.483.088 8.482.29 27.299.29 27.299-1.653-1-2.5-4.33-2.255-11.496z" fill="#1b1714"/><path d="M872.753 249.298s-1.937-4.896-2.442-9.947c-.505-5.05 0-67.68-1.01-79.044-1.01-11.365-6.061-75.51-6.314-83.843-.246-20.515-1.976 15.329-2.02 18.435 0 3.283 2.273 72.226 2.273 77.53 0 5.303-3.536 65.407-4.04 68.942-.506 3.536-3.536 8.082-3.536 8.082l3.995.317 3.076-.317 1.886.541z" fill="#bcafa5"/><path d="M942.158 126.972s-3.662-5.177-8.207-6.188c-4.546-1.01-10.48 2.147-10.48 2.147s-5.304-6.692-13.006-8.334c-7.703-1.641-14.37-.906-14.837-.757-.467.148-8.191 8.317-10.212 10.464-2.02 2.146-12.327 13.653-13.337 15.295-1.01 1.641-4.777 10.013-4.777 10.013-.346-1.715-.878-3.69-.274-5.089 0 0 2.841-5.303 3.662-6.313.82-1.01 13.574-15.72 16.857-18.688 3.204-2.896 7.137-6.74 7.499-6.788 4.873-.65 13.928.392 17.818 1.737 3.275 1.133 7.165 3.883 8.554 5.398 1.39 1.515 2.17 2.15 2.17 2.15 1.232-.33 6.712-3.307 11.931-.925 4 1.825 6.64 5.878 6.64 5.878zm-97.191 10.591c.075-.009-6.123 2.791-9.483 6.237-2.907 2.982-6.937 11.218-6.937 11.218 0 .045-2.075-.286-3.736.537-4.794 2.375-9.05 12.55-9.05 12.55s1.039-3.014 2.73-6.18c1.69-3.167 4.167-6.214 6.643-7.099 1.32-.471 2.66-.362 2.97-.495 0 0 4.723-8.356 6.273-10.359 1.55-2.003 9.298-6.868 9.298-6.868z" fill="#1b1714"/><path d="M828.547 155.018s-2.082 1.343-3.99 6.671c-1.872 5.23-2.143 6.374-2.747 8.349 0 0 .843-4.904 2.283-8.874 1.589-4.378 4.323-7.24 4.323-7.24zm33.493-44.335c-2.967-5.05-4.103-7.45-7.197-11.112-3.094-3.662-14.064-15.636-18.372-17.551-4.09-1.819-6.549-2.761-12.122-1.515-5.028 1.124-13.637 11.806-13.637 11.806 1.208-.872 8.373-10.085 13.89-11.46 5.102-1.27 9.706.734 12.563 2.305 2.534 1.394 14.269 12.943 17.236 17.173 2.967 4.23 7.702 13.321 7.702 13.321.082-.886.608-1.329-.063-2.967z" fill="#1b1714"/><path d="M846.765 91.253c.045.03-4.292-2.127-7.607-.848-2.867 1.106-7.343 4.102-7.343 4.102-.02.04-1.861-.52-3.121-.643-3.637-.353-9.7 8.674-9.7 8.674s2.114-3.516 4.176-5.545c2.105-2.07 3.966-3.941 5.697-3.466.924.254 2.554.32 2.78.36 0 0 5.537-2.942 7.244-3.886 1.706-.945 6.731.137 6.731.137z" fill="#1b1714"/><path d="M839.665 90.028s-2.544 1.424-4.728 6.7c-2.184 5.277-4.215 13.524-4.215 13.524s2.221-9.216 3.828-13.336c1.71-4.383 3.4-6.234 3.4-6.234zm24.826 25.579c3.006-5.051 4.157-7.45 7.291-11.112 3.134-3.662 14.248-15.636 18.613-17.551 4.143-1.819 6.634-2.761 12.28-1.515 5.094 1.124 13.815 11.806 13.815 11.806-1.223-.873-8.482-10.085-14.071-11.46-5.17-1.27-9.833.733-12.728 2.305-2.566 1.393-14.455 12.943-17.46 17.173-3.007 4.23-7.804 13.321-7.804 13.321-.083-.886-.615-1.329.064-2.967z" fill="#1b1714"/><path d="M879.794 96.328s6.741-1.212 10.804.466c4.062 1.677 6.83 4.31 6.83 4.31s1.83-.397 3.527.186c1.696.582 3.929 1.863 3.929 1.863s-2.59-1.887-4.33-2.213c-1.742-.326-2.769-.163-2.769-.163s-5.061-3.897-7.723-4.659c-3.308-.948-9.422-.515-9.42-.513zm12.125-9.54s2.718-.943 7.935 2.253c5.218 3.196 10.84 9.812 10.84 9.812s-6.195-7.244-10.088-9.842c-4.142-2.764-7.308-2.878-7.308-2.878zm-28.01-31.895c1.423-.095 5.257 6.335 6.867 12.54 1.618 6.237 2.067 10.762 2.067 10.762s1.417 1.657 2.224 4.127c.807 2.47 1.594 6.226 1.594 6.226s-.7-4.751-1.673-7.02c-.972-2.267-1.736-3.255-1.736-3.255s-1.31-9.475-2.603-13.22c-1.578-4.569-3.589-9.514-5.931-11.038zm3.75 164.853s-.179.937-.447.312-.357-4.553 0-4.107c.357.447.67 2.188.67 2.188s.446-5.536.982-4.599c.536.938.804 7.59-.179 8.572-.982.982-1.026-2.366-1.026-2.366zm-2.477-111.873s-.316-.63-.916-2.146c-.6-1.515-.536-2.904-.157-2.084.378.821 1.073 4.23 1.073 4.23zm.126 51.518s.063-1.42.947-1.452c.884-.031 1.957 1.515 1.957 1.736 0 .221-.631 1.358-1.768.916-1.136-.442-1.136-1.2-1.136-1.2zm.349 63.375c-.635.135-.99 6.176-.99 6.176s-.134.804-1.205-2.812c-1.072-3.616-1.473 8.437-1.473 8.437s-.447-1.74-.715-3.125c-.144-.746-.884 1.17-1.549 3.115-.237 3.461-.439 6.199-.527 6.815-.505 3.535-3.535 8.08-3.535 8.08l3.996.318 3.076-.317 1.886.541 9.394-.191s-3.199-5.4-3.704-10.45c-.081-.818-.132-3.514-.172-6.885-.015-.078-.063-.263-.07-.31-.223-1.519-.447 2.007-.447 2.007s-.669-5.892-1.115-7.008c-.447-1.116-.983 5.223-.983 5.223s-.447-4.642-1.385-8.616c-.175-.745-.335-1.029-.482-.998zm-3.689-24.836l-.03.01c-.348 6.165-.67 11.655-1.038 17.754.431-.143.908-.312 1.746-.707.65-1.645.273-4.3.273-4.3s.223.357.223 1.294c0 .759.3 1.545 1.027 2.22.092-.05.155-.076.25-.13.466-.261.884-.47 1.32-.701.196-1.055.215-2.326.215-2.326s.175 1.031.471 1.96c.278-.141.562-.283.834-.415a33.32 33.32 0 00-.238-1.506c-.198-.533-.393-1.067-.584-1.602-.36-1.005-.72-2.01-1.067-3.02-.131-.383-.25-.77-.373-1.157-.483-1.28-.992-2.657-1.562-4.239-.05-.137-.092-.276-.14-.414a51.614 51.614 0 00-.632-1.355c-.223-.459-.46-.912-.695-1.366zm7.934-11.99c-.462.653-1.325 1.987-1.532 3.156-.284 1.61-1.073 4.735-1.767 4.893-.695.158-1.233-1.357-1.611-.063-.38 1.295.473 5.304 1.168 6.03.694.726.884.82.884.82s-.63 1.168.127 1.516c.758.347 1.2-.948 1.2-.948s-.19 1.641.347 2.588c.303.535.85.391 1.283.168-.02-6.192-.052-12.231-.1-18.16zm-6.896-7.524c-.11 2.331-.26 5.202-.434 8.453.113.244.25.434.432.49.82.252 1.043-1.64 1.043-1.64s.251 1.324.693 1.64c.442.316 1.01-2.809 1.01-2.809s1.232.788 2.084.188c.852-.6-.758-1.262-.758-1.262s.38.032.537-.851c.158-.884-2.873-2.116-2.873-2.116s-.22-.41-.472-1.168c-.253-.757-.6 1.42-.6 1.42s-.158-1.42-.537-2.209c-.042-.088-.084-.123-.125-.136zm-.086-18.602c.127 4.39.211 7.54.261 9.768.34.509.708 1.06.897 1.299.473.6 1.546 1.2 2.209.757.663-.442.569-1.577.095-2.619-.473-1.041-.285-2.525-.285-2.525s.38-.443.696-1.106c.315-.663-1.39-1.578-1.768-2.746-.37-1.142-2.03-2.755-2.105-2.828zm3.698-11.943c-.083.022-.157.115-.236.313-.316.789-.759-.38-.854.789-.094 1.168-.093 5.557.475 5.463.568-.095 1.01-.916 1.01-.916s-.443 2.872.283 2.904c.726.032.822-.6.822-.6s.063 1.041.79.473c.021-.017.035-.06.054-.09-.157-1.862-.361-4.365-.588-7.148-.09 0-1.221 1.263-1.141.988.174-.6-.366-2.24-.615-2.176zm-3.395-10.324c-.401-.126-.716 2.704-.855 4.07.072 2.332.136 4.457.203 6.67.525-1.898 1.317-6.479 1.317-6.479s-.064 1.263.63 2.147c.695.884.852.093.852.093s-.6-5.46-.82-6.312c-.221-.852-.569 1.482-.569 1.482s-.252-1.514-.758-1.672zm2.558-18.593a.413.413 0 00-.252.158c-.631.758-.568 4.766-.568 4.766s-.347-3.756-.6-2.557c-.252 1.2.19 7.513.664 7.418.474-.094.473-2.24.473-2.24s.253 2.81.885 2.904c.137.021.248-.44.343-1.097-.249-3.192-.476-6.038-.728-9.309a.425.425 0 00-.217-.043zm-4.745-25c-.008 0-.013.007-.021.008-.01.286-.037.78-.037.941 0 .034.015.48.015.527.394.115.911.191 1.328-.052.758-.442-.19-.947-1.011-1.358a.541.541 0 00-.274-.066zm3.281 2.993c-.168.031-.343.125-.508.323-.663.789-1.263 1.359-.221 1.39.327.01.608-.124.848-.303l-.104-1.41zm-1.592-28.2c-.28-.046-1.026 6.155-1.093 12.204.106-.26.2-.455.258-.474.276-.093.455.681.535.804.17.262.727.783.805 1.25.084.507-.293 1.47-.09 1.875.013.027.066-.018.09 0 .08.063.156.134.232.203.152-3.74.002-6.484-.038-7.816-.054-4.488-.536-8.02-.699-8.046z" fill="#1b1714"/><path d="M872.882 170.237l-1.964.893c-.06.119-.062.293-.179.357-.612.333-1.367.356-1.964.714-.655.393-1.158 1.052-1.786 1.429-.365.219-.327-.24-.536.178-.146.294.275.193.357.357.462.924.937 2.23 1.429 3.215.053.106-.084.273 0 .357.078.077 1.148.034 1.25 0 .582-.194 3.345-2.488 3.571-3.393.185-.74-.258-1.528.358-2.143m-13.929-42.678c-.203.596-.179.84-.179 1.428 0 .924-.066-.377.358.893.094.282-.134.627 0 .893.075.15.281.206.357.357.053.106-.053.25 0 .357.006.013 1.197.066 1.428 0 .162-.046.207-.282.357-.357.22-.11.518-.031.715-.179.641-.48 1.69-2.924 2.678-1.607.072.095 0 .238 0 .357 0 1.056-.43 3.068-1.607 3.572-.575.247-4.006.603-4.643.178-.11-.073-.104-.246-.178-.357-.165-.247-.403-.448-.536-.714-.132-.263-.179-3.371-.179-4.107" fill="none"/><path d="M872.882 170.237c.083.97.376 1.901.536 2.857.01.059 0 .238 0 .179V172.2m-13.929-42.677c-1.003.356-3.509 3.627-1.429.714m7.143-41.964c0 1.011.842 2.474 0 3.035-1.62 1.08-3.205-2.13-3.75-2.857-.035-.047.02.122 0 .179-.042.126-.16.225-.178.357-.087.606 0 1.343 0 1.964 0 .497-.126 1.521.535 1.786.166.066.361-.035.536 0 .499.1.932.425 1.429.536.253.056 1.606.107 1.785 0 .304-.182.85-3.257.358-3.75-.84-.84-1.396 1.921-2.032 2.924m-4.576 97.254c2.024-.06 4.136-.77 6.072-.178.692.211.137 1.452.357 2.142.202.635.617 1.18.893 1.786.128.281.068 4.328 0 4.464-.071.142-.54.478-.714.536-1.2.4-3.866-2.158-4.286-2.5-.164-.691-.875-.414-1.25-.714-.254-.203-1.962-2.136-1.964-2.143-.14-.421 0-1.184 0-1.607 0-1.464-.35-1.164.892-1.786z" fill="none"/><path style="mix-blend-mode:multiply" d="M862.391 131.57l-.297 1.107c.571 18.39 1.145 37.088 1.145 39.752 0 5.303-3.536 65.407-4.041 68.943-.505 3.535-3.535 8.08-3.535 8.08l2.716-1.199 4.356 1.2 1.886.541 9.394-.191-3.535-3.915c-2.998-2.608-4.396-1.373-6.446-6.61-.286-.73.025-86.762-.275-90.687a3444.19 3444.19 0 00-1.368-17.022zm5.473 11.41c-.338.59-1.352 2.105-1.768 2.747-.49.759-.85 3.93.088 4.6.938.67 1.118-.715 1.118-.715s.892-1.83.892-2.143c0-.015 2.546-5.273 2.552-5.294 0 0-2.637 3.71-2.736 2.488-.027-.033-.059-.06-.084-.096-.254-.37-.172-.927-.035-1.383-.006-.074.073-.38.036-.315zm-5.824-32.297c.021.744-.242 1.477-.562 1.76.057 1.879.062 3.1.126 5.169.525-1.466 1.025-3.356 1.252-3.809.379-.757-.816-3.12-.816-3.12z" opacity=".5" fill="#437e95"/><path d="M871.982 32.477c-1.253.052-2.49.576-3.593 1.041-2.524 1.064-6.499 6.675-8.647 14.572a26.751 26.751 0 00-.832 4.698c-.986 2.004-2.617 6.575-2.367 14.828.356 11.677 3.748 25.37 3.748 25.37s.739-4.653 1.674-15c.078-.865.119-1.782.142-2.716.356 2.027.839 4.714.957 5.483.297 1.914 2.266 4.804 4.416 7.183 1.09 7.02 2.456 12.55 2.456 12.55s.462-3.01 1.113-9.276c.223.147.445.278.664.384.144 1.55.319 3.079.52 4.584-.742 2.576-1.389 6.403-1.225 11.793.355 11.678 3.748 25.373 3.748 25.373s.739-4.654 1.674-15c.133-1.473.174-3.069.158-4.713a158.24 158.24 0 001.88 11.286 208.234 208.234 0 00-2.357 7.158s.362-.044.903.433c-.985 2.273-2.303 6.746-2.076 14.213.355 11.678 3.748 25.373 3.748 25.373s.738-4.654 1.673-15c.06-.657.1-1.338.127-2.037 2.08 10.92 5.19 20.073 5.19 20.073s1.034-4.763 2.443-15.168c2.649 6.54 5.348 11.285 5.348 11.285s1.075-2.969 2.642-9.278c3.713 9.121 10.028 17.09 10.028 17.09s2.475-4.875 5.611-15.71c.696-2.405.695-5.109.275-7.858 2.366 8.013 5.862 14.705 5.862 14.705s1.56-4.654 3.537-15c.049-.254.087-.515.125-.775 1.532 8.66 3.58 15.681 3.58 15.681s.336-1.877.84-5.44c1.09 9.02 3.074 17.075 3.074 17.075s.739-4.654 1.674-15c.172-1.906.201-4.01.135-6.172 1.937 8.926 4.795 16.373 4.795 16.373s1.257-5.143 2.855-16.469c1.86 10.31 5.445 19.66 5.445 19.66s1.029-4.38 2.387-13.373c1.695 6.292 3.453 10.94 3.453 10.94s1.28-5.197 2.899-16.746c1.191-8.502-1.557-20.446-3.094-26.184-.027-.443-.054-.896-.086-1.261-.4-2.885-10.27-16.719-16.608-15.893-3.043.678-6.93.511-10.228-1.02.462-2.116.832-4.504.975-7.107.265-4.837-.907-9.086-2.186-12.193-.673-3.397-4.165-8.118-5.346-10.037-1.428-2.322-1.785-1.965-4.285-2.5-7.97-2.053-3.63-3.591-14.642-3.215-.934-.234-1.973-.22-3.258-.045-.058-.554-.127-1.071-.19-1.61.022-4.303-.861-13.255-2.931-17.873-2.785-6.211-3.924-10.363-5.842-14.06-1.975-3.807-5.762-7.532-8.299-12.2-1.427-2.625-3.07-3.341-4.682-3.275zm-44.27 45.832c-1.736.061-3.47.473-4.857.987-2.33.86-7 2.355-9.218 5.806 0 0-4.04.002-6.313 4.295 0 0-2.022 1.64-5.304 7.322-1.092 1.89-2.75 15.41-2.864 16.35.086-.545.426-2.03 1.854-5.994.897-2.494 1.61-4.099 2.154-5.154-.225 1.932-.344 4.185-.264 6.828.21 6.863 1.461 14.355 2.463 19.422-2.803.483-5.571 1.5-6.572 4.44-1.607.715-3.215 9.821-3.215 9.821l-3.035 18.573 2.73-9.495c1.152 11.346 7.553 23.977 7.553 23.977s1.195-3.695 2.805-11.764c1.117 7.803 2.7 14.264 2.7 14.264s.483-3.164 1.153-9.688c3.06 9.889 10.217 19.33 10.217 19.33s2.085-4.327 4.78-13.775c2.556 9.255 5.773 16.549 5.773 16.549s1.142-4.09 2.736-12.826c.964 5.493 1.948 9.517 1.948 9.517s.609-4.016 1.41-12.302c1.463 9.11 4.195 17.302 4.195 17.302s.746-3.67 1.75-11.156c.974 10.03 3.357 19.729 3.357 19.729s.74-4.657 1.674-15.002c.338-3.74.12-8.229-.289-12.444 3.142 4.899 6.131 8.338 6.131 8.338s.385-4.843 3.67-15.19c3.283-10.345-6.002-26.277-6.002-26.277-.782-.732-1.577-1.188-1.902-1.646.175-1.692.358-3.496.556-5.69.05-.544.08-1.112.108-1.685.982 5.67 2.006 9.87 2.006 9.87s.738-4.657 1.673-15.003c.055-.613.096-1.25.123-1.898.075-.176.15-.35.223-.53 1.1 8.856 3.031 16.672 3.031 16.672s.739-4.656 1.674-15.002c.717-7.933-1.014-19.112-1.873-23.965a91.713 91.713 0 00-.135-2.285c-.568-2.713-2.328-9.035-7.576-10.039-2.525-2.525-1.894-2.02-3.662-4.04-4.298-4.788-7.787-3.419-12.5-5.43-1.389-.884-3.128-1.173-4.865-1.112zm-28.556 34.76c-.033.213-.04.318-.04.318zm119.078-7.117c.067 2.603.163 5.067.272 7.455-.023-.029-.05-.053-.072-.082-.445-.344-1.228-.747-2.178-1.166.418-1.07 1.122-3.084 1.979-6.207zm-5.21 2.601a44.594 44.594 0 001.736 2.998 42.498 42.498 0 00-1.537-.55c-.051-.822-.13-1.632-.2-2.448zm-32.1 9.744l.07.01-.092.217c.01-.074.014-.15.02-.226zm-72.649 1.297c.253 2.772.61 5.532 1.012 8.084-.582.071-1.203.136-1.855.21.247-2.186.526-4.82.843-8.294zm5.135 4.746c.27.316.544.625.822.93-.458.078-.746.158-.918.254.021-.224.038-.366.059-.596.017-.19.023-.394.037-.588zm97.152 25.233c.01 0 .014 0 .022.002l.03.142c-.016-.048-.035-.095-.051-.144z" fill="#89a02c"/><path style="mix-blend-mode:multiply" d="M859.047 51.561a27.9 27.9 0 00-.137 1.227c-.986 2.004-2.618 6.575-2.367 14.828.355 11.677 3.748 25.37 3.748 25.37s.739-4.653 1.674-15c.078-.865.119-1.782.142-2.716.356 2.027.839 4.714.957 5.483.297 1.914 2.266 4.804 4.416 7.183 1.09 7.02 2.456 12.55 2.456 12.55s.462-3.01 1.113-9.276c.223.147.445.278.664.384.144 1.55.319 3.079.52 4.584-.742 2.576-1.389 6.403-1.225 11.793.355 11.678 3.748 25.373 3.748 25.373s.739-4.654 1.674-15c.133-1.473.174-3.069.158-4.713a158.24 158.24 0 001.88 11.286 208.234 208.234 0 00-2.357 7.158s.362-.044.903.433c-.985 2.273-2.303 6.746-2.077 14.213.356 11.678 3.748 25.373 3.748 25.373s.74-4.654 1.674-15c.06-.657.1-1.338.127-2.037 2.08 10.92 5.19 20.073 5.19 20.073s1.034-4.763 2.443-15.168c2.649 6.54 5.348 11.285 5.348 11.285s1.075-2.969 2.642-9.278c3.713 9.121 10.028 17.09 10.028 17.09s2.475-4.875 5.611-15.71c.696-2.405.695-5.109.275-7.858 2.366 8.013 5.862 14.705 5.862 14.705s1.56-4.654 3.537-15c.049-.254.087-.515.125-.775 1.532 8.66 3.58 15.681 3.58 15.681s.336-1.877.84-5.44c1.09 9.02 3.074 17.075 3.074 17.075s.739-4.654 1.674-15c.172-1.906.201-4.01.135-6.172 1.937 8.926 4.795 16.373 4.795 16.373s1.257-5.143 2.855-16.469c1.86 10.31 5.445 19.66 5.445 19.66s1.029-4.38 2.387-13.373c1.695 6.292 3.453 10.94 3.453 10.94s1.28-5.197 2.899-16.746c.436-3.115.34-6.692-.027-10.256-3.155 7.713-9.028 15.207-17.633-1.438-4.354 8.074-6.89 13.31-6.89 13.31l-4.718-19.122-6.273 13.453c-.797-.558-1.642-1.178-2.508-1.805a44.371 44.371 0 00-1.299-2.8c-2.597-3.671-4.115-4.788-5.52-7.356-.185-.245-.375-.512-.564-.767.558 2.557.746 4.406.719 5.836-4.394-3.603-8.342-7.427-9.715-10.43-4.491-9.825-2.798-15.464-.57-21.5a125.312 125.312 0 015.033-6.178s-10.713-1.607-18.57-3.392c-7.857-1.786-7.322-6.608-7.322-6.608l-1.608 7.858-1.25-5.18c-1.086-4.5.836-10.074 1.383-11.53 3.672-3.627 8.974-7.933 8.974-7.933s-4.106-2.68-6.785-5.18c-2.678-2.5-4.642-16.428-4.642-13.75 0 2.679 1.965 14.285 1.965 14.285s-4.644-3.57-7.858-9.642c-3.214-6.072-2.68-10.713-2.68-10.713l-.535 8.213s-3.928-5.357-4.642-13.393a30.602 30.602 0 01-.102-3.37zm-31.512 26.764a16.14 16.14 0 00-4.68.97c-2.33.862-7 2.356-9.218 5.807 0 0-4.04.002-6.313 4.295 0 0-2.022 1.64-5.304 7.322-1.092 1.89-2.75 15.41-2.864 16.35.086-.545.426-2.03 1.854-5.994.897-2.494 1.61-4.099 2.154-5.154-.225 1.932-.344 4.185-.264 6.828.21 6.863 1.461 14.355 2.463 19.422-2.803.483-5.571 1.5-6.572 4.44-1.607.715-3.215 9.821-3.215 9.821l-3.035 18.573 2.73-9.495c1.152 11.346 7.553 23.977 7.553 23.977s1.195-3.695 2.805-11.764c1.117 7.803 2.7 14.264 2.7 14.264s.483-3.164 1.153-9.688c3.06 9.889 10.217 19.33 10.217 19.33s2.085-4.327 4.78-13.775c2.556 9.255 5.773 16.549 5.773 16.549s1.142-4.09 2.736-12.826c.964 5.493 1.948 9.517 1.948 9.517s.609-4.016 1.41-12.302c1.463 9.11 4.195 17.302 4.195 17.302s.746-3.67 1.75-11.156c.974 10.03 3.357 19.729 3.357 19.729s.74-4.657 1.674-15.002c.338-3.74.12-8.229-.289-12.444 3.142 4.899 6.131 8.338 6.131 8.338s.295-3.493 2.352-10.78c-1.063-.136-1.001-.124-2.44-.312-4.107-.535-7.857-7.32-7.857-7.32l-3.57 9.643-4.286-19.465-.715 19.107-3.214-8.215-1.608 5.358-4.82-12.32-3.572 10s-.597-1.879-2.438-4.891c-2.575-5.897-5.86-13.942-7.383-19.932-.917-3.61-.982-9.998-.941-13.7a55.784 55.784 0 014.064-.96c.49.005 1.372.018 1.698.018 2.5 0 15.357 2.678 20 4.642 4.642 1.965 11.964 8.215 11.964 8.215l.842.182c-.254-.47-.408-.737-.408-.737-.782-.732-1.577-1.188-1.902-1.646.175-1.692.358-3.496.556-5.69.05-.544.08-1.112.108-1.685.976 5.635 1.985 9.782 1.998 9.834l.012.002c.01-.042.739-4.67 1.67-14.969.055-.613.096-1.25.123-1.898.075-.176.15-.35.222-.53 1.1 8.856 3.032 16.672 3.032 16.672s.738-4.656 1.674-15.002c.63-6.982-.614-16.24-1.512-21.724-.484 1.327-1.688 4.648-2.13 6.119-.535 1.786-1.427 10.537-1.427 10.537l-.18-3.215c-.178-3.214-3.392-10.357-3.392-10.357s-2.142 4.82-2.32 6.427c-.179 1.608-1.608 10.895-1.608 10.895s-.715-.715-.715-4.107c0-3.393-2.677-9.288-2.677-9.288s-3.038 6.608-4.288 9.465c-1.25 2.857-2.142 3.93-2.142 3.93s-5.179 0-9.108-8.75c-3.928-8.75-4.107-16.965-4.107-16.965l-2.855 9.643s-2.5-6.072-1.25-11.608c1.146-5.079 3.803-12.406 8.921-17.857zm53.389 39.972l.07.01-.092.217c.01-.074.014-.15.02-.226zm-72.649 1.297c.253 2.772.61 5.532 1.012 8.084-.582.071-1.203.136-1.855.21.247-2.186.526-4.82.843-8.294zm5.135 4.746c.27.316.544.625.822.93-.458.078-.746.158-.918.254.021-.224.038-.366.059-.596.017-.19.023-.394.037-.588zm97.152 25.233c.01 0 .014 0 .022.002l.03.142c-.016-.048-.035-.095-.051-.144z" opacity=".5" fill="#437e95"/><path d="M1173.471 122.931s6.382-3.529 11.363 1.056c4.085 3.76 5.447 9.687 5.447 9.687s-.804-5.49-4.866-9.643c-4.063-4.151-8.99-2.776-8.99-2.776zm-15.556-8.855c-.046-.006 4.217 2.49 6.25 5.179 1.758 2.325 4.196 8.75 4.196 8.75 0 .035 1.255-.223 2.26.419 2.9 1.852 5.474 9.789 5.474 9.789s-.628-2.351-1.65-4.821c-1.023-2.47-2.521-4.846-4.02-5.537-.798-.368-1.609-.282-1.796-.386 0 0-2.857-6.518-3.795-8.08-.937-1.563-5.625-5.358-5.625-5.358zm-20.224 7.143s6.742-2.321 10.804.893c4.063 3.214 6.83 8.259 6.83 8.259s1.83-.76 3.527.357c1.697 1.116 3.929 3.571 3.929 3.571s-2.59-3.616-4.33-4.24c-1.742-.626-2.768-.313-2.768-.313s-5.062-7.468-7.724-8.929c-3.308-1.816-9.422-.986-9.42-.982z" fill="#1b1714"/><path d="M1139.566 120.55s3.215.535 6.25 5.848c3.036 5.312 4.867 13.66 4.867 13.66s-1.945-9.33-4.108-13.482c-2.3-4.416-5.312-6.25-5.312-6.25zm-94.006 22.084s4.157-7.523 8.578-11.143c5.077-4.157 9.422-.273 9.422-.273s5.39-3.672 8.913-4.311c4.514-.82 8.688-.492 9.19-.361.501.13 9.37 8.564 11.623 10.713 2.253 2.149 13.734 13.906 14.891 15.579 1.158 1.673 5.436 10.806 5.436 10.806.27-1.826.665-4.662-.05-6.101 0 0-3.294-5.429-4.217-6.447-.922-1.019-15.205-15.807-18.836-18.751-3.544-2.873-7.088-6.598-8.295-6.735-3.758-.427-4.978-.3-9.455.354-3.128.456-7.557 3.342-9.33 4.16-1.32-.28-3.345-2.74-8.727.058-4.124 2.144-9.143 12.452-9.143 12.452z" fill="#1b1714"/><path d="M1063.56 131.218s-2.082 1.343-3.99 6.671c-1.872 5.23-2.143 6.374-2.747 8.349 0 0 .843-4.904 2.283-8.875 1.589-4.378 4.323-7.24 4.323-7.24zm48.073-50.267s.357-23.393 3.035-30.09c2.679-6.696 4.107-11.696 5.982-11.16 1.875.536 6.697 24.91 6.697 24.91s2.321.18 3.125 2.054c.803 1.875 4.464 9.822 3.571 12.59-.893 2.768-1.25 4.107-1.25 4.107s.468-1.939.678-3.622c.595-4.782-1.81-8.73-2.992-12.132-.84-2.417-3.705-2.345-3.705-2.345s-4.821-24.196-6.16-24.464c-1.34-.268-2.642 3.724-3.356 5.866-.715 2.143-3.75 10-3.661 18.483l.29 27.299c-1.652-1-2.5-4.33-2.254-11.496z" fill="#1b1714"/><path d="M1122.753 249.298s-1.936-4.896-2.441-9.947c-.505-5.05 0-67.68-1.01-79.044-1.01-11.365-6.061-75.51-6.314-83.843-.246-20.515-1.977 15.329-2.02 18.435 0 3.283 2.273 72.226 2.273 77.53 0 5.303-3.536 65.407-4.041 68.942-.505 3.536-3.536 8.082-3.536 8.082l3.996.317 3.075-.317 1.886.541z" fill="#bcafa5"/><path d="M1192.159 126.972s-3.662-5.177-8.208-6.188c-4.545-1.01-10.48 2.147-10.48 2.147s-5.303-6.692-13.006-8.334c-7.702-1.641-14.369-.906-14.836-.757-.468.148-8.192 8.317-10.212 10.464-2.02 2.146-12.327 13.653-13.338 15.295-1.01 1.641-4.777 10.013-4.777 10.013-.345-1.715-.877-3.69-.273-5.089 0 0 2.84-5.303 3.661-6.313.821-1.01 13.574-15.72 16.857-18.688 3.205-2.896 7.138-6.74 7.5-6.788 4.873-.65 13.928.392 17.817 1.737 3.276 1.133 7.166 3.883 8.555 5.398 1.389 1.515 2.17 2.15 2.17 2.15 1.232-.33 6.711-3.307 11.931-.925 4 1.825 6.639 5.878 6.639 5.878zm-97.191 10.591c.074-.009-6.124 2.791-9.484 6.237-2.906 2.982-6.937 11.218-6.937 11.218 0 .045-2.074-.286-3.735.537-4.795 2.375-9.05 12.55-9.05 12.55s1.038-3.014 2.73-6.18c1.69-3.167 4.166-6.214 6.643-7.099 1.32-.471 2.66-.362 2.97-.495 0 0 4.722-8.356 6.272-10.359 1.55-2.003 9.299-6.868 9.299-6.868z" fill="#1b1714"/><path d="M1078.547 155.018s-2.081 1.343-3.99 6.671c-1.872 5.23-2.142 6.374-2.746 8.349 0 0 .842-4.904 2.283-8.874 1.588-4.378 4.323-7.24 4.323-7.24zm33.494-44.335c-2.967-5.05-4.104-7.45-7.197-11.112-3.094-3.662-14.065-15.636-18.372-17.551-4.09-1.819-6.549-2.761-12.122-1.515-5.029 1.124-13.637 11.806-13.637 11.806 1.207-.872 8.373-10.085 13.89-11.46 5.102-1.27 9.705.734 12.563 2.305 2.533 1.394 14.268 12.943 17.236 17.173 2.967 4.23 7.702 13.321 7.702 13.321.082-.886.608-1.329-.063-2.967z" fill="#1b1714"/><path d="M1096.766 91.253c.045.03-4.292-2.127-7.607-.848-2.867 1.106-7.343 4.102-7.343 4.102-.02.04-1.862-.52-3.122-.643-3.637-.353-9.7 8.674-9.7 8.674s2.115-3.516 4.177-5.545c2.104-2.07 3.965-3.941 5.697-3.466.923.254 2.554.32 2.78.36 0 0 5.537-2.942 7.244-3.886 1.706-.945 6.73.137 6.73.137z" fill="#1b1714"/><path d="M1089.666 90.028s-2.545 1.424-4.729 6.7c-2.184 5.277-4.214 13.524-4.214 13.524s2.221-9.216 3.828-13.336c1.71-4.383 3.4-6.234 3.4-6.234zm24.825 25.579c3.007-5.051 4.158-7.45 7.292-11.112 3.134-3.662 14.248-15.636 18.612-17.551 4.144-1.819 6.634-2.761 12.28-1.515 5.094 1.124 13.816 11.806 13.816 11.806-1.224-.873-8.483-10.085-14.072-11.46-5.168-1.27-9.832.733-12.727 2.305-2.567 1.393-14.455 12.943-17.461 17.173-3.006 4.23-7.803 13.321-7.803 13.321-.083-.886-.616-1.329.064-2.967z" fill="#1b1714"/><path d="M1129.795 96.328s6.741-1.212 10.804.466c4.062 1.677 6.83 4.31 6.83 4.31s1.83-.397 3.527.186c1.696.582 3.928 1.863 3.928 1.863s-2.589-1.887-4.33-2.213c-1.741-.326-2.768-.163-2.768-.163s-5.062-3.897-7.723-4.659c-3.308-.948-9.422-.515-9.42-.513zm12.124-9.54s2.718-.943 7.936 2.253 10.84 9.812 10.84 9.812-6.195-7.244-10.089-9.842c-4.142-2.764-7.307-2.878-7.307-2.878zm-28.01-31.895c1.424-.095 5.258 6.335 6.867 12.54 1.619 6.237 2.068 10.762 2.068 10.762s1.417 1.657 2.223 4.127c.807 2.47 1.594 6.226 1.594 6.226s-.7-4.751-1.672-7.02c-.973-2.267-1.736-3.255-1.736-3.255s-1.31-9.475-2.604-13.22c-1.577-4.569-3.588-9.514-5.93-11.038zm3.75 164.853s-.178.937-.446.312-.357-4.553 0-4.107c.357.447.67 2.188.67 2.188s.446-5.536.982-4.599c.535.938.803 7.59-.179 8.572-.982.982-1.027-2.366-1.027-2.366zm-2.477-111.873s-.315-.63-.915-2.146c-.6-1.515-.537-2.904-.158-2.084.379.821 1.073 4.23 1.073 4.23zm.127 51.518s.063-1.42.947-1.452c.884-.031 1.957 1.515 1.957 1.736 0 .221-.631 1.358-1.768.916-1.136-.442-1.136-1.2-1.136-1.2zm.349 63.375c-.636.135-.99 6.176-.99 6.176s-.134.804-1.206-2.812c-1.071-3.616-1.472 8.437-1.472 8.437s-.447-1.74-.715-3.125c-.145-.746-.885 1.17-1.549 3.115-.237 3.461-.44 6.199-.527 6.815-.505 3.535-3.536 8.08-3.536 8.08l3.997.318 3.075-.317 1.886.541 9.395-.191s-3.199-5.4-3.704-10.45c-.082-.818-.132-3.514-.172-6.885-.016-.078-.063-.263-.07-.31-.223-1.519-.448 2.007-.448 2.007s-.668-5.892-1.115-7.008c-.446-1.116-.982 5.223-.982 5.223s-.447-4.642-1.385-8.616c-.176-.745-.336-1.029-.482-.998zm-3.689-24.836l-.03.01c-.349 6.165-.67 11.655-1.039 17.754.432-.143.908-.312 1.746-.707.651-1.645.274-4.3.274-4.3s.223.357.223 1.294c0 .759.3 1.545 1.027 2.22.091-.05.155-.076.25-.13.465-.261.884-.47 1.32-.701.196-1.055.215-2.326.215-2.326s.175 1.031.47 1.96c.278-.141.563-.283.835-.415a33.32 33.32 0 00-.239-1.506c-.197-.533-.392-1.067-.584-1.602-.36-1.005-.72-2.01-1.066-3.02-.131-.383-.25-.77-.373-1.157-.483-1.28-.992-2.657-1.562-4.239-.05-.137-.092-.276-.141-.414a51.614 51.614 0 00-.631-1.355c-.224-.459-.461-.912-.695-1.366zm7.933-11.99c-.462.653-1.325 1.987-1.53 3.156-.285 1.61-1.074 4.735-1.768 4.893-.695.158-1.233-1.357-1.612-.063-.379 1.295.474 5.304 1.168 6.03.695.726.885.82.885.82s-.63 1.168.127 1.516c.757.347 1.2-.948 1.2-.948s-.19 1.641.347 2.588c.303.535.849.391 1.283.168-.02-6.192-.053-12.231-.1-18.16zm-6.895-7.524c-.111 2.331-.26 5.202-.434 8.453.113.244.25.434.432.49.82.252 1.043-1.64 1.043-1.64s.251 1.324.693 1.64c.442.316 1.01-2.809 1.01-2.809s1.231.788 2.084.188c.852-.6-.758-1.262-.758-1.262s.38.032.537-.851c.158-.884-2.873-2.116-2.873-2.116s-.22-.41-.473-1.168c-.252-.757-.6 1.42-.6 1.42s-.158-1.42-.536-2.209c-.043-.088-.084-.123-.125-.136zm-.086-18.602c.127 4.39.211 7.54.26 9.768.34.509.709 1.06.897 1.299.474.6 1.546 1.2 2.21.757.662-.442.569-1.577.095-2.619-.473-1.041-.285-2.525-.285-2.525s.38-.443.695-1.106c.316-.663-1.389-1.578-1.767-2.746-.37-1.142-2.03-2.755-2.106-2.828zm3.698-11.943c-.083.022-.158.115-.237.313-.315.789-.758-.38-.853.789-.095 1.168-.094 5.557.475 5.463.568-.095 1.01-.916 1.01-.916s-.444 2.872.283 2.904c.726.032.822-.6.822-.6s.063 1.041.789.473c.022-.017.036-.06.055-.09-.158-1.862-.362-4.365-.588-7.148-.09 0-1.222 1.263-1.142.988.174-.6-.366-2.24-.614-2.176zm-3.395-10.324c-.402-.126-.716 2.704-.855 4.07l.203 6.67c.525-1.898 1.316-6.479 1.316-6.479s-.063 1.263.631 2.147c.695.884.852.093.852.093s-.6-5.46-.82-6.312c-.222-.852-.57 1.482-.57 1.482s-.252-1.514-.757-1.672zm2.557-18.593a.413.413 0 00-.251.158c-.632.758-.569 4.766-.569 4.766s-.347-3.756-.6-2.557c-.252 1.2.191 7.513.665 7.418.473-.094.473-2.24.473-2.24s.253 2.81.884 2.904c.138.021.248-.44.344-1.097-.25-3.192-.476-6.038-.728-9.309a.425.425 0 00-.217-.043zm-4.744-25c-.01 0-.014.007-.022.008-.01.286-.037.78-.037.941 0 .034.015.48.016.527.394.115.91.191 1.328-.052.758-.442-.19-.947-1.012-1.358a.541.541 0 00-.273-.066zm3.28 2.993c-.167.031-.342.125-.508.323-.663.789-1.262 1.359-.22 1.39.326.01.608-.124.847-.303l-.103-1.41zm-1.591-28.2c-.28-.046-1.027 6.155-1.093 12.204.106-.26.2-.455.257-.474.277-.093.456.681.535.804.17.262.727.783.805 1.25.085.507-.293 1.47-.09 1.875.014.027.067-.018.09 0 .081.063.157.134.233.203.152-3.74 0-6.484-.038-7.816-.054-4.488-.537-8.02-.7-8.046z" fill="#1b1714"/><path d="M1122.883 170.237l-1.965.893c-.06.119-.061.293-.178.357-.612.333-1.367.356-1.965.714-.655.393-1.157 1.052-1.785 1.429-.365.219-.327-.24-.536.178-.147.294.275.193.357.357.462.924.937 2.23 1.429 3.215.053.106-.085.273 0 .357.077.077 1.148.034 1.25 0 .582-.194 3.345-2.488 3.571-3.393.185-.74-.258-1.528.357-2.143m-13.928-42.678c-.203.596-.179.84-.179 1.428 0 .924-.066-.377.357.893.094.282-.133.627 0 .893.076.15.282.206.357.357.054.106-.053.25 0 .357.01.013 1.198.066 1.429 0 .162-.046.206-.282.357-.357.22-.11.518-.031.714-.179.642-.48 1.69-2.924 2.679-1.607.071.095 0 .238 0 .357 0 1.056-.43 3.068-1.607 3.572-.576.247-4.007.603-4.643.178-.11-.073-.105-.246-.179-.357-.165-.247-.402-.448-.535-.714-.132-.263-.179-3.371-.179-4.107" fill="none"/><path d="M1122.883 170.237c.083.97.376 1.901.535 2.857.01.059 0 .238 0 .179V172.2m-13.928-42.677c-1.003.356-3.51 3.627-1.429.714m7.143-41.964c0 1.011.842 2.474 0 3.035-1.62 1.08-3.205-2.13-3.75-2.857-.036-.047.019.122 0 .179-.042.126-.16.225-.179.357-.086.606 0 1.343 0 1.964 0 .497-.126 1.521.536 1.786.166.066.36-.035.536 0 .499.1.932.425 1.428.536.254.056 1.606.107 1.786 0 .304-.182.85-3.257.357-3.75-.839-.84-1.396 1.921-2.031 2.924m-4.576 97.254c2.024-.06 4.135-.77 6.072-.178.692.211.137 1.452.357 2.142.201.635.617 1.18.893 1.786.127.281.068 4.328 0 4.464-.071.142-.54.478-.715.536-1.199.4-3.865-2.158-4.285-2.5-.164-.691-.876-.414-1.25-.714-.254-.203-1.962-2.136-1.965-2.143-.14-.421 0-1.184 0-1.607 0-1.464-.35-1.164.893-1.786z" fill="none"/><path style="mix-blend-mode:multiply" d="M1112.392 131.57l-.297 1.107c.57 18.39 1.145 37.088 1.145 39.752 0 5.303-3.536 65.407-4.041 68.943-.505 3.535-3.536 8.08-3.536 8.08l2.716-1.199 4.356 1.2 1.886.541 9.395-.191-3.536-3.915c-2.997-2.608-4.395-1.373-6.445-6.61-.287-.73.025-86.762-.276-90.687a3444.19 3444.19 0 00-1.367-17.022zm5.473 11.41c-.339.59-1.352 2.105-1.768 2.747-.491.759-.85 3.93.088 4.6.937.67 1.117-.715 1.117-.715s.893-1.83.893-2.143c0-.015 2.546-5.273 2.552-5.294 0 0-2.638 3.71-2.736 2.488-.028-.033-.06-.06-.084-.096-.255-.37-.173-.927-.035-1.383-.01-.074.073-.38.036-.315zm-5.824-32.297c.021.744-.242 1.477-.563 1.76.058 1.879.063 3.1.127 5.169.525-1.466 1.025-3.356 1.252-3.809.378-.757-.816-3.12-.816-3.12z" opacity=".5" fill="#437e95"/><path d="M1175.563 123.519s2.013 7.549 1.386 13.942c-.627 6.394-1.11 9.432-1.11 9.432s-2.096-6.101-2.28-12.597c-.183-6.497 2.004-10.777 2.004-10.777zm-42.355-43.254s2.838 6.898 1.954 12.74c-.884 5.842-1.565 8.618-1.565 8.618s-2.957-5.575-3.217-11.51c-.259-5.937 2.828-9.848 2.828-9.848zm-47.387 3.835s2.17 7.427 1.494 13.717c-.676 6.29-1.196 9.28-1.196 9.28s-2.26-6.003-2.458-12.395c-.198-6.391 2.16-10.603 2.16-10.603zm63.869 1.851s2.524 8.822 2.184 16.126c-.341 7.304-.7 10.763-.7 10.763s-2.54-7.163-3.067-14.644c-.526-7.481 1.583-12.245 1.583-12.245zm-4.129 2.522s2.27 6.873 1.424 12.459c-.846 5.585-1.468 8.22-1.468 8.22s-2.393-5.602-2.508-11.36c-.114-5.758 2.553-9.319 2.553-9.319z" fill="#c8ab37"/><path d="M1081.528 108.028s2.385 7.225 1.642 13.343c-.743 6.12-1.315 9.027-1.315 9.027s-2.485-5.839-2.703-12.056c-.218-6.218 2.376-10.314 2.376-10.314z" fill="#7f7f2b"/><path d="M1081.51 95.796s2.24 6.572 1.543 12.138c-.698 5.566-1.236 8.212-1.236 8.212s-2.335-5.312-2.54-10.968c-.204-5.656 2.233-9.382 2.233-9.382zm7.54-4.449s2.097 8.855 1.444 16.354c-.653 7.5-1.156 11.063-1.156 11.063s-2.185-7.156-2.377-14.776c-.19-7.62 2.089-12.641 2.089-12.641z" fill="#c8ab37"/><path d="M1061.084 93.028s1.818 6.87 1.252 12.69c-.566 5.818-1.003 8.583-1.003 8.583s-1.894-5.552-2.06-11.465c-.167-5.913 1.81-9.808 1.81-9.808zm4.237-3.394s2.557 5.205 1.93 11.02c-.625 5.814-1.144 8.689-1.144 8.689s-2.628-3.923-2.975-9.336 2.19-10.373 2.19-10.373z" fill="#7f7f2b"/><path d="M1063.633 90.438s.798 6.94.55 12.817c-.249 5.877-.44 8.67-.44 8.67s-.832-5.608-.905-11.58c-.073-5.972.795-9.907.795-9.907zm59.13-10.793s1.855 5.511 1.452 10.416-.751 7.255-.751 7.255-1.898-4.406-2.184-9.307c-.285-4.9 1.483-8.364 1.483-8.364z" fill="#7f7f2b"/><path d="M1127.515 66.69s2.23 7.567 1.8 14.255c-.431 6.689-.82 9.89-.82 9.89s-2.27-6.06-2.649-12.757c-.378-6.698 1.67-11.388 1.67-11.388z" fill="#c8ab37"/><path d="M1147.362 86.11s1.87 6.679 1.287 12.335c-.582 5.655-1.03 8.343-1.03 8.343s-1.948-5.397-2.12-11.144c-.17-5.747 1.863-9.533 1.863-9.533zm-8.931 3.837s2.022 6.13 1.393 11.322c-.63 5.192-1.116 7.66-1.116 7.66s-2.107-4.955-2.292-10.23c-.184-5.276 2.015-8.752 2.015-8.752z" fill="#7f7f2b"/><path d="M1130.101 68.965s1.819 5.208 1.253 9.618c-.567 4.41-1.003 6.506-1.003 6.506s-1.894-4.208-2.06-8.69c-.167-4.481 1.81-7.434 1.81-7.434zm36.097 29.286s1.665 5.207 1.147 9.618c-.519 4.41-.918 6.506-.918 6.506s-1.735-4.209-1.888-8.69c-.152-4.481 1.66-7.434 1.66-7.434z" fill="#c8ab37"/><path d="M1120.644 67.847s.71 6.593.178 10.997c-.532 4.405-.874 6.405-.874 6.405s-.802-5.566-.661-10.457c.141-4.89 1.357-6.945 1.357-6.945z" fill="#7f7f2b"/><path d="M1146.324 128.63s2.012 7.916 1.385 14.62c-.626 6.704-1.11 9.89-1.11 9.89s-2.095-6.397-2.28-13.21c-.183-6.812 2.005-11.3 2.005-11.3z" fill="#c8ab37"/><path d="M1154.968 130.884s1.507 6.855 1.038 12.662c-.47 5.806-.83 8.565-.83 8.565s-1.57-5.54-1.709-11.44c-.137-5.9 1.501-9.787 1.501-9.787z" fill="#7f7f2b"/><path d="M1158.927 131.733s1.002 5.143.69 9.499c-.312 4.355-.553 6.425-.553 6.425s-1.044-4.156-1.135-8.582c-.091-4.426.998-7.342.998-7.342zm-2.892-16.555s2.372 7.182 1.633 13.265c-.738 6.082-1.308 8.973-1.308 8.973s-2.472-5.804-2.69-11.985c-.215-6.18 2.365-10.253 2.365-10.253zm12.088 13.519s1.002 4.858.69 8.972c-.312 4.114-.552 6.069-.552 6.069s-1.044-3.926-1.136-8.106c-.09-4.18.998-6.935.998-6.935z" fill="#c8ab37"/><path d="M1170.308 130.44s2.225 8.1 1.618 14.96c-.608 6.86-1.094 10.12-1.094 10.12s-2.301-6.547-2.562-13.517c-.26-6.97 2.038-11.563 2.038-11.563z" fill="#7f7f2b"/><path d="M1187.926 129.31s1.948 6.891 1.391 11.314c-.556 4.423-.996 6.413-.996 6.413s-2.02-5.855-2.231-10.847c-.211-4.992 1.836-6.88 1.836-6.88zm-2.661-3.594s1.032 4.624.647 8.381c-.385 3.758-.667 5.531-.667 5.531s-1.089-3.769-1.141-7.643c-.052-3.874 1.161-6.27 1.161-6.27zm-31.763-10.859s1.308 3.994.82 7.24c-.487 3.246-.846 4.778-.846 4.778s-1.378-3.256-1.444-6.603c-.066-3.346 1.47-5.415 1.47-5.415z" fill="#c8ab37"/><path d="M1142.547 99.009s1.486 5.983.932 10.845c-.554 4.861-.962 7.156-.962 7.156s-1.567-4.877-1.642-9.89c-.075-5.012 1.672-8.111 1.672-8.111z" fill="#7f7f2b"/><path d="M1156.815 89.634s.757 5.182.475 9.392c-.283 4.211-.49 6.198-.49 6.198s-.798-4.223-.837-8.565c-.038-4.34.852-7.025.852-7.025z" fill="#c8ab37"/><path d="M1134.894 92.848s1.827 7.2 1.146 13.05c-.681 5.85-1.182 8.612-1.182 8.612s-1.926-5.869-2.018-11.9c-.092-6.032 2.054-9.762 2.054-9.762z" fill="#7f7f2b"/><path d="M1162.715 94.813s2.507 6.19 1.572 11.22c-.935 5.031-1.622 7.405-1.622 7.405s-2.643-5.046-2.77-10.232c-.127-5.186 2.82-8.393 2.82-8.393z" fill="#c8ab37"/><path d="M1081.857 106.28s2.375 5.494 2.492 10.607c.117 5.113.022 7.58.022 7.58s-2.302-4.346-3.088-9.38c-.786-5.033.574-8.806.574-8.806z" fill="#7f7f2b"/><path d="M1093.554 91.223s1.75 7.324 1.098 13.276c-.653 5.951-1.133 8.76-1.133 8.76s-1.846-5.97-1.935-12.106c-.088-6.136 1.97-9.93 1.97-9.93zm-18.215-9.723s2.507 6.191 1.572 11.222c-.935 5.03-1.622 7.405-1.622 7.405s-2.643-5.046-2.77-10.233c-.126-5.186 2.82-8.393 2.82-8.393z" fill="#c8ab37"/><path d="M1053.986 140.806s2.025 8.734 1.394 16.13c-.63 7.397-1.116 10.912-1.116 10.912s-2.109-7.058-2.294-14.574c-.185-7.516 2.017-12.468 2.017-12.468zm-9.722 4.04s2.024 8.734 1.394 16.13c-.63 7.398-1.116 10.913-1.116 10.913s-2.11-7.059-2.295-14.575c-.185-7.516 2.017-12.468 2.017-12.468zm29.042 12.122s2.024 8.734 1.394 16.13c-.63 7.397-1.117 10.913-1.117 10.913s-2.109-7.059-2.294-14.575c-.185-7.516 2.017-12.468 2.017-12.468zm7.955-6.439s2.024 8.733 1.394 16.13c-.63 7.397-1.117 10.912-1.117 10.912s-2.109-7.059-2.294-14.575c-.185-7.515 2.017-12.467 2.017-12.467z" fill="#7f7f2b"/><path d="M1056.638 138.28s2.025 8.734 1.394 16.13c-.63 7.398-1.116 10.913-1.116 10.913s-2.11-7.059-2.295-14.575c-.184-7.516 2.017-12.468 2.017-12.468zm44.573 12.627s2.025 8.734 1.394 16.13c-.63 7.397-1.116 10.913-1.116 10.913s-2.11-7.059-2.295-14.575c-.184-7.516 2.017-12.468 2.017-12.468z" fill="#c8ab37"/><g><path d="M1423.47 122.931s6.382-3.529 11.363 1.056c4.085 3.76 5.447 9.687 5.447 9.687s-.804-5.49-4.866-9.643c-4.063-4.151-8.99-2.776-8.99-2.776zm-15.556-8.855c-.045-.006 4.217 2.49 6.25 5.179 1.758 2.325 4.196 8.75 4.196 8.75 0 .035 1.255-.223 2.26.419 2.9 1.852 5.474 9.789 5.474 9.789s-.628-2.351-1.65-4.821c-1.023-2.47-2.521-4.846-4.02-5.537-.798-.368-1.609-.282-1.796-.386 0 0-2.857-6.518-3.795-8.08-.937-1.563-5.625-5.358-5.625-5.358zm-20.224 7.143s6.742-2.321 10.804.893c4.063 3.214 6.83 8.259 6.83 8.259s1.83-.76 3.527.357c1.697 1.116 3.929 3.571 3.929 3.571s-2.59-3.616-4.33-4.24c-1.742-.626-2.768-.313-2.768-.313s-5.062-7.468-7.724-8.929c-3.308-1.816-9.421-.986-9.42-.982z" fill="#1b1714"/><path d="M1389.566 120.55s3.214.535 6.25 5.848c3.035 5.312 4.866 13.66 4.866 13.66s-1.945-9.33-4.107-13.482c-2.301-4.416-5.313-6.25-5.313-6.25zm-94.007 22.084s4.158-7.523 8.578-11.143c5.078-4.157 9.422-.273 9.422-.273s5.39-3.672 8.913-4.311c4.514-.82 8.688-.492 9.19-.361.501.13 9.371 8.564 11.623 10.713 2.253 2.149 13.734 13.906 14.892 15.579 1.157 1.673 5.435 10.806 5.435 10.806.27-1.826.665-4.662-.05-6.101 0 0-3.294-5.429-4.217-6.447-.922-1.019-15.204-15.807-18.836-18.751-3.544-2.873-7.088-6.598-8.295-6.735-3.758-.427-4.977-.3-9.454.354-3.129.456-7.557 3.342-9.332 4.16-1.32-.28-3.344-2.74-8.726.058-4.124 2.144-9.143 12.452-9.143 12.452z" fill="#1b1714"/><path d="M1313.559 131.218s-2.082 1.343-3.99 6.671c-1.872 5.23-2.143 6.374-2.746 8.349 0 0 .842-4.904 2.283-8.875 1.588-4.378 4.322-7.24 4.322-7.24zm48.073-50.267s.357-23.393 3.035-30.09c2.679-6.696 4.107-11.696 5.982-11.16 1.875.536 6.697 24.91 6.697 24.91s2.321.18 3.125 2.054c.803 1.875 4.464 9.822 3.571 12.59-.893 2.768-1.25 4.107-1.25 4.107s.468-1.939.678-3.622c.595-4.782-1.81-8.73-2.992-12.132-.84-2.417-3.705-2.345-3.705-2.345s-4.821-24.196-6.16-24.464c-1.34-.268-2.642 3.724-3.356 5.866-.715 2.143-3.75 10-3.661 18.483l.29 27.299c-1.652-1-2.5-4.33-2.254-11.496z" fill="#1b1714"/><path d="M1372.752 249.298s-1.936-4.896-2.441-9.947c-.505-5.05 0-67.68-1.01-79.044-1.01-11.365-6.061-75.51-6.314-83.843-.246-20.515-1.976 15.329-2.02 18.435 0 3.283 2.273 72.226 2.273 77.53 0 5.303-3.536 65.407-4.04 68.942-.506 3.536-3.536 8.082-3.536 8.082l3.995.317 3.076-.317 1.885.541z" fill="#bcafa5"/><path d="M1442.158 126.972s-3.662-5.177-8.208-6.188c-4.545-1.01-10.48 2.147-10.48 2.147s-5.303-6.692-13.006-8.334c-7.702-1.641-14.369-.906-14.836-.757-.468.148-8.192 8.317-10.212 10.464-2.02 2.146-12.327 13.653-13.337 15.295-1.01 1.641-4.778 10.013-4.778 10.013-.345-1.715-.877-3.69-.273-5.089 0 0 2.84-5.303 3.662-6.313.82-1.01 13.573-15.72 16.856-18.688 3.205-2.896 7.138-6.74 7.5-6.788 4.873-.65 13.928.392 17.817 1.737 3.276 1.133 7.166 3.883 8.555 5.398 1.39 1.515 2.17 2.15 2.17 2.15 1.232-.33 6.711-3.307 11.931-.925 4 1.825 6.639 5.878 6.639 5.878zm-97.191 10.591c.075-.009-6.124 2.791-9.484 6.237-2.906 2.982-6.937 11.218-6.937 11.218 0 .045-2.074-.286-3.735.537-4.795 2.375-9.05 12.55-9.05 12.55s1.039-3.014 2.73-6.18c1.69-3.167 4.166-6.214 6.643-7.099 1.32-.471 2.66-.362 2.97-.495 0 0 4.723-8.356 6.272-10.359 1.55-2.003 9.299-6.868 9.299-6.868z" fill="#1b1714"/><path d="M1328.546 155.018s-2.081 1.343-3.989 6.671c-1.873 5.23-2.143 6.374-2.747 8.349 0 0 .842-4.904 2.283-8.874 1.589-4.378 4.323-7.24 4.323-7.24zm33.494-44.335c-2.967-5.05-4.104-7.45-7.197-11.112-3.094-3.662-14.065-15.636-18.372-17.551-4.09-1.819-6.549-2.761-12.122-1.515-5.028 1.124-13.637 11.806-13.637 11.806 1.207-.872 8.373-10.085 13.89-11.46 5.102-1.27 9.705.734 12.563 2.305 2.533 1.394 14.269 12.943 17.236 17.173 2.967 4.23 7.702 13.321 7.702 13.321.082-.886.608-1.329-.063-2.967z" fill="#1b1714"/><path d="M1346.765 91.253c.045.03-4.292-2.127-7.607-.848-2.867 1.106-7.343 4.102-7.343 4.102-.02.04-1.862-.52-3.121-.643-3.638-.353-9.7 8.674-9.7 8.674s2.114-3.516 4.176-5.545c2.104-2.07 3.965-3.941 5.697-3.466.923.254 2.554.32 2.78.36 0 0 5.537-2.942 7.244-3.886 1.706-.945 6.73.137 6.73.137z" fill="#1b1714"/><path d="M1339.665 90.028s-2.544 1.424-4.729 6.7c-2.184 5.277-4.214 13.524-4.214 13.524s2.221-9.216 3.828-13.336c1.71-4.383 3.4-6.234 3.4-6.234zm24.825 25.579c3.007-5.051 4.158-7.45 7.292-11.112 3.134-3.662 14.248-15.636 18.612-17.551 4.144-1.819 6.634-2.761 12.28-1.515 5.094 1.124 13.816 11.806 13.816 11.806-1.224-.873-8.483-10.085-14.071-11.46-5.17-1.27-9.833.733-12.728 2.305-2.567 1.393-14.455 12.943-17.461 17.173-3.006 4.23-7.803 13.321-7.803 13.321-.083-.886-.615-1.329.064-2.967z" fill="#1b1714"/><path d="M1379.794 96.328s6.741-1.212 10.804.466c4.062 1.677 6.83 4.31 6.83 4.31s1.83-.397 3.527.186c1.696.582 3.928 1.863 3.928 1.863s-2.589-1.887-4.33-2.213c-1.741-.326-2.768-.163-2.768-.163s-5.062-3.897-7.723-4.659c-3.308-.948-9.422-.515-9.42-.513zm12.124-9.54s2.719-.943 7.936 2.253c5.218 3.196 10.84 9.812 10.84 9.812s-6.195-7.244-10.089-9.842c-4.142-2.764-7.307-2.878-7.307-2.878zm-28.01-31.895c1.424-.095 5.258 6.335 6.868 12.54 1.618 6.237 2.067 10.762 2.067 10.762s1.417 1.657 2.224 4.127c.806 2.47 1.594 6.226 1.594 6.226s-.7-4.751-1.673-7.02c-.973-2.267-1.736-3.255-1.736-3.255s-1.31-9.475-2.603-13.22c-1.578-4.569-3.589-9.514-5.931-11.038zm3.75 164.853s-.178.937-.446.312-.357-4.553 0-4.107c.357.447.67 2.188.67 2.188s.446-5.536.982-4.599c.535.938.803 7.59-.179 8.572-.982.982-1.027-2.366-1.027-2.366zm-2.476-111.873s-.316-.63-.916-2.146c-.6-1.515-.537-2.904-.158-2.084.38.821 1.074 4.23 1.074 4.23zm.126 51.518s.063-1.42.947-1.452c.884-.031 1.957 1.515 1.957 1.736 0 .221-.631 1.358-1.768.916-1.136-.442-1.136-1.2-1.136-1.2zm.349 63.375c-.636.135-.99 6.176-.99 6.176s-.134.804-1.206-2.812c-1.071-3.616-1.472 8.437-1.472 8.437s-.447-1.74-.715-3.125c-.144-.746-.885 1.17-1.549 3.115-.237 3.461-.44 6.199-.527 6.815-.505 3.535-3.535 8.08-3.535 8.08l3.996.318 3.076-.317 1.885.541 9.395-.191s-3.199-5.4-3.704-10.45c-.082-.818-.132-3.514-.172-6.885-.016-.078-.063-.263-.07-.31-.223-1.519-.447 2.007-.447 2.007s-.67-5.892-1.116-7.008c-.446-1.116-.982 5.223-.982 5.223s-.447-4.642-1.385-8.616c-.176-.745-.336-1.029-.482-.998zm-3.689-24.836l-.03.01c-.349 6.165-.67 11.655-1.039 17.754a14.07 14.07 0 001.747-.707c.65-1.645.273-4.3.273-4.3s.223.357.223 1.294c0 .759.3 1.545 1.027 2.22.092-.05.155-.076.25-.13.465-.261.884-.47 1.32-.701.196-1.055.215-2.326.215-2.326s.175 1.031.47 1.96c.279-.141.563-.283.835-.415a33.32 33.32 0 00-.238-1.506c-.198-.533-.393-1.067-.584-1.602-.36-1.005-.72-2.01-1.067-3.02-.131-.383-.25-.77-.373-1.157-.483-1.28-.992-2.657-1.562-4.239-.05-.137-.092-.276-.141-.414a51.614 51.614 0 00-.63-1.355c-.225-.459-.462-.912-.696-1.366zm7.933-11.99c-.462.653-1.324 1.987-1.53 3.156-.285 1.61-1.074 4.735-1.768 4.893-.695.158-1.233-1.357-1.612-.063-.379 1.295.474 5.304 1.168 6.03.695.726.885.82.885.82s-.63 1.168.127 1.516c.758.347 1.2-.948 1.2-.948s-.19 1.641.347 2.588c.303.535.849.391 1.283.168-.02-6.192-.053-12.231-.1-18.16zm-6.895-7.524c-.111 2.331-.26 5.202-.434 8.453.113.244.25.434.432.49.82.252 1.043-1.64 1.043-1.64s.251 1.324.693 1.64c.442.316 1.01-2.809 1.01-2.809s1.231.788 2.084.188c.852-.6-.758-1.262-.758-1.262s.38.032.537-.851c.158-.884-2.873-2.116-2.873-2.116s-.22-.41-.473-1.168c-.252-.757-.6 1.42-.6 1.42s-.158-1.42-.536-2.209c-.043-.088-.084-.123-.125-.136zm-.086-18.602c.127 4.39.211 7.54.261 9.768.34.509.708 1.06.896 1.299.474.6 1.547 1.2 2.21.757.662-.442.569-1.577.095-2.619-.473-1.041-.285-2.525-.285-2.525s.38-.443.695-1.106c.316-.663-1.388-1.578-1.767-2.746-.37-1.142-2.03-2.755-2.106-2.828zm3.698-11.943c-.083.022-.157.115-.236.313-.316.789-.76-.38-.854.789-.095 1.168-.094 5.557.475 5.463.568-.095 1.01-.916 1.01-.916s-.443 2.872.283 2.904c.726.032.822-.6.822-.6s.063 1.041.789.473c.022-.017.036-.06.055-.09-.158-1.862-.362-4.365-.588-7.148-.09 0-1.221 1.263-1.142.988.175-.6-.365-2.24-.614-2.176zm-3.395-10.324c-.402-.126-.716 2.704-.855 4.07.072 2.332.136 4.457.203 6.67.525-1.898 1.316-6.479 1.316-6.479s-.063 1.263.631 2.147c.695.884.852.093.852.093s-.6-5.46-.82-6.312c-.222-.852-.569 1.482-.569 1.482s-.253-1.514-.758-1.672zm2.557-18.593a.413.413 0 00-.251.158c-.631.758-.568 4.766-.568 4.766s-.348-3.756-.6-2.557c-.253 1.2.19 7.513.664 7.418.474-.094.473-2.24.473-2.24s.253 2.81.884 2.904c.138.021.248-.44.344-1.097-.25-3.192-.476-6.038-.728-9.309a.425.425 0 00-.217-.043zm-4.744-25c-.01 0-.014.007-.021.008-.01.286-.038.78-.038.941 0 .034.016.48.016.527.394.115.91.191 1.328-.052.758-.442-.19-.947-1.012-1.358a.541.541 0 00-.273-.066zm3.28 2.993c-.167.031-.342.125-.508.323-.662.789-1.262 1.359-.22 1.39.327.01.608-.124.847-.303l-.103-1.41zm-1.591-28.2c-.28-.046-1.026 6.155-1.093 12.204.106-.26.2-.455.257-.474.277-.093.456.681.536.804.17.262.726.783.804 1.25.085.507-.293 1.47-.09 1.875.014.027.067-.018.09 0 .082.063.157.134.233.203.152-3.74 0-6.484-.038-7.816-.054-4.488-.537-8.02-.7-8.046z" fill="#1b1714"/><path d="M1372.882 170.237l-1.965.893c-.06.119-.061.293-.178.357-.612.333-1.367.356-1.965.714-.654.393-1.157 1.052-1.785 1.429-.365.219-.327-.24-.536.178-.147.294.275.193.357.357.462.924.937 2.23 1.429 3.215.053.106-.084.273 0 .357.077.077 1.148.034 1.25 0 .582-.194 3.345-2.488 3.571-3.393.185-.74-.258-1.528.357-2.143m-13.928-42.678c-.203.596-.179.84-.179 1.428 0 .924-.066-.377.357.893.094.282-.133.627 0 .893.076.15.282.206.357.357.054.106-.053.25 0 .357.01.013 1.198.066 1.429 0 .162-.046.207-.282.357-.357.22-.11.518-.031.714-.179.642-.48 1.691-2.924 2.679-1.607.071.095 0 .238 0 .357 0 1.056-.43 3.068-1.607 3.572-.576.247-4.007.603-4.643.178-.11-.073-.105-.246-.179-.357-.165-.247-.402-.448-.535-.714-.132-.263-.179-3.371-.179-4.107" fill="none"/><path d="M1372.882 170.237c.083.97.376 1.901.535 2.857.01.059 0 .238 0 .179V172.2m-13.928-42.677c-1.003.356-3.51 3.627-1.429.714m7.143-41.964c0 1.011.842 2.474 0 3.035-1.62 1.08-3.205-2.13-3.75-2.857-.036-.047.019.122 0 .179-.042.126-.16.225-.179.357-.086.606 0 1.343 0 1.964 0 .497-.126 1.521.536 1.786.166.066.36-.035.536 0 .499.1.932.425 1.428.536.254.056 1.607.107 1.786 0 .304-.182.85-3.257.357-3.75-.839-.84-1.396 1.921-2.03 2.924m-4.577 97.254c2.024-.06 4.135-.77 6.072-.178.692.211.137 1.452.357 2.142.202.635.617 1.18.893 1.786.127.281.068 4.328 0 4.464-.071.142-.54.478-.715.536-1.199.4-3.865-2.158-4.285-2.5-.164-.691-.876-.414-1.25-.714-.254-.203-1.962-2.136-1.965-2.143-.14-.421 0-1.184 0-1.607 0-1.464-.35-1.164.893-1.786z" fill="none"/><path style="mix-blend-mode:multiply" d="M1362.391 131.57l-.297 1.107c.571 18.39 1.145 37.088 1.145 39.752 0 5.303-3.536 65.407-4.041 68.943-.505 3.535-3.535 8.08-3.535 8.08l2.715-1.199 4.357 1.2 1.885.541 9.395-.191-3.535-3.915c-2.998-2.608-4.396-1.373-6.446-6.61-.286-.73.025-86.762-.276-90.687a3444.19 3444.19 0 00-1.367-17.022zm5.473 11.41c-.338.59-1.352 2.105-1.768 2.747-.49.759-.85 3.93.088 4.6.938.67 1.117-.715 1.117-.715s.893-1.83.893-2.143c0-.015 2.546-5.273 2.552-5.294 0 0-2.638 3.71-2.736 2.488-.028-.033-.06-.06-.084-.096-.255-.37-.173-.927-.035-1.383-.01-.074.073-.38.036-.315zm-5.824-32.297c.021.744-.242 1.477-.563 1.76.058 1.879.063 3.1.127 5.169.525-1.466 1.025-3.356 1.252-3.809.379-.757-.816-3.12-.816-3.12z" opacity=".5" fill="#437e95"/></g><g fill="#c8ab37"><path d="M1323.773 155.984s.752 1.06.465 1.918c-.286.857-.496 1.261-.496 1.261s-.794-.865-.828-1.75c-.034-.886.859-1.429.859-1.429zm-.04 7.371s.825 1.603.6 3.001c-.225 1.398-.405 2.066-.405 2.066s-.853-1.288-.95-2.695c-.097-1.406.755-2.372.755-2.372zm-6.391 1.507s.956.881.854 1.78c-.102.897-.223 1.336-.223 1.336s-.956-.68-1.174-1.54c-.217-.859.543-1.576.543-1.576z"/><path d="M1322.73 157.053s.905 1.494.753 2.922c-.152 1.427-.298 2.118-.298 2.118s-.917-1.175-1.086-2.568c-.169-1.394.63-2.472.63-2.472zm-11.905-21.989s.799 1.026.55 1.895c-.249.87-.44 1.282-.44 1.282s-.831-.83-.905-1.712c-.072-.883.795-1.465.795-1.465zm-3.824 10.638s.798 1.72.55 3.176c-.249 1.456-.44 2.148-.44 2.148s-.832-1.39-.905-2.87c-.073-1.48.795-2.454.795-2.454z"/><path d="M1310.126 135.88s.798 1.435.55 2.649c-.249 1.215-.44 1.792-.44 1.792s-.832-1.16-.905-2.393c-.073-1.234.795-2.047.795-2.047zm-1.205-6.326s-1.738.564-2.922.137c-1.183-.426-1.722-.7-1.722-.7s1.464-.638 2.768-.523c1.304.115 1.876 1.086 1.876 1.086zm-7.277 3.559s.798 1.72.55 3.175c-.249 1.457-.44 2.149-.44 2.149s-.832-1.39-.905-2.87c-.073-1.48.795-2.454.795-2.454zm29.518-6.618s.244 2.34-.373 3.553c-.616 1.211-.974 1.726-.974 1.726s-.364-2.047-.027-3.55c.336-1.502 1.374-1.729 1.374-1.729zm.206 4.08s.758 1.057.475 1.915c-.282.86-.49 1.264-.49 1.264s-.798-.861-.836-1.746c-.039-.886.851-1.433.851-1.433zm.276-23.445s.798 1.516.55 2.8c-.249 1.283-.44 1.893-.44 1.893s-.832-1.225-.905-2.529c-.073-1.304.795-2.163.795-2.163zm7.054-16.428s.798 1.718.55 3.173c-.25 1.456-.44 2.147-.44 2.147s-.832-1.388-.905-2.867c-.073-1.479.795-2.453.795-2.453z"/><path d="M1338.772 90.953s.19 1.286-.453 1.92c-.644.635-1.014.9-1.014.9s-.316-1.13.054-1.935c.371-.805 1.413-.885 1.413-.885zm-7.128 3.945s.798 1.027.55 1.896c-.249.869-.44 1.282-.44 1.282s-.832-.83-.905-1.713c-.073-.883.795-1.465.795-1.465zm-20.446-2.768s.798 1.027.55 1.896c-.25.869-.44 1.282-.44 1.282s-.832-.83-.905-1.712c-.073-.884.795-1.465.795-1.465zm3.073-3.374s1.295 1.298 1.272 2.837c-.022 1.54-.122 2.306-.122 2.306s-1.271-.96-1.642-2.37c-.371-1.408.492-2.773.492-2.773z"/><path d="M1313.698 89.541s.798 1.026.55 1.896c-.25.869-.44 1.282-.44 1.282s-.832-.83-.905-1.713c-.073-.883.795-1.465.795-1.465zm23.214-6.339s.798 1.718.55 3.173c-.25 1.456-.44 2.147-.44 2.147s-.832-1.388-.905-2.867c-.073-1.479.795-2.453.795-2.453zm36.803-3.98s.5 1.504-.161 2.365c-.662.861-1.062 1.238-1.062 1.238s-.623-1.299-.333-2.32c.29-1.02 1.556-1.283 1.556-1.283zm3.064-13.43s1.002 1.921.69 3.548c-.312 1.628-.553 2.4-.553 2.4s-1.044-1.552-1.136-3.205c-.09-1.654.999-2.743.999-2.743zm6.439 14.647s1.003 1.535.69 2.834c-.312 1.3-.552 1.917-.552 1.917s-1.044-1.24-1.136-2.56c-.091-1.32.998-2.191.998-2.191zm-3.27 16.021s.798 1.72.55 3.174c-.25 1.456-.44 2.147-.44 2.147s-.832-1.388-.905-2.867c-.073-1.479.795-2.453.795-2.453zm17.502-7.675s1.003 1.228.69 2.268c-.311 1.04-.552 1.534-.552 1.534s-1.044-.992-1.136-2.049c-.091-1.057.999-1.753.999-1.753zm-8.816.265s1.002 1.228.69 2.268c-.312 1.04-.552 1.535-.552 1.535s-1.044-.993-1.136-2.05c-.092-1.057.998-1.753.998-1.753zm-9.643-22.768s1.002 1.228.69 2.268c-.312 1.04-.552 1.535-.552 1.535s-1.044-.993-1.136-2.05c-.091-1.056.998-1.753.998-1.753zm37.054 31.072s1.002 1.228.69 2.268c-.312 1.04-.553 1.534-.553 1.534s-1.044-.992-1.135-2.05c-.092-1.056.998-1.752.998-1.752zm-45.337-30.404s.71 1.417.178 2.364c-.531.947-.874 1.377-.874 1.377s-.802-1.197-.66-2.248c.14-1.052 1.356-1.493 1.356-1.493zm25.426 60.404s1.002 1.228.69 2.268c-.312 1.04-.552 1.534-.552 1.534s-1.044-.992-1.136-2.05c-.092-1.056.998-1.752.998-1.752zm8.393 1.875s1.002 1.228.69 2.268c-.312 1.04-.553 1.534-.553 1.534s-1.044-.992-1.135-2.05c-.092-1.056.998-1.752.998-1.752zm4.464 1.607s1.002 1.228.69 2.268c-.312 1.04-.552 1.534-.552 1.534s-1.044-.992-1.136-2.049c-.091-1.057.998-1.753.998-1.753zm-.981-16.429s1.001 1.228.69 2.268c-.313 1.04-.553 1.535-.553 1.535s-1.044-.993-1.136-2.05c-.092-1.056.998-1.753.998-1.753zm10.178 13.393s1.002 1.228.69 2.268c-.312 1.04-.553 1.535-.553 1.535s-1.044-.993-1.136-2.05c-.091-1.057.999-1.753.999-1.753zm1.589 2.5s1.037 2.064.754 3.813c-.283 1.748-.51 2.579-.51 2.579s-1.071-1.668-1.193-3.445c-.12-1.776.95-2.947.95-2.947zm18.3-1.761s.656 1.443.09 2.369c-.568.926-.926 1.343-.926 1.343s-.757-1.226-.576-2.272c.181-1.045 1.412-1.44 1.412-1.44zm-13.461-5.917s1.002 1.228.69 2.268c-.312 1.04-.552 1.534-.552 1.534s-1.044-.992-1.136-2.05c-.091-1.056.998-1.752.998-1.752z"/></g></svg>