<svg xmlns="http://www.w3.org/2000/svg" width="2250" height="250" viewBox="0 0 2250 250"><path d="M597.088 251.81l49.54.127c-14.736-9.756-13.027-72.757-14.078-112.353l-19.257 3.689c-4.364 46.223-.698 87.827-16.2 108.538z" fill="#513e2d"/><path d="M632.55 139.58l-13.332 2.557c.984 79.487 15.663 85.791 17.811 87.286-4.34-24.447-3.759-62.658-4.475-89.843z" fill="#996f46"/><path d="M619.222 142.137c-1.866 28.384-7.406 89.748 27.411 109.8" fill="none" stroke="#996f46" stroke-width="1.113"/><path d="M612 174.5l-5.5-21.5-8.5-21.5-10-48-4-28.5 7.5 25.5 6 26L602 120l11.293 23.273z" fill="#513e2d"/><path d="M613.293 143.273l-2.294-30.773 1-22.5-6-38 10.5 36 1.5 33 1.223 21.137L613.5 162.5z" fill="#6c6753"/><path d="M630.5 164l10.5-17 5-45.5 9-26.5-.5-18.5-5 19.5-8 19.5-8.5 33-12 24.5z" fill="#996f46"/><path d="M619.222 142.137L626 112.5l3-14.5 7-41.5-2 22-3 32.5-4.5 68z" fill="#996f46"/><path d="M97.088 251.81l49.541.127c-14.737-9.756-13.027-72.757-14.079-112.353l-19.257 3.689c-4.363 46.223-.698 87.827-16.2 108.538z" fill="#513e2d"/><path d="M132.55 139.58l-13.332 2.557c.985 79.487 15.664 85.791 17.812 87.286-4.341-24.447-3.76-62.658-4.475-89.843z" fill="#996f46"/><path d="M119.223 142.137c-1.866 28.384-7.407 89.748 27.41 109.8" fill="none" stroke="#996f46" stroke-width="1.113"/><path d="M112 174.5l-5.5-21.5-8.5-21.5-10-48L84 55l7.5 25.5 6 26L102 120l11.293 23.273z" fill="#513e2d"/><path d="M113.293 143.273L111 112.5l1-22.5-6-38 10.5 36 1.5 33 1.223 21.137L113.5 162.5z" fill="#6c6753"/><path d="M130.5 164l10.5-17 5-45.5 9-26.5-.5-18.5-5 19.5-8 19.5-8.5 33-12 24.5z" fill="#996f46"/><path d="M119.223 142.137L126 112.5l3-14.5 7-41.5-2 22-3 32.5-4.5 68z" fill="#996f46"/><path d="M347.088 251.81l49.541.127c-14.737-9.756-13.027-72.757-14.08-112.353l-19.256 3.689c-4.363 46.223-.698 87.827-16.2 108.538z" fill="#513e2d"/><path d="M382.55 139.58l-13.332 2.557c.985 79.487 15.663 85.791 17.812 87.286-4.341-24.447-3.76-62.658-4.476-89.843z" fill="#996f46"/><path d="M369.223 142.137c-1.867 28.384-7.407 89.748 27.41 109.8" fill="none" stroke="#996f46" stroke-width="1.113"/><path d="M362 174.5l-5.5-21.5-8.5-21.5-10-48-4-28.5 7.5 25.5 6 26L352 120l11.293 23.273z" fill="#513e2d"/><path d="M363.293 143.273L361 112.5l1-22.5-6-38 10.5 36 1.5 33 1.223 21.137L363.5 162.5z" fill="#6c6753"/><path d="M380.5 164l10.5-17 5-45.5 9-26.5-.5-18.5-5 19.5-8 19.5-8.5 33-12 24.5z" fill="#996f46"/><path d="M369.223 142.137L376 112.5l3-14.5 7-41.5-2 22-3 32.5-4.5 68z" fill="#996f46"/><path d="M847.088 251.81l49.541.127c-14.737-9.756-13.027-72.757-14.08-112.353l-19.256 3.689c-4.363 46.223-.698 87.827-16.2 108.538z" fill="#513e2d"/><path d="M882.55 139.58l-13.332 2.557c.985 79.487 15.663 85.791 17.812 87.286-4.341-24.447-3.76-62.658-4.476-89.843z" fill="#996f46"/><path d="M869.223 142.137c-1.867 28.384-7.407 89.748 27.41 109.8" fill="none" stroke="#996f46" stroke-width="1.113"/><path d="M862 174.5l-5.5-21.5-8.5-21.5-10-48-4-28.5 7.5 25.5 6 26L852 120l11.293 23.273z" fill="#6c6753"/><path d="M863.293 143.273L861 112.5l1-22.5-6-38 10.5 36 1.5 33 1.223 21.137L863.5 162.5z" fill="#6c6753"/><path d="M880.5 164l10.5-17 5-45.5 9-26.5-.5-18.5-5 19.5-8 19.5-8.5 33-12 24.5z" fill="#996f46"/><path d="M869.223 142.137L876 112.5l3-14.5 7-41.5-2 22-3 32.5-4.5 68z" fill="#996f46"/><path d="M883.73 14.005c-6.193.023-13.094 2.556-16.12 3.487l-8.493-2.043-12.504 3.554c3.08 1.598 6.686 1.041 10.159 1.026a48.15 42.444 0 00-14.2 7.645l-3.133-.6-7.952 5.906 6.144.17c.121-.269.242-.537.01 0-.233.509-.126.264-.014.011l-5.724 4.616 4.104.915c-6.677 15.449-12.168 32.018-15.346 48.476l2.216 6.908-3.115 1.672 4.596.94-6.888 4.516-7.321 13.228 8.637-3.756c-.044.722-1.065.371-1.1 1.081l-6.356 8.68 6.199-1.725c.08 16.175 3.2 30.021 10.261 38.685 4.847 5.475 8.893 11.093 16.066 14.28-1.06 3.531-1.678 4.545-2.922 8.25 4.927-1.105 8.866-3.378 15.395-2.608-1.343 2.887-2.77 5.74-2.963 9.132 8.472-2.311 14.469-6.15 19.217-10.758a72.411 72.411 0 003.433-.2l2.984 6.39 3.214-7.03 5.79 3.708 2.462-5.897c8.369-2.612 16.827-6.975 25.012-13.405 5.621-11.44 9.944-21.197 8.19-44.302l5.55-2.707c-2.56-2.3-3.993-3.365-6.929-6.154l9.877-1.893-10.772-5.512c-2-14.75-5.728-32.944-11.698-55.99l9.076-1.231-10.705-4.94c-.358-1.353-.698-2.643-1.074-4.027-4.833-6.896-16.043-12.644-25.92-14.814l5.263-3.526a17.06 15.038 0 00-2.6-.158zM837.628 33.16l.013-.011h-.013l-.004.011z" fill="#5d6c53"/><path d="M883.726 14.009c-6.194.023-13.09 2.556-16.12 3.487l-8.49-2.043-12.507 3.554c3.083 1.598 6.686 1.041 10.158 1.026a48.15 42.444 0 00-14.2 7.645l-3.128-.6-7.957 5.906 6.145.17c.362.173-1.575.737-1.925 1.866 2.435-.486 6.293-1.965 8.638-2.26-2.596 1.932-6.52 4.702-8.624 6.595a304.02 267.998 0 00-7.89 20.79l2.452 25.327-7.616 1.992 15.014 3.223-14.84 3.27.045.123-3.12 1.669 4.597.938-6.883 4.521-.12.213 11.411 2.415 4.189 14.024 8.79-9.223 19.847 34.952-3.938 10.435 8.789-3.689 1.678 12.545 9.626-12.174a167.906 148.011 0 0116.411-18.431l-3.195.686-10.114 6.944-4.833-12.293 6.511 7.306 7.545-4.694 7.586-1.184 10.472 4.182-.895-8.005 12.146.96-2.162-11.003c4.484-2.28 8.35-3.531 11.197-3.622-2.045-1.799-3.544-3.002-6.127-5.452-1.485-.907-4.296-2.797-5.647-3.538l15.408 1.664.116-.023-10.772-5.512c-1.723-12.702-4.734-27.977-9.348-46.68l-2.873 6.193-11.018-7.969-.524-4.15 2.828 3.598 6.7 2.86 1.463-7.842-1.463-1.385 2.64-.197-.103-.419 9.076-1.23-10.705-4.94c-.358-1.353-.693-2.643-1.07-4.027-4.837-6.892-16.043-12.644-25.924-14.814l5.262-3.526a17.06 15.038 0 00-2.6-.158zm22.922 56.586l2.668 11.48-5.702 14.289-9.322-3.598L891.5 95.5c-4.565-4.347-7.46-7.563-11.493-10.813l11.251 3.913 2.663-6.525 8.583 8.087 5.035-8.087z" fill="#aaa672"/><path d="M1097.088 251.81l49.54.127c-14.736-9.756-13.027-72.757-14.078-112.353l-19.257 3.689c-4.364 46.223-.698 87.827-16.2 108.538z" fill="#513e2d"/><path d="M1132.55 139.58l-13.332 2.557c.984 79.487 15.663 85.791 17.811 87.286-4.34-24.447-3.759-62.658-4.475-89.843z" fill="#996f46"/><path d="M1119.222 142.137c-1.866 28.384-7.406 89.748 27.411 109.8" fill="none" stroke="#996f46" stroke-width="1.113"/><path d="M1112 174.5l-5.5-21.5-8.5-21.5-10-48-4-28.5 7.5 25.5 6 26 4.5 13.5 11.293 23.273z" fill="#6c6753"/><path d="M1113.293 143.273l-2.294-30.773 1-22.5-6-38 10.5 36 1.5 33 1.223 21.137-5.723 20.363z" fill="#6c6753"/><path d="M1130.5 164l10.5-17 5-45.5 9-26.5-.5-18.5-5 19.5-8 19.5-8.5 33-12 24.5z" fill="#996f46"/><path d="M1119.222 142.137L1126 112.5l3-14.5 7-41.5-2 22-3 32.5-4.5 68z" fill="#996f46"/><path d="M1133.73 14.009c-6.193.023-13.094 2.556-16.12 3.487l-8.493-2.043-12.504 3.554c3.079 1.598 6.686 1.041 10.159 1.026a48.15 42.444 0 00-14.2 7.645l-3.133-.6-7.952 5.906 6.144.17c.12-.269.242-.537.01 0-.233.509-.125.264-.013.011l-5.724 4.616 4.104.915c-6.677 15.449-12.168 32.018-15.346 48.476l2.216 6.908-3.115 1.672 4.596.94-6.887 4.516-7.322 13.228 8.637-3.756c-.045.722-1.065.371-1.1 1.081l-6.355 8.68 6.198-1.725c.08 16.175 3.2 30.021 10.261 38.685 4.847 5.475 8.893 11.093 16.067 14.28-1.061 3.531-1.679 4.545-2.923 8.25 4.927-1.105 8.866-3.378 15.395-2.608-1.343 2.887-2.77 5.74-2.963 9.132 8.472-2.311 14.469-6.15 19.217-10.758a72.402 72.402 0 003.433-.2l2.984 6.39 3.214-7.03 5.79 3.708 2.462-5.897c8.369-2.612 16.827-6.975 25.012-13.405 5.621-11.44 9.944-21.197 8.19-44.302l5.55-2.707c-2.56-2.3-3.993-3.365-6.929-6.154l9.877-1.893-10.772-5.512c-2-14.75-5.728-32.944-11.698-55.99l9.076-1.231-10.705-4.94c-.358-1.353-.698-2.643-1.074-4.027-4.833-6.896-16.043-12.644-25.92-14.814l5.263-3.526a17.06 15.038 0 00-2.6-.158zm-46.104 19.157l.013-.012h-.013z" fill="#a80"/><path d="M1133.726 14.009c-6.194.023-13.09 2.556-16.12 3.487l-8.49-2.043-12.508 3.554c3.084 1.598 6.686 1.041 10.16 1.026a48.15 42.444 0 00-14.2 7.645l-3.129-.6-7.957 5.906 6.144.17c.363.173-1.575.737-1.924 1.866 2.435-.486 6.292-1.965 8.637-2.26-2.595 1.932-6.52 4.702-8.623 6.595a304.02 267.998 0 00-7.89 20.79l2.452 25.327-7.617 1.992 15.015 3.223-14.84 3.27.045.123-3.12 1.669 4.597.938-6.883 4.521-.121.213 11.412 2.415 4.189 14.024 8.789-9.223 19.848 34.952-3.939 10.435 8.79-3.689 1.678 12.545 9.626-12.174a167.906 148.011 0 0116.41-18.431l-3.194.686-10.115 6.944-4.833-12.293 6.512 7.306 7.545-4.694 7.585-1.184 10.473 4.182-.896-8.005 12.146.96-2.161-11.003c4.484-2.28 8.35-3.531 11.197-3.622-2.045-1.799-3.545-3.002-6.127-5.452-1.486-.907-4.296-2.797-5.648-3.538l15.409 1.664.116-.023-10.772-5.512c-1.723-12.702-4.735-27.977-9.349-46.68l-2.873 6.193-11.018-7.969-.523-4.15 2.828 3.598 6.7 2.86 1.463-7.842-1.464-1.385 2.64-.197-.102-.419 9.076-1.23-10.705-4.94c-.358-1.353-.694-2.643-1.07-4.027-4.837-6.892-16.043-12.644-25.925-14.814l5.263-3.526a17.06 15.038 0 00-2.6-.158zm22.922 56.586l2.667 11.48-5.701 14.289-9.322-3.598-2.793 2.734c-4.564-4.347-7.46-7.563-11.492-10.813l11.25 3.913 2.664-6.525 8.583 8.087 5.035-8.087z" fill="#d9bd50"/><path d="M1347.088 251.81l49.54.127c-14.736-9.756-13.027-72.757-14.078-112.353l-19.257 3.689c-4.364 46.223-.698 87.827-16.2 108.538z" fill="#513e2d"/><path d="M1382.55 139.58l-13.332 2.557c.985 79.487 15.663 85.791 17.811 87.286-4.34-24.447-3.759-62.658-4.475-89.843z" fill="#996f46"/><path d="M1369.222 142.137c-1.866 28.384-7.406 89.748 27.411 109.8" fill="none" stroke="#996f46" stroke-width="1.113"/><path d="M1362 174.5l-5.5-21.5-8.5-21.5-10-48-4-28.5 7.5 25.5 6 26 4.5 13.5 11.293 23.273z" fill="#513e2d"/><path d="M1363.293 143.273L1361 112.5l1-22.5-6-38 10.5 36 1.5 33 1.222 21.137-5.723 20.363z" fill="#6c6753"/><path d="M1380.5 164l10.5-17 5-45.5 9-26.5-.5-18.5-5 19.5-8 19.5-8.5 33-12 24.5z" fill="#996f46"/><path d="M1369.222 142.137L1376 112.5l3-14.5 7-41.5-2 22-3 32.5-4.5 68z" fill="#996f46"/><path d="M1371.821 133.589l-5.049-14.515 8.836 10.728 9.466-3.155 8.835-3.156-5.68 6.942 8.205 1.263 8.835-6.311-12.622 15.146 9.467 15.146-5.05 10.098-5.048-17.67-5.68 12.621-9.466 6.311 4.417-17.67-11.36 8.204-1.893 4.417 2.525-18.302-7.573 3.787-6.942-5.049 8.204-5.048-6.311-10.73z" fill="#d9bd50"/><path d="M1357.937 126.647l12.622 17.04 6.626-6.627-7.257 20.51 12.622-17.986-1.263 9.782 10.73-1.262 10.097 7.573-5.05 10.098-5.048-17.67-5.68 12.621-9.466 6.311 4.417-17.67-11.36 8.204-1.893 4.417 2.525-18.302-7.573 3.787-6.942-5.049 8.204-5.048z" fill="#a80"/><path d="M1338.942 94.548l-17.04-3.786 14.2-1.894-7.574-12.622 9.467 7.258 3.471-13.569 1.578 13.253 12.306-4.733-8.204 7.573 11.675-2.209-11.044 6.627 11.99 5.995-11.043-1.262 4.102 11.044-9.151-7.888L1332 109.379z" fill="#d9bd50"/><path d="M1321.902 90.762l25.875-.316 11.99 5.995-11.043-1.262 4.102 11.044-9.151-7.888L1332 109.379l6.942-14.83z" fill="#a80"/><path d="M337.684 85.709l-5.68-5.996L338 83.5l-.631-8.835 2.84 9.466 4.102-4.102-3.471 5.364 11.044 1.262-11.36.632 3.156 5.048L338 89.18l-5.996 4.418.316-5.68-2.209-2.84z" fill="#aaa672"/><path d="M330.111 85.078l5.562 2.09 2.208-.434.631 1.026.513-2.446 1.5 1.973 3.155 5.048L338 89.18l-5.996 4.418.316-5.68z" fill="#5d6c53"/><path d="M1387.077 99.922l-3.47-12.307 5.364 7.258-.632-11.044 3.156 11.675 12.306-4.102-8.835 6.31 12.622 3.156-11.675 1.578 5.68 9.15-9.151-6.626-5.68 7.574.946-7.574-12.937 2.84 8.204-5.048-8.52-8.836z" fill="#d9bd50"/><path d="M1374.455 93.926l12.622 5.996.631 5.048 3.787-9.466 4.418 6.942 5.68 9.15-9.151-6.626-5.68 7.574.946-7.574-12.937 2.84 8.204-5.048z" fill="#a80"/><path d="M395.614 140.055c-1.262 0-17.04-17.986-17.04-17.986l14.2 10.729 4.734-8.52z" fill="#5d6c53"/><path d="M365.637 102.82l-5.364-5.995 5.364 1.894 4.734-4.102-1.894 5.995 10.098-.316zM346.738 135.918l-5.05-11.045L348 131.5l-.316-14.83 4.418 11.359 7.889-1.578-6.627 5.996 9.466 1.893-8.835 3.471-.947 9.782-2.524-9.782-4.418 8.204-1.893-6.942-10.097-6.942z" fill="#aaa672"/><path d="M334.116 132.131l12.622 3.787L348 131.5l2.524 6.311 2.84-5.364 9.466 1.893-8.835 3.471-.947 9.782-2.524-9.782-4.418 8.204-1.893-6.942z" fill="#5d6c53"/><path d="M405.81 81.364L399.5 76l12.306.631zM621.821 133.589l-5.049-14.515 8.836 10.728 9.466-3.155 8.835-3.156-5.68 6.942 8.205 1.263 8.835-6.311-12.622 15.146 9.467 15.146-5.05 10.098-5.048-17.67-5.68 12.621-9.466 6.311 4.417-17.67-11.36 8.204-1.893 4.417 2.525-18.302-7.573 3.787-6.942-5.049 8.204-5.048-6.311-10.73z" fill="#aaa672"/><path d="M607.937 126.647l12.622 17.04 6.626-6.627-7.257 20.51 12.622-17.986-1.263 9.782 10.73-1.262 10.097 7.573-5.05 10.098-5.048-17.67-5.68 12.621-9.466 6.311 4.417-17.67-11.36 8.204-1.893 4.417 2.525-18.302-7.573 3.787-6.942-5.049 8.204-5.048z" fill="#5d6c53"/><path d="M588.942 94.548l-17.04-3.786 14.2-1.894-7.573-12.622 9.466 7.258 3.471-13.569 1.578 13.253 12.306-4.733-8.204 7.573 11.675-2.209-11.044 6.627 11.99 5.995-11.043-1.262 4.102 11.044-9.151-7.888L582 109.379z" fill="#aaa672"/><path d="M571.902 90.762l25.875-.316 11.99 5.995-11.043-1.262 4.102 11.044-9.151-7.888L582 109.379l6.942-14.83z" fill="#5d6c53"/><path d="M637.077 99.922l-3.47-12.307 5.364 7.258-.632-11.044 3.156 11.675 12.306-4.102-8.835 6.31 12.622 3.156-11.675 1.578 5.68 9.15-9.151-6.626-5.68 7.574.946-7.574-12.937 2.84 8.204-5.048-8.52-8.836z" fill="#aaa672"/><path d="M624.455 93.926l12.622 5.996.631 5.048 3.787-9.466 4.418 6.942 5.68 9.15-9.151-6.626-5.68 7.574.946-7.574-12.937 2.84 8.204-5.048z" fill="#5d6c53"/></svg>