<svg xmlns="http://www.w3.org/2000/svg" width="2250" height="250" viewBox="0 0 2250 250"><path d="M996.248 201.746s3.135 7.581.434 14.337c-2.7 6.755-7.078 10.975-12.098 14.099-5.02 3.124-24.473 12.662-24.473 12.662z" fill="#333c18"/><path d="M770.447 142.65l-1.938-13.678 7.7 12.004 3.251-9.688 3.984 9.096 150.475-.858s-.836-.652 2.602-3.835c3.437-3.182 9.258-5.086 9.258-5.086s-3.434 1.738-5.196 5.627c-1.762 3.89-1.03 3.89-1.03 3.89s1.272-2.587 5.236-4.97l3.965-2.382s-2.05 1.494-2.843 3.978l-.793 2.484s27.362 1.125 17.085 6.068c-10.277 4.942-.762 15.757 10.904 17.087 11.667 1.33 13.412.882 13.412.882s.85-1.67 1.639-2.437c.789-.768 2.413-1.55 2.413-1.55s-.901 1.498-1.03 2.589l-.128 1.09s.866-1.557 1.9-2.112l1.032-.554s-.36 1.264-.299 2.43c.062 1.166-.082.996-.082.996s3.222 1.45 4.267 2.22c1.046.77 1.642 2.458 1.642 2.458s.218-.922 1.128-1.862a6.153 6.153 0 012.027-1.357s-.924 1.557-1.28 3.4c-.356 1.844-1.15 5.961-7.357 10.17-6.208 4.209-46.948 12.576-46.164 18.11.784 5.535 34.005 1.753 38.345 2.413 4.34.66 6.74.933 6.74.933l2.09-1.686-.641 1.79 3.808-2.059-1.122 2.751 2.395-.859s-1.54 5.248-1.54 8.182c0 2.935-2.004 11.705-6.733 15.046-4.728 3.34-18.313 18.447-35.019 22.259-16.706 3.812-135.96 6.79-136.407 3.806-.447-2.985-4.324-7.41-4.324-7.41l5.054 2.507-.922-3.914 2.807 2.556s6.82-5.182 2.856-7.824c-3.965-2.643-52.947-.78-58.882-1.86-5.936-1.082-11.344-3.824-11.344-3.824h4.891l-4.808-4.088 6.706-1.717s8.915-8.334 10.19-16.872c1.275-8.538-7.906-38.066-8.86-46.037-.954-7.971 4.691-16.714 4.691-16.714l-.953-6.925z" fill="#414c1f"/><path d="M946.831 198.422s-.137-5.63 12.741-8.611c12.878-2.982 29.273-7.677 35.134-9.447 5.862-1.77 3.745-7.685 4.455-10.058.711-2.373 1.867-5.126 1.867-5.126s-1.812.558-3.755 3.202l-4.213 5.735.649-4.34s-1.828 2.086-2.784 3.646c-.956 1.56-2.204 2.385-2.204 2.385l-1.746-4.524s-.007.264-.752 2.342c-.745 2.078-1.874 3.28-5.637 3.561-3.763.281-17.51 3.51-21.854 4.67-4.344 1.162-9.084 4.297-9.084 4.297l-.758-3.04s-1.71 4.11-1.71 7.287v3.32l-2.387-6.482s-.143 4.576.265 7.829c.41 3.253 1.773 3.353 1.773 3.353zM960.95 143.312s.046-.823 1.297-2.668c1.25-1.846 3.48-4.203 3.48-4.203s-.909 1.684-1.73 4.205l-.82 2.522 2.612-3.735s-.941 4.09-1.159 5.07l-.217.98s-5.137 3.018-5.926 4.823c-.788 1.805.51 4.933.51 4.933s-2.55-2.426-2.55-5.197.826-6.495.826-6.495l2.175 3.589.66-4.39zM795.151 158.868l-2.184 4.151-1.555-3.257-29.986.045c.017.383.035.766.08 1.147.954 7.97 10.135 37.499 8.86 46.037-1.275 8.538-10.19 16.87-10.19 16.87l-1.76.451c31.759-.239 116.779-1.736 127.377-11.162 13.034-11.593 17.595-12.478 17.595-12.478s-5.734-.065-9.577 2.37l-3.843 2.435 4.027-6.185s-1.478.025-3.42 1.895-1.436 3.096-4.236 1.33c-2.8-1.765-3.77-7.17 5.936-9.537 9.706-2.366 39.482-2.44 41.769-4.726 2.287-2.288.858-12.967.858-12.967l-2.697 2.77-.684-3.642s-1.362 1.062-5.115.69c-3.753-.371-141.917.979-141.36-3.635.558-4.613 10.105-6.385 10.105-6.385z" fill="#333c18"/><path d="M746.248 201.746s3.135 7.581.434 14.337c-2.7 6.755-7.078 10.975-12.098 14.099-5.02 3.124-24.473 12.662-24.473 12.662z" fill="#324212"/><path d="M518.51 128.973l1.937 13.677-5.203-5.336.955 6.924s-5.645 8.744-4.691 16.715c.954 7.971 10.134 37.5 8.86 46.037-1.276 8.538-10.192 16.871-10.192 16.871l-6.705 1.717 4.808 4.09h-4.89s5.408 2.74 11.343 3.822c5.936 1.082 54.917-.783 58.881 1.86 3.965 2.642-2.855 7.824-2.855 7.824l-2.807-2.555.922 3.914-5.055-2.506s3.878 4.424 4.325 7.409c.25 1.676 37.996 1.47 73.992.293-16.867-2.088-29.4-7.925-9.51-9.979 25.027-2.584 85.948-10.89 77.16-5.848-3.83 2.198-.143 5.165 5.233 7.815 11.758-5.978 20.86-15.738 24.552-18.346 4.73-3.34 6.733-12.112 6.733-15.047 0-2.934 1.539-8.181 1.539-8.181l-2.395.859 1.121-2.75-3.806 2.057.64-1.79-2.09 1.686s-2.4-.271-6.74-.932c-4.34-.66-37.561 3.12-38.345-2.414-.784-5.534 39.956-13.9 46.164-18.109 6.207-4.209 7-8.327 7.357-10.17.356-1.843 1.28-3.4 1.28-3.4s-1.116.417-2.026 1.357c-.91.94-1.129 1.861-1.129 1.861s-.597-1.686-1.643-2.457c-1.038-.765-4.205-2.193-4.244-2.21.038-.007.107-.132.06-1.006-.06-1.167.298-2.43.298-2.43l-1.032.555c-1.032.554-1.9 2.11-1.9 2.11l.129-1.089c.129-1.09 1.03-2.59 1.03-2.59s-1.624.783-2.413 1.551c-.789.768-1.638 2.438-1.638 2.438s-1.746.447-13.413-.883c-11.666-1.33-21.18-12.146-10.904-17.088 10.277-4.943-17.086-6.067-17.086-6.067l.793-2.484c.793-2.484 2.844-3.978 2.844-3.978l-3.965 2.382c-3.964 2.383-5.236 4.97-5.236 4.97s-.733 0 1.029-3.89c1.762-3.888 5.197-5.627 5.197-5.627s-5.82 1.904-9.258 5.086c-3.437 3.183-2.603 3.834-2.603 3.834l-16.744.096c-3.378 5.497-4.044 10.454 2.7 12.082 17.613 4.252-33.65 8.906-33.65 8.906l-3.175-2.861-5.106 5.252v-8.53l-3.798 8.14s-3.492 6.402-55.48-1.958c-40.062-6.441-11.363-13.425 12.282-20.539l-47.504.272-3.982-9.098-3.252 9.69-7.7-12.004z" fill="#345618"/><path d="M696.831 198.422s-.137-5.63 12.741-8.611c12.878-2.982 29.273-7.677 35.134-9.447 5.862-1.77 3.745-7.685 4.455-10.058.711-2.373 1.867-5.126 1.867-5.126s-1.812.558-3.755 3.202l-4.213 5.735.649-4.34s-1.828 2.086-2.784 3.646c-.956 1.56-2.204 2.385-2.204 2.385l-1.746-4.524s-.007.264-.752 2.342c-.745 2.078-1.874 3.28-5.637 3.561-3.763.281-17.51 3.51-21.854 4.67-4.344 1.162-9.084 4.297-9.084 4.297l-.758-3.04s-1.71 4.11-1.71 7.287v3.32l-2.387-6.482s-.143 4.576.265 7.829c.41 3.253 1.773 3.353 1.773 3.353zM710.95 143.312s.046-.823 1.297-2.668c1.25-1.846 3.48-4.203 3.48-4.203s-.909 1.684-1.73 4.205l-.82 2.522 2.612-3.735s-.941 4.09-1.159 5.07l-.217.98s-5.137 3.018-5.926 4.823c-.788 1.805.51 4.933.51 4.933s-2.55-2.426-2.55-5.197.826-6.495.826-6.495l2.175 3.589.66-4.39z" fill="#324212"/><path d="M268.311 197.493V187.21l2.673 5.158 2.75-7.27s2.655 4.24 5.983 4.01c3.328-.232 37.95 1.935 28.93-2.926-9.019-4.861-3.05-8.626 8.248-10.82 11.298-2.194 97.688-.826 97.688-.826l7.029-3.643-2.973 4.42 4.467-2.038s-.357 2.649-3.69 6.532c-3.332 3.884-16.508 6.052-15.912 9.874.597 3.823 19.498 5.062 19.498 5.062l3.475-3.475s.913 4.946-1.813 8.221c-2.726 3.275-81.31 11.93-99.314 11.93-18.003 0-14.684-5.617-23.25-6.813-8.565-1.197-39.776-2.827-39.776-2.827l-3.139-2.532s3.858 2.087 6.659 1.196c2.8-.89 2.467-2.95 2.467-2.95z" fill="#345618"/><path d="M1246.247 201.746s3.136 7.581.435 14.337c-2.7 6.755-7.078 10.975-12.098 14.099-5.02 3.124-24.473 12.662-24.473 12.662z" fill="#3b1d03"/><path d="M1020.447 142.65l-1.938-13.678 7.7 12.004 3.251-9.688 3.984 9.096 150.475-.858s-.836-.652 2.602-3.835c3.437-3.182 9.258-5.086 9.258-5.086s-3.434 1.738-5.196 5.627c-1.762 3.89-1.03 3.89-1.03 3.89s1.272-2.587 5.236-4.97l3.965-2.382s-2.05 1.494-2.843 3.978l-.793 2.484s27.362 1.125 17.085 6.068c-10.277 4.942-.762 15.757 10.904 17.087 11.667 1.33 13.412.882 13.412.882s.85-1.67 1.639-2.437c.789-.768 2.413-1.55 2.413-1.55s-.901 1.498-1.03 2.589l-.128 1.09s.866-1.557 1.9-2.112l1.032-.554s-.36 1.264-.299 2.43c.062 1.166-.082.996-.082.996s3.222 1.45 4.267 2.22c1.046.77 1.642 2.458 1.642 2.458s.218-.922 1.128-1.862c.91-.94 2.027-1.357 2.027-1.357s-.924 1.557-1.28 3.4c-.356 1.844-1.15 5.961-7.357 10.17-6.208 4.209-46.948 12.576-46.164 18.11.784 5.535 34.005 1.753 38.345 2.413 4.34.66 6.74.933 6.74.933l2.09-1.686-.641 1.79 3.808-2.059-1.122 2.751 2.395-.859s-1.54 5.248-1.54 8.182c0 2.935-2.004 11.705-6.733 15.046-4.728 3.34-18.313 18.447-35.02 22.259-16.705 3.812-135.96 6.79-136.406 3.806-.447-2.985-4.324-7.41-4.324-7.41l5.054 2.507-.922-3.914 2.807 2.556s6.82-5.182 2.856-7.824c-3.965-2.643-52.947-.78-58.882-1.86-5.936-1.082-11.344-3.824-11.344-3.824h4.891l-4.809-4.088 6.707-1.717s8.915-8.334 10.19-16.872c1.275-8.538-7.906-38.066-8.86-46.037-.954-7.971 4.691-16.714 4.691-16.714l-.953-6.925z" fill="#592c05"/><path d="M1196.831 198.422s-.137-5.63 12.741-8.611c12.878-2.982 29.273-7.677 35.135-9.447 5.861-1.77 3.744-7.685 4.454-10.058.711-2.373 1.867-5.126 1.867-5.126s-1.812.558-3.755 3.202c-1.944 2.645-4.212 5.735-4.212 5.735l.648-4.34s-1.828 2.086-2.784 3.646c-.956 1.56-2.204 2.385-2.204 2.385l-1.746-4.524s-.01.264-.752 2.342c-.745 2.078-1.874 3.28-5.637 3.561-3.763.281-17.51 3.51-21.854 4.67-4.344 1.162-9.084 4.297-9.084 4.297l-.758-3.04s-1.71 4.11-1.71 7.287v3.32l-2.387-6.482s-.143 4.576.265 7.829c.41 3.253 1.773 3.353 1.773 3.353zM1210.95 143.312s.046-.823 1.297-2.668c1.25-1.846 3.48-4.203 3.48-4.203s-.908 1.684-1.73 4.205l-.82 2.522 2.612-3.735s-.941 4.09-1.159 5.07l-.217.98s-5.137 3.018-5.926 4.823c-.788 1.805.51 4.933.51 4.933s-2.55-2.426-2.55-5.197.826-6.495.826-6.495l2.175 3.589.66-4.39z" fill="#3b1d03"/><path d="M1045.151 158.868l-2.184 4.151-1.555-3.257-29.986.045c.017.383.034.766.08 1.147.954 7.97 10.135 37.499 8.86 46.037-1.275 8.538-10.19 16.87-10.19 16.87l-1.76.451c31.759-.239 116.78-1.736 127.377-11.162 13.034-11.593 17.595-12.478 17.595-12.478s-5.734-.065-9.577 2.37l-3.843 2.435 4.027-6.185s-1.478.025-3.42 1.895-1.436 3.096-4.236 1.33c-2.8-1.765-3.77-7.17 5.936-9.537 9.706-2.366 39.482-2.44 41.769-4.726 2.287-2.288.858-12.967.858-12.967l-2.696 2.77-.684-3.642s-1.363 1.062-5.116.69c-3.752-.371-141.916.979-141.36-3.635.558-4.613 10.106-6.385 10.106-6.385z" fill="#4e1a0d"/></svg>