<svg xmlns="http://www.w3.org/2000/svg" viewBox="0 0 595.312 66.146" height="250" width="2250"><path d="M201.885 65.886c-.658-.657.53-5.7 5.753-8.054 6.971-3.143 11.295-2.312 10.355-2.876-3.698-2.22 2.301-6.328 8.712-7.89 6.41-1.562 15.368-2.137 23.34 2.055 6.696 3.52-3.123 7.15-3.123 7.15s13.972-3.78 15.698 2.301c1.753 6.18-5.178 6.74-8.63 7.068-3.451.329-52.105.246-52.105.246z" fill="#2f4620"/><path d="M234.364 49.428c-5.69-.12-12.987-.34-15.403 3.919-1.232 2.383 1.973 2.466 1.973 2.466s-7.643.246-13.067 3.205c-3.609 1.968-5.056 4.035-5.85 6.823 5.332.008 33.271.04 45.023-.123 4.339-3.52 2.957-5.236 2.823-7.44-.164-2.712-13.067-.247-13.067-.247s7.725-.903 5.67-5.095c-.898-1.834-4.417-3.093-8.102-3.508z" fill="#102310"/><path d="M279.98 59.3c3.559 8.92 16.377 3.523 16.377 3.523s19.78-3.543-5.514-13.399C273.689 42.74 279.98 59.3 279.98 59.3z" fill="#fc0"/><path d="M309.905 58.862c-22.974 1.469 1.475-6.287 1.475-6.287s-.67-1.436 1.635-3.578c2.305-2.141 5.725-1.566 5.725-1.566s2.67.885-.669 5.95c-2.235 3.39-5.204 1.187-5.204 1.187s7.683 8.448.669 10.73c-6.62 2.153-3.631-6.436-3.631-6.436z" fill="#fc0"/><path d="M292.035 66.034c1.27-5.946-3.875-15.969-3.875-15.969s6.29 13.951 12.094 11.493c5.68-2.406 15.568-9.756 15.568-9.756s-14.098 10.825-11.158 11.293c2.94.467 9.755-2.74 9.755-2.74s-10.176 4.825-3.541 5.345c6.815.535-18.843.334-18.843.334z" fill="#484537"/><path d="M291.653 57.847s2.03 6.8.382 8.187c.691.005 8.785.064 14.464.012.083-1.661 1.087-2.715 1.087-2.715s-8.506 2.844-6.075.416c2.43-2.428 3.937-4.603 3.937-4.603s-4.96 5.105-9.091 3.679c-2.516-2.312-3.598-3.36-4.704-4.976z" fill="#483737"/><path d="M280.514 48.945c-3.363 2.868-.525 10.36-.525 10.36 2.336 5.855 8.649 5.536 12.72 4.63 4.45-5.203 1.57-8.215-.571-11.036-2.292-3.018-4.468-2.899-11.624-3.954zm31.826 1.395c-.149-.003-.32.006-.48.008-.872 1.371-.48 2.227-.48 2.227s-24.449 7.755-1.475 6.286c0 0-.455 1.323-.614 2.799 3.444.525 5.494.201 5.784-1.26.729-3.667-6.844-5.826-6.844-5.826s3.25-.166 4.61-.564c2.007-.587 2.615-1.183 2.832-2.059.24-.965.095-1.558-3.333-1.612z" fill="#d4aa00"/><path d="M352.25 55.45c1.122 5.956 5.16 2.353 5.16 2.353s6.23-2.365-1.737-8.946c-5.404-4.463-3.422 6.594-3.422 6.594zm24.719 2.706c-14.6 1.046.937-4.479.937-4.479s-.425-1.023 1.04-2.548c1.464-1.526 3.637-1.116 3.637-1.116s1.697.63-.425 4.239c-1.42 2.415-3.307.845-3.307.845s4.882 6.018.425 7.644c-4.207 1.534-2.307-4.585-2.307-4.585z" fill="#d38d5f"/><path d="M357.792 65.99c1.27-5.946-3.876-15.969-3.876-15.969s6.29 13.951 12.094 11.493c5.68-2.406 15.569-9.756 15.569-9.756S367.48 62.583 370.42 63.051c2.94.467 9.756-2.74 9.756-2.74s-10.177 4.825-3.542 5.345c6.816.535-18.842.335-18.842.335z" fill="#484537"/><path d="M357.41 57.803s2.03 6.8.382 8.188c.69.005 8.784.063 14.464.011.082-1.661 1.087-2.715 1.087-2.715s-8.506 2.844-6.076.416c2.43-2.428 3.938-4.602 3.938-4.602s-4.96 5.104-9.092 3.678c-2.516-2.312-3.597-3.36-4.703-4.976z" fill="#483737"/><path d="M352.419 48.537c-1.06 1.915-.166 6.917-.166 6.917.736 3.91 2.725 3.697 4.007 3.091.283-2.287.495-5.484-.18-7.368-.721-2.016-1.407-1.936-3.661-2.64zm26.097 3.548c-.095-.002-.203.004-.305.006-.554.977-.305 1.586-.305 1.586s-15.536 5.525-.937 4.478c0 0-.29.943-.39 1.994 2.188.375 3.49.144 3.675-.896.463-2.613-4.35-4.151-4.35-4.151s2.066-.119 2.93-.402c1.276-.419 1.662-.843 1.8-1.467.153-.688.06-1.11-2.118-1.148z" fill="#c87137"/><path d="M28.527 66.052c1.27-5.947-3.876-15.97-3.876-15.97s6.29 13.952 12.094 11.493c5.68-2.405 15.569-9.755 15.569-9.755S38.215 62.644 41.155 63.112c2.94.468 9.755-2.74 9.755-2.74s-10.176 4.826-3.54 5.346c6.815.535-18.843.334-18.843.334z" fill="#484537"/><path d="M28.144 57.865s2.03 6.8.383 8.187c.69.005 8.784.063 14.463.012.083-1.661 1.088-2.716 1.088-2.716s-8.506 2.845-6.076.416c2.43-2.428 3.937-4.602 3.937-4.602s-4.959 5.104-9.091 3.678c-2.516-2.311-3.597-3.36-4.704-4.975z" fill="#483737"/><path d="M88.688 55.542c1.12 5.955 5.159 2.352 5.159 2.352s6.23-2.366-1.737-8.947c-5.404-4.463-3.422 6.595-3.422 6.595zm24.718 2.704c-14.6 1.047.937-4.478.937-4.478s-.425-1.023 1.04-2.549c1.464-1.525 3.637-1.116 3.637-1.116s1.697.63-.425 4.24c-1.42 2.414-3.307.845-3.307.845s4.882 6.018.425 7.643c-4.207 1.534-2.307-4.585-2.307-4.585z" fill="#cf0"/><path d="M94.23 66.081c1.269-5.947-3.876-15.97-3.876-15.97s6.29 13.952 12.094 11.493c5.68-2.405 15.568-9.755 15.568-9.755s-14.098 10.824-11.158 11.292c2.94.468 9.755-2.74 9.755-2.74s-10.177 4.826-3.541 5.346c6.815.535-18.843.334-18.843.334z" fill="#484537"/><path d="M93.847 57.894s2.03 6.8.382 8.187c.691.005 8.784.063 14.464.012.082-1.661 1.087-2.716 1.087-2.716s-8.506 2.845-6.076.416c2.43-2.428 3.938-4.602 3.938-4.602s-4.96 5.104-9.092 3.678c-2.516-2.311-3.597-3.36-4.703-4.975z" fill="#483737"/><path d="M88.856 48.627c-1.06 1.916-.165 6.918-.165 6.918.735 3.91 2.724 3.697 4.007 3.091.282-2.287.494-5.485-.18-7.369-.722-2.015-1.408-1.935-3.662-2.64zm26.097 3.548c-.094-.002-.203.004-.305.006-.554.977-.305 1.587-.305 1.587s-15.536 5.525-.937 4.478c0 0-.29.942-.39 1.994 2.188.374 3.49.143 3.675-.897.463-2.613-4.349-4.15-4.349-4.15s2.065-.12 2.93-.403c1.275-.418 1.661-.842 1.8-1.466.152-.688.06-1.11-2.119-1.149z" fill="#aad400"/><path d="M147.747 59.206c3.558 8.92 16.376 3.523 16.376 3.523s19.78-3.542-5.514-13.399c-17.153-6.684-10.862 9.876-10.862 9.876z" fill="#5aa02c"/><path d="M177.672 58.768c-22.974 1.469 1.474-6.287 1.474-6.287s-.669-1.436 1.636-3.577c2.305-2.142 5.725-1.567 5.725-1.567s2.67.885-.67 5.95c-2.234 3.39-5.204 1.187-5.204 1.187s7.683 8.449.67 10.73c-6.621 2.153-3.631-6.436-3.631-6.436z" fill="#5aa02c"/><path d="M159.802 65.94c1.27-5.946-3.875-15.968-3.875-15.968s6.29 13.95 12.094 11.492c5.679-2.405 15.568-9.755 15.568-9.755S169.491 62.533 172.43 63c2.94.468 9.756-2.74 9.756-2.74s-10.177 4.825-3.542 5.346c6.816.534-18.842.334-18.842.334z" fill="#484537"/><path d="M159.42 57.753s2.03 6.8.382 8.188c.69.005 8.784.063 14.464.012.082-1.662 1.087-2.716 1.087-2.716s-8.506 2.845-6.076.416c2.43-2.428 3.938-4.602 3.938-4.602s-4.96 5.104-9.092 3.678c-2.516-2.311-3.597-3.36-4.703-4.976z" fill="#483737"/><path d="M148.28 48.851c-3.363 2.869-.524 10.36-.524 10.36 2.336 5.856 8.648 5.537 12.72 4.63 4.45-5.203 1.57-8.215-.572-11.036-2.291-3.018-4.468-2.898-11.623-3.954zm31.827 1.395c-.15-.003-.32.006-.48.008-.873 1.371-.48 2.227-.48 2.227s-24.449 7.755-1.475 6.286c0 0-.455 1.323-.615 2.799 3.444.525 5.494.202 5.784-1.259.73-3.667-6.843-5.826-6.843-5.826s3.25-.167 4.61-.564c2.007-.588 2.614-1.183 2.832-2.06.24-.965.094-1.557-3.333-1.612z" fill="#447821"/><path d="M154.053 61.35c-.396-.71-.203-.99.264-1.02.467-.03 1.015.31.76.587-.253.279-.68.546-.68.546s1.33-.535 1.178.083c-.152.618-.132 1-.578.793-.447-.206-.7-.68-.7-.68s.436 1.226-.234 1.134c-.592-.082-.853-.278-.833-.474.02-.196.762-.732.762-.732s-.995.423-1.107.113c-.112-.31.224-1.092.569-.896.345.196.599.546.599.546zm5.683-2.824c-.319-.568-.163-.79.213-.815.376-.025.818.247.614.47-.205.222-.548.436-.548.436s1.071-.428.948.066c-.122.494-.106.798-.466.634-.36-.165-.564-.544-.564-.544s.351.98-.188.906c-.477-.065-.687-.222-.671-.379.016-.156.613-.584.613-.584s-.801.337-.891.09c-.09-.248.18-.873.458-.716.278.156.482.436.482.436zm-9.326-3.496c-.328-.597-.168-.83.22-.857.387-.026.842.26.632.493-.211.234-.565.459-.565.459s1.104-.45.977.069c-.126.519-.11.839-.48.666-.37-.173-.581-.571-.581-.571s.362 1.03-.194.951c-.491-.068-.708-.233-.69-.398.016-.164.631-.614.631-.614s-.826.355-.918.096c-.094-.261.185-.917.471-.753.287.164.498.458.498.458z" fill="#dee3db"/><path d="M165.298 54.896c.364-.71.187-.99-.242-1.02-.43-.031-.933.31-.7.587.234.279.625.546.625.546s-1.221-.535-1.081.083c.14.618.12 1 .531.793.41-.206.643-.68.643-.68s-.4 1.226.215 1.134c.544-.082.783-.279.764-.474-.018-.196-.699-.732-.699-.732s.914.423 1.016.113c.104-.31-.205-1.092-.522-.896-.317.196-.55.546-.55.546zm-4.237-3.733c.465-.53.239-.737-.31-.76-.548-.023-1.192.23-.894.438.298.207.799.407.799.407s-1.562-.4-1.384.061c.18.461.156.745.68.592.525-.154.823-.507.823-.507s-.513.914.274.845c.696-.061 1.002-.208.978-.354-.024-.146-.894-.545-.894-.545s1.169.315 1.3.084c.132-.231-.263-.814-.668-.668a2.45 2.45 0 00-.704.407z" fill="#e3f4d7"/><path d="M178.295 59.592c-.396-.71-.203-.989.264-1.02.467-.03 1.015.31.761.588-.254.278-.68.546-.68.546s1.33-.536 1.177.082c-.152.618-.132 1-.578.794-.447-.206-.7-.68-.7-.68s.436 1.226-.234 1.133c-.592-.082-.853-.278-.832-.474.02-.196.76-.732.76-.732s-.994.423-1.106.114c-.112-.311.224-1.093.569-.897.345.196.599.546.599.546zm-7.028-2.825c-.28-.425-.143-.591.188-.61.33-.018.719.185.539.352-.18.166-.482.326-.482.326s.942-.32.834.05c-.107.37-.093.598-.41.474a1.144 1.144 0 01-.496-.407s.31.734-.165.679c-.42-.05-.605-.167-.59-.284.014-.117.54-.438.54-.438s-.706.253-.785.068c-.08-.186.158-.653.403-.536.245.117.424.326.424.326zm3.407-2.692c-.28-.384-.144-.534.187-.55.33-.017.72.166.54.316-.18.15-.482.295-.482.295s.942-.29.834.044c-.108.334-.094.54-.41.428a1.116 1.116 0 01-.496-.367s.309.662-.166.612c-.42-.045-.604-.15-.59-.256.015-.106.54-.395.54-.395s-.705.228-.784.061c-.08-.167.158-.589.403-.483.244.106.424.294.424.294z" fill="#dee3db"/><path d="M186.663 49.439c.363-.711.186-.99-.243-1.02-.429-.031-.932.309-.699.587.233.278.625.546.625.546s-1.222-.535-1.082.083c.14.618.121 1 .532.793.41-.206.643-.68.643-.68s-.4 1.226.214 1.134c.544-.082.784-.279.765-.474-.019-.196-.7-.732-.7-.732s.914.423 1.017.113c.103-.31-.205-1.092-.522-.896-.317.196-.55.546-.55.546zm-2.796 12.225c.21-.53.108-.738-.14-.76-.248-.024-.54.23-.404.437.134.208.361.408.361.408s-.707-.4-.626.06c.081.462.07.746.308.593.237-.154.372-.508.372-.508s-.232.915.124.846c.315-.062.453-.208.442-.354-.01-.146-.404-.545-.404-.545s.528.315.588.084c.06-.232-.119-.814-.302-.668a1.465 1.465 0 00-.319.407z" fill="#e3f4d7"/><ellipse cx="235.393" cy="50.039" rx="1.351" ry="1.229" fill="#160d5c"/><ellipse cx="242.229" cy="48.246" rx=".852" ry=".775" fill="#160d5c"/><ellipse cx="254.471" cy="56.269" rx=".852" ry=".775" fill="#160d5c"/><ellipse cx="249.74" cy="57.761" rx=".852" ry=".775" fill="#160d5c"/><ellipse cx="239.352" cy="59.905" rx="1.351" ry="1.229" fill="#0b0734"/><ellipse cx="229.575" cy="54.893" rx="1.351" ry="1.229" fill="#0b0734"/><ellipse cx="225.178" cy="52.096" rx=".915" ry=".832" fill="#0b0734"/><ellipse cx="214.101" cy="59.431" rx="1.351" ry="1.229" fill="#0b0734"/><path d="M554.344 50.94s3.008 6.748 5.316 8.796c2.308 2.047 2.987 2.581 4.79 2.581 1.802 0 6.168-2.705 6.168-2.705s9.801-7.143 10.44-7.62c.637-.478-.24-1.508-1.451-.774s-11.89 6.148-14.438 6.225c-2.547.078-7.062-4.005-7.666-4.574-.605-.57-1.207-1.732-1.986-2.031-.778-.299-1.173.102-1.173.102z" fill="#f1f0f4"/><path d="M555.358 51.92c-.091-.2-.464-.432-.704-.596-.213-.145-.305-.354-.305-.354s3.013 6.743 5.32 8.791c2.309 2.048 2.987 2.581 4.79 2.581s6.168-2.705 6.168-2.705 9.801-7.143 10.44-7.62c.442-.332.154-.929-.469-1.018 1.396.478-7.15 6.436-15.364 10.041-4.758-.795-6.879-3.504-9.876-9.12zm14.465 10.956s-.189.361 1.11.361c1.3 0 3.89-.762 4.981-1.145 1.092-.383 4.056-1.52 4.106-1.731.049-.21-.362-.678-1.063-.584-.7.094-6.204 1.83-6.773 1.83-.57 0-1.57-.268-1.57-.268s-.479.627-.653 1.01c-.173.382-.138.527-.138.527z" fill="#bfbdcc"/><path d="M579.21 59.793a1.337 1.337 0 00-.249.01c-.356.048-1.954.52-3.516.973-.149.177-.272.337-.302.426-.1.3.327.433.898.433.473 0 2.83-.876 3.945-1.419-.097-.185-.369-.4-.776-.423zm-91.012-8.853s3.008 6.748 5.316 8.796c2.308 2.047 2.987 2.581 4.79 2.581s6.168-2.705 6.168-2.705 9.801-7.143 10.44-7.62c.637-.478.106-.892-1.105-.158-1.21.734-8.045 7.198-15.34 8.269-2.522.37-6.404-3.517-7.784-5.767-1.124-1.832-1.23-2.805-1.852-3.307-.648-.524-.633-.09-.633-.09z" fill="#f1f0f4"/><path d="M489.005 51.988c-.09-.2-.257-.5-.497-.664-.212-.145-.305-.354-.305-.354s3.013 6.743 5.32 8.791c2.309 2.048 2.987 2.581 4.79 2.581s6.168-2.705 6.168-2.705 9.951-7.143 10.59-7.62c.442-.332.616-.466-.007-.555.274.366-8.085 6.617-16.298 10.222-4.758-.795-6.763-4.08-9.76-9.696zm14.672 10.888s-.189.361 1.11.361c1.3 0 3.89-.762 4.981-1.145 1.092-.383 4.056-1.52 4.106-1.731.05-.21-1.913.89-4.285 1.552-1.252.35-2.34.69-4.209.916-1.337.161-1.272-.962-1.272-.962s-.119.1-.292.482c-.174.382-.14.527-.14.527z" fill="#bfbdcc"/><path d="M421.72 50.506s4.666 10.782 9.734 11.565c3.224.498 17.397-10.053 17.397-10.053s-14.76 10.132-16.709 9.849c-5.474-.795-9.802-10.29-10.421-11.361zm17.068 12.674c1.747-.024 6.016-1.39 8.71-2.672.322-.153-.244-.014-.523.12-.657.183-5.916 3.04-8.611 2.435-.742-.167-.844-.129-.844-.129.65.278.723.268 1.268.245z" fill="#f1f0f4"/></svg>