<svg xmlns="http://www.w3.org/2000/svg" width="2250" height="250" viewBox="0 0 2250 250"><path d="M903.724 76.728c-32.216-123.872-74.674-6.497-71.397 3.99-3.73-4.25-3.206-4.507-2.765-10.047-14.748 8.658-21.271 30.291-4.107 43.445-5.202-1.099-7.848-4.116-13.216-9.233-9.783 26.807 8.978 69.369 61.257 65.19 30.966-2.091 74.9-9.079 63.68-60.262-2.886.373-4.532-.614-10.037 2.63.879-17.542-1.766-35.19-15.342-51.257-3.479 8.07-3.708 11.175-8.073 15.541z" fill="#bcd35f"/><path d="M839.355 53.821c-5.184 12.274-7.964 23.912-7.028 26.896-3.733-4.249-3.206-4.509-2.765-10.046-14.748 8.658-21.271 30.291-4.107 43.445-5.202-1.099-7.848-4.119-13.22-9.233-9.779 26.807 8.982 69.369 61.261 65.19 3.514-.236 7.198-.543 10.948-.965-2.55-6.9-2.613-13.722 4.175-28.173-14.682-.626-14.477-13.813-16.85-29.369-7.628-3.35-7.6-6.068-10.902-9.673 6.971 1.92 10.157-.018 10.157-.018-8.148-.05-14.233-.712-19.078-11.038 8.61 2.452 10.64 3.079 15.705.272-1.56-.057-24.764-1.566-28.296-37.288zm28.296 37.288c.092.011.152.009.152.009l-.152-.007z" fill="#929a53"/><path d="M103.27 243.682L76.182 247l25.103 1.655-21.05 1.419c32.616 1.11 36.106.197 64.66-.311-13.393-15.964-14.48-46.884-12.552-71.862 7.268-10.844 14.536-12.076 21.804-17.687-6.95 2.22-13.402 8.164-21.144 4.42 17.016-49.09 9.836-25.182-9.253-2.21-6.11-19.302-13.97-18.88-21.8-18.794 8.602.366 18.936 13.219 12.551 22.662-4.57 4.402-13.346 1.988-25.11-1.105 8.052 3.525 15.61 1.684 24.45 13.822.342 24.263 1.871 40.64-10.57 64.673z" fill="#6c6753"/><path d="M139.233 140.779c-.476.277-6.54 10.882-15.48 21.645-6.116-19.302-13.977-18.88-21.807-18.794 8.052.33 18.94 13.219 12.555 22.662-4.57 4.402-13.346 1.988-25.11-1.102 8.052 3.522 15.61 1.681 24.45 13.819.342 24.263 1.871 40.64-10.574 64.673l-27.088 3.315 25.11 1.66-21.053 1.417c13.22.566 25.24.672 34.61.531l9.568-35.665 2.006-27.065c1.95-11.342.371-10.412 8.822-22.407-2.648-3.386 1.434-14.945 2.896-19.176z" fill="#5f554b"/><path d="M114.544 26.142s-3.398 90.002 2.164 112.562l5.41 21.94s18.374-20.906 26.91-40.754c8.537-19.848 15.733-47.14 15.733-47.14s-8.166 50.442-22.3 73c-14.133 22.557-20.163 28.258-20.163 28.258s-2.89 6.303-11.37-15.298c-8.478-21.602 3.616-132.568 3.616-132.568z" fill="#5f554b"/><path d="M115.238 158.34S104 151.567 99.241 145.556c-4.759-6.012-9.053-16.063-10.213-27.97-1.16-11.906-2.008-45.86-2.008-45.86s1.626 42.17 7.159 53.74c5.533 11.57 21.184 22.758 21.184 22.758z" fill="#5f554b"/><path d="M116.866 183.844s1.257-2.402-9.7-8.358c-10.959-5.956-20.105-10.005-25.809-15.62-5.703-5.614-9.737-25.33-9.737-25.33s5.218 15.872 10.44 21.318c5.224 5.446.205.392.205.392s-1.104-7.388-1.104-13.19 3.744-17.74 3.744-17.74-4.966 24.259 1.955 32.355c6.921 8.097 30.84 12.836 30.84 12.836zM90.009 123.73s-4.609-1.934-7.438-11.824c-2.83-9.89-2.83-24.296-2.83-24.296s3.265 26.135 10.64 32.771c7.376 6.637-.372 3.35-.372 3.35z" fill="#5f554b"/><path d="M146.995 133.69s12.512-4.153 16.064-9.971C166.61 117.9 175.924 91.2 175.924 91.2s-13.45 29.52-17.746 32.446c-4.296 2.926-9.737 4.84-9.737 4.84zM113.06 124.7s1.895-13.43 7.12-21.767c5.224-8.336 13.691-23.745 15.804-34.63 2.114-10.886 2.114-30.096 2.114-30.096s-3.495 29.277-6.741 35.335L128.11 79.6s-3.06-13.645-3.06-19.511V46.433s-4.305 19.352-1.358 34.58c2.947 15.23-10.383 14.627-12.05 35.086-1.668 20.458 1.418 8.601 1.418 8.601zM134.249 173.45s19.084-9.619 21.473-13.917c3.918-7.05 6.255-21.746 6.238-21.688 0 0-2.765 15.595-8.386 19.57l-5.43 3.84 1.756-10.05s-2.36 7.521-4.995 11.121c-3.374 4.608-9.675 7.29-9.675 7.29zM853.27 243.682L826.182 247l25.103 1.655-21.05 1.419c32.616 1.11 36.106.197 64.66-.311-13.393-15.964-14.48-46.884-12.552-71.862 7.268-10.844 14.536-12.076 21.804-17.687-6.95 2.22-13.402 8.164-21.144 4.42 17.016-49.09 9.836-25.182-9.253-2.21-6.11-19.302-13.97-18.88-21.8-18.794 8.602.366 18.936 13.219 12.551 22.662-4.57 4.402-13.346 1.988-25.11-1.105 8.052 3.525 15.61 1.684 24.45 13.822.342 24.263 1.871 40.64-10.57 64.673z" fill="#6c6753"/><path d="M889.233 140.779c-.477.277-6.54 10.882-15.48 21.645-6.116-19.302-13.977-18.88-21.807-18.794 8.052.33 18.94 13.219 12.555 22.662-4.57 4.402-13.346 1.988-25.11-1.102 8.052 3.522 15.61 1.681 24.45 13.819.342 24.263 1.871 40.64-10.574 64.673l-27.088 3.315 25.11 1.66-21.053 1.417c13.22.566 25.24.672 34.61.531l9.568-35.665 2.006-27.065c1.95-11.342.371-10.412 8.822-22.407-2.648-3.386 1.434-14.945 2.896-19.176z" fill="#5f554b"/><path d="M353.27 243.682L326.182 247l25.103 1.655-21.05 1.419c32.616 1.11 36.106.197 64.66-.311-13.393-15.964-14.48-46.884-12.552-71.862 7.268-10.844 14.536-12.076 21.804-17.687-6.95 2.22-13.402 8.164-21.144 4.42 17.016-49.09 9.836-25.182-9.253-2.21-6.11-19.302-13.971-18.88-21.8-18.794 8.602.366 18.936 13.219 12.55 22.662-4.57 4.402-13.345 1.988-25.11-1.105 8.053 3.525 15.61 1.684 24.45 13.822.343 24.263 1.872 40.64-10.57 64.673z" fill="#6c6753"/><path d="M389.233 140.779c-.477.277-6.54 10.882-15.48 21.645-6.116-19.302-13.978-18.88-21.807-18.794 8.052.33 18.94 13.219 12.555 22.662-4.57 4.402-13.346 1.988-25.11-1.102 8.052 3.522 15.61 1.681 24.45 13.819.342 24.263 1.871 40.64-10.575 64.673l-27.087 3.315 25.11 1.66-21.053 1.417c13.22.566 25.24.672 34.61.531l9.568-35.665 2.006-27.065c1.95-11.342.37-10.412 8.822-22.407-2.649-3.386 1.434-14.945 2.896-19.176z" fill="#5f554b"/><path d="M364.544 26.142s-3.398 90.002 2.164 112.562l5.41 21.94s18.374-20.906 26.91-40.754c8.537-19.848 15.733-47.14 15.733-47.14s-8.166 50.442-22.3 73c-14.133 22.557-20.163 28.258-20.163 28.258s-2.89 6.303-11.37-15.298c-8.478-21.602 3.616-132.568 3.616-132.568z" fill="#5f554b"/><path d="M365.238 158.34s-11.239-6.772-15.997-12.783c-4.76-6.012-9.053-16.063-10.214-27.97-1.16-11.906-2.007-45.86-2.007-45.86s1.626 42.17 7.159 53.74c5.532 11.57 21.184 22.758 21.184 22.758z" fill="#5f554b"/><path d="M366.866 183.844s1.257-2.402-9.701-8.358-20.105-10.005-25.808-15.62c-5.703-5.614-9.737-25.33-9.737-25.33s5.217 15.872 10.44 21.318c5.224 5.446.204.392.204.392s-1.103-7.388-1.103-13.19 3.744-17.74 3.744-17.74-4.967 24.259 1.955 32.355c6.921 8.097 30.84 12.836 30.84 12.836zM340.008 123.73s-4.608-1.934-7.437-11.824c-2.83-9.89-2.83-24.296-2.83-24.296s3.264 26.135 10.64 32.771c7.375 6.637-.373 3.35-.373 3.35z" fill="#5f554b"/><path d="M396.994 133.69s12.513-4.153 16.065-9.971C416.61 117.9 425.924 91.2 425.924 91.2s-13.45 29.52-17.746 32.446c-4.297 2.926-9.737 4.84-9.737 4.84zM363.06 124.7s1.895-13.43 7.12-21.767c5.224-8.336 13.69-23.745 15.804-34.63 2.114-10.886 2.114-30.096 2.114-30.096s-3.495 29.277-6.742 35.335L378.11 79.6s-3.059-13.645-3.059-19.511V46.433s-4.306 19.352-1.358 34.58c2.947 15.23-10.383 14.627-12.05 35.086-1.668 20.458 1.418 8.601 1.418 8.601zM384.248 173.45s19.085-9.619 21.474-13.917c3.917-7.05 6.255-21.746 6.238-21.688 0 0-2.766 15.595-8.387 19.57l-5.43 3.84 1.756-10.05s-2.359 7.521-4.994 11.121c-3.374 4.608-9.675 7.29-9.675 7.29z" fill="#6c6753"/><path d="M360.815 70.97s-1.367.823-8.208-4.967c-6.84-5.79-8.808-16.776-8.808-16.776s7.414 2.142 11.282 6.183c3.868 4.042 5.734 15.56 5.734 15.56zM363.096 56.105s-4.075-5.196-6.183-14.523c-2.108-9.327 4.162-26.634 4.162-26.634s3.889 6.264 4.486 14.205c.598 7.94-2.465 26.952-2.465 26.952zM333.697 112.185s-.503-5.559-6.312-11.54c-5.809-5.982-9.847-8.978-9.847-8.978s.459 13.495 5.927 19.882c5.468 6.386 11.529 6.446 11.529 6.446zM348.73 124.306s3.076-4.657 2.27-12.956c-.806-8.3-2.092-13.16-2.092-13.16s-8.063 10.83-7.776 19.233c.286 8.403 4.985 12.232 4.985 12.232zM399.81 122.447s-1.592-.102-3.914-8.759c-2.322-8.656 2.32-18.804 2.32-18.804s4.872 5.984 5.748 11.51c.876 5.524-4.154 16.053-4.154 16.053zM400.252 164.277s-.604-1.477 6.168-7.348c6.772-5.87 17.928-6.128 17.928-6.128s-3.254 6.997-7.841 10.199-16.255 3.277-16.255 3.277z" fill="#b6db5a"/><path d="M614.544 26.142s-3.398 90.002 2.164 112.562l5.41 21.94s18.374-20.906 26.91-40.754c8.537-19.848 15.733-47.14 15.733-47.14s-8.166 50.442-22.3 73c-14.133 22.557-20.163 28.258-20.163 28.258s-2.89 6.303-11.37-15.298c-8.478-21.602 3.616-132.568 3.616-132.568z" fill="#5f554b"/><path d="M615.238 158.34s-11.239-6.772-15.997-12.783c-4.76-6.012-9.053-16.063-10.214-27.97-1.16-11.906-2.007-45.86-2.007-45.86s1.626 42.17 7.159 53.74c5.532 11.57 21.184 22.758 21.184 22.758z" fill="#5f554b"/><path d="M590.008 123.73s-4.608-1.934-7.437-11.824c-2.83-9.89-2.83-24.296-2.83-24.296s3.264 26.135 10.64 32.771c7.375 6.637-.373 3.35-.373 3.35z" fill="#5f554b"/><path d="M646.994 133.69s12.513-4.153 16.065-9.971C666.61 117.9 675.924 91.2 675.924 91.2s-13.45 29.52-17.746 32.446c-4.297 2.926-9.737 4.84-9.737 4.84z" fill="#6c6753"/><path d="M619.145 20.365c-2.65.07-5.24.943-7.743 2.428-3.546 5.931-6.503 14.506-5.336 25.996 2.55 25.087 5.213 30.928 5.213 30.928s-4.834-6.68-13.795-17.252c-2.238-2.642-5.187-5.423-8.351-8.108-5.039 12.073-7.724 23.42-6.805 26.36-3.73-4.249-3.207-4.505-2.766-10.045-14.748 8.657-21.27 30.291-4.107 43.445-5.202-1.099-7.849-4.117-13.217-9.234-9.782 26.807 8.979 69.37 61.258 65.191 30.966-2.092 74.9-9.08 63.68-60.263-2.886.372-4.531-.614-10.037 2.63.865-17.26-1.692-34.623-14.707-50.482-4.685 12.263-8.956 26.626-9.688 33.088-1.219 10.755-13.672 20.523-13.672 20.523l6.1-8.97c6.1-8.972 4.5-17.176 4.5-17.176s-2.133 1.164-8.75 7.832c-4.773 4.81-6.124 6.79-6.516 7.531.503-1.122 8.335-18.728 12-36.443.815-3.936.946-8.61.653-13.52-9.207-25.626-18.902-34.693-27.914-34.459zm44.7 82.826s6.228 15.158.061 24.844c-6.166 9.686-13.95 17.385-13.95 17.385s-1.797-2.077.216-16.34 13.674-25.889 13.674-25.889zm-79.214 19.836c5.843-.018 18.711 1.864 28.164 17.227 12.604 20.483 7.846 19.988 7.846 19.988s-6.403 4.101-15.51 1.983c-9.107-2.12-23.754-13.848-23.754-13.848h7.352c7.352 0 15.853.9 15.853.9s-4.616-1.974-14.478-11.023c-9.863-9.05-8.588-15.004-8.588-15.004s1.167-.216 3.115-.223z" fill="#bcd35f"/><path d="M634.248 173.45s19.085-9.619 21.474-13.917c3.917-7.05 6.255-21.746 6.238-21.688 0 0-2.766 15.595-8.387 19.57l-5.43 3.84 1.756-10.05s-2.359 7.521-4.994 11.121c-3.374 4.608-9.675 7.29-9.675 7.29z" fill="#6c6753"/><path d="M589.355 53.82c-5.184 12.274-7.963 23.913-7.027 26.897-3.733-4.249-3.207-4.508-2.765-10.045-14.749 8.657-21.272 30.291-4.108 43.445-5.202-1.099-7.847-4.12-13.219-9.234-9.779 26.807 8.98 69.37 61.26 65.191 3.514-.236 7.197-.544 10.947-.967-2.55-6.899-2.612-13.72 4.176-28.171-14.681-.627-14.476-13.814-16.85-29.37-7.628-3.35-7.6-6.069-10.902-9.673 6.972 1.92 10.156-.018 10.156-.018-8.147-.05-14.232-.713-19.078-11.04 8.61 2.453 10.641 3.081 15.705.274-1.56-.056-24.763-1.567-28.295-37.289zm28.295 37.29v.001l.153.006s-.06.004-.153-.008zm-33.02 31.915c5.844-.018 18.714 1.864 28.167 17.227 12.604 20.483 7.844 19.99 7.844 19.99s-6.401 4.1-15.508 1.98c-9.107-2.118-23.756-13.847-23.756-13.847h7.353c7.353 0 15.852.902 15.852.902s-4.614-1.976-14.477-11.025c-9.862-9.05-8.59-15.002-8.59-15.002s1.168-.218 3.116-.225z" fill="#929a53"/><path d="M603.27 243.682L576.182 247l25.103 1.655-21.05 1.419c32.616 1.11 36.106.197 64.66-.311-13.393-15.964-14.48-46.884-12.552-71.862 7.268-10.844 14.536-12.076 21.804-17.687-6.95 2.22-13.402 8.164-21.144 4.42 17.016-49.09 9.836-25.182-9.253-2.21-6.11-19.302-13.971-18.88-21.8-18.794 8.602.366 18.936 13.219 12.55 22.662-4.57 4.402-13.345 1.988-25.11-1.105 8.053 3.525 15.61 1.684 24.45 13.822.343 24.263 1.872 40.64-10.57 64.673z" fill="#6c6753"/><path d="M639.233 140.779c-.477.277-6.54 10.882-15.48 21.645-6.116-19.302-13.978-18.88-21.807-18.794 8.052.33 18.94 13.219 12.555 22.662-4.57 4.402-13.346 1.988-25.11-1.102 8.052 3.522 15.61 1.681 24.45 13.819.342 24.263 1.871 40.64-10.575 64.673l-27.087 3.315 25.11 1.66-21.053 1.417c13.22.566 25.24.672 34.61.531l9.568-35.665 2.006-27.065c1.95-11.342.37-10.412 8.822-22.407-2.649-3.386 1.434-14.945 2.896-19.176zM1114.545 26.142s-3.399 90.002 2.164 112.562l5.41 21.94s18.374-20.906 26.91-40.754c8.536-19.848 15.732-47.14 15.732-47.14s-8.165 50.442-22.299 73c-14.133 22.557-20.164 28.258-20.164 28.258s-2.89 6.303-11.37-15.298c-8.478-21.602 3.617-132.568 3.617-132.568z" fill="#5f554b"/><path d="M1115.238 158.34s-11.238-6.772-15.997-12.783c-4.759-6.012-9.053-16.063-10.213-27.97-1.16-11.906-2.008-45.86-2.008-45.86s1.627 42.17 7.16 53.74c5.532 11.57 21.184 22.758 21.184 22.758z" fill="#5f554b"/><path d="M1090.009 123.73s-4.608-1.934-7.438-11.824-2.83-24.296-2.83-24.296 3.265 26.135 10.64 32.771c7.376 6.637-.372 3.35-.372 3.35z" fill="#5f554b"/><path d="M1146.995 133.69s12.512-4.153 16.064-9.971c3.552-5.818 12.866-32.518 12.866-32.518s-13.45 29.52-17.747 32.446c-4.296 2.926-9.737 4.84-9.737 4.84z" fill="#6c6753"/><path d="M1119.145 20.365c-2.65.07-5.24.943-7.742 2.428-3.547 5.931-6.504 14.506-5.336 25.996 2.55 25.087 5.213 30.928 5.213 30.928s-4.835-6.68-13.795-17.252c-2.24-2.642-5.188-5.423-8.352-8.108-5.038 12.073-7.723 23.42-6.805 26.36-3.729-4.249-3.207-4.505-2.765-10.045-14.748 8.657-21.271 30.291-4.107 43.445-5.203-1.099-7.85-4.117-13.217-9.234-9.783 26.807 8.978 69.37 61.258 65.191 30.965-2.092 74.9-9.08 63.68-60.263-2.886.372-4.532-.614-10.038 2.63.865-17.26-1.691-34.623-14.707-50.482-4.685 12.263-8.955 26.626-9.688 33.088-1.218 10.755-13.671 20.523-13.671 20.523l6.1-8.97c6.098-8.972 4.5-17.176 4.5-17.176s-2.134 1.164-8.75 7.832c-4.774 4.81-6.125 6.79-6.516 7.531.503-1.122 8.334-18.728 12-36.443.814-3.936.945-8.61.652-13.52-9.206-25.626-18.902-34.693-27.914-34.459zm44.701 82.826s6.227 15.158.061 24.844c-6.166 9.686-13.951 17.385-13.951 17.385s-1.796-2.077.217-16.34 13.674-25.889 13.674-25.889zm-79.215 19.836c5.844-.018 18.711 1.864 28.164 17.227 12.604 20.483 7.846 19.988 7.846 19.988s-6.403 4.101-15.51 1.983c-9.107-2.12-23.754-13.848-23.754-13.848h7.352c7.352 0 15.853.9 15.853.9s-4.616-1.974-14.478-11.023c-9.862-9.05-8.588-15.004-8.588-15.004s1.167-.216 3.115-.223z" fill="#ecc113"/><path d="M1134.249 173.45s19.085-9.619 21.473-13.917c3.918-7.05 6.255-21.746 6.238-21.688 0 0-2.765 15.595-8.386 19.57l-5.43 3.84 1.756-10.05s-2.36 7.521-4.995 11.121c-3.373 4.608-9.675 7.29-9.675 7.29z" fill="#6c6753"/><path d="M1089.356 53.82c-5.185 12.274-7.963 23.913-7.027 26.897-3.733-4.249-3.208-4.508-2.766-10.045-14.748 8.657-21.271 30.291-4.107 43.445-5.203-1.099-7.848-4.12-13.22-9.234-9.779 26.807 8.981 69.37 61.26 65.191 3.514-.236 7.197-.544 10.948-.967-2.55-6.899-2.612-13.72 4.176-28.171-14.682-.627-14.477-13.814-16.85-29.37-7.628-3.35-7.6-6.069-10.902-9.673 6.971 1.92 10.156-.018 10.156-.018-8.148-.05-14.233-.713-19.078-11.04 8.61 2.453 10.64 3.081 15.705.274-1.561-.056-24.764-1.567-28.295-37.289zm28.295 37.29v.001l.152.006s-.06.004-.152-.008zm-33.02 31.915c5.844-.018 18.713 1.864 28.166 17.227 12.604 20.483 7.844 19.99 7.844 19.99s-6.4 4.1-15.508 1.98c-9.107-2.118-23.756-13.847-23.756-13.847h7.354c7.352 0 15.851.902 15.851.902s-4.614-1.976-14.476-11.025c-9.863-9.05-8.59-15.002-8.59-15.002s1.167-.218 3.115-.225zM1143.316 249.202l28.21-.334s.357-1.25-6.475-1.25-11.942 1.113-11.942 1.113-3.04-2.072-7.75-2.274c-4.71-.202-8.313.418-8.313.418zM1067.805 248.72s12.462.431 14.884-.164c2.422-.595 7.631-2.307 7.631-2.307s-21.313.443-23.783 1.118c-2.47.675 1.268 1.352 1.268 1.352z" fill="#a80"/><path d="M1103.27 243.682L1076.183 247l25.103 1.655-21.05 1.419c32.615 1.11 36.105.197 64.659-.311-13.392-15.964-14.48-46.884-12.552-71.862 7.268-10.844 14.536-12.076 21.805-17.687-6.95 2.22-13.403 8.164-21.144 4.42 17.015-49.09 9.835-25.182-9.253-2.21-6.11-19.302-13.972-18.88-21.801-18.794 8.603.366 18.936 13.219 12.551 22.662-4.57 4.402-13.346 1.988-25.11-1.105 8.052 3.525 15.61 1.684 24.45 13.822.342 24.263 1.872 40.64-10.57 64.673z" fill="#6c6753"/><path d="M1139.233 140.779c-.476.277-6.54 10.882-15.479 21.645-6.117-19.302-13.978-18.88-21.808-18.794 8.052.33 18.94 13.219 12.555 22.662-4.57 4.402-13.346 1.988-25.11-1.102 8.052 3.522 15.61 1.681 24.45 13.819.342 24.263 1.872 40.64-10.574 64.673l-27.088 3.315 25.11 1.66-21.053 1.417c13.22.566 25.24.672 34.61.531l9.569-35.665 2.006-27.065c1.949-11.342.37-10.412 8.822-22.407-2.65-3.386 1.434-14.945 2.896-19.176z" fill="#5f554b"/><path d="M1337.43 249.861l-30.393-.541s1.486-.596 4.35-1.533c2.864-.936 6.559-.936 6.559-.936l-7.457.212s2.666-1.48 7.637-2.102c4.97-.622 88.733-1.633 89.946-1.225 1.214.408-10.572 1.931-5.367 2.345 5.204.414 24.388-.228 24.868 1.429.48 1.656-67.424 3.45-90.143 2.351z" fill="#a80"/><path d="M1353.27 243.682L1326.183 247l25.103 1.655-21.05 1.419c32.615 1.11 36.105.197 64.659-.311-13.392-15.964-14.48-46.884-12.552-71.862 7.268-10.844 14.536-12.076 21.805-17.687-6.95 2.22-13.403 8.164-21.144 4.42 17.015-49.09 9.835-25.182-9.253-2.21-6.11-19.302-13.972-18.88-21.801-18.794 8.603.366 18.936 13.219 12.551 22.662-4.57 4.402-13.346 1.988-25.11-1.105 8.052 3.525 15.61 1.684 24.45 13.822.342 24.263 1.872 40.64-10.57 64.673z" fill="#6c6753"/><path d="M1389.233 140.779c-.476.277-6.54 10.882-15.479 21.645-6.117-19.302-13.978-18.88-21.808-18.794 8.052.33 18.94 13.219 12.555 22.662-4.57 4.402-13.346 1.988-25.11-1.102 8.052 3.522 15.61 1.681 24.45 13.819.342 24.263 1.872 40.64-10.574 64.673l-27.088 3.315 25.11 1.66-21.053 1.417c13.22.566 25.24.672 34.61.531l9.569-35.665 2.006-27.065c1.949-11.342.37-10.412 8.822-22.407-2.65-3.386 1.434-14.945 2.896-19.176z" fill="#5f554b"/><path d="M1364.545 26.142s-3.399 90.002 2.164 112.562l5.41 21.94s18.374-20.906 26.91-40.754c8.536-19.848 15.732-47.14 15.732-47.14s-8.165 50.442-22.299 73c-14.133 22.557-20.164 28.258-20.164 28.258s-2.89 6.303-11.369-15.298c-8.479-21.602 3.616-132.568 3.616-132.568z" fill="#5f554b"/><path d="M1365.238 158.34s-11.238-6.772-15.997-12.783c-4.759-6.012-9.053-16.063-10.213-27.97-1.16-11.906-2.008-45.86-2.008-45.86s1.627 42.17 7.16 53.74c5.532 11.57 21.184 22.758 21.184 22.758z" fill="#5f554b"/><path d="M1366.866 183.844s1.257-2.402-9.7-8.358c-10.958-5.956-20.105-10.005-25.808-15.62-5.704-5.614-9.737-25.33-9.737-25.33s5.217 15.872 10.44 21.318c5.223 5.446.204.392.204.392s-1.104-7.388-1.104-13.19 3.744-17.74 3.744-17.74-4.966 24.259 1.955 32.355c6.921 8.097 30.84 12.836 30.84 12.836zM1340.009 123.73s-4.608-1.934-7.438-11.824-2.83-24.296-2.83-24.296 3.265 26.135 10.64 32.771c7.376 6.637-.372 3.35-.372 3.35z" fill="#5f554b"/><path d="M1396.995 133.69s12.512-4.153 16.064-9.971c3.552-5.818 12.866-32.518 12.866-32.518s-13.45 29.52-17.747 32.446c-4.296 2.926-9.737 4.84-9.737 4.84zM1363.06 124.7s1.896-13.43 7.12-21.767c5.224-8.336 13.691-23.745 15.805-34.63 2.113-10.886 2.113-30.096 2.113-30.096s-3.494 29.277-6.741 35.335l-3.247 6.058s-3.06-13.645-3.06-19.511V46.433s-4.305 19.352-1.358 34.58c2.947 15.23-10.382 14.627-12.05 35.086-1.668 20.458 1.418 8.601 1.418 8.601zM1384.249 173.45s19.085-9.619 21.473-13.917c3.918-7.05 6.255-21.746 6.238-21.688 0 0-2.765 15.595-8.386 19.57l-5.43 3.84 1.756-10.05s-2.36 7.521-4.995 11.121c-3.373 4.608-9.675 7.29-9.675 7.29z" fill="#6c6753"/><path d="M1360.815 70.97s-1.366.823-8.207-4.967c-6.84-5.79-8.808-16.776-8.808-16.776s7.414 2.142 11.282 6.183c3.868 4.042 5.733 15.56 5.733 15.56z" fill="#a80"/><path d="M1363.097 56.105s-4.075-5.196-6.183-14.523c-2.108-9.327 4.162-26.634 4.162-26.634s3.888 6.264 4.486 14.205c.597 7.94-2.465 26.952-2.465 26.952zM1333.697 112.185s-.503-5.559-6.311-11.54c-5.81-5.982-9.848-8.978-9.848-8.978s.46 13.495 5.927 19.882c5.468 6.386 11.53 6.446 11.53 6.446z" fill="#ecc113"/><path d="M1348.73 124.306s3.076-4.657 2.27-12.956c-.805-8.3-2.092-13.16-2.092-13.16s-8.062 10.83-7.776 19.233c.287 8.403 4.986 12.232 4.986 12.232z" fill="#a80"/><path d="M1399.81 122.447s-1.591-.102-3.914-8.759c-2.322-8.656 2.32-18.804 2.32-18.804s4.873 5.984 5.749 11.51c.875 5.524-4.154 16.053-4.154 16.053zM1400.252 164.277s-.604-1.477 6.168-7.348c6.772-5.87 17.929-6.128 17.929-6.128s-3.255 6.997-7.842 10.199-16.255 3.277-16.255 3.277z" fill="#ecc113"/></svg>