<svg xmlns="http://www.w3.org/2000/svg" width="2250" height="250" viewBox="0 0 2250 250"><path d="M610.344 64.75c-8.165.161-18.095 7.443-27.35 19.992-23.019-4.816-18.428 8.744-18.428 8.744-24.12-3.934-31.587 7.576-19.27 24.971-13.6 4.221.93 13.148 6.706 15.748-11.552-.457-46.97 3.824-13.682 19.404-37.786 2.237-49.541 22.78-26.633 31.575 1.72.66 3.793 1.183 6.063 1.595.043-2.903 1.536-5.812 4.516-8.191 5.604-4.475 16.413-7.075 24.517-4.822 8.104 2.252 13.503 9.357 12.858 15.318a8.898 8.898 0 01-.245 1.275c2.338.448 4.581.405 6.286-.132 1.685.911 3.305 1.699 4.877 2.392-.005-.486.031-.97.136-1.441.992-4.463 6.998-7.976 12.48-9.533 5.483-1.558 10.44-1.16 14.307 1.12 2.933 1.73 5.232 4.544 4.663 7.66 5.389-4.481 9.312-10.825 12.68-16.595 1.239 8.197 3.903 14.24 7.343 18.627-.914-4.94-.925-10.18 2.115-13.896 5.356-6.546 20.169-8.36 30.451-5.498 10.283 2.861 16.033 10.398 14.446 18.529-.71 3.635-2.892 7.385-5.834 10.709 11.438 5.376 40.54 1.572 38.033-19.18 21.454-3.052 10.828-27.119 3.908-28.42 5.251-9.059-2.387-18.746-15.635-15.303l13.002 17.588c-29.283-.436-40.444.22-23.691-30.53l10.69 12.942c18.248-30.85-28.73-13.6-46.35-1.64 7.745-7.959 5.333-10.12.558-10.932 12.104-14.175 21.965-25.488 4.467-27.326-1.105-11.58-5.972-18.388-21.219-12.025-2.198-15.93-8.6-22.886-16.765-22.725zm-63.969 103.953c1.024.093 2.072.144 3.113.21a24.977 24.446 0 00-1.392 3.019z" fill="#7c916f"/><path d="M600.996 75.488l-.359.187c-.106 2.756-.189 5.728-.28 8.617h-.009l.01.032c-.236 7.418-.439 15.096-.594 23.18-2.273 1.842-7.72-5.822-12.497-16.315-2.062-4.53-3.857-10.684-5.015-14.98l-.446.299c1.068 5.85 2.43 10.854 3.941 15.115-.855 1.34-6.525-1.307-12.684-5.492-.855-.58-1.76-1.275-2.664-1.997l-.62.415c7.59 6.777 13.864 9.078 16.996 9.814 4.593 11.524 10.134 16.9 12.886 18.956-.152 8.732-.279 17.678-.404 26.636-2.15-.8-4.128-2.9-5.087-7.357l-1.275-.209c1.201 6.272 3.803 9.581 6.296 12.266-.004.35-.013.696-.013 1.045-7.469-6.279-14.812-11.731-21.964-15.866l-3.442-.562c.454.25.901.488 1.37.758 9.987 5.75 19.27 12.596 23.913 24.23-.055 3.643-.117 7.22-.178 10.81-9.194-11.497-25.874-19.927-33.359-23.048-2.857-4.822-5.556-9.767-8.594-14.39.528-1.118 3.93-8.848-.901-13.293-1.858-1.71-3.225-2.976-4.992-4.28-1.405-1.48-3.464-3.335-3.535-5.93l-.549-.139c-.052 2.079.196 2.445.987 4.022-1.678-1.01-3.732-2.136-6.575-3.568.068.392-1.211-.071-1.211-.071 4.168 2.288 22.177 11.517 14.112 19.432-2.454-3.304-5.179-6.356-8.39-8.964-8.547.19-12.904-3.223-13.216-4.057 0 0 .085.51.189 1.833 3.953 2.21 8.089 3.37 12.378 4.092 8.487 5.77 14.184 17.537 17.021 26.504 3.646 2.26 10.834 5.009 18.109 10.088-14.24-4.348-26.37-8.526-32.007-14.067a322.908 316.046 0 01-7.279-7.382c-.127-2.296.132-3.989.426-5.708l-.329-.688c-.745 1.543-1.434 2.972-1.287 5.129-5.534-5.892-8.057-9.157-7.616-8.919l-2.609-1.548c8.342 9.111 17.932 21.452 15.754 21.467 12.11 5.321 24.423 11.014 41.72 17.254 4.607 4.436 8.784 10.131 11.537 17.632-.188 9.299-.414 18.298-.72 26.614-4.018-5.753-9.193-10.37-14.24-13.806a358.026 350.417 0 01-8.737-4.573c2.946-6.693.272-12.07-7.321-22.109-.01-1.785.203-3.23.45-4.679l-.328-.687c-.588 1.215-1.14 2.36-1.28 3.843a728.837 713.348 0 00-4.36-5.597l-.773.173c4.988 9.286 16.855 21.948 9.172 26.596-16.444-9.297-28.013-18.226-37.206-29.434-1.273.369-1.273.614-1.273.614 5.812 7.812 13.175 14.423 20.427 19.818-4.262-.545-8.7-1.266-12.638-2.782-6.443-2.482-11.382-8.415-15.133-14.765.048-1.355.957-3.96.92-6.276l-.5.092c-.11 1.023.021 2.528-1.397 4.477a89.295 87.397 0 01-2.614-5.138c-.728 0-.444.05-.597-.037 4.304 11.624 13.047 22.08 20.08 23.52 7.636 1.562 14.635 3.938 17.82 5.091 7.594 5.067 14.536 8.72 18.741 10.87a47.491 46.482 0 012.05 1.406c-6.384-.162-11.983.097-16.525.653-3.497-3.083-14.88-6.032-24.733-9.006l1.23.725c7.606 2.915 19.183 5.293 20.158 8.775-3.16.56-5.61 1.285-7.19 2.114-4.466.517-18.93-1.172-28.828-1.965l1.864.645c7.911.751 14.86 2.624 26.875 2.793 3.783-.763 8.3-4.11 30.616-1.935 8.135 7.31 11.003 16.076 14.502 27.086-.883 15.013-2.181 26.552-4.195 32.097l18.005-.03c-1.736-5.419-3.025-16.728-4.056-31.438 3.214-4.648 8.275-8.95 15.016-14.386 8.371-3.12 15.567-6.1 22.187-8.967l.009.037.135-.099c5.325-2.307 10.297-4.542 15.242-6.715-2.178-.015 7.415-12.355 15.756-21.467l-2.606 1.549c.622-.337-4.565 6.24-16.086 17.567-1.975 1.941-4.76 3.713-8.139 5.385-8.524-10.873 14.445-19.636 19.717-21.818 0 0-1.53.371-1.363-.086-3.49 1.305-6.032 2.355-8.13 3.32 1.249-1.765 1.608-2.166 2.04-4.648l-.641.087c-.69 3.078-3.41 4.997-5.316 6.561-2.266 1.301-4.079 2.618-6.542 4.39-5.249 3.778-4.87 11.013-4.384 14.28-4.507 1.866-9.748 3.63-15.394 5.4a448.862 448.862 0 008.384-6.907c2.57-12.635 5.848-24.252 9.483-34.457 3.16-4.888 6.825-6.858 10.394-9.368l-.35-.962c-2.838 1.438-5.634 2.868-7.746 4.189 1.839-4.684 3.743-9.02 5.68-12.937l-2.183 1.475c-1.515 1.836-3.479 5.517-6.73 14.133-.026.042-.063.085-.085.127l.012.067c-1.39 3.693-3.011 8.274-4.958 14.089-1.023-1.728-2.894-2.904-4.897-4.16l-.257.717c1.654 1.825 3.211 3.622 4.216 6.294a1201.328 1175.798 0 00-5.945 18.522c-11.42 11.562-19.191 13.716-27.248 17.103-.456-8.173-.848-17.176-1.217-26.499 4.839-6.432 12.805-21.226 18.557-35.485 2.492-.937 7.216-2.515 13.992-3.902 7.034-1.44 16.035-12.243 20.338-23.866-.152.087.13.036-.597.036a89.262 87.365 0 01-2.614 5.139c-1.42-1.95-1.286-3.455-1.397-4.478l-.5-.091c-.036 2.316.872 4.92.92 6.275-3.75 6.35-8.69 12.283-15.133 14.765-4.283 1.65-9.155 2.358-13.75 2.92 1.8-4.724 3.318-9.317 4.33-13.437 24.362-11.306 25.84-16.357 30.472-21.814-.387-.348.129-1.818.129-1.818-6.456 7.05-7.592 9.754-20.944 16.333-.62-5.867 2.562-12.284 5.312-18.242l-.818.405c-3.44 6.582-6.15 13.029-7.303 19.19a368.556 360.723 0 01-9.714 4.415c-5.48 20.105-13.875 33.972-21.702 42.933-.6-16.606-1.147-33.953-1.724-50.878 3.504-3.491 7.01-5.02 10.513-6.973l-.18-.983c-4.058 1.598-8.09 3.193-10.445 4.655-.13-3.756-.251-7.644-.388-11.315 7.395-3.987 12.434-6.528 18.96-26.081l-.576.434c-1.56 3.361-2.787 6.49-3.97 8.865a37.39 37.39 0 01-.906 1.692c-1.027.657-2.257-1.541-2.992-4.67l-.523.39c.446 3.017 1.483 4.9 1.928 5.963.085.203.03.574-.08.996-3.683 5.408-8.513 9.457-11.99 8.493a2126.059 2080.876 0 00-.658-15.495c.844-.987 1.582-2.21 2.346-3.8-1.081.986-1.512 1.465-2.452 1.625-.14-2.947-.277-5.921-.426-8.74z" fill="#483737"/><path d="M560.152 51.305c-16.037-.272-15.82 17.175-7.828 24.693-20.924 9.255-43.603 30.628-14.964 40.595 7.502-.065 11.392-.387 15.436 2.421-.458 10.025-4.365 14.882 12.722 23.01-8.396-1.099-17.81-2.385-14.647 6.851 1.932 1.655 3.297 2.83 3.297 2.83s-13.442 10.963-8.656 19.088c3.578 6.075 18.374 4.327 25.617 3.059 5.557-3.086 7.501-2.31 13.025 6.539 7.453 6.156 13.523 9.871 18.83 11.248-1.292-3.657-1.952-7.69-2.084-10.684-.273-6.204 1.693-7.925 7.28-9.094 5.586-1.169 14.793-1.787 19.607 1.567.483.336.909.723 1.303 1.135 1.009-1.6 2.035-3.294 3.088-5.106 6.86 8.072 15.05 4.416 22.894 3.826 3.717 11.717 8.692 12.362 13.405 15.303-8.3 20.689-.515 21.85 12.242 18.512 29.589-9.105 24.834-25.922 24.834-25.922 6.322 7.675 26.352-1.04 15.414-3.52 21.973 1.918 11.834-11.464 0-19.129 15.026-3.25 5.959-27.089-20.662-25.69 1.744-7.992-10.096-32.854-32.201-16.09-5.718 4.877-11.015 10.026-13.86 14.429-8.3 12.843-13.039-17.23-13.039-17.23s-2.275 10.144-22.508 21.712c-16.902 9.663-2.146-18.786 3.213-28.502-1.527-1.766-2.942-3.95-4.107-6.593-23.245-6.06-29.77-14.375-1.186-11.208 3.14-6.514 8.054-8.967 11.776-8.851v-.002a6.804 6.804 0 012.3.465c1.951-7.9-17.295-13.178-17.295-13.178l5.243-4.48c.851-16.086-24.603-12.9-36.72-4.801-9.272-5.054-16.423-7.112-21.769-7.203zm-11.02 29.101a4.578 4.578 0 012.048.406c3.47 1.588 5.798 7.989 3.97 12.729-1.827 4.74-7.81 7.822-11.28 6.236-3.472-1.586-4.432-7.84-2.604-12.582 1.484-3.852 4.81-6.706 7.867-6.789zm33.253 51.389c2.925-.152 6.568 1.256 9.2 3.86 4.214 4.164 5.843 11.385 3.54 14.835-2.303 3.45-8.538 3.131-12.752-1.033s-6.407-12.174-4.103-15.625c.863-1.294 2.36-1.946 4.115-2.037zm85.44 11.566c7.935-.066 14.713 4.876 13.493 11.887-.44 10.572-16.474 13.887-20.443 5.348 0 0-20.159 9.082-20.879-3.16-1.11-13.502 13.462-15.48 15.387-9.426 3.81-3.206 8.284-4.614 12.441-4.649z" fill="#bae57f"/><path d="M100.996 75.488l-.358.188c-.107 2.756-.19 5.728-.28 8.616h-.01l.01.032c-.235 7.418-.439 15.097-.594 23.181-2.272 1.842-7.72-5.822-12.497-16.315-2.062-4.53-3.856-10.684-5.015-14.98l-.446.298c1.069 5.85 2.43 10.854 3.941 15.115-.854 1.34-6.525-1.306-12.684-5.491-.854-.581-1.76-1.276-2.664-1.998l-.62.416c7.59 6.777 13.864 9.078 16.997 9.813 4.592 11.524 10.133 16.9 12.885 18.956-.151 8.733-.279 17.679-.404 26.636-2.15-.8-4.128-2.899-5.086-7.357l-1.276-.208c1.202 6.271 3.804 9.58 6.296 12.265-.004.35-.013.696-.013 1.046-7.468-6.279-14.812-11.732-21.964-15.866l-3.442-.562c.455.249.901.487 1.37.758 9.988 5.749 19.27 12.595 23.913 24.23-.054 3.643-.117 7.22-.177 10.81-9.195-11.498-25.875-19.927-33.36-23.048-2.857-4.823-5.556-9.767-8.593-14.39.527-1.118 3.928-8.849-.902-13.294-1.858-1.709-3.224-2.976-4.991-4.279-1.406-1.48-3.465-3.336-3.535-5.93l-.55-.14c-.051 2.08.196 2.446.988 4.023-1.679-1.01-3.733-2.136-6.575-3.569.067.392-1.212-.07-1.212-.07 4.168 2.288 22.177 11.517 14.113 19.432-2.454-3.304-5.18-6.357-8.391-8.965-8.547.19-12.904-3.223-13.216-4.057 0 0 .085.511.19 1.833 3.952 2.21 8.088 3.37 12.377 4.093 8.487 5.77 14.184 17.536 17.021 26.504 3.646 2.26 10.834 5.008 18.109 10.088-14.239-4.349-26.37-8.526-32.007-14.068a322.908 316.046 0 01-7.279-7.381c-.126-2.297.133-3.99.426-5.709l-.328-.687c-.746 1.542-1.435 2.972-1.287 5.129-5.535-5.892-8.057-9.157-7.617-8.92l-2.609-1.548c8.342 9.112 17.933 21.453 15.754 21.468 12.11 5.32 24.423 11.013 41.72 17.254 4.608 4.435 8.784 10.13 11.537 17.632-.188 9.298-.413 18.298-.72 26.613-4.018-5.753-9.193-10.37-14.24-13.806a358.026 350.417 0 01-8.737-4.572c2.946-6.693.273-12.071-7.32-22.11-.01-1.785.202-3.23.45-4.678l-.33-.688c-.587 1.216-1.14 2.36-1.278 3.844a728.837 713.348 0 00-4.361-5.598l-.772.174c4.987 9.286 16.855 21.947 9.17 26.595-16.443-9.296-28.012-18.226-37.205-29.434-1.273.37-1.273.614-1.273.614 5.812 7.812 13.175 14.424 20.427 19.819-4.262-.545-8.699-1.266-12.638-2.783-6.442-2.482-11.382-8.414-15.133-14.765.048-1.355.957-3.96.92-6.276l-.5.092c-.11 1.023.022 2.529-1.397 4.478a89.295 87.397 0 01-2.614-5.139c-.728 0-.444.05-.597-.036 4.304 11.623 13.047 22.08 20.08 23.52 7.637 1.562 14.635 3.938 17.82 5.09 7.595 5.067 14.537 8.72 18.741 10.87a47.491 46.482 0 012.051 1.407c-6.385-.163-11.983.096-16.525.653-3.498-3.084-14.88-6.032-24.734-9.007l1.23.725c7.606 2.915 19.183 5.294 20.158 8.776-3.16.56-5.61 1.284-7.19 2.113-4.465.518-18.93-1.172-28.828-1.964l1.864.644c7.912.752 14.86 2.625 26.875 2.794 3.783-.764 8.3-4.11 30.616-1.935 8.135 7.309 11.003 16.076 14.503 27.086-.883 15.012-2.182 26.551-4.196 32.097l18.006-.03c-1.737-5.42-3.026-16.729-4.057-31.438 3.215-4.648 8.275-8.95 15.016-14.387 8.372-3.119 15.567-6.1 22.187-8.967l.01.038.134-.099c5.325-2.308 10.297-4.542 15.242-6.715-2.178-.015 7.415-12.356 15.756-21.468l-2.606 1.549c.622-.336-4.565 6.24-16.086 17.567-1.975 1.942-4.76 3.713-8.139 5.386-8.524-10.874 14.445-19.637 19.717-21.819 0 0-1.53.371-1.363-.085-3.49 1.304-6.032 2.354-8.13 3.32 1.249-1.765 1.609-2.167 2.041-4.648l-.642.087c-.69 3.078-3.41 4.997-5.316 6.56-2.266 1.302-4.079 2.618-6.541 4.39-5.25 3.779-4.87 11.013-4.384 14.281-4.507 1.865-9.748 3.63-15.395 5.4a448.862 448.862 0 008.384-6.908c2.57-12.634 5.848-24.251 9.483-34.456 3.16-4.889 6.825-6.859 10.395-9.368l-.351-.962c-2.837 1.437-5.634 2.867-7.746 4.188 1.839-4.684 3.743-9.02 5.68-12.936l-2.183 1.475c-1.515 1.836-3.479 5.517-6.73 14.133-.026.041-.062.084-.085.126l.013.067c-1.39 3.694-3.012 8.274-4.958 14.09-1.024-1.729-2.895-2.904-4.898-4.16l-.256.716c1.653 1.826 3.21 3.622 4.215 6.294a1201.328 1175.798 0 00-5.945 18.523c-11.42 11.561-19.19 13.715-27.248 17.102-.456-8.172-.848-17.176-1.217-26.498 4.839-6.433 12.805-21.227 18.557-35.485 2.493-.938 7.216-2.516 13.993-3.903 7.033-1.44 16.034-12.242 20.338-23.866-.153.087.13.036-.598.036a89.262 87.365 0 01-2.614 5.14c-1.42-1.95-1.285-3.456-1.396-4.478l-.501-.092c-.036 2.316.873 4.921.92 6.276-3.75 6.35-8.689 12.283-15.132 14.765-4.284 1.65-9.156 2.357-13.75 2.919 1.8-4.723 3.318-9.316 4.33-13.437 24.362-11.306 25.84-16.356 30.472-21.813-.387-.348.128-1.819.128-1.819-6.455 7.05-7.592 9.755-20.944 16.333-.619-5.867 2.563-12.283 5.312-18.241l-.817.404c-3.441 6.582-6.15 13.03-7.303 19.19a368.556 360.723 0 01-9.714 4.416c-5.48 20.105-13.876 33.972-21.703 42.933-.6-16.607-1.147-33.953-1.724-50.878 3.504-3.492 7.01-5.021 10.514-6.973l-.182-.983c-4.057 1.597-8.089 3.192-10.444 4.655-.13-3.757-.25-7.644-.387-11.315 7.395-3.988 12.434-6.529 18.96-26.082l-.577.434c-1.56 3.362-2.787 6.491-3.97 8.865a37.39 37.39 0 01-.906 1.692c-1.027.657-2.257-1.54-2.991-4.67l-.524.39c.446 3.018 1.484 4.9 1.928 5.963.085.203.03.575-.08.997-3.683 5.408-8.512 9.457-11.989 8.492a2126.059 2080.876 0 00-.66-15.495c.845-.986 1.584-2.21 2.347-3.8-1.081.986-1.511 1.466-2.451 1.626-.14-2.948-.278-5.922-.426-8.74z" fill="#483737"/><path d="M860.343 64.75c-8.165.161-18.094 7.443-27.35 19.993-23.018-4.817-18.426 8.744-18.426 8.744-24.12-3.934-31.588 7.575-19.27 24.97-13.6 4.222.928 13.148 6.704 15.748-11.552-.457-46.97 3.823-13.681 19.404-37.786 2.237-49.541 22.781-26.633 31.575 9.956 3.821 31.315 3.277 39.048.9 4.224 4.007 11.016 5.382 14.947 4.142 29.064 15.725 40.798-2.1 49.142-16.396 5.255 34.757 35.945 31.165 44.114 24.047 2.462 10.664 45.465 10.278 42.44-14.756 21.455-3.052 10.83-27.12 3.91-28.42 5.25-9.06-2.388-18.747-15.635-15.303l13 17.589c-29.283-.436-40.443.22-23.69-30.532l10.69 12.943c18.248-30.851-28.73-13.6-46.351-1.64 7.746-7.959 5.333-10.12.559-10.93 12.104-14.176 21.966-25.49 4.468-27.329-1.105-11.58-5.973-18.386-21.22-12.024-2.199-15.929-8.6-22.887-16.765-22.725zm-63.969 103.953c1.024.093 2.074.144 3.115.209a24.977 24.446 0 00-1.393 3.019z" fill="#7c916f"/><path d="M850.996 75.488l-.358.187c-.107 2.756-.19 5.728-.28 8.617h-.01l.01.032c-.235 7.418-.439 15.096-.594 23.18-2.272 1.842-7.72-5.822-12.497-16.315-2.062-4.53-3.856-10.684-5.015-14.98l-.445.299c1.068 5.85 2.43 10.854 3.94 15.115-.854 1.34-6.525-1.307-12.684-5.492-.854-.58-1.76-1.275-2.664-1.997l-.62.415c7.59 6.777 13.864 9.078 16.997 9.814 4.592 11.524 10.133 16.9 12.885 18.956-.151 8.732-.279 17.678-.404 26.636-2.15-.8-4.128-2.9-5.086-7.357l-1.276-.209c1.202 6.272 3.804 9.581 6.296 12.266-.004.35-.013.696-.013 1.045-7.469-6.279-14.812-11.731-21.964-15.866l-3.442-.562c.455.25.901.488 1.37.758 9.988 5.75 19.27 12.596 23.913 24.23-.054 3.643-.117 7.22-.177 10.81-9.195-11.497-25.875-19.927-33.36-23.048-2.857-4.822-5.556-9.767-8.593-14.39.527-1.118 3.928-8.848-.902-13.293-1.858-1.71-3.224-2.976-4.991-4.28-1.406-1.48-3.465-3.335-3.535-5.93l-.55-.139c-.051 2.079.196 2.445.988 4.022-1.679-1.01-3.733-2.136-6.575-3.568.067.392-1.212-.071-1.212-.071 4.168 2.288 22.177 11.517 14.113 19.432-2.454-3.304-5.18-6.356-8.391-8.964-8.547.19-12.904-3.223-13.216-4.057 0 0 .085.51.19 1.833 3.952 2.21 8.088 3.37 12.377 4.092 8.487 5.77 14.184 17.537 17.021 26.504 3.646 2.26 10.834 5.009 18.109 10.088-14.239-4.348-26.37-8.526-32.007-14.067a322.908 316.046 0 01-7.279-7.382c-.126-2.296.133-3.99.426-5.708l-.328-.688c-.746 1.543-1.435 2.972-1.287 5.129-5.535-5.892-8.057-9.157-7.617-8.919l-2.609-1.548c8.342 9.111 17.933 21.452 15.754 21.467 12.11 5.321 24.423 11.014 41.72 17.254 4.608 4.436 8.784 10.131 11.537 17.632-.188 9.299-.414 18.298-.72 26.614-4.018-5.753-9.193-10.37-14.24-13.806a358.026 350.417 0 01-8.737-4.573c2.946-6.693.272-12.07-7.32-22.109-.01-1.785.202-3.23.45-4.679l-.33-.687c-.587 1.215-1.14 2.36-1.278 3.843a728.837 713.348 0 00-4.361-5.597l-.772.173c4.987 9.286 16.855 21.948 9.17 26.596-16.443-9.297-28.012-18.226-37.205-29.434-1.273.369-1.273.614-1.273.614 5.812 7.812 13.175 14.423 20.427 19.818-4.262-.545-8.699-1.266-12.638-2.782-6.442-2.482-11.382-8.415-15.133-14.765.048-1.355.957-3.96.92-6.276l-.5.092c-.11 1.023.022 2.528-1.397 4.477a89.295 87.397 0 01-2.614-5.138c-.728 0-.444.05-.597-.037 4.304 11.624 13.047 22.08 20.08 23.52 7.637 1.562 14.635 3.938 17.82 5.091 7.595 5.067 14.537 8.72 18.741 10.87a47.491 46.482 0 012.051 1.406c-6.385-.162-11.983.097-16.525.653-3.498-3.083-14.88-6.032-24.734-9.006l1.23.725c7.606 2.915 19.183 5.293 20.158 8.775-3.16.56-5.61 1.285-7.19 2.114-4.465.517-18.93-1.172-28.828-1.965l1.864.645c7.911.751 14.86 2.624 26.875 2.793 3.783-.763 8.3-4.11 30.616-1.935 8.135 7.31 11.003 16.076 14.503 27.086-.883 15.013-2.182 26.552-4.196 32.097l18.006-.03c-1.737-5.419-3.026-16.728-4.057-31.438 3.215-4.648 8.275-8.95 15.016-14.386 8.372-3.12 15.567-6.1 22.187-8.967l.01.037.134-.099c5.325-2.307 10.297-4.542 15.242-6.715-2.178-.015 7.415-12.355 15.756-21.467l-2.606 1.549c.622-.337-4.565 6.24-16.086 17.567-1.975 1.941-4.76 3.713-8.139 5.385-8.524-10.873 14.445-19.636 19.717-21.818 0 0-1.53.371-1.363-.086-3.49 1.305-6.032 2.355-8.13 3.32 1.249-1.765 1.609-2.166 2.041-4.648l-.642.087c-.69 3.078-3.41 4.997-5.316 6.561-2.266 1.301-4.079 2.618-6.541 4.39-5.25 3.778-4.87 11.013-4.384 14.28-4.507 1.866-9.748 3.63-15.395 5.4a448.862 448.862 0 008.384-6.907c2.57-12.635 5.848-24.252 9.483-34.457 3.16-4.888 6.825-6.858 10.395-9.368l-.351-.962c-2.837 1.438-5.634 2.868-7.746 4.189 1.839-4.684 3.743-9.02 5.68-12.937l-2.183 1.475c-1.515 1.836-3.479 5.517-6.73 14.133-.026.042-.062.085-.085.127l.013.067c-1.39 3.693-3.012 8.274-4.958 14.089-1.024-1.728-2.895-2.904-4.898-4.16l-.256.717c1.653 1.825 3.21 3.622 4.215 6.294a1201.328 1175.798 0 00-5.945 18.522c-11.42 11.562-19.19 13.716-27.248 17.103-.456-8.173-.848-17.176-1.217-26.499 4.839-6.432 12.805-21.226 18.557-35.485 2.493-.937 7.216-2.515 13.993-3.902 7.033-1.44 16.034-12.243 20.338-23.866-.153.087.13.036-.598.036a89.262 87.365 0 01-2.614 5.139c-1.42-1.95-1.285-3.455-1.396-4.478l-.501-.091c-.036 2.316.873 4.92.92 6.275-3.75 6.35-8.689 12.283-15.132 14.765-4.284 1.65-9.156 2.358-13.75 2.92 1.8-4.724 3.318-9.317 4.33-13.437 24.362-11.306 25.84-16.357 30.472-21.814-.387-.348.128-1.818.128-1.818-6.455 7.05-7.592 9.754-20.944 16.333-.619-5.867 2.563-12.284 5.312-18.242l-.817.405c-3.441 6.582-6.15 13.029-7.303 19.19a368.556 360.723 0 01-9.714 4.415c-5.48 20.105-13.876 33.972-21.703 42.933-.6-16.606-1.147-33.953-1.724-50.878 3.504-3.491 7.01-5.02 10.514-6.973l-.182-.983c-4.057 1.598-8.089 3.193-10.444 4.655-.13-3.756-.25-7.644-.387-11.315 7.395-3.987 12.434-6.528 18.96-26.081l-.577.434c-1.56 3.361-2.787 6.49-3.97 8.865a37.39 37.39 0 01-.906 1.692c-1.027.657-2.257-1.541-2.991-4.67l-.524.39c.446 3.017 1.484 4.9 1.928 5.963.085.203.03.574-.08.996-3.683 5.408-8.512 9.457-11.989 8.493a2126.059 2080.876 0 00-.66-15.495c.845-.987 1.584-2.21 2.347-3.8-1.081.986-1.511 1.465-2.451 1.625-.14-2.947-.278-5.921-.426-8.74z" fill="#483737"/><path d="M810.152 51.305c-16.037-.272-15.82 17.174-7.828 24.693-53.633 24.834-26.318 45.388-1.236 48.15-.598 5.736 7.4 14.725 14.43 17.875-8.66-1.133-18.408-2.466-14.31 7.76-14.097-6.866-44.295-22.646-42.998-.547-17.164-1.379-3.05 15.857 3.106 13.356-17.746 17.526 32.474 26.34 51.619 16.157 12.828-7.459 13.614-10.54 21.22 1.64 23.232 19.193 33.07 14.798 48.023-10.931 6.86 8.071 15.051 4.416 22.895 3.826 3.716 11.716 8.691 12.362 13.404 15.303-13.242 33.007 14.452 16.313 37.971 10.932 30.023 5.931 46.131-3.452 16.793-16.297 2.943-2.53 2.778-4.493-2.273-5.565 21.973 1.918 11.834-11.465 0-19.13 15.026-3.251 5.958-27.089-20.663-25.689 1.842-8.44-11.453-35.72-35.996-12.91 6.067-8.488 3.022-24.435-11.402-21.539 10.507-9.166-1.216-19.308-14.027-29.496-9.711-4.141-16.14-5.133-20.339-4.357 2.241-17.479-24.202-14.329-36.62-6.028-9.273-5.053-16.424-7.111-21.77-7.203zm68.24 29.198c6.202.193 9.093 7.514-5.062 15.035 29.293 17.948 3.834 26.267-5.528 5.024-23.244-6.06-29.769-14.374-1.185-11.207 3.139-6.514 8.053-8.967 11.775-8.852zm39.432 62.859c7.936-.066 14.714 4.876 13.495 11.887-.44 10.572-16.475 13.886-20.445 5.347 0 0-20.158 9.082-20.878-3.161-1.111-13.501 13.461-15.479 15.386-9.425 3.81-3.206 8.285-4.614 12.442-4.648z" fill="#bae57f"/><path d="M810.108 51.305c-3.765-.064-6.623.858-8.705 2.389-2.512 7.043 1.192 19.091 14.28 38.973-25.716 44.867 12.581 44.626 39.648 32.793 1.03 9.932 1.182 36.469 34.107 14.93-1.676 2.808-2.509 7.033 1.175 11.15 2.823-8.04 13.128-8.556 14.726-3.531 3.81-3.206 8.285-4.614 12.442-4.648 7.936-.066 14.714 4.876 13.495 11.887-.44 10.573-16.476 13.886-20.445 5.347-3.698 26.38 15.204 27.984 40.548 22.526 17.79 13.923 29.348 16.354 37.306 12.14-.192-3.182-4.852-7.383-15.488-12.04 2.943-2.529 2.779-4.492-2.273-5.565 21.973 1.918 11.834-11.464 0-19.13 15.026-3.25 5.958-27.088-20.663-25.688 1.842-8.44-11.453-35.72-35.995-12.911 6.066-8.487 3.021-24.434-11.402-21.538 10.506-9.166-1.216-19.308-14.028-29.497-9.71-4.14-16.14-5.133-20.338-4.357 2.24-17.478-24.203-14.328-36.62-6.027-9.274-5.054-16.425-7.112-21.77-7.203zm68.24 29.197c6.202.193 9.094 7.515-5.062 15.036 29.293 17.948 3.835 26.267-5.527 5.024-23.245-6.06-29.77-14.375-1.186-11.207 3.14-6.515 8.053-8.967 11.775-8.852z" fill="#ccef7f"/><path d="M350.996 75.488l-.359.187c-.106 2.756-.189 5.728-.28 8.617h-.009l.01.032c-.236 7.418-.439 15.096-.594 23.18-2.273 1.842-7.72-5.822-12.497-16.315-2.062-4.53-3.857-10.684-5.015-14.98l-.446.299c1.068 5.85 2.43 10.854 3.941 15.115-.855 1.34-6.525-1.307-12.684-5.492-.855-.58-1.76-1.275-2.664-1.997l-.62.415c7.59 6.777 13.864 9.078 16.996 9.814 4.593 11.524 10.134 16.9 12.886 18.956-.152 8.732-.279 17.678-.404 26.636-2.15-.8-4.128-2.9-5.087-7.357l-1.275-.209c1.201 6.272 3.803 9.581 6.296 12.266-.004.35-.013.696-.013 1.045-7.469-6.279-14.812-11.731-21.964-15.866l-3.442-.562c.454.25.901.488 1.37.758 9.987 5.75 19.27 12.596 23.913 24.23-.055 3.643-.117 7.22-.178 10.81-9.194-11.497-25.874-19.927-33.359-23.048-2.857-4.822-5.556-9.767-8.594-14.39.528-1.118 3.93-8.848-.901-13.293-1.858-1.71-3.225-2.976-4.992-4.28-1.405-1.48-3.464-3.335-3.535-5.93l-.549-.139c-.052 2.079.196 2.445.987 4.022-1.678-1.01-3.732-2.136-6.575-3.568.068.392-1.211-.071-1.211-.071 4.168 2.288 22.177 11.517 14.112 19.432-2.454-3.304-5.179-6.356-8.39-8.964-8.547.19-12.904-3.223-13.216-4.057 0 0 .085.51.189 1.833 3.953 2.21 8.089 3.37 12.378 4.092 8.487 5.77 14.184 17.537 17.021 26.504 3.646 2.26 10.834 5.009 18.109 10.088-14.24-4.348-26.37-8.526-32.007-14.067a322.908 316.046 0 01-7.279-7.382c-.127-2.296.132-3.989.426-5.708l-.329-.688c-.745 1.543-1.434 2.972-1.287 5.129-5.534-5.892-8.057-9.157-7.616-8.919l-2.609-1.548c8.342 9.111 17.932 21.452 15.754 21.467 12.11 5.321 24.423 11.014 41.72 17.254 4.607 4.436 8.784 10.131 11.537 17.632-.188 9.299-.414 18.298-.72 26.614-4.018-5.753-9.193-10.37-14.24-13.806a358.026 350.417 0 01-8.737-4.573c2.946-6.693.272-12.07-7.321-22.109-.01-1.785.203-3.23.45-4.679l-.328-.687c-.588 1.215-1.14 2.36-1.28 3.843a728.837 713.348 0 00-4.36-5.597l-.773.173c4.988 9.286 16.855 21.948 9.172 26.596-16.444-9.297-28.013-18.226-37.206-29.434-1.273.369-1.273.614-1.273.614 5.812 7.812 13.175 14.423 20.427 19.818-4.262-.545-8.7-1.266-12.638-2.782-6.443-2.482-11.382-8.415-15.133-14.765.048-1.355.957-3.96.92-6.276l-.5.092c-.11 1.023.021 2.528-1.397 4.477a89.295 87.397 0 01-2.614-5.138c-.728 0-.444.05-.597-.037 4.304 11.624 13.047 22.08 20.08 23.52 7.636 1.562 14.635 3.938 17.82 5.091 7.594 5.067 14.536 8.72 18.741 10.87a47.491 46.482 0 012.051 1.406c-6.385-.162-11.984.097-16.526.653-3.497-3.083-14.88-6.032-24.733-9.006l1.23.725c7.606 2.915 19.183 5.293 20.158 8.775-3.16.56-5.61 1.285-7.19 2.114-4.466.517-18.93-1.172-28.828-1.965l1.864.645c7.911.751 14.86 2.624 26.875 2.793 3.783-.763 8.3-4.11 30.616-1.935 8.135 7.31 11.003 16.076 14.502 27.086-.883 15.013-2.181 26.552-4.195 32.097l18.005-.03c-1.736-5.419-3.025-16.728-4.056-31.438 3.214-4.648 8.275-8.95 15.016-14.386 8.371-3.12 15.567-6.1 22.187-8.967l.009.037.135-.099c5.325-2.307 10.297-4.542 15.242-6.715-2.178-.015 7.415-12.355 15.756-21.467l-2.606 1.549c.622-.337-4.565 6.24-16.086 17.567-1.975 1.941-4.76 3.713-8.139 5.385-8.524-10.873 14.445-19.636 19.717-21.818 0 0-1.53.371-1.363-.086-3.49 1.305-6.032 2.355-8.13 3.32 1.249-1.765 1.608-2.166 2.04-4.648l-.641.087c-.69 3.078-3.41 4.997-5.316 6.561-2.266 1.301-4.079 2.618-6.542 4.39-5.249 3.778-4.87 11.013-4.384 14.28-4.507 1.866-9.748 3.63-15.394 5.4a448.862 448.862 0 008.384-6.907c2.57-12.635 5.848-24.252 9.483-34.457 3.16-4.888 6.825-6.858 10.394-9.368l-.35-.962c-2.838 1.438-5.634 2.868-7.746 4.189 1.839-4.684 3.743-9.02 5.68-12.937l-2.183 1.475c-1.515 1.836-3.479 5.517-6.73 14.133-.026.042-.063.085-.085.127l.012.067c-1.39 3.693-3.011 8.274-4.958 14.089-1.023-1.728-2.894-2.904-4.897-4.16l-.257.717c1.654 1.825 3.211 3.622 4.216 6.294a1201.328 1175.798 0 00-5.945 18.522c-11.42 11.562-19.191 13.716-27.248 17.103-.456-8.173-.848-17.176-1.217-26.499 4.839-6.432 12.805-21.226 18.557-35.485 2.492-.937 7.216-2.515 13.992-3.902 7.034-1.44 16.035-12.243 20.338-23.866-.152.087.13.036-.597.036a89.262 87.365 0 01-2.614 5.139c-1.42-1.95-1.286-3.455-1.397-4.478l-.5-.091c-.036 2.316.872 4.92.92 6.275-3.75 6.35-8.69 12.283-15.133 14.765-4.283 1.65-9.155 2.358-13.75 2.92 1.8-4.724 3.318-9.317 4.33-13.437 24.362-11.306 25.84-16.357 30.472-21.814-.387-.348.129-1.818.129-1.818-6.456 7.05-7.592 9.754-20.944 16.333-.62-5.867 2.562-12.284 5.312-18.242l-.818.405c-3.44 6.582-6.15 13.029-7.303 19.19a368.556 360.723 0 01-9.714 4.415c-5.48 20.105-13.875 33.972-21.702 42.933-.6-16.606-1.147-33.953-1.724-50.878 3.504-3.491 7.01-5.02 10.513-6.973l-.18-.983c-4.058 1.598-8.09 3.193-10.445 4.655-.13-3.756-.251-7.644-.388-11.315 7.395-3.987 12.434-6.528 18.96-26.081l-.576.434c-1.56 3.361-2.787 6.49-3.97 8.865a37.39 37.39 0 01-.906 1.692c-1.027.657-2.257-1.541-2.992-4.67l-.523.39c.446 3.017 1.483 4.9 1.928 5.963.085.203.03.574-.08.996-3.683 5.408-8.513 9.457-11.99 8.493a2126.059 2080.876 0 00-.658-15.495c.844-.987 1.582-2.21 2.346-3.8-1.081.986-1.512 1.465-2.452 1.625-.14-2.947-.277-5.921-.426-8.74z" fill="#483737"/><path d="M1110.856 64.75c-8.165.161-18.094 7.443-27.35 19.993-23.018-4.817-18.427 8.744-18.427 8.744-24.12-3.934-31.587 7.575-19.269 24.97-13.6 4.222.928 13.148 6.704 15.748-11.552-.457-46.97 3.823-13.681 19.404-37.786 2.237-49.541 22.781-26.633 31.575 9.956 3.821 31.315 3.277 39.048.9 4.224 4.007 11.016 5.382 14.947 4.142 29.064 15.725 40.798-2.1 49.142-16.396 5.255 34.757 35.945 31.165 44.114 24.047 2.462 10.664 45.464 10.278 42.44-14.756 21.454-3.052 10.83-27.12 3.91-28.42 5.25-9.06-2.388-18.747-15.635-15.303l13 17.589c-29.283-.436-40.443.22-23.69-30.532l10.69 12.943c18.248-30.851-28.731-13.6-46.351-1.64 7.745-7.959 5.333-10.12.559-10.93 12.104-14.176 21.966-25.49 4.468-27.329-1.105-11.58-5.973-18.386-21.22-12.024-2.199-15.929-8.6-22.887-16.765-22.725zm-63.969 103.953c1.024.093 2.074.144 3.115.209a24.977 24.446 0 00-1.393 3.019z" fill="#806600"/><path d="M1100.996 75.488l-.359.187c-.106 2.756-.189 5.728-.28 8.617h-.01l.01.032c-.234 7.418-.438 15.096-.593 23.18-2.273 1.842-7.72-5.822-12.497-16.315-2.062-4.53-3.856-10.684-5.015-14.98l-.446.299c1.068 5.85 2.43 10.854 3.941 15.115-.854 1.34-6.525-1.307-12.684-5.492-.855-.58-1.76-1.275-2.664-1.997l-.62.415c7.59 6.777 13.864 9.078 16.997 9.814 4.592 11.524 10.133 16.9 12.885 18.956-.151 8.732-.279 17.678-.404 26.636-2.15-.8-4.128-2.9-5.086-7.357l-1.276-.209c1.202 6.272 3.804 9.581 6.296 12.266 0 .35-.013.696-.013 1.045-7.469-6.279-14.812-11.731-21.964-15.866l-3.442-.562c.454.25.901.488 1.37.758 9.987 5.75 19.27 12.596 23.913 24.23-.055 3.643-.117 7.22-.178 10.81-9.194-11.497-25.874-19.927-33.359-23.048-2.857-4.822-5.556-9.767-8.594-14.39.528-1.118 3.93-8.848-.901-13.293-1.858-1.71-3.225-2.976-4.992-4.28-1.405-1.48-3.464-3.335-3.535-5.93l-.549-.139c-.052 2.079.196 2.445.987 4.022-1.678-1.01-3.732-2.136-6.575-3.568.067.392-1.211-.071-1.211-.071 4.168 2.288 22.177 11.517 14.112 19.432-2.454-3.304-5.179-6.356-8.39-8.964-8.547.19-12.904-3.223-13.216-4.057 0 0 .085.51.189 1.833 3.953 2.21 8.089 3.37 12.378 4.092 8.487 5.77 14.184 17.537 17.021 26.504 3.646 2.26 10.834 5.009 18.109 10.088-14.24-4.348-26.37-8.526-32.007-14.067a322.908 316.046 0 01-7.28-7.382c-.126-2.296.133-3.99.427-5.708l-.329-.688c-.745 1.543-1.434 2.972-1.287 5.129-5.534-5.892-8.057-9.157-7.616-8.919l-2.609-1.548c8.342 9.111 17.932 21.452 15.754 21.467 12.109 5.321 24.423 11.014 41.72 17.254 4.607 4.436 8.784 10.131 11.537 17.632-.188 9.299-.414 18.298-.72 26.614-4.018-5.753-9.193-10.37-14.24-13.806a358.026 350.417 0 01-8.737-4.573c2.946-6.693.272-12.07-7.321-22.109-.01-1.785.203-3.23.45-4.679l-.328-.687c-.588 1.215-1.14 2.36-1.28 3.843a728.837 713.348 0 00-4.36-5.597l-.773.173c4.988 9.286 16.855 21.948 9.172 26.596-16.444-9.297-28.013-18.226-37.206-29.434-1.273.369-1.273.614-1.273.614 5.812 7.812 13.175 14.423 20.427 19.818-4.262-.545-8.7-1.266-12.638-2.782-6.443-2.482-11.382-8.415-15.133-14.765.048-1.355.957-3.96.92-6.276l-.5.092c-.11 1.023.021 2.528-1.397 4.477a89.295 87.397 0 01-2.614-5.138c-.728 0-.444.05-.597-.037 4.304 11.624 13.047 22.08 20.08 23.52 7.636 1.562 14.635 3.938 17.82 5.091 7.594 5.067 14.536 8.72 18.741 10.87a47.491 46.482 0 012.05 1.406c-6.384-.162-11.983.097-16.525.653-3.497-3.083-14.88-6.032-24.733-9.006l1.23.725c7.606 2.915 19.183 5.293 20.158 8.775-3.16.56-5.61 1.285-7.19 2.114-4.466.517-18.93-1.172-28.828-1.965l1.864.645c7.911.751 14.86 2.624 26.875 2.793 3.783-.763 8.3-4.11 30.616-1.935 8.135 7.31 11.003 16.076 14.502 27.086-.883 15.013-2.181 26.552-4.195 32.097l18.005-.03c-1.736-5.419-3.025-16.728-4.056-31.438 3.214-4.648 8.275-8.95 15.016-14.386 8.371-3.12 15.567-6.1 22.187-8.967l.01.037.135-.099c5.325-2.307 10.297-4.542 15.242-6.715-2.178-.015 7.415-12.355 15.756-21.467l-2.606 1.549c.622-.337-4.565 6.24-16.086 17.567-1.975 1.941-4.76 3.713-8.139 5.385-8.524-10.873 14.445-19.636 19.717-21.818 0 0-1.53.371-1.363-.086-3.49 1.305-6.032 2.355-8.13 3.32 1.249-1.765 1.608-2.166 2.04-4.648l-.641.087c-.69 3.078-3.41 4.997-5.316 6.561-2.266 1.301-4.079 2.618-6.542 4.39-5.25 3.778-4.87 11.013-4.384 14.28-4.507 1.866-9.748 3.63-15.394 5.4a448.89 448.89 0 008.384-6.907c2.57-12.635 5.848-24.252 9.483-34.457 3.16-4.888 6.825-6.858 10.394-9.368l-.35-.962c-2.838 1.438-5.634 2.868-7.746 4.189 1.839-4.684 3.743-9.02 5.68-12.937l-2.183 1.475c-1.515 1.836-3.479 5.517-6.73 14.133-.026.042-.063.085-.085.127l.013.067c-1.39 3.693-3.012 8.274-4.958 14.089-1.023-1.728-2.894-2.904-4.898-4.16l-.256.717c1.653 1.825 3.21 3.622 4.215 6.294a1201.328 1175.798 0 00-5.945 18.522c-11.42 11.562-19.19 13.716-27.247 17.103-.456-8.173-.849-17.176-1.218-26.499 4.84-6.432 12.805-21.226 18.557-35.485 2.493-.937 7.216-2.515 13.993-3.902 7.034-1.44 16.034-12.243 20.338-23.866-.153.087.13.036-.597.036a89.262 87.365 0 01-2.614 5.139c-1.42-1.95-1.286-3.455-1.397-4.478l-.5-.091c-.037 2.316.872 4.92.92 6.275-3.751 6.35-8.69 12.283-15.133 14.765-4.284 1.65-9.156 2.358-13.75 2.92 1.8-4.724 3.318-9.317 4.33-13.437 24.362-11.306 25.84-16.357 30.472-21.814-.387-.348.128-1.818.128-1.818-6.455 7.05-7.592 9.754-20.943 16.333-.62-5.867 2.562-12.284 5.312-18.242l-.818.405c-3.441 6.582-6.15 13.029-7.303 19.19a368.556 360.723 0 01-9.714 4.415c-5.48 20.105-13.876 33.972-21.702 42.933-.601-16.606-1.147-33.953-1.725-50.878 3.504-3.491 7.01-5.02 10.514-6.973l-.181-.983c-4.057 1.598-8.09 3.193-10.445 4.655-.129-3.756-.25-7.644-.387-11.315 7.395-3.987 12.434-6.528 18.96-26.081l-.576.434c-1.561 3.361-2.788 6.49-3.971 8.865a37.37 37.37 0 01-.906 1.692c-1.026.657-2.257-1.541-2.991-4.67l-.524.39c.446 3.017 1.484 4.9 1.928 5.963.085.203.031.574-.08.996-3.683 5.408-8.513 9.457-11.99 8.493a2126.059 2080.876 0 00-.658-15.495c.844-.987 1.583-2.21 2.346-3.8-1.081.986-1.512 1.465-2.452 1.625-.139-2.947-.277-5.921-.426-8.74z" fill="#483737"/><path d="M1060.665 51.305c-16.037-.272-15.82 17.174-7.828 24.693-53.633 24.834-26.318 45.388-1.236 48.15-.598 5.736 7.4 14.725 14.43 17.875-8.66-1.133-18.408-2.466-14.31 7.76-14.097-6.866-44.295-22.646-42.998-.547-17.164-1.379-3.05 15.857 3.106 13.356-17.746 17.526 32.474 26.34 51.619 16.157 12.828-7.459 13.614-10.54 21.22 1.64 23.232 19.193 33.07 14.798 48.023-10.931 6.86 8.071 15.051 4.416 22.895 3.826 3.716 11.716 8.691 12.362 13.404 15.303-13.242 33.007 14.452 16.313 37.971 10.932 30.023 5.931 46.132-3.452 16.793-16.297 2.943-2.53 2.778-4.493-2.273-5.565 21.973 1.918 11.834-11.465 0-19.13 15.026-3.251 5.958-27.089-20.663-25.689 1.842-8.44-11.453-35.72-35.996-12.91 6.067-8.488 3.022-24.435-11.402-21.539 10.507-9.166-1.216-19.308-14.027-29.496-9.711-4.141-16.14-5.133-20.339-4.357 2.241-17.479-24.202-14.329-36.62-6.028-9.273-5.053-16.424-7.111-21.77-7.203zm68.24 29.198c6.202.193 9.093 7.514-5.062 15.035 29.293 17.948 3.834 26.267-5.527 5.024-23.245-6.06-29.77-14.374-1.186-11.207 3.139-6.514 8.053-8.967 11.775-8.852zm39.432 62.859c7.936-.066 14.714 4.876 13.495 11.887-.44 10.572-16.476 13.886-20.445 5.347 0 0-20.158 9.082-20.878-3.161-1.111-13.501 13.461-15.479 15.386-9.425 3.81-3.206 8.285-4.614 12.442-4.648z" fill="#d4aa00"/><path d="M1060.62 51.305c-3.764-.064-6.622.858-8.704 2.389-2.512 7.043 1.192 19.091 14.28 38.973-25.716 44.867 12.581 44.626 39.648 32.793 1.03 9.932 1.182 36.469 34.107 14.93-1.676 2.808-2.509 7.033 1.175 11.15 2.823-8.04 13.128-8.556 14.726-3.531 3.81-3.206 8.285-4.614 12.442-4.648 7.936-.066 14.714 4.876 13.495 11.887-.44 10.573-16.476 13.886-20.445 5.347-3.698 26.38 15.204 27.984 40.548 22.526 17.79 13.923 29.348 16.354 37.306 12.14-.192-3.182-4.852-7.383-15.488-12.04 2.943-2.529 2.779-4.492-2.273-5.565 21.973 1.918 11.834-11.464 0-19.13 15.027-3.25 5.958-27.088-20.663-25.688 1.842-8.44-11.453-35.72-35.995-12.911 6.066-8.487 3.021-24.434-11.402-21.538 10.506-9.166-1.216-19.308-14.028-29.497-9.71-4.14-16.14-5.133-20.338-4.357 2.24-17.478-24.203-14.328-36.62-6.027-9.274-5.054-16.425-7.112-21.77-7.203zm68.24 29.197c6.203.193 9.095 7.515-5.061 15.036 29.293 17.948 3.835 26.267-5.527 5.024-23.245-6.06-29.77-14.375-1.186-11.207 3.14-6.515 8.053-8.967 11.775-8.852z" fill="#fc0"/><path d="M1272.911 247.13s51.336.782 41.864-.22c-9.471-1.004 57.92-1.139 54.101.11-5.397 1.763 13.329-1.897 29.23-1.897 15.902 0 45.045-.368 41.67 1.18-3.377 1.55-4.524 1.46-8.958 2.352-4.434.892-34.949.892-34.949.892s9.49-2.26-.065-1.55c-9.555.709-12.089 1.193-12.089 1.193l-51.758.165s7.261-1.76 1.38-1.43c-5.88.33-8.862 2.086-8.862 2.086s-61.006-.417-57.807-1.122c3.198-.704 6.243-1.76 6.243-1.76z" fill="#d4aa00"/><path d="M1350.996 75.488l-.359.187c-.106 2.756-.189 5.728-.28 8.617h-.01l.01.032c-.234 7.418-.438 15.096-.593 23.18-2.273 1.842-7.72-5.822-12.497-16.315-2.062-4.53-3.856-10.684-5.015-14.98l-.446.299c1.068 5.85 2.43 10.854 3.941 15.115-.854 1.34-6.525-1.307-12.684-5.492-.855-.58-1.76-1.275-2.664-1.997l-.62.415c7.59 6.777 13.864 9.078 16.997 9.814 4.592 11.524 10.133 16.9 12.885 18.956-.151 8.732-.279 17.678-.404 26.636-2.15-.8-4.128-2.9-5.086-7.357l-1.276-.209c1.202 6.272 3.804 9.581 6.296 12.266 0 .35-.013.696-.013 1.045-7.469-6.279-14.812-11.731-21.964-15.866l-3.442-.562c.454.25.901.488 1.37.758 9.987 5.75 19.27 12.596 23.913 24.23-.055 3.643-.117 7.22-.178 10.81-9.194-11.497-25.874-19.927-33.359-23.048-2.857-4.822-5.556-9.767-8.594-14.39.528-1.118 3.93-8.848-.901-13.293-1.858-1.71-3.225-2.976-4.992-4.28-1.405-1.48-3.464-3.335-3.535-5.93l-.549-.139c-.052 2.079.196 2.445.987 4.022-1.678-1.01-3.732-2.136-6.575-3.568.067.392-1.211-.071-1.211-.071 4.168 2.288 22.177 11.517 14.112 19.432-2.454-3.304-5.179-6.356-8.39-8.964-8.547.19-12.904-3.223-13.216-4.057 0 0 .085.51.189 1.833 3.953 2.21 8.089 3.37 12.378 4.092 8.487 5.77 14.184 17.537 17.021 26.504 3.646 2.26 10.834 5.009 18.109 10.088-14.24-4.348-26.37-8.526-32.007-14.067a322.908 316.046 0 01-7.28-7.382c-.126-2.296.133-3.99.427-5.708l-.329-.688c-.745 1.543-1.434 2.972-1.287 5.129-5.534-5.892-8.057-9.157-7.616-8.919l-2.609-1.548c8.342 9.111 17.932 21.452 15.754 21.467 12.109 5.321 24.423 11.014 41.72 17.254 4.607 4.436 8.784 10.131 11.537 17.632-.188 9.299-.414 18.298-.72 26.614-4.018-5.753-9.193-10.37-14.24-13.806a358.026 350.417 0 01-8.737-4.573c2.946-6.693.272-12.07-7.321-22.109-.01-1.785.203-3.23.45-4.679l-.328-.687c-.588 1.215-1.14 2.36-1.28 3.843a728.837 713.348 0 00-4.36-5.597l-.773.173c4.988 9.286 16.855 21.948 9.172 26.596-16.444-9.297-28.013-18.226-37.206-29.434-1.273.369-1.273.614-1.273.614 5.812 7.812 13.175 14.423 20.427 19.818-4.262-.545-8.7-1.266-12.638-2.782-6.443-2.482-11.382-8.415-15.133-14.765.048-1.355.957-3.96.92-6.276l-.5.092c-.11 1.023.021 2.528-1.397 4.477a89.295 87.397 0 01-2.614-5.138c-.728 0-.444.05-.597-.037 4.304 11.624 13.047 22.08 20.08 23.52 7.636 1.562 14.635 3.938 17.82 5.091 7.594 5.067 14.536 8.72 18.741 10.87a47.491 46.482 0 012.05 1.406c-6.384-.162-11.983.097-16.525.653-3.497-3.083-14.88-6.032-24.733-9.006l1.23.725c7.606 2.915 19.183 5.293 20.158 8.775-3.16.56-5.61 1.285-7.19 2.114-4.466.517-18.93-1.172-28.828-1.965l1.864.645c7.911.751 14.86 2.624 26.875 2.793 3.783-.763 8.3-4.11 30.616-1.935 8.135 7.31 11.003 16.076 14.502 27.086-.883 15.013-2.181 26.552-4.195 32.097l18.005-.03c-1.736-5.419-3.025-16.728-4.056-31.438 3.214-4.648 8.275-8.95 15.016-14.386 8.371-3.12 15.567-6.1 22.187-8.967l.01.037.135-.099c5.325-2.307 10.297-4.542 15.242-6.715-2.178-.015 7.415-12.355 15.756-21.467l-2.606 1.549c.622-.337-4.565 6.24-16.086 17.567-1.975 1.941-4.76 3.713-8.139 5.385-8.524-10.873 14.445-19.636 19.717-21.818 0 0-1.53.371-1.363-.086-3.49 1.305-6.032 2.355-8.13 3.32 1.249-1.765 1.608-2.166 2.04-4.648l-.641.087c-.69 3.078-3.41 4.997-5.316 6.56-2.266 1.302-4.079 2.619-6.542 4.391-5.25 3.778-4.87 11.012-4.384 14.28-4.507 1.866-9.748 3.63-15.394 5.4a448.89 448.89 0 008.384-6.907c2.57-12.635 5.848-24.252 9.483-34.457 3.16-4.888 6.825-6.858 10.394-9.368l-.35-.962c-2.838 1.438-5.634 2.868-7.746 4.189 1.839-4.684 3.743-9.02 5.68-12.937l-2.183 1.475c-1.515 1.836-3.479 5.517-6.73 14.133-.026.042-.063.085-.085.127l.013.067c-1.39 3.693-3.012 8.274-4.958 14.089-1.023-1.728-2.894-2.904-4.898-4.16l-.256.717c1.653 1.825 3.21 3.622 4.215 6.294a1201.328 1175.798 0 00-5.945 18.522c-11.42 11.562-19.19 13.716-27.247 17.102-.456-8.172-.849-17.175-1.218-26.498 4.84-6.432 12.805-21.226 18.557-35.485 2.493-.937 7.216-2.515 13.993-3.902 7.034-1.44 16.034-12.243 20.338-23.866-.153.087.13.036-.597.036a89.262 87.365 0 01-2.614 5.139c-1.42-1.95-1.286-3.455-1.397-4.478l-.5-.091c-.037 2.316.872 4.92.92 6.275-3.751 6.35-8.69 12.283-15.133 14.765-4.284 1.65-9.156 2.358-13.75 2.92 1.8-4.724 3.318-9.317 4.33-13.437 24.362-11.306 25.84-16.357 30.472-21.814-.387-.348.128-1.818.128-1.818-6.455 7.05-7.592 9.754-20.943 16.333-.62-5.867 2.562-12.284 5.312-18.242l-.818.405c-3.441 6.582-6.15 13.029-7.303 19.19a368.556 360.723 0 01-9.714 4.415c-5.48 20.105-13.876 33.972-21.702 42.933-.601-16.606-1.147-33.953-1.725-50.878 3.504-3.491 7.01-5.02 10.514-6.973l-.181-.983c-4.057 1.598-8.09 3.193-10.445 4.655-.129-3.756-.25-7.644-.387-11.315 7.395-3.987 12.434-6.528 18.96-26.081l-.576.434c-1.561 3.361-2.788 6.49-3.971 8.865a37.37 37.37 0 01-.906 1.692c-1.026.657-2.257-1.541-2.991-4.67l-.524.39c.446 3.017 1.484 4.9 1.928 5.963.085.203.031.574-.08.996-3.683 5.408-8.513 9.457-11.99 8.493a2126.059 2080.876 0 00-.658-15.495c.844-.987 1.583-2.21 2.346-3.8-1.081.986-1.512 1.465-2.452 1.625-.139-2.947-.277-5.921-.426-8.74z" fill="#483737"/><path d="M409.516 190.086c-.447-.446.89-1.928 2.204-2.668 1.314-.741 2.603-.741 3.842-.543 1.24.199 2.43.595 2.232 1.041-.2.446-1.786.942-3.694 1.485-1.908.542-4.137 1.132-4.584.685z" fill="#bae57f"/><path d="M410.064 169.975c-1.09.645-2.544-2.198-2.726-4.414-.182-2.215.91-3.802 2-4.447 1.092-.644 2.183-.347 2.364 1.869.18 2.215-.548 6.348-1.638 6.992zM422.916 168.67c-.619-.98-.987-3.458-.775-5.44.212-1.984 1.005-3.471 1.75-3.57.743-.099 1.438 1.19 1.66 2.915.22 1.724-.03 3.885-.589 5.222-.559 1.338-1.427 1.854-2.046.874zM407.15 147.609c.692-1.626 2.196-4.556 3.245-5.177 1.05-.622 1.645 1.064.951 2.689-.693 1.624-2.675 3.189-3.724 3.811-1.05.623-1.166.302-.473-1.323z" fill="#ccef7f"/><path d="M385.432 165.895c-.446 1.09-2.598.79-3.972-.402-1.374-1.191-1.969-3.273-1.522-4.365.446-1.091 1.934-1.19 3.307.002 1.374 1.193 2.633 3.675 2.187 4.766z" fill="#bae57f"/><path d="M402.277 140.1c-.54-1.048-.892-3.635-.622-5.079.27-1.443 1.163-1.74 1.702-.692.54 1.049.728 3.443.458 4.885-.27 1.442-.997 1.933-1.538.886zM389.575 109.688c-1.137-.206-2.129-3.181-2.377-5.71-.248-2.53.248-4.612 1.386-4.405 1.138.207 2.916 2.704 3.164 5.232.247 2.528-1.036 5.09-2.173 4.883zM406.423 123.208c.696.979 3.157 1.212 4.882.535 1.726-.676 2.718-2.263 2.023-3.242-.694-.98-3.076-1.35-4.803-.674-1.727.677-2.798 2.402-2.102 3.38zM409.6 108.094c-1.153-.357-1.252-3.035-.756-5.217.496-2.182 1.587-3.868 2.739-3.509s2.365 2.761 1.869 4.942c-.496 2.182-2.7 4.142-3.853 3.784zM371.296 79.735c-.743.397-2.043-1.832-2.545-3.69-.502-1.858-.204-3.346.54-3.743.745-.396 1.935.298 2.435 2.156s.313 4.88-.43 5.277zM362.851 86.055c-.892.248-2.643-2.554-3.073-4.501-.43-1.948.462-3.038 1.355-3.286.894-.248 1.786.347 2.215 2.294.429 1.947.396 5.245-.497 5.493z" fill="#ccef7f"/><path d="M287.285 181.11c1.482.723 1.072.481.377-.858-.695-1.339-1.675-3.776-3.157-4.499-1.482-.723-3.465.268-2.77 1.608.696 1.34 4.069 3.027 5.55 3.75zM272.903 190.436c.595-1.09-1.088-3.388-2.475-4.042-1.387-.654-2.478.338-3.073 1.429-.595 1.091-.695 2.281.693 2.934 1.387.653 4.26.77 4.855-.321zM344.17 132.598c-.892.446-2.834-1.934-3.706-3.77-.872-1.834-.674-3.123.22-3.57.893-.446 2.48-.05 3.35 1.786.872 1.835 1.028 5.108.136 5.554z" fill="#bae57f"/><path d="M363.167 112.476c-1.14-.644-.716-3.328.29-4.72 1.005-1.393 2.592-1.492 3.732-.847 1.14.646 1.835 2.034.83 3.425-1.006 1.391-3.711 2.786-4.852 2.142zM350.996 75.488c-1.09 0-2.936-3.11-3.165-5.163-.228-2.051 1.16-3.043 2.251-3.042 1.091 0 1.885.992 2.113 3.043.228 2.051-.109 5.162-1.2 5.162z" fill="#ccef7f"/><path d="M331.345 74.565c-.76-1.743-2.426-5.13-2.466-7.172-.04-2.042 1.546-2.736 2.38-1.042.833 1.695.913 5.777.879 7.867-.034 2.09-.183 2.19-.183 2.19s.149-.1-.61-1.843zM320.4 84.134c-.992.991-4.253-.219-6.082-2.112-1.83-1.894-2.226-4.472-1.234-5.464.993-.992 3.373-.397 5.2 1.497 1.83 1.895 3.107 5.087 2.115 6.079zM297.496 104.13c-1.388-.545-2.378-3.819-2.179-5.952.2-2.134 1.588-3.126 2.976-2.58 1.39.547 2.777 2.629 2.578 4.761-.2 2.133-1.987 4.316-3.375 3.77zM290.148 104.373c.594-.05-.432-2.734-1.54-4.027-1.109-1.294-2.299-1.195-1.785.148.513 1.343 2.73 3.928 3.325 3.879zM326.597 128.084c.53-1.563.444-4.876-.492-6.732-.935-1.855-2.72-2.252-3.25-.688-.531 1.563.193 5.086 1.13 6.941.935 1.855 2.083 2.042 2.612.48zM282.654 110.784c-1.199-3.111-2.398-6.223-3.89-7.383-1.492-1.16-3.277-.367-2.677 1.19.6 1.556 3.584 3.875 6.567 6.193M291.49 126.144c-1.057.332-1.82-1.919-1.143-3.377.677-1.459 2.792-2.123 3.173-.997.381 1.126-.972 4.041-2.03 4.374zM279.65 120.118c.446-1.537-1.811-5.202-3.635-6.093-1.823-.891-3.211.993-3.657 2.53-.446 1.538.05 2.728 1.873 3.618 1.823.89 4.973 1.481 5.42-.055zM283.318 152.812c2.109-1.45 3.763-5.482 3.648-7.597-.115-2.115-1.999-2.313-4.11-.863-2.11 1.45-4.444 4.55-4.328 6.665.116 2.115 2.681 3.245 4.79 1.795zM270.513 148.815c-1.14.15-2.953-2.054-3.364-3.85-.411-1.796.58-3.185 1.721-3.333 1.141-.149 2.43.942 2.84 2.738.41 1.796-.057 4.297-1.197 4.445z" fill="#bae57f"/><path d="M1409.516 190.086c-.447-.446.89-1.928 2.204-2.669 1.314-.74 2.603-.74 3.843-.542 1.24.199 2.43.595 2.23 1.041-.198.446-1.785.942-3.693 1.485-1.908.542-4.137 1.132-4.584.685z" fill="#d4aa00"/><path d="M1410.064 169.975c-1.09.645-2.544-2.198-2.726-4.414-.182-2.216.91-3.802 2-4.447 1.092-.644 2.183-.347 2.364 1.869.18 2.215-.548 6.348-1.638 6.992zM1422.916 168.67c-.619-.98-.987-3.458-.775-5.44.212-1.984 1.005-3.471 1.75-3.57.743-.099 1.438 1.19 1.66 2.915.22 1.724-.03 3.885-.589 5.222-.559 1.338-1.427 1.854-2.046.874zM1407.15 147.609c.692-1.626 2.196-4.556 3.245-5.177 1.05-.622 1.645 1.064.952 2.689-.694 1.624-2.676 3.189-3.725 3.811-1.049.623-1.166.302-.473-1.323z" fill="#ffe680"/><path d="M1385.432 165.895c-.446 1.09-2.598.79-3.972-.402-1.374-1.191-1.969-3.273-1.522-4.365.446-1.091 1.934-1.19 3.307.002 1.374 1.193 2.633 3.675 2.187 4.766z" fill="#d4aa00"/><path d="M1402.277 140.1c-.54-1.048-.892-3.635-.622-5.079.27-1.443 1.163-1.74 1.702-.692.54 1.049.728 3.443.458 4.885-.27 1.442-.997 1.933-1.538.886z" fill="#ffe680"/><path d="M1389.575 109.688c-1.137-.206-2.128-3.181-2.377-5.71-.248-2.53.248-4.612 1.386-4.405 1.138.207 2.916 2.704 3.164 5.232.247 2.528-1.036 5.09-2.173 4.883zM1406.423 123.208c.696.979 3.157 1.212 4.882.535 1.726-.676 2.718-2.263 2.023-3.242-.694-.98-3.076-1.35-4.803-.674-1.727.677-2.798 2.402-2.102 3.38zM1409.6 108.094c-1.152-.357-1.252-3.035-.756-5.217.496-2.182 1.587-3.868 2.739-3.509s2.365 2.761 1.869 4.942c-.496 2.181-2.7 4.142-3.853 3.784zM1371.296 79.735c-.743.397-2.043-1.832-2.545-3.69-.502-1.858-.204-3.346.54-3.743.745-.396 1.935.298 2.435 2.156s.313 4.88-.43 5.277zM1362.851 86.055c-.892.248-2.643-2.554-3.073-4.501-.43-1.948.463-3.038 1.356-3.286.893-.248 1.785.347 2.214 2.294.43 1.947.396 5.245-.496 5.493z" fill="#fd5"/><path d="M1287.285 181.11c1.482.723 1.072.481.377-.858-.695-1.339-1.675-3.776-3.157-4.499-1.482-.723-3.465.268-2.77 1.608.696 1.34 4.069 3.027 5.55 3.75zM1272.903 190.436c.595-1.09-1.088-3.388-2.475-4.042-1.387-.654-2.478.338-3.073 1.429-.595 1.091-.695 2.281.693 2.934 1.387.653 4.26.77 4.855-.321zM1344.17 132.598c-.892.446-2.834-1.934-3.706-3.77-.872-1.834-.674-3.123.22-3.57.893-.446 2.48-.05 3.35 1.786.872 1.835 1.029 5.108.136 5.554z" fill="#d4aa00"/><path d="M1363.167 112.476c-1.14-.644-.716-3.328.29-4.72 1.005-1.393 2.592-1.492 3.732-.847 1.14.646 1.835 2.034.83 3.425-1.006 1.391-3.711 2.786-4.852 2.142z" fill="#fd5"/><path d="M1350.996 75.488c-1.09 0-2.936-3.11-3.165-5.163-.228-2.051 1.16-3.043 2.251-3.042 1.091 0 1.885.992 2.113 3.043.228 2.051-.109 5.162-1.2 5.162z" fill="#ffd42a"/><path d="M1331.345 74.565c-.759-1.743-2.426-5.13-2.466-7.172-.04-2.042 1.547-2.736 2.38-1.042.833 1.695.913 5.777.879 7.867-.034 2.09-.183 2.19-.183 2.19s.149-.1-.61-1.843zM1320.4 84.134c-.992.991-4.253-.219-6.082-2.112-1.829-1.894-2.226-4.472-1.233-5.464.992-.992 3.372-.397 5.2 1.497 1.828 1.895 3.106 5.087 2.114 6.079zM1297.496 104.13c-1.388-.545-2.378-3.819-2.179-5.952.2-2.134 1.588-3.126 2.976-2.58 1.39.547 2.778 2.629 2.578 4.761-.2 2.133-1.987 4.316-3.375 3.77zM1290.148 104.373c.595-.05-.432-2.734-1.54-4.027-1.109-1.294-2.299-1.195-1.785.148.513 1.343 2.73 3.928 3.325 3.879zM1326.598 128.084c.53-1.563.443-4.876-.492-6.732-.936-1.855-2.72-2.252-3.251-.688-.531 1.563.193 5.086 1.13 6.941.936 1.855 2.083 2.042 2.613.48zM1282.654 110.784c-1.199-3.111-2.398-6.223-3.89-7.383-1.492-1.16-3.277-.367-2.677 1.19.6 1.556 3.584 3.875 6.567 6.193M1291.491 126.144c-1.058.332-1.82-1.919-1.144-3.377.677-1.459 2.792-2.123 3.173-.997.381 1.126-.972 4.041-2.029 4.374zM1279.65 120.118c.446-1.537-1.811-5.202-3.634-6.093-1.824-.891-3.212.993-3.658 2.53-.446 1.538.05 2.728 1.873 3.618 1.823.89 4.973 1.481 5.42-.055zM1283.318 152.812c2.109-1.45 3.763-5.482 3.648-7.597-.115-2.115-1.999-2.313-4.109-.863-2.11 1.45-4.445 4.55-4.33 6.665.117 2.115 2.682 3.245 4.791 1.795zM1270.513 148.815c-1.14.15-2.953-2.054-3.364-3.85-.411-1.796.58-3.185 1.721-3.333 1.142-.149 2.43.942 2.84 2.738.41 1.796-.057 4.297-1.197 4.445z" fill="#d4aa00"/><path d="M560.107 51.305c-3.764-.064-6.623.857-8.705 2.388-2.512 7.044 1.192 19.092 14.28 38.973-25.716 44.868 12.582 44.628 39.648 32.795 1.03 9.932 1.183 36.467 34.108 14.93-1.676 2.807-2.509 7.032 1.175 11.15 2.823-8.04 13.129-8.558 14.727-3.533 3.81-3.206 8.284-4.612 12.441-4.647 7.936-.066 14.714 4.876 13.494 11.887-.44 10.572-16.475 13.886-20.445 5.348 3.336 22.894 34.039 38.793 33.008 12.681 41.216-31.487 25.154-31.949 6.424-40.44 1.732-7.935-9.923-32.517-31.725-16.462a147.381 147.381 0 00-5.1 4.525c-1.072-.38-2.467-.58-4.32-.46-6.125.394-10.693 6.266-13.082 10.15-.354-.667-.679-1.414-.996-2.182.483-5.055.361-12.446-3.406-17.437-6.21-8.229-13.637 16.07-13.637 16.07s1.582-20.295-4.543-27.479c-5.292-4.636-9.037-2.065-6.554-3.273 16.806-9.46 21.31-21.592 1.658-29.486l.037-3.455c.893-16.13-24.591-12.946-36.717-4.84-9.273-5.054-16.424-7.112-21.77-7.203z" fill="#ccef7f"/><g><path d="M856.14 68.41c-.71.04-.925.29-1.164.978-.1-.407-.278-.464-.266-.448l-.076-.012c.17.161.263.282.3.585-.107.325-.223.73-.393 1.254h.312c.22-.71.47-1.904 1.487-2.086z" fill="#483737"/><path d="M855.13 69.595c-3.747-1.25-2.925 3.912-.984 3.423 3.492-.878.35-.987.35-.987s1.234 1.606 2.112.861c2.117-1.221.966-4.462-1.48-3.297z" fill="#a00"/><path d="M853.71 67.544c-.202 1.348.74 1.56 1.088 1.514.33-.782-.406-1.284-1.088-1.514z" fill="#bae57f"/><path d="M880.867 95.963c-.979.056-1.277.4-1.606 1.35-.14-.56-.384-.637-.368-.617l-.105-.016c.234.222.363.39.413.807-.146.45-.306 1.007-.543 1.731h.432c.303-.978.65-2.629 2.053-2.88z" fill="#483737"/><path d="M879.47 97.53c-5.172-1.37-4.164 3.994-1.356 3.752 5.661-.487-1.135-.639-1.135-.639s2.6.725 4.535.501c2.924-1.339 1.334-4.892-2.043-3.614z" fill="#a00"/><path d="M877.513 94.766c-.28 1.865 1.02 2.154 1.501 2.093.455-1.08-.561-1.773-1.501-2.091z" fill="#bae57f"/><path d="M872.86 149.542c-.952.054-1.244.39-1.564 1.313-.134-.544-.371-.621-.355-.601l-.102-.016c.227.218.35.379.401.786-.144.437-.298.98-.528 1.683h.42c.295-.953.632-2.557 1.996-2.8z" fill="#483737"/><path d="M871.502 151.064c-5.03-1.33-3.45 3.71-1.319 3.65 1.074-.244 1.429-.343 2.703-.077 2.843-1.301 1.898-4.813-1.384-3.571z" fill="#a00"/><path d="M869.597 148.379c-.271 1.811.994 2.094 1.461 2.033.442-1.048-.546-1.723-1.461-2.033z" fill="#bae57f"/><path d="M795.14 138.841c-.681-.064-1 .163-1.538.842.092-.436-.047-.522-.043-.504l-.065-.024c.082.195.114.333.01.653-.25.324-.545.727-.946 1.247l.292.046c.532-.705 1.318-1.91 2.352-1.948z" fill="#483737"/><path d="M793.67 139.87c-3.045-1.592-3.858 2.222-2.17 2.68.973.041 1.243.157 2.348.263 2.428-.693 2.538-3.54-.177-2.943z" fill="#a00"/><path d="M793.267 137.577c-.81 1.373-.027 1.733.32 1.738.668-.764.212-1.396-.32-1.738z" fill="#bae57f"/><path d="M906.85 120.522c-.898.051-1.172.368-1.474 1.238-.128-.513-.352-.584-.337-.565l-.096-.015c.214.204.333.357.379.74-.135.412-.281.924-.499 1.588h.397c.278-.897.596-2.411 1.883-2.643z" fill="#483737"/><path d="M905.569 121.96c-4.745-1.258-3.82 3.663-1.244 3.441 5.193-.447-1.042-.586-1.042-.586s2.385.665 4.16.46c2.683-1.228 1.224-4.487-1.874-3.316z" fill="#a00"/><path d="M903.773 119.424c-.256 1.71.936 1.976 1.377 1.92.417-.99-.515-1.626-1.377-1.918z" fill="#bae57f"/><g><path d="M783.354 171.496c-.98.056-1.277.401-1.607 1.35-.14-.56-.383-.637-.367-.616l-.105-.017c.234.223.363.39.413.807-.147.45-.307 1.008-.544 1.732h.433c.303-.979.65-2.63 2.053-2.881z" fill="#483737"/><path d="M781.957 173.063c-5.172-1.37-4.164 3.994-1.356 3.752 5.661-.487-1.136-.638-1.136-.638s2.6.725 4.536.5c2.924-1.338 1.334-4.891-2.044-3.614z" fill="#a00"/><path d="M780 170.3c-.28 1.864 1.02 2.154 1.5 2.093.456-1.08-.56-1.773-1.5-2.092z" fill="#bae57f"/></g><g><path d="M849.652 103.338c-.71.04-.926.29-1.164.977-.1-.406-.278-.463-.266-.447l-.076-.012c.169.161.262.282.299.584-.107.326-.222.73-.393 1.255h.312c.22-.71.47-1.905 1.488-2.086z" fill="#483737"/><path d="M848.64 104.523c-3.746-1.25-2.924 3.912-.983 3.423 3.492-.879.35-.988.35-.988s1.234 1.607 2.112.862c2.118-1.221.966-4.462-1.48-3.297z" fill="#a00"/><path d="M847.222 102.471c-.202 1.349.74 1.56 1.087 1.515.33-.782-.405-1.284-1.087-1.515z" fill="#bae57f"/></g><g><path d="M1106.14 68.41c-.71.04-.925.29-1.163.978-.1-.407-.278-.464-.267-.448l-.076-.012c.17.161.263.282.3.585-.107.325-.223.73-.393 1.254h.312c.22-.71.47-1.904 1.488-2.086z" fill="#483737"/><path d="M1105.13 69.595c-3.747-1.25-2.925 3.912-.984 3.423 3.492-.878.35-.987.35-.987s1.234 1.606 2.112.861c2.117-1.221.966-4.462-1.48-3.297z" fill="#a00"/><path d="M1103.71 67.544c-.201 1.348.741 1.56 1.088 1.514.33-.782-.405-1.284-1.087-1.514z" fill="#bae57f"/></g><g><path d="M1130.868 95.963c-.98.056-1.278.4-1.607 1.35-.14-.56-.384-.637-.368-.617l-.104-.016c.233.222.362.39.412.807-.146.45-.306 1.007-.543 1.731h.432c.303-.978.65-2.629 2.053-2.88z" fill="#483737"/><path d="M1129.47 97.53c-5.172-1.37-4.164 3.994-1.356 3.752 5.662-.487-1.135-.639-1.135-.639s2.6.725 4.535.501c2.925-1.339 1.334-4.892-2.043-3.614z" fill="#a00"/><path d="M1127.513 94.766c-.28 1.865 1.02 2.154 1.501 2.093.455-1.08-.56-1.773-1.501-2.091z" fill="#bae57f"/></g><g><path d="M1122.86 149.542c-.952.054-1.243.39-1.563 1.313-.135-.544-.372-.621-.356-.601l-.102-.016c.227.218.351.379.401.786-.144.437-.298.98-.528 1.683h.42c.295-.953.632-2.557 1.996-2.8z" fill="#483737"/><path d="M1121.502 151.064c-5.03-1.33-3.45 3.71-1.319 3.65 1.074-.244 1.429-.343 2.704-.077 2.842-1.301 1.897-4.813-1.385-3.571z" fill="#a00"/><path d="M1119.597 148.379c-.271 1.811.994 2.094 1.461 2.033.443-1.048-.545-1.723-1.461-2.033z" fill="#bae57f"/></g><g><path d="M1045.14 138.841c-.68-.064-1 .163-1.538.842.092-.436-.047-.522-.042-.504l-.066-.024c.082.195.115.333.01.653-.25.324-.545.727-.946 1.247l.293.046c.532-.705 1.317-1.91 2.351-1.948z" fill="#483737"/><path d="M1043.671 139.87c-3.045-1.592-3.86 2.222-2.172 2.68.975.041 1.244.157 2.349.263 2.428-.693 2.538-3.54-.177-2.943z" fill="#a00"/><path d="M1043.267 137.577c-.81 1.373-.027 1.733.32 1.738.668-.764.212-1.396-.32-1.738z" fill="#bae57f"/></g><g><path d="M1156.85 120.522c-.898.051-1.172.368-1.473 1.238-.13-.513-.352-.584-.338-.565l-.096-.015c.215.204.333.357.379.74-.135.412-.281.924-.499 1.588h.397c.278-.897.596-2.411 1.883-2.643z" fill="#483737"/><path d="M1155.569 121.96c-4.745-1.258-3.82 3.663-1.244 3.441 5.193-.447-1.042-.586-1.042-.586s2.385.665 4.16.46c2.683-1.228 1.224-4.487-1.874-3.316z" fill="#a00"/><path d="M1153.773 119.424c-.256 1.71.936 1.976 1.377 1.92.417-.99-.515-1.626-1.377-1.918z" fill="#bae57f"/></g><g><path d="M1033.354 171.496c-.979.056-1.277.401-1.606 1.35-.14-.56-.384-.637-.368-.616l-.105-.017c.234.223.363.39.413.807-.147.45-.306 1.008-.544 1.732h.433c.303-.979.65-2.63 2.053-2.881z" fill="#483737"/><path d="M1031.957 173.063c-5.172-1.37-4.164 3.994-1.356 3.752 5.661-.487-1.136-.638-1.136-.638s2.6.725 4.536.5c2.924-1.338 1.334-4.891-2.044-3.614z" fill="#a00"/><path d="M1030 170.3c-.28 1.864 1.02 2.154 1.5 2.093.456-1.08-.56-1.773-1.5-2.092z" fill="#bae57f"/></g><g><path d="M1099.652 103.338c-.71.04-.926.29-1.164.977-.1-.406-.278-.463-.266-.447l-.076-.012c.17.161.263.282.299.584-.106.326-.222.73-.393 1.255h.312c.22-.71.47-1.905 1.488-2.086z" fill="#483737"/><path d="M1098.641 104.523c-3.747-1.25-2.924 3.912-.983 3.423 3.492-.879.35-.988.35-.988s1.233 1.607 2.112.862c2.117-1.221.965-4.462-1.48-3.297z" fill="#a00"/><path d="M1097.222 102.471c-.202 1.349.74 1.56 1.087 1.515.33-.782-.405-1.284-1.087-1.515z" fill="#bae57f"/></g></g></svg>