<svg xmlns="http://www.w3.org/2000/svg" width="2250mm" height="250mm" viewBox="0 0 2250 250"><path d="M863.97 19.32l4.644-16.252 9.284 14.7 15.47-7.732v14.692c12.496 3.35 17.305 4.168 36.1-.508-6.24 16.913-5.252 23.716-4.38 30.683 2.717 1.683 6.265 1.708 11.885-2.415-2.427 9.768-5.678 15.408-9.565 17.885 7.518 9.478 13.192 9.718 19.34 12.38-9.709 10.955-12.901 12.133-17.016 14.701l13.791-2.903c-1.211 7.034-3.535 12.956-9.097 15.64l2.266 36-13.923-1.547-1.548 17.794-11.607-10.057-1.547 15.474-13.15-10.834-27.081 11.607-15.47-23.984-12.38 14.7-3.094-16.25-15.474-6.187 10.057-6.963-28.624-13.15 17.794-29.401-14.7-9.284 15.473-3.866-5.417-22.438 20.118-2.32-.156-28.06c4.433-.048 12.695 1.579 17.128.077l7.608-11.289 3.263 9.098z" fill="#526043"/><path d="M839.602 55.08c-.031-.015-.062-.012-.078.032-.729 1.381 2.026 37.787 11 63.21 6.024 17.078 12.244 23.57 21.883 35.662-.636 24.033-1.141 55.345-1.468 95.882l23.207-.773c-2.754-33.537-5.69-72.726-8.523-104.062l24.356-10.656c5.81-21.334 11.62-42.663 11.256-42.481-.226.11-2.87 8.634-6.69 17.57l-.047-.012c-1.588-.297-4.826-.753-7.49-3.498-2.666-2.746-4.755-7.779-4.982-7.688-.227.094 1.406 5.306 3.04 10.524l6.574 5.128c.29.223.488.377.666.505-1.75 3.655-3.656 7.129-5.645 9.846-6.31 8.634-19.968 9.601-21.937 10.929-4.747-49.775-9.11-72.138-11.723-.166-6.567-6.327-14.804-12.761-20.883-28.239-7.393-18.807-11.586-50.974-12.504-51.71z" fill="#4a4840"/><path d="M814.894 89.742l-6.963 20.113 10.834-4.64 3.866 18.567 32.494-20.89 11.604 10.06 17.02-27.081 5.417 15.474 24.753-19.34 2.324 11.603 8.51-12.377 8.51 5.963 17.794-35.36 10.4-3.928-19.683-14.639-2.324-17.797-20.114 6.19L894.58 0l-16.681 17.769-17.194-7.547-16.599 22.495-17.115-1.96-.493 11.79-27.846-7.729 8.51 19.34-4.64 33.268 12.377 2.316z" fill="#9cb43a"/><path d="M798.651 34.81l8.506 19.344-4.64 33.268 12.377 2.315-6.963 20.118 10.834-4.64 3.866 18.567 32.494-20.89 11.604 10.056 17.02-27.077-16.251-15.47-20.883 13.923.774-13.15-15.474 3.867 10.057-26.3-18.567 10.83-23.372-24.38zm85.099 51.06l5.417 15.474 24.753-19.34c-.504 1.406-10.598 6.976-17.74 7.592L890.714 70.4z" opacity=".6" fill="#526043"/><path d="M882.554 196.855l-2.46 16.954-4.38-3.556-4.648 25.944c-.046 4.57-.093 8.841-.125 13.667l23.207-.774c-1.29-15.726-2.626-32.75-3.97-49.564z" fill="#625d4c"/><path d="M941.216 52.628l3.291 8.283c-6.955-.89-16.925-4.892-19.418-6.004 4.424 5.983 10.44 11.372 16.238 16.26l9.263-18.402z" fill="#526043"/><path d="M1113.97 19.32l4.644-16.252 9.284 14.7 15.47-7.732v14.692c12.496 3.35 17.305 4.168 36.1-.508-6.24 16.913-5.252 23.716-4.38 30.683 2.717 1.683 6.265 1.708 11.885-2.415-2.427 9.768-5.678 15.408-9.565 17.885 7.518 9.478 13.191 9.718 19.34 12.38-9.71 10.955-12.901 12.133-17.016 14.701l13.79-2.903c-1.21 7.034-3.535 12.956-9.096 15.64l2.266 36-13.923-1.547-1.548 17.794-11.607-10.057-1.547 15.474-13.15-10.834-27.081 11.607-15.47-23.984-12.38 14.7-3.094-16.25-15.474-6.187 10.057-6.963-28.624-13.15 17.794-29.401-14.7-9.284 15.473-3.866-5.417-22.438 20.118-2.32-.156-28.06c4.433-.048 12.695 1.579 17.128.077l7.608-11.289 3.263 9.098z" fill="#906a28"/><path d="M1089.602 55.08c-.031-.015-.062-.012-.078.032-.728 1.381 2.026 37.787 11 63.21 6.025 17.078 12.244 23.57 21.883 35.662-.636 24.033-1.141 55.345-1.468 95.882l23.207-.773c-2.754-33.537-5.69-72.726-8.523-104.062l24.356-10.656c5.81-21.334 11.62-42.663 11.256-42.481-.226.11-2.87 8.634-6.69 17.57l-.047-.012c-1.588-.297-4.826-.753-7.49-3.498-2.666-2.746-4.755-7.779-4.982-7.688-.227.094 1.407 5.306 3.04 10.524l6.574 5.128c.29.223.488.377.666.505-1.75 3.655-3.655 7.129-5.645 9.846-6.31 8.634-19.968 9.601-21.937 10.929-4.747-49.775-9.11-72.138-11.723-.166-6.567-6.327-14.804-12.761-20.883-28.239-7.393-18.807-11.586-50.974-12.504-51.71z" fill="#4a4840"/><path d="M1064.894 89.742l-6.964 20.113 10.835-4.64 3.866 18.567 32.494-20.89 11.603 10.06 17.021-27.081 5.417 15.474 24.753-19.34 2.324 11.603 8.51-12.377 8.51 5.963 17.794-35.36 10.4-3.928-19.683-14.639-2.324-17.797-20.114 6.19L1144.58 0l-16.681 17.769-17.194-7.547-16.599 22.495-17.116-1.96-.492 11.79-27.846-7.729 8.51 19.34-4.64 33.268 12.377 2.316z" fill="#da9b2f"/><path d="M1048.651 34.81l8.506 19.344-4.64 33.268 12.377 2.315-6.964 20.118 10.835-4.64 3.866 18.567 32.494-20.89 11.604 10.056 17.02-27.077-16.251-15.47-20.883 13.923.774-13.15-15.474 3.867 10.057-26.3-18.567 10.83-23.372-24.38zm85.098 51.061l5.417 15.474 24.753-19.34c-.505 1.406-10.598 6.976-17.74 7.592l-5.466-19.196z" opacity=".6" fill="#947133"/><path d="M1132.554 196.855l-2.46 16.954-4.38-3.556-4.648 25.944c-.047 4.57-.094 8.841-.125 13.667l23.207-.774c-1.29-15.726-2.626-32.75-3.97-49.564z" fill="#625d4c"/><path d="M1191.216 52.628l3.291 8.283c-6.955-.89-16.925-4.892-19.419-6.004 4.425 5.983 10.442 11.372 16.24 16.26l9.262-18.402z" fill="#ca9b4a"/><path d="M1402.316 15.13s-5.885 53.285-9.312 59.903c-2.988 5.772-10.85 18.393-12.91 21.684-.67-3.652-1.321-6.115-1.946-7.119l-1.38-21.52 11.1-18.973.032-20.7-2.514 16.88-10.008 14.699c-2.226-4.568-7.555-16.044-7.555-21.379 0-6.724-2.07-19.885-2.07-19.885l-.918 20.234-15.935-11.737-6.388-11.465s2.187 9.664 3.811 12.956 17.61 16.093 17.61 16.093l7.806 22.16 2.382 44.46c-.401 6.354-.776 14.146-1.12 23.611-6.566-6.327-14.803-12.761-20.882-28.239a95.542 95.542 0 01-1.68-4.66c2.11-6.074 6.387-18.787 6.599-22.589.281-5.05-.877-17.934-.877-17.934s-.347 17.525-4.226 23.436c-2.059 3.137-3.499 5.56-4.413 7.169-4.553-17.383-7.201-36.566-7.908-37.133l-.012-.002c-.03-.015-.062-.012-.078.032-.341.648.083 9.001 1.556 20.312-2.691-1.427-15.457-8.217-18.93-10.595-3.869-2.65-11.18-20.443-11.18-20.443s3.088 17.206 5.11 19.513c1.958 2.236 24.367 16.254 25.789 17.143 1.765 11.802 4.56 25.68 8.655 37.28 6.025 17.078 12.244 23.57 21.883 35.662-.636 24.034-1.14 55.345-1.467 95.882l23.206-.773c-2.754-33.536-5.69-72.726-8.523-104.062l24.357-10.656c5.81-21.334 11.62-42.663 11.256-42.48-.227.109-2.87 8.633-6.69 17.57l-.048-.013c-1.588-.297-4.826-.753-7.489-3.498-2.667-2.746-4.755-7.779-4.983-7.688-.227.094 1.407 5.306 3.04 10.524l6.574 5.128c.29.224.488.376.667.504-1.75 3.656-3.656 7.13-5.645 9.846-6.31 8.635-19.969 9.603-21.937 10.93-.946-9.92-1.877-18.723-2.781-25.935l13.656-23.167c5.639-9.574 5.639-20.266 5.639-20.266s8.411-5.648 12.405-11.089c3.994-5.44 7.339-18.514 7.339-18.514s-5.419 12.831-10.727 17.362c-5.31 4.53-8.034 5.803-8.034 5.803l.094-44.263zm-1000 0s-5.885 53.285-9.312 59.903c-2.988 5.772-10.85 18.393-12.91 21.684-.67-3.652-1.321-6.115-1.946-7.119l-1.38-21.52 11.1-18.973.032-20.7-2.514 16.88-10.008 14.699c-2.226-4.568-7.555-16.044-7.555-21.379 0-6.724-2.07-19.885-2.07-19.885l-.918 20.234L348.9 27.217l-6.388-11.465s2.187 9.664 3.81 12.956C347.948 32 363.933 44.8 363.933 44.8l7.807 22.16 2.382 44.46c-.401 6.354-.776 14.146-1.12 23.611-6.566-6.327-14.804-12.761-20.882-28.239a95.546 95.546 0 01-1.68-4.66c2.11-6.074 6.386-18.787 6.598-22.589.282-5.05-.876-17.934-.876-17.934s-.347 17.525-4.226 23.436c-2.059 3.137-3.5 5.56-4.413 7.169-4.553-17.383-7.201-36.566-7.908-37.133l-.012-.002c-.03-.015-.062-.012-.078.032-.341.648.083 9.001 1.556 20.312-2.691-1.427-15.457-8.217-18.93-10.595-3.87-2.65-11.18-20.443-11.18-20.443s3.088 17.206 5.11 19.513c1.958 2.236 24.366 16.254 25.789 17.143 1.765 11.802 4.56 25.68 8.655 37.28 6.025 17.078 12.244 23.57 21.883 35.662-.636 24.034-1.14 55.345-1.468 95.882l23.207-.773c-2.754-33.536-5.69-72.726-8.523-104.062l24.356-10.656c5.81-21.334 11.62-42.663 11.257-42.48-.227.109-2.87 8.633-6.69 17.57l-.048-.013c-1.588-.297-4.826-.753-7.489-3.498-2.667-2.746-4.756-7.779-4.983-7.688-.227.094 1.407 5.306 3.04 10.524l6.574 5.128c.29.224.488.376.666.504-1.749 3.656-3.655 7.13-5.644 9.846-6.31 8.635-19.969 9.603-21.937 10.93-.946-9.92-1.877-18.723-2.782-25.935L395.6 86.096c5.64-9.574 5.64-20.266 5.64-20.266s8.41-5.648 12.405-11.089c3.994-5.44 7.338-18.514 7.338-18.514s-5.418 12.831-10.727 17.362c-5.308 4.53-8.033 5.803-8.033 5.803z" fill="#625d4c"/><path d="M622.187 6.808l-15.205 16.584-25.532-3.403 13.472 18.67-17.659 10.935L628.1 88.41l-17.545 12.333 4.482-16.277-32.532-19.74 11.185 21.67-28.02 15.045 34.237 11.029-17.34 18.156 16.479-.126.509 14.498 12.961-14.336-2.808 30.972 18.563-11.093 2.071-7.084 13.734-5.471 18.666 13.647 2.727-15.576 30.426-7.223-18.142-18.856 8.468-19.412-17.648 9.256-6.176 20.904-15.076 5.276 1.222-9.808-10.725 3.09-5.256-16.978 35.342-16.23-10.8-2.534.273-15.71c-5.103 1.823-11.948 13.403-12.154 4.427l28.428-21.911-35.769 10.24 18.613-40.354-17.77 6.929z" fill="#526d36"/><path d="M152.316 15.13s-5.885 53.285-9.312 59.903c-2.988 5.772-10.85 18.393-12.91 21.684-.67-3.652-1.321-6.115-1.946-7.119l-1.38-21.52 11.1-18.973.032-20.7-2.514 16.88-10.008 14.699c-2.226-4.568-7.555-16.044-7.555-21.379 0-6.724-2.07-19.885-2.07-19.885l-.918 20.234L98.9 27.217l-6.388-11.465s2.187 9.664 3.81 12.956C97.948 32 113.933 44.8 113.933 44.8l7.807 22.16 2.382 44.46c-.401 6.354-.776 14.146-1.12 23.611-6.566-6.327-14.804-12.761-20.882-28.239a95.546 95.546 0 01-1.68-4.66c2.11-6.074 6.386-18.787 6.598-22.589.282-5.05-.876-17.934-.876-17.934s-.347 17.525-4.226 23.436c-2.06 3.137-3.5 5.56-4.413 7.169-4.553-17.383-7.201-36.566-7.908-37.133l-.012-.002c-.03-.015-.062-.012-.078.032-.341.648.083 9.001 1.556 20.312-2.691-1.427-15.457-8.217-18.93-10.595-3.87-2.65-11.18-20.443-11.18-20.443s3.088 17.206 5.11 19.513c1.958 2.236 24.366 16.254 25.789 17.143 1.765 11.802 4.56 25.68 8.655 37.28 6.025 17.078 12.244 23.57 21.883 35.662-.636 24.034-1.14 55.345-1.468 95.882l23.207-.773c-2.754-33.536-5.69-72.726-8.523-104.062l24.356-10.656c5.81-21.334 11.62-42.663 11.257-42.48-.227.109-2.87 8.633-6.69 17.57l-.048-.013c-1.588-.297-4.826-.753-7.489-3.498-2.667-2.746-4.756-7.779-4.983-7.688-.227.094 1.407 5.306 3.04 10.524l6.574 5.128c.29.224.488.376.666.504-1.749 3.656-3.655 7.13-5.644 9.846-6.31 8.635-19.969 9.603-21.937 10.93-.946-9.92-1.877-18.723-2.782-25.935L145.6 86.096c5.64-9.574 5.64-20.266 5.64-20.266s8.41-5.648 12.405-11.089c3.994-5.44 7.338-18.514 7.338-18.514s-5.418 12.831-10.727 17.362c-5.308 4.53-8.033 5.803-8.033 5.803z" fill="#625d4c"/><path d="M312.466 72.372l-11.04.177 7.43-8.938-3.999-10.323 17.952 8.275 9.07-5.578-9.93 22.969zm-1.492-27.559l4.557-11.693 2.143 9.88 8.772.478-13.745 4.725zm38.894-12.623l-4.975 9.285-2.478-12.187-13.35-7.36 14.466-1.017 2.874 6.812zm61.317 25.968l1.74 9.878 8.188-10.783 15.176-5.768-15.04-5.082 1.376-10.241-3.505 1.113-.523 16.932-6.86-16.555-3.116 10.099-9.433-.085zm-9.188-40.508l-5.72-8.82 1.992 13.534-8.286 2.816 10.875 3.128zm-20.294 25.63V31.863l5.793 11.54 7.485-2.162-8.122 9.445-1.645-4.971zm19.084 56.985l-1.12-7.153 6.997 6.814 5.005-3.474-3.922 12.384-4.208-3.05z" fill="#acc837"/><path d="M592.512 15.752s2.187 9.664 3.81 12.956c.613 1.24 3.267 3.834 6.336 6.582l2.73-3.294-6.488-4.779-6.388-11.465zm37.793 84.163l-6.637 3.062.453 8.444c-.401 6.354-.776 14.146-1.12 23.611-5.235-5.044-11.53-10.161-16.95-19.87l-4.916 4.854c5.838 15.827 11.959 22.286 21.272 33.968-.636 24.034-1.14 55.345-1.468 95.882l23.207-.773c-2.754-33.536-5.69-72.726-8.523-104.062l24.356-10.656c1.672-6.137 3.325-12.209 4.85-17.833l-2.88-1.387c-1.65 3.384-3.432 6.58-5.287 9.113-6.31 8.635-19.97 9.603-21.937 10.93-.947-9.92-.362-21.434-1.267-28.646.745-1.265 1.545-2.613 2.358-3.983l-5.51-2.654z" fill="#625d4c"/><path d="M637.857 28.436l-2.515 16.881-4.608 6.769 4.79.982 2.3-3.931zm33.082 7.823s-5.418 12.831-10.727 17.362c-2.805 2.394-4.867 3.86-6.208 4.728l-.375 5.764c2.794-2.085 7.329-5.74 9.972-9.34 3.993-5.44 7.338-18.514 7.338-18.514zm-43.315 45.874l-4.98 2.567 1.26 23.522 4.874-3.427 4.698 1.826 12.08-20.493c.052-.088.1-.177.151-.265l-6.786-3.652c-3.409 5.777-7.47 12.302-8.87 14.538-.67-3.653-1.321-6.115-1.946-7.119zm43.568 9.793c-.226.11-2.87 8.634-6.69 17.57l-.047-.012c-1.588-.297-4.826-.753-7.489-3.498-2.667-2.746-4.756-7.779-4.983-7.688-.227.094 1.407 5.306 3.04 10.524l6.574 5.128c.29.224.488.376.666.504a97.946 97.946 0 01-1.402 2.817l3.38 1.314c4.046-14.913 7.224-26.795 6.952-26.659zm-68.347 2.98l-7.758 4c1.469 6.69 3.252 13.38 5.394 19.448a115.79 115.79 0 001.894 5.008l6.026-4.238c-2.244-3.378-4.394-7.38-6.325-12.3a95.531 95.531 0 01-1.68-4.66c.665-1.914 1.548-4.51 2.449-7.257z" fill="#4a4840"/><path d="M562.659 31.244l22.795 17.454 14.202-13.621 31.404 30.706 17.321-7.793 10.572 7.199 12.884 2.768-6.287 16.85 19.319 1.879-7.016 11.862 13.704 3.442-23.379.622-35.41-15.837-40.853 17.875-1.944-20.713-21.36 23.372-.474-29.01-14.698 2.684 9.373-15.417-10.834-9.765 3.782-2.161z" fill="#739334"/><path d="M673.854 13.611l-14.839 7.112-9.543-8.704-15.836 10.062-10.735-5.221-2.943 7.194-16.455-11.31 1.253 13.983-10.426 19.54 7.563 4.333h-.002l-9.018 10.84 8.103-.34-1.606 12.417 25.853-5.346 5.336 8.954 17.131-12.807.094 10.862 20.457-6.196-1.064 7.738 8.307-5.682 4.228 5.69 19.477-17.76h7.661l-9.591-13.685 2.44-11.579-14.503-.87zm-28.135 18.305l-6.173 14.699-16.8.124 11.904-11.264zm30.913 14.947l-10.738 8.984 3.904 3.492-15.337 2.108 4.749-6.94z" fill="#acc837"/><path d="M1313.559 72.877l-11.04.177 7.43-8.938-4-10.323 17.953 8.275 9.07-5.577-9.93 22.968zm-.808-23.436l4.556-11.693 2.144 9.88 8.772.478-13.745 4.725zm38.209-16.746l-4.974 9.285-2.478-12.187-13.35-7.36 14.466-1.017 2.874 6.812zm61.317 25.969l1.741 9.877 8.188-10.782 15.176-5.768-15.04-5.083 1.376-10.24-3.505 1.112-.523 16.933-6.861-16.555-3.116 10.098-9.433-.084zm-10.482-36.502l-5.721-8.82 1.992 13.533-8.286 2.817 10.875 3.128zm-18.999 21.623V32.369l5.792 11.54 7.486-2.161-8.123 9.445-1.645-4.972zm19.084 56.985l-1.12-7.152 6.997 6.813 5.004-3.473-3.921 12.383-4.208-3.05z" fill="#927037"/></svg>