<svg xmlns="http://www.w3.org/2000/svg" xmlns:xlink="http://www.w3.org/1999/xlink" width="1000" height="250"><defs><linearGradient id="b"><stop offset="0" stop-color="#bfbdcc"/><stop offset="1" stop-color="#bfbdcc" stop-opacity="0"/></linearGradient><linearGradient id="a"><stop offset="0" stop-color="#f1f0f4"/><stop offset="1" stop-color="#c8b7b7" stop-opacity="0"/></linearGradient><linearGradient xlink:href="#a" id="c" x1="146.536" y1="192.835" x2="144.89" y2="234.816" gradientUnits="userSpaceOnUse" gradientTransform="translate(250)"/><linearGradient xlink:href="#b" id="d" x1="149.162" y1="250.924" x2="146.015" y2="225.686" gradientUnits="userSpaceOnUse" gradientTransform="translate(750)"/></defs><path d="M217.241 201.578l-6.21 11.615-24.846 3.027-1.126 4.165 17.104-.362-12.122 26.69c-50.423-5.369-119.924-2.892-153.913 2.49 8.42-3.809.343-9.815-4.6-15.41l-.466-4.777L44.93 230.4l1.11-2.97-26.141-2.747-1.012-4.191 25.092 1.538c-3.014-10.641.317-8.432-14.276-10.938-1.058-8.187.32-5.873-12.183-7.927-4.113-11.437-2.042-9.027-12.116-12.7-2.397-1.664-9.79-9.196 1.147-7.726 71.414 10.968 140.114 16.614 210.69 18.842z" fill="#261f17"/><path d="M234.008 195.527c-31.438.107-59.78 1.057-88.53.994l-29.513 14.272 46.54 30.512c12.902-.856 26.175-1.435 40.737-1.457l9.526-.838 8.437 1.726 4.27-1.263 2.197-5.723c-8.31-1.149-12.83 1.33-7.057-7-25.823-2.618-29.541-.38-27.47-6.04l15.937-2.933c.756-2.437 1.612-4.904 8.527-8.875 7.795-.795 12.126-1.636 17.856-2.457.586-4.234 7.873-3.241 12.248-4.507l.615-6.395c-4.85-.029-9.62-.032-14.32-.016zm-72.315 5.942a75.916 75.916 0 012.047.011h.002c10.597.202 20.362 2.73 19.246 6.586 4.38 9.254-38.828 10.916-46.636.764 4.044-5.097 15.034-7.277 25.341-7.361z" fill="#e2b87d"/><path d="M6.549 182.738v.004l10.71 5.295c7.67.796 14.538 2.356 19.333 5.887 1.313 2.366 2.698 3.936 3.898 7.57a1783.488 1783.488 0 0021.574 4.957l7.76 7.996 36.317 7.225 60.43 28.367c13.649.021 27.395.035 41.804.014l.135-9.778 12.695.461 2.195-5.718-9.777-.998 2.729-6.004-28.813-2.407 1.088-3.636 20.455-4.196.254-4.875 21.78-5.19c.637-4.233-.038-3.111 12.224-4.509l.623-4.467c-77.756-.465-153.045-3.612-237.414-15.998zm150.623 19.994a75.391 75.391 0 012.043.012c10.83.204 20.378 2.733 19.447 6.592 4.262 9.252-38.782 10.916-46.639.764 3.97-5.099 14.875-7.283 25.149-7.368z" fill="#996f46"/><path d="M38.889 197.782c1.047 1.906 2.044 4.336 2.865 8.81 10.79 2.095 19.769-.955 23.893 10.732l22.45 3.471 6.76 8.433-42.022-4.028.4 9.495c25.94 3.05 19.682 3.377-2.235 8.597-1.596 5.509-1.49 3.389-20.936 2.015l3.633 5.223c71.25-.888 117.782-.392 174.679-.476l.134-9.78 12.694.463.209-.546-91.055-9.692c-21.445-15.085 3.716-7.723-60.306-20.2-1.283-7.452 3.814-5.722-31.16-12.52z" fill="#513e2d"/><path d="M46.567 205.254c75.967 12.392 74.455 6.188 90.383 21.481l66.536 13.034-67.873-10.667c-18.282-18.846-10.64-8.485-89.042-23.851z" fill="#513e2d"/><path d="M250.638 182.859s5.384-.97 35.755 2.933c30.37 3.902 116.294 10.446 116.294 10.446l96.663-1.063-6.116 4.29s-35.545 7.176-39.064 10.74c-3.52 3.563 4.74 2.759 4.74 2.759s8.666-.117-9.878 3.278-32.799 4.102-26.934 2.017c5.865-2.086 14.918-10.097 10.175-13.02-4.743-2.921-49.082-4.667-54.91-3.908-5.828.758-11.909 3.673-1.7 9.339 10.209 5.666 11.13 6.557 11.13 6.557s-69.556-7.52-74.118-9.827c-4.563-2.306 1.86-2.532-2.698-3.397-4.559-.864-20.698-2.982-20.698-2.982s-.18-6.382-4.642-8.405c-4.461-2.023-14.705-2.507-17.948-4.18-3.243-1.672-4.578-4.704-7.866-4.704-3.288 0-8.185-.873-8.185-.873z" fill="url(#c)"/><path d="M801.168 205.213s6.203 5.351 7.766 6.316c1.562.965 21.454 8.148 31.142 10.026 9.69 1.878 47.267 6.245 61.712 7.261 14.446 1.017 52.566 3.661 61.723 1.957 30.06-12.8-36.473-7.153-22.34-8.122 4.023-1.482 16.928-5.596 18.774-7.526 1.847-1.93-.47-2.666 1.773-4.712 2.244-2.045 10.952-2.703 16.717-3.194 5.765-.49 13.424-2.307 16.75-4.393 3.327-2.085 2.105-.3 3.077-2.477s.45-9.803.45-9.803l-88.916 30.899z" fill="#bfbdcc"/><path d="M753.5 169.343c-.728.014-1.177.082-1.31.21-2.132 2.055-1.041 5.231-1.041 5.231s1.61-2.063 6.887 1.426c5.277 3.49 3.286 4.915 10.705 6.677 7.419 1.763 17.791 3.719 18.394 6.961.603 3.243.136 4.11 7.078 7.108 6.942 3 30.119 3.818 25.465 5.95-4.654 2.133-14.446 1.127-9.431 4.673 5.014 3.547 29.76 8.343 49.933 11.618 20.172 3.274 108.941 10.767 109.62 6.158.677-4.608-30.241-2.049-31.747-4.415-1.505-2.366 21.462-8.543 17.93-11.59-3.541-3.055 12.433-5.788 19.707-7.285 7.273-1.497 15.057-1.905 17.773-4.554 2.716-2.648 6.974-3.844 4.524-8.075s-136.269-4.037-148.45-6.306c-11.419-2.127-85.113-14.003-96.037-13.787zm152.3 29.403c8.06.13 18.296 2.332 20.345 4.326 5.824 5.087-5.386 7.461-8.03 7.754-16.449 4.447-44.63-11.019-12.315-12.08z" fill="#f1f0f4"/><path d="M754.547 171.941c-.845.063-1.756.301-2.75.756-.331.153-.599.302-.879.452.056.986.3 10.964.3 10.964s3.323-2.894 8.6 1.104c5.276 3.997 2.805 1.968 10.224 3.987 7.419 2.02 16.9 2.621 17.502 6.336.603 3.714.839 7.858 5.42 11.649 5.3 4.385 26.39-2.804 27.302-.889.45-.586 1.169-3.06.782-4.173-.702-2.02-25.64-3.926-29.705-6.525-4.065-2.6.643-5.421-2.099-7.825-2.741-2.404-20.979-5.29-24.603-6.94-3.624-1.65-1.558-3.549-3.879-5.923-1.74-1.78-3.679-3.162-6.215-2.973zm151.513 26.645c-7.995.095-14.66 1.813-15.353 3.188-1.23 2.445 2.672 4.897 2.672 4.897l-.136-.339c-.586-3.153 3.722-2.195 15.244-2.676 8.06.164 11.73.116 13.778 2.645 1.626 1.802 1.245 2.235.773 3.518 3.808-1.626 7.449-3.893 3.301-6.624-6.21-4.09-14.06-4.684-20.28-4.61zM559.927 208.98s-2.556 1.584-.993 2.55c1.562.964 21.454 8.147 31.142 10.025 9.69 1.878 47.267 6.245 61.712 7.261 14.446 1.017 56.845 2.813 61.723 1.957 4.878-.856 5.598-2.56 5.598-2.56l-30.542-3.706s-2.478-.586 1.545-2.068c4.023-1.482 14.523-3.639 16.37-5.57 1.845-1.93 1.039-1.857 3.282-3.902 2.244-2.045 15.595-6.47 21.36-6.96 5.766-.49 9.068-.147 12.394-2.232 3.327-2.085 3.772-1.25 4.744-3.426.972-2.177-.378-4.186-.378-4.186l-88.088 25.282z" fill="#bfbdcc"/><path d="M503.5 178.25c-.728.012-1.177.07-1.31.18-2.132 1.75-1.041 4.455-1.041 4.455s1.61-1.758 6.887 1.215c5.277 2.972 3.286 4.186 10.705 5.687 7.419 1.501 17.791 3.168 18.394 5.93.603 2.762.136 3.5 7.078 6.054 6.942 2.555 30.119 3.252 25.465 5.069-4.654 1.817-14.446.96-9.431 3.98 5.014 3.021 29.923 9.872 50.095 12.66 20.173 2.79 108.227 8.57 108.905 4.645.677-3.925-29.688-3.908-31.194-5.924-1.505-2.015 17.604-4.17 19.35-7.855 1.746-3.685 11.013-6.948 18.287-8.223 7.273-1.275 15.057-1.623 17.773-3.879 2.716-2.256 6.974-3.275 4.524-6.879-2.45-3.604-136.269-3.438-148.45-5.37-11.419-1.813-85.113-11.93-96.037-11.745zm152.3 25.046c8.06.11 18.296 1.986 20.345 3.684 5.824 4.334-5.386 6.356-8.03 6.606-16.449 3.787-44.63-9.386-12.315-10.29z" fill="#f1f0f4"/><path d="M504.547 180.751c-.845.047-1.756.224-2.75.563-.331.113-.599.224-.879.336.056.732.256 1.267.256 1.267s1.61-1.757 6.887 1.215c5.277 2.972 3.286 4.186 10.705 5.688 7.419 1.501 17.792 3.167 18.395 5.93.602 2.761.136 3.5 7.078 6.054 6.164 2.268 25.115 3.072 26.027 4.496.45-.436.865-1.098.478-1.926-.701-1.502-25.924-3.846-29.99-5.779-4.065-1.933 1.232-4.281-1.51-6.068-2.741-1.788-20.979-3.933-24.603-5.16-3.624-1.228-1.558-2.64-3.879-4.405-1.74-1.324-3.679-2.351-6.215-2.21zm151.513 21.624c-7.995.065-14.395 1.616-15.088 2.54-1.231 1.64-.072 2.695-.072 2.695l.199.047c-.586-2.117 3.22-4 14.742-4.323 8.06.11 18.297 1.986 20.346 3.684 1.626 1.21 1.922 2.238 1.45 3.1 2.13-1.007 2.182-2.362-1.966-4.196-6.21-2.745-13.393-3.597-19.611-3.547z" fill="#bfbdcc"/><path d="M848.355 226.031c-.552.019-.679.305-.264.932 3.318 5.013 19.077 19.763 11.521 15.73-7.555-4.032-40.606-16.198-39.34-13.318 1.267 2.88 17.954 15.427 10.743 13.672-3.251-.791-15.866-.558-28.715-.082-.477.112-.848.195-1.34.312-1.596 5.51-1.49 3.39-20.936 2.016l3.633 5.223c69.428-.865 115.508-.424 170.455-.479-3.653-2.513-8.452-4.86-14.42-5.795-15.305-2.395-28.361-1.471-38.705-5.86-4.162-1.765-9.943-4.76-15.18-7.314l-5.49-.584a85.684 85.684 0 01-5.04-3.812c-1.819-.397-2.614.004-1.686 1.748 3.497 6.573 14.26 12.844 8.408 11.58-5.121-1.106-29.782-14.097-33.644-13.969z" fill="url(#d)"/><path d="M960.408 235.136s6.87 1.576 10.796.968c3.925-.608 9.434-2.295 8.573-3.222-.862-.927-8.269.58-12.463-.038-4.194-.618-5.271.032-6.273.73-1.002.7-.633 1.562-.633 1.562z" fill="#bfbdcc"/><path d="M961.923 233.28s3.607 1.017 9.195.399c5.588-.618 10.412.05 8.43-1.698-1.982-1.748-11.157-1.259-11.157-1.259s-.756.964-1.921 1.204c-1.166.24-5.054 1.224-5.054 1.224z" fill="#f1f0f4"/></svg>