<svg xmlns="http://www.w3.org/2000/svg" xmlns:xlink="http://www.w3.org/1999/xlink" width="1000" height="250"><defs><linearGradient id="b"><stop offset="0" stop-color="#bfbdcc"/><stop offset="1" stop-color="#bfbdcc" stop-opacity="0"/></linearGradient><linearGradient id="a"><stop offset="0" stop-color="#f1f0f4"/><stop offset="1" stop-color="#f1f0f4" stop-opacity="0"/></linearGradient><linearGradient xlink:href="#a" id="c" x1="162.862" y1="205.038" x2="195.954" y2="256.915" gradientUnits="userSpaceOnUse" gradientTransform="translate(250 1.3)"/><linearGradient xlink:href="#b" id="d" x1="73.67" y1="295.892" x2="112.082" y2="208.607" gradientUnits="userSpaceOnUse" gradientTransform="translate(750 1.3)"/></defs><path d="M109.575 147.997c-4.2.031-8.185.219-11.963.51l29.117 39.703-1.31 60.686c28.564-.247 52.8.979 69.024 1.138 0 0-.82.046-1.889-1.428 27.079 1.194 53.344 1.906 56.065.902-8.748-1.707-53.726-14.384-70.734-25.1-5.882-14.369-1.484-48.636-5.335-65.962-14.26-7.136-40.777-10.613-62.975-10.449z" fill="#996f46"/><path d="M103.27 148.15c-14.46.589-26.175 2.864-29.9 6.833-3.073 10.034-4.822 22.32-6.28 33.746l63.041 60.111c12.373 1.05 24.566.094 32.982.453-45.593-17.424 13.527-7.678 17.828-6.692-25.874-8.675-40.017-22.664-39.202-35.96-2.531-14.028-6.651-29.015-19.102-48.994a82.226 82.226 0 00-19.367-9.497zm23.868 12.78c7.824 14.072 12.214 27.41 14.958 38.903.523-13.017-.406-25.707-10.678-35.243a70.688 70.688 0 00-4.28-3.66z" fill="#513e2d"/><path d="M116.631 149.18a165.91 165.91 0 00-39.187 4.227c-10.508 3.964 45.83 11.196 75.551 10.66 2.732 22.484 2.745 29.254 2.82 41.074.36-.654 6.168-24.249 4.517-41.418 6.953-.588 11.03-1.89 9.907-4.2-1.059-1.668-22.999-10.037-53.608-10.342z" fill="#e9ddaf"/><path d="M82.48 152.901c43.784-8.225 80.884 2.714 82.187 4.374 4.321 11.218-95.348 1.952-82.187-4.374z" fill="#996f46"/><path d="M86.488 153.193c39.37-6.46 72.737 2.135 73.91 3.442 4.486 9.519-85.276 2.461-73.91-3.442z" fill="#e9ddaf"/><path d="M90.4 153.616c35.232-4.662 65.087 1.542 66.137 2.483 3.481 6.36-76.727 1.106-66.132-2.483z" fill="#996f46"/><path d="M94.064 153.786c31.681-3.664 58.53 1.206 59.476 1.947 3.616 5.398-68.62 1.394-59.476-1.947z" fill="#e9ddaf"/><path d="M83.408 164.067c-5.415.218-9.798 5.254-14.677 12.721-2.928 19.125-4.113 38.765-7.912 44.781-10.8 5.956-46.775 18.997-59.47 29.64 24.54-3.507 83.01-2.402 131.632-2.158-6.15-5.941 4.8-10.878 1.732-16.282-6.76-11.912-10.133-24.923-28.21-49.633-10.195-13.941-17.248-19.3-23.09-19.069z" fill="#261f17"/><path d="M412.044 235.907s23.446 8.596 26.538 10.508c3.092 1.912-38.5-2.723-41.408-5.94-2.907-3.215-15.361-13.756-8.285-14.133 7.076-.377 20.483 8.208 25.054 6.69 4.571-1.519 5.285-7.65 12.38-6.646 7.093 1.005 57.664 19.309 52.001 19.65-5.663.342-66.28-10.129-66.28-10.129z" fill="url(#c)"/><path d="M326.478 153.502c50.862-10.72 93.962 3.547 95.478 5.71 5.025 14.629-110.767 2.546-95.472-5.71z" fill="#f1f0f4" fill-opacity=".699"/><path d="M824.511 144.243c-.148-13.904-3.992 5.959-1.563 11.537 1.223 2.81 9.86 4.189 18.157 5.786 8.297 1.597 60.31 6.762 62.501 5.465 2.191-1.297 1.396-3.599 4.445-3.076 3.05.524 1.048 2.336 4.426 2.097 3.378-.24 10.171-2.816 10.804-4.443.632-1.627-.622-11.147-.622-11.147z" fill="#bfbdcc"/><path d="M824.838 138.174c52.092-21.99 96.235 7.275 97.787 11.714 2.802 20.375-113.446 5.22-97.78-11.714z" fill="#f1f0f4"/><path d="M933.918 244.65s64.843 6.489 64.725 4.39c-.12-2.097.048-3.211.048-3.211l-88.893-21.603.646 9.96z" fill="#bfbdcc"/><path d="M878.938 196.855s1.151 27.95 7.3 36.057c6.15 8.107 8.057 10.066 11.515 10.945 3.457.88 28.018 4.97 36.226 5.572 8.208.601 10.227.637 10.227.637l-4.771-3.728-36.223-12.144s-16.645-64.704-24.274-37.34z" fill="#bfbdcc"/><path d="M920.437 170.605s1.65 27.316 7.507 34.102l5.857 6.787s63.51 30.25 65.007 34.513c1.497 4.261-85.542-17.79-85.542-17.79s13.077 6.178 19.153 12.003c6.076 5.825 8.345 7.247 8.345 7.247s-32.607-4.561-39.963-9.657c-7.355-5.096-18.48-34.68-19.146-44.956-.666-10.275 18.357 14.544 22.96 15.072 4.603.529 7.544-33.752 10.59-38.836 3.047-5.084 5.232 1.515 5.232 1.515z" fill="#f1f0f4"/><path d="M573.683 152.514s-3.124 1.347-.735 3.266c2.39 1.92 9.86 4.189 18.157 5.786 8.297 1.597 60.31 6.762 62.501 5.465 2.191-1.297 1.396-3.599 4.445-3.076 3.05.524 1.049 2.336 4.426 2.097 3.378-.24 10.171-2.816 10.804-4.443.632-1.627-1.215-4.33-1.215-4.33z" fill="#bfbdcc"/><path d="M574.838 151.386c52.092-10.72 96.235 3.547 97.787 5.71 5.147 14.628-113.446 2.545-97.78-5.71z" fill="#f1f0f4"/><path d="M670.039 238.834s78.722 12.305 78.604 10.207c-.12-2.098-1.128-2.76-1.128-2.76l-71.787-12.095h-15.284z" fill="#bfbdcc"/><path d="M635.438 216.15s.821 8.574 6.97 16.68c6.15 8.107 8.555 9.646 12.013 10.526 3.457.88 20.297 3.559 28.505 4.16 8.208.602 8.347.602 8.347.602l-2.558-1.371-40.008-9.436z" fill="#bfbdcc"/><path d="M669.704 204.179s4.515 15.17 10.15 18.99l5.636 3.82s61.102 17.03 62.543 19.429c1.44 2.4-82.3-10.015-82.3-10.015s12.58 3.478 18.427 6.757c5.846 3.28 5.388 3.788 5.388 3.788s-28.73-2.276-35.807-5.144c-7.077-2.87-17.78-19.524-18.421-25.308-.641-5.784 17.661 8.187 22.09 8.485 4.429.297 4.59-19.001 7.521-21.863 2.931-2.862 4.773 1.06 4.773 1.06z" fill="#f1f0f4"/><path d="M904.72 207.787s3.093-.276 5.544-3.076c2.451-2.801 4.766-32.275 6.135-34.363 1.369-2.088 1.575-3.387 1.575-3.387s-2.672-.381-4.556 3.005-4.72 23.177-6.13 24.993c-1.41 1.817-1.813-6.307-1.778-2.744.035 3.564-.79 15.572-.79 15.572z" fill="#bfbdcc"/><path d="M775.226 238.807s22.099-10.674 33.793-13.518c11.695-2.844 19.884-30.854 19.884-30.854s4.432 15.187 4.306 21.325l-.127 6.138L843.8 203.68s6.23 13.13 12.634 20.016l6.404 6.886 2.933-22.638 22.623 26.379 13.91 15.123c-39.547.049-100.617-2.474-148.437 1.257z" fill="url(#d)"/></svg>