<svg xmlns="http://www.w3.org/2000/svg" xmlns:xlink="http://www.w3.org/1999/xlink" width="2250mm" height="250mm" viewBox="0 0 2250 250"><defs><linearGradient id="a"><stop offset="0" stop-color="#6faf3f"/><stop offset="1" stop-color="#9b4005"/></linearGradient><linearGradient xlink:href="#a" id="c" x1="1145.695" y1="288.231" x2="1126.133" y2="122.693" gradientUnits="userSpaceOnUse"/><linearGradient xlink:href="#a" id="b" x1="1102.751" y1="213.26" x2="1122.083" y2="96.846" gradientUnits="userSpaceOnUse"/></defs><path d="M916.271 170.582c-.183.022-.695.327-1.827 1.21l-1.77-1.09 1.014 1.693c-.242.197-.497.405-.783.643-.895-.681-3.278-1.08-3.278-1.08l2.17 2.015c-.367.312-.752.642-1.178 1.011-.209.181-.41.362-.61.543-.14-.431-.406-.888-.92-1.06-1.076-.358-5.557.359-5.557.359s2.15.18 3.585.358c.98.123 1.534.908 1.79 1.397a27.442 27.442 0 00-1.669 1.83c-.228-.793-.675-1.617-1.555-1.793-1.79-.358-6.631.18-6.631.18s3.943.178 5.914 1.075c.856.389 1.306.947 1.542 1.454a25.034 25.034 0 00-2.004 3.105c.14-.615.284-1.4.284-2.05 0-1.255-.718-1.614-2.69-1.614-1.971 0-13.621 2.33-13.621 2.33s11.113-.717 13.801-.178c1.658.331 2.02 1.207 2.054 1.83-.47.887-.89 1.8-1.277 2.747-.205-.947-.487-2.04-.777-2.427-.538-.716-1.075-1.434-3.764-1.254-2.688.178-18.64 5.018-18.64 5.018s18.64-3.405 20.97-2.867c1.17.27 1.796 1.035 2.131 1.732a45.72 45.72 0 00-1.083 3.04c-.55-1.44-1.802-3.7-4.273-3.876-17.744 2.328-27.781 8.423-27.781 8.423s8.245-2.15 12.546-3.225c4.301-1.076 10.037-2.33 14.697-2.151 4.26.163 3.877 1.825 4.054 3.341a189.03 189.03 0 00-.864 3.155c-.542-1.33-1.595-3.548-2.832-4.166-1.793-.896-5.736-1.255-11.471.178-5.735 1.435-24.375 12.189-24.375 12.189s14.696-6.633 19.356-8.066c4.661-1.434 13.264-2.33 16.311-.359 1.25.809 1.92 1.917 2.285 2.946-.193.725-.376 1.422-.585 2.19-.417 1.526-.774 3.586-1.085 5.981-.501-.858-3.712-6.24-6.35-7.89-2.868-1.793-6.453-.358-11.83.896-5.377 1.255-25.271 11.83-25.271 11.83s13.442-5.378 20.61-6.991c7.17-1.613 13.085-2.151 16.49-1.613 2.597.41 5.078 4.034 6.115 5.74-.233 2.103-.435 4.4-.61 6.817-1.26-2.658-3.334-6.605-4.967-7.539-2.51-1.434-7.886-2.867-15.234-.895-7.349 1.971-31.008 12.904-31.008 12.904s20.791-6.274 26.168-7.528c9.32-2.868 15.687-1.976 18.998-.18 2.429 1.318 4.463 3.697 5.878 5.695a325.53 325.53 0 00-.149 2.523c-1.363-.972-7.512-5.306-10.389-6.424-3.226-1.255-12.187 0-20.253 2.866-8.064 2.87-23.12 9.679-23.12 9.679l27.602-5.555s16.847-2.33 19.357-1.794c1.894.407 5.206 2.032 6.72 2.807-.712 13.952-.714 28.73-.714 28.73l3.675-.127s-.096-15.987.216-28.484c1.749-.293 4.497-.664 7.261-.664 4.563 0 12.673 6.083 21.799 7.097 9.125 1.014 28.388 0 24.333 0-4.056 0-18.25-2.028-25.854-5.07-7.604-3.041-12.167-8.11-17.236-8.11-3.44 0-7.809 3.265-10.265 5.366.037-1.336.078-2.637.126-3.846.04-.97.108-1.966.198-2.978 1.582-.895 3.524-1.903 5.379-2.598 4.055-1.521 11.66 2.027 17.742 5.069 6.084 3.041 20.785 4.056 20.785 4.056s-8.618-1.014-16.223-5.578c-7.603-4.561-12.166-9.63-17.235-9.63-3.023 0-7.296 3.778-10.263 6.834.193-1.678.446-3.392.748-5.115 1.995-2.052 5.02-4.85 7.488-5.776 4.054-1.52 8.618 2.03 13.687 3.55 5.069 1.521 14.7 2.534 14.7 2.534s-11.152-4.055-17.742-7.604c-6.59-3.549-6.084-4.563-10.645-3.042-2.509.836-5.012 3.968-6.762 6.62a111.461 111.461 0 011.885-7.52c1.616-1.192 3.72-2.635 5.194-3.225 2.689-1.075 12.189 4.122 15.235 4.84a368.32 368.32 0 007.348 1.612s-8.781-3.585-12.725-6.632c-3.942-3.047-4.301-4.48-7.169-4.301-1.706.106-4.547 1.986-6.574 3.494a90.31 90.31 0 01.777-2.228c1.78-1.195 4.606-2.999 5.797-3.237 1.793-.359 4.84 1.793 7.528 3.404 2.688 1.614 11.29 3.764 11.29 3.764s-6.451-2.867-9.678-5.555c-3.225-2.69-5.018-4.66-7.706-4.66-1.546 0-4.213 1.953-6.205 3.616.345-.848.692-1.643 1.037-2.39 1.19-.792 2.896-2.123 4.99-2.123 2.866 0 6.63 3.047 8.96 4.123 2.33 1.074 6.272 1.612 6.272 1.612s-7.706-3.942-10.395-5.914c-2.687-1.972-3.225-2.688-5.196-2.688-.746 0-1.748.616-2.706 1.38.425-.684.835-1.323 1.223-1.904.527-.155 1.195-.252 2.02-.193 2.509.18 6.273 3.584 8.423 4.122l2.151.538s-4.301-3.047-6.094-4.48c-1.792-1.435-1.792-1.794-3.226-1.794-.718 0-1.93.675-2.963 1.348a52.41 52.41 0 011.362-1.915l-.011.03s.716-.358 2.33-.358c1.612 0 5.018 3.047 5.018 3.047s-1.254-3.406-2.688-3.765c-1.036-.258-2.7-.328-3.56-.348.233-.283.451-.54.65-.767.8-.008 1.786.025 2.372.22 1.074.357 1.971 1.433 1.971 1.433s-.717-1.793-1.433-2.15c-.4-.2-1.627-.01-2.642.198.904-.994 1.394-1.361 1.394-1.361s.47-.607.185-.572z" fill="#34511f"/><path d="M854.096 99.704s-1.775 1.52-3.803 3.295c-1.16 1.015-1.323 2.36-1.251 3.327l-2.55-6.116s.915 2.678 2.337 6.823c-1.028-.98-2.86-2.39-5.38-3.02-4.056-1.015-7.35-1.521-7.35-1.521s1.521 2.536 4.563 3.042c2.526.42 6.955 1.829 8.448 2.314.652 1.898 1.58 4.584 2.396 6.955-2.381-1.82-6.087-3.94-8.31-3.694-4.562.508-11.153 0-11.153 0s7.604 2.535 12.166 2.535c2.897 0 5.992 1.632 7.87 2.826.932 2.703 1.719 4.991 2.75 7.97-3.363-2.128-9.938-5.726-11.632-5.726-4.562 0-16.223.506-16.223.506s2.027 1.015 5.576 2.029c3.549 1.013 10.14 2.027 14.701 2.027 3.373 0 6.739 2.074 8.269 3.158.653 1.885 1.297 3.742 1.954 5.631-.9-1.242-2.11-2.572-3.64-3.516-3.725-2.3-7.448 0-17.997 0-8.413 0-11.294-1.094-12.119-1.538 1.027.643 4.867 2.938 9.637 4.41 5.584 1.724 6.826.574 13.652.574 5.16 0 9.6 1.965 11.466 2.927.51 1.461 1.021 2.93 1.516 4.34-.823-.873-1.694-1.52-2.598-1.792-5.07-1.52-10.647.509-17.745 1.015-7.095.507-18.756-4.562-18.756-4.562s3.55 4.054 12.167 6.589c8.618 2.534 16.729 1.521 22.812 1.521 2.422 0 4.6 1.608 6.348 3.542 1.259 3.55 2.424 6.81 3.284 9.13.449 1.212.98 2.702 1.542 4.303-3.376-4.069-8.645-9.829-12.187-10.891-5.07-1.522-13.688 2.534-24.333 3.041-10.645.507-16.729-4.056-16.729-4.056s2.028 2.535 9.631 5.577c7.605 3.042 28.39.507 34.98 3.042 4.095 1.574 8.187 6.084 10.7 9.274.599 1.77 1.233 3.674 1.879 5.63-.658-.925-1.317-1.717-1.934-2.231-3.042-2.535-7.604-8.618-13.18-8.618-5.577 0-20.785.507-29.91.507-9.124 0-19.77-3.548-19.77-3.548s20.277 8.617 28.894 8.617c8.62 0 20.28.508 25.348 2.535 3.39 1.355 9.213 6.29 12.74 9.444.877 2.72 1.761 5.503 2.643 8.317-3.444-3.476-9.665-8.68-15.89-11.17-7.604-3.042-18.757-.508-28.388-2.028-9.632-1.52-25.855-7.098-25.855-7.098s23.32 12.674 33.965 15.715c10.647 3.042 20.785 1.52 29.91 4.562 3.71 1.237 6.33 3.647 8.134 6.07a703.617 703.617 0 013.892 13.129c-2.476-4.46-5.763-9.695-8.477-11.594-5.07-3.549-14.195-3.041-28.897-4.563-14.7-1.52-37.513-12.672-37.513-12.672s28.896 16.728 34.98 18.756c6.083 2.027 28.894 6.083 34.977 9.631 2.886 1.684 5.422 5.532 7.299 9.115.853 3.32 1.493 6.118 1.828 8.121a162.8 162.8 0 01.632 4.161c-2.044-4.4-5.057-10.316-7.73-13.285-4.563-5.07-14.194-6.591-22.813-8.618-8.618-2.029-47.652-14.701-47.652-14.701s30.924 18.25 40.049 21.798c9.124 3.548 17.235 3.548 25.853 8.617 5.718 3.364 10.307 7.387 12.757 9.72 1.253 10.173 1.819 20.063 1.819 20.063l4.308-.127-.127-8.87c0-2.073-1.05-8.753-2.381-15.898.221-.747.575-1.775 1.172-3.238 1.726-4.232 3.764-7.67 5.2-11.153 1.435-3.485.625-30.945 4.81-38.865 4.188-7.92 33.2-25.562 33.2-25.562s-21.042 10.157-29.23 16.87c-8.188 6.712-12.784 12.583-16.007 26.893-1.893 8.401-1.383 19.6-.64 27.44-1.216-5.876-2.442-11.041-3.22-12.987-.276-.688-.779-2.11-1.425-3.99-.14-4.52.015-10.542 1.423-14.767 2.535-7.604 5.578-13.687 11.661-21.038 6.084-7.35 26.36-22.052 26.36-22.052s-19.77 11.406-24.84 14.447c-5.07 3.042-13.434 11.914-15.209 15.716-2.138 6.793-2.403 14.021-2.128 19.581-.855-2.56-1.757-5.274-2.72-8.179.545-6.374 2.075-16.344 4.09-19.767 2.534-4.31 10.391-10.646 15.46-14.447 5.07-3.802 13.941-10.9 13.941-10.9s-19.77 9.633-24.839 13.434c-5.07 3.802-7.8 4.916-8.872 9.379-.874 3.643-1.49 10.665-1.861 16.025-.712-2.148-1.41-4.246-2.103-6.328.153-4.601.567-11.174 1.683-13.247 1.774-3.294 7.603-9.123 9.884-10.392 2.282-1.267 16.223-9.63 16.223-9.63s-21.799 8.87-24.84 11.405c-3.042 2.536-3.295 2.535-4.816 6.59.18 2.162.432 7.732.595 11.468-1.784-5.331-3.366-9.995-4.393-12.845.21-1.158.592-2.423 1.263-3.692 2.282-4.309 5.07-6.843 10.14-9.378 5.068-2.536 14.7-7.857 14.7-7.857s-9.124 3.041-14.194 4.308c-5.07 1.268-9.378 4.31-10.646 6.084-.77 1.08-1.725 4.867-2.358 7.678-.444-1.008-1.64-3.833-3.146-7.415.133-1.152.411-2.32.942-3.305 1.774-3.296 7.35-6.336 10.393-7.605 3.041-1.267 8.618-3.295 8.618-3.295s-9.126-.252-13.435 1.775c-4.309 2.027-6.59 4.055-7.097 6.844-.194 1.068-.313 2.245-.386 3.294-1.02-2.426-2.326-5.557-3.521-8.415.655-1.641 2.077-4.75 3.907-6.032 2.535-1.774 9.885-5.577 9.885-5.577s-7.603.761-9.885 2.281c-1.879 1.253-3.907 6.063-4.572 7.74l-2.017-4.821c.063-.119.01-.305-.249-.595l-.43-1.027c.538-1.045 1.402-2.528 2.452-3.577 1.774-1.775 8.365-4.563 8.365-4.563s-6.59 1.014-8.365 2.027c-1.217.696-2.42 3.155-3.064 4.647-1.33-3.186-1.393-3.342-2.599-6.234l.087.067s.097-.147-.023-.483c.41-.808.995-1.757 1.797-2.559 1.774-1.774 6.083-4.816 6.083-4.816s-6.336 1.522-7.35 3.042c-.64.96-1.078 2.221-1.314 3.022-1.438-3.45-2.39-5.73-3.27-7.845l.02.007-.037-.048-.296-.71c.379-.558 1.52-2.201 2.362-3.044 1.013-1.014 2.282-4.562 2.282-4.562zm-30.378 27.307l-.293-.186s.084.073.293.186z" fill="#507c2e"/><path d="M758.537 168.394s5.637 1.623 13.566 4.056H761.58s3.549 2.534 8.11 2.534c2.585 0 4.517-.812 5.708-1.517a883.38 883.38 0 017.37 2.326c-3.127.34-6.866.887-9.528 1.219-4.055.507-5.07 5.576-5.07 5.576s4.824-3.032 9.125-3.549c5.665-.68 9.903-.852 12.868-.835 1.392.462 2.787.93 4.177 1.404-2.405.127-6.903.546-10.456 1.966-5.069 2.028-6.589 9.632-6.589 9.632s8.111-5.576 13.687-7.604c3.412-1.24 7.575-1.53 10.299-1.57 1.536.55 3.04 1.1 4.504 1.647a33.443 33.443 0 00-2.13-.077c-4.055 0-7.604 1.52-14.193 5.07-6.59 3.548-10.14 10.646-10.14 10.646s18.25-10.14 23.827-11.661c4.33-1.18 9.838-.532 12.104-.182 1.971.863 3.732 1.695 5.19 2.476-2.77-.131-6.293-.266-9.182-.266-5.578 0-6.591 1.521-12.167 6.083-5.577 4.563-15.715 11.66-15.715 11.66s6.083-1.521 11.152-3.548c5.07-2.028 16.729-10.646 23.826-11.66 2.161-.309 4.226-.24 6.056.002a159.776 159.776 0 015.22 3.262c-4.122-.475-9.812.072-14.317 1.805-6.59 2.535-27.882 23.32-27.882 23.32s6.083-3.042 11.66-6.084c5.575-3.04 23.319-14.701 29.402-15.207 2.88-.24 5.526.089 7.521.5 1.75 1.236 3.502 2.51 5.234 3.805-4.316-1.009-11.24-1.308-15.797.763-5.576 2.535-31.43 21.292-31.43 21.292s21.798-8.618 28.389-12.166c6.59-3.55 11.66-7.098 16.222-7.098 2.396 0 5.902.978 8.7 1.908 1.39 1.11 2.746 2.22 4.058 3.32-3.468-1.442-8.478-2.943-13.772-2.186-7.097 1.014-11.66 6.59-20.784 11.152-9.126 4.563-21.799 9.632-21.799 9.632s21.291-3.549 30.416-6.083c9.125-2.535 18.25-10.138 23.318-10.138 2.501 0 5.368.986 7.635 1.985 2.025 1.834 3.862 3.6 5.444 5.243-4.16-1.767-9.822-3.765-13.078-3.173-5.576 1.014-15.208 7.604-23.825 10.646-8.618 3.042-22.814 6.59-22.814 6.59s23.32-1.014 31.432-3.043c8.11-2.027 20.277-8.617 25.346-8.617 2.357 0 4.926 1.096 7.008 2.269 1.655 2.105 3.28 4.405 4.819 6.718-2.836-1.445-6.706-3.13-9.799-3.411-5.577-.506-11.153 4.563-18.25 8.112-7.097 3.549-26.36 8.11-26.36 8.11s12.166-.506 20.783-2.027c8.62-1.521 17.744-6.083 23.827-8.618 3.716-1.548 7.99-1.204 10.761-.703 5.05 7.798 8.883 15.277 8.883 15.277l5.704.127s-1.521-3.548-6.083-11.66c-4.563-8.11-18.25-23.825-29.911-32.95-11.66-9.125-32.444-21.292-46.638-25.855-14.195-4.562-45.118-10.645-45.118-10.645zm233.445 23.445s-8.66 1.562-20.277 5.45c-10.006 3.35-37.206 18.169-43.85 25.348-6.591 7.096-17.363 26.74-17.363 26.74l2.535-.253s2.38-4.685 6.374-10.9c1.408-.724 3.579-1.525 6.933-2.154 8.11-1.521 29.148-2.028 35.486-1.014 6.336 1.015 18.756 5.83 18.756 5.83s-7.35-4.815-14.701-6.844c-6.432-1.774-20.625-4.13-28.318-4.182-1.1-.007-2.066.032-2.858.127-4.088.49-9.85 3.4-13.435 5.41.799-1.185 1.643-2.4 2.535-3.635l.146-.2c2.81-1.402 8.35-3.573 13.289-4.363 6.336-1.015 22.558 1.774 27.88 2.534 5.324.762 17.236 4.816 17.236 4.816s-18.756-8.365-25.6-9.378c-5.56-.824-10.953-2.819-15.5-2.858-1.049-.009-2.053.086-3.003.324-2.98.745-7.765 3.14-11.232 5a47.994 47.994 0 015.878-5.816c3.254-1.417 8.344-3.207 12.451-2.733 6.59.76 38.02 9.885 38.02 9.885s-22.304-9.632-28.895-11.66c-4.53-1.393-6.905-2.069-8.77-2.025a6.6 6.6 0 00-2.382.504c-1.144.458-3.585 1.54-5.912 2.584 2.094-1.476 4.503-3.039 7.311-4.772a28.942 28.942 0 015.952-.346c5.83.253 33.457 10.392 33.457 10.392s-21.292-12.167-26.868-12.673a26.371 26.371 0 00-2.124-.102c-2.455-.024-4.914.245-6.788.525 1.4-.838 2.91-1.729 4.5-2.66 2.569-.205 6.507-.461 8.468-.297 3.042.253 24.333 10.898 24.333 10.898s-17.744-12.42-21.799-12.926a12.748 12.748 0 00-1.698-.08c-1.972.022-4.36.36-6.393.717a146.436 146.436 0 015.596-3.003c1.438-.166 3.394-.195 6.044.084 4.816.507 19.77 10.899 19.77 10.899s-13.18-12.167-15.714-12.673c-.476-.095-1.103-.136-1.807-.141-1.694-.012-3.77.184-5.344.365a175.995 175.995 0 016.052-2.787c1.378-.035 3.322-.034 5.407.535 2.789.76 12.674 7.605 12.674 7.605s-6.843-8.618-9.885-9.125c-1.521-.254-3.422-.317-4.943-.317l-.215.002c1.709-.714 3.332-1.36 4.884-1.96 1.977.322 5.107.93 6.611 1.767 2.28 1.267 3.802 2.788 3.802 2.788s-1.522-4.31-4.31-4.815a32.403 32.403 0 00-4.201-.467 191.8 191.8 0 014.355-1.573c1.09-.01 3.306.021 4.79.392 2.027.506 3.801 2.408 3.801 2.408s-1.014-2.598-2.408-3.296c-.522-.261-1.295-.344-2.056-.346-.87-.002-1.695.1-2.147.166 3.396-1.138 5.47-1.72 5.47-1.72z" fill="#6faf3f"/><path d="M667.662 219.362s-2.879 2.259-6.32 5.374c-.095-.945-.374-1.996-1.118-2.396-1.477-.796-4.444 0-4.444 0s1.782.352 2.996 1.073c.656.39 1.348 1.255 1.851 1.973-.896.824-1.816 1.698-2.727 2.6-.284-1.437-.763-3.191-1.493-3.652-1.283-.81-10.157.107-10.157.107s5.186 1.364 7.56 1.738c1.822.288 2.511 2.269 2.736 3.183a60.363 60.363 0 00-2.367 2.592c-.417-1.356-1.379-3.648-3.227-3.898-2.632-.356-14.387.673-14.387.673s10.486 1.46 13.524 1.749c1.577.15 2.68 1.278 3.379 2.328-.43.528-.836 1.053-1.208 1.568a25.734 25.734 0 00-1.355 2.1c-1.111-1.31-3.053-3.284-4.696-3.255-2.446.043-15.576.867-15.576.867s9.415.943 12.927 1.212c2.418.185 5.026 1.837 6.436 2.859a38.406 38.406 0 00-1.491 3.386c-1.742-.77-7.336-3.137-10.45-3.11-3.686.03-14.986 2.167-14.986 2.167s11.72.334 15.96.774c3.44.358 6.877.628 8.846 1.902-1.445 4.24-1.973 7.717-1.973 7.717l3.914-.857s.12-2.777 1.45-7.875a7.595 7.595 0 013.536-1.084c3.907-.216 20.565 3.97 20.565 3.97s-9.462-6.035-14.01-6.646c-2.922-.392-7.054 1.107-9.653 2.234.226-.622.567-1.337 1.004-2.122 1.403-.936 2.984-1.83 4.3-2.153 3.178-.78 14.657-1.012 14.657-1.012s-7.932-1.893-11.561-1.823c-1.755.033-4.383 1.84-6.632 3.697.821-1.326 1.838-2.786 2.94-4.283.225-.14 1.977-1.204 3.573-1.383 1.705-.192 2.382.227 7.995-.34 5.613-.569 6.998-1.562 6.998-1.562s-7.24-.332-11.724-.122c-2.19.103-3.951.664-5.184 1.211a164.45 164.45 0 012.211-2.802c1.512-.794 4.332-2.125 6.321-2.125 2.826 0 7.217-.393 7.217-.393s-4.348-1.126-6.905-1.126c-1.47 0-3.51.886-4.993 1.642 3.127-3.772 5.741-6.677 5.741-6.677z" fill="#34511f"/><path d="M630.42 146.031c.681 5.168 1.401 10.318 2.127 15.46-.634-.716-2.281-2.31-4.417-2.31-2.749 0-11.057 2.908-11.057 2.908s3.578-1.121 7.414-1.121c3.081 0 6.873 1.397 8.263 1.954.441 3.118.883 6.237 1.32 9.35-1.078-1.493-4.73-6.237-7.61-6.099-3.413.165-15.751 3.94-15.751 3.94h14.973c4.002 0 7.599 3.581 8.765 4.867.318 2.288.63 4.575.937 6.862-1.779-1.476-6.678-5.254-11.042-5.885-5.43-.785-20.456 3.094-20.456 3.094s21.429-.326 26.402 1.575c2.692 1.03 4.406 2.49 5.418 3.615.253 1.915.5 3.83.74 5.746-3.03-2.195-9.763-6.383-16.04-5.52-8.427 1.16-19.957 3.908-19.957 3.908s18.558-1.307 25.618-.343c5.224.713 9.069 3.363 10.718 4.696.336 2.764.657 5.53.954 8.297-3.406-3.608-10.691-10.582-15.594-9.969-6.586.824-27.233 6.15-27.233 6.15h3.923c3.923 0 21.996-2.263 28.226-.363 4.83 1.474 9.245 5.516 11 7.273.133 1.306.262 2.613.383 3.92a67.204 67.204 0 00-.396 1.98c.078-.411.208-1.036.41-1.837.198 2.143.38 4.288.546 6.436-2.111-1.828-15.55-13.225-22.448-13.225-7.494 0-30.236 8.52-30.236 8.52s17.349-5.288 31.082-1.57c11.3 3.06 19.272 7.22 21.774 8.615.225 3.163.407 6.33.544 9.505-1.18-2.076-2.985-4.604-5.03-5.208-3.605-1.065-11.364-2.985-18.357 1.145-6.992 4.13-28.18 11.018-28.18 11.018s1.102-.074 6.21-.633c5.106-.56 24.19-8.613 33.54-8.01 6.24.401 10.043 2.308 11.89 3.534.273 7.364.285 14.763-.06 22.216l3.859.758s-.649-6.412-.805-22.989c.732-.774 1.731-1.705 2.889-2.434 6.985-4.397 9.918-4.116 19.052-6.873 9.134-2.758 28.32-10.545 28.32-10.545s-32.465 5.563-39.222 7.848c-5.894 1.992-9.37 6.393-11.06 9.165-.004-.612-.008-1.201-.01-1.838-.006-1.775-.111-3.854-.29-6.147.776-1.992 2.377-5.487 5.002-8.352 3.888-4.242 19.016-10.456 25.406-14.838 6.39-4.382 9.934-8.194 9.934-8.194s-11.2 4.942-21.68 9.16c-10.482 4.22-13.038 3.363-16.29 9.355-1.614 2.972-2.35 6.554-2.683 9.41-.367-3.642-.882-7.696-1.495-11.966.8-1.605 1.807-3.15 3.062-4.335 4.426-4.173 23.973-11.285 28.252-13.702 4.28-2.417 6.554-4.473 6.554-4.473s-25.437 8.817-31.428 10.553c-2.899.839-5.131 5.653-6.666 10.399a560.236 560.236 0 00-1.487-9.495c1.071-2.188 2.97-5.5 5.192-6.823 3.444-2.051 19.077-6.94 22.308-8.18 3.23-1.24 5.286-2.85 5.286-2.85s-25.413 6.368-29.165 7.832c-2.071.808-3.383 4.099-4.145 6.887a842.32 842.32 0 00-1.432-8.172c.93-2.097 2.765-5.242 5.985-7.304 5.2-3.33 22.31-11.997 22.31-11.997s-15.053 5.915-20.912 8.042c-3.978 1.444-6.581 5.935-7.846 8.672a1069 1069 0 00-1.116-6.022c1.16-1.964 3.434-5.416 5.598-6.336 3.062-1.301 15.03-7.067 15.03-7.067s-12.081 4.25-15.127 4.867c-2.273.461-4.765 4.51-5.884 6.534-.495-2.602-.971-5.065-1.423-7.366.26-.112.586-.228.998-.348 3.195-.936 9.416-6.595 9.416-6.595s-6.14 2.546-8.768 4.026c-1.012.57-1.544 1.322-1.82 2.033-1.73-8.773-3.012-14.79-3.012-14.79zm7.628 63.985c-.059.31-.095.52-.095.52l.095-.52z" fill="#507c2e"/><path d="M691.064 227.64s-5.591.14-17.215 4.838c-11.624 4.697-17.074 17.755-17.074 17.755l3.558-.092s-.992-.643 3.622-6.865c.948-.262 2.907-.752 4.319-.752 1.924 0 1.94 1.798 6.974 3.522 5.034 1.724 17.706.39 17.706.39l-3.917-.563c-3.916-.562-9.839-3.34-14.024-4.86-3.139-1.14-7.355-.476-9.269-.072l.05-.063c.992-1.253 2.247-2.423 3.658-3.51 1.215-.355 3.14-.6 5.975-.162 5.657.875 15.728 6.87 15.728 6.87s-5.448-7.372-9.613-8.283c-3.048-.667-8.102.06-10.606.5 1.53-1.044 3.187-2.001 4.876-2.865 2.373-.39 5.979-.786 9.073-.268 5.102.853 9.478 5.546 9.478 5.546s-3.8-6.674-7.465-6.91c-2.068-.134-5.315-.028-7.845.09a80.925 80.925 0 015.07-2.032c2.172-.063 5.572-.035 7.232.653 2.537 1.052 4.26 1.8 4.26 1.8s-2.004-2.96-4.058-3.115c-1.524-.115-3.304-.24-4.573-.33a75.948 75.948 0 014.08-1.223z" fill="#6faf3f"/><path d="M628.264 232.308s-8.006-3.422-13.3-3.65c-5.293-.23-19.183 8.945-22.511 10.746-3.329 1.801-6.604 2.92-6.604 2.92s22.654-18.528 27.221-19.433c4.567-.905 15.32 5.58 15.32 5.58z" fill="none"/><path d="M604.196 183.278a240.854 240.854 0 014.584 6.903 26.23 26.23 0 01-1.294.218c-2.05.31-6.014 3.418-6.014 3.418s1.631-.91 4.152-1.52c1.621-.391 3.506-.04 4.653.263.475.765.941 1.527 1.399 2.287-.522-.291-1.3-.525-2.413-.407-2.462.26-10.705 3.1-10.705 3.1s4.76.006 7.841-.818c2.107-.563 5.004.014 6.648.438a189.67 189.67 0 011.583 2.766c-1.797-.38-4.479-.88-6.59-.987-3.482-.175-12.42 5.083-12.42 5.083s9.913-2.852 13.254-2.683c2.2.111 5.48 1.095 7.485 1.759a161.408 161.408 0 012.774 5.447c-1.882-1.215-7.537-4.547-12.224-3.906-5.698.779-13.012 5.81-13.012 5.81s7.722-2.332 15.707-3.133c5.41-.542 9.04 2.167 10.822 3.972.61 1.326 1.2 2.655 1.77 3.99-2.344-1.601-7.447-4.757-11.403-4.86-5.309-.14-20.108 10.763-20.108 10.763l3.134-.29c3.135-.293 14.272-5.907 20.227-5.907 3.548 0 7.023 1.642 9.262 2.971a156.66 156.66 0 012.579 6.827c-2.34-1.628-7.727-5.279-9.811-5.862-2.68-.75-7.717.215-12.939 3.63-5.221 3.416-15.865 7.795-15.865 7.795s4.067 0 9.523-.833c5.455-.833 13.586-6.035 18.64-6.441 3.694-.297 8.846 2.712 11.356 4.355.395 1.19.779 2.39 1.152 3.603-1.923-.95-8.497-4.035-11.679-3.457-3.746.681-10.218 5.11-16.008 7.153-5.79 2.043-15.327 4.427-15.327 4.427s15.668-.681 21.117-2.044c5.45-1.362 13.624-5.79 17.03-5.79 1.925 0 4.067 1.089 5.567 2.035 1.778 6.055 3.318 12.427 4.727 19.332l3.036-.6s.96-17.603-14.018-44.68c-6.944-12.556-18.192-24.127-18.192-24.127z" fill="#6faf3f"/><path d="M394.173 248.423l-9.424-20.308 2.916 12.746z" fill="#507c2e"/><path d="M390.477 249.054s-5.314-8.534-4.119-10.512c1.195-1.977 8.905 10.514 8.905 10.514zm6.083-.131s1.182-6.825 2.655-4.595c1.474 2.23.633 4.263.633 4.263z" fill="#6faf3f"/><path d="M1166.271 170.582c-.183.022-.696.327-1.827 1.21l-1.77-1.09 1.014 1.693a81 81 0 00-.783.643c-.895-.681-3.278-1.08-3.278-1.08l2.17 2.015c-.367.312-.753.642-1.178 1.011-.209.181-.41.362-.61.543-.14-.431-.407-.888-.92-1.06-1.076-.358-5.557.359-5.557.359s2.15.18 3.585.358c.98.123 1.534.908 1.79 1.397a27.443 27.443 0 00-1.669 1.83c-.228-.793-.675-1.617-1.555-1.793-1.79-.358-6.632.18-6.632.18s3.944.178 5.915 1.075c.856.389 1.306.947 1.542 1.454a25.035 25.035 0 00-2.004 3.105c.14-.615.284-1.4.284-2.05 0-1.255-.718-1.614-2.69-1.614s-13.621 2.33-13.621 2.33 11.113-.717 13.801-.178c1.658.331 2.02 1.207 2.054 1.83-.47.887-.89 1.8-1.277 2.747-.205-.947-.487-2.04-.777-2.427-.538-.716-1.075-1.434-3.764-1.254-2.688.178-18.64 5.018-18.64 5.018s18.64-3.405 20.97-2.867c1.17.27 1.796 1.035 2.131 1.732-.39.972-.745 1.985-1.083 3.04-.55-1.44-1.802-3.7-4.274-3.876-17.743 2.328-27.78 8.423-27.78 8.423s8.245-2.15 12.546-3.225c4.3-1.076 10.037-2.33 14.697-2.151 4.26.163 3.877 1.825 4.054 3.341a189.082 189.082 0 00-.864 3.155c-.542-1.33-1.595-3.548-2.832-4.166-1.793-.896-5.736-1.255-11.472.178-5.734 1.435-24.374 12.189-24.374 12.189s14.696-6.633 19.356-8.066c4.661-1.434 13.264-2.33 16.31-.359 1.25.809 1.922 1.917 2.285 2.946-.193.725-.375 1.422-.585 2.19-.416 1.526-.774 3.586-1.084 5.981-.501-.858-3.712-6.24-6.35-7.89-2.869-1.793-6.453-.358-11.83.896-5.377 1.255-25.271 11.83-25.271 11.83s13.442-5.378 20.61-6.991c7.17-1.613 13.084-2.151 16.49-1.613 2.597.41 5.078 4.034 6.115 5.74-.233 2.103-.436 4.4-.61 6.817-1.26-2.658-3.334-6.605-4.967-7.539-2.51-1.434-7.886-2.867-15.235-.895-7.348 1.971-31.007 12.904-31.007 12.904s20.79-6.274 26.168-7.528c9.32-2.868 15.687-1.976 18.998-.18 2.429 1.318 4.462 3.697 5.878 5.695-.053.834-.102 1.675-.149 2.523-1.363-.972-7.513-5.306-10.389-6.424-3.226-1.255-12.187 0-20.253 2.866-8.064 2.87-23.12 9.679-23.12 9.679l27.602-5.555s16.847-2.33 19.356-1.794c1.895.407 5.206 2.032 6.721 2.807-.712 13.952-.714 28.73-.714 28.73l3.675-.127s-.096-15.987.215-28.484c1.75-.293 4.498-.664 7.262-.664 4.563 0 12.673 6.083 21.799 7.097 9.125 1.014 28.388 0 24.333 0-4.056 0-18.25-2.028-25.855-5.07-7.603-3.041-12.166-8.11-17.235-8.11-3.44 0-7.81 3.265-10.265 5.366.037-1.336.078-2.637.126-3.846.04-.97.108-1.966.198-2.978 1.581-.895 3.524-1.903 5.379-2.598 4.054-1.521 11.659 2.027 17.742 5.069 6.084 3.041 20.785 4.056 20.785 4.056s-8.618-1.014-16.223-5.578c-7.603-4.561-12.166-9.63-17.235-9.63-3.023 0-7.296 3.778-10.263 6.834.193-1.678.446-3.392.748-5.115 1.995-2.052 5.02-4.85 7.487-5.776 4.055-1.52 8.618 2.03 13.687 3.55 5.07 1.521 14.701 2.534 14.701 2.534s-11.152-4.055-17.742-7.604c-6.59-3.549-6.084-4.563-10.646-3.042-2.508.836-5.011 3.968-6.762 6.62a111.46 111.46 0 011.886-7.52c1.615-1.192 3.72-2.635 5.194-3.225 2.689-1.075 12.189 4.122 15.235 4.84 3.047.716 7.348 1.612 7.348 1.612s-8.781-3.585-12.725-6.632c-3.943-3.047-4.301-4.48-7.169-4.301-1.706.106-4.547 1.986-6.574 3.494.255-.764.514-1.507.777-2.228 1.78-1.195 4.606-2.999 5.797-3.237 1.793-.359 4.84 1.793 7.528 3.404 2.688 1.614 11.29 3.764 11.29 3.764s-6.452-2.867-9.678-5.555c-3.225-2.69-5.018-4.66-7.707-4.66-1.545 0-4.213 1.953-6.204 3.616.345-.848.691-1.643 1.037-2.39 1.19-.792 2.895-2.123 4.99-2.123 2.866 0 6.63 3.047 8.96 4.123 2.33 1.074 6.272 1.612 6.272 1.612s-7.706-3.942-10.395-5.914c-2.687-1.972-3.225-2.688-5.197-2.688-.745 0-1.748.616-2.705 1.38.425-.684.835-1.323 1.222-1.904.528-.155 1.195-.252 2.02-.193 2.51.18 6.274 3.584 8.424 4.122l2.151.538s-4.301-3.047-6.094-4.48c-1.792-1.435-1.793-1.794-3.226-1.794-.718 0-1.93.675-2.963 1.348.488-.718.943-1.354 1.362-1.915l-.01.03s.715-.358 2.329-.358c1.612 0 5.018 3.047 5.018 3.047s-1.254-3.406-2.688-3.765c-1.036-.258-2.7-.328-3.56-.348.233-.283.452-.54.651-.767.8-.008 1.785.025 2.37.22 1.076.357 1.972 1.433 1.972 1.433s-.717-1.793-1.433-2.15c-.4-.2-1.626-.01-2.641.198.903-.994 1.393-1.361 1.393-1.361s.47-.607.185-.572z" fill="#34511f"/><path d="M1104.095 99.704s-1.774 1.52-3.802 3.295c-1.16 1.015-1.323 2.36-1.251 3.327l-2.55-6.116s.915 2.678 2.337 6.823c-1.028-.98-2.861-2.39-5.38-3.02-4.056-1.015-7.35-1.521-7.35-1.521s1.521 2.536 4.563 3.042c2.526.42 6.955 1.829 8.448 2.314.652 1.898 1.58 4.584 2.395 6.955-2.38-1.82-6.086-3.94-8.309-3.693-4.563.507-11.153 0-11.153 0s7.604 2.534 12.166 2.534c2.896 0 5.992 1.632 7.87 2.826.932 2.703 1.719 4.991 2.75 7.97-3.363-2.128-9.938-5.726-11.633-5.726-4.562 0-16.222.506-16.222.506s2.027 1.015 5.576 2.029c3.549 1.013 10.139 2.027 14.701 2.027 3.372 0 6.739 2.074 8.269 3.158.653 1.885 1.296 3.742 1.954 5.631-.9-1.242-2.11-2.572-3.64-3.516-3.725-2.3-7.448 0-17.997 0-8.413 0-11.294-1.094-12.119-1.538 1.027.643 4.867 2.938 9.637 4.41 5.584 1.724 6.826.574 13.652.574 5.16 0 9.6 1.965 11.465 2.927.51 1.461 1.022 2.93 1.517 4.34-.823-.873-1.694-1.52-2.599-1.792-5.069-1.52-10.646.509-17.744 1.015-7.095.507-18.756-4.562-18.756-4.562s3.55 4.054 12.167 6.589c8.618 2.534 16.729 1.521 22.812 1.521 2.421 0 4.6 1.608 6.348 3.542 1.259 3.55 2.424 6.81 3.284 9.13.449 1.212.98 2.702 1.541 4.303-3.375-4.069-8.644-9.829-12.186-10.891-5.07-1.522-13.688 2.534-24.333 3.041-10.646.507-16.729-4.056-16.729-4.056s2.027 2.535 9.631 5.577c7.605 3.042 28.39.507 34.98 3.042 4.095 1.574 8.187 6.084 10.7 9.274.599 1.77 1.233 3.674 1.879 5.63-.658-.925-1.317-1.717-1.934-2.231-3.042-2.535-7.604-8.618-13.18-8.618-5.577 0-20.785.507-29.91.507-9.124 0-19.77-3.548-19.77-3.548s20.276 8.617 28.894 8.617c8.62 0 20.279.508 25.348 2.535 3.39 1.355 9.213 6.29 12.74 9.444.876 2.72 1.761 5.503 2.643 8.317-3.444-3.476-9.666-8.68-15.89-11.17-7.604-3.042-18.757-.508-28.388-2.028-9.632-1.52-25.855-7.098-25.855-7.098s23.319 12.674 33.965 15.716c10.647 3.041 20.785 1.52 29.91 4.561 3.709 1.237 6.33 3.647 8.133 6.07a703.81 703.81 0 013.893 13.129c-2.477-4.46-5.764-9.695-8.477-11.594-5.07-3.549-14.196-3.041-28.897-4.563-14.7-1.52-37.513-12.672-37.513-12.672s28.896 16.728 34.98 18.756c6.082 2.027 28.894 6.083 34.977 9.631 2.886 1.684 5.422 5.532 7.299 9.115.852 3.32 1.493 6.118 1.827 8.121.226 1.352.435 2.75.632 4.161-2.043-4.4-5.056-10.315-7.729-13.285-4.563-5.07-14.194-6.591-22.813-8.618-8.618-2.029-47.652-14.701-47.652-14.701s30.923 18.25 40.048 21.798c9.125 3.548 17.236 3.548 25.854 8.617 5.718 3.364 10.307 7.387 12.756 9.72 1.254 10.173 1.82 20.063 1.82 20.063l4.308-.127-.127-8.87c0-2.073-1.05-8.753-2.381-15.898.221-.747.575-1.775 1.172-3.238 1.726-4.232 3.763-7.67 5.199-11.153 1.436-3.485.626-30.945 4.812-38.865 4.186-7.92 33.2-25.562 33.2-25.562s-21.043 10.157-29.23 16.87c-8.19 6.712-12.785 12.583-16.008 26.893-1.893 8.401-1.383 19.6-.64 27.44-1.216-5.876-2.442-11.041-3.22-12.987-.276-.688-.78-2.11-1.425-3.99-.14-4.52.015-10.542 1.423-14.767 2.535-7.604 5.578-13.687 11.661-21.038 6.083-7.35 26.36-22.052 26.36-22.052s-19.77 11.406-24.84 14.447c-5.07 3.042-13.435 11.914-15.209 15.716-2.139 6.793-2.404 14.021-2.129 19.581a4455.23 4455.23 0 01-2.72-8.179c.546-6.374 2.076-16.344 4.09-19.767 2.534-4.31 10.392-10.646 15.461-14.447 5.069-3.802 13.941-10.9 13.941-10.9s-19.77 9.633-24.84 13.434c-5.07 3.802-7.8 4.916-8.87 9.379-.876 3.643-1.49 10.665-1.862 16.025-.712-2.148-1.41-4.246-2.104-6.328.154-4.601.568-11.174 1.684-13.247 1.774-3.294 7.603-9.123 9.884-10.392 2.282-1.267 16.223-9.63 16.223-9.63s-21.799 8.87-24.84 11.405c-3.042 2.536-3.295 2.535-4.817 6.59.18 2.162.432 7.732.596 11.468-1.784-5.331-3.366-9.995-4.393-12.845.21-1.158.592-2.423 1.263-3.692 2.282-4.309 5.069-6.843 10.14-9.378 5.068-2.536 14.7-7.857 14.7-7.857s-9.124 3.041-14.194 4.308c-5.07 1.268-9.379 4.31-10.646 6.084-.77 1.08-1.725 4.867-2.358 7.678-.444-1.008-1.64-3.833-3.146-7.415.133-1.152.411-2.32.942-3.305 1.774-3.296 7.35-6.336 10.392-7.605 3.042-1.267 8.618-3.295 8.618-3.295s-9.125-.252-13.434 1.775c-4.309 2.027-6.59 4.055-7.097 6.844-.194 1.068-.313 2.245-.387 3.294-1.018-2.426-2.325-5.557-3.52-8.415.655-1.641 2.077-4.75 3.907-6.032 2.534-1.774 9.885-5.577 9.885-5.577s-7.604.761-9.885 2.281c-1.879 1.253-3.907 6.063-4.572 7.74l-2.017-4.821c.062-.119.01-.305-.249-.595l-.43-1.027c.538-1.045 1.401-2.528 2.452-3.577 1.774-1.775 8.364-4.563 8.364-4.563s-6.589 1.014-8.364 2.027c-1.217.696-2.42 3.155-3.064 4.647-1.33-3.186-1.393-3.342-2.599-6.234l.087.067h.001s.096-.147-.024-.483c.411-.808.996-1.757 1.797-2.559 1.775-1.774 6.084-4.816 6.084-4.816s-6.337 1.522-7.35 3.042c-.641.961-1.078 2.221-1.314 3.022l-3.271-7.845.021.007-.038-.048-.296-.71c.38-.557 1.52-2.201 2.363-3.044 1.013-1.014 2.281-4.562 2.281-4.562zm-30.377 27.307c-.176-.11-.293-.186-.293-.186s.083.073.293.186z" fill="url(#b)"/><path d="M1008.537 168.394s5.637 1.623 13.566 4.056h-10.524s3.548 2.534 8.11 2.534c2.585 0 4.517-.812 5.708-1.517a883.53 883.53 0 017.369 2.326c-3.126.34-6.865.887-9.528 1.219-4.054.507-5.069 5.576-5.069 5.576s4.824-3.032 9.125-3.549c5.665-.68 9.903-.852 12.868-.835 1.392.462 2.786.93 4.176 1.404-2.404.127-6.903.546-10.455 1.966-5.069 2.028-6.589 9.632-6.589 9.632s8.11-5.576 13.687-7.604c3.411-1.24 7.574-1.53 10.299-1.57 1.536.55 3.04 1.1 4.504 1.647a33.47 33.47 0 00-2.13-.077c-4.055 0-7.604 1.52-14.193 5.07-6.59 3.548-10.14 10.646-10.14 10.646s18.25-10.14 23.827-11.661c4.33-1.18 9.838-.532 12.104-.182 1.971.863 3.732 1.695 5.19 2.476-2.77-.131-6.293-.266-9.183-.266-5.577 0-6.59 1.52-12.166 6.083-5.578 4.563-15.716 11.66-15.716 11.66s6.084-1.521 11.153-3.548c5.07-2.028 16.728-10.646 23.826-11.66 2.16-.31 4.226-.24 6.056.003a159.882 159.882 0 015.22 3.261c-4.122-.475-9.812.073-14.318 1.806-6.59 2.534-27.882 23.319-27.882 23.319s6.083-3.042 11.66-6.084c5.576-3.04 23.32-14.701 29.403-15.207 2.88-.24 5.526.09 7.521.501a239.34 239.34 0 015.234 3.804c-4.317-1.008-11.24-1.307-15.797.764-5.576 2.534-31.43 21.292-31.43 21.292s21.798-8.618 28.389-12.167c6.589-3.549 11.66-7.097 16.221-7.097 2.397 0 5.903.978 8.7 1.907 1.39 1.11 2.747 2.22 4.059 3.32-3.468-1.442-8.478-2.942-13.772-2.186-7.098 1.015-11.66 6.59-20.784 11.153-9.126 4.563-21.799 9.632-21.799 9.632s21.291-3.55 30.416-6.084 18.25-10.138 23.318-10.138c2.5 0 5.368.986 7.635 1.986 2.024 1.834 3.862 3.6 5.444 5.243-4.16-1.767-9.822-3.766-13.078-3.174-5.576 1.014-15.208 7.605-23.826 10.646-8.618 3.042-22.813 6.59-22.813 6.59s23.32-1.014 31.431-3.042c8.111-2.028 20.278-8.618 25.347-8.618 2.357 0 4.926 1.097 7.008 2.27 1.655 2.104 3.28 4.404 4.818 6.717-2.836-1.445-6.705-3.13-9.798-3.41-5.577-.507-11.154 4.563-18.25 8.111-7.098 3.55-26.36 8.111-26.36 8.111s12.166-.507 20.783-2.027c8.619-1.522 17.744-6.084 23.827-8.618 3.715-1.549 7.99-1.205 10.761-.703 5.05 7.798 8.883 15.276 8.883 15.276l5.704.128s-1.522-3.549-6.084-11.66c-4.563-8.112-18.25-23.826-29.91-32.95-11.66-9.126-32.444-21.292-46.638-25.855-14.196-4.562-45.118-10.646-45.118-10.646zm233.445 23.445s-8.66 1.562-20.277 5.45c-10.006 3.35-37.206 18.169-43.85 25.348-6.591 7.096-17.363 26.74-17.363 26.74l2.535-.253s2.38-4.685 6.374-10.9c1.407-.724 3.579-1.525 6.933-2.154 8.11-1.521 29.148-2.028 35.486-1.014 6.336 1.015 18.756 5.83 18.756 5.83s-7.35-4.815-14.701-6.844c-6.432-1.774-20.626-4.13-28.318-4.182-1.1-.007-2.066.032-2.858.127-4.089.49-9.85 3.4-13.436 5.41.8-1.185 1.644-2.4 2.536-3.635l.146-.2c2.81-1.402 8.35-3.573 13.289-4.363 6.336-1.015 22.557 1.774 27.88 2.534 5.324.761 17.236 4.816 17.236 4.816s-18.756-8.365-25.6-9.378c-5.56-.824-10.953-2.819-15.5-2.858-1.049-.009-2.053.086-3.004.324-2.98.745-7.764 3.14-11.23 5a47.993 47.993 0 015.877-5.816c3.254-1.417 8.344-3.207 12.451-2.733 6.59.76 38.02 9.885 38.02 9.885s-22.304-9.632-28.895-11.66c-4.53-1.393-6.905-2.069-8.77-2.025a6.6 6.6 0 00-2.382.504c-1.144.458-3.585 1.54-5.912 2.584 2.094-1.476 4.503-3.039 7.311-4.772a28.943 28.943 0 015.951-.346c5.83.253 33.458 10.392 33.458 10.392s-21.292-12.167-26.868-12.673a26.346 26.346 0 00-2.124-.102c-2.455-.024-4.914.245-6.788.525 1.4-.838 2.91-1.729 4.5-2.66 2.569-.205 6.507-.461 8.468-.297 3.041.253 24.333 10.898 24.333 10.898s-17.744-12.42-21.8-12.926a12.756 12.756 0 00-1.697-.08c-1.972.021-4.36.36-6.393.717a146.41 146.41 0 015.596-3.003c1.438-.166 3.394-.195 6.044.084 4.816.507 19.77 10.899 19.77 10.899s-13.18-12.167-15.714-12.673c-.476-.095-1.103-.136-1.807-.141-1.694-.012-3.77.184-5.344.365a176.015 176.015 0 016.052-2.787c1.378-.035 3.321-.034 5.407.535 2.789.76 12.674 7.605 12.674 7.605s-6.843-8.618-9.886-9.125c-1.52-.254-3.421-.317-4.942-.317l-.215.002c1.709-.714 3.331-1.36 4.884-1.96 1.976.322 5.107.93 6.611 1.767 2.28 1.267 3.802 2.788 3.802 2.788s-1.522-4.31-4.31-4.815a32.403 32.403 0 00-4.201-.467 191.8 191.8 0 014.355-1.573c1.09-.01 3.306.021 4.79.392 2.027.506 3.801 2.408 3.801 2.408s-1.014-2.599-2.408-3.296c-.523-.261-1.295-.344-2.056-.346-.87-.002-1.695.1-2.147.166 3.396-1.138 5.47-1.72 5.47-1.72z" fill="url(#c)"/><path d="M1405.558 248.482c-2.648.143-52.593 1.831-47.657.896 4.935-.936 26.082-2.974 20.418-3.637-5.664-.663-35.09 1.563-31.472.08 3.618-1.485 64.54-3.081 61.406-1.262-3.133 1.82-2.308 5.033-2.308 5.033z" fill="#3d2917"/><path d="M1351.773 217.253c-13.633-.075-19.837 21.891-28.015 26.46-9.183 5.13-24.02 7.066-24.02 7.066s3.802.02 8.7-.002c3.37-.609 7.694-1.38 9.325-1.606 2.48-.343 9.843-3.691 9.843-3.691s-2.532 2.638-3.711 3.488c-.569.41-3.36 1.103-6.1 1.713 2.327-.042 4.6-.102 6.68-.18l.275-.2c1.363-.986 4.488-5.217 4.488-5.217s.047 1.096.41 3.033c.196 1.039.656 1.653 1.043 2.006 2.03-.21 3.05-.482 2.361-.84-3.351-1.742-.888-7.52-.888-7.52l3.414 8.088s1.24-2.6 1.07-4.222c-.17-1.622-3.021-4.368-2.428-6.782 2.026-8.242 4.12-10.261 4.12-10.261s-.831 8.078.296 9.469c1.127 1.39 4.834 2.768 4.09 5.643-.743 2.876.876 3.718.876 3.718l.229-7.757s-2.754-1.392-3.027-4.36c-.598-6.523 5.63-13.826 5.63-13.826s5.147 10.846 5.104 12.726c-.042 1.879-2.43 6.062-2.067 8.133.362 2.07 2.23 5.89 2.23 5.89s-2.667-6.261-1.385-8.324l1.282-2.064s2.231-2.871 2.023-5.463c-.209-2.593-2.792-12.243-2.792-12.243l6.35 1.542s-.164 6.198.763 8.147c.896 1.884 6.478 14.345 3.357 16.473-2.877.293-5.724.635-5.097.789.346.085 1.383.099 2.683.077-3.078.91-4.898.929-4.898.929s6.45.14 8.557-.722a.933.933 0 00.403-.345c2.38-.11 4.657-.252 5.439-.328 1.752-.17 2.52-1.411 1.815-3.847-.704-2.437 1.09-9.828 1.09-9.828s7.07 7.661 8.594 10.829c1.524 3.167 2.131 5.289 2.131 5.289l4.785 1.485s-12.136-25.436-29.652-32.267c-1.916-.748-3.702-1.089-5.376-1.098zm9.212 6.234l6.99 5.55s1.144 6.144-.461 8.05c-1.605 1.906 1.777 5.517.315 7.543-1.461 2.027-1.203 1.16-1.203 1.16s-1.492.128-3.331.303c.571-2.963-1.197-9.851-1.197-9.851zm27.198 26.606s-7.056-26.444 4.092-34.687c11.149-8.242 29.99 22.644 34.02 25.026 4.03 2.381 43.334 3.273 43.334 3.273l-41.719 2.56 53.13 3.078-85.978.904s21.754-5.223 19.1-6.633c-2.652-1.409 3.824-5.756 3.824-5.756l-2.618-5.496s-7.693 7.335-5.454 8.505c2.24 1.17-4.465 7.924-4.465 7.924l-6.45.96s7.857-6.068 8.342-7.292c.486-1.224-1.505-1.532-.583-4.866.921-3.335 6.684-7.93 6.684-7.93l-5.181-5.445s-5.784 6.991-5.152 9.011c.633 2.02-4.285 5.638-4.064 7.59.222 1.951 1.749 9.376 1.749 9.376l-2.893.052s-3.393-10.234-1.607-11.695c1.787-1.462 3.33-4.36 4.231-5.794.902-1.435 1.008-4.185 1.846-6.457.838-2.272 3.983-4.029 3.983-4.029s-2.662-5.036-5.243-3.785c-2.581 1.25.719 11.153.719 11.153l-1.616 6.778s-2.92-9.362-2.854-12.325l.099-4.335s-.262-3.067-1.717-2.911c-1.456.156-3.017.942-4.475 4.098-1.458 3.155-.714 6.657-.714 6.657l3.824 2.801 1.178 2.012.04 3.289s-.597-3.624-2.859-4.94l-2.262-1.317s-.55 9.507-.01 11.18c.542 1.674 1.971 10.164 1.971 10.164z" fill="#6d5028"/></svg>