<svg xmlns="http://www.w3.org/2000/svg" width="1000" height="250" viewBox="0 0 1000 250"><g transform="rotate(-8.38 1537.495 326.572)"><ellipse cx="102.857" cy="26.586" rx="12.5" ry="9.286" fill="#cd7d48"/><path d="M92.456 21.676a12.5 9.286 0 00-2.465 5.535 12.5 9.286 0 0012.5 9.285 12.5 9.286 0 0011.803-6.228c-2.359.019-5.156.343-7.696.277-4.583-.119-8.273-1.547-10.714-4.166-1.345-1.443-2.315-3.234-3.428-4.703z" fill="#be6b34"/><path d="M103.193 17.776a12.5 9.286 0 00-8.732 2.641c2.064.325 4.719.542 7.424.871 4.136.503 8.372 1.257 12.224 1.25a12.5 9.286 0 00-10.916-4.762z" fill="#d38d5f"/><ellipse cx="118.75" cy="25.872" rx="13.571" ry="12.857" fill="#d38d5f"/><path d="M111.46 15.523a13.571 12.857 0 00-6.047 10.697 13.571 12.857 0 0013.573 12.857A13.571 12.857 0 00130.3 33.32c-1.059.168-2.115.366-3.17.556-2 .36-4.022.68-6.055.635-2.032-.044-4.09-.47-5.84-1.506-2.36-1.399-3.998-3.85-4.716-6.498-.719-2.648-.573-5.478.074-8.144.234-.964.54-1.904.867-2.84z" fill="#cc7944"/><path d="M118.714 12.637a13.571 12.857 0 00-11.776 6.469c1.703-.22 3.394-.508 4.99-.754 3.87-.595 7.203-.834 11.25-.357 2.243.264 4.7.727 7.026.66a13.571 12.857 0 00-11.49-6.018z" fill="#dca37f"/><ellipse cx="137.5" cy="25.336" rx="18.393" ry="16.071" fill="#d99c74"/><path d="M123.24 15.211a18.393 16.071 0 00-4.539 10.57 18.393 16.071 0 0018.393 16.071 18.393 16.071 0 0011.437-3.484c-6.172-.485-12.224-2.605-17.152-6.336-2.56-1.939-4.826-4.319-6.357-7.141-1.532-2.822-2.297-6.108-1.856-9.289.019-.132.052-.26.074-.39z" fill="#cf8351"/><path d="M137.322 9.477a18.393 16.071 0 00-14.082 5.734c2.008-.16 4.293-.606 6.582-.912 3.572-.476 7.144-.595 11.55.358 3.675.795 7.925 2.328 11.1 1.779a18.393 16.071 0 00-15.15-6.959z" fill="#e1b090"/><ellipse cx="159.464" cy="26.05" rx="21.607" ry="19.107" fill="#deaa87"/><path d="M159.276 6.94a21.607 19.107 0 00-16.685 7.127c2.428-.002 4.88-1.31 7.875-2.25 3.78-1.188 8.42-1.783 12.23-1.426 3.81.358 6.787 1.668 10.18 3.81 1.973 1.247 4.08 2.75 5.96 3.46A21.607 19.107 0 00159.424 6.94a21.607 19.107 0 00-.147 0z" fill="#e4b89b"/><path d="M140.897 16.568a21.607 19.107 0 00-3.348 10.216 21.607 19.107 0 0021.607 19.106 21.607 19.107 0 0019.008-10.022c-.665.246-1.336.473-2.02.657-4.294 1.158-8.846 1.143-13.238.437-6.198-.996-12.31-3.457-16.787-7.857-2.413-2.372-4.336-5.337-5.023-8.65a12.573 12.573 0 01-.2-3.887z" fill="#d6966a"/><path d="M213.323 0c-2.018-.025-4.261.946-6.002 1.883-2.322 1.25-3.75 2.442-6.309 3.573-1.965.868-4.59 1.694-6.945 2.277a23.929 21.429 0 00-13.354-3.647 23.929 21.429 0 00-23.928 21.428 23.929 21.429 0 0023.928 21.43 23.929 21.429 0 0021.438-11.908c3.889-2.374 7.395-5.197 10.17-8.926 3.63-4.88 6.012-11.31 6.43-16.25.416-4.94-1.131-8.393-3.512-9.465-.596-.268-1.244-.386-1.916-.395z" fill="#e9c6af"/><path d="M158.389 17.805a23.929 21.429 0 00-1.603 7.71 23.929 21.429 0 0023.927 21.429 23.929 21.429 0 0021.438-11.908c-6.38.145-12.802-.173-19.035-1.537-6.234-1.365-12.29-3.805-17.4-7.627-2.928-2.19-5.557-4.894-7.327-8.067z" fill="#d38d5f" fill-opacity=".744"/><path d="M212.637.032c-1.828.164-3.77 1.019-5.316 1.851-2.322 1.25-3.75 2.442-6.309 3.573-1.965.868-4.59 1.694-6.945 2.277a23.929 21.429 0 00-13.354-3.647 23.929 21.429 0 00-20.808 10.854c3.604-1.31 6.943-2.961 10.095-4.068 4.405-1.548 8.453-2.023 12.405-2.368 3.951-.344 7.808-.558 10.785-.082 2.976.477 5.073 1.642 7.252 1.63 2.179-.014 4.44-1.204 6.601-3.075 1.816-1.573 3.564-3.644 5.594-6.945z" fill="#eed3c1"/><path d="M197.889 26.583c.296-2.11.888-6.33 2.221-10.35 1.333-4.019 3.406-7.837 5.98-10.765 2.575-2.928 5.65-4.965 7.804-3.846 2.154 1.12 3.386 5.393 2.095 9.174-1.291 3.782-5.105 7.071-8.918 10.36l-9.479 7.537.297-2.11z" fill="#502d16"/></g></svg>