<svg xmlns="http://www.w3.org/2000/svg" width="20" height="20" viewBox="0 0 5.292 5.292"><path d="M.799.46S.742.631.762.947c.003.05.012.099.023.147-.297.004-.722.104-.722.104s.232.449.506.636c.275.188.54.223.54.223s-.111.06-.255.203c-.144.143-.222.4-.222.4s.642-.19.865-.31a.61.61 0 01.39-.065c.02.02.054.076.103.249.084.296.056.362.056.362s.092.03.2-.07c.11-.098.055-.055.055-.055s-.122-.315-.223-.46a1.388 1.388 0 00-.075-.098c.093-.103.337-.38.474-.619.164-.288.103-.548.103-.548s-.086.036-.21.15c-.122.114-.216.223-.216.223s.025-.147-.016-.478c-.041-.33-.402-.788-.402-.788s-.227.27-.343.524C1.37.659 1.347.64 1.323.625 1.041.44.8.46.8.46z"/><path d="M3.8 1.668s-.19.121-.421.443c-.036.05-.066.105-.094.16-.29-.23-.78-.47-.78-.47s-.13.617-.013 1.015c.117.399.346.642.346.642s-.155-.03-.407-.005c-.253.024-.531.213-.531.213s.772.323 1.083.382a.763.763 0 01.428.245c.004.036-.008.117-.097.323-.153.353-.232.395-.232.395s.065.1.249.091c.183-.01.096-.01.096-.01s.131-.402.149-.623c.004-.057.005-.108.004-.153.17-.027.626-.1.947-.225.387-.149.533-.45.533-.45s-.112-.032-.321-.019c-.21.014-.386.045-.386.045s.14-.123.362-.475c.222-.353.234-1.081.234-1.081s-.433.082-.746.236c-.008-.035-.015-.07-.026-.105-.127-.402-.378-.574-.378-.574z"/></svg>