<svg xmlns="http://www.w3.org/2000/svg" width="20" height="20" viewBox="0 0 5.292 5.292"><path d="M1.367 1.024s-.038.114-.025.325a.607.607 0 00.016.098c-.198.003-.483.07-.483.07s.155.3.339.425c.183.125.36.148.36.148s-.074.04-.17.136c-.097.095-.148.267-.148.267s.428-.127.577-.207a.408.408 0 01.26-.044c.014.014.037.051.07.167.056.198.037.241.037.241s.06.02.134-.046c.072-.066.036-.037.036-.037s-.081-.21-.149-.308a.927.927 0 00-.05-.065 2.76 2.76 0 00.316-.413c.11-.192.069-.366.069-.366s-.057.024-.14.1c-.082.077-.144.15-.144.15s.016-.099-.011-.32c-.027-.22-.269-.526-.269-.526s-.151.18-.228.35c-.016-.012-.03-.025-.047-.035-.188-.124-.35-.11-.35-.11zM3.687 2.048s-.14.09-.311.328a.84.84 0 00-.07.118c-.214-.17-.577-.348-.577-.348s-.097.457-.01.752c.087.294.257.475.257.475s-.115-.022-.302-.004-.393.157-.393.157.571.24.802.283c.167.032.271.13.317.182.002.026-.006.086-.072.239-.113.26-.172.292-.172.292s.048.074.184.067c.136-.007.072-.008.072-.008s.097-.297.11-.46c.003-.042.003-.08.003-.114a3.82 3.82 0 00.7-.166c.286-.11.395-.333.395-.333s-.083-.024-.238-.014c-.155.01-.285.033-.285.033s.103-.09.267-.351c.164-.261.174-.8.174-.8s-.32.06-.552.175c-.006-.027-.012-.053-.02-.078-.094-.298-.28-.425-.28-.425z"/></svg>