<svg xmlns="http://www.w3.org/2000/svg" width="20" height="20" viewBox="0 0 5.292 5.292"><path d="M1.395.728a.164.335 0 00-.163.316.335.164 45 00-.34-.107.335.164 45 00.108.34.335.164 0 00-.316.163.335.164 0 00.316.164.164.335 45 00-.107.34.164.335 45 00.339-.107.164.335 0 00.164.315.164.335 0 00.164-.316.335.164 45 00.34.108.335.164 45 00-.108-.34.335.164 0 00.316-.164.335.164 0 00-.316-.164.164.335 45 00.108-.34.164.335 45 00-.34.108.164.335 0 00-.164-.316zm.001.583a.13.13 0 01.13.13.13.13 0 01-.13.129.13.13 0 01-.13-.13.13.13 0 01.13-.13zM3.63 2.624a.215.439 0 00-.214.413.439.215 45 00-.443-.14.439.215 45 00.14.444.439.215 0 00-.413.215.439.215 0 00.413.215.215.439 45 00-.14.444.215.439 45 00.443-.14.215.439 0 00.215.413.215.439 0 00.215-.413.439.215 45 00.444.14.439.215 45 00-.14-.444.439.215 0 00.413-.215.439.215 0 00-.413-.215.215.439 45 00.14-.444.215.439 45 00-.444.14.215.439 0 00-.215-.413zm.001.762a.17.17 0 01.17.17.17.17 0 01-.17.17.17.17 0 01-.17-.17.17.17 0 01.17-.17z"/></svg>