<svg xmlns="http://www.w3.org/2000/svg" width="50" height="26" viewBox="0 0 13.229 6.879"><path d="M6.91.111a6.242 6.242 0 00-.387.003C2.347.254-.05 3.527-.05 3.527h1.44c1.119-.9 2.859-1.903 5.132-1.979 2.348-.078 4.144 1.01 5.266 1.979h1.337S10.848.194 6.909.112z"/><path d="M6.91 6.87a6.241 6.241 0 01-.387-.002C2.347 6.728-.05 3.455-.05 3.455h1.44c1.119.9 2.859 1.903 5.132 1.979 2.348.078 4.144-1.01 5.266-1.979h1.337S10.848 6.79 6.909 6.87z"/><path d="M6.564 6.01S5.196 4.793 5.27 3.597C5.346 2.4 6.513 1.01 6.513 1.01s1.15 1.508 1.292 2.448c.142.94-1.241 2.551-1.241 2.551z"/></svg>