<svg xmlns="http://www.w3.org/2000/svg" width="305" height="147" viewBox="0 0 305 147"><path style="line-height:1.25;-inkscape-font-specification:'sans-serif Bold'" d="M.64 1.016v105.693h27.255V75.984l14.017-14.298 31.785 45.023h30.016L59.396 43.846l41.98-42.83H70.513L27.895 44.625V1.015H.64zm118.647 0v105.693h45.236c5.597 0 10.616-.403 15.077-1.195 6.853 6.528 25.744 5.804 29.828 11.25 4.505 6.007 1.5 9.01 7.508 18.021 6.007 9.01 21.025 12.014 21.025 12.014 10.512-4.505 12.014-19.523 16.52-33.04 4.505-13.515-1.501-40.546-9.01-43.55-6.564-2.625-22.308-6.398-40.21-2.291-.796-3.086-2.047-5.878-3.784-8.356-.181-.257-.382-.495-.57-.744 4.161-2.108 20.292-10.57 23.437-17.144 3.591-7.509-8.98-12.013-19.754-7.508-1.057.442-2.237 1.047-3.463 1.725.56-2.13.846-4.432.846-6.912 0-9.77-3.305-16.87-9.912-21.307-6.56-4.436-17.178-6.656-31.856-6.656h-40.918zm27.256 18.548h15.078c4.295 0 7.551.968 9.77 2.903 2.218 1.888 3.326 4.649 3.326 8.283 0 3.681-1.108 6.466-3.326 8.354-2.219 1.887-5.475 2.83-9.77 2.83h-15.078v-22.37zm119.928 3.946c-8.195-.044-24.474 9.81-31.514 19.666-7.509 10.512 0 18.021 0 18.021h12.016s13.514-4.505 21.023-13.515c7.509-9.011 7.509-22.526 0-24.028a8.012 8.012 0 00-1.525-.144zm30.035 27.031c-8.195-.044-24.472 9.813-31.512 19.668-7.509 10.512 0 18.021 0 18.021h12.014s13.516-4.506 21.025-13.517c7.51-9.01 7.51-22.526 0-24.027a8.033 8.033 0 00-1.527-.145zm-149.963 9.941h15.998c5.522 0 9.651 1.157 12.389 3.47 2.737 2.265 4.105 5.685 4.105 10.263 0 4.672-1.391 8.166-4.176 10.478-2.737 2.313-6.843 3.47-12.318 3.47h-15.998v-27.68zm146.135 30.403c-.243.008-.493.03-.75.066-8.243 1.16-24.766 18.535-24.766 18.535s-11.3 5.842-8.281 16.215c3.019 10.373 26.7-4.736 34.246-13.65 7.31-8.636 7.067-21.43-.45-21.166z" font-weight="700" font-size="144.982" font-family="sans-serif" letter-spacing="0" word-spacing="0" fill="#1b110a"/></svg>