<svg xmlns="http://www.w3.org/2000/svg" width="20" height="20" viewBox="0 0 5.292 5.292"><path d="M1.452.254a.268.548 0 00-.267.516.548.268 45 00-.553-.175.548.268 45 00.175.554.548.268 0 00-.516.268.548.268 0 00.516.268.268.548 45 00-.175.554.268.548 45 00.553-.175.268.548 0 00.269.516.268.548 0 00.267-.516.548.268 45 00.555.175.548.268 45 00-.176-.554.548.268 0 00.516-.268.548.268 0 00-.516-.268.268.548 45 00.176-.554.268.548 45 00-.555.175.268.548 0 00-.267-.516.268.548 0 00-.002 0zm.002.951a.212.212 0 01.211.212.212.212 0 01-.211.212.212.212 0 01-.212-.212.212.212 0 01.212-.212zM3.495 1.923a.346.706 0 00-.344.664.706.346 45 00-.714-.225.706.346 45 00.226.714.706.346 0 00-.665.345.706.346 0 00.665.345.346.706 45 00-.226.715.346.706 45 00.714-.225.346.706 0 00.346.664.346.706 0 00.345-.665.706.346 45 00.715.226.706.346 45 00-.226-.715.706.346 0 00.664-.345.706.346 0 00-.664-.345.346.706 45 00.226-.714.346.706 45 00-.715.225.346.706 0 00-.345-.664.346.706 0 00-.002 0zm.002 1.225a.273.273 0 01.273.273.273.273 0 01-.273.273.273.273 0 01-.273-.273.273.273 0 01.273-.273z"/></svg>