<svg xmlns="http://www.w3.org/2000/svg" width="20" height="20" viewBox="0 0 5.292 5.292"><path d="M1.857 1.16a.906.906 0 00-.358-.042c-.69.058-1.22.66-1.22.66s.079.03.574.042c.496.014.824-.232 1.128-.21.052.004.103.016.153.027a2.585 2.585 0 00-.254.05c-.521.13-.964.57-.964.57l-.022.027a.402.387 20.414 00-.075-.037.402.387 20.414 00-.51.222.402.387 20.414 00.24.504.402.387 20.414 00.512-.224.402.387 20.414 00-.11-.424c.014-.015.011-.01.028-.027.47-.46.96-.559 1.239-.576a2.31 2.31 0 00-.274.229c-.389.37-.555.972-.555.972l-.006.033a.387.402 80.806 00-.084.005.387.402 80.806 00-.335.447.387.402 80.806 00.458.318.387.402 80.806 00.335-.447.387.402 80.806 00-.306-.314l.012-.038c.248-.867.85-1.16.953-1.204h.008c.092.038.168.076.168.076s-.266-.488-.735-.64z"/><path d="M3.02.94c-.159.06-.313.15-.453.283-.748.705-.806 1.893-.806 1.893s.12-.039.707-.482c.586-.443.74-1.031 1.113-1.286.064-.044.134-.076.202-.11-.074.08-.15.164-.249.292-.484.633-.589 1.554-.589 1.554l-.001.05a.575.595 71.832 00-.121.026.575.595 71.832 00-.387.731.575.595 71.832 00.745.36.575.595 71.832 00.386-.731.575.595 71.832 00-.52-.39l.008-.058c.12-.966.597-1.536.904-1.813-.037.124-.074.28-.106.518-.109.789.255 1.641.255 1.641l.023.043a.575.595 42.224 00-.092.084.575.595 42.224 00.025.827.575.595 42.224 00.826-.055.575.595 42.224 00-.026-.827.575.595 42.224 00-.645-.082l-.021-.055c-.514-1.234-.086-2.13-.009-2.276l.01-.008c.142-.04.264-.067.264-.067S3.705.682 3.02.94z"/></svg>