<svg xmlns="http://www.w3.org/2000/svg" width="20" height="20" viewBox="0 0 5.292 5.292"><path d="M3.299 2.716a.93.93 0 00-.313.196c-.517.488-.557 1.31-.557 1.31s.083-.027.488-.334c.406-.306.512-.713.77-.89.045-.03.093-.052.14-.076-.05.055-.104.114-.172.203-.335.437-.408 1.074-.408 1.074v.035a.397.412 71.832 00-.084.018.397.412 71.832 00-.268.506.397.412 71.832 00.515.249.397.412 71.832 00.268-.506.397.412 71.832 00-.36-.27c.002-.021.003-.016.006-.04.082-.668.412-1.063.625-1.254a2.37 2.37 0 00-.074.358c-.075.546.177 1.135.177 1.135l.016.03a.397.412 42.224 00-.064.058.397.412 42.224 00.017.573.397.412 42.224 00.572-.038.397.412 42.224 00-.018-.573.397.412 42.224 00-.446-.056c-.009-.02-.006-.016-.015-.038-.355-.854-.06-1.474-.006-1.575l.007-.005c.098-.029.183-.047.183-.047s-.525-.221-1-.043zM1.793.263l-.097.24L1.65.303 1.5.34l.008-.035L1.352.27l-.043.198-.085-.201-.228.096.084.202L.91.457.824.592l.365.229.095.227-.228-.093L.823.593.69.68l.11.17L.596.768l-.093.23.202.082-.197.045.035.156.005-.001-.028.132.198.043-.201.085.096.229.201-.085-.107.172.135.084.229-.364.227-.096-.104.254-.362.233.087.134.17-.11-.082.203.23.094.082-.203.045.198.156-.036-.008-.035.15.033.043-.199.1.238.229-.096-.1-.238.171.108.078-.123.121-.078-.11-.171.24.097.093-.23-.24-.097.199-.045-.036-.155.01.002.034-.156-.198-.043.238-.1-.096-.228-.238.1.108-.172-.136-.085-.01.015-.066-.103-.17.11.097-.24zm-.295.09L1.59.76l-.078.192-.096-.227zm.619.31l-.173.276-.191.08.068-.166zm.33.592l-.416.097-.218-.09.227-.095zm-1.484-.07l.202.082-.19.08-.371-.08zm.782.318l.192.078.197.306-.309-.193zm-.228.097l.08.19-.088.408-.085-.37zM2.108 4.108s-.25-.041-.558-.286c-.296-.234-.383-.518-.383-.518l.419-.017-.714-.616-.542.866.36-.113s-.068.355.225.806c.292.45.751.619 1.103.676.352.058.477.048.477.048s-.193-.184-.275-.416c-.082-.233-.112-.43-.112-.43zM3.078 1.134s.25.041.558.286c.296.234.383.518.383.518l-.419.017.714.616.542-.866-.36.113s.068-.355-.225-.806C3.98.562 3.52.393 3.168.336 2.816.278 2.69.288 2.69.288s.193.184.275.417c.082.232.112.43.112.43z"/></svg>