<svg xmlns="http://www.w3.org/2000/svg" xmlns:xlink="http://www.w3.org/1999/xlink" width="55.317" height="120.867" viewBox="0 0 14.636 31.979"><defs><linearGradient id="a"><stop offset="0" stop-color="#26201a"/><stop offset="1" stop-color="#564323"/></linearGradient><linearGradient xlink:href="#a" id="b" x1="131.08" y1="144.013" x2="132.464" y2="119.807" gradientUnits="userSpaceOnUse" gradientTransform="matrix(.5 0 0 .5 53.032 58.93)"/></defs><path d="M8.788 12.076s-.61-.729-1.524-.765c-.915-.036-1.904.234-2.619.694-.715.46-.893.639-.893.639s.118.62 1.28.782c1.164.163 1.233.232 1.233.232s-.103.316.327 1.863c.43 1.546.327 1.326.327 1.326s.307-.717.694-.624c.386.093.189.8.189.8s1.156-.592 1.974-1.177c.817-.585 1.197-1.865 1.197-1.865s.251.26.715.26c.464 0 .78-.674 1.546-.63.765.044 1.205.876 1.205.876s.723-.61-.601-1.232c-1.325-.621-2.03-1.138-2.984-1.138-.954 0-2.066-.04-2.066-.04z" fill="#324100"/><path d="M8.187 9.567s-.448-5.24-.23-5.996c.219-.755-.087-1.773-.087-1.773l.691-.794s-.214.654-.214.93.12.994.09 1.348c-.095 2.045-.01 2.997-.01 2.997.304 3.964.731 8.117-.24 3.288z" fill="#26201a"/><path d="M118.704 117.81l.47-.013c.029.02.276.251.17.406-.088.139-.117.258-.196.417-.266.536-1.003 1.467-1.232 1.922-.281.56-.521 1.955-.343 3.954.18 2 1.788 4.966 2.112 5.28.324.312.926.388.407.934-.518.547-.767.453-.834-.072-.067-.525-2.346-4.506-2.346-6.211 0-1.706.304-3.32.646-4.042.34-.723.68-1.281 1.067-1.835.07-.181-.09-.259-.111-.501-.004-.04-.031-.101.116-.227z" fill="url(#b)" transform="translate(-110.399 -117.797)"/><path d="M7.944 30.338c-.168-1.177.376-2.085.365-2.455-.011-.37-.135-.125-.023-.463.113-.338.38-.75.682-.904.301-.155.5-.036.422.155-.078.19-.366.532-.384.938-.018.406-.25.865-.465 1.548-.345 1.093.333 2.213.333 2.213z" fill="#26201a"/><path d="M9.044 31.755c-.127-.129-.119-.191-.168-.305-.049-.112-.056-.174-.14-.34-.294-.532-.97-1.383-1.219-1.878-.28-.559-.52-1.954-.342-3.954.179-2 1.753-4.97 1.97-5.364.44-.797 1.209-2.92.97-3.634-.774-2.312-1.454-2.231-.739-.844.724 1.404.033 2.845-.517 3.7-.286.445-2.345 4.506-2.345 6.212 0 1.705.304 3.319.645 4.041.341.723.602 1.026.813 1.5.143.324.26.637.112.73-.131.219.182.3.273.33.264.033.016.03.458.03 0 0 .15 0 .23-.224z" fill="#564323"/><path d="M9.503 12.914l-.433.466c-.022.188.076.171-.056.653-.131.482-.677 1.375-.953 2.356-.275.98-.445 5.063-.383 5.727.062.664.563 4.195.505 4.603-.057.407-.158.529.045.536.204.007.495-.492.937-.72.441-.227-.045-.15-.225-.61-.18-.462-.574-4.415-.446-6.217.128-1.801.003-3.023.401-3.741.4-.719 1.532-2.956 1.247-3.175-.24-.208-.377.029-.639.122z" fill="#26201a"/><path d="M7.74 10.353s.06-.242-.88-.58c-.94-.339-2.376-.304-2.376-.304s1.66.145 2.018.537c.357.39-1.51.69-2.247.835-.737.144-.784.144-.784.144s.629-.252.279-.281c-.35-.03-1.114.557-1.49.464-.375-.093.573-1.25-.383-.81-.957.44-1.763 1.985-1.763 1.985s-.358-.114.195-1.349c.553-1.235 1.663-1.647 1.363-1.55l-.638.209s.23-.558 1.278-.838c1.05-.28 2.066-.105 2.82.04.754.144.567.17.65.248.083.078-.68.235-.68.235s.81.074 1.223.147c.413.074.794.186 1.05.321.257.136.282.095.385.285.104.19-.02.261-.02.261zM4.95 2.999s.798.077 1.594.604l.795.526s.751-.736 1.385-1.255c.634-.52.815-.744 1.39-.744.577 0 .96.565 1.328 1.308l.923 1.862h-.798l.353 1.123-1.881-.418s-.02.844-.166 1.321c-.146.477-.864 1.193-.864 1.193S7.027 7.01 6.581 6.487c-.447-.521.124-1.302-.518-.924-.643.378-.922.65-.922.65l-.26-.914-.401 1.037s-.482-1.076-.34-1.85C4.284 3.714 4.95 3 4.95 3z" fill="#73a825"/><path d="M6.645 26.742s-.775-.089-1.406-.506c-.631-.417-1.184-.572-1.637-.144-.454.429-.788.902-.788.902l.96.28s-.138-.345-.834.721c-.697 1.067-.38 1.674-.38 1.674s1.117-.578 1.94-.72c.825-.141.935-.215.935-.215l-.423.998.86-.515-.148.318s.827-.461 1.202-.866c.375-.404 1.71-1.774 1.101-2.329-.608-.555-1.382.402-1.382.402z" fill="#5a7319"/></svg>