<svg xmlns="http://www.w3.org/2000/svg" width="50" height="50" viewBox="0 0 13.229 13.229"><g fill-opacity=".35"><path d="M10.32 12.316c-.04.014-.066.035-.075.066-.045.161.288.268.489.252.2-.017.272-.07.272-.07s.126-.086-.01-.167c-.111-.066-.508-.142-.677-.081zm.563-.21c-.156.064.097.195.296.228.244.04.475-.014.475-.014s.144-.03.17-.102c.026-.071-.31-.177-.763-.145a.602.602 0 00-.178.032zm-.56.669c-.04.017-.053.043-.025.078.114.14.493.192.646.155.153-.037.163-.09.163-.09s.026-.086-.165-.139c-.143-.04-.498-.057-.618-.004zm1.842-.688c-.138.047-.052.169.074.215.168.062.41.044.41.044s.15-.009.238-.066c.089-.057-.093-.185-.503-.21a.594.594 0 00-.22.017zm-.71.437c-.044.018-.076.04-.091.064-.123.196-.103.414.159.513 0 0 .174.073.513-.023.34-.096.348-.238.677-.336.328-.098.484-.25.205-.294-.244-.038-1.157-.052-1.463.076zM8.383 10.637c-.039.014-.066.035-.074.066-.045.161.288.268.489.252.2-.017.272-.07.272-.07s.126-.086-.01-.167c-.112-.066-.508-.142-.677-.08zm.563-.21c-.155.065.098.195.297.228.244.04.474-.013.474-.013s.145-.03.17-.102c.027-.072-.309-.178-.762-.146a.602.602 0 00-.179.032zm-.558.669c-.04.017-.054.043-.026.078.113.14.493.192.646.155.153-.037.163-.09.163-.09s.026-.086-.165-.139c-.144-.04-.498-.057-.618-.004zm1.84-.688c-.137.047-.051.17.075.215.168.062.41.044.41.044s.15-.009.238-.066c.089-.057-.093-.184-.503-.21a.594.594 0 00-.22.017zm-.71.437c-.043.019-.075.04-.09.064-.123.196-.103.414.159.513 0 0 .173.073.513-.023s.348-.238.677-.336c.328-.098.484-.25.205-.294-.245-.038-1.157-.052-1.463.076zM4.454 11.107c-.04.014-.066.035-.075.065-.045.162.288.268.489.252.2-.016.272-.07.272-.07s.127-.085-.01-.167c-.111-.066-.507-.141-.676-.08zm.563-.211c-.156.065.097.196.296.228.245.04.475-.013.475-.013s.144-.03.17-.102c.026-.072-.31-.177-.763-.146a.602.602 0 00-.178.033zm-.559.67c-.04.017-.054.043-.026.078.114.14.493.191.646.154.153-.036.163-.09.163-.09s.026-.086-.165-.138c-.143-.04-.498-.058-.618-.005zm1.841-.689c-.138.048-.052.17.074.216.168.061.41.044.41.044s.15-.01.238-.066c.089-.057-.093-.185-.503-.21a.594.594 0 00-.219.016zm-.71.438c-.044.018-.076.04-.091.064-.123.195-.103.414.159.513 0 0 .174.073.513-.024.34-.096.349-.238.677-.336.328-.098.484-.25.205-.293-.244-.038-1.157-.052-1.463.076zM3.405 8.951c-.04.014-.066.035-.075.066-.045.161.288.268.489.252.2-.017.272-.07.272-.07s.127-.086-.01-.167c-.111-.066-.507-.142-.676-.08zm.563-.21c-.156.065.097.195.296.228.245.04.475-.013.475-.013s.144-.03.17-.102c.026-.072-.31-.178-.763-.146a.602.602 0 00-.178.032zm-.559.669c-.04.017-.054.043-.026.078.114.14.493.192.646.155.153-.037.163-.09.163-.09s.026-.086-.165-.139c-.143-.04-.498-.057-.618-.004zm1.841-.688c-.138.047-.052.17.074.215.168.062.41.044.41.044s.15-.009.238-.066c.089-.057-.093-.184-.503-.21a.594.594 0 00-.219.017zm-.71.437c-.044.019-.076.04-.091.064-.123.196-.103.414.159.513 0 0 .174.073.513-.023.34-.096.349-.238.677-.336.328-.098.484-.25.205-.294-.244-.038-1.157-.052-1.463.076zM.135 8.943c-.039.014-.065.035-.074.066-.045.161.288.268.489.252.2-.016.272-.07.272-.07s.126-.086-.01-.167C.7 8.958.304 8.882.135 8.944zm.564-.21c-.156.065.097.195.296.228.244.04.475-.013.475-.013s.144-.03.17-.102c.026-.072-.31-.178-.763-.146a.602.602 0 00-.178.033zm-.56.669c-.04.017-.053.043-.025.078.114.14.493.192.646.155.153-.037.163-.09.163-.09S.95 9.46.758 9.406C.615 9.366.26 9.35.14 9.402zm1.842-.688c-.138.047-.052.17.074.215.168.062.41.044.41.044s.15-.009.238-.066c.089-.057-.093-.184-.503-.21a.594.594 0 00-.22.017zm-.71.437c-.044.019-.076.04-.091.064-.123.196-.103.414.159.513 0 0 .174.073.513-.023.34-.096.348-.238.677-.336.328-.098.484-.25.205-.294-.244-.038-1.157-.052-1.463.076zM2.83 2.56c.039.014.066.035.074.065.046.162-.288.268-.488.252-.2-.016-.273-.07-.273-.07s-.126-.085.01-.167c.112-.066.508-.141.677-.08zm-.563-.211c.155.065-.098.196-.296.228-.245.04-.475-.013-.475-.013s-.145-.03-.17-.102c-.026-.072.309-.178.762-.146a.602.602 0 01.179.033zm.559.67c.04.017.054.042.025.078-.113.14-.493.191-.645.154-.153-.036-.164-.09-.164-.09s-.025-.086.166-.138c.143-.04.497-.058.618-.005zM.985 2.33c.138.048.051.17-.075.216-.167.061-.41.043-.41.043s-.149-.008-.238-.065c-.088-.058.093-.185.503-.21a.594.594 0 01.22.016zm.71.438c.044.018.075.04.09.064.123.195.104.414-.158.513 0 0-.174.073-.514-.024-.34-.096-.348-.238-.676-.336-.329-.098-.485-.25-.206-.293.245-.038 1.157-.052 1.464.076zM5.734 1.344c.039.014.066.035.074.065.046.162-.288.269-.488.252-.2-.016-.273-.07-.273-.07s-.126-.085.01-.166c.112-.067.508-.142.677-.081zm-.563-.21c.155.064-.098.195-.296.227-.245.04-.475-.013-.475-.013s-.145-.03-.17-.102c-.026-.071.309-.177.762-.145a.602.602 0 01.179.032zm.559.668c.04.018.054.044.025.079-.113.14-.493.191-.645.155-.153-.037-.164-.09-.164-.09s-.025-.087.166-.14c.143-.038.497-.056.618-.004zm-1.841-.687c.138.047.051.169-.075.215-.167.061-.41.044-.41.044s-.149-.01-.238-.066c-.088-.057.093-.185.503-.21a.594.594 0 01.22.017zm.71.437c.044.018.075.04.09.064.123.195.104.414-.158.513 0 0-.174.073-.514-.023-.34-.097-.348-.238-.676-.336-.329-.098-.485-.25-.206-.294.245-.038 1.157-.052 1.464.076zM8.657 2.016c.039.014.066.036.074.066.045.161-.288.268-.489.252-.2-.016-.272-.07-.272-.07s-.126-.086.01-.167c.112-.066.508-.142.677-.08zm-.563-.21c.155.065-.098.196-.297.228-.244.04-.474-.013-.474-.013s-.145-.03-.17-.102c-.027-.072.309-.178.762-.146a.602.602 0 01.179.033zm.558.669c.04.018.054.043.026.078-.113.141-.493.192-.646.155-.153-.037-.163-.09-.163-.09s-.026-.086.165-.139c.144-.039.498-.057.618-.004zm-1.84-.688c.137.047.051.17-.075.215-.168.062-.41.044-.41.044s-.15-.009-.238-.066c-.089-.057.093-.184.503-.21a.594.594 0 01.22.017zm.71.437c.043.019.075.04.09.064.123.196.104.414-.159.513 0 0-.173.073-.513-.023s-.348-.238-.677-.336c-.328-.098-.484-.25-.205-.293.245-.039 1.157-.053 1.464.075zM11.684.88c.039.013.066.034.074.065.045.161-.288.268-.489.252-.2-.017-.272-.07-.272-.07s-.126-.086.01-.167c.111-.066.508-.142.677-.08zM11.12.667c.155.066-.098.196-.297.229-.244.04-.475-.013-.475-.013s-.144-.03-.17-.102c-.026-.072.31-.178.763-.146a.602.602 0 01.179.032zm.558.67c.04.017.054.043.026.078-.113.14-.493.192-.646.155-.153-.037-.163-.09-.163-.09s-.026-.086.165-.139c.144-.04.498-.057.618-.004zM9.84.65c.137.047.051.17-.075.215-.168.062-.41.044-.41.044S9.204.9 9.116.843c-.089-.057.093-.184.503-.21a.594.594 0 01.22.017zm.71.437c.043.019.075.04.09.064.123.196.103.414-.159.513 0 0-.173.073-.513-.023s-.348-.238-.677-.336c-.328-.098-.484-.25-.205-.294.244-.038 1.157-.052 1.463.076zM13.001 2.33c.04.013.066.035.075.065.045.161-.289.268-.49.252-.2-.016-.271-.07-.271-.07s-.127-.086.01-.167c.111-.066.507-.141.676-.08zm-.563-.211c.155.065-.097.196-.296.228-.245.04-.475-.013-.475-.013s-.144-.03-.17-.102c-.026-.072.309-.178.762-.146a.602.602 0 01.18.033zm.559.669c.04.018.054.043.026.078-.114.141-.493.192-.646.155-.153-.037-.163-.09-.163-.09s-.026-.086.165-.139c.143-.039.497-.057.618-.004zM11.156 2.1c.138.047.052.17-.074.215-.168.062-.41.044-.41.044s-.15-.009-.238-.066c-.09-.057.092-.184.503-.21a.594.594 0 01.219.017zm.71.437c.044.019.075.04.09.064.124.196.104.414-.158.513 0 0-.174.073-.513-.023-.34-.096-.349-.238-.677-.336-.328-.098-.485-.25-.205-.293.244-.039 1.156-.053 1.463.075z"/></g></svg>