<svg xmlns="http://www.w3.org/2000/svg" width="20" height="20" viewBox="0 0 5.292 5.292"><path d="M.192 4.509s.2-.353.692-1.03c.492-.676 2.105-1.975 2.105-1.975s-1.553 1.14-1.908 1.574c-.355.434-.428.611-.428.611l-.01-.884s.26-.409.643-.747l.383-.34s-.098.26-.098.46c0 .198-.015.203-.015.203s.107-.501.184-.667l.078-.166s.478-.276.98-.532C3.298.76 4.28.458 4.539.347c.26-.11.672-.304.672-.304S3.133 2.286 2.638 2.61A82.07 82.07 0 00.971 3.766s-.421.673-.467.83c-.045.156-.053.15-.053.15s-.196.282-.272.412l-.076.13z" fill="#bb8b54"/></svg>