<svg xmlns="http://www.w3.org/2000/svg" width="20" height="20" viewBox="0 0 5.292 5.292"><path d="M1.11.702l.516-.073.555-.314s-.054.226-.103.474a3.393 3.393 0 00-.073.528c0 .27-.014.394.16.52.173.127 1.522.127 1.905.578.384.451.532 1.704.532 1.91 0 .207-.82.81-1.532.849-.712.039-2.189-.163-2.067-.422.122-.259 1.057.096 1.762.02.705-.078.716-.203.716-.203s-1.54.064-1.463-.08c.077-.144.2-.802.02-.474-.18.327-.221.497-.221.497l-.299.003s-.04-1.595-.04-1.918c0-.323-.447-.887-.488-1.296C.948.892.688.227.688.227z"/></svg>