<svg xmlns="http://www.w3.org/2000/svg" width="20" height="20" viewBox="0 0 5.292 5.292"><path d="M.726 2.322c.622-.658 1.574-.58 1.574-.58l-.032.352s-.505.174-.89.764c-.386.59-.319.783-.319.783s.131-.248.41-.405c.277-.156.788-.156.788-.156l-.095.386s-.805.097-1.056.443-.251.366-.251.366L.53 3.51s.144-.271.424-.687c.28-.415.574-.657.574-.657s-.72.348-.865.495c-.144.147.063-.34.063-.34zM2.688 2.7c.984-.638 2.197-.303 2.197-.303l-.137.415s-.701.083-1.36.698c-.66.615-.626.865-.626.865s.238-.266.64-.386C3.805 3.87 4.468 4 4.468 4l-.228.442s-1.07-.086-1.49.268c-.419.355-.425.38-.425.38l-.214-1.006s.261-.29.736-.721.922-.648.922-.648-1.027.238-1.255.379c-.227.14.174-.394.174-.394zM1.344.452c.435-.216.9 0 .9 0l-.08.171s-.287-.006-.591.22-.306.336-.306.336.112-.1.281-.128c.17-.028.427.067.427.067l-.12.177s-.423-.1-.614.027c-.191.128-.195.138-.195.138l-.021-.446s.123-.11.34-.267c.219-.158.412-.225.412-.225s-.427.042-.528.09c-.1.046.095-.16.095-.16z"/></svg>