<svg xmlns="http://www.w3.org/2000/svg" width="1280" height="200" viewBox="0 0 338.667 52.917"><path fill="#8c887f" d="M0 0h338.667v52.917H0z"/><path d="M58.264 33.631l51.665-5.277s-36.98 6.893-35.223 6.893c1.758 0 74.218-7.177 74.218-7.177L56.322 42.113l148.439-15.28-54.805 9.606 71.761-7.963s-11.047-2.194-12.647-5.737c-1.6-3.544-4.192-4.83-11.736-3.684-7.543 1.147-141.932 15.124-141.932 15.124z" fill="#7b6f4f"/><path d="M117.955 17.321l51.665-5.277s-36.98 6.893-35.222 6.893c1.758 0 74.218-7.177 74.218-7.177l-92.602 14.043 148.438-15.28-54.804 9.606 71.76-7.963s-11.047-2.194-12.647-5.738c-1.6-3.543-4.192-4.83-11.735-3.683-7.544 1.146-141.932 15.124-141.932 15.124zM2.176 16.986l28-2.86s-20.042 3.736-19.089 3.736c.952 0 40.223-3.89 40.223-3.89l-50.187 7.61 80.448-8.28-29.702 5.206 38.892-4.316s-5.988-1.189-6.855-3.11c-.867-1.92-2.272-2.617-6.36-1.996C73.458 9.708.625 17.283.625 17.283z" fill="#7b6f4f"/></svg>