<svg xmlns="http://www.w3.org/2000/svg" width="1280" height="200" viewBox="0 0 338.667 52.917"><path fill="#7b6f4f" d="M0 0h338.667v52.917H0z"/><path d="M11.067 40.135l67.757-5.186s-13.485-4.776-20.242-3.757C51.825 32.211 39.25 32.54 39.25 32.54l12.631-2.799s-40.24.998-43.825 2.031c-3.585 1.034 17.052.176 11.008 2.923-6.045 2.748-13.825 5.098-13.825 5.098z" fill="#645a40"/><path d="M59.11 36.25s.259-1.597 1.253-2.964c.994-1.367 3.094-2.93 3.094-2.93s-.927 1.82-.988 3.03c-.062 1.212.032 1.639.032 1.639s1.039-1.909 2.333-2.79c1.295-.88 3.023-1.58 3.023-1.58s-.986 1.918-.986 2.543c0 .626.483 1.28.483 1.28l15.976-.398s.064-.487 1.668-1.565c1.604-1.078 1.793-.764 1.793-.764s-.852.75-.978 1.236c-.125.486-.23.987-.23.987s.914-1.043 1.465-1.168.972-.317.972-.317-.68.889-.735 1.36c-.056.47.179 1.105-1.66 1.105S59.11 36.249 59.11 36.249z" fill="#7bab39"/><path d="M228.709 18.434s-53.815 8.203-49.326 11.913c4.489 3.71 102.337 2.375 96.71 4.638-5.628 2.263-39.828 7.782-32.158 9.294 7.67 1.512 102.914-7.306 94.111-9.187-8.803-1.881-14.556-4.8-11.657-10.469 2.9-5.67-97.68-6.189-97.68-6.189z" fill="#645a40"/><path d="M208.715 19.861s.533-3.518 8.279-6.793c7.745-3.275 10.499-3.311 10.499-3.311l-2.161-.594s.957-.37 2.316-.302a52.9 52.9 0 012.299.158l.763-2.364.738 1.628s4.727-1.46 13.564-2.854c8.836-1.394 46.01-3.46 45.67-1.137-.338 2.324-7.438 4.853-8.16 6.159-.723 1.306 9.716 1.524 9.716 1.524s.022-1 2.206-2.513l2.184-1.514s-2.24 2.216-1.962 4.21l.278 1.996 3.972-2.77s-1.275 1.303-1.806 3.277c-.53 1.975-.198 2.534-1.576 3.567-1.377 1.033-57.339 11.85-62.22 10.728-4.882-1.122-1.578-4.443-5.242-4.443-3.663 0-17.102-2.246-18.763-2.952-1.66-.705-4.531-3.203-4.531-3.203z" fill="#6d9732"/><path d="M182.373 17.572s.387-2.378 1.867-4.414c1.48-2.036 4.609-4.364 4.609-4.364s-1.38 2.71-1.472 4.514c-.091 1.804.048 2.44.048 2.44s1.547-2.843 3.475-4.155c1.929-1.312 4.503-2.354 4.503-2.354s-1.47 2.857-1.47 3.788c0 .932.72 1.905.72 1.905l23.796-.591s.094-.726 2.484-2.331c2.39-1.606 2.67-1.139 2.67-1.139s-1.268 1.117-1.455 1.841c-.188.724-.344 1.47-.344 1.47s1.362-1.552 2.182-1.74c.821-.186 1.448-.472 1.448-.472s-1.012 1.325-1.095 2.026c-.083.702.267 1.646-2.472 1.646-2.738 0-39.494 1.93-39.494 1.93zM115.2 36.133s-1.156-1.294-2.147-1.56l-.991-.267s1.985-.653 3.81-.006l1.825.647 1.874-3.302s.133 1.616.521 2.249-.259.633.388.633c.648 0 26.23-1.163 26.23-1.163l1.999-1.824-.27 2.221 3.016-1.561-.46 1.527s23.607.15 24.819 1.968c1.212 1.817-10.614 5.474-11.205 6.779-.59 1.305 2.248 1.601 2.248 1.601l1.12-1.914-.252 2.844 1.68-1.493s.15 1.465-.94 2.352c-1.09.886-2.15 1.732-8.523 2.632-6.374.9-56.271 2.236-57.245 2.032-.974-.204-1.936-2.858-1.936-2.858l1.996 1.404s16.616-3.716 16.517-5.486c-.1-1.77-4.074-7.455-4.074-7.455z" fill="#7bab39"/><path d="M109.958 12.988s20.666-2.934 20.213.051c-.454 2.986-2.49 1.33-2.49 1.33s10.128-.73 6.58-2.424c-3.548-1.693-9.798-1.848-9.798-1.848l3.736-2.444-39.812 5.883z" fill="#645a40"/></svg>