<svg xmlns="http://www.w3.org/2000/svg" width="1280" height="200" viewBox="0 0 338.667 52.917"><path fill="#7bab39" d="M0 0h338.667v52.917H0z"/><path d="M36.056 29.125s-1.764-1.974-3.277-2.38l-1.512-.408s3.029-.996 5.814-.009l2.786.987 2.86-5.038s.201 2.466.794 3.432c.593.965-.395.965.593.965s40.028-1.775 40.028-1.775l3.049-2.782-.412 3.389 4.602-2.382-.7 2.33s36.023.23 37.873 3.003c1.849 2.773-16.198 8.353-17.099 10.344-.9 1.992 3.43 2.444 3.43 2.444l1.71-2.922-.386 4.34 2.565-2.278s.229 2.237-1.435 3.59c-1.663 1.352-3.28 2.643-13.006 4.016-9.726 1.373-85.87 3.413-87.357 3.102-1.486-.311-2.954-4.362-2.954-4.362l3.046 2.143s25.356-5.67 25.204-8.372c-.151-2.702-6.216-11.377-6.216-11.377z" fill="#587b29"/><path d="M94.024 27.87s13.174-5.012 19.104-5.39c5.93-.378 112.381-4.348 106.94-.731-5.44 3.616-50.153 13.011-40.743 15.524 9.41 2.513 23.363 6.433 13.05 7.186-10.312.753-12.438 2.175-15.435.682-2.996-1.493-.346-4.029-.346-4.029l-2.432 1.204.205-5.801-1.829 2.29-.676-3.823-1.159.992s-9.174-4.273-18.127-4.646c-8.952-.373-58.552-3.459-58.552-3.459z" fill="#7b6f4f"/><path d="M109.977 23.86s.259-1.597 1.253-2.964c.994-1.366 3.094-2.93 3.094-2.93s-.927 1.82-.988 3.03c-.061 1.212.032 1.639.032 1.639s1.039-1.909 2.334-2.79c1.294-.88 3.023-1.58 3.023-1.58s-.987 1.918-.987 2.543c0 .626.483 1.28.483 1.28l15.977-.398s.063-.487 1.667-1.565c1.605-1.078 1.793-.764 1.793-.764s-.851.75-.977 1.236-.23.987-.23.987.913-1.043 1.464-1.168c.552-.125.972-.317.972-.317s-.679.89-.735 1.36c-.056.47.18 1.105-1.66 1.105-1.838 0-26.515 1.295-26.515 1.295zM326.4 30.59s-.118-1.184-1.325-2.29c-1.207-1.104-2.399-1.98-2.399-1.98s1.653 2.854 1.838 3.455c.184.6-.417-.07-.417-.07s-.452-.568-2.064-1.313l-1.613-.746 1.117 1.755s-12.833 1.023-13.45.865c-.618-.157-1.642-1.402-2.604-1.817l-.961-.415s1.513.937 1.658 1.554c.145.618.11.576.11.576s-.443-.687-1.004-.933l-.56-.246 1.084 1.188s-21.113 1.15-20.44 1.941c.673.79 16.28 1.045 14.546 1.942l-1.734.898-1.736-.995s.891.856 1.224 1.347l.332.491-1.73-.464s.383.497 1.05 1.069c.668.572 39.47-1.1 38.935-2.435-.535-1.334-13.061-2.358-11.789-2.513 1.273-.154 1.931-.864 1.931-.864z" fill="#587b29"/><path d="M102.54 13.257s-.987 2.198-.006 1.823c.98-.375.968-1.781 1.609-1.53.64.251.837.52 1.704.157.868-.362-1.284-.915-1.2-1.264.086-.35 1.42-1.687.787-1.974-.634-.286-1.215 1.281-1.666 1.024-.452-.257-1.021-1.74-1.578-1.543-.557.197.451 1.622.105 1.856-.346.235-2.576.685-2.007 1.214.569.53 2.253.237 2.253.237z" fill="#bde6ed"/><ellipse cx="103.338" cy="12.522" rx=".945" ry=".578" fill="#cf9c06"/><path d="M21.323 6.507s-.987 2.197-.007 1.822.969-1.78 1.609-1.53c.64.252.837.52 1.704.158.868-.363-1.284-.915-1.199-1.265.085-.35 1.42-1.687.786-1.973-.634-.286-1.215 1.28-1.666 1.024-.452-.257-1.021-1.741-1.578-1.544-.557.197.452 1.623.105 1.857-.346.234-2.575.684-2.007 1.214.569.53 2.253.237 2.253.237z" fill="#bde6ed"/><ellipse cx="22.121" cy="5.771" rx=".945" ry=".578" fill="#cf9c06"/><path d="M277.481 41.927s-.987 2.197-.007 1.822.97-1.78 1.61-1.53c.64.252.836.52 1.704.158.867-.363-1.284-.915-1.2-1.265.086-.35 1.42-1.687.787-1.973-.634-.286-1.215 1.28-1.667 1.024-.451-.257-1.02-1.741-1.578-1.544-.557.197.452 1.623.106 1.857-.347.234-2.576.684-2.007 1.214.569.53 2.252.237 2.252.237z" fill="#bde6ed"/><ellipse cx="278.279" cy="41.191" rx=".945" ry=".578" fill="#cf9c06"/></svg>