<svg xmlns="http://www.w3.org/2000/svg" width="1280" height="200" viewBox="0 0 338.667 52.917"><path fill="#587b29" d="M0 0h338.667v52.917H0z"/><path d="M78.904 24.345s1.176-4.178 18.26-8.066c17.084-3.89 23.157-3.932 23.157-3.932l-4.767-.706s2.113-.438 5.109-.359c2.996.08 5.07.189 5.07.189l1.685-2.808 1.626 1.933s10.427-1.734 29.916-3.39c19.49-1.654 101.48-4.108 100.732-1.349-.748 2.76-16.405 5.763-18 7.314-1.594 1.55 21.431 1.81 21.431 1.81s.049-1.187 4.865-2.984l4.816-1.798s-4.94 2.63-4.326 5l.613 2.369 8.762-3.29s-2.814 1.548-3.983 3.893c-1.17 2.345-.44 3.008-3.477 4.235-3.039 1.226-126.467 14.07-137.234 12.739-10.767-1.332-3.479-5.276-11.56-5.276-8.08 0-37.722-2.667-41.384-3.505-3.662-.838-9.994-3.803-9.994-3.803z" fill="#6d9732"/><path d="M276.96 42.437s-1.808 2.679-.012 2.222c1.796-.458 1.775-2.171 2.948-1.865 1.173.306 1.533.633 3.123.191 1.59-.441-2.353-1.115-2.197-1.541.155-.426 2.6-2.057 1.44-2.406-1.162-.349-2.226 1.561-3.053 1.248-.827-.313-1.87-2.122-2.891-1.882-1.02.241.827 1.979.193 2.264-.635.286-4.72.835-3.677 1.48 1.042.645 4.127.29 4.127.29z" fill="#bde6ed"/><ellipse cx="278.422" cy="41.54" rx="1.731" ry=".704" fill="#cf9c06"/><path d="M285.175 37.94s-1.809 2.68-.013 2.222c1.796-.457 1.775-2.17 2.948-1.865 1.174.307 1.533.634 3.123.192 1.59-.442-2.353-1.116-2.197-1.542.155-.426 2.601-2.057 1.44-2.406-1.161-.348-2.226 1.562-3.053 1.249-.827-.313-1.87-2.123-2.891-1.882-1.02.24.827 1.978.193 2.264-.635.285-4.72.834-3.677 1.48 1.042.645 4.127.289 4.127.289z" fill="#bde6ed"/><ellipse cx="286.637" cy="37.043" rx="1.731" ry=".704" fill="#cf9c06"/><path d="M258.677 35.267s-1.341 1.986-.009 1.647c1.332-.339 1.316-1.61 2.186-1.382.87.227 1.137.47 2.315.142 1.179-.328-1.744-.827-1.629-1.143.116-.317 1.929-1.526 1.068-1.784-.861-.259-1.65 1.157-2.264.925-.613-.232-1.387-1.573-2.143-1.395-.757.178.613 1.467.143 1.678-.47.212-3.5.62-2.726 1.098.772.478 3.06.214 3.06.214z" fill="#bde6ed"/><ellipse cx="259.761" cy="34.602" rx="1.283" ry=".522" fill="#cf9c06"/><path d="M100.153 13.575s-1.993 2.63-.014 2.182c1.979-.45 1.956-2.132 3.248-1.831 1.293.3 1.69.622 3.441.188 1.752-.434-2.592-1.096-2.42-1.514.17-.419 2.866-2.02 1.586-2.362-1.28-.343-2.452 1.533-3.364 1.225-.911-.307-2.061-2.084-3.186-1.848-1.124.237.912 1.943.213 2.223-.7.28-5.2.82-4.052 1.453 1.148.634 4.548.284 4.548.284z" fill="#bde6ed"/><ellipse cx="101.764" cy="12.694" rx="1.907" ry=".692" fill="#cf9c06"/><path d="M115.392 14.884s-.987 2.197-.007 1.822.969-1.78 1.61-1.53c.64.252.836.52 1.703.158.868-.363-1.284-.915-1.199-1.265.085-.35 1.42-1.687.786-1.973-.634-.286-1.215 1.28-1.666 1.024-.451-.257-1.021-1.741-1.578-1.544-.557.198.452 1.623.105 1.857-.346.234-2.575.684-2.007 1.214.57.53 2.253.237 2.253.237z" fill="#bde6ed"/><ellipse cx="116.19" cy="14.148" rx=".945" ry=".578" fill="#cf9c06"/><path d="M17.686 7.513s-.987 2.198-.007 1.822c.98-.375.969-1.78 1.61-1.529.64.251.836.52 1.703.157.868-.362-1.284-.915-1.199-1.265.085-.35 1.42-1.687.786-1.973-.634-.286-1.214 1.28-1.666 1.024-.451-.257-1.02-1.74-1.578-1.544-.557.198.452 1.623.105 1.857-.346.235-2.575.685-2.006 1.214.568.53 2.252.237 2.252.237z" fill="#bde6ed"/><ellipse cx="18.484" cy="6.777" rx=".945" ry=".578" fill="#cf9c06"/><path d="M32.678 28.929s-1.765-1.974-3.277-2.38l-1.512-.408s3.029-.996 5.814-.009l2.786.987 2.859-5.038s.202 2.466.795 3.432c.593.965-.395.965.593.965s40.028-1.775 40.028-1.775l3.049-2.782-.412 3.389 4.602-2.382-.7 2.33s36.023.23 37.872 3.003c1.85 2.773-16.197 8.353-17.098 10.344-.9 1.992 3.43 2.444 3.43 2.444l1.71-2.922-.386 4.34 2.565-2.278s.229 2.237-1.435 3.59c-1.664 1.352-3.28 2.643-13.007 4.016-9.726 1.373-85.87 3.413-87.356 3.102-1.487-.311-2.954-4.362-2.954-4.362l3.046 2.143s25.355-5.67 25.204-8.372c-.152-2.702-6.216-11.377-6.216-11.377zM280.797 47.275s.259-1.597 1.253-2.963c.994-1.367 3.094-2.93 3.094-2.93s-.927 1.819-.988 3.03c-.061 1.211.032 1.638.032 1.638s1.039-1.908 2.334-2.79c1.294-.88 3.022-1.58 3.022-1.58s-.986 1.918-.986 2.543c0 .626.483 1.28.483 1.28l15.977-.398s.063-.487 1.667-1.565c1.605-1.077 1.793-.764 1.793-.764s-.851.75-.977 1.236-.23.987-.23.987.913-1.042 1.464-1.168c.551-.125.972-.317.972-.317s-.679.89-.735 1.36c-.056.471.18 1.105-1.66 1.105-1.838 0-26.515 1.296-26.515 1.296z" fill="#678f30"/></svg>