<svg xmlns="http://www.w3.org/2000/svg" width="1280" height="200" viewBox="0 0 338.667 52.917"><path fill="#757b29" d="M0 0h338.667v52.917H0z"/><path d="M77.496 22.484s1.176-4.178 18.26-8.067c17.084-3.889 23.158-3.932 23.158-3.932l-4.768-.705s2.113-.438 5.109-.359c2.996.08 5.07.189 5.07.189L126.01 6.8l1.626 1.934S138.063 7 157.553 5.345c19.489-1.654 101.48-4.109 100.732-1.349-.748 2.76-16.406 5.763-18 7.314-1.595 1.55 21.43 1.81 21.43 1.81s.05-1.187 4.865-2.985l4.817-1.797s-4.94 2.63-4.327 5l.613 2.368 8.762-3.289s-2.814 1.547-3.983 3.892c-1.17 2.346-.44 3.01-3.477 4.235-3.038 1.227-126.467 14.071-137.234 12.74-10.767-1.332-3.479-5.276-11.56-5.276-8.08 0-37.721-2.667-41.384-3.505-3.662-.838-9.994-3.804-9.994-3.804z" fill="#6d9732"/><path d="M30.656 23.14s-1.765-1.975-3.277-2.381l-1.512-.407s3.029-.996 5.814-.01l2.786.988 2.859-5.038s.202 2.466.795 3.431c.593.965-.395.965.593.965.987 0 40.028-1.774 40.028-1.774l3.049-2.783-.412 3.39 4.601-2.383-.7 2.33s36.024.23 37.873 3.004c1.85 2.773-16.197 8.353-17.098 10.344-.9 1.991 3.43 2.443 3.43 2.443l1.71-2.921-.386 4.34 2.565-2.278s.229 2.237-1.435 3.59c-1.664 1.352-3.281 2.643-13.007 4.016-9.726 1.373-85.87 3.413-87.356 3.101-1.487-.31-2.954-4.362-2.954-4.362l3.046 2.143s25.355-5.67 25.204-8.372c-.152-2.702-6.216-11.377-6.216-11.377z" fill="#63892e"/><path d="M286.05 40.734s.26-1.597 1.254-2.964c.994-1.366 3.094-2.93 3.094-2.93s-.927 1.82-.988 3.03c-.061 1.212.032 1.639.032 1.639s1.039-1.908 2.334-2.79c1.294-.88 3.023-1.58 3.023-1.58s-.987 1.918-.987 2.543c0 .626.483 1.28.483 1.28l15.977-.398s.063-.487 1.667-1.565c1.605-1.077 1.793-.764 1.793-.764s-.851.75-.977 1.236-.23.987-.23.987.913-1.043 1.464-1.168c.552-.125.972-.317.972-.317s-.679.89-.735 1.36c-.056.47.18 1.105-1.66 1.105-1.838 0-26.515 1.296-26.515 1.296z" fill="#678f30"/></svg>