<svg xmlns="http://www.w3.org/2000/svg" width="1280" height="200" viewBox="0 0 338.667 52.917"><path fill="#7b6f4f" d="M0 0h338.667v52.917H0z"/><path d="M35.105 18.247l79.236-5.277s-56.714 6.893-54.019 6.893c2.696 0 113.825-7.177 113.825-7.177L32.127 26.73l227.654-15.28-84.051 9.606 110.056-7.963s-16.943-2.194-19.397-5.738c-2.454-3.543-6.429-4.83-17.998-3.683C236.82 4.817 30.716 18.795 30.716 18.795z" fill="#847b6b"/><path d="M226.467 10.955s-53.815 8.202-49.326 11.913c4.489 3.71 102.337 2.374 96.71 4.638-5.628 2.263-39.828 7.782-32.158 9.294 7.67 1.511 102.914-7.307 94.111-9.188-8.803-1.88-14.556-4.798-11.657-10.468 2.9-5.67-97.68-6.19-97.68-6.19zM27.779 35.961l67.757-5.186s-13.485-4.776-20.242-3.757c-6.757 1.02-19.332 1.348-19.332 1.348l12.631-2.799s-40.24.998-43.825 2.032c-3.586 1.034 17.052.175 11.007 2.922-6.044 2.748-13.824 5.098-13.824 5.098z" fill="#645a40"/></svg>