<svg xmlns="http://www.w3.org/2000/svg" width="1280" height="200" viewBox="0 0 338.667 52.917"><path fill="#342515" d="M0 0h338.667v52.917H0z"/><path d="M191.327 27.746s51.244-2.073 43.676-.01c-7.568 2.065 47.59 5.18 33.162 8.553-14.428 3.372-104.371 9.376-94.953 10.388 9.418 1.012 27.653 2.625 27.653 2.625s-87.57 3.613-80.076-.962c7.495-4.574 35.55-11.184 35.55-11.184h-44.423z" fill="#44301b"/><path d="M182.9 17.157c-17.934 4.256-24.86.41-24.86.41s9.003-2.811 24.86-.41zM174.078 29.149c-29.276-16.984-52.588-.023-52.588-.023s22.651 2.933 36.978 2.006c14.327-.927 15.61-1.983 15.61-1.983z" fill="#3e3719"/><path d="M194.289 23.935c-50.666-15.353-91.01-.02-91.01-.02s39.202 2.65 63.996 1.813c24.795-.838 27.014-1.793 27.014-1.793zM114.599 38.88c-40.252-9.698-72.303-.013-72.303-.013s31.143 1.675 50.842 1.145c19.698-.529 21.461-1.132 21.461-1.132z" fill="#3e3719"/><path d="M59.13 37.86s4.748.936 6.974.936 8.427-2.193 8.427-2.193-6.739-.84-9.196-.601c-2.458.238-6.205 1.857-6.205 1.857z" fill="#4d421f"/><path d="M81.194 36.475c-7.411 2.087-9.031-.02-9.031-.02s2.016-1.182 9.03.02zM58.83 35.528c8.154-1.396 12.147.197 11.656.152-.492-.045-2.763.718-6.246.778-3.484.061-5.41-.93-5.41-.93z" fill="#635c27"/><path d="M46.438 39.893c5.891-1.81 10.803-.054 10.803-.054s-5.566 2.552-10.803.054z" fill="#6b6e23"/><path d="M87.006 40.689c-11.89 3.985-16.481.383-16.481.383s5.969-2.632 16.481-.383z" fill="#635c27"/><path d="M76.963 40.065c10.368 1.04 9.597-.544 9.597-.544s-3.622-1.532-9.597.544zM149.36 26.265c-9.952 3.19-12.624-.003-12.624-.003s2.968-2.932 12.624.003z" fill="#6b6e23"/><path d="M86.49 35.342s4.747.937 6.973.937 8.427-2.193 8.427-2.193-6.739-.84-9.196-.601c-2.458.238-6.205 1.857-6.205 1.857zM81.365 31.227s-4.748.936-6.974.936-8.427-2.192-8.427-2.192 6.74-.84 9.197-.602c2.457.239 6.204 1.858 6.204 1.858zM110.98 39.682c-11.889 3.985-16.48.383-16.48.383s5.968-2.632 16.48-.383z" fill="#3e3719"/><path d="M144.424 28.813s4.748.937 6.974.937 8.427-2.193 8.427-2.193-6.739-.84-9.197-.601c-2.457.238-6.204 1.857-6.204 1.857zM160.216 21.453s4.748.936 6.974.936 8.427-2.192 8.427-2.192-6.739-.84-9.196-.602c-2.458.239-6.205 1.858-6.205 1.858z" fill="#4d421f"/><path d="M153.737 19.846s4.748.936 6.974.936 8.426-2.192 8.426-2.192-6.739-.84-9.196-.602c-2.458.239-6.204 1.858-6.204 1.858z" fill="#635c27"/><path d="M130.517 16.983s4.748.936 6.974.936 8.426-2.192 8.426-2.192-6.738-.84-9.196-.602c-2.458.239-6.204 1.858-6.204 1.858zM139.36 19.782s4.749.936 6.975.936 8.427-2.192 8.427-2.192-6.74-.84-9.197-.602c-2.458.239-6.204 1.858-6.204 1.858zM110.735 20.748s4.748.936 6.974.936 8.427-2.192 8.427-2.192-6.739-.84-9.197-.602c-2.457.239-6.204 1.858-6.204 1.858z" fill="#4d421f"/><path d="M145.916 18.366c15.112 1.736 13.989-.907 13.989-.907s-5.28-2.557-13.99.907z" fill="#6b6e23"/><path d="M148.184 23.333c8.155-1.395 12.149.198 11.657.153-.492-.045-2.763.718-6.246.778-3.484.06-5.41-.93-5.41-.93zM172.75 44.994c-11.889 3.985-16.48.384-16.48.384s5.968-2.633 16.48-.384zM238.656 34.492c-11.89 3.985-16.481.383-16.481.383s5.968-2.632 16.481-.383z" fill="#635c27"/><path d="M217.43 35.92c8.155-1.395 12.148.198 11.656.152-.491-.045-2.762.718-6.246.779-3.484.06-5.41-.931-5.41-.931z" fill="#6b6e23"/><path d="M325.222 14.83c15.302.123-44.216 5.888-24.181 7.306 20.034 1.417-60.225 3.027-45.474 1.479 14.75-1.549 47.83-3.507 38.532-4.313-9.298-.806 2.27-1.044 8.945-2.547 6.675-1.503-33.541-2.241-28.715-2.986 4.827-.744 43.235-1.183 48.067-1.183 4.833 0 2.826 2.244 2.826 2.244z" fill="#44301b"/><path d="M267.817 36.353s22.455-1.629 20.32-1.723c-2.136-.095 5.044-1.77 5.044-1.77v-1.906l1 1.967.799-1.155.402 1.105s19.032.557 16.698 1.977c-2.333 1.419 8.717 2.706 6.127 3.691-2.59.986-60.525 1.533-59.338 1.166 1.187-.366 14.061-1.847 12.35-1.847-1.71 0-3.402-1.505-3.402-1.505zM145.26 12.297c.954-.12 62.597 1.52 59.143.348-3.453-1.172 17.638-4.558 14.937-5.321-2.701-.763-73.21 1.453-73.21 1.453l-.917-1.563-.118 1.434-1.55-.391.263 1.456-4.301 2.309z" fill="#345618"/><path d="M114.97 21.017c-29.275-16.984-52.587-.023-52.587-.023S85.034 23.927 99.36 23c14.327-.927 15.61-1.983 15.61-1.983z" fill="#3e3719"/><path d="M90.253 18.133c-9.952 3.19-12.624-.003-12.624-.003s2.968-2.931 12.624.003z" fill="#6b6e23"/><path d="M85.317 20.681s4.748.937 6.974.937 8.427-2.193 8.427-2.193-6.74-.84-9.197-.601c-2.457.238-6.204 1.857-6.204 1.857zM101.11 13.32s4.747.937 6.973.937 8.427-2.192 8.427-2.192-6.739-.84-9.197-.602c-2.457.239-6.204 1.858-6.204 1.858z" fill="#4d421f"/><path d="M94.63 11.714s4.747.937 6.973.937 8.427-2.193 8.427-2.193-6.739-.84-9.196-.601c-2.458.238-6.205 1.857-6.205 1.857z" fill="#635c27"/><path d="M71.41 8.85s4.748.937 6.974.937 8.426-2.192 8.426-2.192-6.739-.84-9.196-.602c-2.458.239-6.204 1.858-6.204 1.858zM80.254 11.65s4.748.937 6.974.937 8.426-2.193 8.426-2.193-6.739-.84-9.196-.601c-2.458.238-6.204 1.857-6.204 1.857zM51.628 12.616s4.748.936 6.974.936 8.427-2.192 8.427-2.192-6.74-.84-9.197-.602c-2.457.239-6.204 1.858-6.204 1.858z" fill="#4d421f"/><path d="M86.808 10.234c15.113 1.736 13.99-.907 13.99-.907s-5.28-2.557-13.99.907z" fill="#6b6e23"/><path d="M89.077 15.201c8.155-1.395 12.148.198 11.657.153-.492-.045-2.763.718-6.247.778-3.483.06-5.41-.93-5.41-.93z" fill="#635c27"/><path d="M250.708 10.375s4.748.937 6.974.937 8.427-2.193 8.427-2.193-6.739-.84-9.197-.601c-2.457.238-6.204 1.857-6.204 1.857zM259.552 13.175s4.748.936 6.974.936 8.427-2.192 8.427-2.192-6.739-.84-9.197-.602c-2.457.239-6.204 1.858-6.204 1.858zM230.927 14.14s4.748.937 6.974.937 8.426-2.193 8.426-2.193-6.739-.84-9.196-.601c-2.458.238-6.204 1.857-6.204 1.857z" fill="#4d421f"/><path d="M266.107 11.759c15.113 1.736 13.99-.908 13.99-.908s-5.28-2.557-13.99.908z" fill="#6b6e23"/><path d="M268.376 16.726c8.155-1.395 12.148.198 11.656.152-.491-.045-2.762.718-6.246.779-3.484.06-5.41-.931-5.41-.931z" fill="#635c27"/><path d="M221.3 6.713s4.749.937 6.975.937 8.426-2.193 8.426-2.193-6.739-.84-9.196-.601c-2.458.238-6.204 1.857-6.204 1.857zM205.515 45.39s4.748.937 6.974.937 8.426-2.192 8.426-2.192-6.739-.84-9.196-.602c-2.458.239-6.204 1.858-6.204 1.858z" fill="#4d421f"/><path d="M227.578 44.006c-7.411 2.088-9.03-.02-9.03-.02s2.015-1.181 9.03.02zM205.213 43.059c8.155-1.395 12.149.198 11.657.152-.491-.045-2.762.718-6.246.779-3.484.06-5.41-.931-5.41-.931z" fill="#635c27"/><path d="M232.874 42.874s4.748.936 6.974.936 8.426-2.192 8.426-2.192-6.738-.84-9.196-.602c-2.458.239-6.204 1.858-6.204 1.858zM227.75 38.758s-4.749.936-6.975.936-8.426-2.192-8.426-2.192 6.739-.84 9.196-.602c2.458.24 6.204 1.858 6.204 1.858z" fill="#3e3719"/><path d="M276.901 24.514s4.748.936 6.974.936 8.427-2.192 8.427-2.192-6.74-.84-9.197-.602c-2.457.239-6.204 1.858-6.204 1.858zM257.12 28.279s4.747.936 6.973.936 8.427-2.192 8.427-2.192-6.739-.84-9.196-.602c-2.458.239-6.204 1.858-6.204 1.858z" fill="#4d421f"/><path d="M287.832 25.354c-50.735-16.984-91.135-.024-91.135-.024s39.255 2.934 64.084 2.007c24.83-.927 27.051-1.983 27.051-1.983z" fill="#3e3719"/><path d="M236.637 25.664c-9.952 3.19-12.624-.002-12.624-.002s2.968-2.932 12.624.002z" fill="#6b6e23"/><path d="M231.701 28.213s4.748.936 6.974.936 8.427-2.192 8.427-2.192-6.739-.84-9.197-.602c-2.457.239-6.204 1.858-6.204 1.858zM247.494 20.852s4.747.936 6.973.936 8.427-2.192 8.427-2.192-6.739-.84-9.196-.602c-2.458.239-6.204 1.858-6.204 1.858z" fill="#4d421f"/><path d="M241.014 19.245s4.748.937 6.974.937 8.426-2.193 8.426-2.193-6.739-.84-9.196-.601c-2.458.238-6.204 1.857-6.204 1.857z" fill="#635c27"/><path d="M217.794 16.382s4.748.936 6.974.936 8.427-2.192 8.427-2.192-6.74-.84-9.197-.602c-2.458.239-6.204 1.858-6.204 1.858zM226.638 19.181s4.748.937 6.974.937 8.427-2.193 8.427-2.193-6.74-.84-9.197-.601c-2.458.238-6.204 1.857-6.204 1.857zM198.012 20.147s4.748.936 6.974.936 8.427-2.192 8.427-2.192-6.739-.84-9.197-.602c-2.457.24-6.204 1.858-6.204 1.858z" fill="#4d421f"/><path d="M233.193 17.765c15.112 1.737 13.989-.907 13.989-.907s-5.28-2.557-13.99.907z" fill="#6b6e23"/><path d="M235.461 22.733c8.155-1.395 12.149.198 11.657.152-.492-.045-2.762.718-6.246.779-3.484.06-5.41-.931-5.41-.931z" fill="#635c27"/><path d="M139.556 43.296l1.355-2.051-.002 2.329 2.534-.017 1.21-1.331.182 1.028 5.713.334 1.195-1.798.118 2.102.905-1.674.736 1.901s-10.623.626-8.444.846c2.18.22-5.834 1.135-5.834 1.135l.881-1.517h-2.201l1.287-2.23zM19.874 34.022L18.73 30.26l2.377 3.474.748-1.81.856 1.75 5.666-.4.789-1.331.678 1.915 2.72-.557-10.238 3.382.762-1.721zM169.802 6.25L185.79 5.2l-.913-2.074-1.813 1.415-.839-.89-1.133.896-10.409.374-.48-1.051-6.223 2.562z" fill="#345618"/></svg>