<svg xmlns="http://www.w3.org/2000/svg" width="1280" height="200" viewBox="0 0 338.667 52.917"><path fill="#324212" d="M0 0h338.667v52.917H0z"/><path d="M162 13.74s-77.61 5.35-70.626 3.846c6.984-1.503-3.827-2.202-18.415-2.011-14.588.19-62.773-1.492-53.25 1.05 9.524 2.543 62.83 1.277 54.87 4.84-7.96 3.562 2.089 5.696 2 8.132-.089 2.435-68.412 7.935-63.818 11.091 4.595 3.156 78.704-2.208 85.995-2.713 7.29-.505-2.828 1.757 2.454 2.126 5.282.37 65.501-1.907 68.769-4.52 3.268-2.611 17.63-15.532 11.866-17.275C176.082 16.564 162 13.741 162 13.741z" fill="#342515"/><path d="M160.193 18.89c-17.934 4.256-24.86.41-24.86.41s9.003-2.81 24.86-.41zM151.37 30.883c-29.275-16.984-52.587-.024-52.587-.024s22.651 2.934 36.978 2.007c14.327-.927 15.61-1.983 15.61-1.983z" fill="#3e3719"/><path d="M171.581 25.668c-50.665-15.353-91.008-.02-91.008-.02s39.2 2.651 63.995 1.813c24.795-.838 27.013-1.793 27.013-1.793zM91.892 40.613C51.64 30.916 19.588 40.6 19.588 40.6s31.144 1.675 50.843 1.146c19.698-.53 21.46-1.133 21.46-1.133z" fill="#3e3719"/><path d="M36.423 39.593s4.748.936 6.974.936 8.427-2.192 8.427-2.192-6.739-.84-9.197-.602c-2.457.239-6.204 1.858-6.204 1.858z" fill="#4d421f"/><path d="M58.487 38.208c-7.412 2.088-9.031-.019-9.031-.019s2.016-1.182 9.03.02zM36.122 37.261c8.155-1.395 12.148.198 11.657.153-.492-.046-2.763.717-6.247.778-3.483.06-5.41-.931-5.41-.931z" fill="#635c27"/><path d="M23.73 41.627c5.892-1.81 10.803-.054 10.803-.054s-5.565 2.551-10.802.054z" fill="#6b6e23"/><path d="M64.3 42.422c-11.89 3.985-16.482.384-16.482.384s5.968-2.633 16.481-.384z" fill="#635c27"/><path d="M54.256 41.798c10.367 1.04 9.597-.544 9.597-.544s-3.622-1.532-9.597.544zM126.653 27.998c-9.952 3.19-12.624-.002-12.624-.002s2.968-2.932 12.624.002z" fill="#6b6e23"/><path d="M63.782 37.076s4.748.936 6.974.936 8.427-2.192 8.427-2.192-6.739-.84-9.196-.602c-2.458.239-6.205 1.858-6.205 1.858zM58.658 32.96s-4.748.937-6.974.937-8.427-2.193-8.427-2.193 6.74-.84 9.197-.601c2.457.238 6.204 1.857 6.204 1.857zM88.274 41.415c-11.89 3.985-16.482.384-16.482.384s5.969-2.632 16.482-.384z" fill="#3e3719"/><path d="M121.717 30.547s4.748.936 6.974.936 8.427-2.192 8.427-2.192-6.74-.84-9.197-.602c-2.457.239-6.204 1.858-6.204 1.858zM137.51 23.186s4.747.936 6.973.936 8.427-2.192 8.427-2.192-6.739-.84-9.196-.602c-2.458.239-6.205 1.858-6.205 1.858z" fill="#4d421f"/><path d="M131.03 21.58s4.747.936 6.973.936 8.427-2.193 8.427-2.193-6.739-.84-9.196-.601c-2.458.238-6.205 1.858-6.205 1.858z" fill="#635c27"/><path d="M107.81 18.716s4.748.936 6.974.936 8.426-2.192 8.426-2.192-6.739-.84-9.196-.602c-2.458.24-6.204 1.858-6.204 1.858zM116.654 21.516s4.748.936 6.974.936 8.426-2.193 8.426-2.193-6.739-.84-9.196-.601c-2.458.238-6.204 1.858-6.204 1.858zM88.028 22.481s4.748.936 6.974.936 8.427-2.192 8.427-2.192-6.74-.84-9.197-.601c-2.457.238-6.204 1.857-6.204 1.857z" fill="#4d421f"/><path d="M123.209 20.1c15.112 1.736 13.989-.908 13.989-.908s-5.28-2.557-13.99.907z" fill="#6b6e23"/><path d="M125.477 25.067c8.155-1.395 12.148.198 11.657.152-.492-.045-2.763.718-6.247.779-3.483.06-5.41-.931-5.41-.931zM150.044 46.727c-11.89 3.986-16.482.384-16.482.384s5.969-2.632 16.482-.384zM215.949 36.225c-11.89 3.985-16.482.384-16.482.384s5.97-2.633 16.482-.384z" fill="#635c27"/><path d="M194.722 37.653c8.155-1.395 12.149.198 11.657.153-.491-.045-2.762.718-6.246.778-3.484.06-5.41-.93-5.41-.93z" fill="#6b6e23"/><path d="M273.06 10.59c-16.738-.173-39.043 2.257-34.397 5.002 4.645 2.745 16.734 4.376 9.633 5.6-7.101 1.223-45.594 6.474-40.262 8.364 5.33 1.889 62.045 2.637 59.161 4.321-2.884 1.684 6.432 2.17 12.178 2.17 5.747 0-14.299-8.105-11.974-9.905 2.324-1.8 58.594 1.39 57.07-2.764-1.526-4.155-37.467-6.59-35.023-7.92 2.443-1.33 5.88-3.486 2.213-3.644-3.668-.158-18.599-1.225-18.599-1.225z" fill="#342515"/><path d="M300.247 11.95c7.556.106-21.832 5.021-11.94 6.23 9.893 1.208-29.736 2.58-22.452 1.26 7.283-1.32 23.616-2.99 19.025-3.676-4.59-.688 1.121-.89 4.417-2.172 3.296-1.281-16.561-1.91-14.178-2.546 2.383-.634 21.347-1.009 23.733-1.009 2.386 0 1.395 1.913 1.395 1.913z" fill="#44301b"/><path d="M255.617 25.124s-72.038 3.911-68.025.19c4.012-3.722 21.587-2.382 16.242-5.07-5.345-2.689-43.81 1.386-41.068-1.176 2.742-2.563 100.387-.445 92.78-4.212-7.605-3.768-176.286.256-172.794-3.305 3.492-3.56 214.464-8.737 207.1-6.38-7.362 2.358-32.391 10.707-26.125 11.078 6.267.37-8.11 8.875-8.11 8.875z" fill="#342515"/><path d="M152.1 40.058l.09-2.492.847 2.037 3.345-2.787.306 2.01 1.547-.467s20.517 1.045 18.242-.318c-2.274-1.363-6.222-1.766-6.598-2.471-.376-.706-.376-3.669-.376-3.669l1.715 2.231.665-2.014.838.686s6.68-5.661 6.573-7.313c-.109-1.651 1.788-4.932 2.978-5.516 1.19-.584 1.557-2.652 1.557-2.652l.874 1.788s18.165-.313 18.97-.184c.806.128 1.754-1.057 1.754-1.057v1.603l1.07-1.066s-.492 2.97-1.767 2.843c-1.275-.127-5.59-.478-7.974-.381-2.384.097-2.446-.03-2.446-.03l-.126-1.28-.762 1.418-.436-1.262s.033 1.854-1.252 2.12c-1.286.264-4.972 1.185-4.657 2.54.315 1.355 2.992 2.37 4.672 2.28 1.68-.09 21.33-.566 21.33-.566l1.185-1.567-.399 1.755.714-1.03.062 1.286s-10.08.568-10.257 1.754c-.176 1.187 4.428 1.456 4.428 1.456s-26.709 3.838-23.94 5.409c2.77 1.571.727 5.576-2.415 5.576-3.143 0-30.358-.67-30.358-.67zM267.505 27.01l-.084-3.358 1.83 1.505 2.499-2.631.262 1.686 3.27-1.181 1.252.943 1.408-.18s12.983-.827 11.075 1.137c-1.908 1.964-13.296 2.938-10.987 4.624 2.308 1.687 5.378 4.331 5.378 4.331l-2.104.522-1.415-1.995.117.964s-9.001-6.634-10.185-6.634c-1.185 0-2.316.268-2.316.268zM213.706 34.455s22.456-1.63 20.32-1.724c-2.136-.094 5.045-1.768 5.045-1.768v-1.907l1 1.967.798-1.155.402 1.104s19.032.558 16.699 1.977c-2.334 1.42 8.716 2.707 6.126 3.692-2.59.985-60.524 1.533-59.337 1.166 1.187-.366 14.06-1.847 12.35-1.847-1.71 0-3.403-1.505-3.403-1.505zM23.898 11.324c.954-.12 62.597 1.519 59.143.348C79.588 10.5 100.68 7.114 97.978 6.35c-2.701-.763-73.21 1.453-73.21 1.453l-.917-1.563-.118 1.434-1.549-.391.262 1.456-4.301 2.309z" fill="#345618"/><path d="M92.263 22.75c-29.276-16.983-52.587-.022-52.587-.022s22.651 2.933 36.978 2.006c14.327-.927 15.61-1.983 15.61-1.983z" fill="#3e3719"/><path d="M67.545 19.866c-9.952 3.19-12.623-.002-12.623-.002s2.967-2.932 12.623.002z" fill="#6b6e23"/><path d="M62.61 22.415s4.748.936 6.974.936 8.427-2.192 8.427-2.192-6.74-.84-9.197-.602c-2.458.239-6.204 1.858-6.204 1.858zM78.402 15.054s4.748.937 6.974.937 8.427-2.193 8.427-2.193-6.74-.84-9.197-.601c-2.457.238-6.204 1.857-6.204 1.857z" fill="#4d421f"/><path d="M71.922 13.448s4.748.936 6.974.936 8.427-2.192 8.427-2.192-6.739-.84-9.197-.602c-2.457.239-6.204 1.858-6.204 1.858z" fill="#635c27"/><path d="M48.702 10.584s4.748.937 6.974.937 8.427-2.193 8.427-2.193-6.739-.84-9.196-.601c-2.458.238-6.205 1.857-6.205 1.857zM57.546 13.384s4.748.936 6.974.936 8.427-2.192 8.427-2.192-6.739-.84-9.196-.602c-2.458.239-6.205 1.858-6.205 1.858zM28.92 14.35s4.749.936 6.975.936 8.426-2.193 8.426-2.193-6.738-.84-9.196-.601c-2.458.238-6.204 1.857-6.204 1.857z" fill="#4d421f"/><path d="M64.101 11.968c15.113 1.736 13.99-.908 13.99-.908s-5.28-2.556-13.99.908z" fill="#6b6e23"/><path d="M66.37 16.935c8.155-1.395 12.148.198 11.657.153-.492-.046-2.763.717-6.247.778-3.484.06-5.41-.931-5.41-.931z" fill="#635c27"/><path d="M228.001 12.109s4.748.936 6.974.936 8.427-2.192 8.427-2.192-6.74-.84-9.197-.602c-2.457.239-6.204 1.858-6.204 1.858zM236.845 14.908s4.748.936 6.974.936 8.427-2.192 8.427-2.192-6.74-.84-9.197-.602c-2.457.24-6.204 1.858-6.204 1.858zM208.22 15.874s4.747.936 6.973.936 8.427-2.192 8.427-2.192-6.739-.84-9.196-.602c-2.458.239-6.204 1.858-6.204 1.858z" fill="#4d421f"/><path d="M243.4 13.492c15.112 1.736 13.99-.907 13.99-.907s-5.28-2.557-13.99.907z" fill="#6b6e23"/><path d="M245.668 18.46c8.155-1.396 12.149.197 11.657.152-.491-.045-2.762.718-6.246.778-3.484.06-5.41-.93-5.41-.93z" fill="#635c27"/><path d="M198.594 8.447s4.747.936 6.973.936 8.427-2.192 8.427-2.192-6.739-.84-9.196-.602c-2.458.239-6.204 1.858-6.204 1.858z" fill="#4d421f"/></svg>