<svg xmlns="http://www.w3.org/2000/svg" width="1280" height="200" viewBox="0 0 338.667 52.917"><path fill="#333c18" d="M0 0h338.667v52.917H0z"/><path d="M132.721 15.338s-47.118 3.976-42.878 2.859c4.24-1.118-2.323-1.638-11.18-1.496-8.857.142-38.11-1.109-32.329.781 5.782 1.89 38.145.95 33.312 3.597-4.832 2.649 1.269 4.235 1.215 6.046-.054 1.81-41.535 5.899-38.745 8.245 2.79 2.346 47.782-1.642 52.209-2.017 4.426-.376-1.717 1.306 1.49 1.58 3.206.275 39.767-1.417 41.75-3.36 1.985-1.94 10.705-11.546 7.205-12.841-3.499-1.295-12.049-3.394-12.049-3.394z" fill="#342515"/><path d="M160.193 18.89c-17.934 4.256-24.86.41-24.86.41s9.003-2.81 24.86-.41zM151.37 30.883c-29.275-16.984-52.587-.024-52.587-.024s22.651 2.934 36.978 2.007c14.327-.927 15.61-1.983 15.61-1.983z" fill="#3e3719"/><path d="M171.581 25.668c-50.665-15.353-91.008-.02-91.008-.02s39.2 2.651 63.995 1.813c24.795-.838 27.013-1.793 27.013-1.793zM91.892 40.613C51.64 30.916 19.588 40.6 19.588 40.6s31.144 1.675 50.843 1.146c19.698-.53 21.46-1.133 21.46-1.133z" fill="#3e3719"/><path d="M36.423 39.593s4.748.936 6.974.936 8.427-2.192 8.427-2.192-6.739-.84-9.197-.602c-2.457.239-6.204 1.858-6.204 1.858z" fill="#4d421f"/><path d="M58.487 38.208c-7.412 2.088-9.031-.019-9.031-.019s2.016-1.182 9.03.02zM36.122 37.261c8.155-1.395 12.148.198 11.657.153-.492-.046-2.763.717-6.247.778-3.483.06-5.41-.931-5.41-.931z" fill="#635c27"/><path d="M23.73 41.627c5.892-1.81 10.803-.054 10.803-.054s-5.565 2.551-10.802.054z" fill="#6b6e23"/><path d="M64.3 42.422c-11.89 3.985-16.482.384-16.482.384s5.968-2.633 16.481-.384z" fill="#635c27"/><path d="M54.256 41.798c10.367 1.04 9.597-.544 9.597-.544s-3.622-1.532-9.597.544zM126.653 27.998c-9.952 3.19-12.624-.002-12.624-.002s2.968-2.932 12.624.002z" fill="#6b6e23"/><path d="M63.782 37.076s4.748.936 6.974.936 8.427-2.192 8.427-2.192-6.739-.84-9.196-.602c-2.458.239-6.205 1.858-6.205 1.858zM58.658 32.96s-4.748.937-6.974.937-8.427-2.193-8.427-2.193 6.74-.84 9.197-.601c2.457.238 6.204 1.857 6.204 1.857zM88.274 41.415c-11.89 3.985-16.482.384-16.482.384s5.969-2.632 16.482-.384z" fill="#3e3719"/><path d="M121.717 30.547s4.748.936 6.974.936 8.427-2.192 8.427-2.192-6.74-.84-9.197-.602c-2.457.239-6.204 1.858-6.204 1.858zM137.51 23.186s4.747.936 6.973.936 8.427-2.192 8.427-2.192-6.739-.84-9.196-.602c-2.458.239-6.205 1.858-6.205 1.858z" fill="#4d421f"/><path d="M131.03 21.58s4.747.936 6.973.936 8.427-2.193 8.427-2.193-6.739-.84-9.196-.601c-2.458.238-6.205 1.858-6.205 1.858z" fill="#635c27"/><path d="M107.81 18.716s4.748.936 6.974.936 8.426-2.192 8.426-2.192-6.739-.84-9.196-.602c-2.458.24-6.204 1.858-6.204 1.858zM116.654 21.516s4.748.936 6.974.936 8.426-2.193 8.426-2.193-6.739-.84-9.196-.601c-2.458.238-6.204 1.858-6.204 1.858zM88.028 22.481s4.748.936 6.974.936 8.427-2.192 8.427-2.192-6.74-.84-9.197-.601c-2.457.238-6.204 1.857-6.204 1.857z" fill="#4d421f"/><path d="M123.209 20.1c15.112 1.736 13.989-.908 13.989-.908s-5.28-2.557-13.99.907z" fill="#6b6e23"/><path d="M125.477 25.067c8.155-1.395 12.148.198 11.657.152-.492-.045-2.763.718-6.247.779-3.483.06-5.41-.931-5.41-.931zM150.044 46.727c-11.89 3.986-16.482.384-16.482.384s5.969-2.632 16.482-.384zM215.949 36.225c-11.89 3.985-16.482.384-16.482.384s5.97-2.633 16.482-.384z" fill="#635c27"/><path d="M194.722 37.653c8.155-1.395 12.149.198 11.657.153-.491-.045-2.762.718-6.246.778-3.484.06-5.41-.93-5.41-.93z" fill="#6b6e23"/><path d="M273.06 10.59c-16.738-.173-39.043 2.257-34.397 5.002 4.645 2.745 16.734 4.376 9.633 5.6-7.101 1.223-45.594 6.474-40.262 8.364 5.33 1.889 62.045 2.637 59.161 4.321-2.884 1.684 6.432 2.17 12.178 2.17 5.747 0-14.299-8.105-11.974-9.905 2.324-1.8 58.594 1.39 57.07-2.764-1.526-4.155-37.467-6.59-35.023-7.92 2.443-1.33 5.88-3.486 2.213-3.644-3.668-.158-18.599-1.225-18.599-1.225z" fill="#342515"/><path d="M300.247 11.95c7.556.106-21.832 5.021-11.94 6.23 9.893 1.208-29.736 2.58-22.452 1.26 7.283-1.32 23.616-2.99 19.025-3.676-4.59-.688 1.121-.89 4.417-2.172 3.296-1.281-16.561-1.91-14.178-2.546 2.383-.634 21.347-1.009 23.733-1.009 2.386 0 1.395 1.913 1.395 1.913z" fill="#44301b"/><path d="M250.593 20.433s.644-1.38 1.182-2.384l.537-1.005-2.578 2.43.563-1.756-1.17 1.441s-.591-.531-2.509-1.495c-1.918-.964-7.407-2.012-8.11-2.714-.702-.703-.677-1.467.297-2.416.974-.949 3.021-1.402 3.021-1.402l.412-1.86.14 1.704.757-.926.294.688 15.229-1.82.877-2.461-1.66 1.352.189-1.48s.255.94-1.002 1.026c-1.257.085-63.461-2.05-79.871.317-16.41 2.368-.821 4.454.611 6.263 1.432 1.81-13.921 2.304-13.921 2.304l-1.813-1.465 1.129 2.239-1.38-.442-.244 2.506-1.498-1.36.02 1.689-1.893-2.051 1.01 2.123-1.885-.64s-.528.659.926 1.24c1.453.58 15.535 1.577 15.345 2.9-.19 1.323-17.114 4.487-17.114 4.487l-1.127-1.303.3 1.635-.904-.822s-.263 1.238 1.119 2.173c1.382.934 45.18-.533 38.89 1.774-6.291 2.306 11.987.328 12.847-.063.86-.391-.162-1.172.082-2.266s2.42-3.475 2.42-3.475l-.621 1.923 1.76-2.36.567 1.295 19.09-3.968.056-2.238.515 2.037 1.728-1.703v1.246zM81.1 26.385l.057-2.487-1.121 1.9-1.015-1.64-.535 1.015s-2.82-2.353-2.82-3.099S79.49 19.9 79.49 19.9l.294-1.788-1.423 1.376-.854-1.341-.782 1.293-16.042-1.411-.894-1.112.142 1.403-.935-.708-1.362.844s-23.82-.469-27.195-1.277c-3.374-.808-1.696-2.581-1.696-2.581l1.065.892.926-1.284.27.75 29.72-.272 1.012-.59.68.53 25.524.52 1.311-.59 1.142.979s7.89-.738 8.252.188c.362.926-2.26 1.764-2.26 1.764l-1.65-1.103.439 1.047-2.981-.317s.879 1.196 2.032 1.196c1.154 0 5.025-.816 6.78-1.053 1.755-.238-2.747-2.542-1.894-2.932.853-.39 10.222-.832 10.222-.832l.144-1.464-.739.903s.122-.084-1.098-.807c-1.22-.722-.726-.165-.726-.165v.408S73.355 12.27 75.38 11.27c2.025-1 13.193-4.123 7.585-4.407-5.608-.283-3.955-1.245-3.955-1.245l-.763.75-1.973-.66-.932.711s-70.6.27-66.784 2.871c3.816 2.602 25.689 9.252 13.721 10.076-11.967.824-11.145-.43-11.145-.43l.328 1.03-1.212-.89s-2.477 2.38-.596 2.655c1.881.276-2.316-.26-2.316-.26l1.096.74s27.481.1 25.53 2.428c-1.952 2.329-10.165 4.76-10.662 6.046-.496 1.287 8.333 1.27 11.343 1.176 3.009-.094 13.049-3.215 13.049-3.215l1.028-1.493-.072 1.555 1.296-.983.452.839 19.69-1.739 1.6-1.281.172 1.011 1.32-.759.768.537z" fill="#414c1f"/></svg>