<svg xmlns="http://www.w3.org/2000/svg" width="1280" height="200" viewBox="0 0 338.667 52.917"><path fill="#592c05" d="M0 0h338.667v52.917H0z"/><path d="M185.26 34.386s34.963-1.198 32.063 1.288c-2.9 2.486-11.95 2.421-11.271 3.976.678 1.556 14.69.024 11.309 2.29-3.381 2.266 9.44 4.879 16.6 5.42 7.16.54 97.946 3.236 94.187.338-3.759-2.897-15.834-5.563-11.263-6.906 4.572-1.343 9.182-4.74 4.615-4.74-4.566 0-32.885 1.502-30.43 0 2.453-1.502 4.282-2.64-.067-3.175-4.349-.535-47.192 1.918-44.018.278 3.173-1.641 19.686-4.139 14.637-4.923-5.05-.785-20.807 1.112-27.291 1.112-6.485 0-56.377 1.11-56.377 1.11l-6.864 3.976z" fill="#7f2a15"/><path d="M182.9 17.157c-17.934 4.256-24.86.41-24.86.41s9.003-2.811 24.86-.41z" fill="#3e3719"/><path d="M174.078 29.149c-29.276-16.984-52.588-.023-52.588-.023s22.651 2.933 36.978 2.006c14.327-.927 15.61-1.983 15.61-1.983zM112.876 17.24C83.6.258 60.288 17.219 60.288 17.219s22.652 2.933 36.979 2.006c14.327-.927 15.609-1.983 15.609-1.983z" fill="#3b1d03"/><path d="M194.289 23.935c-50.666-15.353-91.01-.02-91.01-.02s39.202 2.65 63.996 1.813c24.795-.838 27.014-1.793 27.014-1.793zM114.599 38.88c-40.252-9.698-72.303-.013-72.303-.013s31.143 1.675 50.842 1.145c19.698-.529 21.461-1.132 21.461-1.132z" fill="#3b1d03"/><path d="M51.16 32.553s7.088-.339 4.835 1.461 2.857 3.863 6.911 3.863c4.054 0 30.447-2.733 24.55-4.255-5.897-1.521 12.676-4.75 7.4-5.757-5.276-1.006-56.489 2.5-52.483 4.026 4.006 1.526 8.786.662 8.786.662z" fill="#955917"/><path d="M59.13 37.86s4.748.936 6.974.936 8.427-2.193 8.427-2.193-6.739-.84-9.196-.601c-2.458.238-6.205 1.857-6.205 1.857z" fill="#4d421f"/><path d="M81.194 36.475c-7.411 2.087-9.031-.02-9.031-.02s2.016-1.182 9.03.02z" fill="#674e25"/><path d="M58.83 35.528c8.154-1.396 12.147.197 11.656.152-.492-.045-2.763.718-6.246.778-3.484.061-5.41-.93-5.41-.93z" fill="#635c27"/><path d="M46.438 39.893c5.891-1.81 10.803-.054 10.803-.054s-5.566 2.552-10.803.054z" fill="#7f2a15"/><path d="M87.006 40.689c-11.89 3.985-16.481.383-16.481.383s5.969-2.632 16.481-.383z" fill="#456525"/><path d="M76.963 40.065c10.368 1.04 9.597-.544 9.597-.544s-3.622-1.532-9.597.544zM149.36 26.265c-9.952 3.19-12.624-.003-12.624-.003s2.968-2.932 12.624.003z" fill="#674e25"/><path d="M86.49 35.342s4.747.937 6.973.937 8.427-2.193 8.427-2.193-6.739-.84-9.196-.601c-2.458.238-6.205 1.857-6.205 1.857z" fill="#c9530d"/><path d="M81.365 31.227s-4.748.936-6.974.936-8.427-2.192-8.427-2.192 6.74-.84 9.197-.602c2.457.239 6.204 1.858 6.204 1.858z" fill="#7f2a15"/><path d="M110.98 39.682c-11.889 3.985-16.48.383-16.48.383s5.968-2.632 16.48-.383zM144.424 28.813s4.748.937 6.974.937 8.427-2.193 8.427-2.193-6.739-.84-9.197-.601c-2.457.238-6.204 1.857-6.204 1.857zM160.216 21.453s4.748.936 6.974.936 8.427-2.192 8.427-2.192-6.739-.84-9.196-.602c-2.458.239-6.205 1.858-6.205 1.858z" fill="#c9530d"/><path d="M153.737 19.846s4.748.936 6.974.936 8.426-2.192 8.426-2.192-6.739-.84-9.196-.602c-2.458.239-6.204 1.858-6.204 1.858z" fill="#635c27"/><path d="M130.517 16.983s4.748.936 6.974.936 8.426-2.192 8.426-2.192-6.738-.84-9.196-.602c-2.458.239-6.204 1.858-6.204 1.858z" fill="#7f2a15"/><path d="M139.36 19.782s4.749.936 6.975.936 8.427-2.192 8.427-2.192-6.74-.84-9.197-.602c-2.458.239-6.204 1.858-6.204 1.858zM110.735 20.748s4.748.936 6.974.936 8.427-2.192 8.427-2.192-6.739-.84-9.197-.602c-2.457.239-6.204 1.858-6.204 1.858z" fill="#4d421f"/><path d="M145.916 18.366c15.112 1.736 13.989-.907 13.989-.907s-5.28-2.557-13.99.907zM148.184 23.333c8.155-1.395 12.149.198 11.657.153-.492-.045-2.763.718-6.246.778-3.484.06-5.41-.93-5.41-.93z" fill="#955917"/><path d="M172.75 44.994c-11.889 3.985-16.48.384-16.48.384s5.968-2.633 16.48-.384z" fill="#c9530d"/><path d="M238.656 34.492c-11.89 3.985-16.481.383-16.481.383s5.968-2.632 16.481-.383z" fill="#674e25"/><path d="M217.43 35.92c8.155-1.395 12.148.198 11.656.152-.491-.045-2.762.718-6.246.779-3.484.06-5.41-.931-5.41-.931z" fill="#955917"/><path d="M85.317 20.681s4.748.937 6.974.937 8.427-2.193 8.427-2.193-6.74-.84-9.197-.601c-2.457.238-6.204 1.857-6.204 1.857z" fill="#c9530d"/><path d="M101.11 13.32s4.747.937 6.973.937 8.427-2.192 8.427-2.192-6.739-.84-9.197-.602c-2.457.239-6.204 1.858-6.204 1.858z" fill="#4d421f"/><path d="M94.63 11.714s4.747.937 6.973.937 8.427-2.193 8.427-2.193-6.739-.84-9.196-.601c-2.458.238-6.205 1.857-6.205 1.857z" fill="#7f2a15"/><path d="M29.518 16.565s31.24-2.147 27.049-.08c-4.19 2.068-5.608 3.565 1.252 3.565 6.86 0 30.087.106 25.963-2.055-4.124-2.16-10.072-4.19-3.65-5.243 6.42-1.052 22.508-1.486 17.503-3.796-5.005-2.31-34.07 2.165-31.712-1.29C68.28 4.21 77.217 2.65 73.877 2.072c-3.34-.578-45.632 1.8-43.321 2.807 2.31 1.008-11.739 4.243-10.394 4.974 1.345.732 15.141 2.623 15.141 2.623l-6.083 3.14z" fill="#7f2a15"/><path d="M90.253 18.133c-9.952 3.19-12.624-.003-12.624-.003s2.968-2.931 12.624.003z" fill="#674e25"/><path d="M71.41 8.85s4.748.937 6.974.937 8.426-2.192 8.426-2.192-6.739-.84-9.196-.602c-2.458.239-6.204 1.858-6.204 1.858zM80.254 11.65s4.748.937 6.974.937 8.426-2.193 8.426-2.193-6.739-.84-9.196-.601c-2.458.238-6.204 1.857-6.204 1.857zM51.628 12.616s4.748.936 6.974.936 8.427-2.192 8.427-2.192-6.74-.84-9.197-.602c-2.457.239-6.204 1.858-6.204 1.858z" fill="#c9530d"/><path d="M86.808 10.234c15.113 1.736 13.99-.907 13.99-.907s-5.28-2.557-13.99.907zM89.077 15.201c8.155-1.395 12.148.198 11.657.153-.492-.045-2.763.718-6.247.778-3.483.06-5.41-.93-5.41-.93zM250.708 10.375s4.748.937 6.974.937 8.427-2.193 8.427-2.193-6.739-.84-9.197-.601c-2.457.238-6.204 1.857-6.204 1.857zM259.552 13.175s4.748.936 6.974.936 8.427-2.192 8.427-2.192-6.739-.84-9.197-.602c-2.457.239-6.204 1.858-6.204 1.858z" fill="#955917"/><path d="M230.927 14.14s4.748.937 6.974.937 8.426-2.193 8.426-2.193-6.739-.84-9.196-.601c-2.458.238-6.204 1.857-6.204 1.857z" fill="#4d421f"/><path d="M266.107 11.759c15.113 1.736 13.99-.908 13.99-.908s-5.28-2.557-13.99.908z" fill="#7f2a15"/><path d="M268.376 16.726c8.155-1.395 12.148.198 11.656.152-.491-.045-2.762.718-6.246.779-3.484.06-5.41-.931-5.41-.931z" fill="#674e25"/><path d="M221.3 6.713s4.749.937 6.975.937 8.426-2.193 8.426-2.193-6.739-.84-9.196-.601c-2.458.238-6.204 1.857-6.204 1.857z" fill="#c9530d"/><path d="M205.515 45.39s4.748.937 6.974.937 8.426-2.192 8.426-2.192-6.739-.84-9.196-.602c-2.458.239-6.204 1.858-6.204 1.858z" fill="#4d421f"/><path d="M227.578 44.006c-7.411 2.088-9.03-.02-9.03-.02s2.015-1.181 9.03.02zM205.213 43.059c8.155-1.395 12.149.198 11.657.152-.491-.045-2.762.718-6.246.779-3.484.06-5.41-.931-5.41-.931zM232.874 42.874s4.748.936 6.974.936 8.426-2.192 8.426-2.192-6.738-.84-9.196-.602c-2.458.239-6.204 1.858-6.204 1.858z" fill="#c9530d"/><path d="M227.75 38.758s-4.749.936-6.975.936-8.426-2.192-8.426-2.192 6.739-.84 9.196-.602c2.458.24 6.204 1.858 6.204 1.858z" fill="#3e3719"/><path d="M276.901 24.514s4.748.936 6.974.936 8.427-2.192 8.427-2.192-6.74-.84-9.197-.602c-2.457.239-6.204 1.858-6.204 1.858zM257.12 28.279s4.747.936 6.973.936 8.427-2.192 8.427-2.192-6.739-.84-9.196-.602c-2.458.239-6.204 1.858-6.204 1.858z" fill="#4d421f"/><path d="M287.832 25.354c-50.735-16.984-91.135-.024-91.135-.024s39.255 2.934 64.084 2.007c24.83-.927 27.051-1.983 27.051-1.983z" fill="#3b1d03"/><path d="M236.637 25.664c-9.952 3.19-12.624-.002-12.624-.002s2.968-2.932 12.624.002z" fill="#955917"/><path d="M231.701 28.213s4.748.936 6.974.936 8.427-2.192 8.427-2.192-6.739-.84-9.197-.602c-2.457.239-6.204 1.858-6.204 1.858z" fill="#7f2a15"/><path d="M247.494 20.852s4.747.936 6.973.936 8.427-2.192 8.427-2.192-6.739-.84-9.196-.602c-2.458.239-6.204 1.858-6.204 1.858z" fill="#c9530d"/><path d="M241.014 19.245s4.748.937 6.974.937 8.426-2.193 8.426-2.193-6.739-.84-9.196-.601c-2.458.238-6.204 1.857-6.204 1.857z" fill="#674e25"/><path d="M217.794 16.382s4.748.936 6.974.936 8.427-2.192 8.427-2.192-6.74-.84-9.197-.602c-2.458.239-6.204 1.858-6.204 1.858z" fill="#c9530d"/><path d="M226.638 19.181s4.748.937 6.974.937 8.427-2.193 8.427-2.193-6.74-.84-9.197-.601c-2.458.238-6.204 1.857-6.204 1.857zM198.012 20.147s4.748.936 6.974.936 8.427-2.192 8.427-2.192-6.739-.84-9.197-.602c-2.457.24-6.204 1.858-6.204 1.858z" fill="#4d421f"/><path d="M233.193 17.765c15.112 1.737 13.989-.907 13.989-.907s-5.28-2.557-13.99.907z" fill="#c9530d"/><path d="M235.461 22.733c8.155-1.395 12.149.198 11.657.152-.492-.045-2.762.718-6.246.779-3.484.06-5.41-.931-5.41-.931zM162.666 29.07h21.588s-3.557 3.494-6.774 3.715c-3.217.22 21.779-.556 21.779-.556s-21.251 3.876-19.57 4.752c1.682.876 17.176 1.438 14.193 2.693-2.983 1.256-40.903 2.76-40.903 2.76s16.835-6.095 13.393-6.095c-3.44 0-54.678 1.033-54.678 1.033z" fill="#955917"/><path d="M143.479 33.752s-9.482 1.702-12.83 1.069c-3.346-.634-8.289-.888-8.289-.888s3.788-2.31 5.892-2.31h5.992l-3.803-.973s5.97-1.505 9.382-1.505 15.269 2.358 15.269 2.358-1.392 2.69-5.668 3.225c-4.277.535-8.517.94-8.517.94z" fill="#c9530d"/><path d="M185.566 8.044s23.295-2.667 24.347-1.303c1.052 1.364-8.088 2.309-8.088 2.309s24.766 2.17 21.238 2.83c-3.528.659-13.25 1.556-13.25 1.556s.035 2.004-2.495 2.09c-2.53.087-7.437-1.455-7.437-1.455l-15.492.688 1.802-1.877s-13.178-.336-14.376-1.336l-1.2-1z" fill="#955917"/><path d="M303.573 33.025c-17.934 4.255-24.86.41-24.86.41s9.003-2.811 24.86-.41zM265.097 44.681s4.748.936 6.974.936 8.427-2.192 8.427-2.192-6.74-.84-9.197-.602c-2.457.239-6.204 1.858-6.204 1.858zM280.89 37.32s4.747.937 6.973.937 8.427-2.193 8.427-2.193-6.74-.84-9.197-.601c-2.457.238-6.204 1.857-6.204 1.857z" fill="#c9530d"/><path d="M274.41 35.714s4.747.936 6.973.936 8.427-2.192 8.427-2.192-6.739-.84-9.197-.602c-2.457.239-6.204 1.858-6.204 1.858z" fill="#635c27"/><path d="M266.588 34.234c15.113 1.736 13.99-.908 13.99-.908s-5.28-2.556-13.99.908zM268.857 39.201c8.155-1.395 12.148.198 11.657.153-.492-.046-2.763.717-6.247.778-3.484.06-5.41-.931-5.41-.931z" fill="#955917"/><path d="M162.116 5.487l19.232-.665-3.553 1.512s5.391-.676 7.66-.043c2.267.634 3.09 1.42 3.09 1.42s-6.302 2.41-9.712 2.41-11.92-2.248-15.534-2.248c-3.615 0-8.457.164-5.58-.883 2.878-1.047 5.87-1.288 5.87-1.288z" fill="#7f2a15"/><path d="M20.098 27.461v-3.208l2.882 3.588 1.107-1.765.797.648 2.192-1.394s4.726 1.888 8.621 2.646c3.895.758 15.137.41 15.137.41l-36.21 1.904zM37.542 51.59l33.911-.677-2.215-1.49-1.67.966s-20.619-.191-14.777-1.956c5.843-1.765 6.722-2.143 6.722-2.143l-.628-3.053-1.041 2.085-1.29-1.186-.447 1.497s-44.588-.444-41.313 1.321c3.276 1.766 22.804-.085 20.743 1.306-2.062 1.39-5.7 2.899-5.7 2.899l-1.322-1.322-.52 2.066zM194.493 30.988l20.665-.733 1.458-4.354-2.073 2.551-.698-1.25-1.59 2.748-2.086-1.453-1.607.953h-16.046l-2.18-1.563.27 2.34z" fill="#456525"/></svg>