<svg xmlns="http://www.w3.org/2000/svg" width="1280" height="200" viewBox="0 0 338.667 52.917"><path d="M0 0h338.667v52.917H0z" fill="#4c6530"/><path d="M86.794 5.22s97.859-1.563 90.612 1.222c-7.246 2.784-15.39 4.415-11.468 5.9 3.922 1.486 67.04.398 63.952 3.395-3.09 2.997-42.867 7.077-35.142 12.113 7.725 5.037 85.962 4.648 79.343 8.325-6.62 3.677-138.526 11.19-139.422 7.733-.895-3.456 29.198-10.513 31.147-11.778 1.95-1.265-5.905-1.89-5.338-4.213.568-2.322 1.189-4.222-3.769-5.537-4.957-1.314-86.294-3.25-90.61-4.313-4.315-1.063 27.198-7.972 23.833-8.862-3.364-.891-49.08 3.91-50.415 1.294C38.182 7.883 86.794 5.22 86.794 5.22z" fill="#323b27"/><path d="M146.793 22.917c-13.89-.872-36.926 2.28-21.759 4.917 14.93 2.596 15.066 1.348 14.173 4.567-1.486 5.359 5.188 5.96 9.088 6.157 17.297.873 28.741-7.916 20.773-8.606-7.807-.677 3.568-2.622-3.77-4.75-6.841-1.981-15.694-2.14-18.505-2.285z" fill="#467e35"/><path d="M171.81 7.681c-.652 1.074-1.049 1.745-1.421 2.177a7.913 7.913 0 00.488-2.012c-.407 1.38-.875 2.152-1.374 2.641-.7.246-1.738.22-3.903.466.16.02 14.061.097 19.678.116-5.553-.305-6.218-.393-10.06-.713-.905-.213-1.703-.626-2.718-1.075-1.774 1.82-.873.515-.69-1.6z" fill="#5c7520"/><path d="M296.929 18.146s-36.615 4.174-26.755 5.714c9.859 1.54 52.098-.473 38.633 4.786-13.465 5.258-34.585.818-27.816 4.457 6.768 3.639 60.964 3.006 51.804-.14-9.16-3.145-21.64-6.046-16.036-8.738 5.604-2.692-19.83-6.079-19.83-6.079z" fill="#323b27"/><path d="M265.9 19.772a119.558 119.558 0 00-5.532.186c-4.785 1.135-12.425-2.067-15.758.631-11.954 14.915-33.129-2.468-17.34 20.524 14.295 9.38 32.835 4.704 41.471-2.22 18.4-14.75 13.785-19.26-2.84-19.121zM114.47 29.616c-4.072-.121-6.538 1.514-5.962 2.415.647 1.013 4.743 1.236 7.106-.37 2.803-1.752 1.718-2.068-1.144-2.045zM34.209 7.832c-9.534.042-17.414 1.53-9.417 7.138.037.026.53.516.611 1.09.026.187.035.44.03.696-.125.126-.227.26-.298.404-.838 1.705 2.753 4.797 8.683 4.567 2.336.025 3.858-.153 4.026-.898.822-.274 2.08-.72 2.139-.695 1.95.79 5.808 1.084 7.941.452 9.072-4.09 15.54-9.164 2.16-11.84-3.839-.442-10.155-.938-15.875-.914z" fill="#467e35"/><path d="M250.053 20.306c-2.657.046-5.133.657-6.481 2.69-7.65 9.987-29.54.436-11.113 13.755 17.63 9.496 24.776 5.471 33.307.762 20.554-15.016 4.934-16.579-6.573-16.407-2.007.015-5.724-.859-9.14-.8zM235.488 19.912c-6.332-.005-11.71 2.527-10.844 4.044.975 1.706 7.834 2.023 11.907-.343 3.838-2.136 6.392-3.56-1.063-3.701z" fill="#476d34"/><path d="M288.013 6.317c-20.325.094-51.171 4.177-20.38 7.88 19.615 2.36 19.553 2.005 18.394 6.785-1.93 7.957 6.789 8.336 11.793 9.142 25.758 4.15 42.758-7.338 26.96-12.782-5.748-1.98 3.298-4.4-4.892-7.052-7.34-2.376-20.368-3.54-24.018-3.757-2.264-.162-4.953-.23-7.857-.216z" fill="#467e35"/><path d="M29.396 15.984c-1.683.056-3.125.59-3.49 1.332-.649 1.32 2.132 3.715 6.724 3.537 3.952-.141 4.099-.378 1.707-3.324-1.332-1.176-3.258-1.6-4.94-1.544zM32.036 8.177c-1.661-.003-3.476.145-5.47.68-6.308 3.894 2.905 4.743 7.888 7.317 1.802 1.768 7.851 2.321 9.967 2.567 6.71.078 16.594-5.12 9.036-8.185-.6-.144-5.184-1.307-5.681-1.365-3.657-.425-6.567-.766-10.033-.76-1.686.001-3.57-.25-5.707-.254z" fill="#476d34"/><path d="M77.713 18.309c-2.1-1.534-5.473-.906-4.964-.139.51.767 7.064 1.672 4.964.139zM116.516 41.087c-4.136-3.932-8.353-.895-7.041 1.254 1.312 2.149 11.177 2.68 7.04-1.253zM73.105 19.672c-1.612-1.137-4.201-.672-3.81-.104.39.57 5.421 1.242 3.81.104z" fill="#3b462e"/><path d="M111.79 26.979c.511 1.08.465 3.123-.19 3.248 8.333.03 18.018.113 18.944.034-2.57-.098-4.31-.034-5.538-.204-1.138-.156-1.854-.342-1.591-1.747-.421.598-.624 1.192-1.362 1.373-.718.176-4.21-1.491-4.246-2.169-1.267.746-2.976 1.301-4.867 1.462zM281.306 40.663c.444.794.404 2.296-.165 2.387 7.232.023 15.638.084 16.44.026-2.23-.072-3.74-.026-4.805-.15-.988-.115-1.61-.252-1.381-1.284-.366.44-.542.876-1.182 1.009-.623.13-3.654-1.096-3.685-1.595-1.1.549-2.582.957-4.224 1.075z" fill="#5c7520"/></svg>