<svg xmlns="http://www.w3.org/2000/svg" width="1280" height="200" viewBox="0 0 338.667 52.917"><path d="M0 0h338.667v52.917H0z" fill="#484637"/><path d="M134.602 14.855s138.274-5.436 116.667 2.189-70.552 11.293-54.963 14.592c15.588 3.3 60.31 2.625 48.963 6.225-11.348 3.6-169.134 7.67-164.742 5.607 4.392-2.062 78.943-15.138 64.218-18.43-14.725-3.291-19.173-3.774-10.143-10.183z" fill="#2c2b27"/><path d="M142.269 22.917c-11.54-.872-30.678 2.28-18.077 4.917 12.404 2.596 12.517 1.348 11.775 4.567-1.235 5.359 4.31 5.96 7.55 6.157 14.37.873 23.879-7.916 17.258-8.606-6.485-.677 2.965-2.622-3.131-4.75-5.684-1.981-13.04-2.14-15.375-2.285z" fill="#5f5a39"/><path d="M173.58 5.454c-.84 1.78-1.349 2.892-1.828 3.607.247-.85.53-2.008.627-3.333-.522 2.287-1.124 3.567-1.765 4.377-.9.408-2.233.364-5.014.773.206.033 18.066.16 25.282.19-7.135-.504-7.99-.65-12.925-1.18-1.162-.353-2.188-1.038-3.492-1.783-2.279 3.017-1.122.855-.886-2.651z" fill="#3f3a22"/><path d="M265.9 19.772a119.558 119.558 0 00-5.532.186c-4.785 1.135-12.425-2.067-15.758.631-11.954 14.915-33.129-2.468-17.34 20.524 14.295 9.38 32.835 4.704 41.471-2.22 18.4-14.75 13.785-19.26-2.84-19.121zM114.47 29.616c-4.072-.121-6.538 1.514-5.962 2.415.647 1.013 4.743 1.236 7.106-.37 2.803-1.752 1.718-2.068-1.144-2.045zM34.209 7.832c-9.534.042-17.414 1.53-9.417 7.138.037.026.53.516.611 1.09.026.187.035.44.03.696-.125.126-.227.26-.298.404-.838 1.705 2.753 4.797 8.683 4.567 2.336.025 3.858-.153 4.026-.898.822-.274 2.08-.72 2.139-.695 1.95.79 5.808 1.084 7.941.452 9.072-4.09 15.54-9.164 2.16-11.84-3.839-.442-10.155-.938-15.875-.914z" fill="#5f5a39"/><path d="M250.053 20.306c-2.657.046-5.133.657-6.481 2.69-7.65 9.987-29.54.436-11.113 13.755 17.63 9.496 24.776 5.471 33.307.762 20.554-15.016 4.934-16.579-6.573-16.407-2.007.015-5.724-.859-9.14-.8z" fill="#504c2f"/><path d="M235.488 19.912c-6.332-.005-11.71 2.527-10.844 4.044.975 1.706 7.834 2.023 11.907-.343 3.838-2.136 6.392-3.56-1.063-3.701zM288.013 6.317c-20.325.094-51.171 4.177-20.38 7.88 19.615 2.36 19.553 2.005 18.394 6.785-1.93 7.957 6.789 8.336 11.793 9.142 25.758 4.15 42.758-7.338 26.96-12.782-5.748-1.98 3.298-4.4-4.892-7.052-7.34-2.376-20.368-3.54-24.018-3.757-2.264-.162-4.953-.23-7.857-.216z" fill="#5f5a39"/><path d="M29.396 15.984c-1.683.056-3.125.59-3.49 1.332-.649 1.32 2.132 3.715 6.724 3.537 3.952-.141 4.099-.378 1.707-3.324-1.332-1.176-3.258-1.6-4.94-1.544zM32.036 8.177c-1.661-.003-3.476.145-5.47.68-6.308 3.894 2.905 4.743 7.888 7.317 1.802 1.768 7.851 2.321 9.967 2.567 6.71.078 16.594-5.12 9.036-8.185-.6-.144-5.184-1.307-5.681-1.365-3.657-.425-6.567-.766-10.033-.76-1.686.001-3.57-.25-5.707-.254z" fill="#504c2f"/><path d="M77.713 18.309c-2.1-1.534-5.473-.906-4.964-.139.51.767 7.064 1.672 4.964.139zM116.516 41.087c-4.136-3.932-8.353-.895-7.041 1.254 1.312 2.149 11.177 2.68 7.04-1.253zM73.105 19.672c-1.612-1.137-4.201-.672-3.81-.104.39.57 5.421 1.242 3.81.104z" fill="#292d24"/><path d="M108.449 28.297c0-1.199-3.098-3.76-1.836-2.82 1.262.94 1.952 1.664 2.525 2.17.52.459 2.373-.853 3.733-3.835-.236 3.506-1.393 5.669.886 2.652.551.668 5.996 2.599 7 1.373.999.18 2.12.542 5.135-1.275.035.677 3.529 2.345 4.246 2.169.737-.18.941-.775 1.362-1.373-.263 1.405.453 1.59 1.592 1.747 1.227.17 2.967.106 5.537.204-1.808.155-33.278 0-33.737-.072-.46-.073 4.131.506 3.557-.94zM78.876 10.81c.51 1.08.464 3.123-.191 3.248 8.333.03 18.019.113 18.944.034-2.57-.098-4.31-.034-5.537-.204-1.138-.156-1.855-.342-1.592-1.747-.42.598-.624 1.192-1.362 1.373-.717.176-4.21-1.491-4.246-2.169-1.266.746-2.975 1.301-4.866 1.462zM281.331 39.785c.511 1.08.465 3.123-.19 3.248 8.333.03 18.019.113 18.944.034-2.57-.098-4.31-.034-5.537-.204-1.139-.156-1.855-.342-1.592-1.747-.42.598-.624 1.192-1.362 1.373-.717.176-4.21-1.491-4.246-2.169-1.267.746-2.975 1.301-4.866 1.462z" fill="#3f3a22"/></svg>