<svg xmlns="http://www.w3.org/2000/svg" width="1280" height="200" viewBox="0 0 1280 200"><path fill="#d1c394" d="M0 0h1285.924v205.061H0z"/><path d="M192.792 75.374c-1.62.926-.294 2.551 5.42 4.226 5.714 1.675 15.815 3.401 25.243 3.8 9.428.4 18.183-.525 23.38-2.567 5.198-2.04 6.84-5.197 7.471-6.839.632-1.641.254-1.768-3.156-1.894-3.41-.127-9.849-.253-18.288.063-8.44.315-18.877 1.073-26.38 1.565-7.502.492-12.07.72-13.69 1.646zM260.601 77.352c.89 1.374 1.78 2.747 5.025 3.866 3.244 1.118 8.842 1.984 13.724 1.958 4.882-.026 9.05-.942 11.574-2.47 2.525-1.526 3.409-3.665 3.368-4.938-.042-1.273-1.01-1.68-4.861-1.731-3.852-.051-10.586.254-15.871.866-5.286.612-9.122 1.53-12.959 2.45M161.558 109.194c.013.43.04 1.29.98 2.276.94.986 2.791 2.098 5.927 3.228 3.136 1.131 7.555 2.281 12.164 2.818 4.609.536 9.407.46 14.205-.115 4.798-.576 9.596-1.649 13.279-3.183 3.683-1.533 6.25-3.526 7.092-4.906.842-1.38-.042-2.146-3.661-2.684-3.62-.537-9.975-.843-16.941-.652-6.966.192-14.542.882-20.154 1.43-5.611.547-9.257.952-11.08 1.155-1.824.202-1.824.202-1.811.633zM237.323 100.137c-.463.737.242 1.503 1.563 2.117 1.321.613 3.257 1.076 5.888 1.16 2.63.084 5.955-.21 8.628-.82 2.672-.61 4.692-1.537 5.955-2.4 1.262-.862 1.767-1.662 1.347-2.293-.42-.631-1.767-1.094-4.082-1.41-2.315-.316-5.598-.484-8.355-.21-2.757.273-4.988.988-6.92 1.7-1.93.711-3.561 1.419-4.024 2.156zM143.27 81.122c-.273.842.707 2.224 3.891 3.377 3.185 1.154 8.572 2.08 13.433 2.143 4.861.063 9.197-.737 12.037-2.042 2.84-1.304 4.188-3.114 4.44-4.271.254-1.158-.588-1.663-3.071-1.979-2.484-.316-6.608-.442-11.449-.19-4.84.253-10.396.884-13.938 1.35-3.542.467-5.07.77-5.343 1.612zM90.107 77.534c-.757.995-.32 2.145.762 3.217 1.081 1.072 2.807 2.066 4.659 2.488 1.852.422 3.83.273 5.64-.075 1.81-.348 3.45-.895 4.587-1.988 1.136-1.093 1.767-2.733 1.031-4.125s-2.84-2.535-5.071-2.859c-2.231-.323-4.588.174-6.743.842-2.155.667-4.107 1.505-4.865 2.5zM49 106.863c-1.347 1.287-.867 2.462.49 3.63 1.356 1.167 3.586 2.326 6.385 2.477 2.799.15 6.166-.706 7.786-2.344 1.62-1.638 1.494-4.058.042-5.495-1.451-1.437-4.23-1.89-7.206-1.42s-6.15 1.866-7.497 3.152zM104.44 97.445c-.525.922-.018 2.055 1.563 3.276 1.58 1.22 4.231 2.53 7.661 3.014 3.43.485 7.64.145 10.501-.582 2.862-.727 4.377-1.842 5.24-3.296.862-1.454 1.073-3.247.758-4.363-.315-1.115-1.157-1.551-3.598-1.94-2.441-.387-6.482-.727-9.828-.46-3.347.266-5.998 1.139-8.104 1.93-2.106.79-3.666 1.5-4.192 2.421z" fill="#c29d2c"/><path d="M103.406 96.675c-1.42-1.835 2.231-3.67 6.846-5.047 4.614-1.376 10.192-2.294 14.502-1.376 4.31.918 7.353 3.67 5.984 5.964-1.37 2.294-7.15 4.129-13.286 4.129-6.135 0-12.626-1.835-14.046-3.67z" fill="#916f8a"/><path d="M94.692 123.56c-.168.983.868 2.387 4.29 3.653 3.424 1.266 9.232 2.395 14.788 2.714 5.555.32 10.858-.172 14.225-1.276 3.367-1.105 4.798-2.823 5.22-4.222.42-1.399-.169-2.479-3.536-3.314s-9.512-1.424-15.32-1.326c-5.809.098-11.28.883-14.703 1.556s-4.796 1.233-4.964 2.215zM191.04 129.733c-.568.969-.092 1.783 1.957 2.443 2.048.66 5.667 1.164 9.013 1.017 3.346-.148 6.419-.947 8.502-1.768 2.083-.82 3.178-1.663 3.62-2.272.442-.61.231-.989-1.241-1.347-1.473-.358-4.21-.695-7.43-.906-3.22-.21-6.923-.294-9.582.224-2.658.519-4.271 1.64-4.84 2.609z" fill="#c29d2c"/><path d="M189.995 129.886c-1.006-.588-.235-1.765 1.675-2.834 1.91-1.07 4.96-2.032 8.68-2.14 3.72-.106 8.11.642 10.858 1.391 2.748.749 3.854 1.497 3.267 1.925-.586.428-2.865.535-6.133.855-3.267.321-7.523.856-11.042 1.123-3.518.268-6.3.268-7.305-.32z" fill="#6f8a91"/><path d="M249.304 124.005c-.652.738-.287 1.628 2.021 2.683 2.309 1.055 6.56 2.275 13.378 2.738 6.819.463 16.205.168 21.655-.863 5.45-1.031 6.965-2.799 7.302-3.998.338-1.2-.504-1.83-3.935-2.315-3.43-.484-9.449-.821-15.952-.821s-13.49.336-17.818.796c-4.329.46-5.999 1.043-6.65 1.78zM290.497 96.227c-1.662.821-1.06 1.669.358 2.64 1.417.97 3.648 2.065 6.973 2.633 3.325.568 7.744.61 11.49-.064 3.746-.673 6.818-2.062 7.913-3.367 1.094-1.304.21-2.524-2.989-3.22-3.198-.694-8.712-.863-13.433-.55-4.721.313-8.65 1.106-10.312 1.928zM326.895 115.086c-.316 1.074.419 2.278 2.996 2.816 2.577.538 6.996.412 11.752.286s9.849-.253 12.753-1.115c2.903-.863 3.619-2.462 3.262-3.578-.357-1.115-1.788-1.746-6.587-1.894-4.798-.148-12.964.19-17.73.829-4.765.64-6.13 1.582-6.446 2.656zM325.473 75.465c.522 1.25 1.043 2.5 2.651 3.538 1.608 1.038 4.302 1.866 6.785 1.892 2.483.025 4.755-.751 6.312-1.682 1.557-.932 2.399-2.018 2.442-3.234.042-1.216-.715-2.561-3.199-2.95-2.483-.389-6.692.18-9.478.746-2.787.566-4.15 1.128-5.513 1.69M361.073 88.188c-2.715.905-2.402 1.88.322 2.85 2.724.97 7.859 1.938 14.004 2.443 6.145.505 13.3.547 17.361-.505s5.03-3.198 4.504-4.65c-.525-1.452-2.546-2.21-6.46-2.547-3.915-.337-9.723-.253-15.498.207-5.776.46-11.518 1.296-14.233 2.202zM558.637 145.922c.655 1.25 3.063 3.111 8.285 4.398 5.222 1.287 13.258 2.002 18.942 1.287 5.684-.714 9.017-2.857 10.089-4.761 1.072-1.904-.119-3.571-3.81-4.345-3.69-.775-9.88-.656-15.624-.358-5.744.297-11.042.774-14.24 1.331-3.199.558-4.297 1.197-3.642 2.448zM606.51 125.589c-.03 1.276.927 2.613 2.388 3.65a9.728 9.728 0 005.567 1.775c2.143 0 4.464-.739 6.07-1.813 1.608-1.074 2.5-2.484 2.62-3.658.12-1.175-.535-2.115-2.29-2.921-1.757-.806-4.614-1.478-6.846-1.579-2.233-.1-3.84.37-5.152 1.212-1.312.843-2.328 2.058-2.357 3.334zM572.703 98.862c-.447.893.122 1.998 1.448 3.027 1.326 1.028 3.41 1.98 5.79 2.129 2.381.148 5.06-.506 6.845-1.488 1.785-.982 2.678-2.292 2.798-3.482.12-1.19-.536-2.261-1.845-2.768-1.31-.506-3.274-.447-5.327-.298-2.054.149-4.197.387-6 .846-1.802.46-3.263 1.14-3.71 2.034zM637.017 100.761c.668 1.518 3.998 3.593 8.684 4.78 4.687 1.185 10.731 1.483 15.344.768 4.612-.714 7.793-2.44 9.256-3.957 1.464-1.518 1.21-2.827-1.78-3.631-2.99-.804-8.717-1.102-13.87-1.25-5.154-.15-9.735-.15-13.022.33-3.287.481-5.28 1.442-4.612 2.96zM645.417 130.814c-1.13 1.25.03 2.63 3.736 4.271 3.705 1.642 9.955 3.546 16.77 4.23 6.816.685 14.197.15 19.673-1.19 5.476-1.34 9.047-3.482 10.714-5.565 1.666-2.083 1.428-4.107-1.548-5.357-2.975-1.25-8.69-1.727-16.04-1.578-7.352.149-16.34.923-22.546 1.87-6.205.947-9.628 2.068-10.759 3.319zM624.559 151.555c-.476.893.519 1.813 2.445 2.212 1.926.4 4.783.28 7.967.191 3.185-.089 6.697-.148 8.869-.982 2.172-.833 3.005-2.44 2.5-3.333-.506-.893-2.35-1.071-5.476-1.072-3.125 0-7.53.179-10.706.701-3.176.523-5.123 1.39-5.6 2.283zM744.729 98.5c-1.786.983-1.025 2.046 1.588 3.32 2.613 1.276 7.077 2.764 12.226 2.912 5.148.149 10.982-1.042 14.374-2.56 3.392-1.517 4.345-3.362 4.256-4.612-.089-1.25-1.22-1.905-5.059-2.113-3.84-.209-10.387.03-15.827.599-5.44.57-9.773 1.472-11.558 2.454zM807.425 97.25c.373.623 1.117 1.866 2.531 2.963 1.414 1.097 3.498 2.05 5.76 2.109 2.26.059 4.701-.775 6.427-1.816 1.726-1.042 2.738-2.292 2.828-3.452.09-1.16-.744-2.231-2.351-2.946-1.607-.715-3.988-1.072-6.712-.592-2.723.48-5.79 1.796-8.855 3.113l.372.622zM840.003 109.99c-.676.864.314 1.955 2.806 3.096 2.492 1.14 6.487 2.331 12.51 2.599 6.022.267 14.072-.387 18.589-1.786 4.516-1.399 5.5-3.541 5.408-4.732-.092-1.19-1.26-1.429-5.039-1.756-3.78-.328-10.17-.744-15.425-.685-5.255.06-9.372.595-12.602 1.18-3.23.586-5.571 1.22-6.247 2.084zM1024.563 126.252c-1.621.926-.295 2.551 5.42 4.226 5.713 1.675 15.814 3.4 25.243 3.8 9.428.4 18.182-.526 23.38-2.567 5.197-2.041 6.839-5.198 7.47-6.84.633-1.64.254-1.767-3.155-1.893-3.41-.127-9.85-.253-18.288.063-8.44.315-18.878 1.073-26.38 1.565-7.503.492-12.07.719-13.69 1.646z" fill="#c29d2c"/><path d="M1021.615 125.552c-3.362-2.14 5.283-4.28 16.21-5.886 10.927-1.605 24.135-2.675 34.342-1.605 10.206 1.07 17.41 4.28 14.168 6.956-3.242 2.675-16.93 4.815-31.46 4.815-14.528 0-29.898-2.14-33.26-4.28z" fill="#9c7a63"/><g><path d="M93.486 122.658c-2.058-1.463 3.234-2.925 9.923-4.022 6.688-1.097 14.773-1.828 21.02-1.097 6.248.732 10.657 2.925 8.673 4.754-1.985 1.828-10.363 3.29-19.257 3.29-8.893 0-18.3-1.462-20.359-2.925z" fill="#6f918a"/><path d="M47.171 106.405c-.922-1.463 1.45-2.926 4.449-4.023 2.999-1.097 6.623-1.828 9.425-1.097 2.8.732 4.778 2.926 3.888 4.754-.89 1.828-4.647 3.29-8.634 3.29s-8.205-1.462-9.128-2.924z" fill="#8a916f"/><path d="M90.107 77.006c-.923-1.462 1.45-2.925 4.449-4.022 2.998-1.097 6.623-1.828 9.424-1.097 2.801.732 4.778 2.926 3.888 4.754-.89 1.828-4.646 3.29-8.633 3.29-3.987 0-8.205-1.462-9.128-2.925z" fill="#a95656"/><path d="M358.045 88.118c-2.052-1.463 3.224-2.925 9.893-4.022 6.669-1.097 14.73-1.829 20.959-1.097 6.23.731 10.626 2.925 8.647 4.754-1.979 1.828-10.333 3.29-19.2 3.29-8.867 0-18.247-1.462-20.3-2.925z" fill="#6f917c"/><path d="M189.845 74.674c-3.363-2.14 5.283-4.28 16.21-5.886 10.927-1.605 24.135-2.675 34.341-1.605 10.207 1.07 17.411 4.281 14.169 6.956-3.243 2.675-16.93 4.815-31.46 4.815-14.529 0-29.898-2.14-33.26-4.28z" fill="#9b7a64"/><path d="M288.23 96.2c-1.532-1.463 2.409-2.926 7.39-4.023 4.98-1.097 11.001-1.828 15.654-1.097 4.652.732 7.936 2.926 6.458 4.754-1.478 1.828-7.717 3.29-14.34 3.29s-13.629-1.462-15.161-2.925z" fill="#8a916f"/><path d="M325.473 74.986c-.923-1.463 1.45-2.925 4.448-4.022 2.999-1.097 6.624-1.829 9.425-1.097 2.8.732 4.778 2.926 3.888 4.754-.89 1.828-4.646 3.29-8.634 3.29-3.987 0-8.204-1.462-9.127-2.925z" fill="#d38d5f"/><path d="M325.844 114.955c-1.253-1.005-.292-3.016 2.09-4.845 2.382-1.828 6.184-3.474 10.823-3.656 4.638-.183 10.112 1.097 13.539 2.376 3.426 1.28 4.805 2.56 4.074 3.291-.732.732-3.573.914-7.647 1.463-4.075.548-9.381 1.463-13.77 1.92-4.387.457-7.855.457-9.109-.549z" fill="#6f8a91"/><path d="M161.545 109.042c-2.824-2.299 4.437-4.597 13.614-6.321 9.177-1.724 20.27-2.873 28.843-1.724 8.572 1.15 14.623 4.597 11.9 7.47-2.724 2.873-14.22 5.171-26.423 5.172-12.202 0-25.11-2.299-27.934-4.597z" fill="#9e7961"/><path d="M142.015 80.581c-1.846-1.512 2.9-3.025 8.9-4.16 6-1.134 13.251-1.89 18.855-1.133 5.604.756 9.56 3.025 7.78 4.915-1.781 1.89-9.296 3.403-17.273 3.403s-16.416-1.512-18.262-3.025z" fill="#8aa2a8"/><path d="M236.154 100.107c-1.014-.823-.237-2.47 1.69-3.966 1.927-1.497 5.003-2.844 8.755-2.994 3.753-.15 8.18.898 10.953 1.946 2.772 1.048 3.887 2.096 3.296 2.694-.592.599-2.89.748-6.187 1.197-3.295.45-7.589 1.198-11.138 1.572-3.55.374-6.355.374-7.37-.449z" fill="#6f8a91"/><path d="M248.286 123.851c-2.403-1.462 3.776-2.925 11.586-4.022 7.81-1.097 17.251-1.828 24.547-1.097 7.295.732 12.444 2.926 10.127 4.754-2.318 1.828-12.102 3.29-22.487 3.29-10.384 0-21.37-1.462-23.773-2.925z" fill="#8a916f"/><path d="M260.601 76.777c-1.801-1.463 2.83-2.926 8.685-4.023 5.855-1.097 12.931-1.828 18.4-1.097 5.468.732 9.328 2.926 7.591 4.754-1.737 1.828-9.071 3.29-16.855 3.29-7.785 0-16.02-1.462-17.82-2.924z" fill="#91a1ba"/><path d="M623.087 151.528c-1.005-.588-.234-1.764 1.676-2.834 1.91-1.069 4.96-2.031 8.68-2.138 3.72-.107 8.11.641 10.857 1.39 2.748.749 3.854 1.497 3.268 1.925-.587.427-2.865.534-6.133.855-3.267.321-7.523.856-11.042 1.123s-6.3.267-7.306-.32z" fill="#9b7a64"/><path d="M556.883 145.311c-2.058-1.463 3.234-2.925 9.923-4.022 6.688-1.097 14.773-1.829 21.02-1.097 6.248.731 10.657 2.925 8.673 4.754-1.985 1.828-10.363 3.29-19.257 3.29-8.893 0-18.3-1.462-20.359-2.925z" fill="#6b8c94"/><path d="M605.523 125.017c-.923-1.463 1.45-2.925 4.448-4.022 3-1.097 6.624-1.829 9.425-1.097 2.801.731 4.778 2.925 3.888 4.753-.89 1.829-4.646 3.291-8.633 3.291-3.987 0-8.205-1.462-9.128-2.925z" fill="#6f8a91"/><path d="M571.687 98.65c-.923-1.463 1.45-2.926 4.448-4.023 3-1.097 6.624-1.828 9.425-1.097 2.801.732 4.778 2.926 3.888 4.754-.89 1.828-4.646 3.29-8.633 3.29-3.987 0-8.205-1.462-9.128-2.925z" fill="#86aca5"/><path d="M839.625 109.76c-2.052-1.462 3.224-2.925 9.893-4.021 6.669-1.097 14.73-1.829 20.959-1.097 6.229.731 10.626 2.925 8.647 4.753-1.979 1.828-10.333 3.291-19.2 3.291-8.867 0-18.247-1.462-20.3-2.925z" fill="#6a5140"/><path d="M807.053 96.629c-.923-1.463 1.45-2.925 4.448-4.022 2.999-1.097 6.623-1.829 9.425-1.097 2.8.731 4.778 2.925 3.888 4.753-.89 1.829-4.647 3.291-8.634 3.291s-8.205-1.462-9.127-2.925z" fill="#a87757"/><path d="M643.124 130.684c-2.824-2.298 4.437-4.597 13.615-6.32 9.177-1.724 20.27-2.873 28.842-1.724 8.573 1.15 14.623 4.597 11.9 7.47-2.723 2.873-14.22 5.171-26.422 5.171s-25.11-2.298-27.935-4.597z" fill="#6f7c91"/><path d="M636.727 100.204c-1.846-1.513 2.9-3.025 8.9-4.16 6-1.134 13.251-1.89 18.855-1.134 5.604.757 9.56 3.025 7.779 4.916-1.78 1.89-9.296 3.403-17.273 3.403s-16.415-1.513-18.261-3.025z" fill="#668f99"/><path d="M742.181 98.42c-1.802-1.463 2.83-2.926 8.685-4.023 5.855-1.097 12.931-1.828 18.4-1.097 5.468.732 9.328 2.926 7.591 4.754-1.737 1.828-9.071 3.29-16.856 3.29-7.784 0-16.019-1.462-17.82-2.925z" fill="#bd9797"/><path d="M1009.248 103.151c-.316 1.074.418 2.278 2.995 2.816 2.577.538 6.997.412 11.753.286 4.756-.127 9.849-.253 12.753-1.116 2.903-.862 3.619-2.462 3.262-3.577-.358-1.115-1.789-1.747-6.587-1.894-4.798-.148-12.964.189-17.73.829-4.765.64-6.131 1.582-6.446 2.656zM1007.826 63.53c.522 1.25 1.043 2.5 2.65 3.538 1.609 1.038 4.303 1.866 6.786 1.891 2.482.026 4.755-.75 6.312-1.682 1.557-.93 2.399-2.018 2.441-3.233.043-1.216-.715-2.561-3.198-2.95-2.483-.39-6.692.18-9.478.746-2.787.565-4.15 1.127-5.513 1.69M1043.426 76.252c-2.715.906-2.402 1.88.322 2.85 2.724.971 7.859 1.94 14.004 2.444 6.145.505 13.3.547 17.361-.505s5.03-3.198 4.504-4.65c-.525-1.453-2.546-2.21-6.46-2.547-3.915-.337-9.723-.253-15.499.207-5.775.46-11.517 1.296-14.232 2.201z" fill="#c29d2c"/><path d="M1040.398 76.183c-2.052-1.463 3.224-2.926 9.893-4.022 6.669-1.097 14.73-1.829 20.959-1.097 6.229.731 10.626 2.925 8.647 4.753-1.979 1.828-10.333 3.291-19.2 3.291-8.867 0-18.247-1.462-20.3-2.925z" fill="#918a6f"/><path d="M1007.826 63.05c-.923-1.462 1.45-2.924 4.448-4.021 2.999-1.097 6.623-1.829 9.425-1.097 2.8.731 4.778 2.925 3.888 4.753-.89 1.829-4.646 3.291-8.634 3.291-3.987 0-8.205-1.462-9.127-2.925z" fill="#d38d5f"/><path d="M1008.197 103.02c-1.254-1.005-.293-3.016 2.09-4.845 2.381-1.828 6.184-3.474 10.822-3.657 4.64-.182 10.113 1.097 13.54 2.377 3.426 1.28 4.805 2.56 4.074 3.291-.732.731-3.573.914-7.647 1.463-4.075.548-9.382 1.462-13.77 1.92-4.387.456-7.855.456-9.109-.549z" fill="#6f8a91"/><path d="M1101.248 146.151c-.316 1.074.418 2.278 2.995 2.816 2.577.538 6.997.412 11.753.286 4.756-.127 9.849-.253 12.752-1.116 2.904-.862 3.62-2.462 3.262-3.577-.357-1.115-1.788-1.747-6.586-1.894-4.798-.148-12.964.189-17.73.829-4.765.64-6.131 1.582-6.446 2.656zM1099.826 106.53c.522 1.25 1.043 2.5 2.65 3.538 1.609 1.038 4.303 1.866 6.785 1.891 2.483.026 4.756-.75 6.313-1.682 1.557-.93 2.399-2.018 2.441-3.233.043-1.216-.715-2.561-3.198-2.95-2.483-.39-6.692.18-9.478.746-2.787.565-4.15 1.127-5.513 1.69M1135.426 119.252c-2.715.906-2.402 1.88.322 2.85 2.724.971 7.859 1.94 14.004 2.444 6.145.505 13.3.547 17.361-.505s5.03-3.198 4.504-4.65c-.525-1.453-2.546-2.21-6.46-2.547-3.915-.337-9.723-.253-15.499.207-5.775.46-11.517 1.296-14.232 2.201z" fill="#c29d2c"/><path d="M1132.398 119.183c-2.052-1.463 3.224-2.926 9.893-4.022 6.669-1.097 14.73-1.829 20.959-1.097 6.229.731 10.626 2.925 8.647 4.753-1.979 1.828-10.333 3.291-19.2 3.291-8.867 0-18.247-1.462-20.3-2.925z" fill="#6f917c"/><path d="M1099.826 106.05c-.923-1.462 1.45-2.924 4.448-4.021 2.999-1.097 6.623-1.829 9.425-1.097 2.8.731 4.778 2.925 3.888 4.753-.89 1.829-4.646 3.291-8.634 3.291-3.987 0-8.205-1.462-9.127-2.925z" fill="#a95656"/><path d="M1100.197 146.02c-1.254-1.005-.292-3.016 2.09-4.845 2.381-1.828 6.184-3.474 10.822-3.657 4.64-.182 10.113 1.097 13.54 2.377 3.426 1.28 4.805 2.56 4.074 3.291-.732.731-3.573.914-7.647 1.463-4.075.548-9.382 1.462-13.77 1.92-4.387.456-7.855.456-9.109-.549z" fill="#9584ad"/><path d="M439.248 74.151c-.316 1.074.418 2.278 2.995 2.816 2.577.538 6.997.412 11.753.286 4.756-.127 9.849-.253 12.752-1.116 2.904-.862 3.62-2.462 3.263-3.577-.358-1.115-1.789-1.747-6.587-1.894-4.798-.148-12.964.189-17.73.829-4.765.64-6.131 1.582-6.446 2.656zM437.826 34.53c.522 1.25 1.043 2.5 2.65 3.538 1.609 1.038 4.303 1.866 6.785 1.891 2.483.026 4.756-.75 6.313-1.682 1.557-.93 2.399-2.018 2.441-3.233.043-1.216-.715-2.561-3.198-2.95-2.483-.39-6.692.18-9.478.746-2.787.565-4.15 1.127-5.513 1.69M473.426 47.252c-2.715.906-2.402 1.88.322 2.85 2.724.971 7.859 1.94 14.004 2.444 6.145.505 13.3.547 17.361-.505s5.03-3.198 4.504-4.65c-.526-1.453-2.546-2.21-6.46-2.547-3.915-.337-9.723-.253-15.499.207-5.775.46-11.517 1.296-14.232 2.201z" fill="#c29d2c"/><path d="M470.398 47.183c-2.052-1.463 3.224-2.926 9.893-4.022 6.669-1.097 14.73-1.829 20.959-1.097 6.23.731 10.626 2.925 8.647 4.753-1.979 1.828-10.333 3.291-19.2 3.291-8.867 0-18.247-1.462-20.3-2.925z" fill="#6f917c"/><path d="M437.826 34.05c-.923-1.462 1.45-2.924 4.448-4.021 2.999-1.097 6.624-1.829 9.425-1.097 2.8.731 4.778 2.925 3.888 4.753-.89 1.829-4.646 3.291-8.634 3.291-3.987 0-8.205-1.462-9.127-2.925z" fill="#d38d5f"/><path d="M438.197 74.02c-1.254-1.005-.292-3.016 2.09-4.845 2.381-1.828 6.184-3.474 10.823-3.657 4.638-.182 10.112 1.097 13.539 2.377 3.426 1.28 4.805 2.56 4.074 3.291-.732.731-3.573.914-7.647 1.463-4.075.548-9.382 1.462-13.77 1.92-4.387.456-7.855.456-9.109-.549z" fill="#6f8a91"/><path d="M894.248 164.151c-.316 1.074.418 2.278 2.995 2.816 2.577.538 6.997.412 11.753.286 4.756-.127 9.849-.253 12.752-1.116 2.904-.862 3.62-2.462 3.263-3.577-.358-1.115-1.789-1.747-6.587-1.894-4.798-.148-12.964.189-17.73.829-4.765.64-6.131 1.582-6.446 2.656zM892.826 124.53c.522 1.25 1.043 2.5 2.65 3.538 1.609 1.038 4.303 1.866 6.785 1.891 2.483.026 4.756-.75 6.313-1.682 1.557-.93 2.399-2.018 2.441-3.233.043-1.216-.715-2.561-3.198-2.95-2.483-.39-6.692.18-9.478.746-2.787.565-4.15 1.127-5.513 1.69M928.426 137.252c-2.715.906-2.402 1.88.322 2.85 2.724.971 7.859 1.94 14.004 2.444 6.145.505 13.3.547 17.361-.505s5.03-3.198 4.504-4.65c-.526-1.453-2.546-2.21-6.46-2.547-3.915-.337-9.723-.253-15.499.207-5.775.46-11.517 1.296-14.232 2.201z" fill="#c29d2c"/><path d="M925.398 137.183c-2.052-1.463 3.224-2.926 9.893-4.022 6.669-1.097 14.73-1.829 20.959-1.097 6.229.731 10.626 2.925 8.647 4.753-1.979 1.828-10.333 3.291-19.2 3.291-8.867 0-18.247-1.462-20.3-2.925z" fill="#5b7766"/><path d="M892.826 124.05c-.923-1.462 1.45-2.924 4.448-4.021 2.999-1.097 6.624-1.829 9.425-1.097 2.8.731 4.778 2.925 3.888 4.753-.89 1.829-4.646 3.291-8.634 3.291-3.987 0-8.205-1.462-9.127-2.925z" fill="#d38d5f"/><path d="M893.197 164.02c-1.254-1.005-.292-3.016 2.09-4.845 2.381-1.828 6.184-3.474 10.823-3.657 4.638-.182 10.112 1.097 13.539 2.377 3.426 1.28 4.805 2.56 4.074 3.291-.732.731-3.573.914-7.647 1.463-4.075.548-9.382 1.462-13.77 1.92-4.387.456-7.855.456-9.109-.549z" fill="#6f8a91"/><path d="M593.033 21.197c-1.785.982-1.024 2.045 1.589 3.32s7.077 2.763 12.226 2.912c5.148.148 10.981-1.042 14.374-2.56 3.392-1.518 4.345-3.363 4.256-4.613-.089-1.25-1.22-1.904-5.059-2.113-3.84-.209-10.387.03-15.827.6-5.44.57-9.773 1.47-11.559 2.454zM631.716 41.838c-.237 1.429.766 2.573 2.993 3.323 2.228.75 5.68 1.107 9.966.839s9.405-1.161 12.5-2.322c3.094-1.16 4.166-2.589 4.226-3.6.06-1.012-.893-1.607-3.958-2.143-3.066-.536-8.244-1.012-12.351-1.161-4.108-.15-7.143.03-9.401.975-2.258.946-3.737 2.66-3.975 4.089zM655.73 19.947c.373.622 1.117 1.865 2.531 2.962 1.414 1.097 3.498 2.05 5.76 2.109 2.26.059 4.701-.774 6.427-1.816 1.726-1.041 2.738-2.291 2.828-3.452.09-1.16-.744-2.231-2.351-2.946-1.607-.715-3.988-1.072-6.712-.592-2.723.48-5.79 1.796-8.856 3.113l.373.622zM688.308 32.686c-.676.864.314 1.955 2.806 3.096 2.492 1.14 6.487 2.331 12.51 2.599 6.022.268 14.072-.387 18.589-1.786 4.516-1.398 5.5-3.541 5.408-4.732-.092-1.19-1.26-1.428-5.039-1.756-3.78-.327-10.17-.744-15.425-.685-5.255.06-9.372.596-12.602 1.18-3.23.586-5.571 1.22-6.247 2.084z" fill="#c29d2c"/><path d="M687.93 32.457c-2.052-1.463 3.224-2.925 9.893-4.022 6.669-1.097 14.73-1.828 20.959-1.097 6.229.732 10.626 2.925 8.647 4.754-1.979 1.828-10.333 3.29-19.2 3.29-8.867 0-18.247-1.462-20.3-2.925z" fill="#9e7961"/><path d="M655.357 19.325c-.922-1.462 1.45-2.925 4.449-4.022 2.999-1.097 6.623-1.828 9.424-1.097 2.802.732 4.779 2.926 3.889 4.754-.89 1.828-4.647 3.29-8.634 3.29s-8.205-1.462-9.128-2.925z" fill="#917c6f"/><path d="M630.475 42.122c-1.254-1.006-.292-3.017 2.09-4.845 2.381-1.829 6.184-3.474 10.823-3.657 4.638-.183 10.112 1.097 13.539 2.377 3.426 1.28 4.805 2.56 4.074 3.29-.732.732-3.573.915-7.647 1.463-4.075.549-9.382 1.463-13.77 1.92-4.387.457-7.855.457-9.109-.548z" fill="#7fb3a9"/><path d="M590.486 21.116c-1.802-1.463 2.83-2.926 8.685-4.023 5.854-1.097 12.931-1.828 18.4-1.096 5.468.731 9.328 2.925 7.591 4.753-1.737 1.828-9.071 3.29-16.856 3.29-7.784.001-16.019-1.462-17.82-2.924z" fill="#9393ac"/><path d="M361.033 136.197c-1.785.982-1.024 2.045 1.589 3.32s7.077 2.763 12.226 2.912c5.148.148 10.981-1.042 14.374-2.56 3.392-1.518 4.345-3.363 4.256-4.613-.089-1.25-1.22-1.904-5.059-2.113-3.84-.209-10.387.03-15.827.6-5.44.57-9.773 1.47-11.559 2.454zM399.716 156.838c-.237 1.429.766 2.573 2.993 3.323 2.228.75 5.68 1.107 9.966.839s9.405-1.161 12.5-2.322c3.094-1.16 4.166-2.589 4.226-3.6.06-1.012-.893-1.607-3.958-2.143-3.066-.536-8.244-1.012-12.351-1.161-4.108-.15-7.143.03-9.401.975-2.258.946-3.737 2.66-3.974 4.089zM423.73 134.947c.373.622 1.117 1.865 2.531 2.962 1.414 1.097 3.497 2.05 5.76 2.109 2.26.059 4.701-.774 6.427-1.816 1.726-1.041 2.738-2.291 2.828-3.452.09-1.16-.744-2.231-2.351-2.946-1.607-.715-3.988-1.072-6.712-.592-2.723.48-5.79 1.796-8.856 3.113l.373.622zM456.308 147.686c-.676.864.314 1.955 2.806 3.096 2.492 1.14 6.487 2.331 12.51 2.599 6.022.268 14.072-.387 18.589-1.786 4.516-1.398 5.5-3.541 5.408-4.732-.092-1.19-1.26-1.428-5.039-1.756-3.78-.327-10.17-.744-15.425-.685-5.255.06-9.372.596-12.602 1.18-3.23.586-5.571 1.22-6.247 2.084z" fill="#c29d2c"/><path d="M455.93 147.457c-2.052-1.463 3.224-2.925 9.893-4.022 6.669-1.097 14.73-1.828 20.959-1.097 6.229.732 10.626 2.925 8.647 4.754-1.979 1.828-10.333 3.29-19.2 3.29-8.867 0-18.247-1.462-20.3-2.925z" fill="#a89181"/><path d="M423.357 134.325c-.922-1.462 1.45-2.925 4.449-4.022 2.999-1.097 6.623-1.828 9.424-1.097 2.802.732 4.779 2.926 3.889 4.754-.89 1.828-4.647 3.29-8.634 3.29s-8.205-1.462-9.128-2.925z" fill="#92875e"/><path d="M398.475 157.122c-1.254-1.006-.292-3.017 2.09-4.845 2.381-1.829 6.184-3.474 10.823-3.657 4.638-.183 10.112 1.097 13.539 2.377 3.426 1.28 4.805 2.56 4.074 3.29-.732.732-3.573.915-7.647 1.463-4.075.549-9.382 1.463-13.77 1.92-4.387.457-7.855.457-9.109-.548z" fill="#917c6f"/><path d="M358.486 136.116c-1.802-1.463 2.83-2.926 8.685-4.023 5.854-1.097 12.931-1.828 18.4-1.096 5.468.731 9.328 2.925 7.591 4.753-1.737 1.828-9.071 3.29-16.856 3.29-7.784.001-16.019-1.462-17.82-2.924z" fill="#87aba4"/><path d="M828.033 30.197c-1.785.982-1.024 2.045 1.589 3.32s7.077 2.763 12.226 2.912c5.148.148 10.981-1.042 14.374-2.56 3.392-1.518 4.345-3.363 4.256-4.613-.089-1.25-1.22-1.904-5.059-2.113-3.84-.209-10.387.03-15.827.6-5.44.57-9.773 1.47-11.559 2.454zM866.716 50.838c-.237 1.429.766 2.573 2.993 3.323 2.228.75 5.68 1.107 9.966.839s9.405-1.161 12.5-2.322c3.094-1.16 4.166-2.589 4.226-3.6.06-1.012-.893-1.607-3.958-2.143-3.066-.536-8.244-1.012-12.351-1.161-4.108-.15-7.143.03-9.401.975-2.258.946-3.737 2.66-3.975 4.089zM910.73 40.947c.373.622 1.117 1.865 2.531 2.962 1.414 1.097 3.498 2.05 5.76 2.109 2.26.059 4.701-.774 6.427-1.816 1.726-1.041 2.738-2.291 2.828-3.452.09-1.16-.744-2.231-2.351-2.946-1.607-.715-3.988-1.072-6.712-.592-2.723.48-5.79 1.796-8.856 3.113l.373.622z" fill="#c29d2c"/><path d="M910.357 40.325c-.922-1.462 1.45-2.925 4.449-4.022 2.999-1.097 6.623-1.828 9.424-1.097 2.802.732 4.779 2.926 3.889 4.754-.89 1.828-4.647 3.29-8.634 3.29s-8.205-1.462-9.128-2.925z" fill="#916f6f"/><path d="M865.475 51.122c-1.254-1.006-.292-3.017 2.09-4.845 2.381-1.829 6.184-3.474 10.823-3.657 4.638-.183 10.112 1.097 13.539 2.377 3.426 1.28 4.805 2.56 4.074 3.29-.732.732-3.573.915-7.647 1.463-4.075.549-9.382 1.463-13.77 1.92-4.387.457-7.855.457-9.109-.548z" fill="#9fa8b5"/><path d="M825.486 30.116c-1.802-1.463 2.83-2.926 8.685-4.023 5.854-1.097 12.931-1.828 18.4-1.096 5.468.731 9.328 2.925 7.591 4.753-1.737 1.828-9.071 3.29-16.856 3.29-7.784.001-16.019-1.462-17.82-2.924z" fill="#a95656"/><path d="M1175.414 60.788c.013.43.04 1.29.98 2.276.94.986 2.792 2.098 5.927 3.229 3.136 1.13 7.556 2.28 12.164 2.817 4.609.537 9.407.46 14.205-.115 4.798-.575 9.597-1.649 13.28-3.182 3.682-1.534 6.25-3.527 7.091-4.907.843-1.38-.042-2.146-3.661-2.683-3.62-.537-9.975-.844-16.941-.652-6.966.191-14.542.881-20.153 1.429-5.612.547-9.258.952-11.082 1.155-1.823.203-1.823.203-1.81.633zM1157.126 32.716c-.273.842.707 2.224 3.891 3.378 3.185 1.153 8.572 2.079 13.433 2.142 4.861.063 9.197-.737 12.037-2.041 2.84-1.305 4.188-3.115 4.44-4.272.254-1.157-.588-1.662-3.071-1.978-2.484-.316-6.608-.443-11.449-.19-4.84.252-10.396.884-13.938 1.35-3.542.467-5.07.769-5.343 1.611zM1103.963 29.128c-.758.995-.32 2.146.761 3.217 1.082 1.072 2.808 2.066 4.66 2.488 1.852.423 3.83.273 5.64-.075 1.81-.348 3.45-.894 4.587-1.987 1.136-1.094 1.767-2.734 1.031-4.126-.736-1.391-2.84-2.535-5.071-2.858-2.231-.324-4.588.173-6.743.84-2.155.668-4.107 1.507-4.865 2.501zM1118.297 49.04c-.526.922-.018 2.055 1.562 3.276 1.58 1.22 4.231 2.53 7.661 3.014 3.43.484 7.64.145 10.501-.583 2.862-.727 4.377-1.842 5.24-3.296.863-1.453 1.073-3.247.758-4.362-.315-1.115-1.157-1.552-3.598-1.94-2.441-.388-6.482-.727-9.828-.46-3.347.266-5.998 1.138-8.104 1.93-2.106.79-3.666 1.499-4.192 2.42z" fill="#c29d2c"/><path d="M1117.262 48.27c-1.42-1.836 2.231-3.671 6.846-5.047 4.614-1.377 10.192-2.294 14.502-1.376 4.31.917 7.353 3.67 5.984 5.964-1.37 2.293-7.15 4.128-13.286 4.128-6.135 0-12.626-1.835-14.046-3.67z" fill="#7b7ba9"/><path d="M1108.548 75.154c-.168.983.868 2.387 4.29 3.653 3.424 1.266 9.232 2.396 14.788 2.715 5.555.318 10.859-.172 14.225-1.277 3.367-1.105 4.798-2.823 5.22-4.222.42-1.398-.169-2.478-3.536-3.314-3.367-.835-9.512-1.424-15.32-1.326-5.809.098-11.28.884-14.703 1.556-3.423.673-4.796 1.233-4.964 2.215zM1204.896 81.327c-.568.969-.092 1.784 1.957 2.443 2.048.66 5.667 1.165 9.013 1.017 3.346-.147 6.419-.947 8.502-1.768 2.083-.82 3.178-1.662 3.62-2.272.442-.61.231-.988-1.242-1.347-1.472-.358-4.208-.695-7.428-.905-3.22-.21-6.924-.295-9.583.224-2.658.518-4.271 1.64-4.84 2.608z" fill="#c29d2c"/><path d="M1203.85 81.48c-1.005-.588-.234-1.764 1.676-2.834s4.96-2.032 8.68-2.139c3.72-.107 8.11.642 10.858 1.39 2.748.75 3.854 1.498 3.267 1.925-.586.428-2.865.535-6.133.856-3.267.32-7.523.855-11.042 1.123-3.518.267-6.3.267-7.305-.321z" fill="#6f8a91"/><path d="M1107.342 74.252c-2.058-1.462 3.234-2.925 9.923-4.022 6.688-1.097 14.773-1.828 21.02-1.097 6.247.732 10.657 2.926 8.673 4.754-1.985 1.828-10.363 3.29-19.257 3.29-8.893 0-18.3-1.462-20.359-2.925z" fill="#6f918a"/><path d="M1103.963 28.6c-.923-1.462 1.45-2.925 4.449-4.022 2.998-1.097 6.623-1.828 9.424-1.096 2.801.731 4.778 2.925 3.888 4.753-.89 1.828-4.646 3.291-8.633 3.291-3.987 0-8.205-1.463-9.128-2.925z" fill="#6f6f91"/><path d="M1175.4 60.636c-2.823-2.299 4.438-4.597 13.615-6.32 9.177-1.725 20.27-2.874 28.843-1.724 8.572 1.15 14.623 4.597 11.9 7.47-2.724 2.872-14.22 5.17-26.423 5.17-12.202.001-25.11-2.297-27.934-4.596z" fill="#84aea6"/><path d="M1155.871 32.175c-1.846-1.512 2.9-3.025 8.9-4.159s13.251-1.89 18.855-1.134c5.604.756 9.56 3.025 7.78 4.916-1.781 1.89-9.296 3.402-17.273 3.402s-16.416-1.512-18.262-3.025z" fill="#6f918a"/></g></svg>