<svg xmlns="http://www.w3.org/2000/svg" width="1280" height="200" viewBox="0 0 338.667 52.917"><path fill="#382f1f" d="M0 0h338.667v52.917H0z"/><ellipse cx="75.849" cy="22.529" rx="33.601" ry="7.127" fill="#413924"/><ellipse cx="61.729" cy="24.386" rx="26.825" ry="2.625" fill="#362a15"/><ellipse cx="92.827" cy="15.898" rx="25.926" ry="5.828" fill="#413924"/><ellipse cx="109.712" cy="27.642" rx="17.119" ry="4.221" fill="#413924"/><ellipse cx="75.641" cy="29.907" rx="9.449" ry="2.165" fill="#413924"/><ellipse cx="54.299" cy="28.543" rx="8.218" ry="1.95" fill="#413924"/><ellipse cx="98.592" cy="33.39" rx="6.552" ry="1.844" fill="#413924"/><ellipse cx="113.98" cy="33.098" rx="4.863" ry=".721" fill="#413924"/><ellipse cx="92.175" cy="40.088" rx="7.282" ry="1.231" fill="#413924"/><ellipse cx="158.679" cy="15.911" rx="15.059" ry="1.752" fill="#413924"/><ellipse cx="215.852" cy="34.846" rx="22.79" ry="3.557" fill="#413924"/><ellipse cx="250.522" cy="29.629" rx="37.896" ry="5.488" fill="#362a15"/><ellipse cx="234.104" cy="32.38" rx="11.283" ry="1.639" fill="#413924"/><ellipse cx="211.4" cy="27.436" rx="12.292" ry="1.056" fill="#413924"/><ellipse cx="197.509" cy="28.611" rx="7.263" ry="1.163" fill="#413924"/><ellipse cx="189.978" cy="42.339" rx="10.236" ry="1.486" fill="#413924"/><ellipse cx="266.951" cy="22.854" rx="47.752" ry="4.396" fill="#362a15"/><ellipse cx="237.794" cy="18.597" rx="18.433" ry="2.492" fill="#362a15"/><ellipse cx="216.564" cy="43.774" rx="12.145" ry="1.832" fill="#362a15"/><ellipse cx="59.355" cy="10.382" rx="38.376" ry="5.663" fill="#362a15"/><ellipse cx="60.579" cy="15.751" rx="24.815" ry="2.964" fill="#362a15"/><ellipse cx="82.269" cy="21.456" rx="14.353" ry="1.8" fill="#362a15"/><ellipse cx="23.507" cy="24.472" rx="7.755" ry="1.695" fill="#362a15"/><ellipse cx="39.639" cy="35.336" rx="8.386" ry="1.626" fill="#362a15"/><ellipse cx="129.345" cy="10.943" rx="5.43" ry=".818" fill="#362a15"/><ellipse cx="140.348" cy="7.612" rx="6.14" ry=".996" fill="#362a15"/><ellipse cx="131.633" cy="4.913" rx="4.14" ry="1.142" fill="#362a15"/><ellipse cx="134.6" cy="9.754" rx="4.595" ry="1.325" fill="#362a15"/><ellipse cx="136.56" cy="19.115" rx="3.995" ry=".543" fill="#362a15"/><ellipse cx="117.945" cy="43.954" rx="5.717" ry=".841" fill="#362a15"/><ellipse cx="147.15" cy="48.608" rx="5.256" ry="1.497" fill="#362a15"/><path d="M182.424 37.654s1.017-1.474 1.989-1.75c.972-.276 3.452.397 3.807.926.354.53-5.796.824-5.796.824zM187.088 39.278s.459-.601 1.277-.685c.818-.084 1.438.624 1.438.624z" fill="#434039"/><path d="M185.98 36.007s.383-1.106 1.479-1.106 3.145 1.138 3.145 1.138zM259.613 44.724s.242-.62 1.549-.787c1.307-.165 3.069.735 3.069.735zM262.045 47.281s.688-.63 2.011-.887c1.324-.258 4.135 1.003 4.135 1.003zM278.767 37.93s.616-.842 1.79-.842c1.175 0 1.989.651 1.989.651zM89.186 14.719s2.156-3.117 4-3.117c1.843 0 4.134 2.309 4.134 2.309l-3.69.422 1.803.782-5.04.862.972-1.11zM77.904 12.215s-.378-.845.709-1.044c1.087-.2 2.292 1.022 2.292 1.022z" fill="#434039"/></svg>