<svg xmlns="http://www.w3.org/2000/svg" width="600" height="200"><path d="M-1-1h602v202H-1z" fill="#be9049"/><path d="M185.294 27.941s0-6.372 4.902-9.314c4.902-2.94 11.765-8.333 11.765-8.333s-25.49 11.765-38.726 16.667C150 31.863 100 35.784 100 35.784s24.02 2.451 18.627 6.863C113.235 47.06 98.04 55.882 98.04 55.882s93.137 1.47 99.51 4.412c6.373 2.941 4.412 4.902-5.392 11.765s-21.569 12.745-19.608 13.235c1.96.49 96.569-16.667 96.569-16.667l-8.334-22.549-71.568-1.47z" fill="#bd8a3b"/><path d="M228.496 8.443s15.831 13.72-2.638 21.636c-18.47 7.916-67.019 23.22-50.66 26.913 16.359 3.694 76.517-10.026 78.1-1.055 1.583 8.97-103.43 33.773-103.43 33.773l223.747-20.58S266.49 58.574 270.185 49.076c3.694-9.5 16.886-16.887 3.694-16.887-13.193 0-59.631 10.026-56.465 7.916 3.166-2.111 80.739-16.36 95.515-23.22 14.775-6.86-84.433-8.443-84.433-8.443z" fill="#bb842e"/><path d="M135.62 44.327s46.823-2.772 50.613-19.365c.846-3.704 3.68 6.484 7.435 6.7 27.44 1.583 44.854 11.082 31.134 11.082-13.72 0-45.91 2.11-34.3 3.166 11.609 1.056 10.026 5.805 34.3 6.333 24.275.527 52.243.527 28.496 4.75-23.747 4.22-173.615 0-173.615 0l79.156-9.5-19.525-2.11z" fill="#ad7a2b"/><path d="M338.259 137.73s-4.75 7.916-14.248 15.304c-9.5 7.388-29.024 16.887-29.024 16.887l-39.05 8.97s41.16-5.804 51.715-8.442c10.554-2.639 37.467-15.832 42.744-18.998 5.277-3.166 28.496-18.47 28.496-18.47z" fill="#bb842e"/><path d="M337.203 139.842s-1.055-2.639 1.056-4.75c2.11-2.11 2.11-2.638 10.026-.527 7.916 2.11 16.359-2.639 16.359-2.639l4.75 3.694-21.109 3.694-3.694-2.639-1.583 3.167z" fill="#ad7a2b"/><path d="M30.607 159.367l6.332.527 2.111 3.167s-14.776 4.749-17.414 4.749c-2.639 0-3.166-3.166-3.166-3.166zm-7.916 16.886s7.388-8.443 11.61-8.97c4.221-.528 22.163 8.97 22.163 8.97s-13.72 11.61-17.414 7.388c-3.694-4.221-16.359-7.388-16.359-7.388z" fill="#bb842e"/><path d="M46.966 160.95l7.388-4.75 8.97 2.64-13.192 5.804 11.082.528-6.333 4.221h-18.47zm45.91 10.026s13.193-4.221 16.887-2.638c3.693 1.583 4.221 3.166 4.221 3.166s-11.61 7.388-14.776 5.277c-3.166-2.11-6.332-5.805-6.332-5.805zM215.303 89.71s1.056-6.333 7.916-7.916c6.86-1.583 17.414 2.111 17.414 2.111s-7.915 6.332-10.026 6.332c-2.111 0-15.304-.527-15.304-.527zm-16.358 5.277s1.055-3.166 5.804-3.166c4.75 0 8.971 5.277 8.971 5.277zM514.225 13.739s4.636 4.61 13.908 8.914c9.271 4.304 28.33 9.837 28.33 9.837l38.115 5.225s-40.176-3.381-50.478-4.918c-10.302-1.537-36.57-9.222-41.721-11.066-5.151-1.844-27.815-10.759-27.815-10.759zM383.333 193.137s2.942-14.706 12.745-18.627c9.804-3.922 29.412 7.843 39.216 7.843 9.804 0 10.784-5.882 21.569-3.922 10.784 1.961 39.215 15.687 39.215 15.687z" fill="#bb842e"/><path d="M472.059 183.333s2.45-4.902 9.314-5.392c6.862-.49 18.627 4.412 18.627 4.412s-23.04 9.804-25.98 6.863c-2.942-2.941-1.961-5.883-1.961-5.883zm-29.412-11.274s1.47-5.392 7.353-5.883c5.882-.49 13.725 6.863 13.725 6.863zm24.51-.981c3.431-3.43 5.882-4.902 8.823-2.45 2.942 2.45 3.432 3.43 3.432 3.43z" fill="#bb842e"/><path d="M454.412 170.588s1.96-7.843 7.353-6.863c5.392.98 6.862 4.412 2.45 4.412-4.411 0-9.803 2.451-9.803 2.451zm53.921-28.431s.49-5.882 5.883-7.353c5.392-1.47 23.53 6.372 23.53 6.372s-15.197 2.942-21.08 2.451c-5.882-.49-8.333-1.47-8.333-1.47z" fill="#bb842e"/><path d="M539.706 27.451s-6.373-3.922-11.275-8.333c-4.902-4.412-7.353-10.785-11.764-10.294-4.412.49-13.236 2.45-18.628 2.94-5.392.49-15.686-.49-15.686-.49l30.882 3.922S525 23.04 529.902 24.51l9.804 2.941z" fill="#ad7a2b"/><path d="M34.804 15.686c4.412-2.94 23.53-8.333 32.843-5.392 9.314 2.941 39.706 10.294 40.196 13.726.49 3.431-24.02 9.804-29.412 10.294-5.392.49-17.647-7.353-24.02-6.373-6.372.98 33.334 11.765 21.57 15.196-11.765 3.432-44.118-.49-44.118-.49s4.412-1.47 2.94-9.314C33.334 25.49 20.589 25 26.962 21.078c6.372-3.921 7.843-5.392 7.843-5.392z" fill="#bb842e"/><path d="M83.333 16.667c4.412-3.922 8.824-8.334 15.687-6.863 6.862 1.47 18.137 3.921 20.098 5.882 1.96 1.961-25.49 5.883-29.412 4.902-3.922-.98-6.373-3.921-6.373-3.921zM11.765 39.216s-2.941-2.941 5.392-2.941 14.216-.49 19.608 2.94c5.392 3.432-2.451 4.903-10.294 5.393-7.844.49-14.706-5.392-14.706-5.392zm1.47-27.451c4.902-3.432 10.294-5.392 15.196-3.432 4.902 1.961 2.451 3.432-2.94 3.922-5.393.49-12.256-.49-12.256-.49z" fill="#bb842e"/></svg>