<svg xmlns="http://www.w3.org/2000/svg" width="1743.935" height="2371.613"><defs><linearGradient id="b"><stop offset="0" stop-color="#bfbdcc"/><stop offset="1" stop-color="#bfbdcc" stop-opacity="0"/></linearGradient><linearGradient id="a"><stop offset="0" stop-color="#f1f0f4"/><stop offset="1" stop-color="#f1f0f4" stop-opacity="0"/></linearGradient></defs><path fill="#2b1100" d="M0 1171.611h100v100H0z"/><path fill="#502d16" d="M100 1171.611h100v100H100z"/><path fill="#803300" d="M100 1071.611h100v100H100z"/><path fill="#520" d="M0 1071.611h100v100H0z"/><path fill="#784421" d="M200 1171.611h100v100H200z"/><path fill="#d38d5f" d="M500 1171.611h100v100H500z"/><path fill="#ca773f" d="M400 1171.611h100v100H400z"/><text style="line-height:1.25" x="-.199" y="1051.16" font-size="40" font-family="sans-serif" word-spacing="0"><tspan x="-.199" y="1051.16">Древесина</tspan></text><path fill="#165016" d="M1002 171.612h100v100h-100z"/><path fill="green" d="M1102 171.612h100v100h-100z"/><path fill="#5aa02c" d="M1202.001 171.611h100v100h-100z"/><path fill="#cf0" d="M1402.001 171.611h100v100h-100z"/><path fill="#aad400" d="M1302.001 171.611h100v100h-100z"/><text style="line-height:1.25" x="1001.138" y="29.16" font-size="40" font-family="sans-serif" word-spacing="0"><tspan x="1001.138" y="29.16">Растительность</tspan></text><text style="line-height:1.25" x="1000.529" y="151.729" font-size="40" font-family="sans-serif" word-spacing="0"><tspan x="1000.529" y="151.729">Весна</tspan></text><path fill="#445016" d="M1202.191 1371.612h100v100h-100z"/><path fill="maroon" d="M.001 771.612h100v100h-100z"/><path fill="#d40000" d="M100.001 771.612h100v100h-100z"/><path fill="red" d="M200.001 771.612h100v100h-100z"/><path fill="#ff8080" d="M400.001 771.612h100v100h-100z"/><path fill="#f55" d="M300.001 771.612h100v100h-100z"/><text style="line-height:1.25" x="-.199" y="53.16" font-size="40" font-family="sans-serif" word-spacing="0"><tspan x="-.199" y="53.16">Прочее</tspan></text><path fill="#1f180b" d="M0 71.612h100v100H0z"/><path fill="#6c6753" d="M100 71.612h100v100H100z"/><path fill="#aca793" d="M200 71.612h100v100H200z"/><path fill="#dee3db" d="M300 71.612h100v100H300z"/><text style="line-height:1.25" x="1002.209" y="651.892" font-size="40" font-family="sans-serif" word-spacing="0"><tspan x="1002.209" y="651.892">Осень</tspan></text><path fill="#0a150a" d="M1002.192 1471.612h100v100h-100z"/><path fill="#102310" d="M1102.191 1471.612h100v100h-100z"/><path fill="#2f4620" d="M1202.191 1471.612h100v100h-100z"/><path fill="#44662f" d="M1102.191 1671.613h100v100h-100z"/><path fill="#60f" d="M.001 371.612h100v100h-100z"/><path fill="#2a2aff" d="M100 371.612h100v100H100z"/><path fill="#55f" d="M300 371.612h100v100H300z"/><path fill="#95f" d="M400 371.612h100v100H400z"/><path fill="#5f5fd3" d="M200 371.612h100v100H200z"/><path fill="#afafe9" d="M500 371.612h100v100H500z"/><path fill="#aa551d" d="M1102 671.612h100v100h-100z"/><path fill="#da6d25" d="M1202 671.612h100v100h-100z"/><path fill="#ffb380" d="M1402 671.612h100v100h-100z"/><path fill="#f95" d="M1302 671.612h100v100h-100z"/><path fill="#4e6826" d="M1202.191 1671.613h100v100h-100z"/><path fill="#658831" d="M1302.191 1671.613h100v100h-100z"/><path fill="#79a33b" d="M1402.191 1671.613h100v100h-100z"/><path fill="#3b400c" d="M1102.192 1371.612h100v100h-100z"/><path fill="#553f1f" d="M1002.384 871.612h100v100h-100z"/><path fill="#81722e" d="M1102.192 871.612h100v100h-100z"/><path fill="#afa82f" d="M1402.384 871.612h100v100h-100z"/><path fill="#782121" d="M1002.192 2171.613h100v100h-100z"/><path fill="#a02c2c" d="M1102.191 2171.613h100v100h-100z"/><path fill="#916f6f" d="M1202.383 2171.613h100v100h-100z"/><path fill="#677821" d="M1402.191 1371.612h100v100h-100z"/><path fill="#89a02c" d="M1002 371.612h100v100h-100z"/><path fill="#cdde87" d="M1302 371.612h100v100h-100z"/><path fill="#abc837" d="M1202 371.612h100v100h-100z"/><path fill="#626c12" d="M1302.191 1371.612h100v100h-100z"/><path fill="#222b00" d="M1002.192 1371.612h100v100h-100z"/><path fill="#24221c" d="M0 271.612h100v100H0z"/><path fill="#483745" d="M100 271.612h100v100H100z"/><path fill="#67536c" d="M200 271.612h100v100H200z"/><path fill="#c83771" d="M100.001 571.612h100v100h-100z"/><path fill="#782144" d="M.001 571.612h100v100h-100z"/><path fill="#c837ab" d="M.001 471.612h100v100h-100z"/><path fill="#d462bd" d="M100.001 471.612h100v100h-100z"/><path fill="#f59" d="M200 571.612h100v100H200z"/><path fill="#e580ff" d="M200 471.612h100v100H200z"/><path fill="#8a6f91" d="M300 271.612h100v100H300z"/><path fill="#a793ac" d="M400 271.612h100v100H400z"/><path fill="#c4b7c8" d="M500 271.612h100v100H500z"/><path fill="#a80" d="M1002.192 971.612h100v100h-100z"/><path fill="#d4aa00" d="M1202.192 971.612h100v100h-100z"/><path fill="#ffe680" d="M1602.384 971.612h100v100h-100z"/><path fill="#fc0" d="M1502.384 971.612h100v100h-100z"/><path fill="#b49414" d="M1102.192 971.612h100v100h-100z"/><path fill="#d9b318" d="M1302.384 971.612h100v100h-100z"/><path fill="#a05a2c" d="M300 1171.611h100v100H300z"/><path fill="#fea" d="M300 1071.611h100v100H300z"/><path fill="#e9c6af" d="M600 1171.611h100v100H600z"/><path fill="#ffb380" d="M200 1071.612h100v100H200z"/><path fill="#484537" d="M300 1371.611h100v100H300z"/><path fill="#38641c" d="M1002 271.612h100v100h-100z"/><path fill="#8a0" d="M1102 371.612h100v100h-100z"/><path fill="#bfbdcc" d="M1002.192 2271.613h100v100h-100z"/><path fill="#f1f0f4" d="M1102.383 2271.613h100v100h-100z"/><path fill="#625d4c" d="M400 1371.611h100v100H400z"/><path fill="#526d36" d="M1102 271.612h100v100h-100z"/><path fill="#739334" d="M1202 271.612h100v100h-100z"/><path fill="#acc837" d="M1302 271.612h100v100h-100z"/><path fill="#526043" d="M1302.191 1471.612h100v100h-100z"/><path fill="#9cb43a" d="M1502.191 1371.612h100v100h-100z"/><path fill="#906a28" d="M1202 771.612h100v100h-100z"/><path fill="#b08232" d="M1302 771.612h100v100h-100z"/><path fill="#da9b2f" d="M1402 771.612h100v100h-100z"/><path fill="#e2b87d" d="M300 1271.611h100v100H300z"/><path fill="#261f17" d="M0 1271.611h100v100H0z"/><path fill="#513e2d" d="M100 1271.611h100v100H100z"/><path fill="#996f46" d="M200 1271.611h100v100H200z"/><path fill="#e9ddaf" d="M400 1271.611h100v100H400z"/><path fill="#34511f" d="M1002.191 1671.613h100v100h-100z"/><path fill="#507c2e" d="M1002.191 1771.613h100v100h-100z"/><path fill="#6faf3f" d="M1102.191 1771.613h100v100h-100z"/><path fill="#9b4005" d="M1002 671.612h100v100h-100z"/><path fill="#6d5028" d="M1102 771.612h100v100h-100z"/><path fill="#3d2917" d="M1002 771.612h100v100h-100z"/><path fill="#a0892c" d="M1202.192 871.612h100v100h-100z"/><path fill="#1c2224" d="M0 171.612h100v100H0z"/><path fill="#374548" d="M100 171.612h100v100H100z"/><path fill="#53676c" d="M200 171.612h100v100H200z"/><path fill="#93a7ac" d="M400 171.612h100v100H400z"/><path fill="#6f8a91" d="M300 171.612h100v100H300z"/><path fill="#b7c4c8" d="M500 171.612h100v100H500z"/><path fill="#750606" d="M.001 671.612h100v100h-100z"/><path fill="#a81515" d="M100.001 671.612h100v100h-100z"/><path fill="#d51616" d="M200.001 671.612h100v100h-100z"/><path fill="#e54242" d="M300.001 671.612h100v100h-100z"/><path fill="#a0892c" d="M1002.192 1071.612h100v100h-100z"/><path fill="#d3bc5f" d="M1202.192 1071.612h100v100h-100z"/><path fill="#c8ab37" d="M1102.192 1071.612h100v100h-100z"/><path fill="#decd87" d="M1302.384 1071.612h100v100h-100z"/><path fill="#426a67" d="M1502.191 1571.613h100v100h-100z"/><path fill="#265151" d="M1402.191 1571.612h100v100h-100z"/><path fill="#1c241c" d="M1002.192 1571.612h100v100h-100z"/><text style="line-height:1.25" x="1620.361" y="1633.422" font-weight="400" font-size="40" font-family="sans-serif"><tspan x="1620.361" y="1633.422">(хвоя)</tspan></text><text style="line-height:1.25" x="425.791" y="729.955" font-weight="400" font-size="40" font-family="sans-serif"><tspan x="425.791" y="729.955">(японский клён)</tspan></text><text style="line-height:1.25" x="644.892" y="229.316" font-weight="400" font-size="40" font-family="sans-serif"><tspan x="644.892" y="229.316">(скалы)</tspan></text><text style="line-height:1.25" x="1240.95" y="2344.21" font-weight="400" font-size="40" font-family="sans-serif"><tspan x="1240.95" y="2344.21">(снег)</tspan></text><text style="line-height:1.25" x="1000.529" y="1351.729" font-size="40" font-family="sans-serif" word-spacing="0"><tspan x="1000.529" y="1351.729">Лето</tspan></text><text style="line-height:1.25" x="1002.209" y="2151.892" font-size="40" font-family="sans-serif" word-spacing="0"><tspan x="1002.209" y="2151.892">Зима</tspan></text><path fill="#1c241c" d="M0 1371.611h100v100H0z"/><path fill="#50624a" d="M1302.191 1571.612h100v100h-100z"/><path fill="#374837" d="M1202.192 1571.612h100v100h-100z"/><path fill="#293629" d="M1102.192 1571.612h100v100h-100z"/><path fill="#483737" d="M200 1371.611h100v100H200z"/><path fill="#352b2b" d="M100 1371.611h100v100H100z"/><path fill="#7c916f" d="M1102.191 1871.613h100v100h-100z"/><path fill="#9cb079" d="M1202.191 1871.613h100v100h-100z"/><path fill="#5a6c56" d="M1002.191 1871.613h100v100h-100z"/><path fill="#ab9e0e" d="M1302 871.612h100v100h-100z"/><path fill="#e3d746" d="M1502.384 871.612h100v100h-100z"/><path fill="#f3c814" d="M1402.384 971.612h100v100h-100z"/></svg>