<svg xmlns="http://www.w3.org/2000/svg" width="220" height="140" viewBox="0 0 59 37" version="1.1" id="svg9057"><style id="style10528"/><g id="layer1"><path id="path1383" d="M22.591 15.435c-7.343 1.917-7.484 7.062-8.7 11.225-1.216 4.163-2.572 6.782-4.396 7.343-1.824.562-1.45.807-1.053.983.398.175.784.257.784.257l-.561.093s.304.187 1.052.082 2.397.035 4.642-4.548c1.548-3.16 2.573-7.905 3.227-9.261.655-1.357 5.005-6.174 5.005-6.174z" fill="#73808c" fill-opacity="1" stroke="none" stroke-width=".265" stroke-linecap="butt" stroke-linejoin="miter" stroke-opacity="1"/><path d="M26.666 16.78c.873.822 1.848 1.951 1.283 4.414-.564 2.464-5.286 11.24-5.286 11.24l.924 2.463s.154-.051 1.129-.051c.554.352.623.638.667 1.437l-2.977.051s-2.617-4.208-2.668-4.618c-.052-.411.616-2.618.616-4.055 0-1.437-1.797-5.953-1.848-6.877 1.278-3.858 5.539-5.332 8.16-4.003z" id="leftLowPaw2-stand" fill="#5c6670" fill-opacity="1" stroke="none" stroke-width=".07" stroke-linecap="butt" stroke-linejoin="miter" stroke-opacity="1"/><path id="leftLowPaw1-stand" d="M41.896 13.823c1.528 1.51 2.002 6.726 1.896 7.861-.149 1.591-2.056 4.367-2.134 4.6-.079.232.143 8.231.143 8.231s.315-.236 1.226.214c.268.385.378.858.31 1.322-.019.127-2.626.128-2.807.077-.18-.05-.746-2.06-1.62-5.343-.875-3.281-1.492-6.055-1.492-6.309 0-.255 1.698-3.689 1.646-4.452-1.211-4.033.142-7.107 2.832-6.2z" fill="#5c6670" fill-opacity="1" stroke="none" stroke-width=".069" stroke-linecap="butt" stroke-linejoin="miter" stroke-opacity="1"/><path id="leftEar-stand" d="M46.674 3.753c.096-.104.27-.255.225-.075-.045.18-.66 1.468-.719 1.813-.024.132.029.213-.076.393-.833-.185-1.036-.209-1.036-.209.186-.802 1.112-1.444 1.606-1.922z" fill="#5c6670" fill-opacity="1" stroke="none" stroke-width=".06" stroke-linecap="butt" stroke-linejoin="miter" stroke-opacity="1"/><path d="M17.043 23.997c.18-6.497 2.525-8.329 6.104-8.712 3.58-.384 9.672.128 11.291-.128 1.62-.256 4.133-1.491 4.56-2.173.425-.682.98-3.583 1.342-4.638.362-1.054 1.477-2.47 2.923-2.741 1.446-.271 3.314.21 3.947.783.791.573.516.598.82 1.371.09.075.99.48 1.113.708.123.23-.05.587-.088.67-.038.083-.889 1.544-1.16 1.77-.27.226-1.68.25-1.878.378-.197.128-.692.527-.724 1.433-.032.905.096 6.06-.884 8.234-.98 2.173-4.25 4.507-5.635 4.93-1.386.421-4.76-.302-6.749-.182-1.988.121-8.978.904-11.087.603-2.11-.301-3.805-1.794-3.895-2.306z" id="lightBody1" fill="#73808c" fill-opacity="1" stroke="none" stroke-width=".265" stroke-linecap="butt" stroke-linejoin="miter" stroke-opacity="1"/><path d="M28 16.78c1.575 3.732-1.692 8.195-4.157 10.88-1.077 1.13-6.774 4.979-6.774 4.979l-.308 2.566s.41-.103.975.103c.565.205.667 1.283.667 1.283s-2.822.36-3.079 0c-.257-.36-.77-5.646-.77-5.954 0-.307 1.078-.975 1.54-1.642.462-.667 1.18-1.899.975-4.31-.205-2.413-.462-3.696.308-4.979 2.313-3.467 7.996-4.9 10.623-2.925z" id="lightHindFrontPaw" fill="#73808c" fill-opacity="1" stroke="none" stroke-width=".07" stroke-linecap="butt" stroke-linejoin="miter" stroke-opacity="1"/><path d="M94.052 13.657c1.528 1.51 2.003 6.726 1.896 7.861-.149 1.591-2.056 4.367-2.134 4.6-.079.232.144 8.231.144 8.231s.314-.237 1.225.214c.268.385.378.858.31 1.322-.019.126-2.626.128-2.806.077-.18-.051-.746-2.061-1.62-5.343-.876-3.282-1.493-6.055-1.493-6.31 0-.254 1.698-3.688 1.646-4.452-1.211-4.032.142-7.106 2.832-6.2z" id="path1490" fill="#5c6670" fill-opacity="1" stroke="none" stroke-width=".069" stroke-linecap="butt" stroke-linejoin="miter" stroke-opacity="1"/><path d="M82.932 24.408s5.887.694 7.673 2.877c1.786 2.183 1.679 3.612.885 4.505-.794.893-4.532 2.508-4.532 2.508s2.96-.114 3.257.051c.298.165 1.02 1.138.986 1.436-.033.297-10.022.397-10.32.264-.297-.132-.396-.992-.066-1.686.331-.695 1.257-1.952 1.39-2.382.132-.43-.827-4.431-.662-5.357.165-.926 1.389-2.216 1.389-2.216z" id="path1494" fill="#5c6670" fill-opacity="1" stroke="none" stroke-width=".265" stroke-linecap="butt" stroke-linejoin="miter" stroke-opacity="1"/><path d="M133.85 31.964c-.6 1.957-.32 2.477.12 2.916.44.44 1.958 1.239 3.875 1.438 1.918.2 19.45-.114 20.69-.234.117-.011.298.193.552.238.64.113 2.076.082 2.761-.06 1.35-.28 1.841-.43 2.542-.803.137-.073.038.03-.156-.165-.102-.102.302-.01.47.038.132.195.371-1.652.382-1.877 0-1.318-.233-3.529-.992-4.768-.759-1.238-1.118-1.558-2.317-2.117-1.199-.56-2.477-.8-2.477-.8s-2.757-1.837-7.551-2.476c-6.123-.13-15.53 1.997-17.899 8.67z" id="body-lie" fill="#73808c" fill-opacity="1" stroke="none" stroke-width=".07" stroke-linecap="butt" stroke-linejoin="miter" stroke-opacity="1"/><path d="M150.35 25.797c-.298.066.496.364 1.256 1.091.76.728 1.852 2.547 2.25 4.2.396 1.654-.63 2.911-.63 2.911s-1.752-.165-3.869 0c-2.116.165-6.284.827-6.416.893l10.749.505-1.79.72c3.617.025 6.164.015 6.64-.03a.187.187 0 01.096.023c-.221-.205-.465-.464-.56-.685-.195-.447-.724-1.363-.724-1.363l-.007.005-.017-.068s-.629.364-1.191.33c-.562-.033-1.753-.562-1.918-1.157-.166-.595.066-5.358.43-6.152.364-.793 1.389-1.256.76-1.157-.628.1-1.819 1.422-2.414 1.323-.595-.1-2.348-1.455-2.646-1.39zm-7.749 8.716l-1.98.225c.06.285.104.488.12.534.038.118.46.499 1.045.985a837.3 837.3 0 011.559-.049z" id="shadow-lie" fill="#5c6670" fill-opacity="1" stroke="none" stroke-width=".07" stroke-linecap="butt" stroke-linejoin="miter" stroke-opacity="1"/><path d="M38.486 13.574s1.712-.268 3.239 1.26c1.528 1.527 2.076 5.913 1.88 7.05-.196 1.135-2.741 4.464-2.82 4.7-.078.234.144 8.324.144 8.324s.314-.24 1.226.215c.368.542.346 1.075.309 1.338-.018.127-2.626.129-2.806.077-.18-.051-.746-2.084-1.62-5.403-.875-3.318-1.493-6.123-1.493-6.38 0-.257 1.464-2.468 1.413-3.24-.88-2.662-4.851-4.749-3.52-5.8 2.717-2.143 3.444-2.065 4.048-2.141z" id="rightHightPaw1-stand" fill="#73808c" fill-opacity="1" stroke="none" stroke-width=".07" stroke-linecap="butt" stroke-linejoin="miter" stroke-opacity="1"/><path d="M76.1 29.378c-.168 2.295.13 3.453-1.256 4.129-1.386.676-12.736 1.312-13.343 1.516-.608.203-1.297 1.444-1.297 1.444l.721-.364-.73.747 19.775-.418s-.64-2.754-1.374-4.033c-.734-1.278-2.495-3.02-2.495-3.02z" id="tail-sit" fill="#73808c" fill-opacity="1" stroke="none" stroke-width=".059" stroke-linecap="butt" stroke-linejoin="miter" stroke-opacity="1"/><path d="M98.295 4.366c.096-.104.27-.255.225-.075-.045.18-.66 1.468-.72 1.812-.023.133.03.214-.075.394-.833-.185-1.036-.21-1.036-.21.185-.801 1.111-1.443 1.606-1.921z" id="path1482" fill="#5c6670" fill-opacity="1" stroke="none" stroke-width=".06" stroke-linecap="butt" stroke-linejoin="miter" stroke-opacity="1"/><path d="M95.729 6.133c-.29.002-.576.027-.847.077-1.446.272-2.56 1.687-2.922 2.742-.995 3.615-1.25 5.536-6.198 6.998-5.374 1.252-8.989 7.852-10.121 14.507-.154 9.977 6.603 2.195 11.763-1.807 4.169-2.524 10.158-3.758 9.489-13.942.026-.937-.159-2.216.743-2.818.197-.128 1.607-.151 1.878-.377.271-.226 1.122-1.687 1.16-1.77.038-.083.21-.441.088-.67-.122-.23-1.022-.634-1.113-.708-.304-.773-.029-.798-.82-1.371-.514-.465-1.844-.87-3.1-.861z" id="body-sit" fill="#73808c" fill-opacity="1" stroke="none" stroke-width=".059" stroke-linecap="butt" stroke-linejoin="miter" stroke-opacity="1"/><path id="path1488" d="M90.456 13.595s1.71-.268 3.238 1.26c1.528 1.527 2.076 5.913 1.88 7.05-.196 1.135-2.741 4.464-2.82 4.699-.078.235.144 8.324.144 8.324s.314-.239 1.226.216c.368.542.346 1.074.309 1.338-.018.127-2.626.129-2.806.077-.18-.051-.746-2.084-1.62-5.403-.875-3.319-1.493-6.123-1.493-6.38 0-.257 1.464-2.468 1.413-3.24-.88-2.662-4.851-4.749-3.52-5.8 2.717-2.143 3.444-2.065 4.049-2.141z" fill="#73808c" fill-opacity="1" stroke="none" stroke-width=".07" stroke-linecap="butt" stroke-linejoin="miter" stroke-opacity="1"/><path id="path1492" d="M79.144 25.063s6.495-.616 8.28 1.567c1.786 2.183 1.726 5.109.932 6.002-.794.893-5.187 2.321-5.187 2.321s2.96-.115 3.258.05c.298.166 1.019 1.139.986 1.437-.033.297-10.022.397-10.32.264-.298-.132-.397-.992-.066-1.687.33-.694 1.257-1.95 1.389-2.38.132-.43-.827-4.433-.662-5.359.166-.926 1.39-2.215 1.39-2.215z" fill="#73808c" fill-opacity="1" stroke="none" stroke-width=".265" stroke-linecap="butt" stroke-linejoin="miter" stroke-opacity="1"/><path d="M48.64 9.83c-.166.08-.476.223-.705.264-.323.06-.852-.382-.852-.206 0 .177.147.265.323.265.176 0 .5 0 .793-.059a1.08 1.08 0 00.41-.2l.03-.064z" id="lineFall-stand" fill="#5c6670" fill-opacity="1" stroke="none" stroke-width=".059" stroke-linecap="butt" stroke-linejoin="miter" stroke-opacity="1"/><path id="nose-stand-2" d="M48.678 8.561s.182-.094.303-.1a.723.723 0 01.164.002c.017.028.064.09.054.244a.627.627 0 01-.073.26l-.095-.2s.144-.154.025-.132c-.119.023-.115.05-.115.05z" fill="#928ea1" fill-opacity="1" stroke="none" stroke-width=".059" stroke-linecap="butt" stroke-linejoin="miter" stroke-opacity="1"/><path id="path2256" d="M47.447 7.94c.137-.85-.058-1.007-.965-.456.294.267.583.44.965.457z" fill="#d49326" fill-opacity="1" stroke="none" stroke-width=".081" stroke-linecap="butt" stroke-linejoin="miter" stroke-opacity="1"/><path id="path2378" d="M46.48 7.488s.138-.111.27-.19a1.58 1.58 0 01.409-.173c.114-.026.242-.003.286 0a.313.313 0 00.094-.011s-.035.04-.082.061c-.047.02-.065.012-.123.01-.059-.004-.506.078-.854.303z" fill="#5c6670" fill-opacity="1" stroke="none" stroke-width=".265" stroke-linecap="butt" stroke-linejoin="miter" stroke-opacity="1"/><path id="path2380" d="M47.332 7.867c0-.026.091-.237.076-.384-.016-.147-.125-.263-.125-.263s-.089.122-.07.31a.81.81 0 00.119.337z" fill="#050c04" fill-opacity="1" stroke="none" stroke-width=".321" stroke-linecap="butt" stroke-linejoin="miter" stroke-opacity="1"/><ellipse ry=".091" rx=".147" cy="7.471" cx="47.205" id="ellipse2382" fill="#e8f7e7" fill-opacity="1" stroke="none" stroke-width=".332"/><path d="M43.73 6.714c0-.041.042-.248.141-.447.1-.198.447-.554.447-.554s-.008.124-.033.273c-.025.149-.058.265-.058.265s.074-.1.215-.223c.14-.124.744-.39.744-.39s.504-2.43.33-2.661c-.173-.232-1.504 1.992-1.843 3.042-.34 1.05.058.695.058.695z" id="path1381" fill="#928ea1" fill-opacity="1" stroke="none" stroke-width=".265" stroke-linecap="butt" stroke-linejoin="miter" stroke-opacity="1"/><path id="rightEar-stand" d="M41.848 7.466s.449-1.174.897-1.729c.448-.555 2.683-3.128 2.704-2.936.37.011-.121 2.83-.164 3.022-.043.192-.192.17-.192.043 0-.129.783-3.523.235-2.754-.3.42-1.559 2.54-1.58 2.86-.021.32.064.598.064.747 0 .15-.94 1.238-1.409 1.452-.47.213-.555-.704-.555-.704z" opacity=".999" fill="#5c6670" fill-opacity="1" stroke="none" stroke-width=".06" stroke-linecap="butt" stroke-linejoin="miter" stroke-opacity="1"/><path id="path1484" d="M95.352 7.318c0-.041.04-.248.14-.446.1-.199.447-.554.447-.554s-.008.124-.034.273a2.589 2.589 0 01-.057.264s.074-.099.215-.223c.14-.124.744-.389.744-.389s.504-2.43.33-2.662c-.173-.232-1.504 1.993-1.843 3.043-.34 1.05.057.694.057.694z" fill="#928ea1" fill-opacity="1" stroke="none" stroke-width=".265" stroke-linecap="butt" stroke-linejoin="miter" stroke-opacity="1"/><path d="M93.47 8.07s.447-1.173.896-1.728c.448-.555 2.683-3.129 2.704-2.937.37.012-.121 2.83-.164 3.022-.043.192-.192.171-.192.043s.783-3.522.235-2.754c-.3.42-1.559 2.54-1.58 2.86-.021.32.064.598.064.748 0 .15-.94 1.238-1.409 1.451-.47.214-.555-.704-.555-.704z" id="path1486" opacity=".999" fill="#5c6670" fill-opacity="1" stroke="none" stroke-width=".06" stroke-linecap="butt" stroke-linejoin="miter" stroke-opacity="1"/><path d="M100.3 9.166s.184-.094.304-.1a.676.676 0 01.164.002c.018.028.064.09.054.244a.627.627 0 01-.073.26l-.095-.2s.144-.155.025-.132c-.119.023-.115.05-.115.05z" id="path1472" fill="#928ea1" stroke-width=".059" stroke-linecap="butt" stroke-linejoin="miter" stroke-opacity="1" fill-opacity="1" stroke="none"/><path id="path1480" d="M100.263 10.434c-.166.08-.476.223-.705.265-.323.059-.852-.383-.852-.206 0 .176.147.264.323.264.177 0 .5 0 .794-.058.158-.032.305-.122.41-.2l.03-.065z" fill="#5c6670" stroke-width=".059" stroke-linecap="butt" stroke-linejoin="miter" stroke-opacity="1" fill-opacity="1" stroke="none"/><path d="M99.07 8.545c.138-.85-.058-1.008-.964-.457.293.268.582.44.964.457z" id="path2394" fill="#d49326" stroke-width=".081" stroke-linecap="butt" stroke-linejoin="miter" stroke-opacity="1" fill-opacity="1" stroke="none"/><path d="M98.104 8.092s.137-.11.269-.19a1.59 1.59 0 01.409-.172c.114-.027.243-.003.286 0 .044.003.094-.012.094-.012s-.035.041-.082.061c-.047.02-.064.012-.123.01a2.164 2.164 0 00-.853.303z" id="path2398" fill="#5c6670" stroke-width=".265" stroke-linecap="butt" stroke-linejoin="miter" stroke-opacity="1" fill-opacity="1" stroke="none"/><path d="M98.955 8.472c0-.027.092-.238.076-.385-.015-.146-.125-.262-.125-.262s-.088.122-.07.31a.81.81 0 00.12.337z" id="path2400" fill="#050c04" stroke-width=".321" stroke-linecap="butt" stroke-linejoin="miter" stroke-opacity="1" fill-opacity="1" stroke="none"/><ellipse id="ellipse2402" cx="98.829" cy="8.075" rx=".147" ry=".091" opacity="1" fill="#e8f7e7" stroke-width=".332" fill-opacity="1" stroke="none"/><path id="path1515" d="M156.997 33.271c-.132-.05-1.29-.363-1.472-.38-.182-.016-.05.1.414-.248.463-.347 1.14-1.39 1.14-1.39s-.297.762-.28 1.092c.016.331.198.926.198.926z" fill="#5c6670" fill-opacity="1" stroke="none" stroke-width=".265" stroke-linecap="butt" stroke-linejoin="miter" stroke-opacity="1"/><path d="M138.277 33.116c-.839-.32-2.47-.074-2.789.326-.194 4.623 6.724 2.632 18.099 2.797.68.04 2.996.08 2.996.08s-.03-.502-.25-.697c-.219-.195.128-.16.128-.16-1.878-1.227-2.726-1.301-5.44-1.416-1.4.072-8.585.366-8.585.366-2.508.302-3.424-.99-4.159-1.296z" id="tail-lie" fill="#73808c" fill-opacity="1" stroke="none" stroke-width=".07" stroke-linecap="butt" stroke-linejoin="miter" stroke-opacity="1"/><g transform="translate(134.34 .066) scale(.16787)" id="ears-lie"><path id="rightEar-lie" d="M152.26 179.572s-2.772-2.919-4.816-5.692c-2.043-2.773-7.297-9.778-8.902-10.8-1.606-1.022-2.482-1.022-1.752 4.087.73 5.108 1.606 10.946 2.335 12.697a20.02 20.02 0 001.606 3.065h-1.606s-1.892-8.366-2.113-10.241c-.22-1.875-1.102-9.485-.661-10.036.44-.552 1.323-.772 2.426-.11 1.103.661 7.058 5.293 9.043 6.065 1.985.772 7.61 5.845 7.83 6.397.221.551-.853 4.017-3.39 4.568z" fill="#5c6670" fill-opacity="1" stroke="none" stroke-width=".416" stroke-linecap="butt" stroke-linejoin="miter" stroke-opacity="1"/></g><path id="path1524" d="M163.763 31.279s.34.011.585.116c.245.106.41.281.526.34l.117.058s-.199.023-.316.023h-.129s.387.55.433.737c.047.187.117.643.117.643s1.508-2.011 1.602-2.222c.094-.21.187-.432.164-.526-.024-.093-.129-.14-.374-.152-.246-.011-2.327.48-2.725.982z" fill="#928ea1" stroke-width=".265" fill-opacity="1" stroke="none" stroke-linecap="butt" stroke-linejoin="miter" stroke-opacity="1"/><path id="path1522" d="M159.91 30.08s-.38-.166-.695-.166c-.314 0-.496.025-.645.025h-.149l.323.19s-.116-.008-.347.124a5.78 5.78 0 00-.579.413s-.223-.363-.364-1.248c-.14-.885-.388-2.257-.025-2.092.364.165 2.572 1.753 2.48 2.753z" fill="#928ea1" stroke-width=".265" fill-opacity="1" stroke="none" stroke-linecap="butt" stroke-linejoin="miter" stroke-opacity="1"/><path id="leftEar-lie" d="M163.724 31.384c.126 0 .855-.459 1.19-.605.333-.146 1.689-.459 1.856-.375.166.083-.334.98-.48 1.167-.146.188-1.252 1.565-1.252 1.565l.042.167s1.46-2.003 1.627-2.274c.167-.27.23-.542.167-.709-.063-.167-1.273.042-1.564.042-.64.118-1.402.241-1.94.667.057.266.154.29.354.355z" fill="#5c6670" stroke-width=".079" fill-opacity="1" stroke="none" stroke-linecap="butt" stroke-linejoin="miter" stroke-opacity="1"/><path d="M158.392 32.116s-.022.057.035.125c.364.396.844.648 1.014 1.163 0 0 .058-.102.104-.228-.23-.478-.726-.765-1.152-1.06z" id="lash-lie" fill="#5c6670" stroke-width=".07" fill-opacity="1" stroke="none" stroke-linecap="butt" stroke-linejoin="miter" stroke-opacity="1"/><path d="M159.437 35.575c.091-.082.195-.102.302-.144 0 0 .008-.098.106-.098.099 0 .121.045.121.045l.363-.03s-.204-.204-.499-.325c-.295-.12-.673-.189-.673-.189l.144.212s.12.03.136.113c.015.045-.053.091-.053.091.021.11.035.216.053.325z" id="nose-lie" fill="#928ea1" stroke-width=".07" fill-opacity="1" stroke="none" stroke-linecap="butt" stroke-linejoin="miter" stroke-opacity="1"/><path id="path1520" d="M162.901 33.853s-.018.058-.105.075c-.533.077-1.065-.032-1.522.26 0 0 .02-.116.064-.242.48-.226 1.046-.135 1.563-.093z" fill="#5c6670" stroke-width=".07" fill-opacity="1" stroke="none" stroke-linecap="butt" stroke-linejoin="miter" stroke-opacity="1"/><path id="path12216" d="M35.617 52.476c7.344 1.918 7.484 7.063 8.7 11.226 1.216 4.163 2.572 6.782 4.397 7.343 1.824.561 1.45.807 1.052.982-.398.176-.783.257-.783.257l.56.094s-.303.187-1.052.082c-.748-.105-2.397.035-4.642-4.549-1.548-3.16-2.572-7.904-3.227-9.26-.655-1.357-5.005-6.175-5.005-6.175z" fill="#73808c" fill-opacity="1" stroke="none" stroke-width=".265" stroke-linecap="butt" stroke-linejoin="miter" stroke-opacity="1"/><path d="M31.542 53.822c-.872.822-1.847 1.95-1.283 4.414.565 2.463 5.286 11.24 5.286 11.24l-.923 2.463s-.154-.051-1.13-.051c-.554.352-.623.638-.667 1.436l2.977.052s2.617-4.208 2.669-4.619c.051-.41-.616-2.617-.616-4.054 0-1.437 1.796-5.954 1.847-6.877-1.278-3.858-5.538-5.332-8.16-4.004z" id="path12218" fill="#5c6670" fill-opacity="1" stroke="none" stroke-width=".07" stroke-linecap="butt" stroke-linejoin="miter" stroke-opacity="1"/><path id="path12220" d="M16.312 50.865c-1.527 1.51-2.002 6.726-1.896 7.861.15 1.591 2.056 4.367 2.135 4.6.078.232-.144 8.231-.144 8.231s-.314-.237-1.226.214a1.845 1.845 0 00-.309 1.322c.018.126 2.626.128 2.806.077.18-.051.746-2.061 1.62-5.343.875-3.282 1.493-6.055 1.493-6.31 0-.254-1.698-3.688-1.647-4.452 1.212-4.032-.142-7.106-2.832-6.2z" fill="#5c6670" fill-opacity="1" stroke="none" stroke-width=".069" stroke-linecap="butt" stroke-linejoin="miter" stroke-opacity="1"/><path id="path12222" d="M11.534 40.795c-.096-.104-.27-.255-.225-.075.045.18.66 1.468.72 1.812.023.133-.03.214.075.394.833-.185 1.036-.21 1.036-.21-.185-.801-1.111-1.443-1.606-1.921z" fill="#5c6670" fill-opacity="1" stroke="none" stroke-width=".06" stroke-linecap="butt" stroke-linejoin="miter" stroke-opacity="1"/><path d="M41.166 61.038c-.18-6.496-2.526-8.328-6.105-8.712-3.579-.383-9.672.128-11.29-.127-1.62-.256-4.134-1.492-4.56-2.173-.426-.682-.982-3.583-1.343-4.638-.362-1.054-1.476-2.47-2.923-2.742-1.446-.27-3.314.211-3.946.784-.792.572-.517.598-.82 1.37-.091.075-.992.48-1.114.709-.123.23.05.587.088.67.038.083.889 1.544 1.16 1.77.271.226 1.681.25 1.878.378.197.127.693.527.725 1.432.032.906-.096 6.061.884 8.234s4.249 4.508 5.635 4.93c1.385.422 4.76-.301 6.748-.18 1.989.12 8.979.903 11.088.602 2.109-.302 3.804-1.794 3.894-2.307z" id="path12224" fill="#73808c" fill-opacity="1" stroke="none" stroke-width=".265" stroke-linecap="butt" stroke-linejoin="miter" stroke-opacity="1"/><path d="M30.208 53.822c-1.575 3.732 1.692 8.194 4.157 10.88 1.078 1.13 6.774 4.979 6.774 4.979l.308 2.566s-.41-.103-.975.102c-.564.206-.667 1.283-.667 1.283s2.823.36 3.08 0c.256-.359.769-5.645.769-5.953 0-.308-1.078-.975-1.54-1.642-.461-.667-1.18-1.899-.975-4.311.206-2.412.462-3.695-.308-4.978-2.312-3.468-7.996-4.9-10.623-2.926z" id="path12226" fill="#73808c" fill-opacity="1" stroke="none" stroke-width=".07" stroke-linecap="butt" stroke-linejoin="miter" stroke-opacity="1"/><path d="M76.282 50.699c-1.528 1.51-2.003 6.726-1.896 7.86.15 1.592 2.056 4.368 2.134 4.6.08.233-.144 8.232-.144 8.232s-.314-.237-1.225.213a1.845 1.845 0 00-.31 1.323c.02.126 2.626.127 2.806.076.18-.05.746-2.06 1.62-5.342.876-3.282 1.493-6.055 1.493-6.31 0-.254-1.698-3.689-1.646-4.452 1.211-4.032-.142-7.106-2.832-6.2z" id="path12228" fill="#5c6670" fill-opacity="1" stroke="none" stroke-width=".069" stroke-linecap="butt" stroke-linejoin="miter" stroke-opacity="1"/><path d="M87.402 61.45s-5.887.694-7.673 2.877c-1.786 2.183-1.679 3.612-.885 4.505.794.893 4.532 2.508 4.532 2.508s-2.96-.115-3.257.05c-.298.166-1.02 1.139-.986 1.436.033.298 10.022.397 10.32.265.297-.132.396-.992.066-1.687-.33-.694-1.257-1.951-1.39-2.38-.132-.43.827-4.433.662-5.359-.165-.926-1.39-2.216-1.39-2.216z" id="path12230" fill="#5c6670" fill-opacity="1" stroke="none" stroke-width=".265" stroke-linecap="butt" stroke-linejoin="miter" stroke-opacity="1"/><path d="M164.433 69.005c.599 1.958.32 2.477-.12 2.917-.44.44-1.958 1.238-3.876 1.438-1.918.2-19.45-.114-20.688-.234-.118-.011-.3.193-.553.238-.64.113-2.076.082-2.762-.06-1.35-.28-1.84-.43-2.542-.804-.136-.073-.038.031.156-.164.102-.102-.3-.01-.47.038-.132.194-.37-1.652-.381-1.877 0-1.319.232-3.53.99-4.768.76-1.239 1.12-1.558 2.319-2.117 1.198-.56 2.477-.8 2.477-.8s2.756-1.837 7.55-2.477c6.124-.13 15.53 1.998 17.9 8.67z" id="path12232" fill="#73808c" fill-opacity="1" stroke="none" stroke-width=".07" stroke-linecap="butt" stroke-linejoin="miter" stroke-opacity="1"/><path d="M147.933 62.839c.298.066-.496.363-1.257 1.09-.76.729-1.852 2.548-2.25 4.201-.395 1.654.63 2.91.63 2.91s1.753-.165 3.87 0c2.116.166 6.283.827 6.416.894l-10.75.504 1.79.721c-3.616.025-6.164.015-6.64-.031a.187.187 0 00-.096.024c.222-.206.465-.464.562-.686.194-.447.723-1.363.723-1.363l.007.005.017-.067s.628.363 1.19.33c.563-.033 1.754-.562 1.919-1.157.165-.596-.066-5.358-.43-6.152-.364-.794-1.39-1.257-.76-1.157.628.099 1.818 1.422 2.414 1.322.595-.099 2.348-1.455 2.645-1.389zm7.749 8.716l1.98.225c-.06.285-.104.488-.12.534-.04.117-.46.498-1.045.985a837.3 837.3 0 00-1.56-.05z" id="path12234" fill="#5c6670" fill-opacity="1" stroke="none" stroke-width=".07" stroke-linecap="butt" stroke-linejoin="miter" stroke-opacity="1"/><path d="M19.722 50.616s-1.711-.268-3.239 1.26c-1.527 1.527-2.075 5.913-1.88 7.05.196 1.135 2.742 4.464 2.82 4.699.079.235-.144 8.324-.144 8.324s-.314-.24-1.225.216a1.885 1.885 0 00-.31 1.338c.019.127 2.626.128 2.806.077.18-.052.746-2.084 1.621-5.403.875-3.319 1.492-6.123 1.492-6.38 0-.258-1.464-2.468-1.413-3.24.88-2.662 4.852-4.749 3.52-5.8-2.717-2.144-3.444-2.065-4.048-2.141z" id="path12332" fill="#73808c" fill-opacity="1" stroke="none" stroke-width=".07" stroke-linecap="butt" stroke-linejoin="miter" stroke-opacity="1"/><path d="M94.233 66.42c.17 2.295-.13 3.453 1.257 4.128 1.386.676 12.736 1.313 13.343 1.516.608.203 1.297 1.445 1.297 1.445l-.72-.365.73.748-19.776-.419s.64-2.754 1.374-4.032c.734-1.278 2.495-3.021 2.495-3.021z" id="path12334" fill="#73808c" fill-opacity="1" stroke="none" stroke-width=".059" stroke-linecap="butt" stroke-linejoin="miter" stroke-opacity="1"/><path d="M72.04 41.407c-.097-.104-.27-.255-.226-.075.045.18.66 1.468.72 1.813.023.133-.03.214.075.394.833-.185 1.036-.21 1.036-.21-.185-.802-1.11-1.443-1.606-1.922z" id="path12336" fill="#5c6670" fill-opacity="1" stroke="none" stroke-width=".06" stroke-linecap="butt" stroke-linejoin="miter" stroke-opacity="1"/><path d="M74.605 43.175c.29.002.576.026.847.077 1.446.271 2.56 1.687 2.922 2.742.995 3.615 1.25 5.536 6.198 6.998 5.374 1.252 8.99 7.852 10.121 14.506.154 9.977-6.603 2.195-11.763-1.806-4.169-2.524-10.158-3.758-9.489-13.942-.026-.937.16-2.216-.743-2.818-.197-.128-1.607-.151-1.878-.377-.27-.226-1.122-1.687-1.16-1.77-.038-.083-.21-.442-.088-.67.122-.23 1.022-.634 1.113-.709.304-.773.03-.798.82-1.37.514-.466 1.844-.871 3.1-.861z" id="path12338" fill="#73808c" fill-opacity="1" stroke="none" stroke-width=".059" stroke-linecap="butt" stroke-linejoin="miter" stroke-opacity="1"/><path id="path12340" d="M79.88 50.637s-1.713-.269-3.24 1.26c-1.528 1.526-2.076 5.913-1.88 7.049.196 1.136 2.741 4.465 2.82 4.7.08.235-.144 8.324-.144 8.324s-.314-.24-1.226.216a1.884 1.884 0 00-.309 1.337c.018.128 2.626.13 2.806.078.18-.052.746-2.084 1.62-5.403.875-3.319 1.493-6.123 1.493-6.38 0-.258-1.464-2.468-1.413-3.24.88-2.662 4.851-4.75 3.52-5.8-2.717-2.144-3.444-2.065-4.049-2.141z" fill="#73808c" fill-opacity="1" stroke="none" stroke-width=".07" stroke-linecap="butt" stroke-linejoin="miter" stroke-opacity="1"/><path id="path12342" d="M91.191 62.104s-6.495-.615-8.28 1.568c-1.787 2.183-1.727 5.109-.933 6.002.794.893 5.187 2.32 5.187 2.32s-2.96-.114-3.258.051c-.298.166-1.019 1.139-.986 1.436.033.298 10.022.397 10.32.265.298-.132.397-.992.066-1.687-.33-.694-1.257-1.951-1.389-2.381-.132-.43.827-4.432.662-5.358-.166-.926-1.39-2.216-1.39-2.216z" fill="#73808c" fill-opacity="1" stroke="none" stroke-width=".265" stroke-linecap="butt" stroke-linejoin="miter" stroke-opacity="1"/><path d="M9.569 46.871c.165.081.475.223.704.265.324.059.853-.382.853-.206 0 .176-.147.265-.323.265-.177 0-.5 0-.794-.059a1.08 1.08 0 01-.41-.2z" id="path12366" fill="#5c6670" fill-opacity="1" stroke="none" stroke-width=".059" stroke-linecap="butt" stroke-linejoin="miter" stroke-opacity="1"/><path id="path12368" d="M9.53 45.603s-.182-.094-.303-.1a.723.723 0 00-.163.002c-.018.028-.064.09-.055.244.005.09.03.18.073.26l.096-.2s-.145-.155-.026-.132c.12.023.116.05.116.05z" fill="#928ea1" fill-opacity="1" stroke="none" stroke-width=".059" stroke-linecap="butt" stroke-linejoin="miter" stroke-opacity="1"/><path id="path12370" d="M10.761 44.983c-.137-.85.059-1.009.965-.457-.294.267-.582.44-.965.457z" fill="#d49326" fill-opacity="1" stroke="none" stroke-width=".081" stroke-linecap="butt" stroke-linejoin="miter" stroke-opacity="1"/><path id="path12372" d="M11.728 44.53s-.137-.112-.269-.19a1.58 1.58 0 00-.41-.173c-.113-.026-.242-.003-.286 0a.313.313 0 01-.093-.012s.035.041.082.062c.046.02.064.011.122.009.059-.003.506.079.854.304z" fill="#5c6670" fill-opacity="1" stroke="none" stroke-width=".265" stroke-linecap="butt" stroke-linejoin="miter" stroke-opacity="1"/><path id="path12374" d="M10.877 44.91c0-.028-.092-.239-.077-.385.016-.147.126-.263.126-.263s.088.122.07.31a.81.81 0 01-.12.337z" fill="#050c04" fill-opacity="1" stroke="none" stroke-width=".321" stroke-linecap="butt" stroke-linejoin="miter" stroke-opacity="1"/><ellipse ry=".091" rx=".147" cy="44.512" cx="-11.003" id="ellipse12376" transform="scale(-1 1)" fill="#e8f7e7" fill-opacity="1" stroke="none" stroke-width=".332"/><path d="M14.478 43.755c0-.04-.042-.248-.14-.446-.1-.198-.447-.554-.447-.554a2.993 2.993 0 00.09.537s-.074-.099-.214-.223-.744-.388-.744-.388-.505-2.431-.331-2.663c.173-.231 1.505 1.993 1.844 3.043.339 1.05-.058.694-.058.694z" id="path12378" fill="#928ea1" fill-opacity="1" stroke="none" stroke-width=".265" stroke-linecap="butt" stroke-linejoin="miter" stroke-opacity="1"/><path id="path12380" d="M16.36 44.508s-.448-1.174-.896-1.729c-.449-.555-2.684-3.128-2.705-2.936-.37.01.122 2.83.164 3.021.043.192.192.171.192.043s-.783-3.522-.234-2.754c.3.42 1.558 2.54 1.58 2.86.02.321-.065.599-.065.748 0 .15.94 1.238 1.409 1.452.47.213.555-.705.555-.705z" opacity=".999" fill="#5c6670" fill-opacity="1" stroke="none" stroke-width=".06" stroke-linecap="butt" stroke-linejoin="miter" stroke-opacity="1"/><path id="path12382" d="M74.983 44.36c0-.041-.042-.248-.14-.447-.1-.198-.448-.554-.448-.554a2.993 2.993 0 00.091.538s-.074-.1-.215-.223c-.14-.124-.744-.389-.744-.389s-.504-2.43-.33-2.662c.173-.232 1.504 1.992 1.843 3.042.34 1.05-.057.695-.057.695z" fill="#928ea1" fill-opacity="1" stroke="none" stroke-width=".265" stroke-linecap="butt" stroke-linejoin="miter" stroke-opacity="1"/><path d="M76.865 45.113s-.448-1.174-.897-1.73c-.448-.555-2.683-3.128-2.704-2.936-.37.011.121 2.83.164 3.022.043.192.192.17.192.043 0-.128-.783-3.523-.235-2.754.3.42 1.56 2.54 1.58 2.86.022.32-.064.598-.064.747 0 .15.94 1.238 1.41 1.452.47.213.554-.704.554-.704z" id="path12384" opacity=".999" fill="#5c6670" fill-opacity="1" stroke="none" stroke-width=".06" stroke-linecap="butt" stroke-linejoin="miter" stroke-opacity="1"/><path d="M70.033 46.208s-.183-.094-.303-.1a.679.679 0 00-.164.002c-.018.028-.064.09-.054.244a.627.627 0 00.073.26l.095-.2s-.144-.155-.025-.132c.119.023.115.05.115.05z" id="path12386" fill="#928ea1" stroke-width=".059" stroke-linecap="butt" stroke-linejoin="miter" stroke-opacity="1" fill-opacity="1" stroke="none"/><path id="path12388" d="M70.071 47.476c.166.08.476.223.705.265.323.059.852-.383.852-.206 0 .176-.147.264-.323.264-.177 0-.5 0-.794-.058a1.082 1.082 0 01-.41-.2l-.03-.065z" fill="#5c6670" stroke-width=".059" stroke-linecap="butt" stroke-linejoin="miter" stroke-opacity="1" fill-opacity="1" stroke="none"/><path d="M71.264 45.587c-.138-.85.058-1.008.964-.457-.293.268-.582.44-.964.457z" id="path12390" fill="#d49326" stroke-width=".081" stroke-linecap="butt" stroke-linejoin="miter" stroke-opacity="1" fill-opacity="1" stroke="none"/><path d="M72.23 45.134s-.137-.11-.269-.19a1.589 1.589 0 00-.409-.172c-.114-.027-.243-.003-.286 0-.044.003-.094-.012-.094-.012s.035.041.082.061c.047.02.064.012.123.01.058-.003.506.078.853.303z" id="path12392" fill="#5c6670" stroke-width=".265" stroke-linecap="butt" stroke-linejoin="miter" stroke-opacity="1" fill-opacity="1" stroke="none"/><path d="M71.379 45.514c0-.027-.092-.238-.076-.385.015-.146.125-.262.125-.262s.088.122.07.31c-.018.188-.119.337-.119.337z" id="path12394" fill="#050c04" stroke-width=".321" stroke-linecap="butt" stroke-linejoin="miter" stroke-opacity="1" fill-opacity="1" stroke="none"/><ellipse id="ellipse12396" cx="-71.506" cy="45.117" rx=".147" ry=".091" opacity="1" fill="#e8f7e7" stroke-width=".332" transform="scale(-1 1)" fill-opacity="1" stroke="none"/><path id="path12400" d="M141.286 70.313c.132-.05 1.29-.364 1.47-.38.183-.017.05.099-.412-.248-.463-.348-1.141-1.39-1.141-1.39s.298.761.28 1.092c-.016.33-.197.926-.197.926z" fill="#5c6670" fill-opacity="1" stroke="none" stroke-width=".265" stroke-linecap="butt" stroke-linejoin="miter" stroke-opacity="1"/><path d="M160.006 70.158c.839-.32 2.469-.074 2.789.326.193 4.623-6.724 2.631-18.1 2.796-.678.04-2.996.08-2.996.08s.03-.501.25-.697c.22-.195-.127-.16-.127-.16 1.877-1.226 2.726-1.3 5.439-1.415 1.4.071 8.585.366 8.585.366 2.509.302 3.424-.99 4.16-1.296z" id="path12402" fill="#73808c" fill-opacity="1" stroke="none" stroke-width=".07" stroke-linecap="butt" stroke-linejoin="miter" stroke-opacity="1"/><path id="path12404" d="M138.383 67.252s.466-.49.809-.955c.343-.466 1.225-1.641 1.494-1.813.27-.172.417-.172.294.686-.122.858-.27 1.838-.392 2.132a3.36 3.36 0 01-.27.514h.27s.318-1.404.355-1.72c.037-.314.185-1.591.111-1.684-.074-.093-.222-.13-.407-.018-.185.11-1.185.888-1.518 1.018-.333.13-1.278.981-1.315 1.074-.037.092.144.674.57.766z" fill="#5c6670" fill-opacity="1" stroke="none" stroke-width=".07" stroke-linecap="butt" stroke-linejoin="miter" stroke-opacity="1"/><path id="path12408" d="M134.52 68.32s-.34.012-.585.117c-.245.106-.41.281-.526.34l-.117.058s.199.023.316.023h.128s-.386.55-.432.737c-.047.187-.117.643-.117.643s-1.509-2.011-1.602-2.222c-.094-.21-.187-.432-.164-.526.024-.093.129-.14.374-.152.246-.011 2.327.48 2.725.982z" fill="#928ea1" stroke-width=".265" fill-opacity="1" stroke="none" stroke-linecap="butt" stroke-linejoin="miter" stroke-opacity="1"/><path id="path12410" d="M138.373 67.121s.38-.165.695-.165c.314 0 .496.025.644.025h.15l-.323.19s.116-.008.347.124c.232.132.579.413.579.413s.223-.363.364-1.248c.14-.885.388-2.257.025-2.092-.364.165-2.572 1.753-2.48 2.753z" fill="#928ea1" stroke-width=".265" fill-opacity="1" stroke="none" stroke-linecap="butt" stroke-linejoin="miter" stroke-opacity="1"/><path id="path12412" d="M134.559 68.426c-.126 0-.856-.459-1.19-.605-.333-.146-1.689-.459-1.856-.375-.167.083.334.98.48 1.167.146.188 1.251 1.565 1.251 1.565l-.041.167s-1.46-2.003-1.627-2.274c-.167-.27-.23-.542-.167-.709.063-.167 1.272.042 1.564.042.64.118 1.402.241 1.94.667-.058.266-.154.29-.354.355z" fill="#5c6670" stroke-width=".079" fill-opacity="1" stroke="none" stroke-linecap="butt" stroke-linejoin="miter" stroke-opacity="1"/><path d="M139.89 69.158s.023.057-.034.125c-.364.396-.844.648-1.015 1.163 0 0-.057-.102-.103-.228.23-.478.725-.765 1.152-1.06z" id="path12414" fill="#2e3338" stroke-width=".07" fill-opacity="1" stroke="none" stroke-linecap="butt" stroke-linejoin="miter" stroke-opacity="1"/><path d="M138.846 72.617c-.091-.082-.195-.102-.302-.144 0 0-.008-.098-.106-.098-.099 0-.121.045-.121.045l-.364-.03s.205-.204.5-.325c.295-.12.673-.189.673-.189l-.144.212s-.12.03-.136.113c-.015.045.053.091.053.091-.021.11-.035.216-.053.325z" id="path12416" fill="#928ea1" stroke-width=".07" fill-opacity="1" stroke="none" stroke-linecap="butt" stroke-linejoin="miter" stroke-opacity="1"/><path id="path12418" d="M135.382 70.895s.018.058.105.075c.533.077 1.064-.032 1.522.26 0 0-.02-.116-.064-.242-.48-.226-1.046-.135-1.563-.093z" fill="#2e3338" stroke-width=".07" fill-opacity="1" stroke="none" stroke-linecap="butt" stroke-linejoin="miter" stroke-opacity="1"/><path id="document-is-ready" opacity="1" fill="#000" fill-opacity="0" stroke-width=".134" d="M97.212 109.606h5.535v2.662h-5.535z"/></g></svg>