<svg xmlns="http://www.w3.org/2000/svg" width="615.767" height="309.652" viewBox="0 0 162.922 81.929"><path fill="#9b6c40" d="M-1.25-.551h166.02v83.83H-1.25z"/><path d="M-.32 21.61s4.119-3.739 19.523-4.538c15.404-.799 57.685 13.977 71.9 15.85 14.213 1.872 21.72-3.015 19.498-6.01-2.22-2.996-13.947-2.007-10.806.397s7.006 1.283 7.006 1.283" fill="none" stroke="#936639" stroke-linecap="round"/><path d="M67.735 48.584s14.431.126 24.637-1.039c10.205-1.164 23.096-3.957 24.276-5.366 1.18-1.409-4.715-.41-3.094-1.409 1.622-.999 12.165-4.183 10.48-4.923-1.687-.74-13.443 5.098-27.873 6.202-14.43 1.104-20.452 2.622-32.453 1.104-12-1.519-28.253-8.542-27.02-6.507 1.232 2.035 14.648 7.072 19.56 7.603 4.912.53 13.45 1.054 10.269 1.832-3.182.777-12.301 1.378-12.301 1.378z" fill="#a27042"/><path d="M74.395 32.514s6.487 2.077 16.754 3.356c10.268 1.278 12.825.335 21.57-1.206 8.747-1.54 23.698-4.234 34.311-7.409 3.88-1.16 16.165-5.552 18.5-7.365M2.49 75.056S25.893 64.7 45.308 63.094c19.415-1.607 51.477 4.04 71.228 7.781 19.752 3.742 25.072 4.768 31.066 3.487 5.993-1.28 13.717-6.669 13.717-6.669M3.37 36.753s7.343 6.635 24.373 8.777c17.03 2.14 35.432 3.394 47.195 3.394 11.762 0 36.59-4.932 36.59-4.932" fill="none" stroke="#936639" stroke-linecap="round"/><path d="M57.657 52.102s7.24.14 24.708.14c17.469.003 23.124-4.004 33.985-4.004s18.008 2.837 22.23 6.59c4.222 3.752 6.529 7.606 5.308 12.214-1.22 4.607-9.424 3.184-20.575 1.589-11.152-1.595-18.214-3.849-19.542-6.581-1.328-2.733-.863-7.1 6.824-8.785 7.687-1.685 14.222-.523 20.31 2.311 6.09 2.834 8.858 6.745 6.677 8.003-2.182 1.258-12.391.134-16.39-1.699-3.998-1.833-1.19-4.412 1.761-3.611 2.952.801 1.878 2.686 1.878 2.686" fill="none" stroke="#936639" stroke-linecap="round"/><path d="M163.627 8.797s-4.513 2.68-9.673 2.936c-5.16.255-21.492-2.979-28.461-3.778-6.97-.799-15.402 1.563-15.23-.281.173-1.845 10.344-3.022 7.568-3.89-2.777-.868-6.78-.308-4.488-1.334 2.291-1.026 22.198-3.251 23.94-3.689 1.742-.437 26.86-.083 26.86-.083zM-.315 9.123s1.126 0 2.707-.402c1.582-.402 7.604-1.259 10.658-2.316 3.054-1.058 8.5-4.88 7.133-4.965-1.367-.085-7.947 2.591-7.658 1.406.288-1.184 2.816-2.21.86-1.891-1.957.318-3.586-.228-7.417.02-3.832.249-7.121-2.033-7.121-2.033zM126.42 81.897s20.233-2.601 25.82-2.601c5.588 0 14.917 3.906 14.917 3.906s-.903.604-1.87.486c-1.16-.14-43.38.908-43.38.908z" fill="#a27042"/><path d="M152.286 12.204s-22.379-3.487-28.946-4.236c-6.567-.748-13.474 2.382-25.685 3.184-12.21.803-45.274-3.462-45.274-3.462" fill="none" stroke="#936639" stroke-linecap="round"/></svg>