<svg xmlns="http://www.w3.org/2000/svg" width="684" height="251" viewBox="0 0 180.975 66.41"><path d="M122.586 12.97c2.517.027 3.83 1.76 4.946 3.583 1.276 2.084 1.771 4.035 1.771 4.035s-3.753 1.04-5.945.889l-2.192-.152s.494.384.353 2.779c-.142 2.395-3.307 6.826-3.307 6.826l-.63-.947-1.143 1.721s-3.355-1.082-4.946-3.212c-1.59-2.13-1.683-5.406-1.683-5.406s-1.482-.407-2.654 1.088c-1.173 1.495-1.83 2.45-1.83 2.45s-1.618-3.437-.702-6.206c.917-2.768 1.197-4.292 3.761-4.484 2.565-.191 6.889.932 6.889.932s2.863-3.233 6.156-3.798c.412-.07.796-.102 1.156-.098zM146.518 3.546c.862-1.344 2.084-2.33 3.468-1.972 1.384.357 2.184 1.734 2.716 2.497.532.763 1.483 6.386 1.483 6.386l-20.649 9.435s-1.564-12.464-.45-14.662c1.113-2.198 3.74-4.577 6.695-3.71 2.954.868 2.81 4.278 3.57 4.587 1.31.157 2.786-1.978 3.167-2.56z" fill="#324100"/><path d="M80.527 11.089s-8.55 1.259-15.34 5.607c-6.793 4.349-9.413 9.759-8.47 13.835.944 4.076 4.786 6.078 8.387 6.497 3.601.42 6.055-1.429 5.38-3.273-.674-1.845-2.7-2.983-4.088-1.968-1.39 1.016-.51 2.625.274 2.719.785.094 1.2-.803 1.2-.803" fill="none" stroke="#becf4a" stroke-width=".784"/><path d="M143.293 6.555s-.25-1.06-1.055-1.06c-.804 0-1.587.616-1.934 1.683-.346 1.067-.786 5.9-.786 5.9l-.616-1.726s-.007-3.242.645-4.45c.65-1.21.875-1.56 1.991-1.865.954-.26 1.656.23 2.037.727.38.497.39.088.219.534-.172.445-.5.257-.5.257z" fill="#597118"/><path d="M187.386 43.443s-5.633-.64-14.094-3.81c-8.46-3.17-21.2-9.473-26.653-15.291-5.451-5.819-19.326-26.2-19.326-26.2l5.649-.124s.866 3.384 5.275 9.816c4.41 6.432 9.58 13.286 11.81 15.03 2.23 1.743 8.72 7.311 19.385 10.236 10.664 2.925 12.945 2.824 12.945 2.824z" fill="#26201a"/><path d="M145.162 20.549s-23.504-2.698-27.373-3.737c-3.868-1.04-26.295-18.295-26.295-18.295l-5.027-.78s27.266 19.24 29.1 20.281c1.836 1.042 23.187 3.182 27.19 4.14 4.003.959 4.113.959 4.113.959z" fill="#26201a"/><path d="M161.326 3.764s-9.884 16.453-18.621 22.173c-8.738 5.72-16.318 6.79-20.253 6.258-3.935-.531-5.488-2.175-6.753-5.51-1.264-3.335-.276-5.686 1.815-7.087 2.091-1.402 4.595-.856 5.236.661.642 1.517.615 3.44-.857 4.188-1.473.748-2.328-1.081-2.328-1.081" fill="none" stroke="#becf4a"/><path d="M172.897-1.734s-10.63 3.994-20.381 7.197c-9.752 3.204-16.127 4.845-31.09 6.487-14.964 1.643-34.146-.172-42.78-1.641-8.635-1.47-29.929-11.99-29.929-11.99h-1.67S69.362 8.735 72.521 9.75c3.16 1.016 15.805 3.406 26.01 3.955 10.207.549 22.719-.005 30.944-1.325 8.225-1.32 37.739-9.715 40.206-10.54 2.468-.826 8.14-2.3 8.14-2.3z" fill="#564323"/><path d="M94.42 14.67s-.057-1.363 4.629-1.363 2.734-.209 5.235 3.024c2.501 3.233 1.846 12.033 1.846 12.033s-3.086-3.443-4.659-4.242l-1.572-.799s-.157 3.567-.9 4.695c-.741 1.128.078 2.364-.82 1.049-.899-1.315-.839.747-1.728 1.385-.89.638-5.008 2.882-5.008 2.882s-3.288-4.345-2.363-6.571c.924-2.227 3.047-5.54.924-7.266s-2.965.312-4.484.762c-1.52.451-3.722-.353-3.722-.353s2.317-.602 3.653-2.388c1.336-1.785-.095-4.456 3.077-5.436 3.173-.98 5.892 2.588 5.892 2.588zM73.478 9.805c-.523.004-6.377-1.38-10.027-1.555C59.682 8.07 51.225 9.347 50.133 10c-1.092.652 2.037.98-1.482 2.415-3.52 1.434-6.854 1.246-6.854 1.246s.437-.985-.05-1.395c-.486-.41-5.874-1.17-8.474-.936-2.6.233-5.452 1.415-5.452 1.415s3.946-2.883 6.497-3.208c2.552-.326 3.175-.373 4.47-1.473l1.294-1.1s.989.332 4.468.219c3.48-.113 6.265-1.073 9.281-1.357 3.016-.284 4.313.865 4.313.865l-6.275 2.146s6.893-1.57 11.435-1.311c3.4.194 7.19.884 7.19.884s.968.065 1.894.506c.892.477 1.043.604 1.09.89zM152.408 28.317s.869-.455 2.328-2.785c1.295-2.07 3.938-2.12 6.061-1.057 2.123 1.063 6.668 9.413 6.668 9.413h-1.775s.792 1.002 1.933 4.177c1.141 3.174 1.275 5.629 1.275 5.629s-2.71-2.11-4.477-2.589c-1.768-.48-1.824-.424-1.824-.424s.285 1.236-1.005 2.63c-1.29 1.393-10.041 6.68-10.041 6.68s-.635-3.147-2.08-4.722c-1.445-1.575-5.05-4.97-5.05-4.97l-3.798 2.358s-1.043-3.811-.66-6.826c.382-3.014 1.046-5.362 3.012-8.156 1.966-2.794 9.433.642 9.433.642z" fill="#73a825"/><path d="M148.312 10.358s-.935-2.209 3.656-4.02c4.59-1.81 9.962.204 12.43 1.4a40.404 40.404 0 014.288 2.407h-1.565s.812.468 1.5 1.367l.689.898s-.787-.112-3.092.606l-2.305.718s.944.014 1.801 2.502c.857 2.487 1.383 3.897 1.65 7.063.266 3.165.266 4.562.266 4.562s-3.397-.515-7.515-1.482-7.738-3.046-7.738-3.046l.547 3.53s-3.62-1.743-6.387-4.26c-2.767-2.518-4.63-5.744-4.897-7.94-.268-2.195.357-3.444 2.2-3.843 1.843-.399 4.472-.462 4.472-.462z" fill="#5a7319"/><path d="M138.281 15.143c-.612 0-1.591-.012-4.012-1.424-2.42-1.412-4.008-.916-4.995-.376-.987.54-4.982 5.175-4.982 5.175l1.258-.137s.127-.063-.716 1.61c-.844 1.674-1.243 5.235-1.243 5.235s1.826-1.41 3.783-1.81c1.958-.4 3.548-1.06 3.548-1.06s-.211.143-.16 2.326c.053 2.184 1.952 6.024 1.952 6.024l.249-2.09s-.108.946 1.055 2.615l1.164 1.669s6.03-4.208 7.185-5.843c1.154-1.636 1.154-3.43 1.154-3.43s.674-.376 1.846.769c1.172 1.144.771-.16.771-.16s1.528.762 1.575 1.536c.048.774 1.064.218 1.287-1.984.222-2.202-.33-6.284-2.529-9.013-2.198-2.73-3.74-1.894-5.538-.8-1.797 1.096-2.652 1.168-2.652 1.168z" fill="#73a825"/><path d="M115.056 7.625s2.068-1.283 4.313-1.778c2.246-.495 4.533-.423 7.763-.034 3.23.39 7.564 1.841 7.564 1.841s.877-.028 1.377.747.5 1.658.5 1.658-.768-.91-3.515-1.91c-2.747-1-6.107-2.083-9.47-2.011-3.363.072-5.169.26-6.376.895-1.208.635-1.803 1.638-1.803 1.638z" fill="#5a7319"/><path d="M128.294 31.943l-.05-.122h0c-.002.001-1.052.41-2.873 1.361h0c-.726.38-1.574.853-2.352 1.368h0c-.367.242-.724.498-1.047.76h0a6.683 6.683 0 00-.825.78h0c-.434.5-.866 1.076-1.255 1.696h0a11.227 11.227 0 00-.95 1.862h0c-.238.614-.399 1.233-.434 1.811h0c-.018.285-.005.56.044.82h0c.049.259.133.502.259.725h0c.243.43.513.773.796 1.032h0c.28.258.573.432.86.527h0c.289.096.57.113.83.058h0c.26-.055.496-.182.69-.37h0c.193-.185.38-.377.542-.576h0c.167-.203.307-.41.405-.62h0c.05-.108.09-.216.115-.325h0c.027-.11.04-.22.037-.33h0a1.19 1.19 0 00-.056-.335h0a1.373 1.373 0 00-.163-.335h0a.899.899 0 00-.25-.258h0a.812.812 0 00-.292-.12h0a1.068 1.068 0 00-.307-.015h0c-.105.009-.207.03-.3.058h0a2.502 2.502 0 00-.495.208h0c-.144.078-.205.124-.205.124s.062-.045.206-.12h0c.114-.06.294-.145.497-.2h0c.094-.025.195-.045.299-.052h0c.098-.007.2-.002.3.02h0c.096.022.19.06.279.123h0a.87.87 0 01.236.252h0c.069.11.119.219.152.328h0c.032.107.047.215.047.322h0c0 .105-.015.21-.042.316h0a1.648 1.648 0 01-.118.31h0c-.1.2-.24.4-.409.596h0a6.74 6.74 0 01-.545.557h0a1.303 1.303 0 01-.646.329h0a1.462 1.462 0 01-.763-.07h0a2.3 2.3 0 01-.803-.51h0a4.075 4.075 0 01-.753-1.005h0a2.182 2.182 0 01-.232-.675h0a3.168 3.168 0 01-.034-.777h0c.039-.553.198-1.151.437-1.751h0c.246-.62.576-1.24.946-1.82h0c.387-.608.816-1.172 1.246-1.66h0c.22-.25.495-.502.801-.748h0c.317-.254.668-.504 1.032-.742h0c.77-.505 1.612-.97 2.336-1.345h0c1.813-.936 2.86-1.34 2.858-1.34h0l-.05-.121z" stroke="#becf4a" stroke-width=".265"/><path d="M118.926 3.944c-1.366-2.865-4.075-2.793-5.957-2.793-1.882 0-1.845 1.24-4.045 1.75s-4.437-.203-6.5-.002c-2.062.201-4.806 3.203-4.806 3.203l1.248-.357s-.312-.17-1.489 1.543c-1.177 1.713-1.323 3.108-1.323 3.108s1.57-1.454 3.041-1.454c1.471 0 6.25 1.45 8.248.612 1.998-.84 1.998-2.464 3.395-1.822 1.397.642 3.581 2.442 5.998 3.77 2.417 1.327 5.452-.898 5.825-2.727.732-3.588-5.875-.775-7.132-1.075.523-2.67 3.965-.82 3.497-3.756z" fill="#73a825"/></svg>