<svg xmlns="http://www.w3.org/2000/svg" xmlns:xlink="http://www.w3.org/1999/xlink" width="261.799" height="612.003" viewBox="0 0 69.268 161.926"><defs><linearGradient id="a"><stop offset="0" stop-color="#26201a"/><stop offset="1" stop-color="#564323"/></linearGradient><linearGradient xlink:href="#a" id="b" x1="131.08" y1="144.013" x2="132.464" y2="119.807" gradientUnits="userSpaceOnUse"/><linearGradient xlink:href="#a" id="c" gradientUnits="userSpaceOnUse" x1="-292.454" y1="208.952" x2="-303.852" y2="164.147"/></defs><path d="M448.45 86.3s-1.69-2.023-4.228-2.122c-2.536-.1-5.282.647-7.265 1.925-1.982 1.277-2.476 1.771-2.476 1.771s.326 1.718 3.552 2.17c3.227.451 3.42.644 3.42.644s-.287.877.906 5.167.907 3.68.907 3.68.852-1.988 1.924-1.731c1.072.257.525 2.218.525 2.218s3.208-1.64 5.476-3.263c2.268-1.624 3.32-5.174 3.32-5.174s.699.72 1.985.72 2.167-1.87 4.29-1.747c2.123.122 3.341 2.43 3.341 2.43s2.006-1.693-1.667-3.417c-3.674-1.724-5.629-3.157-8.277-3.157-2.647 0-5.734-.114-5.734-.114z" fill="#324100"/><path d="M446.414 81.391s-.898-10.478-.46-11.99c.436-1.512-.175-3.547-.175-3.547l1.382-1.588s-.428 1.308-.428 1.86c0 .553.24 1.988.178 2.696-.19 4.09-.02 5.994-.02 5.994.611 7.929 1.465 16.235-.477 6.575z" fill="#26201a"/><path d="M131.343 117.76l.939-.025c.057.042.551.503.342.813-.178.277-.237.515-.394.833-.532 1.073-2.006 2.935-2.464 3.845-.562 1.118-1.043 3.909-.685 7.908.357 3.998 3.574 9.932 4.223 10.558.649.626 1.851.777.814 1.87s-1.535.905-1.668-.144c-.134-1.05-4.692-9.013-4.692-12.423 0-3.411.609-6.64 1.291-8.084a23.94 23.94 0 012.135-3.67c.141-.362-.181-.517-.223-1.002-.007-.08-.062-.202.232-.453z" fill="url(#b)" transform="translate(315.308 -55.477)"/><path d="M445.926 122.934c-.336-2.354.753-4.17.73-4.91-.022-.74-.27-.249-.045-.925.225-.676.76-1.499 1.363-1.809.603-.31 1.001-.07.845.31-.157.38-.732 1.065-.769 1.876-.036.812-.499 1.731-.93 3.096-.69 2.187.666 4.426.666 4.426z" fill="#26201a"/><path d="M448.127 125.768c-.254-.257-.237-.382-.337-.61-.097-.223-.111-.348-.278-.68-.589-1.064-1.94-2.766-2.438-3.756-.563-1.118-1.043-3.909-.686-7.907.358-4 3.507-9.94 3.942-10.729.879-1.593 2.416-5.84 1.938-7.268-1.547-4.623-2.907-4.462-1.477-1.688 1.448 2.81.067 5.691-1.034 7.4-.572.89-4.691 9.013-4.691 12.423 0 3.411.608 6.64 1.29 8.084.683 1.445 1.204 2.052 1.626 3 .288.646.521 1.273.225 1.458-.262.44.364.603.546.66.527.067.033.062.916.062 0 0 .298-.002.458-.45z" fill="#564323"/><path d="M449.045 88.087l-.867.932c-.044.376.153.341-.11 1.305-.264.964-1.356 2.751-1.907 4.712-.55 1.961-.89 10.125-.767 11.454.124 1.33 1.126 8.39 1.011 9.206-.115.815-.317 1.058.09 1.072.407.014.99-.983 1.873-1.438.883-.456-.09-.3-.449-1.223s-1.15-8.828-.893-12.432c.257-3.603.006-6.046.804-7.483.797-1.437 3.062-5.912 2.493-6.35-.48-.416-.754.058-1.278.245z" fill="#26201a"/><path d="M446.033 84.147s.193-.769-2.802-1.848c-2.996-1.078-7.572-.968-7.572-.968s5.293.464 6.43 1.71c1.139 1.248-4.812 2.2-7.159 2.661-2.346.462-2.499.462-2.499.462s2.005-.804.889-.898c-1.117-.094-3.547 1.776-4.743 1.48-1.196-.296 1.821-3.985-1.225-2.584-3.046 1.402-5.616 6.326-5.616 6.326s-1.14-.36.623-4.297c1.762-3.935 5.297-5.249 4.342-4.938-.954.31-2.033.665-2.033.665s.731-1.777 4.073-2.67c3.342-.892 6.581-.334 8.983.126 2.401.46 1.806.545 2.07.792.266.247-2.167.75-2.167.75s2.584.234 3.9.469c1.314.235 2.53.59 3.345 1.022.817.433.897.301 1.227.907.33.606-.066.833-.066.833zM438.682 68.72s2.124.207 4.24 1.607l2.115 1.4s1.997-1.957 3.684-3.34c1.687-1.381 2.168-1.978 3.699-1.978 1.531 0 2.549 1.503 3.53 3.48l2.456 4.953h-2.124l.939 2.987-5.003-1.113s-.054 2.246-.442 3.515c-.389 1.268-2.297 3.173-2.297 3.173s-5.271-4.017-6.46-5.405c-1.187-1.387.332-3.464-1.377-2.458-1.71 1.006-2.453 1.729-2.453 1.729l-.688-2.43-1.07 2.758s-1.28-2.862-.9-4.919c.379-2.057 2.15-3.958 2.15-3.958z" fill="#73a825"/><path d="M443.328 115.742s-1.55-.177-2.811-1.01c-1.262-.835-2.368-1.146-3.275-.289-.908.857-1.574 1.803-1.574 1.803l1.92.562s-.276-.692-1.67 1.44c-1.392 2.133-.758 3.348-.758 3.348s2.232-1.155 3.88-1.439c1.65-.284 1.868-.43 1.868-.43l-.845 1.995 1.72-1.03-.297.636s1.655-.922 2.405-1.731c.75-.809 3.42-3.548 2.202-4.658-1.217-1.11-2.765.803-2.765.803z" fill="#5a7319"/><path d="M67.221 166.049s-2.57-14.755-12.414-31.41c-9.844-16.657-35.543-35.122-39.57-42.308-4.028-7.186-3.725-9.403-3.264-10.654.46-1.252-1.936-2.591-3.004-2.678-1.067-.087-1.735-.114-1.995.755-.26.87.11.218.366 1.426.255 1.208.048 4.79 1.895 9.89 1.847 5.103 9.58 13.865 19.358 23.51 9.779 9.646 16.672 19.405 19.601 25.856 2.929 6.45 6.612 25.676 6.612 25.676z" fill="#26201a"/><path d="M42.18 166.511s-12.266-19.736-12.02-36.598c.247-16.862 2.542-40.577 6.08-52.581 3.54-12.004 4.636-9.805 6.499-22.882C44.602 41.373 7.097 33.485 1.011 30.015c-6.087-3.47-6.938-6.934-6.938-6.934l.629 10.762s34.11 12.527 37.81 15.697c3.698 3.17 2.94 8.584.323 13.57-2.619 4.988-12.529 33.034-14.631 58.079-2.102 25.045 2.714 44.47 2.714 44.47z" fill="#26201a"/><path d="M56.688 141.194s-3.519.067-4.288-2.581c-.77-2.648-2.24-12.631-8.892-23.195C36.856 104.854 30.26 106 27.947 98.036c-2.314-7.965 2.037-14.028 5.537-16.243 3.5-2.215 10.682-6.347 13.706-11.627 3.025-5.28 3.583-6.994.956-10.82-2.627-3.826-5.552-4.033-5.552-4.033l.124-.901s4.423 1.151 5.861 3.69c1.44 2.538 3.014 3.2 2.208 7.94-.805 4.74-6.645 10.567-9.596 12.533-2.952 1.967-9.83 6.42-10.497 8.846-.668 2.426-2.024 6.292-.55 9.374 1.474 3.082 3.015 5.037 7.45 8.032 4.433 2.995 10.936 11.338 13.51 16.356 2.576 5.019 5.584 20.01 5.584 20.01z" fill="#564323"/><path d="M8.23 81.726c3.456.305 3.288-.957 4.219-1.925 1.327-1.38 10.295-9.299 8.579-19.074-2.2-12.527-6.152-12.65-15.131-33.88C1.57 16.617-2.07 6.377-2.07 6.377l.15 8.384C3.773 36.67 9.39 41.275 16.92 58.536c1.715 7.9-.437 9.742-1.86 11.754-1.423 2.013-4.847 5.879-6.184 6.564-1.336.685-1.2.692-1.42 1.514-.195.723.072 1.626.773 3.358z" fill="#26201a"/><path d="M-293.263 213.647s-4.58-12.635-7.84-19.18c-3.26-6.547-9.807-13.74-8.533-20.874 1.273-7.135 4.704-10.588 5.194-12.693.49-2.106-.315-2.32.142-2.738.456-.418 2.083-.347 2.312.154.229.501-.334 2.771-1.122 4.739-.788 1.967-3.422 5.15-3.695 8.898-.273 3.748-.36 5.085 1.75 8.18 2.107 3.093 10.155 14.354 11.352 16.148 1.196 1.794 3.332 8.395 3.224 10.503-.107 2.108-2.784 6.863-2.784 6.863z" fill="url(#c)" transform="translate(315.308 -55.477)"/><path d="M12.128 103.172s1.009-.005 1.418-.683c.408-.678.304-2.988 2.567-5.32 2.263-2.333 17.747-5.714 20.858-7.116 3.112-1.402 9.937-8.045 10.803-10.615.866-2.57 2.223-11.463 1.123-10.066-1.1 1.397-1.206 7.702-1.944 9.226-.738 1.525-7.116 8.647-10.79 10.175-3.675 1.528-15.177 4.356-18.029 5.686-2.851 1.329-4.938 2.44-5.738 4.951-.8 2.51-.268 3.762-.268 3.762z" fill="#564323"/><path d="M12.546 102.515s-.287 1.449-1.154.61c-.866-.84-2.086-4.944-3.759-6.57-1.672-1.626-10.759-4.966-12.694-7.209-1.935-2.242-1.931-8.92 1.572-13.486 3.504-4.566 5.784-5.139 6.423-7.907.64-2.769-5-11.162-5-11.162l.362-1.679s5.626 9.037 5.863 11.19c.237 2.152.333 1.867-1.476 4.38-1.81 2.513-7.277 5.95-6.986 9.647.29 3.698-.216 7.116 2.343 9.078C.6 91.368 3.735 92.31 6.112 93.79c2.377 1.478 4.107 2.996 4.748 4.34.081.171.195.545.47 1.34.458 1.322 1.347-.607 1.347-.607z" fill="#564323"/></svg>