<svg xmlns="http://www.w3.org/2000/svg" xmlns:xlink="http://www.w3.org/1999/xlink" width="163.656" height="240.69" viewBox="0 0 43.301 63.682"><defs><linearGradient id="a"><stop offset="0" stop-color="#26201a"/><stop offset="1" stop-color="#564323"/></linearGradient><linearGradient xlink:href="#a" id="b" x1="131.08" y1="144.013" x2="132.464" y2="119.807" gradientUnits="userSpaceOnUse"/></defs><path d="M27.076 23.88s-1.69-2.023-4.227-2.122c-2.537-.1-5.283.647-7.265 1.925-1.983 1.277-2.477 1.771-2.477 1.771s.326 1.718 3.553 2.17c3.226.451 3.419.644 3.419.644s-.287.877.906 5.167.907 3.68.907 3.68.853-1.988 1.925-1.731c1.072.257.524 2.218.524 2.218s3.208-1.64 5.476-3.263c2.269-1.624 3.321-5.174 3.321-5.174s.698.72 1.984.72c1.287 0 2.167-1.87 4.29-1.747 2.123.122 3.342 2.43 3.342 2.43s2.006-1.693-1.668-3.417c-3.674-1.724-5.628-3.157-8.276-3.157-2.648 0-5.734-.114-5.734-.114z" fill="#324100"/><path d="M25.04 18.971s-.897-10.478-.46-11.99c.437-1.512-.175-3.547-.175-3.547l1.382-1.588s-.427 1.308-.427 1.86c0 .553.24 1.988.177 2.696-.189 4.09-.019 5.994-.019 5.994.61 7.929 1.464 16.235-.478 6.575z" fill="#26201a"/><path d="M131.343 117.76l.939-.025c.057.042.551.503.342.813-.178.277-.237.515-.394.833-.532 1.073-2.006 2.935-2.464 3.845-.562 1.118-1.043 3.909-.685 7.908.357 3.998 3.574 9.932 4.223 10.558.649.626 1.851.777.814 1.87s-1.535.905-1.668-.144c-.134-1.05-4.692-9.013-4.692-12.423 0-3.411.609-6.64 1.291-8.084a23.94 23.94 0 012.135-3.67c.141-.362-.181-.517-.223-1.002-.007-.08-.062-.202.232-.453z" fill="url(#b)" transform="translate(-106.066 -117.897)"/><path d="M24.552 60.514c-.335-2.354.753-4.17.73-4.91-.022-.74-.27-.249-.044-.925.224-.676.759-1.499 1.362-1.809.604-.31 1.002-.07.845.31-.156.38-.731 1.065-.768 1.876-.037.812-.499 1.731-.93 3.096-.69 2.187.666 4.426.666 4.426z" fill="#26201a"/><path d="M26.754 63.348c-.255-.257-.238-.382-.337-.61-.098-.223-.112-.348-.279-.68-.589-1.064-1.94-2.766-2.438-3.756-.562-1.118-1.043-3.909-.685-7.907.357-4 3.506-9.94 3.942-10.729.878-1.593 2.416-5.84 1.938-7.268-1.547-4.623-2.908-4.462-1.478-1.688 1.449 2.81.067 5.691-1.033 7.4-.573.89-4.692 9.013-4.692 12.423 0 3.411.609 6.64 1.291 8.084.682 1.445 1.204 2.052 1.626 3 .287.646.52 1.273.224 1.458-.262.44.365.603.546.66.527.067.033.062.916.062 0 0 .299-.002.459-.45z" fill="#564323"/><path d="M27.672 25.667l-.867.932c-.045.376.152.341-.111 1.305-.264.964-1.355 2.751-1.906 4.712-.551 1.961-.891 10.125-.767 11.454.124 1.33 1.126 8.39 1.01 9.206-.114.815-.316 1.058.09 1.072.408.014.99-.983 1.874-1.438.883-.456-.09-.3-.45-1.223-.358-.923-1.149-8.828-.892-12.432.256-3.603.006-6.046.803-7.483.798-1.437 3.063-5.912 2.494-6.35-.48-.416-.755.058-1.278.245z" fill="#26201a"/><path d="M24.66 21.727s.193-.769-2.803-1.848c-2.995-1.078-7.571-.968-7.571-.968s5.292.464 6.43 1.71c1.139 1.248-4.812 2.2-7.16 2.661-2.346.462-2.498.462-2.498.462s2.005-.804.888-.898c-1.116-.094-3.547 1.776-4.743 1.48-1.196-.296 1.822-3.985-1.224-2.584C2.932 23.144.362 28.068.362 28.068s-1.14-.36.623-4.297c1.763-3.935 5.298-5.249 4.343-4.938-.955.31-2.033.665-2.033.665s.73-1.777 4.073-2.67c3.342-.892 6.58-.334 8.982.126 2.402.46 1.806.545 2.071.792.265.247-2.167.75-2.167.75s2.584.234 3.899.469c1.315.235 2.53.59 3.346 1.022.816.433.897.301 1.227.907.33.606-.066.833-.066.833zM17.308 6.3s2.124.207 4.24 1.607l2.115 1.4s1.998-1.957 3.684-3.34c1.687-1.381 2.168-1.978 3.7-1.978 1.53 0 2.548 1.503 3.529 3.48l2.456 4.953H34.91l.938 2.987-5.003-1.113s-.053 2.246-.442 3.515c-.388 1.268-2.297 3.173-2.297 3.173s-5.27-4.017-6.459-5.405c-1.188-1.387.331-3.464-1.378-2.458-1.709 1.006-2.452 1.729-2.452 1.729l-.689-2.43-1.069 2.758s-1.28-2.862-.901-4.919c.38-2.057 2.151-3.958 2.151-3.958z" fill="#73a825"/><path d="M21.954 53.322s-1.55-.177-2.811-1.01c-1.262-.835-2.367-1.146-3.275-.289-.907.857-1.574 1.803-1.574 1.803l1.92.562s-.276-.692-1.669 1.44c-1.393 2.133-.758 3.348-.758 3.348s2.231-1.155 3.88-1.439c1.649-.284 1.868-.43 1.868-.43l-.845 1.995 1.72-1.03-.297.636s1.655-.922 2.404-1.731c.75-.809 3.42-3.548 2.203-4.658-1.218-1.11-2.766.803-2.766.803z" fill="#5a7319"/></svg>